M48
; DRILL file {KiCad 8.0.8} date 2025-02-10T00:15:04+0100
; FORMAT={-:-/ absolute / metric / decimal}
; #@! TF.CreationDate,2025-02-10T00:15:04+01:00
; #@! TF.GenerationSoftware,Kicad,Pcbnew,8.0.8
; #@! TF.FileFunction,Plated,1,4,PTH
FMAT,2
METRIC
; #@! TA.AperFunction,Plated,PTH,ViaDrill
T1C0.300
; #@! TA.AperFunction,Plated,PTH,ComponentDrill
T2C1.016
%
G90
G05
T1
X10.5Y-42.73
X10.5Y-79.73
X13.015Y-15.795
X13.015Y-52.795
X16.8Y-24.23
X16.8Y-61.23
X17.5Y-24.93
X17.5Y-61.93
X17.7Y-38.0
X17.7Y-75.0
X18.1Y-23.63
X18.1Y-60.63
X19.2Y-25.73
X19.2Y-62.73
X19.3Y-23.03
X19.3Y-60.03
X19.675Y-35.15
X19.675Y-72.15
X20.7Y-22.43
X20.7Y-59.43
X21.6Y-12.03
X21.6Y-49.03
X23.6Y-39.7
X23.6Y-76.7
X24.445Y-20.174
X24.445Y-57.174
X24.45Y-41.6
X24.45Y-78.6
X27.65Y-38.6
X27.65Y-75.6
X28.7Y-31.835
X28.7Y-68.835
X29.5Y-36.4
X29.5Y-73.4
X30.0Y-42.5
X30.0Y-79.5
X31.4Y-43.135
X31.4Y-80.135
X31.5Y-20.43
X31.5Y-57.43
X32.7Y-32.835
X32.7Y-69.835
X38.5Y-42.73
X38.5Y-79.73
X41.015Y-15.795
X41.015Y-52.795
X44.8Y-24.23
X44.8Y-61.23
X45.5Y-24.93
X45.5Y-61.93
X45.7Y-38.0
X45.7Y-75.0
X46.1Y-23.63
X46.1Y-60.63
X47.2Y-25.73
X47.2Y-62.73
X47.3Y-23.03
X47.3Y-60.03
X47.675Y-35.15
X47.675Y-72.15
X48.7Y-22.43
X48.7Y-59.43
X49.6Y-12.03
X49.6Y-49.03
X51.6Y-39.7
X51.6Y-76.7
X52.445Y-20.174
X52.445Y-57.174
X52.45Y-41.6
X52.45Y-78.6
X55.65Y-38.6
X55.65Y-75.6
X56.7Y-31.835
X56.7Y-68.835
X57.5Y-36.4
X57.5Y-73.4
X58.0Y-42.5
X58.0Y-79.5
X59.4Y-43.135
X59.4Y-80.135
X59.5Y-20.43
X59.5Y-57.43
X60.7Y-32.835
X60.7Y-69.835
X66.5Y-42.73
X66.5Y-79.73
X69.015Y-15.795
X69.015Y-52.795
X72.8Y-24.23
X72.8Y-61.23
X73.5Y-24.93
X73.5Y-61.93
X73.7Y-38.0
X73.7Y-75.0
X74.1Y-23.63
X74.1Y-60.63
X75.2Y-25.73
X75.2Y-62.73
X75.3Y-23.03
X75.3Y-60.03
X75.675Y-35.15
X75.675Y-72.15
X76.7Y-22.43
X76.7Y-59.43
X77.6Y-12.03
X77.6Y-49.03
X79.6Y-39.7
X79.6Y-76.7
X80.445Y-20.174
X80.445Y-57.174
X80.45Y-41.6
X80.45Y-78.6
X83.65Y-38.6
X83.65Y-75.6
X84.7Y-31.835
X84.7Y-68.835
X85.5Y-36.4
X85.5Y-73.4
X86.0Y-42.5
X86.0Y-79.5
X87.4Y-43.135
X87.4Y-80.135
X87.5Y-20.43
X87.5Y-57.43
X88.7Y-32.835
X88.7Y-69.835
T2
X10.5Y-10.73
X10.5Y-13.27
X10.5Y-47.73
X10.5Y-50.27
X13.04Y-10.73
X13.04Y-13.27
X13.04Y-47.73
X13.04Y-50.27
X15.58Y-10.73
X15.58Y-13.27
X15.58Y-47.73
X15.58Y-50.27
X18.12Y-10.73
X18.12Y-13.27
X18.12Y-47.73
X18.12Y-50.27
X20.66Y-10.73
X20.66Y-13.27
X20.66Y-47.73
X20.66Y-50.27
X23.2Y-10.73
X23.2Y-13.27
X23.2Y-47.73
X23.2Y-50.27
X25.74Y-10.73
X25.74Y-13.27
X25.74Y-47.73
X25.74Y-50.27
X28.28Y-10.73
X28.28Y-13.27
X28.28Y-47.73
X28.28Y-50.27
X30.82Y-10.73
X30.82Y-13.27
X30.82Y-47.73
X30.82Y-50.27
X33.36Y-10.73
X33.36Y-13.27
X33.36Y-47.73
X33.36Y-50.27
X38.5Y-10.73
X38.5Y-13.27
X38.5Y-47.73
X38.5Y-50.27
X41.04Y-10.73
X41.04Y-13.27
X41.04Y-47.73
X41.04Y-50.27
X43.58Y-10.73
X43.58Y-13.27
X43.58Y-47.73
X43.58Y-50.27
X46.12Y-10.73
X46.12Y-13.27
X46.12Y-47.73
X46.12Y-50.27
X48.66Y-10.73
X48.66Y-13.27
X48.66Y-47.73
X48.66Y-50.27
X51.2Y-10.73
X51.2Y-13.27
X51.2Y-47.73
X51.2Y-50.27
X53.74Y-10.73
X53.74Y-13.27
X53.74Y-47.73
X53.74Y-50.27
X56.28Y-10.73
X56.28Y-13.27
X56.28Y-47.73
X56.28Y-50.27
X58.82Y-10.73
X58.82Y-13.27
X58.82Y-47.73
X58.82Y-50.27
X61.36Y-10.73
X61.36Y-13.27
X61.36Y-47.73
X61.36Y-50.27
X66.5Y-10.73
X66.5Y-13.27
X66.5Y-47.73
X66.5Y-50.27
X69.04Y-10.73
X69.04Y-13.27
X69.04Y-47.73
X69.04Y-50.27
X71.58Y-10.73
X71.58Y-13.27
X71.58Y-47.73
X71.58Y-50.27
X74.12Y-10.73
X74.12Y-13.27
X74.12Y-47.73
X74.12Y-50.27
X76.66Y-10.73
X76.66Y-13.27
X76.66Y-47.73
X76.66Y-50.27
X79.2Y-10.73
X79.2Y-13.27
X79.2Y-47.73
X79.2Y-50.27
X81.74Y-10.73
X81.74Y-13.27
X81.74Y-47.73
X81.74Y-50.27
X84.28Y-10.73
X84.28Y-13.27
X84.28Y-47.73
X84.28Y-50.27
X86.82Y-10.73
X86.82Y-13.27
X86.82Y-47.73
X86.82Y-50.27
X89.36Y-10.73
X89.36Y-13.27
X89.36Y-47.73
X89.36Y-50.27
M30
