M48
; DRILL file {KiCad 8.0.8} date 2025-02-10T00:15:04+0100
; FORMAT={-:-/ absolute / metric / decimal}
; #@! TF.CreationDate,2025-02-10T00:15:04+01:00
; #@! TF.GenerationSoftware,Kicad,Pcbnew,8.0.8
; #@! TF.FileFunction,NonPlated,1,4,NPTH
FMAT,2
METRIC
; #@! TA.AperFunction,NonPlated,NPTH,ComponentDrill
T1C0.500
%
G90
G05
T1
X0.3Y-9.0
X0.3Y-81.2
X1.1Y-9.0
X1.1Y-81.2
X1.9Y-9.0
X1.9Y-81.2
X2.7Y-9.0
X2.7Y-81.2
X3.5Y-9.0
X3.5Y-81.2
X4.3Y-9.0
X4.3Y-81.2
X5.1Y-9.0
X5.1Y-81.2
X5.9Y-9.0
X5.9Y-81.2
X6.7Y-9.0
X6.7Y-81.2
X9.0Y-24.1
X9.0Y-24.9
X9.0Y-25.7
X9.0Y-26.5
X9.0Y-27.3
X9.0Y-28.1
X9.0Y-28.9
X9.0Y-61.1
X9.0Y-61.9
X9.0Y-62.7
X9.0Y-63.5
X9.0Y-64.3
X9.0Y-65.1
X9.0Y-65.9
X19.6Y-9.0
X19.6Y-44.2
X19.6Y-46.0
X19.6Y-81.2
X20.4Y-9.0
X20.4Y-44.2
X20.4Y-46.0
X20.4Y-81.2
X21.2Y-9.0
X21.2Y-44.2
X21.2Y-46.0
X21.2Y-81.2
X22.0Y-9.0
X22.0Y-44.2
X22.0Y-46.0
X22.0Y-81.2
X22.8Y-9.0
X22.8Y-44.2
X22.8Y-46.0
X22.8Y-81.2
X23.6Y-9.0
X23.6Y-44.2
X23.6Y-46.0
X23.6Y-81.2
X24.4Y-9.0
X24.4Y-44.2
X24.4Y-46.0
X24.4Y-81.2
X35.0Y-24.1
X35.0Y-24.9
X35.0Y-25.7
X35.0Y-26.5
X35.0Y-27.3
X35.0Y-28.1
X35.0Y-28.9
X35.0Y-61.1
X35.0Y-61.9
X35.0Y-62.7
X35.0Y-63.5
X35.0Y-64.3
X35.0Y-65.1
X35.0Y-65.9
X37.0Y-24.1
X37.0Y-24.9
X37.0Y-25.7
X37.0Y-26.5
X37.0Y-27.3
X37.0Y-28.1
X37.0Y-28.9
X37.0Y-61.1
X37.0Y-61.9
X37.0Y-62.7
X37.0Y-63.5
X37.0Y-64.3
X37.0Y-65.1
X37.0Y-65.9
X47.6Y-9.0
X47.6Y-44.2
X47.6Y-46.0
X47.6Y-81.2
X48.4Y-9.0
X48.4Y-44.2
X48.4Y-46.0
X48.4Y-81.2
X49.2Y-9.0
X49.2Y-44.2
X49.2Y-46.0
X49.2Y-81.2
X50.0Y-9.0
X50.0Y-44.2
X50.0Y-46.0
X50.0Y-81.2
X50.8Y-9.0
X50.8Y-44.2
X50.8Y-46.0
X50.8Y-81.2
X51.6Y-9.0
X51.6Y-44.2
X51.6Y-46.0
X51.6Y-81.2
X52.4Y-9.0
X52.4Y-44.2
X52.4Y-46.0
X52.4Y-81.2
X63.0Y-24.1
X63.0Y-24.9
X63.0Y-25.7
X63.0Y-26.5
X63.0Y-27.3
X63.0Y-28.1
X63.0Y-28.9
X63.0Y-61.1
X63.0Y-61.9
X63.0Y-62.7
X63.0Y-63.5
X63.0Y-64.3
X63.0Y-65.1
X63.0Y-65.9
X65.0Y-24.1
X65.0Y-24.9
X65.0Y-25.7
X65.0Y-26.5
X65.0Y-27.3
X65.0Y-28.1
X65.0Y-28.9
X65.0Y-61.1
X65.0Y-61.9
X65.0Y-62.7
X65.0Y-63.5
X65.0Y-64.3
X65.0Y-65.1
X65.0Y-65.9
X75.6Y-9.0
X75.6Y-44.2
X75.6Y-46.0
X75.6Y-81.2
X76.4Y-9.0
X76.4Y-44.2
X76.4Y-46.0
X76.4Y-81.2
X77.2Y-9.0
X77.2Y-44.2
X77.2Y-46.0
X77.2Y-81.2
X78.0Y-9.0
X78.0Y-44.2
X78.0Y-46.0
X78.0Y-81.2
X78.8Y-9.0
X78.8Y-44.2
X78.8Y-46.0
X78.8Y-81.2
X79.6Y-9.0
X79.6Y-44.2
X79.6Y-46.0
X79.6Y-81.2
X80.4Y-9.0
X80.4Y-44.2
X80.4Y-46.0
X80.4Y-81.2
X91.0Y-24.1
X91.0Y-24.9
X91.0Y-25.7
X91.0Y-26.5
X91.0Y-27.3
X91.0Y-28.1
X91.0Y-28.9
X91.0Y-61.1
X91.0Y-61.9
X91.0Y-62.7
X91.0Y-63.5
X91.0Y-64.3
X91.0Y-65.1
X91.0Y-65.9
X93.3Y-9.0
X93.3Y-81.2
X94.1Y-9.0
X94.1Y-81.2
X94.9Y-9.0
X94.9Y-81.2
X95.7Y-9.0
X95.7Y-81.2
X96.5Y-9.0
X96.5Y-81.2
X97.3Y-9.0
X97.3Y-81.2
X98.1Y-9.0
X98.1Y-81.2
X98.9Y-9.0
X98.9Y-81.2
X99.7Y-9.0
X99.7Y-81.2
M30
