%TF.GenerationSoftware,KiCad,Pcbnew,8.0.8*%
%TF.CreationDate,2025-02-10T00:15:04+01:00*%
%TF.ProjectId,opl3module,6f706c33-6d6f-4647-956c-652e6b696361,1.2*%
%TF.SameCoordinates,Original*%
%TF.FileFunction,Drillmap*%
%TF.FilePolarity,Positive*%
%FSLAX45Y45*%
G04 Gerber Fmt 4.5, Leading zero omitted, Abs format (unit mm)*
G04 Created by KiCad (PCBNEW 8.0.8) date 2025-02-10 00:15:04*
%MOMM*%
%LPD*%
G01*
G04 APERTURE LIST*
%ADD10C,0.100000*%
%ADD11C,0.200000*%
G04 APERTURE END LIST*
D10*
X5350000Y-8100000D02*
X6300000Y-8100000D01*
X700000Y-6700000D02*
X700000Y-8200000D01*
X1850000Y-700000D02*
X800000Y-700000D01*
X6500000Y-900000D02*
X7450000Y-900000D01*
X10000000Y0D02*
X10000000Y-9000000D01*
X8150000Y-4600000D02*
X9100000Y-4600000D01*
X800000Y-8300000D02*
X1850000Y-8300000D01*
X9300000Y-8200000D02*
X9300000Y-6700000D01*
X6500000Y-6000000D02*
X6500000Y-4600000D01*
X10000000Y-9000000D02*
X0Y-9000000D01*
X2550000Y-4400000D02*
X3500000Y-4400000D01*
X7450000Y-4400000D02*
X6500000Y-4400000D01*
X3700000Y-6700000D02*
X3700000Y-8100000D01*
X9100000Y-6700000D02*
X9100000Y-8100000D01*
X900000Y-4600000D02*
X1850000Y-4600000D01*
X9300000Y-6000000D02*
X9300000Y-3000000D01*
X6500000Y-4600000D02*
X7450000Y-4600000D01*
X3700000Y-6000000D02*
X3700000Y-4600000D01*
X6300000Y-4600000D02*
X6300000Y-6000000D01*
X6500000Y-6700000D02*
X6500000Y-8100000D01*
X7450000Y-700000D02*
X5350000Y-700000D01*
X4650000Y-8100000D02*
X3700000Y-8100000D01*
X5350000Y-4600000D02*
X6300000Y-4600000D01*
X6300000Y-6700000D02*
X6300000Y-8100000D01*
X2550000Y-4600000D02*
X3500000Y-4600000D01*
X6300000Y-900000D02*
X6300000Y-2300000D01*
X700000Y-800000D02*
X700000Y-2300000D01*
X8150000Y-8100000D02*
X9100000Y-8100000D01*
X3700000Y-4600000D02*
X4650000Y-4600000D01*
X3500000Y-900000D02*
X3500000Y-2300000D01*
X1850000Y-8100000D02*
X900000Y-8100000D01*
X3500000Y-3000000D02*
X3500000Y-4400000D01*
X3700000Y-900000D02*
X4650000Y-900000D01*
X9100000Y-3000000D02*
X9100000Y-4400000D01*
X7450000Y-8100000D02*
X6500000Y-8100000D01*
X3500000Y-4600000D02*
X3500000Y-6000000D01*
X8150000Y-4400000D02*
X9100000Y-4400000D01*
X6300000Y-3000000D02*
X6300000Y-4400000D01*
X6500000Y-3000000D02*
X6500000Y-4400000D01*
X2550000Y-8100000D02*
X3500000Y-8100000D01*
X4650000Y-700000D02*
X2550000Y-700000D01*
X9200000Y-700000D02*
X8150000Y-700000D01*
X5350000Y-8300000D02*
X7450000Y-8300000D01*
X8150000Y-8300000D02*
X9200000Y-8300000D01*
X9100000Y-900000D02*
X9100000Y-2300000D01*
X5350000Y-4400000D02*
X6300000Y-4400000D01*
X1850000Y-4400000D02*
X900000Y-4400000D01*
X9100000Y-4600000D02*
X9100000Y-6000000D01*
X2550000Y-900000D02*
X3500000Y-900000D01*
X3700000Y-2300000D02*
X3700000Y-900000D01*
X9300000Y-2300000D02*
X9300000Y-800000D01*
X5350000Y-900000D02*
X6300000Y-900000D01*
X900000Y-6000000D02*
X900000Y-4600000D01*
X3700000Y-3000000D02*
X3700000Y-4400000D01*
X900000Y-900000D02*
X1850000Y-900000D01*
X2550000Y-8300000D02*
X4650000Y-8300000D01*
X0Y0D02*
X0Y-9000000D01*
X4650000Y-4400000D02*
X3700000Y-4400000D01*
X900000Y-3000000D02*
X900000Y-4400000D01*
X6500000Y-2300000D02*
X6500000Y-900000D01*
X3500000Y-6700000D02*
X3500000Y-8100000D01*
X900000Y-6700000D02*
X900000Y-8100000D01*
X10000000Y0D02*
X0Y0D01*
X8150000Y-900000D02*
X9100000Y-900000D01*
X700000Y-3000000D02*
X700000Y-6000000D01*
X900000Y-2300000D02*
X900000Y-900000D01*
X9300000Y-8200000D02*
G75*
G02*
X9200000Y-8300000I-100000J0D01*
G01*
X9100000Y-3000000D02*
G75*
G02*
X9300000Y-3000000I100000J0D01*
G01*
X9300000Y-2300000D02*
G75*
G02*
X9100000Y-2300000I-100000J0D01*
G01*
X7450000Y-8100000D02*
G75*
G02*
X7450000Y-8300000I0J-100000D01*
G01*
X8150000Y-8300000D02*
G75*
G02*
X8150000Y-8100000I0J100000D01*
G01*
X6300000Y-6700000D02*
G75*
G02*
X6500000Y-6700000I100000J0D01*
G01*
X6500000Y-6000000D02*
G75*
G02*
X6300000Y-6000000I-100000J0D01*
G01*
X7450000Y-700000D02*
G75*
G02*
X7450000Y-900000I0J-100000D01*
G01*
X8150000Y-900000D02*
G75*
G02*
X8150000Y-700000I0J100000D01*
G01*
X700000Y-6700000D02*
G75*
G02*
X900000Y-6700000I100000J0D01*
G01*
X900000Y-6000000D02*
G75*
G02*
X700000Y-6000000I-100000J0D01*
G01*
X800000Y-8300000D02*
G75*
G02*
X700000Y-8200000I0J100000D01*
G01*
X1850000Y-4400000D02*
G75*
G02*
X1850000Y-4600000I0J-100000D01*
G01*
X2550000Y-4600000D02*
G75*
G02*
X2550000Y-4400000I0J100000D01*
G01*
X3500000Y-3000000D02*
G75*
G02*
X3700000Y-3000000I100000J0D01*
G01*
X3700000Y-2300000D02*
G75*
G02*
X3500000Y-2300000I-100000J0D01*
G01*
X4650000Y-4400000D02*
G75*
G02*
X4650000Y-4600000I0J-100000D01*
G01*
X5350000Y-4600000D02*
G75*
G02*
X5350000Y-4400000I0J100000D01*
G01*
X9200000Y-700000D02*
G75*
G02*
X9300000Y-800000I0J-100000D01*
G01*
X700000Y-3000000D02*
G75*
G02*
X900000Y-3000000I100000J0D01*
G01*
X900000Y-2300000D02*
G75*
G02*
X700000Y-2300000I-100000J0D01*
G01*
X7450000Y-4400000D02*
G75*
G02*
X7450000Y-4600000I0J-100000D01*
G01*
X8150000Y-4600000D02*
G75*
G02*
X8150000Y-4400000I0J100000D01*
G01*
X9100000Y-6700000D02*
G75*
G02*
X9300000Y-6700000I100000J0D01*
G01*
X9300000Y-6000000D02*
G75*
G02*
X9100000Y-6000000I-100000J0D01*
G01*
X700000Y-800000D02*
G75*
G02*
X800000Y-700000I100000J0D01*
G01*
X3500000Y-6700000D02*
G75*
G02*
X3700000Y-6700000I100000J0D01*
G01*
X3700000Y-6000000D02*
G75*
G02*
X3500000Y-6000000I-100000J0D01*
G01*
X4650000Y-700000D02*
G75*
G02*
X4650000Y-900000I0J-100000D01*
G01*
X5350000Y-900000D02*
G75*
G02*
X5350000Y-700000I0J100000D01*
G01*
X1850000Y-700000D02*
G75*
G02*
X1850000Y-900000I0J-100000D01*
G01*
X2550000Y-900000D02*
G75*
G02*
X2550000Y-700000I0J100000D01*
G01*
X1850000Y-8100000D02*
G75*
G02*
X1850000Y-8300000I0J-100000D01*
G01*
X2550000Y-8300000D02*
G75*
G02*
X2550000Y-8100000I0J100000D01*
G01*
X4650000Y-8100000D02*
G75*
G02*
X4650000Y-8300000I0J-100000D01*
G01*
X5350000Y-8300000D02*
G75*
G02*
X5350000Y-8100000I0J100000D01*
G01*
X6300000Y-3000000D02*
G75*
G02*
X6500000Y-3000000I100000J0D01*
G01*
X6500000Y-2300000D02*
G75*
G02*
X6300000Y-2300000I-100000J0D01*
G01*
D11*
D10*
X5000Y-875000D02*
X55000Y-925000D01*
X55000Y-875000D02*
X5000Y-925000D01*
X5000Y-8095000D02*
X55000Y-8145000D01*
X55000Y-8095000D02*
X5000Y-8145000D01*
X85000Y-875000D02*
X135000Y-925000D01*
X135000Y-875000D02*
X85000Y-925000D01*
X85000Y-8095000D02*
X135000Y-8145000D01*
X135000Y-8095000D02*
X85000Y-8145000D01*
X165000Y-875000D02*
X215000Y-925000D01*
X215000Y-875000D02*
X165000Y-925000D01*
X165000Y-8095000D02*
X215000Y-8145000D01*
X215000Y-8095000D02*
X165000Y-8145000D01*
X245000Y-875000D02*
X295000Y-925000D01*
X295000Y-875000D02*
X245000Y-925000D01*
X245000Y-8095000D02*
X295000Y-8145000D01*
X295000Y-8095000D02*
X245000Y-8145000D01*
X325000Y-875000D02*
X375000Y-925000D01*
X375000Y-875000D02*
X325000Y-925000D01*
X325000Y-8095000D02*
X375000Y-8145000D01*
X375000Y-8095000D02*
X325000Y-8145000D01*
X405000Y-875000D02*
X455000Y-925000D01*
X455000Y-875000D02*
X405000Y-925000D01*
X405000Y-8095000D02*
X455000Y-8145000D01*
X455000Y-8095000D02*
X405000Y-8145000D01*
X485000Y-875000D02*
X535000Y-925000D01*
X535000Y-875000D02*
X485000Y-925000D01*
X485000Y-8095000D02*
X535000Y-8145000D01*
X535000Y-8095000D02*
X485000Y-8145000D01*
X565000Y-875000D02*
X615000Y-925000D01*
X615000Y-875000D02*
X565000Y-925000D01*
X565000Y-8095000D02*
X615000Y-8145000D01*
X615000Y-8095000D02*
X565000Y-8145000D01*
X645000Y-875000D02*
X695000Y-925000D01*
X695000Y-875000D02*
X645000Y-925000D01*
X645000Y-8095000D02*
X695000Y-8145000D01*
X695000Y-8095000D02*
X645000Y-8145000D01*
X875000Y-2385000D02*
X925000Y-2435000D01*
X925000Y-2385000D02*
X875000Y-2435000D01*
X875000Y-2465000D02*
X925000Y-2515000D01*
X925000Y-2465000D02*
X875000Y-2515000D01*
X875000Y-2545000D02*
X925000Y-2595000D01*
X925000Y-2545000D02*
X875000Y-2595000D01*
X875000Y-2625000D02*
X925000Y-2675000D01*
X925000Y-2625000D02*
X875000Y-2675000D01*
X875000Y-2705000D02*
X925000Y-2755000D01*
X925000Y-2705000D02*
X875000Y-2755000D01*
X875000Y-2785000D02*
X925000Y-2835000D01*
X925000Y-2785000D02*
X875000Y-2835000D01*
X875000Y-2865000D02*
X925000Y-2915000D01*
X925000Y-2865000D02*
X875000Y-2915000D01*
X875000Y-6085000D02*
X925000Y-6135000D01*
X925000Y-6085000D02*
X875000Y-6135000D01*
X875000Y-6165000D02*
X925000Y-6215000D01*
X925000Y-6165000D02*
X875000Y-6215000D01*
X875000Y-6245000D02*
X925000Y-6295000D01*
X925000Y-6245000D02*
X875000Y-6295000D01*
X875000Y-6325000D02*
X925000Y-6375000D01*
X925000Y-6325000D02*
X875000Y-6375000D01*
X875000Y-6405000D02*
X925000Y-6455000D01*
X925000Y-6405000D02*
X875000Y-6455000D01*
X875000Y-6485000D02*
X925000Y-6535000D01*
X925000Y-6485000D02*
X875000Y-6535000D01*
X875000Y-6565000D02*
X925000Y-6615000D01*
X925000Y-6565000D02*
X875000Y-6615000D01*
X1935000Y-875000D02*
X1985000Y-925000D01*
X1985000Y-875000D02*
X1935000Y-925000D01*
X1935000Y-4395000D02*
X1985000Y-4445000D01*
X1985000Y-4395000D02*
X1935000Y-4445000D01*
X1935000Y-4575000D02*
X1985000Y-4625000D01*
X1985000Y-4575000D02*
X1935000Y-4625000D01*
X1935000Y-8095000D02*
X1985000Y-8145000D01*
X1985000Y-8095000D02*
X1935000Y-8145000D01*
X2015000Y-875000D02*
X2065000Y-925000D01*
X2065000Y-875000D02*
X2015000Y-925000D01*
X2015000Y-4395000D02*
X2065000Y-4445000D01*
X2065000Y-4395000D02*
X2015000Y-4445000D01*
X2015000Y-4575000D02*
X2065000Y-4625000D01*
X2065000Y-4575000D02*
X2015000Y-4625000D01*
X2015000Y-8095000D02*
X2065000Y-8145000D01*
X2065000Y-8095000D02*
X2015000Y-8145000D01*
X2095000Y-875000D02*
X2145000Y-925000D01*
X2145000Y-875000D02*
X2095000Y-925000D01*
X2095000Y-4395000D02*
X2145000Y-4445000D01*
X2145000Y-4395000D02*
X2095000Y-4445000D01*
X2095000Y-4575000D02*
X2145000Y-4625000D01*
X2145000Y-4575000D02*
X2095000Y-4625000D01*
X2095000Y-8095000D02*
X2145000Y-8145000D01*
X2145000Y-8095000D02*
X2095000Y-8145000D01*
X2175000Y-875000D02*
X2225000Y-925000D01*
X2225000Y-875000D02*
X2175000Y-925000D01*
X2175000Y-4395000D02*
X2225000Y-4445000D01*
X2225000Y-4395000D02*
X2175000Y-4445000D01*
X2175000Y-4575000D02*
X2225000Y-4625000D01*
X2225000Y-4575000D02*
X2175000Y-4625000D01*
X2175000Y-8095000D02*
X2225000Y-8145000D01*
X2225000Y-8095000D02*
X2175000Y-8145000D01*
X2255000Y-875000D02*
X2305000Y-925000D01*
X2305000Y-875000D02*
X2255000Y-925000D01*
X2255000Y-4395000D02*
X2305000Y-4445000D01*
X2305000Y-4395000D02*
X2255000Y-4445000D01*
X2255000Y-4575000D02*
X2305000Y-4625000D01*
X2305000Y-4575000D02*
X2255000Y-4625000D01*
X2255000Y-8095000D02*
X2305000Y-8145000D01*
X2305000Y-8095000D02*
X2255000Y-8145000D01*
X2335000Y-875000D02*
X2385000Y-925000D01*
X2385000Y-875000D02*
X2335000Y-925000D01*
X2335000Y-4395000D02*
X2385000Y-4445000D01*
X2385000Y-4395000D02*
X2335000Y-4445000D01*
X2335000Y-4575000D02*
X2385000Y-4625000D01*
X2385000Y-4575000D02*
X2335000Y-4625000D01*
X2335000Y-8095000D02*
X2385000Y-8145000D01*
X2385000Y-8095000D02*
X2335000Y-8145000D01*
X2415000Y-875000D02*
X2465000Y-925000D01*
X2465000Y-875000D02*
X2415000Y-925000D01*
X2415000Y-4395000D02*
X2465000Y-4445000D01*
X2465000Y-4395000D02*
X2415000Y-4445000D01*
X2415000Y-4575000D02*
X2465000Y-4625000D01*
X2465000Y-4575000D02*
X2415000Y-4625000D01*
X2415000Y-8095000D02*
X2465000Y-8145000D01*
X2465000Y-8095000D02*
X2415000Y-8145000D01*
X3475000Y-2385000D02*
X3525000Y-2435000D01*
X3525000Y-2385000D02*
X3475000Y-2435000D01*
X3475000Y-2465000D02*
X3525000Y-2515000D01*
X3525000Y-2465000D02*
X3475000Y-2515000D01*
X3475000Y-2545000D02*
X3525000Y-2595000D01*
X3525000Y-2545000D02*
X3475000Y-2595000D01*
X3475000Y-2625000D02*
X3525000Y-2675000D01*
X3525000Y-2625000D02*
X3475000Y-2675000D01*
X3475000Y-2705000D02*
X3525000Y-2755000D01*
X3525000Y-2705000D02*
X3475000Y-2755000D01*
X3475000Y-2785000D02*
X3525000Y-2835000D01*
X3525000Y-2785000D02*
X3475000Y-2835000D01*
X3475000Y-2865000D02*
X3525000Y-2915000D01*
X3525000Y-2865000D02*
X3475000Y-2915000D01*
X3475000Y-6085000D02*
X3525000Y-6135000D01*
X3525000Y-6085000D02*
X3475000Y-6135000D01*
X3475000Y-6165000D02*
X3525000Y-6215000D01*
X3525000Y-6165000D02*
X3475000Y-6215000D01*
X3475000Y-6245000D02*
X3525000Y-6295000D01*
X3525000Y-6245000D02*
X3475000Y-6295000D01*
X3475000Y-6325000D02*
X3525000Y-6375000D01*
X3525000Y-6325000D02*
X3475000Y-6375000D01*
X3475000Y-6405000D02*
X3525000Y-6455000D01*
X3525000Y-6405000D02*
X3475000Y-6455000D01*
X3475000Y-6485000D02*
X3525000Y-6535000D01*
X3525000Y-6485000D02*
X3475000Y-6535000D01*
X3475000Y-6565000D02*
X3525000Y-6615000D01*
X3525000Y-6565000D02*
X3475000Y-6615000D01*
X3675000Y-2385000D02*
X3725000Y-2435000D01*
X3725000Y-2385000D02*
X3675000Y-2435000D01*
X3675000Y-2465000D02*
X3725000Y-2515000D01*
X3725000Y-2465000D02*
X3675000Y-2515000D01*
X3675000Y-2545000D02*
X3725000Y-2595000D01*
X3725000Y-2545000D02*
X3675000Y-2595000D01*
X3675000Y-2625000D02*
X3725000Y-2675000D01*
X3725000Y-2625000D02*
X3675000Y-2675000D01*
X3675000Y-2705000D02*
X3725000Y-2755000D01*
X3725000Y-2705000D02*
X3675000Y-2755000D01*
X3675000Y-2785000D02*
X3725000Y-2835000D01*
X3725000Y-2785000D02*
X3675000Y-2835000D01*
X3675000Y-2865000D02*
X3725000Y-2915000D01*
X3725000Y-2865000D02*
X3675000Y-2915000D01*
X3675000Y-6085000D02*
X3725000Y-6135000D01*
X3725000Y-6085000D02*
X3675000Y-6135000D01*
X3675000Y-6165000D02*
X3725000Y-6215000D01*
X3725000Y-6165000D02*
X3675000Y-6215000D01*
X3675000Y-6245000D02*
X3725000Y-6295000D01*
X3725000Y-6245000D02*
X3675000Y-6295000D01*
X3675000Y-6325000D02*
X3725000Y-6375000D01*
X3725000Y-6325000D02*
X3675000Y-6375000D01*
X3675000Y-6405000D02*
X3725000Y-6455000D01*
X3725000Y-6405000D02*
X3675000Y-6455000D01*
X3675000Y-6485000D02*
X3725000Y-6535000D01*
X3725000Y-6485000D02*
X3675000Y-6535000D01*
X3675000Y-6565000D02*
X3725000Y-6615000D01*
X3725000Y-6565000D02*
X3675000Y-6615000D01*
X4735000Y-875000D02*
X4785000Y-925000D01*
X4785000Y-875000D02*
X4735000Y-925000D01*
X4735000Y-4395000D02*
X4785000Y-4445000D01*
X4785000Y-4395000D02*
X4735000Y-4445000D01*
X4735000Y-4575000D02*
X4785000Y-4625000D01*
X4785000Y-4575000D02*
X4735000Y-4625000D01*
X4735000Y-8095000D02*
X4785000Y-8145000D01*
X4785000Y-8095000D02*
X4735000Y-8145000D01*
X4815000Y-875000D02*
X4865000Y-925000D01*
X4865000Y-875000D02*
X4815000Y-925000D01*
X4815000Y-4395000D02*
X4865000Y-4445000D01*
X4865000Y-4395000D02*
X4815000Y-4445000D01*
X4815000Y-4575000D02*
X4865000Y-4625000D01*
X4865000Y-4575000D02*
X4815000Y-4625000D01*
X4815000Y-8095000D02*
X4865000Y-8145000D01*
X4865000Y-8095000D02*
X4815000Y-8145000D01*
X4895000Y-875000D02*
X4945000Y-925000D01*
X4945000Y-875000D02*
X4895000Y-925000D01*
X4895000Y-4395000D02*
X4945000Y-4445000D01*
X4945000Y-4395000D02*
X4895000Y-4445000D01*
X4895000Y-4575000D02*
X4945000Y-4625000D01*
X4945000Y-4575000D02*
X4895000Y-4625000D01*
X4895000Y-8095000D02*
X4945000Y-8145000D01*
X4945000Y-8095000D02*
X4895000Y-8145000D01*
X4975000Y-875000D02*
X5025000Y-925000D01*
X5025000Y-875000D02*
X4975000Y-925000D01*
X4975000Y-4395000D02*
X5025000Y-4445000D01*
X5025000Y-4395000D02*
X4975000Y-4445000D01*
X4975000Y-4575000D02*
X5025000Y-4625000D01*
X5025000Y-4575000D02*
X4975000Y-4625000D01*
X4975000Y-8095000D02*
X5025000Y-8145000D01*
X5025000Y-8095000D02*
X4975000Y-8145000D01*
X5055000Y-875000D02*
X5105000Y-925000D01*
X5105000Y-875000D02*
X5055000Y-925000D01*
X5055000Y-4395000D02*
X5105000Y-4445000D01*
X5105000Y-4395000D02*
X5055000Y-4445000D01*
X5055000Y-4575000D02*
X5105000Y-4625000D01*
X5105000Y-4575000D02*
X5055000Y-4625000D01*
X5055000Y-8095000D02*
X5105000Y-8145000D01*
X5105000Y-8095000D02*
X5055000Y-8145000D01*
X5135000Y-875000D02*
X5185000Y-925000D01*
X5185000Y-875000D02*
X5135000Y-925000D01*
X5135000Y-4395000D02*
X5185000Y-4445000D01*
X5185000Y-4395000D02*
X5135000Y-4445000D01*
X5135000Y-4575000D02*
X5185000Y-4625000D01*
X5185000Y-4575000D02*
X5135000Y-4625000D01*
X5135000Y-8095000D02*
X5185000Y-8145000D01*
X5185000Y-8095000D02*
X5135000Y-8145000D01*
X5215000Y-875000D02*
X5265000Y-925000D01*
X5265000Y-875000D02*
X5215000Y-925000D01*
X5215000Y-4395000D02*
X5265000Y-4445000D01*
X5265000Y-4395000D02*
X5215000Y-4445000D01*
X5215000Y-4575000D02*
X5265000Y-4625000D01*
X5265000Y-4575000D02*
X5215000Y-4625000D01*
X5215000Y-8095000D02*
X5265000Y-8145000D01*
X5265000Y-8095000D02*
X5215000Y-8145000D01*
X6275000Y-2385000D02*
X6325000Y-2435000D01*
X6325000Y-2385000D02*
X6275000Y-2435000D01*
X6275000Y-2465000D02*
X6325000Y-2515000D01*
X6325000Y-2465000D02*
X6275000Y-2515000D01*
X6275000Y-2545000D02*
X6325000Y-2595000D01*
X6325000Y-2545000D02*
X6275000Y-2595000D01*
X6275000Y-2625000D02*
X6325000Y-2675000D01*
X6325000Y-2625000D02*
X6275000Y-2675000D01*
X6275000Y-2705000D02*
X6325000Y-2755000D01*
X6325000Y-2705000D02*
X6275000Y-2755000D01*
X6275000Y-2785000D02*
X6325000Y-2835000D01*
X6325000Y-2785000D02*
X6275000Y-2835000D01*
X6275000Y-2865000D02*
X6325000Y-2915000D01*
X6325000Y-2865000D02*
X6275000Y-2915000D01*
X6275000Y-6085000D02*
X6325000Y-6135000D01*
X6325000Y-6085000D02*
X6275000Y-6135000D01*
X6275000Y-6165000D02*
X6325000Y-6215000D01*
X6325000Y-6165000D02*
X6275000Y-6215000D01*
X6275000Y-6245000D02*
X6325000Y-6295000D01*
X6325000Y-6245000D02*
X6275000Y-6295000D01*
X6275000Y-6325000D02*
X6325000Y-6375000D01*
X6325000Y-6325000D02*
X6275000Y-6375000D01*
X6275000Y-6405000D02*
X6325000Y-6455000D01*
X6325000Y-6405000D02*
X6275000Y-6455000D01*
X6275000Y-6485000D02*
X6325000Y-6535000D01*
X6325000Y-6485000D02*
X6275000Y-6535000D01*
X6275000Y-6565000D02*
X6325000Y-6615000D01*
X6325000Y-6565000D02*
X6275000Y-6615000D01*
X6475000Y-2385000D02*
X6525000Y-2435000D01*
X6525000Y-2385000D02*
X6475000Y-2435000D01*
X6475000Y-2465000D02*
X6525000Y-2515000D01*
X6525000Y-2465000D02*
X6475000Y-2515000D01*
X6475000Y-2545000D02*
X6525000Y-2595000D01*
X6525000Y-2545000D02*
X6475000Y-2595000D01*
X6475000Y-2625000D02*
X6525000Y-2675000D01*
X6525000Y-2625000D02*
X6475000Y-2675000D01*
X6475000Y-2705000D02*
X6525000Y-2755000D01*
X6525000Y-2705000D02*
X6475000Y-2755000D01*
X6475000Y-2785000D02*
X6525000Y-2835000D01*
X6525000Y-2785000D02*
X6475000Y-2835000D01*
X6475000Y-2865000D02*
X6525000Y-2915000D01*
X6525000Y-2865000D02*
X6475000Y-2915000D01*
X6475000Y-6085000D02*
X6525000Y-6135000D01*
X6525000Y-6085000D02*
X6475000Y-6135000D01*
X6475000Y-6165000D02*
X6525000Y-6215000D01*
X6525000Y-6165000D02*
X6475000Y-6215000D01*
X6475000Y-6245000D02*
X6525000Y-6295000D01*
X6525000Y-6245000D02*
X6475000Y-6295000D01*
X6475000Y-6325000D02*
X6525000Y-6375000D01*
X6525000Y-6325000D02*
X6475000Y-6375000D01*
X6475000Y-6405000D02*
X6525000Y-6455000D01*
X6525000Y-6405000D02*
X6475000Y-6455000D01*
X6475000Y-6485000D02*
X6525000Y-6535000D01*
X6525000Y-6485000D02*
X6475000Y-6535000D01*
X6475000Y-6565000D02*
X6525000Y-6615000D01*
X6525000Y-6565000D02*
X6475000Y-6615000D01*
X7535000Y-875000D02*
X7585000Y-925000D01*
X7585000Y-875000D02*
X7535000Y-925000D01*
X7535000Y-4395000D02*
X7585000Y-4445000D01*
X7585000Y-4395000D02*
X7535000Y-4445000D01*
X7535000Y-4575000D02*
X7585000Y-4625000D01*
X7585000Y-4575000D02*
X7535000Y-4625000D01*
X7535000Y-8095000D02*
X7585000Y-8145000D01*
X7585000Y-8095000D02*
X7535000Y-8145000D01*
X7615000Y-875000D02*
X7665000Y-925000D01*
X7665000Y-875000D02*
X7615000Y-925000D01*
X7615000Y-4395000D02*
X7665000Y-4445000D01*
X7665000Y-4395000D02*
X7615000Y-4445000D01*
X7615000Y-4575000D02*
X7665000Y-4625000D01*
X7665000Y-4575000D02*
X7615000Y-4625000D01*
X7615000Y-8095000D02*
X7665000Y-8145000D01*
X7665000Y-8095000D02*
X7615000Y-8145000D01*
X7695000Y-875000D02*
X7745000Y-925000D01*
X7745000Y-875000D02*
X7695000Y-925000D01*
X7695000Y-4395000D02*
X7745000Y-4445000D01*
X7745000Y-4395000D02*
X7695000Y-4445000D01*
X7695000Y-4575000D02*
X7745000Y-4625000D01*
X7745000Y-4575000D02*
X7695000Y-4625000D01*
X7695000Y-8095000D02*
X7745000Y-8145000D01*
X7745000Y-8095000D02*
X7695000Y-8145000D01*
X7775000Y-875000D02*
X7825000Y-925000D01*
X7825000Y-875000D02*
X7775000Y-925000D01*
X7775000Y-4395000D02*
X7825000Y-4445000D01*
X7825000Y-4395000D02*
X7775000Y-4445000D01*
X7775000Y-4575000D02*
X7825000Y-4625000D01*
X7825000Y-4575000D02*
X7775000Y-4625000D01*
X7775000Y-8095000D02*
X7825000Y-8145000D01*
X7825000Y-8095000D02*
X7775000Y-8145000D01*
X7855000Y-875000D02*
X7905000Y-925000D01*
X7905000Y-875000D02*
X7855000Y-925000D01*
X7855000Y-4395000D02*
X7905000Y-4445000D01*
X7905000Y-4395000D02*
X7855000Y-4445000D01*
X7855000Y-4575000D02*
X7905000Y-4625000D01*
X7905000Y-4575000D02*
X7855000Y-4625000D01*
X7855000Y-8095000D02*
X7905000Y-8145000D01*
X7905000Y-8095000D02*
X7855000Y-8145000D01*
X7935000Y-875000D02*
X7985000Y-925000D01*
X7985000Y-875000D02*
X7935000Y-925000D01*
X7935000Y-4395000D02*
X7985000Y-4445000D01*
X7985000Y-4395000D02*
X7935000Y-4445000D01*
X7935000Y-4575000D02*
X7985000Y-4625000D01*
X7985000Y-4575000D02*
X7935000Y-4625000D01*
X7935000Y-8095000D02*
X7985000Y-8145000D01*
X7985000Y-8095000D02*
X7935000Y-8145000D01*
X8015000Y-875000D02*
X8065000Y-925000D01*
X8065000Y-875000D02*
X8015000Y-925000D01*
X8015000Y-4395000D02*
X8065000Y-4445000D01*
X8065000Y-4395000D02*
X8015000Y-4445000D01*
X8015000Y-4575000D02*
X8065000Y-4625000D01*
X8065000Y-4575000D02*
X8015000Y-4625000D01*
X8015000Y-8095000D02*
X8065000Y-8145000D01*
X8065000Y-8095000D02*
X8015000Y-8145000D01*
X9075000Y-2385000D02*
X9125000Y-2435000D01*
X9125000Y-2385000D02*
X9075000Y-2435000D01*
X9075000Y-2465000D02*
X9125000Y-2515000D01*
X9125000Y-2465000D02*
X9075000Y-2515000D01*
X9075000Y-2545000D02*
X9125000Y-2595000D01*
X9125000Y-2545000D02*
X9075000Y-2595000D01*
X9075000Y-2625000D02*
X9125000Y-2675000D01*
X9125000Y-2625000D02*
X9075000Y-2675000D01*
X9075000Y-2705000D02*
X9125000Y-2755000D01*
X9125000Y-2705000D02*
X9075000Y-2755000D01*
X9075000Y-2785000D02*
X9125000Y-2835000D01*
X9125000Y-2785000D02*
X9075000Y-2835000D01*
X9075000Y-2865000D02*
X9125000Y-2915000D01*
X9125000Y-2865000D02*
X9075000Y-2915000D01*
X9075000Y-6085000D02*
X9125000Y-6135000D01*
X9125000Y-6085000D02*
X9075000Y-6135000D01*
X9075000Y-6165000D02*
X9125000Y-6215000D01*
X9125000Y-6165000D02*
X9075000Y-6215000D01*
X9075000Y-6245000D02*
X9125000Y-6295000D01*
X9125000Y-6245000D02*
X9075000Y-6295000D01*
X9075000Y-6325000D02*
X9125000Y-6375000D01*
X9125000Y-6325000D02*
X9075000Y-6375000D01*
X9075000Y-6405000D02*
X9125000Y-6455000D01*
X9125000Y-6405000D02*
X9075000Y-6455000D01*
X9075000Y-6485000D02*
X9125000Y-6535000D01*
X9125000Y-6485000D02*
X9075000Y-6535000D01*
X9075000Y-6565000D02*
X9125000Y-6615000D01*
X9125000Y-6565000D02*
X9075000Y-6615000D01*
X9305000Y-875000D02*
X9355000Y-925000D01*
X9355000Y-875000D02*
X9305000Y-925000D01*
X9305000Y-8095000D02*
X9355000Y-8145000D01*
X9355000Y-8095000D02*
X9305000Y-8145000D01*
X9385000Y-875000D02*
X9435000Y-925000D01*
X9435000Y-875000D02*
X9385000Y-925000D01*
X9385000Y-8095000D02*
X9435000Y-8145000D01*
X9435000Y-8095000D02*
X9385000Y-8145000D01*
X9465000Y-875000D02*
X9515000Y-925000D01*
X9515000Y-875000D02*
X9465000Y-925000D01*
X9465000Y-8095000D02*
X9515000Y-8145000D01*
X9515000Y-8095000D02*
X9465000Y-8145000D01*
X9545000Y-875000D02*
X9595000Y-925000D01*
X9595000Y-875000D02*
X9545000Y-925000D01*
X9545000Y-8095000D02*
X9595000Y-8145000D01*
X9595000Y-8095000D02*
X9545000Y-8145000D01*
X9625000Y-875000D02*
X9675000Y-925000D01*
X9675000Y-875000D02*
X9625000Y-925000D01*
X9625000Y-8095000D02*
X9675000Y-8145000D01*
X9675000Y-8095000D02*
X9625000Y-8145000D01*
X9705000Y-875000D02*
X9755000Y-925000D01*
X9755000Y-875000D02*
X9705000Y-925000D01*
X9705000Y-8095000D02*
X9755000Y-8145000D01*
X9755000Y-8095000D02*
X9705000Y-8145000D01*
X9785000Y-875000D02*
X9835000Y-925000D01*
X9835000Y-875000D02*
X9785000Y-925000D01*
X9785000Y-8095000D02*
X9835000Y-8145000D01*
X9835000Y-8095000D02*
X9785000Y-8145000D01*
X9865000Y-875000D02*
X9915000Y-925000D01*
X9915000Y-875000D02*
X9865000Y-925000D01*
X9865000Y-8095000D02*
X9915000Y-8145000D01*
X9915000Y-8095000D02*
X9865000Y-8145000D01*
X9945000Y-875000D02*
X9995000Y-925000D01*
X9995000Y-875000D02*
X9945000Y-925000D01*
X9945000Y-8095000D02*
X9995000Y-8145000D01*
X9995000Y-8095000D02*
X9945000Y-8145000D01*
D11*
X255777Y-9316484D02*
X255777Y-9116484D01*
X255777Y-9116484D02*
X303396Y-9116484D01*
X303396Y-9116484D02*
X331967Y-9126008D01*
X331967Y-9126008D02*
X351015Y-9145055D01*
X351015Y-9145055D02*
X360539Y-9164103D01*
X360539Y-9164103D02*
X370062Y-9202198D01*
X370062Y-9202198D02*
X370062Y-9230770D01*
X370062Y-9230770D02*
X360539Y-9268865D01*
X360539Y-9268865D02*
X351015Y-9287912D01*
X351015Y-9287912D02*
X331967Y-9306960D01*
X331967Y-9306960D02*
X303396Y-9316484D01*
X303396Y-9316484D02*
X255777Y-9316484D01*
X455777Y-9316484D02*
X455777Y-9183150D01*
X455777Y-9221246D02*
X465301Y-9202198D01*
X465301Y-9202198D02*
X474824Y-9192674D01*
X474824Y-9192674D02*
X493872Y-9183150D01*
X493872Y-9183150D02*
X512920Y-9183150D01*
X579586Y-9316484D02*
X579586Y-9183150D01*
X579586Y-9116484D02*
X570063Y-9126008D01*
X570063Y-9126008D02*
X579586Y-9135531D01*
X579586Y-9135531D02*
X589110Y-9126008D01*
X589110Y-9126008D02*
X579586Y-9116484D01*
X579586Y-9116484D02*
X579586Y-9135531D01*
X703396Y-9316484D02*
X684348Y-9306960D01*
X684348Y-9306960D02*
X674824Y-9287912D01*
X674824Y-9287912D02*
X674824Y-9116484D01*
X808158Y-9316484D02*
X789110Y-9306960D01*
X789110Y-9306960D02*
X779586Y-9287912D01*
X779586Y-9287912D02*
X779586Y-9116484D01*
X1036729Y-9316484D02*
X1036729Y-9116484D01*
X1036729Y-9116484D02*
X1103396Y-9259341D01*
X1103396Y-9259341D02*
X1170063Y-9116484D01*
X1170063Y-9116484D02*
X1170063Y-9316484D01*
X1351015Y-9316484D02*
X1351015Y-9211722D01*
X1351015Y-9211722D02*
X1341491Y-9192674D01*
X1341491Y-9192674D02*
X1322444Y-9183150D01*
X1322444Y-9183150D02*
X1284348Y-9183150D01*
X1284348Y-9183150D02*
X1265301Y-9192674D01*
X1351015Y-9306960D02*
X1331967Y-9316484D01*
X1331967Y-9316484D02*
X1284348Y-9316484D01*
X1284348Y-9316484D02*
X1265301Y-9306960D01*
X1265301Y-9306960D02*
X1255777Y-9287912D01*
X1255777Y-9287912D02*
X1255777Y-9268865D01*
X1255777Y-9268865D02*
X1265301Y-9249817D01*
X1265301Y-9249817D02*
X1284348Y-9240293D01*
X1284348Y-9240293D02*
X1331967Y-9240293D01*
X1331967Y-9240293D02*
X1351015Y-9230770D01*
X1446253Y-9183150D02*
X1446253Y-9383150D01*
X1446253Y-9192674D02*
X1465301Y-9183150D01*
X1465301Y-9183150D02*
X1503396Y-9183150D01*
X1503396Y-9183150D02*
X1522443Y-9192674D01*
X1522443Y-9192674D02*
X1531967Y-9202198D01*
X1531967Y-9202198D02*
X1541491Y-9221246D01*
X1541491Y-9221246D02*
X1541491Y-9278389D01*
X1541491Y-9278389D02*
X1531967Y-9297436D01*
X1531967Y-9297436D02*
X1522443Y-9306960D01*
X1522443Y-9306960D02*
X1503396Y-9316484D01*
X1503396Y-9316484D02*
X1465301Y-9316484D01*
X1465301Y-9316484D02*
X1446253Y-9306960D01*
X1627205Y-9297436D02*
X1636729Y-9306960D01*
X1636729Y-9306960D02*
X1627205Y-9316484D01*
X1627205Y-9316484D02*
X1617682Y-9306960D01*
X1617682Y-9306960D02*
X1627205Y-9297436D01*
X1627205Y-9297436D02*
X1627205Y-9316484D01*
X1627205Y-9192674D02*
X1636729Y-9202198D01*
X1636729Y-9202198D02*
X1627205Y-9211722D01*
X1627205Y-9211722D02*
X1617682Y-9202198D01*
X1617682Y-9202198D02*
X1627205Y-9192674D01*
X1627205Y-9192674D02*
X1627205Y-9211722D01*
D10*
X-55000Y-9620000D02*
X-5000Y-9670000D01*
X-5000Y-9620000D02*
X-55000Y-9670000D01*
D11*
X293872Y-9536484D02*
X312920Y-9536484D01*
X312920Y-9536484D02*
X331967Y-9546008D01*
X331967Y-9546008D02*
X341491Y-9555531D01*
X341491Y-9555531D02*
X351015Y-9574579D01*
X351015Y-9574579D02*
X360539Y-9612674D01*
X360539Y-9612674D02*
X360539Y-9660293D01*
X360539Y-9660293D02*
X351015Y-9698389D01*
X351015Y-9698389D02*
X341491Y-9717436D01*
X341491Y-9717436D02*
X331967Y-9726960D01*
X331967Y-9726960D02*
X312920Y-9736484D01*
X312920Y-9736484D02*
X293872Y-9736484D01*
X293872Y-9736484D02*
X274824Y-9726960D01*
X274824Y-9726960D02*
X265301Y-9717436D01*
X265301Y-9717436D02*
X255777Y-9698389D01*
X255777Y-9698389D02*
X246253Y-9660293D01*
X246253Y-9660293D02*
X246253Y-9612674D01*
X246253Y-9612674D02*
X255777Y-9574579D01*
X255777Y-9574579D02*
X265301Y-9555531D01*
X265301Y-9555531D02*
X274824Y-9546008D01*
X274824Y-9546008D02*
X293872Y-9536484D01*
X446253Y-9717436D02*
X455777Y-9726960D01*
X455777Y-9726960D02*
X446253Y-9736484D01*
X446253Y-9736484D02*
X436729Y-9726960D01*
X436729Y-9726960D02*
X446253Y-9717436D01*
X446253Y-9717436D02*
X446253Y-9736484D01*
X636729Y-9536484D02*
X541491Y-9536484D01*
X541491Y-9536484D02*
X531967Y-9631722D01*
X531967Y-9631722D02*
X541491Y-9622198D01*
X541491Y-9622198D02*
X560539Y-9612674D01*
X560539Y-9612674D02*
X608158Y-9612674D01*
X608158Y-9612674D02*
X627205Y-9622198D01*
X627205Y-9622198D02*
X636729Y-9631722D01*
X636729Y-9631722D02*
X646253Y-9650770D01*
X646253Y-9650770D02*
X646253Y-9698389D01*
X646253Y-9698389D02*
X636729Y-9717436D01*
X636729Y-9717436D02*
X627205Y-9726960D01*
X627205Y-9726960D02*
X608158Y-9736484D01*
X608158Y-9736484D02*
X560539Y-9736484D01*
X560539Y-9736484D02*
X541491Y-9726960D01*
X541491Y-9726960D02*
X531967Y-9717436D01*
X770062Y-9536484D02*
X789110Y-9536484D01*
X789110Y-9536484D02*
X808158Y-9546008D01*
X808158Y-9546008D02*
X817682Y-9555531D01*
X817682Y-9555531D02*
X827205Y-9574579D01*
X827205Y-9574579D02*
X836729Y-9612674D01*
X836729Y-9612674D02*
X836729Y-9660293D01*
X836729Y-9660293D02*
X827205Y-9698389D01*
X827205Y-9698389D02*
X817682Y-9717436D01*
X817682Y-9717436D02*
X808158Y-9726960D01*
X808158Y-9726960D02*
X789110Y-9736484D01*
X789110Y-9736484D02*
X770062Y-9736484D01*
X770062Y-9736484D02*
X751015Y-9726960D01*
X751015Y-9726960D02*
X741491Y-9717436D01*
X741491Y-9717436D02*
X731967Y-9698389D01*
X731967Y-9698389D02*
X722443Y-9660293D01*
X722443Y-9660293D02*
X722443Y-9612674D01*
X722443Y-9612674D02*
X731967Y-9574579D01*
X731967Y-9574579D02*
X741491Y-9555531D01*
X741491Y-9555531D02*
X751015Y-9546008D01*
X751015Y-9546008D02*
X770062Y-9536484D01*
X960539Y-9536484D02*
X979586Y-9536484D01*
X979586Y-9536484D02*
X998634Y-9546008D01*
X998634Y-9546008D02*
X1008158Y-9555531D01*
X1008158Y-9555531D02*
X1017682Y-9574579D01*
X1017682Y-9574579D02*
X1027205Y-9612674D01*
X1027205Y-9612674D02*
X1027205Y-9660293D01*
X1027205Y-9660293D02*
X1017682Y-9698389D01*
X1017682Y-9698389D02*
X1008158Y-9717436D01*
X1008158Y-9717436D02*
X998634Y-9726960D01*
X998634Y-9726960D02*
X979586Y-9736484D01*
X979586Y-9736484D02*
X960539Y-9736484D01*
X960539Y-9736484D02*
X941491Y-9726960D01*
X941491Y-9726960D02*
X931967Y-9717436D01*
X931967Y-9717436D02*
X922443Y-9698389D01*
X922443Y-9698389D02*
X912920Y-9660293D01*
X912920Y-9660293D02*
X912920Y-9612674D01*
X912920Y-9612674D02*
X922443Y-9574579D01*
X922443Y-9574579D02*
X931967Y-9555531D01*
X931967Y-9555531D02*
X941491Y-9546008D01*
X941491Y-9546008D02*
X960539Y-9536484D01*
X1112920Y-9736484D02*
X1112920Y-9603150D01*
X1112920Y-9622198D02*
X1122444Y-9612674D01*
X1122444Y-9612674D02*
X1141491Y-9603150D01*
X1141491Y-9603150D02*
X1170063Y-9603150D01*
X1170063Y-9603150D02*
X1189110Y-9612674D01*
X1189110Y-9612674D02*
X1198634Y-9631722D01*
X1198634Y-9631722D02*
X1198634Y-9736484D01*
X1198634Y-9631722D02*
X1208158Y-9612674D01*
X1208158Y-9612674D02*
X1227205Y-9603150D01*
X1227205Y-9603150D02*
X1255777Y-9603150D01*
X1255777Y-9603150D02*
X1274825Y-9612674D01*
X1274825Y-9612674D02*
X1284348Y-9631722D01*
X1284348Y-9631722D02*
X1284348Y-9736484D01*
X1379586Y-9736484D02*
X1379586Y-9603150D01*
X1379586Y-9622198D02*
X1389110Y-9612674D01*
X1389110Y-9612674D02*
X1408158Y-9603150D01*
X1408158Y-9603150D02*
X1436729Y-9603150D01*
X1436729Y-9603150D02*
X1455777Y-9612674D01*
X1455777Y-9612674D02*
X1465301Y-9631722D01*
X1465301Y-9631722D02*
X1465301Y-9736484D01*
X1465301Y-9631722D02*
X1474824Y-9612674D01*
X1474824Y-9612674D02*
X1493872Y-9603150D01*
X1493872Y-9603150D02*
X1522443Y-9603150D01*
X1522443Y-9603150D02*
X1541491Y-9612674D01*
X1541491Y-9612674D02*
X1551015Y-9631722D01*
X1551015Y-9631722D02*
X1551015Y-9736484D01*
X1941491Y-9526960D02*
X1770063Y-9784103D01*
X2198634Y-9536484D02*
X2217682Y-9536484D01*
X2217682Y-9536484D02*
X2236729Y-9546008D01*
X2236729Y-9546008D02*
X2246253Y-9555531D01*
X2246253Y-9555531D02*
X2255777Y-9574579D01*
X2255777Y-9574579D02*
X2265301Y-9612674D01*
X2265301Y-9612674D02*
X2265301Y-9660293D01*
X2265301Y-9660293D02*
X2255777Y-9698389D01*
X2255777Y-9698389D02*
X2246253Y-9717436D01*
X2246253Y-9717436D02*
X2236729Y-9726960D01*
X2236729Y-9726960D02*
X2217682Y-9736484D01*
X2217682Y-9736484D02*
X2198634Y-9736484D01*
X2198634Y-9736484D02*
X2179587Y-9726960D01*
X2179587Y-9726960D02*
X2170063Y-9717436D01*
X2170063Y-9717436D02*
X2160539Y-9698389D01*
X2160539Y-9698389D02*
X2151015Y-9660293D01*
X2151015Y-9660293D02*
X2151015Y-9612674D01*
X2151015Y-9612674D02*
X2160539Y-9574579D01*
X2160539Y-9574579D02*
X2170063Y-9555531D01*
X2170063Y-9555531D02*
X2179587Y-9546008D01*
X2179587Y-9546008D02*
X2198634Y-9536484D01*
X2351015Y-9717436D02*
X2360539Y-9726960D01*
X2360539Y-9726960D02*
X2351015Y-9736484D01*
X2351015Y-9736484D02*
X2341491Y-9726960D01*
X2341491Y-9726960D02*
X2351015Y-9717436D01*
X2351015Y-9717436D02*
X2351015Y-9736484D01*
X2484348Y-9536484D02*
X2503396Y-9536484D01*
X2503396Y-9536484D02*
X2522444Y-9546008D01*
X2522444Y-9546008D02*
X2531968Y-9555531D01*
X2531968Y-9555531D02*
X2541491Y-9574579D01*
X2541491Y-9574579D02*
X2551015Y-9612674D01*
X2551015Y-9612674D02*
X2551015Y-9660293D01*
X2551015Y-9660293D02*
X2541491Y-9698389D01*
X2541491Y-9698389D02*
X2531968Y-9717436D01*
X2531968Y-9717436D02*
X2522444Y-9726960D01*
X2522444Y-9726960D02*
X2503396Y-9736484D01*
X2503396Y-9736484D02*
X2484348Y-9736484D01*
X2484348Y-9736484D02*
X2465301Y-9726960D01*
X2465301Y-9726960D02*
X2455777Y-9717436D01*
X2455777Y-9717436D02*
X2446253Y-9698389D01*
X2446253Y-9698389D02*
X2436729Y-9660293D01*
X2436729Y-9660293D02*
X2436729Y-9612674D01*
X2436729Y-9612674D02*
X2446253Y-9574579D01*
X2446253Y-9574579D02*
X2455777Y-9555531D01*
X2455777Y-9555531D02*
X2465301Y-9546008D01*
X2465301Y-9546008D02*
X2484348Y-9536484D01*
X2741491Y-9736484D02*
X2627206Y-9736484D01*
X2684348Y-9736484D02*
X2684348Y-9536484D01*
X2684348Y-9536484D02*
X2665301Y-9565055D01*
X2665301Y-9565055D02*
X2646253Y-9584103D01*
X2646253Y-9584103D02*
X2627206Y-9593627D01*
X2836729Y-9736484D02*
X2874825Y-9736484D01*
X2874825Y-9736484D02*
X2893872Y-9726960D01*
X2893872Y-9726960D02*
X2903396Y-9717436D01*
X2903396Y-9717436D02*
X2922444Y-9688865D01*
X2922444Y-9688865D02*
X2931967Y-9650770D01*
X2931967Y-9650770D02*
X2931967Y-9574579D01*
X2931967Y-9574579D02*
X2922444Y-9555531D01*
X2922444Y-9555531D02*
X2912920Y-9546008D01*
X2912920Y-9546008D02*
X2893872Y-9536484D01*
X2893872Y-9536484D02*
X2855777Y-9536484D01*
X2855777Y-9536484D02*
X2836729Y-9546008D01*
X2836729Y-9546008D02*
X2827206Y-9555531D01*
X2827206Y-9555531D02*
X2817682Y-9574579D01*
X2817682Y-9574579D02*
X2817682Y-9622198D01*
X2817682Y-9622198D02*
X2827206Y-9641246D01*
X2827206Y-9641246D02*
X2836729Y-9650770D01*
X2836729Y-9650770D02*
X2855777Y-9660293D01*
X2855777Y-9660293D02*
X2893872Y-9660293D01*
X2893872Y-9660293D02*
X2912920Y-9650770D01*
X2912920Y-9650770D02*
X2922444Y-9641246D01*
X2922444Y-9641246D02*
X2931967Y-9622198D01*
X2998634Y-9536484D02*
X3131967Y-9536484D01*
X3131967Y-9536484D02*
X3046253Y-9736484D01*
X3198634Y-9536484D02*
X3198634Y-9574579D01*
X3274825Y-9536484D02*
X3274825Y-9574579D01*
X3570063Y-9812674D02*
X3560539Y-9803150D01*
X3560539Y-9803150D02*
X3541491Y-9774579D01*
X3541491Y-9774579D02*
X3531968Y-9755531D01*
X3531968Y-9755531D02*
X3522444Y-9726960D01*
X3522444Y-9726960D02*
X3512920Y-9679341D01*
X3512920Y-9679341D02*
X3512920Y-9641246D01*
X3512920Y-9641246D02*
X3522444Y-9593627D01*
X3522444Y-9593627D02*
X3531968Y-9565055D01*
X3531968Y-9565055D02*
X3541491Y-9546008D01*
X3541491Y-9546008D02*
X3560539Y-9517436D01*
X3560539Y-9517436D02*
X3570063Y-9507912D01*
X3636729Y-9555531D02*
X3646253Y-9546008D01*
X3646253Y-9546008D02*
X3665301Y-9536484D01*
X3665301Y-9536484D02*
X3712920Y-9536484D01*
X3712920Y-9536484D02*
X3731968Y-9546008D01*
X3731968Y-9546008D02*
X3741491Y-9555531D01*
X3741491Y-9555531D02*
X3751015Y-9574579D01*
X3751015Y-9574579D02*
X3751015Y-9593627D01*
X3751015Y-9593627D02*
X3741491Y-9622198D01*
X3741491Y-9622198D02*
X3627206Y-9736484D01*
X3627206Y-9736484D02*
X3751015Y-9736484D01*
X3874825Y-9536484D02*
X3893872Y-9536484D01*
X3893872Y-9536484D02*
X3912920Y-9546008D01*
X3912920Y-9546008D02*
X3922444Y-9555531D01*
X3922444Y-9555531D02*
X3931968Y-9574579D01*
X3931968Y-9574579D02*
X3941491Y-9612674D01*
X3941491Y-9612674D02*
X3941491Y-9660293D01*
X3941491Y-9660293D02*
X3931968Y-9698389D01*
X3931968Y-9698389D02*
X3922444Y-9717436D01*
X3922444Y-9717436D02*
X3912920Y-9726960D01*
X3912920Y-9726960D02*
X3893872Y-9736484D01*
X3893872Y-9736484D02*
X3874825Y-9736484D01*
X3874825Y-9736484D02*
X3855777Y-9726960D01*
X3855777Y-9726960D02*
X3846253Y-9717436D01*
X3846253Y-9717436D02*
X3836729Y-9698389D01*
X3836729Y-9698389D02*
X3827206Y-9660293D01*
X3827206Y-9660293D02*
X3827206Y-9612674D01*
X3827206Y-9612674D02*
X3836729Y-9574579D01*
X3836729Y-9574579D02*
X3846253Y-9555531D01*
X3846253Y-9555531D02*
X3855777Y-9546008D01*
X3855777Y-9546008D02*
X3874825Y-9536484D01*
X4112920Y-9603150D02*
X4112920Y-9736484D01*
X4065301Y-9526960D02*
X4017682Y-9669817D01*
X4017682Y-9669817D02*
X4141491Y-9669817D01*
X4370063Y-9736484D02*
X4370063Y-9536484D01*
X4455777Y-9736484D02*
X4455777Y-9631722D01*
X4455777Y-9631722D02*
X4446253Y-9612674D01*
X4446253Y-9612674D02*
X4427206Y-9603150D01*
X4427206Y-9603150D02*
X4398634Y-9603150D01*
X4398634Y-9603150D02*
X4379587Y-9612674D01*
X4379587Y-9612674D02*
X4370063Y-9622198D01*
X4579587Y-9736484D02*
X4560539Y-9726960D01*
X4560539Y-9726960D02*
X4551015Y-9717436D01*
X4551015Y-9717436D02*
X4541492Y-9698389D01*
X4541492Y-9698389D02*
X4541492Y-9641246D01*
X4541492Y-9641246D02*
X4551015Y-9622198D01*
X4551015Y-9622198D02*
X4560539Y-9612674D01*
X4560539Y-9612674D02*
X4579587Y-9603150D01*
X4579587Y-9603150D02*
X4608158Y-9603150D01*
X4608158Y-9603150D02*
X4627206Y-9612674D01*
X4627206Y-9612674D02*
X4636730Y-9622198D01*
X4636730Y-9622198D02*
X4646253Y-9641246D01*
X4646253Y-9641246D02*
X4646253Y-9698389D01*
X4646253Y-9698389D02*
X4636730Y-9717436D01*
X4636730Y-9717436D02*
X4627206Y-9726960D01*
X4627206Y-9726960D02*
X4608158Y-9736484D01*
X4608158Y-9736484D02*
X4579587Y-9736484D01*
X4760539Y-9736484D02*
X4741492Y-9726960D01*
X4741492Y-9726960D02*
X4731968Y-9707912D01*
X4731968Y-9707912D02*
X4731968Y-9536484D01*
X4912920Y-9726960D02*
X4893873Y-9736484D01*
X4893873Y-9736484D02*
X4855777Y-9736484D01*
X4855777Y-9736484D02*
X4836730Y-9726960D01*
X4836730Y-9726960D02*
X4827206Y-9707912D01*
X4827206Y-9707912D02*
X4827206Y-9631722D01*
X4827206Y-9631722D02*
X4836730Y-9612674D01*
X4836730Y-9612674D02*
X4855777Y-9603150D01*
X4855777Y-9603150D02*
X4893873Y-9603150D01*
X4893873Y-9603150D02*
X4912920Y-9612674D01*
X4912920Y-9612674D02*
X4922444Y-9631722D01*
X4922444Y-9631722D02*
X4922444Y-9650770D01*
X4922444Y-9650770D02*
X4827206Y-9669817D01*
X4998634Y-9726960D02*
X5017682Y-9736484D01*
X5017682Y-9736484D02*
X5055777Y-9736484D01*
X5055777Y-9736484D02*
X5074825Y-9726960D01*
X5074825Y-9726960D02*
X5084349Y-9707912D01*
X5084349Y-9707912D02*
X5084349Y-9698389D01*
X5084349Y-9698389D02*
X5074825Y-9679341D01*
X5074825Y-9679341D02*
X5055777Y-9669817D01*
X5055777Y-9669817D02*
X5027206Y-9669817D01*
X5027206Y-9669817D02*
X5008158Y-9660293D01*
X5008158Y-9660293D02*
X4998634Y-9641246D01*
X4998634Y-9641246D02*
X4998634Y-9631722D01*
X4998634Y-9631722D02*
X5008158Y-9612674D01*
X5008158Y-9612674D02*
X5027206Y-9603150D01*
X5027206Y-9603150D02*
X5055777Y-9603150D01*
X5055777Y-9603150D02*
X5074825Y-9612674D01*
X5151015Y-9812674D02*
X5160539Y-9803150D01*
X5160539Y-9803150D02*
X5179587Y-9774579D01*
X5179587Y-9774579D02*
X5189111Y-9755531D01*
X5189111Y-9755531D02*
X5198634Y-9726960D01*
X5198634Y-9726960D02*
X5208158Y-9679341D01*
X5208158Y-9679341D02*
X5208158Y-9641246D01*
X5208158Y-9641246D02*
X5198634Y-9593627D01*
X5198634Y-9593627D02*
X5189111Y-9565055D01*
X5189111Y-9565055D02*
X5179587Y-9546008D01*
X5179587Y-9546008D02*
X5160539Y-9517436D01*
X5160539Y-9517436D02*
X5151015Y-9507912D01*
X5512920Y-9812674D02*
X5503396Y-9803150D01*
X5503396Y-9803150D02*
X5484349Y-9774579D01*
X5484349Y-9774579D02*
X5474825Y-9755531D01*
X5474825Y-9755531D02*
X5465301Y-9726960D01*
X5465301Y-9726960D02*
X5455777Y-9679341D01*
X5455777Y-9679341D02*
X5455777Y-9641246D01*
X5455777Y-9641246D02*
X5465301Y-9593627D01*
X5465301Y-9593627D02*
X5474825Y-9565055D01*
X5474825Y-9565055D02*
X5484349Y-9546008D01*
X5484349Y-9546008D02*
X5503396Y-9517436D01*
X5503396Y-9517436D02*
X5512920Y-9507912D01*
X5589111Y-9603150D02*
X5589111Y-9736484D01*
X5589111Y-9622198D02*
X5598634Y-9612674D01*
X5598634Y-9612674D02*
X5617682Y-9603150D01*
X5617682Y-9603150D02*
X5646253Y-9603150D01*
X5646253Y-9603150D02*
X5665301Y-9612674D01*
X5665301Y-9612674D02*
X5674825Y-9631722D01*
X5674825Y-9631722D02*
X5674825Y-9736484D01*
X5798634Y-9736484D02*
X5779587Y-9726960D01*
X5779587Y-9726960D02*
X5770063Y-9717436D01*
X5770063Y-9717436D02*
X5760539Y-9698389D01*
X5760539Y-9698389D02*
X5760539Y-9641246D01*
X5760539Y-9641246D02*
X5770063Y-9622198D01*
X5770063Y-9622198D02*
X5779587Y-9612674D01*
X5779587Y-9612674D02*
X5798634Y-9603150D01*
X5798634Y-9603150D02*
X5827206Y-9603150D01*
X5827206Y-9603150D02*
X5846253Y-9612674D01*
X5846253Y-9612674D02*
X5855777Y-9622198D01*
X5855777Y-9622198D02*
X5865301Y-9641246D01*
X5865301Y-9641246D02*
X5865301Y-9698389D01*
X5865301Y-9698389D02*
X5855777Y-9717436D01*
X5855777Y-9717436D02*
X5846253Y-9726960D01*
X5846253Y-9726960D02*
X5827206Y-9736484D01*
X5827206Y-9736484D02*
X5798634Y-9736484D01*
X5922444Y-9603150D02*
X5998634Y-9603150D01*
X5951015Y-9536484D02*
X5951015Y-9707912D01*
X5951015Y-9707912D02*
X5960539Y-9726960D01*
X5960539Y-9726960D02*
X5979587Y-9736484D01*
X5979587Y-9736484D02*
X5998634Y-9736484D01*
X6217682Y-9603150D02*
X6217682Y-9803150D01*
X6217682Y-9612674D02*
X6236730Y-9603150D01*
X6236730Y-9603150D02*
X6274825Y-9603150D01*
X6274825Y-9603150D02*
X6293873Y-9612674D01*
X6293873Y-9612674D02*
X6303396Y-9622198D01*
X6303396Y-9622198D02*
X6312920Y-9641246D01*
X6312920Y-9641246D02*
X6312920Y-9698389D01*
X6312920Y-9698389D02*
X6303396Y-9717436D01*
X6303396Y-9717436D02*
X6293873Y-9726960D01*
X6293873Y-9726960D02*
X6274825Y-9736484D01*
X6274825Y-9736484D02*
X6236730Y-9736484D01*
X6236730Y-9736484D02*
X6217682Y-9726960D01*
X6427206Y-9736484D02*
X6408158Y-9726960D01*
X6408158Y-9726960D02*
X6398634Y-9707912D01*
X6398634Y-9707912D02*
X6398634Y-9536484D01*
X6589111Y-9736484D02*
X6589111Y-9631722D01*
X6589111Y-9631722D02*
X6579587Y-9612674D01*
X6579587Y-9612674D02*
X6560539Y-9603150D01*
X6560539Y-9603150D02*
X6522444Y-9603150D01*
X6522444Y-9603150D02*
X6503396Y-9612674D01*
X6589111Y-9726960D02*
X6570063Y-9736484D01*
X6570063Y-9736484D02*
X6522444Y-9736484D01*
X6522444Y-9736484D02*
X6503396Y-9726960D01*
X6503396Y-9726960D02*
X6493873Y-9707912D01*
X6493873Y-9707912D02*
X6493873Y-9688865D01*
X6493873Y-9688865D02*
X6503396Y-9669817D01*
X6503396Y-9669817D02*
X6522444Y-9660293D01*
X6522444Y-9660293D02*
X6570063Y-9660293D01*
X6570063Y-9660293D02*
X6589111Y-9650770D01*
X6655777Y-9603150D02*
X6731968Y-9603150D01*
X6684349Y-9536484D02*
X6684349Y-9707912D01*
X6684349Y-9707912D02*
X6693873Y-9726960D01*
X6693873Y-9726960D02*
X6712920Y-9736484D01*
X6712920Y-9736484D02*
X6731968Y-9736484D01*
X6874825Y-9726960D02*
X6855777Y-9736484D01*
X6855777Y-9736484D02*
X6817682Y-9736484D01*
X6817682Y-9736484D02*
X6798634Y-9726960D01*
X6798634Y-9726960D02*
X6789111Y-9707912D01*
X6789111Y-9707912D02*
X6789111Y-9631722D01*
X6789111Y-9631722D02*
X6798634Y-9612674D01*
X6798634Y-9612674D02*
X6817682Y-9603150D01*
X6817682Y-9603150D02*
X6855777Y-9603150D01*
X6855777Y-9603150D02*
X6874825Y-9612674D01*
X6874825Y-9612674D02*
X6884349Y-9631722D01*
X6884349Y-9631722D02*
X6884349Y-9650770D01*
X6884349Y-9650770D02*
X6789111Y-9669817D01*
X7055777Y-9736484D02*
X7055777Y-9536484D01*
X7055777Y-9726960D02*
X7036730Y-9736484D01*
X7036730Y-9736484D02*
X6998634Y-9736484D01*
X6998634Y-9736484D02*
X6979587Y-9726960D01*
X6979587Y-9726960D02*
X6970063Y-9717436D01*
X6970063Y-9717436D02*
X6960539Y-9698389D01*
X6960539Y-9698389D02*
X6960539Y-9641246D01*
X6960539Y-9641246D02*
X6970063Y-9622198D01*
X6970063Y-9622198D02*
X6979587Y-9612674D01*
X6979587Y-9612674D02*
X6998634Y-9603150D01*
X6998634Y-9603150D02*
X7036730Y-9603150D01*
X7036730Y-9603150D02*
X7055777Y-9612674D01*
X7131968Y-9812674D02*
X7141492Y-9803150D01*
X7141492Y-9803150D02*
X7160539Y-9774579D01*
X7160539Y-9774579D02*
X7170063Y-9755531D01*
X7170063Y-9755531D02*
X7179587Y-9726960D01*
X7179587Y-9726960D02*
X7189111Y-9679341D01*
X7189111Y-9679341D02*
X7189111Y-9641246D01*
X7189111Y-9641246D02*
X7179587Y-9593627D01*
X7179587Y-9593627D02*
X7170063Y-9565055D01*
X7170063Y-9565055D02*
X7160539Y-9546008D01*
X7160539Y-9546008D02*
X7141492Y-9517436D01*
X7141492Y-9517436D02*
X7131968Y-9507912D01*
M02*
