%TF.GenerationSoftware,KiCad,Pcbnew,8.0.8*%
%TF.CreationDate,2025-02-10T00:15:04+01:00*%
%TF.ProjectId,opl3module,6f706c33-6d6f-4647-956c-652e6b696361,1.2*%
%TF.SameCoordinates,Original*%
%TF.FileFunction,Drillmap*%
%TF.FilePolarity,Positive*%
%FSLAX45Y45*%
G04 Gerber Fmt 4.5, Leading zero omitted, Abs format (unit mm)*
G04 Created by KiCad (PCBNEW 8.0.8) date 2025-02-10 00:15:04*
%MOMM*%
%LPD*%
G01*
G04 APERTURE LIST*
%ADD10C,0.100000*%
%ADD11C,0.200000*%
%ADD12C,0.101600*%
G04 APERTURE END LIST*
D10*
X5350000Y-8100000D02*
X6300000Y-8100000D01*
X700000Y-6700000D02*
X700000Y-8200000D01*
X1850000Y-700000D02*
X800000Y-700000D01*
X6500000Y-900000D02*
X7450000Y-900000D01*
X10000000Y0D02*
X10000000Y-9000000D01*
X8150000Y-4600000D02*
X9100000Y-4600000D01*
X800000Y-8300000D02*
X1850000Y-8300000D01*
X9300000Y-8200000D02*
X9300000Y-6700000D01*
X6500000Y-6000000D02*
X6500000Y-4600000D01*
X10000000Y-9000000D02*
X0Y-9000000D01*
X2550000Y-4400000D02*
X3500000Y-4400000D01*
X7450000Y-4400000D02*
X6500000Y-4400000D01*
X3700000Y-6700000D02*
X3700000Y-8100000D01*
X9100000Y-6700000D02*
X9100000Y-8100000D01*
X900000Y-4600000D02*
X1850000Y-4600000D01*
X9300000Y-6000000D02*
X9300000Y-3000000D01*
X6500000Y-4600000D02*
X7450000Y-4600000D01*
X3700000Y-6000000D02*
X3700000Y-4600000D01*
X6300000Y-4600000D02*
X6300000Y-6000000D01*
X6500000Y-6700000D02*
X6500000Y-8100000D01*
X7450000Y-700000D02*
X5350000Y-700000D01*
X4650000Y-8100000D02*
X3700000Y-8100000D01*
X5350000Y-4600000D02*
X6300000Y-4600000D01*
X6300000Y-6700000D02*
X6300000Y-8100000D01*
X2550000Y-4600000D02*
X3500000Y-4600000D01*
X6300000Y-900000D02*
X6300000Y-2300000D01*
X700000Y-800000D02*
X700000Y-2300000D01*
X8150000Y-8100000D02*
X9100000Y-8100000D01*
X3700000Y-4600000D02*
X4650000Y-4600000D01*
X3500000Y-900000D02*
X3500000Y-2300000D01*
X1850000Y-8100000D02*
X900000Y-8100000D01*
X3500000Y-3000000D02*
X3500000Y-4400000D01*
X3700000Y-900000D02*
X4650000Y-900000D01*
X9100000Y-3000000D02*
X9100000Y-4400000D01*
X7450000Y-8100000D02*
X6500000Y-8100000D01*
X3500000Y-4600000D02*
X3500000Y-6000000D01*
X8150000Y-4400000D02*
X9100000Y-4400000D01*
X6300000Y-3000000D02*
X6300000Y-4400000D01*
X6500000Y-3000000D02*
X6500000Y-4400000D01*
X2550000Y-8100000D02*
X3500000Y-8100000D01*
X4650000Y-700000D02*
X2550000Y-700000D01*
X9200000Y-700000D02*
X8150000Y-700000D01*
X5350000Y-8300000D02*
X7450000Y-8300000D01*
X8150000Y-8300000D02*
X9200000Y-8300000D01*
X9100000Y-900000D02*
X9100000Y-2300000D01*
X5350000Y-4400000D02*
X6300000Y-4400000D01*
X1850000Y-4400000D02*
X900000Y-4400000D01*
X9100000Y-4600000D02*
X9100000Y-6000000D01*
X2550000Y-900000D02*
X3500000Y-900000D01*
X3700000Y-2300000D02*
X3700000Y-900000D01*
X9300000Y-2300000D02*
X9300000Y-800000D01*
X5350000Y-900000D02*
X6300000Y-900000D01*
X900000Y-6000000D02*
X900000Y-4600000D01*
X3700000Y-3000000D02*
X3700000Y-4400000D01*
X900000Y-900000D02*
X1850000Y-900000D01*
X2550000Y-8300000D02*
X4650000Y-8300000D01*
X0Y0D02*
X0Y-9000000D01*
X4650000Y-4400000D02*
X3700000Y-4400000D01*
X900000Y-3000000D02*
X900000Y-4400000D01*
X6500000Y-2300000D02*
X6500000Y-900000D01*
X3500000Y-6700000D02*
X3500000Y-8100000D01*
X900000Y-6700000D02*
X900000Y-8100000D01*
X10000000Y0D02*
X0Y0D01*
X8150000Y-900000D02*
X9100000Y-900000D01*
X700000Y-3000000D02*
X700000Y-6000000D01*
X900000Y-2300000D02*
X900000Y-900000D01*
X9300000Y-8200000D02*
G75*
G02*
X9200000Y-8300000I-100000J0D01*
G01*
X9100000Y-3000000D02*
G75*
G02*
X9300000Y-3000000I100000J0D01*
G01*
X9300000Y-2300000D02*
G75*
G02*
X9100000Y-2300000I-100000J0D01*
G01*
X7450000Y-8100000D02*
G75*
G02*
X7450000Y-8300000I0J-100000D01*
G01*
X8150000Y-8300000D02*
G75*
G02*
X8150000Y-8100000I0J100000D01*
G01*
X6300000Y-6700000D02*
G75*
G02*
X6500000Y-6700000I100000J0D01*
G01*
X6500000Y-6000000D02*
G75*
G02*
X6300000Y-6000000I-100000J0D01*
G01*
X7450000Y-700000D02*
G75*
G02*
X7450000Y-900000I0J-100000D01*
G01*
X8150000Y-900000D02*
G75*
G02*
X8150000Y-700000I0J100000D01*
G01*
X700000Y-6700000D02*
G75*
G02*
X900000Y-6700000I100000J0D01*
G01*
X900000Y-6000000D02*
G75*
G02*
X700000Y-6000000I-100000J0D01*
G01*
X800000Y-8300000D02*
G75*
G02*
X700000Y-8200000I0J100000D01*
G01*
X1850000Y-4400000D02*
G75*
G02*
X1850000Y-4600000I0J-100000D01*
G01*
X2550000Y-4600000D02*
G75*
G02*
X2550000Y-4400000I0J100000D01*
G01*
X3500000Y-3000000D02*
G75*
G02*
X3700000Y-3000000I100000J0D01*
G01*
X3700000Y-2300000D02*
G75*
G02*
X3500000Y-2300000I-100000J0D01*
G01*
X4650000Y-4400000D02*
G75*
G02*
X4650000Y-4600000I0J-100000D01*
G01*
X5350000Y-4600000D02*
G75*
G02*
X5350000Y-4400000I0J100000D01*
G01*
X9200000Y-700000D02*
G75*
G02*
X9300000Y-800000I0J-100000D01*
G01*
X700000Y-3000000D02*
G75*
G02*
X900000Y-3000000I100000J0D01*
G01*
X900000Y-2300000D02*
G75*
G02*
X700000Y-2300000I-100000J0D01*
G01*
X7450000Y-4400000D02*
G75*
G02*
X7450000Y-4600000I0J-100000D01*
G01*
X8150000Y-4600000D02*
G75*
G02*
X8150000Y-4400000I0J100000D01*
G01*
X9100000Y-6700000D02*
G75*
G02*
X9300000Y-6700000I100000J0D01*
G01*
X9300000Y-6000000D02*
G75*
G02*
X9100000Y-6000000I-100000J0D01*
G01*
X700000Y-800000D02*
G75*
G02*
X800000Y-700000I100000J0D01*
G01*
X3500000Y-6700000D02*
G75*
G02*
X3700000Y-6700000I100000J0D01*
G01*
X3700000Y-6000000D02*
G75*
G02*
X3500000Y-6000000I-100000J0D01*
G01*
X4650000Y-700000D02*
G75*
G02*
X4650000Y-900000I0J-100000D01*
G01*
X5350000Y-900000D02*
G75*
G02*
X5350000Y-700000I0J100000D01*
G01*
X1850000Y-700000D02*
G75*
G02*
X1850000Y-900000I0J-100000D01*
G01*
X2550000Y-900000D02*
G75*
G02*
X2550000Y-700000I0J100000D01*
G01*
X1850000Y-8100000D02*
G75*
G02*
X1850000Y-8300000I0J-100000D01*
G01*
X2550000Y-8300000D02*
G75*
G02*
X2550000Y-8100000I0J100000D01*
G01*
X4650000Y-8100000D02*
G75*
G02*
X4650000Y-8300000I0J-100000D01*
G01*
X5350000Y-8300000D02*
G75*
G02*
X5350000Y-8100000I0J100000D01*
G01*
X6300000Y-3000000D02*
G75*
G02*
X6500000Y-3000000I100000J0D01*
G01*
X6500000Y-2300000D02*
G75*
G02*
X6300000Y-2300000I-100000J0D01*
G01*
D11*
D10*
X1035000Y-4258000D02*
X1065000Y-4288000D01*
X1065000Y-4258000D02*
X1035000Y-4288000D01*
X1035000Y-7958000D02*
X1065000Y-7988000D01*
X1065000Y-7958000D02*
X1035000Y-7988000D01*
X1286500Y-1564500D02*
X1316500Y-1594500D01*
X1316500Y-1564500D02*
X1286500Y-1594500D01*
X1286500Y-5264500D02*
X1316500Y-5294500D01*
X1316500Y-5264500D02*
X1286500Y-5294500D01*
X1665000Y-2408000D02*
X1695000Y-2438000D01*
X1695000Y-2408000D02*
X1665000Y-2438000D01*
X1665000Y-6108000D02*
X1695000Y-6138000D01*
X1695000Y-6108000D02*
X1665000Y-6138000D01*
X1735000Y-2478000D02*
X1765000Y-2508000D01*
X1765000Y-2478000D02*
X1735000Y-2508000D01*
X1735000Y-6178000D02*
X1765000Y-6208000D01*
X1765000Y-6178000D02*
X1735000Y-6208000D01*
X1755000Y-3785000D02*
X1785000Y-3815000D01*
X1785000Y-3785000D02*
X1755000Y-3815000D01*
X1755000Y-7485000D02*
X1785000Y-7515000D01*
X1785000Y-7485000D02*
X1755000Y-7515000D01*
X1795000Y-2348000D02*
X1825000Y-2378000D01*
X1825000Y-2348000D02*
X1795000Y-2378000D01*
X1795000Y-6048000D02*
X1825000Y-6078000D01*
X1825000Y-6048000D02*
X1795000Y-6078000D01*
X1905000Y-2558000D02*
X1935000Y-2588000D01*
X1935000Y-2558000D02*
X1905000Y-2588000D01*
X1905000Y-6258000D02*
X1935000Y-6288000D01*
X1935000Y-6258000D02*
X1905000Y-6288000D01*
X1915000Y-2288000D02*
X1945000Y-2318000D01*
X1945000Y-2288000D02*
X1915000Y-2318000D01*
X1915000Y-5988000D02*
X1945000Y-6018000D01*
X1945000Y-5988000D02*
X1915000Y-6018000D01*
X1952500Y-3500000D02*
X1982500Y-3530000D01*
X1982500Y-3500000D02*
X1952500Y-3530000D01*
X1952500Y-7200000D02*
X1982500Y-7230000D01*
X1982500Y-7200000D02*
X1952500Y-7230000D01*
X2055000Y-2228000D02*
X2085000Y-2258000D01*
X2085000Y-2228000D02*
X2055000Y-2258000D01*
X2055000Y-5928000D02*
X2085000Y-5958000D01*
X2085000Y-5928000D02*
X2055000Y-5958000D01*
X2145000Y-1188000D02*
X2175000Y-1218000D01*
X2175000Y-1188000D02*
X2145000Y-1218000D01*
X2145000Y-4888000D02*
X2175000Y-4918000D01*
X2175000Y-4888000D02*
X2145000Y-4918000D01*
X2345000Y-3955000D02*
X2375000Y-3985000D01*
X2375000Y-3955000D02*
X2345000Y-3985000D01*
X2345000Y-7655000D02*
X2375000Y-7685000D01*
X2375000Y-7655000D02*
X2345000Y-7685000D01*
X2429500Y-2002430D02*
X2459500Y-2032430D01*
X2459500Y-2002430D02*
X2429500Y-2032430D01*
X2429500Y-5702430D02*
X2459500Y-5732430D01*
X2459500Y-5702430D02*
X2429500Y-5732430D01*
X2430000Y-4145000D02*
X2460000Y-4175000D01*
X2460000Y-4145000D02*
X2430000Y-4175000D01*
X2430000Y-7845000D02*
X2460000Y-7875000D01*
X2460000Y-7845000D02*
X2430000Y-7875000D01*
X2750000Y-3845000D02*
X2780000Y-3875000D01*
X2780000Y-3845000D02*
X2750000Y-3875000D01*
X2750000Y-7545000D02*
X2780000Y-7575000D01*
X2780000Y-7545000D02*
X2750000Y-7575000D01*
X2855000Y-3168500D02*
X2885000Y-3198500D01*
X2885000Y-3168500D02*
X2855000Y-3198500D01*
X2855000Y-6868500D02*
X2885000Y-6898500D01*
X2885000Y-6868500D02*
X2855000Y-6898500D01*
X2935000Y-3625000D02*
X2965000Y-3655000D01*
X2965000Y-3625000D02*
X2935000Y-3655000D01*
X2935000Y-7325000D02*
X2965000Y-7355000D01*
X2965000Y-7325000D02*
X2935000Y-7355000D01*
X2985000Y-4235000D02*
X3015000Y-4265000D01*
X3015000Y-4235000D02*
X2985000Y-4265000D01*
X2985000Y-7935000D02*
X3015000Y-7965000D01*
X3015000Y-7935000D02*
X2985000Y-7965000D01*
X3125000Y-4298500D02*
X3155000Y-4328500D01*
X3155000Y-4298500D02*
X3125000Y-4328500D01*
X3125000Y-7998500D02*
X3155000Y-8028500D01*
X3155000Y-7998500D02*
X3125000Y-8028500D01*
X3135000Y-2028000D02*
X3165000Y-2058000D01*
X3165000Y-2028000D02*
X3135000Y-2058000D01*
X3135000Y-5728000D02*
X3165000Y-5758000D01*
X3165000Y-5728000D02*
X3135000Y-5758000D01*
X3255000Y-3268500D02*
X3285000Y-3298500D01*
X3285000Y-3268500D02*
X3255000Y-3298500D01*
X3255000Y-6968500D02*
X3285000Y-6998500D01*
X3285000Y-6968500D02*
X3255000Y-6998500D01*
X3835000Y-4258000D02*
X3865000Y-4288000D01*
X3865000Y-4258000D02*
X3835000Y-4288000D01*
X3835000Y-7958000D02*
X3865000Y-7988000D01*
X3865000Y-7958000D02*
X3835000Y-7988000D01*
X4086500Y-1564500D02*
X4116500Y-1594500D01*
X4116500Y-1564500D02*
X4086500Y-1594500D01*
X4086500Y-5264500D02*
X4116500Y-5294500D01*
X4116500Y-5264500D02*
X4086500Y-5294500D01*
X4465000Y-2408000D02*
X4495000Y-2438000D01*
X4495000Y-2408000D02*
X4465000Y-2438000D01*
X4465000Y-6108000D02*
X4495000Y-6138000D01*
X4495000Y-6108000D02*
X4465000Y-6138000D01*
X4535000Y-2478000D02*
X4565000Y-2508000D01*
X4565000Y-2478000D02*
X4535000Y-2508000D01*
X4535000Y-6178000D02*
X4565000Y-6208000D01*
X4565000Y-6178000D02*
X4535000Y-6208000D01*
X4555000Y-3785000D02*
X4585000Y-3815000D01*
X4585000Y-3785000D02*
X4555000Y-3815000D01*
X4555000Y-7485000D02*
X4585000Y-7515000D01*
X4585000Y-7485000D02*
X4555000Y-7515000D01*
X4595000Y-2348000D02*
X4625000Y-2378000D01*
X4625000Y-2348000D02*
X4595000Y-2378000D01*
X4595000Y-6048000D02*
X4625000Y-6078000D01*
X4625000Y-6048000D02*
X4595000Y-6078000D01*
X4705000Y-2558000D02*
X4735000Y-2588000D01*
X4735000Y-2558000D02*
X4705000Y-2588000D01*
X4705000Y-6258000D02*
X4735000Y-6288000D01*
X4735000Y-6258000D02*
X4705000Y-6288000D01*
X4715000Y-2288000D02*
X4745000Y-2318000D01*
X4745000Y-2288000D02*
X4715000Y-2318000D01*
X4715000Y-5988000D02*
X4745000Y-6018000D01*
X4745000Y-5988000D02*
X4715000Y-6018000D01*
X4752500Y-3500000D02*
X4782500Y-3530000D01*
X4782500Y-3500000D02*
X4752500Y-3530000D01*
X4752500Y-7200000D02*
X4782500Y-7230000D01*
X4782500Y-7200000D02*
X4752500Y-7230000D01*
X4855000Y-2228000D02*
X4885000Y-2258000D01*
X4885000Y-2228000D02*
X4855000Y-2258000D01*
X4855000Y-5928000D02*
X4885000Y-5958000D01*
X4885000Y-5928000D02*
X4855000Y-5958000D01*
X4945000Y-1188000D02*
X4975000Y-1218000D01*
X4975000Y-1188000D02*
X4945000Y-1218000D01*
X4945000Y-4888000D02*
X4975000Y-4918000D01*
X4975000Y-4888000D02*
X4945000Y-4918000D01*
X5145000Y-3955000D02*
X5175000Y-3985000D01*
X5175000Y-3955000D02*
X5145000Y-3985000D01*
X5145000Y-7655000D02*
X5175000Y-7685000D01*
X5175000Y-7655000D02*
X5145000Y-7685000D01*
X5229500Y-2002430D02*
X5259500Y-2032430D01*
X5259500Y-2002430D02*
X5229500Y-2032430D01*
X5229500Y-5702430D02*
X5259500Y-5732430D01*
X5259500Y-5702430D02*
X5229500Y-5732430D01*
X5230000Y-4145000D02*
X5260000Y-4175000D01*
X5260000Y-4145000D02*
X5230000Y-4175000D01*
X5230000Y-7845000D02*
X5260000Y-7875000D01*
X5260000Y-7845000D02*
X5230000Y-7875000D01*
X5550000Y-3845000D02*
X5580000Y-3875000D01*
X5580000Y-3845000D02*
X5550000Y-3875000D01*
X5550000Y-7545000D02*
X5580000Y-7575000D01*
X5580000Y-7545000D02*
X5550000Y-7575000D01*
X5655000Y-3168500D02*
X5685000Y-3198500D01*
X5685000Y-3168500D02*
X5655000Y-3198500D01*
X5655000Y-6868500D02*
X5685000Y-6898500D01*
X5685000Y-6868500D02*
X5655000Y-6898500D01*
X5735000Y-3625000D02*
X5765000Y-3655000D01*
X5765000Y-3625000D02*
X5735000Y-3655000D01*
X5735000Y-7325000D02*
X5765000Y-7355000D01*
X5765000Y-7325000D02*
X5735000Y-7355000D01*
X5785000Y-4235000D02*
X5815000Y-4265000D01*
X5815000Y-4235000D02*
X5785000Y-4265000D01*
X5785000Y-7935000D02*
X5815000Y-7965000D01*
X5815000Y-7935000D02*
X5785000Y-7965000D01*
X5925000Y-4298500D02*
X5955000Y-4328500D01*
X5955000Y-4298500D02*
X5925000Y-4328500D01*
X5925000Y-7998500D02*
X5955000Y-8028500D01*
X5955000Y-7998500D02*
X5925000Y-8028500D01*
X5935000Y-2028000D02*
X5965000Y-2058000D01*
X5965000Y-2028000D02*
X5935000Y-2058000D01*
X5935000Y-5728000D02*
X5965000Y-5758000D01*
X5965000Y-5728000D02*
X5935000Y-5758000D01*
X6055000Y-3268500D02*
X6085000Y-3298500D01*
X6085000Y-3268500D02*
X6055000Y-3298500D01*
X6055000Y-6968500D02*
X6085000Y-6998500D01*
X6085000Y-6968500D02*
X6055000Y-6998500D01*
X6635000Y-4258000D02*
X6665000Y-4288000D01*
X6665000Y-4258000D02*
X6635000Y-4288000D01*
X6635000Y-7958000D02*
X6665000Y-7988000D01*
X6665000Y-7958000D02*
X6635000Y-7988000D01*
X6886500Y-1564500D02*
X6916500Y-1594500D01*
X6916500Y-1564500D02*
X6886500Y-1594500D01*
X6886500Y-5264500D02*
X6916500Y-5294500D01*
X6916500Y-5264500D02*
X6886500Y-5294500D01*
X7265000Y-2408000D02*
X7295000Y-2438000D01*
X7295000Y-2408000D02*
X7265000Y-2438000D01*
X7265000Y-6108000D02*
X7295000Y-6138000D01*
X7295000Y-6108000D02*
X7265000Y-6138000D01*
X7335000Y-2478000D02*
X7365000Y-2508000D01*
X7365000Y-2478000D02*
X7335000Y-2508000D01*
X7335000Y-6178000D02*
X7365000Y-6208000D01*
X7365000Y-6178000D02*
X7335000Y-6208000D01*
X7355000Y-3785000D02*
X7385000Y-3815000D01*
X7385000Y-3785000D02*
X7355000Y-3815000D01*
X7355000Y-7485000D02*
X7385000Y-7515000D01*
X7385000Y-7485000D02*
X7355000Y-7515000D01*
X7395000Y-2348000D02*
X7425000Y-2378000D01*
X7425000Y-2348000D02*
X7395000Y-2378000D01*
X7395000Y-6048000D02*
X7425000Y-6078000D01*
X7425000Y-6048000D02*
X7395000Y-6078000D01*
X7505000Y-2558000D02*
X7535000Y-2588000D01*
X7535000Y-2558000D02*
X7505000Y-2588000D01*
X7505000Y-6258000D02*
X7535000Y-6288000D01*
X7535000Y-6258000D02*
X7505000Y-6288000D01*
X7515000Y-2288000D02*
X7545000Y-2318000D01*
X7545000Y-2288000D02*
X7515000Y-2318000D01*
X7515000Y-5988000D02*
X7545000Y-6018000D01*
X7545000Y-5988000D02*
X7515000Y-6018000D01*
X7552500Y-3500000D02*
X7582500Y-3530000D01*
X7582500Y-3500000D02*
X7552500Y-3530000D01*
X7552500Y-7200000D02*
X7582500Y-7230000D01*
X7582500Y-7200000D02*
X7552500Y-7230000D01*
X7655000Y-2228000D02*
X7685000Y-2258000D01*
X7685000Y-2228000D02*
X7655000Y-2258000D01*
X7655000Y-5928000D02*
X7685000Y-5958000D01*
X7685000Y-5928000D02*
X7655000Y-5958000D01*
X7745000Y-1188000D02*
X7775000Y-1218000D01*
X7775000Y-1188000D02*
X7745000Y-1218000D01*
X7745000Y-4888000D02*
X7775000Y-4918000D01*
X7775000Y-4888000D02*
X7745000Y-4918000D01*
X7945000Y-3955000D02*
X7975000Y-3985000D01*
X7975000Y-3955000D02*
X7945000Y-3985000D01*
X7945000Y-7655000D02*
X7975000Y-7685000D01*
X7975000Y-7655000D02*
X7945000Y-7685000D01*
X8029500Y-2002430D02*
X8059500Y-2032430D01*
X8059500Y-2002430D02*
X8029500Y-2032430D01*
X8029500Y-5702430D02*
X8059500Y-5732430D01*
X8059500Y-5702430D02*
X8029500Y-5732430D01*
X8030000Y-4145000D02*
X8060000Y-4175000D01*
X8060000Y-4145000D02*
X8030000Y-4175000D01*
X8030000Y-7845000D02*
X8060000Y-7875000D01*
X8060000Y-7845000D02*
X8030000Y-7875000D01*
X8350000Y-3845000D02*
X8380000Y-3875000D01*
X8380000Y-3845000D02*
X8350000Y-3875000D01*
X8350000Y-7545000D02*
X8380000Y-7575000D01*
X8380000Y-7545000D02*
X8350000Y-7575000D01*
X8455000Y-3168500D02*
X8485000Y-3198500D01*
X8485000Y-3168500D02*
X8455000Y-3198500D01*
X8455000Y-6868500D02*
X8485000Y-6898500D01*
X8485000Y-6868500D02*
X8455000Y-6898500D01*
X8535000Y-3625000D02*
X8565000Y-3655000D01*
X8565000Y-3625000D02*
X8535000Y-3655000D01*
X8535000Y-7325000D02*
X8565000Y-7355000D01*
X8565000Y-7325000D02*
X8535000Y-7355000D01*
X8585000Y-4235000D02*
X8615000Y-4265000D01*
X8615000Y-4235000D02*
X8585000Y-4265000D01*
X8585000Y-7935000D02*
X8615000Y-7965000D01*
X8615000Y-7935000D02*
X8585000Y-7965000D01*
X8725000Y-4298500D02*
X8755000Y-4328500D01*
X8755000Y-4298500D02*
X8725000Y-4328500D01*
X8725000Y-7998500D02*
X8755000Y-8028500D01*
X8755000Y-7998500D02*
X8725000Y-8028500D01*
X8735000Y-2028000D02*
X8765000Y-2058000D01*
X8765000Y-2028000D02*
X8735000Y-2058000D01*
X8735000Y-5728000D02*
X8765000Y-5758000D01*
X8765000Y-5728000D02*
X8735000Y-5758000D01*
X8855000Y-3268500D02*
X8885000Y-3298500D01*
X8885000Y-3268500D02*
X8855000Y-3298500D01*
X8855000Y-6968500D02*
X8885000Y-6998500D01*
X8885000Y-6968500D02*
X8855000Y-6998500D01*
D12*
X1100800Y-1073000D02*
G75*
G02*
X999200Y-1073000I-50800J0D01*
G01*
X999200Y-1073000D02*
G75*
G02*
X1100800Y-1073000I50800J0D01*
G01*
X1100800Y-1327000D02*
G75*
G02*
X999200Y-1327000I-50800J0D01*
G01*
X999200Y-1327000D02*
G75*
G02*
X1100800Y-1327000I50800J0D01*
G01*
X1100800Y-4773000D02*
G75*
G02*
X999200Y-4773000I-50800J0D01*
G01*
X999200Y-4773000D02*
G75*
G02*
X1100800Y-4773000I50800J0D01*
G01*
X1100800Y-5027000D02*
G75*
G02*
X999200Y-5027000I-50800J0D01*
G01*
X999200Y-5027000D02*
G75*
G02*
X1100800Y-5027000I50800J0D01*
G01*
X1354800Y-1073000D02*
G75*
G02*
X1253200Y-1073000I-50800J0D01*
G01*
X1253200Y-1073000D02*
G75*
G02*
X1354800Y-1073000I50800J0D01*
G01*
X1354800Y-1327000D02*
G75*
G02*
X1253200Y-1327000I-50800J0D01*
G01*
X1253200Y-1327000D02*
G75*
G02*
X1354800Y-1327000I50800J0D01*
G01*
X1354800Y-4773000D02*
G75*
G02*
X1253200Y-4773000I-50800J0D01*
G01*
X1253200Y-4773000D02*
G75*
G02*
X1354800Y-4773000I50800J0D01*
G01*
X1354800Y-5027000D02*
G75*
G02*
X1253200Y-5027000I-50800J0D01*
G01*
X1253200Y-5027000D02*
G75*
G02*
X1354800Y-5027000I50800J0D01*
G01*
X1608800Y-1073000D02*
G75*
G02*
X1507200Y-1073000I-50800J0D01*
G01*
X1507200Y-1073000D02*
G75*
G02*
X1608800Y-1073000I50800J0D01*
G01*
X1608800Y-1327000D02*
G75*
G02*
X1507200Y-1327000I-50800J0D01*
G01*
X1507200Y-1327000D02*
G75*
G02*
X1608800Y-1327000I50800J0D01*
G01*
X1608800Y-4773000D02*
G75*
G02*
X1507200Y-4773000I-50800J0D01*
G01*
X1507200Y-4773000D02*
G75*
G02*
X1608800Y-4773000I50800J0D01*
G01*
X1608800Y-5027000D02*
G75*
G02*
X1507200Y-5027000I-50800J0D01*
G01*
X1507200Y-5027000D02*
G75*
G02*
X1608800Y-5027000I50800J0D01*
G01*
X1862800Y-1073000D02*
G75*
G02*
X1761200Y-1073000I-50800J0D01*
G01*
X1761200Y-1073000D02*
G75*
G02*
X1862800Y-1073000I50800J0D01*
G01*
X1862800Y-1327000D02*
G75*
G02*
X1761200Y-1327000I-50800J0D01*
G01*
X1761200Y-1327000D02*
G75*
G02*
X1862800Y-1327000I50800J0D01*
G01*
X1862800Y-4773000D02*
G75*
G02*
X1761200Y-4773000I-50800J0D01*
G01*
X1761200Y-4773000D02*
G75*
G02*
X1862800Y-4773000I50800J0D01*
G01*
X1862800Y-5027000D02*
G75*
G02*
X1761200Y-5027000I-50800J0D01*
G01*
X1761200Y-5027000D02*
G75*
G02*
X1862800Y-5027000I50800J0D01*
G01*
X2116800Y-1073000D02*
G75*
G02*
X2015200Y-1073000I-50800J0D01*
G01*
X2015200Y-1073000D02*
G75*
G02*
X2116800Y-1073000I50800J0D01*
G01*
X2116800Y-1327000D02*
G75*
G02*
X2015200Y-1327000I-50800J0D01*
G01*
X2015200Y-1327000D02*
G75*
G02*
X2116800Y-1327000I50800J0D01*
G01*
X2116800Y-4773000D02*
G75*
G02*
X2015200Y-4773000I-50800J0D01*
G01*
X2015200Y-4773000D02*
G75*
G02*
X2116800Y-4773000I50800J0D01*
G01*
X2116800Y-5027000D02*
G75*
G02*
X2015200Y-5027000I-50800J0D01*
G01*
X2015200Y-5027000D02*
G75*
G02*
X2116800Y-5027000I50800J0D01*
G01*
X2370800Y-1073000D02*
G75*
G02*
X2269200Y-1073000I-50800J0D01*
G01*
X2269200Y-1073000D02*
G75*
G02*
X2370800Y-1073000I50800J0D01*
G01*
X2370800Y-1327000D02*
G75*
G02*
X2269200Y-1327000I-50800J0D01*
G01*
X2269200Y-1327000D02*
G75*
G02*
X2370800Y-1327000I50800J0D01*
G01*
X2370800Y-4773000D02*
G75*
G02*
X2269200Y-4773000I-50800J0D01*
G01*
X2269200Y-4773000D02*
G75*
G02*
X2370800Y-4773000I50800J0D01*
G01*
X2370800Y-5027000D02*
G75*
G02*
X2269200Y-5027000I-50800J0D01*
G01*
X2269200Y-5027000D02*
G75*
G02*
X2370800Y-5027000I50800J0D01*
G01*
X2624800Y-1073000D02*
G75*
G02*
X2523200Y-1073000I-50800J0D01*
G01*
X2523200Y-1073000D02*
G75*
G02*
X2624800Y-1073000I50800J0D01*
G01*
X2624800Y-1327000D02*
G75*
G02*
X2523200Y-1327000I-50800J0D01*
G01*
X2523200Y-1327000D02*
G75*
G02*
X2624800Y-1327000I50800J0D01*
G01*
X2624800Y-4773000D02*
G75*
G02*
X2523200Y-4773000I-50800J0D01*
G01*
X2523200Y-4773000D02*
G75*
G02*
X2624800Y-4773000I50800J0D01*
G01*
X2624800Y-5027000D02*
G75*
G02*
X2523200Y-5027000I-50800J0D01*
G01*
X2523200Y-5027000D02*
G75*
G02*
X2624800Y-5027000I50800J0D01*
G01*
X2878800Y-1073000D02*
G75*
G02*
X2777200Y-1073000I-50800J0D01*
G01*
X2777200Y-1073000D02*
G75*
G02*
X2878800Y-1073000I50800J0D01*
G01*
X2878800Y-1327000D02*
G75*
G02*
X2777200Y-1327000I-50800J0D01*
G01*
X2777200Y-1327000D02*
G75*
G02*
X2878800Y-1327000I50800J0D01*
G01*
X2878800Y-4773000D02*
G75*
G02*
X2777200Y-4773000I-50800J0D01*
G01*
X2777200Y-4773000D02*
G75*
G02*
X2878800Y-4773000I50800J0D01*
G01*
X2878800Y-5027000D02*
G75*
G02*
X2777200Y-5027000I-50800J0D01*
G01*
X2777200Y-5027000D02*
G75*
G02*
X2878800Y-5027000I50800J0D01*
G01*
X3132800Y-1073000D02*
G75*
G02*
X3031200Y-1073000I-50800J0D01*
G01*
X3031200Y-1073000D02*
G75*
G02*
X3132800Y-1073000I50800J0D01*
G01*
X3132800Y-1327000D02*
G75*
G02*
X3031200Y-1327000I-50800J0D01*
G01*
X3031200Y-1327000D02*
G75*
G02*
X3132800Y-1327000I50800J0D01*
G01*
X3132800Y-4773000D02*
G75*
G02*
X3031200Y-4773000I-50800J0D01*
G01*
X3031200Y-4773000D02*
G75*
G02*
X3132800Y-4773000I50800J0D01*
G01*
X3132800Y-5027000D02*
G75*
G02*
X3031200Y-5027000I-50800J0D01*
G01*
X3031200Y-5027000D02*
G75*
G02*
X3132800Y-5027000I50800J0D01*
G01*
X3386800Y-1073000D02*
G75*
G02*
X3285200Y-1073000I-50800J0D01*
G01*
X3285200Y-1073000D02*
G75*
G02*
X3386800Y-1073000I50800J0D01*
G01*
X3386800Y-1327000D02*
G75*
G02*
X3285200Y-1327000I-50800J0D01*
G01*
X3285200Y-1327000D02*
G75*
G02*
X3386800Y-1327000I50800J0D01*
G01*
X3386800Y-4773000D02*
G75*
G02*
X3285200Y-4773000I-50800J0D01*
G01*
X3285200Y-4773000D02*
G75*
G02*
X3386800Y-4773000I50800J0D01*
G01*
X3386800Y-5027000D02*
G75*
G02*
X3285200Y-5027000I-50800J0D01*
G01*
X3285200Y-5027000D02*
G75*
G02*
X3386800Y-5027000I50800J0D01*
G01*
X3900800Y-1073000D02*
G75*
G02*
X3799200Y-1073000I-50800J0D01*
G01*
X3799200Y-1073000D02*
G75*
G02*
X3900800Y-1073000I50800J0D01*
G01*
X3900800Y-1327000D02*
G75*
G02*
X3799200Y-1327000I-50800J0D01*
G01*
X3799200Y-1327000D02*
G75*
G02*
X3900800Y-1327000I50800J0D01*
G01*
X3900800Y-4773000D02*
G75*
G02*
X3799200Y-4773000I-50800J0D01*
G01*
X3799200Y-4773000D02*
G75*
G02*
X3900800Y-4773000I50800J0D01*
G01*
X3900800Y-5027000D02*
G75*
G02*
X3799200Y-5027000I-50800J0D01*
G01*
X3799200Y-5027000D02*
G75*
G02*
X3900800Y-5027000I50800J0D01*
G01*
X4154800Y-1073000D02*
G75*
G02*
X4053200Y-1073000I-50800J0D01*
G01*
X4053200Y-1073000D02*
G75*
G02*
X4154800Y-1073000I50800J0D01*
G01*
X4154800Y-1327000D02*
G75*
G02*
X4053200Y-1327000I-50800J0D01*
G01*
X4053200Y-1327000D02*
G75*
G02*
X4154800Y-1327000I50800J0D01*
G01*
X4154800Y-4773000D02*
G75*
G02*
X4053200Y-4773000I-50800J0D01*
G01*
X4053200Y-4773000D02*
G75*
G02*
X4154800Y-4773000I50800J0D01*
G01*
X4154800Y-5027000D02*
G75*
G02*
X4053200Y-5027000I-50800J0D01*
G01*
X4053200Y-5027000D02*
G75*
G02*
X4154800Y-5027000I50800J0D01*
G01*
X4408800Y-1073000D02*
G75*
G02*
X4307200Y-1073000I-50800J0D01*
G01*
X4307200Y-1073000D02*
G75*
G02*
X4408800Y-1073000I50800J0D01*
G01*
X4408800Y-1327000D02*
G75*
G02*
X4307200Y-1327000I-50800J0D01*
G01*
X4307200Y-1327000D02*
G75*
G02*
X4408800Y-1327000I50800J0D01*
G01*
X4408800Y-4773000D02*
G75*
G02*
X4307200Y-4773000I-50800J0D01*
G01*
X4307200Y-4773000D02*
G75*
G02*
X4408800Y-4773000I50800J0D01*
G01*
X4408800Y-5027000D02*
G75*
G02*
X4307200Y-5027000I-50800J0D01*
G01*
X4307200Y-5027000D02*
G75*
G02*
X4408800Y-5027000I50800J0D01*
G01*
X4662800Y-1073000D02*
G75*
G02*
X4561200Y-1073000I-50800J0D01*
G01*
X4561200Y-1073000D02*
G75*
G02*
X4662800Y-1073000I50800J0D01*
G01*
X4662800Y-1327000D02*
G75*
G02*
X4561200Y-1327000I-50800J0D01*
G01*
X4561200Y-1327000D02*
G75*
G02*
X4662800Y-1327000I50800J0D01*
G01*
X4662800Y-4773000D02*
G75*
G02*
X4561200Y-4773000I-50800J0D01*
G01*
X4561200Y-4773000D02*
G75*
G02*
X4662800Y-4773000I50800J0D01*
G01*
X4662800Y-5027000D02*
G75*
G02*
X4561200Y-5027000I-50800J0D01*
G01*
X4561200Y-5027000D02*
G75*
G02*
X4662800Y-5027000I50800J0D01*
G01*
X4916800Y-1073000D02*
G75*
G02*
X4815200Y-1073000I-50800J0D01*
G01*
X4815200Y-1073000D02*
G75*
G02*
X4916800Y-1073000I50800J0D01*
G01*
X4916800Y-1327000D02*
G75*
G02*
X4815200Y-1327000I-50800J0D01*
G01*
X4815200Y-1327000D02*
G75*
G02*
X4916800Y-1327000I50800J0D01*
G01*
X4916800Y-4773000D02*
G75*
G02*
X4815200Y-4773000I-50800J0D01*
G01*
X4815200Y-4773000D02*
G75*
G02*
X4916800Y-4773000I50800J0D01*
G01*
X4916800Y-5027000D02*
G75*
G02*
X4815200Y-5027000I-50800J0D01*
G01*
X4815200Y-5027000D02*
G75*
G02*
X4916800Y-5027000I50800J0D01*
G01*
X5170800Y-1073000D02*
G75*
G02*
X5069200Y-1073000I-50800J0D01*
G01*
X5069200Y-1073000D02*
G75*
G02*
X5170800Y-1073000I50800J0D01*
G01*
X5170800Y-1327000D02*
G75*
G02*
X5069200Y-1327000I-50800J0D01*
G01*
X5069200Y-1327000D02*
G75*
G02*
X5170800Y-1327000I50800J0D01*
G01*
X5170800Y-4773000D02*
G75*
G02*
X5069200Y-4773000I-50800J0D01*
G01*
X5069200Y-4773000D02*
G75*
G02*
X5170800Y-4773000I50800J0D01*
G01*
X5170800Y-5027000D02*
G75*
G02*
X5069200Y-5027000I-50800J0D01*
G01*
X5069200Y-5027000D02*
G75*
G02*
X5170800Y-5027000I50800J0D01*
G01*
X5424800Y-1073000D02*
G75*
G02*
X5323200Y-1073000I-50800J0D01*
G01*
X5323200Y-1073000D02*
G75*
G02*
X5424800Y-1073000I50800J0D01*
G01*
X5424800Y-1327000D02*
G75*
G02*
X5323200Y-1327000I-50800J0D01*
G01*
X5323200Y-1327000D02*
G75*
G02*
X5424800Y-1327000I50800J0D01*
G01*
X5424800Y-4773000D02*
G75*
G02*
X5323200Y-4773000I-50800J0D01*
G01*
X5323200Y-4773000D02*
G75*
G02*
X5424800Y-4773000I50800J0D01*
G01*
X5424800Y-5027000D02*
G75*
G02*
X5323200Y-5027000I-50800J0D01*
G01*
X5323200Y-5027000D02*
G75*
G02*
X5424800Y-5027000I50800J0D01*
G01*
X5678800Y-1073000D02*
G75*
G02*
X5577200Y-1073000I-50800J0D01*
G01*
X5577200Y-1073000D02*
G75*
G02*
X5678800Y-1073000I50800J0D01*
G01*
X5678800Y-1327000D02*
G75*
G02*
X5577200Y-1327000I-50800J0D01*
G01*
X5577200Y-1327000D02*
G75*
G02*
X5678800Y-1327000I50800J0D01*
G01*
X5678800Y-4773000D02*
G75*
G02*
X5577200Y-4773000I-50800J0D01*
G01*
X5577200Y-4773000D02*
G75*
G02*
X5678800Y-4773000I50800J0D01*
G01*
X5678800Y-5027000D02*
G75*
G02*
X5577200Y-5027000I-50800J0D01*
G01*
X5577200Y-5027000D02*
G75*
G02*
X5678800Y-5027000I50800J0D01*
G01*
X5932800Y-1073000D02*
G75*
G02*
X5831200Y-1073000I-50800J0D01*
G01*
X5831200Y-1073000D02*
G75*
G02*
X5932800Y-1073000I50800J0D01*
G01*
X5932800Y-1327000D02*
G75*
G02*
X5831200Y-1327000I-50800J0D01*
G01*
X5831200Y-1327000D02*
G75*
G02*
X5932800Y-1327000I50800J0D01*
G01*
X5932800Y-4773000D02*
G75*
G02*
X5831200Y-4773000I-50800J0D01*
G01*
X5831200Y-4773000D02*
G75*
G02*
X5932800Y-4773000I50800J0D01*
G01*
X5932800Y-5027000D02*
G75*
G02*
X5831200Y-5027000I-50800J0D01*
G01*
X5831200Y-5027000D02*
G75*
G02*
X5932800Y-5027000I50800J0D01*
G01*
X6186800Y-1073000D02*
G75*
G02*
X6085200Y-1073000I-50800J0D01*
G01*
X6085200Y-1073000D02*
G75*
G02*
X6186800Y-1073000I50800J0D01*
G01*
X6186800Y-1327000D02*
G75*
G02*
X6085200Y-1327000I-50800J0D01*
G01*
X6085200Y-1327000D02*
G75*
G02*
X6186800Y-1327000I50800J0D01*
G01*
X6186800Y-4773000D02*
G75*
G02*
X6085200Y-4773000I-50800J0D01*
G01*
X6085200Y-4773000D02*
G75*
G02*
X6186800Y-4773000I50800J0D01*
G01*
X6186800Y-5027000D02*
G75*
G02*
X6085200Y-5027000I-50800J0D01*
G01*
X6085200Y-5027000D02*
G75*
G02*
X6186800Y-5027000I50800J0D01*
G01*
X6700800Y-1073000D02*
G75*
G02*
X6599200Y-1073000I-50800J0D01*
G01*
X6599200Y-1073000D02*
G75*
G02*
X6700800Y-1073000I50800J0D01*
G01*
X6700800Y-1327000D02*
G75*
G02*
X6599200Y-1327000I-50800J0D01*
G01*
X6599200Y-1327000D02*
G75*
G02*
X6700800Y-1327000I50800J0D01*
G01*
X6700800Y-4773000D02*
G75*
G02*
X6599200Y-4773000I-50800J0D01*
G01*
X6599200Y-4773000D02*
G75*
G02*
X6700800Y-4773000I50800J0D01*
G01*
X6700800Y-5027000D02*
G75*
G02*
X6599200Y-5027000I-50800J0D01*
G01*
X6599200Y-5027000D02*
G75*
G02*
X6700800Y-5027000I50800J0D01*
G01*
X6954800Y-1073000D02*
G75*
G02*
X6853200Y-1073000I-50800J0D01*
G01*
X6853200Y-1073000D02*
G75*
G02*
X6954800Y-1073000I50800J0D01*
G01*
X6954800Y-1327000D02*
G75*
G02*
X6853200Y-1327000I-50800J0D01*
G01*
X6853200Y-1327000D02*
G75*
G02*
X6954800Y-1327000I50800J0D01*
G01*
X6954800Y-4773000D02*
G75*
G02*
X6853200Y-4773000I-50800J0D01*
G01*
X6853200Y-4773000D02*
G75*
G02*
X6954800Y-4773000I50800J0D01*
G01*
X6954800Y-5027000D02*
G75*
G02*
X6853200Y-5027000I-50800J0D01*
G01*
X6853200Y-5027000D02*
G75*
G02*
X6954800Y-5027000I50800J0D01*
G01*
X7208800Y-1073000D02*
G75*
G02*
X7107200Y-1073000I-50800J0D01*
G01*
X7107200Y-1073000D02*
G75*
G02*
X7208800Y-1073000I50800J0D01*
G01*
X7208800Y-1327000D02*
G75*
G02*
X7107200Y-1327000I-50800J0D01*
G01*
X7107200Y-1327000D02*
G75*
G02*
X7208800Y-1327000I50800J0D01*
G01*
X7208800Y-4773000D02*
G75*
G02*
X7107200Y-4773000I-50800J0D01*
G01*
X7107200Y-4773000D02*
G75*
G02*
X7208800Y-4773000I50800J0D01*
G01*
X7208800Y-5027000D02*
G75*
G02*
X7107200Y-5027000I-50800J0D01*
G01*
X7107200Y-5027000D02*
G75*
G02*
X7208800Y-5027000I50800J0D01*
G01*
X7462800Y-1073000D02*
G75*
G02*
X7361200Y-1073000I-50800J0D01*
G01*
X7361200Y-1073000D02*
G75*
G02*
X7462800Y-1073000I50800J0D01*
G01*
X7462800Y-1327000D02*
G75*
G02*
X7361200Y-1327000I-50800J0D01*
G01*
X7361200Y-1327000D02*
G75*
G02*
X7462800Y-1327000I50800J0D01*
G01*
X7462800Y-4773000D02*
G75*
G02*
X7361200Y-4773000I-50800J0D01*
G01*
X7361200Y-4773000D02*
G75*
G02*
X7462800Y-4773000I50800J0D01*
G01*
X7462800Y-5027000D02*
G75*
G02*
X7361200Y-5027000I-50800J0D01*
G01*
X7361200Y-5027000D02*
G75*
G02*
X7462800Y-5027000I50800J0D01*
G01*
X7716800Y-1073000D02*
G75*
G02*
X7615200Y-1073000I-50800J0D01*
G01*
X7615200Y-1073000D02*
G75*
G02*
X7716800Y-1073000I50800J0D01*
G01*
X7716800Y-1327000D02*
G75*
G02*
X7615200Y-1327000I-50800J0D01*
G01*
X7615200Y-1327000D02*
G75*
G02*
X7716800Y-1327000I50800J0D01*
G01*
X7716800Y-4773000D02*
G75*
G02*
X7615200Y-4773000I-50800J0D01*
G01*
X7615200Y-4773000D02*
G75*
G02*
X7716800Y-4773000I50800J0D01*
G01*
X7716800Y-5027000D02*
G75*
G02*
X7615200Y-5027000I-50800J0D01*
G01*
X7615200Y-5027000D02*
G75*
G02*
X7716800Y-5027000I50800J0D01*
G01*
X7970800Y-1073000D02*
G75*
G02*
X7869200Y-1073000I-50800J0D01*
G01*
X7869200Y-1073000D02*
G75*
G02*
X7970800Y-1073000I50800J0D01*
G01*
X7970800Y-1327000D02*
G75*
G02*
X7869200Y-1327000I-50800J0D01*
G01*
X7869200Y-1327000D02*
G75*
G02*
X7970800Y-1327000I50800J0D01*
G01*
X7970800Y-4773000D02*
G75*
G02*
X7869200Y-4773000I-50800J0D01*
G01*
X7869200Y-4773000D02*
G75*
G02*
X7970800Y-4773000I50800J0D01*
G01*
X7970800Y-5027000D02*
G75*
G02*
X7869200Y-5027000I-50800J0D01*
G01*
X7869200Y-5027000D02*
G75*
G02*
X7970800Y-5027000I50800J0D01*
G01*
X8224800Y-1073000D02*
G75*
G02*
X8123200Y-1073000I-50800J0D01*
G01*
X8123200Y-1073000D02*
G75*
G02*
X8224800Y-1073000I50800J0D01*
G01*
X8224800Y-1327000D02*
G75*
G02*
X8123200Y-1327000I-50800J0D01*
G01*
X8123200Y-1327000D02*
G75*
G02*
X8224800Y-1327000I50800J0D01*
G01*
X8224800Y-4773000D02*
G75*
G02*
X8123200Y-4773000I-50800J0D01*
G01*
X8123200Y-4773000D02*
G75*
G02*
X8224800Y-4773000I50800J0D01*
G01*
X8224800Y-5027000D02*
G75*
G02*
X8123200Y-5027000I-50800J0D01*
G01*
X8123200Y-5027000D02*
G75*
G02*
X8224800Y-5027000I50800J0D01*
G01*
X8478800Y-1073000D02*
G75*
G02*
X8377200Y-1073000I-50800J0D01*
G01*
X8377200Y-1073000D02*
G75*
G02*
X8478800Y-1073000I50800J0D01*
G01*
X8478800Y-1327000D02*
G75*
G02*
X8377200Y-1327000I-50800J0D01*
G01*
X8377200Y-1327000D02*
G75*
G02*
X8478800Y-1327000I50800J0D01*
G01*
X8478800Y-4773000D02*
G75*
G02*
X8377200Y-4773000I-50800J0D01*
G01*
X8377200Y-4773000D02*
G75*
G02*
X8478800Y-4773000I50800J0D01*
G01*
X8478800Y-5027000D02*
G75*
G02*
X8377200Y-5027000I-50800J0D01*
G01*
X8377200Y-5027000D02*
G75*
G02*
X8478800Y-5027000I50800J0D01*
G01*
X8732800Y-1073000D02*
G75*
G02*
X8631200Y-1073000I-50800J0D01*
G01*
X8631200Y-1073000D02*
G75*
G02*
X8732800Y-1073000I50800J0D01*
G01*
X8732800Y-1327000D02*
G75*
G02*
X8631200Y-1327000I-50800J0D01*
G01*
X8631200Y-1327000D02*
G75*
G02*
X8732800Y-1327000I50800J0D01*
G01*
X8732800Y-4773000D02*
G75*
G02*
X8631200Y-4773000I-50800J0D01*
G01*
X8631200Y-4773000D02*
G75*
G02*
X8732800Y-4773000I50800J0D01*
G01*
X8732800Y-5027000D02*
G75*
G02*
X8631200Y-5027000I-50800J0D01*
G01*
X8631200Y-5027000D02*
G75*
G02*
X8732800Y-5027000I50800J0D01*
G01*
X8986800Y-1073000D02*
G75*
G02*
X8885200Y-1073000I-50800J0D01*
G01*
X8885200Y-1073000D02*
G75*
G02*
X8986800Y-1073000I50800J0D01*
G01*
X8986800Y-1327000D02*
G75*
G02*
X8885200Y-1327000I-50800J0D01*
G01*
X8885200Y-1327000D02*
G75*
G02*
X8986800Y-1327000I50800J0D01*
G01*
X8986800Y-4773000D02*
G75*
G02*
X8885200Y-4773000I-50800J0D01*
G01*
X8885200Y-4773000D02*
G75*
G02*
X8986800Y-4773000I50800J0D01*
G01*
X8986800Y-5027000D02*
G75*
G02*
X8885200Y-5027000I-50800J0D01*
G01*
X8885200Y-5027000D02*
G75*
G02*
X8986800Y-5027000I50800J0D01*
G01*
D11*
X255777Y-9316484D02*
X255777Y-9116484D01*
X255777Y-9116484D02*
X303396Y-9116484D01*
X303396Y-9116484D02*
X331967Y-9126008D01*
X331967Y-9126008D02*
X351015Y-9145055D01*
X351015Y-9145055D02*
X360539Y-9164103D01*
X360539Y-9164103D02*
X370062Y-9202198D01*
X370062Y-9202198D02*
X370062Y-9230770D01*
X370062Y-9230770D02*
X360539Y-9268865D01*
X360539Y-9268865D02*
X351015Y-9287912D01*
X351015Y-9287912D02*
X331967Y-9306960D01*
X331967Y-9306960D02*
X303396Y-9316484D01*
X303396Y-9316484D02*
X255777Y-9316484D01*
X455777Y-9316484D02*
X455777Y-9183150D01*
X455777Y-9221246D02*
X465301Y-9202198D01*
X465301Y-9202198D02*
X474824Y-9192674D01*
X474824Y-9192674D02*
X493872Y-9183150D01*
X493872Y-9183150D02*
X512920Y-9183150D01*
X579586Y-9316484D02*
X579586Y-9183150D01*
X579586Y-9116484D02*
X570063Y-9126008D01*
X570063Y-9126008D02*
X579586Y-9135531D01*
X579586Y-9135531D02*
X589110Y-9126008D01*
X589110Y-9126008D02*
X579586Y-9116484D01*
X579586Y-9116484D02*
X579586Y-9135531D01*
X703396Y-9316484D02*
X684348Y-9306960D01*
X684348Y-9306960D02*
X674824Y-9287912D01*
X674824Y-9287912D02*
X674824Y-9116484D01*
X808158Y-9316484D02*
X789110Y-9306960D01*
X789110Y-9306960D02*
X779586Y-9287912D01*
X779586Y-9287912D02*
X779586Y-9116484D01*
X1036729Y-9316484D02*
X1036729Y-9116484D01*
X1036729Y-9116484D02*
X1103396Y-9259341D01*
X1103396Y-9259341D02*
X1170063Y-9116484D01*
X1170063Y-9116484D02*
X1170063Y-9316484D01*
X1351015Y-9316484D02*
X1351015Y-9211722D01*
X1351015Y-9211722D02*
X1341491Y-9192674D01*
X1341491Y-9192674D02*
X1322444Y-9183150D01*
X1322444Y-9183150D02*
X1284348Y-9183150D01*
X1284348Y-9183150D02*
X1265301Y-9192674D01*
X1351015Y-9306960D02*
X1331967Y-9316484D01*
X1331967Y-9316484D02*
X1284348Y-9316484D01*
X1284348Y-9316484D02*
X1265301Y-9306960D01*
X1265301Y-9306960D02*
X1255777Y-9287912D01*
X1255777Y-9287912D02*
X1255777Y-9268865D01*
X1255777Y-9268865D02*
X1265301Y-9249817D01*
X1265301Y-9249817D02*
X1284348Y-9240293D01*
X1284348Y-9240293D02*
X1331967Y-9240293D01*
X1331967Y-9240293D02*
X1351015Y-9230770D01*
X1446253Y-9183150D02*
X1446253Y-9383150D01*
X1446253Y-9192674D02*
X1465301Y-9183150D01*
X1465301Y-9183150D02*
X1503396Y-9183150D01*
X1503396Y-9183150D02*
X1522443Y-9192674D01*
X1522443Y-9192674D02*
X1531967Y-9202198D01*
X1531967Y-9202198D02*
X1541491Y-9221246D01*
X1541491Y-9221246D02*
X1541491Y-9278389D01*
X1541491Y-9278389D02*
X1531967Y-9297436D01*
X1531967Y-9297436D02*
X1522443Y-9306960D01*
X1522443Y-9306960D02*
X1503396Y-9316484D01*
X1503396Y-9316484D02*
X1465301Y-9316484D01*
X1465301Y-9316484D02*
X1446253Y-9306960D01*
X1627205Y-9297436D02*
X1636729Y-9306960D01*
X1636729Y-9306960D02*
X1627205Y-9316484D01*
X1627205Y-9316484D02*
X1617682Y-9306960D01*
X1617682Y-9306960D02*
X1627205Y-9297436D01*
X1627205Y-9297436D02*
X1627205Y-9316484D01*
X1627205Y-9192674D02*
X1636729Y-9202198D01*
X1636729Y-9202198D02*
X1627205Y-9211722D01*
X1627205Y-9211722D02*
X1617682Y-9202198D01*
X1617682Y-9202198D02*
X1627205Y-9192674D01*
X1627205Y-9192674D02*
X1627205Y-9211722D01*
D10*
X-35000Y-9630000D02*
X-5000Y-9660000D01*
X-5000Y-9630000D02*
X-35000Y-9660000D01*
D11*
X293872Y-9536484D02*
X312920Y-9536484D01*
X312920Y-9536484D02*
X331967Y-9546008D01*
X331967Y-9546008D02*
X341491Y-9555531D01*
X341491Y-9555531D02*
X351015Y-9574579D01*
X351015Y-9574579D02*
X360539Y-9612674D01*
X360539Y-9612674D02*
X360539Y-9660293D01*
X360539Y-9660293D02*
X351015Y-9698389D01*
X351015Y-9698389D02*
X341491Y-9717436D01*
X341491Y-9717436D02*
X331967Y-9726960D01*
X331967Y-9726960D02*
X312920Y-9736484D01*
X312920Y-9736484D02*
X293872Y-9736484D01*
X293872Y-9736484D02*
X274824Y-9726960D01*
X274824Y-9726960D02*
X265301Y-9717436D01*
X265301Y-9717436D02*
X255777Y-9698389D01*
X255777Y-9698389D02*
X246253Y-9660293D01*
X246253Y-9660293D02*
X246253Y-9612674D01*
X246253Y-9612674D02*
X255777Y-9574579D01*
X255777Y-9574579D02*
X265301Y-9555531D01*
X265301Y-9555531D02*
X274824Y-9546008D01*
X274824Y-9546008D02*
X293872Y-9536484D01*
X446253Y-9717436D02*
X455777Y-9726960D01*
X455777Y-9726960D02*
X446253Y-9736484D01*
X446253Y-9736484D02*
X436729Y-9726960D01*
X436729Y-9726960D02*
X446253Y-9717436D01*
X446253Y-9717436D02*
X446253Y-9736484D01*
X522443Y-9536484D02*
X646253Y-9536484D01*
X646253Y-9536484D02*
X579586Y-9612674D01*
X579586Y-9612674D02*
X608158Y-9612674D01*
X608158Y-9612674D02*
X627205Y-9622198D01*
X627205Y-9622198D02*
X636729Y-9631722D01*
X636729Y-9631722D02*
X646253Y-9650770D01*
X646253Y-9650770D02*
X646253Y-9698389D01*
X646253Y-9698389D02*
X636729Y-9717436D01*
X636729Y-9717436D02*
X627205Y-9726960D01*
X627205Y-9726960D02*
X608158Y-9736484D01*
X608158Y-9736484D02*
X551015Y-9736484D01*
X551015Y-9736484D02*
X531967Y-9726960D01*
X531967Y-9726960D02*
X522443Y-9717436D01*
X770062Y-9536484D02*
X789110Y-9536484D01*
X789110Y-9536484D02*
X808158Y-9546008D01*
X808158Y-9546008D02*
X817682Y-9555531D01*
X817682Y-9555531D02*
X827205Y-9574579D01*
X827205Y-9574579D02*
X836729Y-9612674D01*
X836729Y-9612674D02*
X836729Y-9660293D01*
X836729Y-9660293D02*
X827205Y-9698389D01*
X827205Y-9698389D02*
X817682Y-9717436D01*
X817682Y-9717436D02*
X808158Y-9726960D01*
X808158Y-9726960D02*
X789110Y-9736484D01*
X789110Y-9736484D02*
X770062Y-9736484D01*
X770062Y-9736484D02*
X751015Y-9726960D01*
X751015Y-9726960D02*
X741491Y-9717436D01*
X741491Y-9717436D02*
X731967Y-9698389D01*
X731967Y-9698389D02*
X722443Y-9660293D01*
X722443Y-9660293D02*
X722443Y-9612674D01*
X722443Y-9612674D02*
X731967Y-9574579D01*
X731967Y-9574579D02*
X741491Y-9555531D01*
X741491Y-9555531D02*
X751015Y-9546008D01*
X751015Y-9546008D02*
X770062Y-9536484D01*
X960539Y-9536484D02*
X979586Y-9536484D01*
X979586Y-9536484D02*
X998634Y-9546008D01*
X998634Y-9546008D02*
X1008158Y-9555531D01*
X1008158Y-9555531D02*
X1017682Y-9574579D01*
X1017682Y-9574579D02*
X1027205Y-9612674D01*
X1027205Y-9612674D02*
X1027205Y-9660293D01*
X1027205Y-9660293D02*
X1017682Y-9698389D01*
X1017682Y-9698389D02*
X1008158Y-9717436D01*
X1008158Y-9717436D02*
X998634Y-9726960D01*
X998634Y-9726960D02*
X979586Y-9736484D01*
X979586Y-9736484D02*
X960539Y-9736484D01*
X960539Y-9736484D02*
X941491Y-9726960D01*
X941491Y-9726960D02*
X931967Y-9717436D01*
X931967Y-9717436D02*
X922443Y-9698389D01*
X922443Y-9698389D02*
X912920Y-9660293D01*
X912920Y-9660293D02*
X912920Y-9612674D01*
X912920Y-9612674D02*
X922443Y-9574579D01*
X922443Y-9574579D02*
X931967Y-9555531D01*
X931967Y-9555531D02*
X941491Y-9546008D01*
X941491Y-9546008D02*
X960539Y-9536484D01*
X1112920Y-9736484D02*
X1112920Y-9603150D01*
X1112920Y-9622198D02*
X1122444Y-9612674D01*
X1122444Y-9612674D02*
X1141491Y-9603150D01*
X1141491Y-9603150D02*
X1170063Y-9603150D01*
X1170063Y-9603150D02*
X1189110Y-9612674D01*
X1189110Y-9612674D02*
X1198634Y-9631722D01*
X1198634Y-9631722D02*
X1198634Y-9736484D01*
X1198634Y-9631722D02*
X1208158Y-9612674D01*
X1208158Y-9612674D02*
X1227205Y-9603150D01*
X1227205Y-9603150D02*
X1255777Y-9603150D01*
X1255777Y-9603150D02*
X1274825Y-9612674D01*
X1274825Y-9612674D02*
X1284348Y-9631722D01*
X1284348Y-9631722D02*
X1284348Y-9736484D01*
X1379586Y-9736484D02*
X1379586Y-9603150D01*
X1379586Y-9622198D02*
X1389110Y-9612674D01*
X1389110Y-9612674D02*
X1408158Y-9603150D01*
X1408158Y-9603150D02*
X1436729Y-9603150D01*
X1436729Y-9603150D02*
X1455777Y-9612674D01*
X1455777Y-9612674D02*
X1465301Y-9631722D01*
X1465301Y-9631722D02*
X1465301Y-9736484D01*
X1465301Y-9631722D02*
X1474824Y-9612674D01*
X1474824Y-9612674D02*
X1493872Y-9603150D01*
X1493872Y-9603150D02*
X1522443Y-9603150D01*
X1522443Y-9603150D02*
X1541491Y-9612674D01*
X1541491Y-9612674D02*
X1551015Y-9631722D01*
X1551015Y-9631722D02*
X1551015Y-9736484D01*
X1941491Y-9526960D02*
X1770063Y-9784103D01*
X2198634Y-9536484D02*
X2217682Y-9536484D01*
X2217682Y-9536484D02*
X2236729Y-9546008D01*
X2236729Y-9546008D02*
X2246253Y-9555531D01*
X2246253Y-9555531D02*
X2255777Y-9574579D01*
X2255777Y-9574579D02*
X2265301Y-9612674D01*
X2265301Y-9612674D02*
X2265301Y-9660293D01*
X2265301Y-9660293D02*
X2255777Y-9698389D01*
X2255777Y-9698389D02*
X2246253Y-9717436D01*
X2246253Y-9717436D02*
X2236729Y-9726960D01*
X2236729Y-9726960D02*
X2217682Y-9736484D01*
X2217682Y-9736484D02*
X2198634Y-9736484D01*
X2198634Y-9736484D02*
X2179587Y-9726960D01*
X2179587Y-9726960D02*
X2170063Y-9717436D01*
X2170063Y-9717436D02*
X2160539Y-9698389D01*
X2160539Y-9698389D02*
X2151015Y-9660293D01*
X2151015Y-9660293D02*
X2151015Y-9612674D01*
X2151015Y-9612674D02*
X2160539Y-9574579D01*
X2160539Y-9574579D02*
X2170063Y-9555531D01*
X2170063Y-9555531D02*
X2179587Y-9546008D01*
X2179587Y-9546008D02*
X2198634Y-9536484D01*
X2351015Y-9717436D02*
X2360539Y-9726960D01*
X2360539Y-9726960D02*
X2351015Y-9736484D01*
X2351015Y-9736484D02*
X2341491Y-9726960D01*
X2341491Y-9726960D02*
X2351015Y-9717436D01*
X2351015Y-9717436D02*
X2351015Y-9736484D01*
X2484348Y-9536484D02*
X2503396Y-9536484D01*
X2503396Y-9536484D02*
X2522444Y-9546008D01*
X2522444Y-9546008D02*
X2531968Y-9555531D01*
X2531968Y-9555531D02*
X2541491Y-9574579D01*
X2541491Y-9574579D02*
X2551015Y-9612674D01*
X2551015Y-9612674D02*
X2551015Y-9660293D01*
X2551015Y-9660293D02*
X2541491Y-9698389D01*
X2541491Y-9698389D02*
X2531968Y-9717436D01*
X2531968Y-9717436D02*
X2522444Y-9726960D01*
X2522444Y-9726960D02*
X2503396Y-9736484D01*
X2503396Y-9736484D02*
X2484348Y-9736484D01*
X2484348Y-9736484D02*
X2465301Y-9726960D01*
X2465301Y-9726960D02*
X2455777Y-9717436D01*
X2455777Y-9717436D02*
X2446253Y-9698389D01*
X2446253Y-9698389D02*
X2436729Y-9660293D01*
X2436729Y-9660293D02*
X2436729Y-9612674D01*
X2436729Y-9612674D02*
X2446253Y-9574579D01*
X2446253Y-9574579D02*
X2455777Y-9555531D01*
X2455777Y-9555531D02*
X2465301Y-9546008D01*
X2465301Y-9546008D02*
X2484348Y-9536484D01*
X2741491Y-9736484D02*
X2627206Y-9736484D01*
X2684348Y-9736484D02*
X2684348Y-9536484D01*
X2684348Y-9536484D02*
X2665301Y-9565055D01*
X2665301Y-9565055D02*
X2646253Y-9584103D01*
X2646253Y-9584103D02*
X2627206Y-9593627D01*
X2931967Y-9736484D02*
X2817682Y-9736484D01*
X2874825Y-9736484D02*
X2874825Y-9536484D01*
X2874825Y-9536484D02*
X2855777Y-9565055D01*
X2855777Y-9565055D02*
X2836729Y-9584103D01*
X2836729Y-9584103D02*
X2817682Y-9593627D01*
X3046253Y-9622198D02*
X3027206Y-9612674D01*
X3027206Y-9612674D02*
X3017682Y-9603150D01*
X3017682Y-9603150D02*
X3008158Y-9584103D01*
X3008158Y-9584103D02*
X3008158Y-9574579D01*
X3008158Y-9574579D02*
X3017682Y-9555531D01*
X3017682Y-9555531D02*
X3027206Y-9546008D01*
X3027206Y-9546008D02*
X3046253Y-9536484D01*
X3046253Y-9536484D02*
X3084348Y-9536484D01*
X3084348Y-9536484D02*
X3103396Y-9546008D01*
X3103396Y-9546008D02*
X3112920Y-9555531D01*
X3112920Y-9555531D02*
X3122444Y-9574579D01*
X3122444Y-9574579D02*
X3122444Y-9584103D01*
X3122444Y-9584103D02*
X3112920Y-9603150D01*
X3112920Y-9603150D02*
X3103396Y-9612674D01*
X3103396Y-9612674D02*
X3084348Y-9622198D01*
X3084348Y-9622198D02*
X3046253Y-9622198D01*
X3046253Y-9622198D02*
X3027206Y-9631722D01*
X3027206Y-9631722D02*
X3017682Y-9641246D01*
X3017682Y-9641246D02*
X3008158Y-9660293D01*
X3008158Y-9660293D02*
X3008158Y-9698389D01*
X3008158Y-9698389D02*
X3017682Y-9717436D01*
X3017682Y-9717436D02*
X3027206Y-9726960D01*
X3027206Y-9726960D02*
X3046253Y-9736484D01*
X3046253Y-9736484D02*
X3084348Y-9736484D01*
X3084348Y-9736484D02*
X3103396Y-9726960D01*
X3103396Y-9726960D02*
X3112920Y-9717436D01*
X3112920Y-9717436D02*
X3122444Y-9698389D01*
X3122444Y-9698389D02*
X3122444Y-9660293D01*
X3122444Y-9660293D02*
X3112920Y-9641246D01*
X3112920Y-9641246D02*
X3103396Y-9631722D01*
X3103396Y-9631722D02*
X3084348Y-9622198D01*
X3198634Y-9536484D02*
X3198634Y-9574579D01*
X3274825Y-9536484D02*
X3274825Y-9574579D01*
X3570063Y-9812674D02*
X3560539Y-9803150D01*
X3560539Y-9803150D02*
X3541491Y-9774579D01*
X3541491Y-9774579D02*
X3531968Y-9755531D01*
X3531968Y-9755531D02*
X3522444Y-9726960D01*
X3522444Y-9726960D02*
X3512920Y-9679341D01*
X3512920Y-9679341D02*
X3512920Y-9641246D01*
X3512920Y-9641246D02*
X3522444Y-9593627D01*
X3522444Y-9593627D02*
X3531968Y-9565055D01*
X3531968Y-9565055D02*
X3541491Y-9546008D01*
X3541491Y-9546008D02*
X3560539Y-9517436D01*
X3560539Y-9517436D02*
X3570063Y-9507912D01*
X3751015Y-9736484D02*
X3636729Y-9736484D01*
X3693872Y-9736484D02*
X3693872Y-9536484D01*
X3693872Y-9536484D02*
X3674825Y-9565055D01*
X3674825Y-9565055D02*
X3655777Y-9584103D01*
X3655777Y-9584103D02*
X3636729Y-9593627D01*
X3827206Y-9555531D02*
X3836729Y-9546008D01*
X3836729Y-9546008D02*
X3855777Y-9536484D01*
X3855777Y-9536484D02*
X3903396Y-9536484D01*
X3903396Y-9536484D02*
X3922444Y-9546008D01*
X3922444Y-9546008D02*
X3931968Y-9555531D01*
X3931968Y-9555531D02*
X3941491Y-9574579D01*
X3941491Y-9574579D02*
X3941491Y-9593627D01*
X3941491Y-9593627D02*
X3931968Y-9622198D01*
X3931968Y-9622198D02*
X3817682Y-9736484D01*
X3817682Y-9736484D02*
X3941491Y-9736484D01*
X4112920Y-9536484D02*
X4074825Y-9536484D01*
X4074825Y-9536484D02*
X4055777Y-9546008D01*
X4055777Y-9546008D02*
X4046253Y-9555531D01*
X4046253Y-9555531D02*
X4027206Y-9584103D01*
X4027206Y-9584103D02*
X4017682Y-9622198D01*
X4017682Y-9622198D02*
X4017682Y-9698389D01*
X4017682Y-9698389D02*
X4027206Y-9717436D01*
X4027206Y-9717436D02*
X4036729Y-9726960D01*
X4036729Y-9726960D02*
X4055777Y-9736484D01*
X4055777Y-9736484D02*
X4093872Y-9736484D01*
X4093872Y-9736484D02*
X4112920Y-9726960D01*
X4112920Y-9726960D02*
X4122444Y-9717436D01*
X4122444Y-9717436D02*
X4131968Y-9698389D01*
X4131968Y-9698389D02*
X4131968Y-9650770D01*
X4131968Y-9650770D02*
X4122444Y-9631722D01*
X4122444Y-9631722D02*
X4112920Y-9622198D01*
X4112920Y-9622198D02*
X4093872Y-9612674D01*
X4093872Y-9612674D02*
X4055777Y-9612674D01*
X4055777Y-9612674D02*
X4036729Y-9622198D01*
X4036729Y-9622198D02*
X4027206Y-9631722D01*
X4027206Y-9631722D02*
X4017682Y-9650770D01*
X4370063Y-9736484D02*
X4370063Y-9536484D01*
X4455777Y-9736484D02*
X4455777Y-9631722D01*
X4455777Y-9631722D02*
X4446253Y-9612674D01*
X4446253Y-9612674D02*
X4427206Y-9603150D01*
X4427206Y-9603150D02*
X4398634Y-9603150D01*
X4398634Y-9603150D02*
X4379587Y-9612674D01*
X4379587Y-9612674D02*
X4370063Y-9622198D01*
X4579587Y-9736484D02*
X4560539Y-9726960D01*
X4560539Y-9726960D02*
X4551015Y-9717436D01*
X4551015Y-9717436D02*
X4541492Y-9698389D01*
X4541492Y-9698389D02*
X4541492Y-9641246D01*
X4541492Y-9641246D02*
X4551015Y-9622198D01*
X4551015Y-9622198D02*
X4560539Y-9612674D01*
X4560539Y-9612674D02*
X4579587Y-9603150D01*
X4579587Y-9603150D02*
X4608158Y-9603150D01*
X4608158Y-9603150D02*
X4627206Y-9612674D01*
X4627206Y-9612674D02*
X4636730Y-9622198D01*
X4636730Y-9622198D02*
X4646253Y-9641246D01*
X4646253Y-9641246D02*
X4646253Y-9698389D01*
X4646253Y-9698389D02*
X4636730Y-9717436D01*
X4636730Y-9717436D02*
X4627206Y-9726960D01*
X4627206Y-9726960D02*
X4608158Y-9736484D01*
X4608158Y-9736484D02*
X4579587Y-9736484D01*
X4760539Y-9736484D02*
X4741492Y-9726960D01*
X4741492Y-9726960D02*
X4731968Y-9707912D01*
X4731968Y-9707912D02*
X4731968Y-9536484D01*
X4912920Y-9726960D02*
X4893873Y-9736484D01*
X4893873Y-9736484D02*
X4855777Y-9736484D01*
X4855777Y-9736484D02*
X4836730Y-9726960D01*
X4836730Y-9726960D02*
X4827206Y-9707912D01*
X4827206Y-9707912D02*
X4827206Y-9631722D01*
X4827206Y-9631722D02*
X4836730Y-9612674D01*
X4836730Y-9612674D02*
X4855777Y-9603150D01*
X4855777Y-9603150D02*
X4893873Y-9603150D01*
X4893873Y-9603150D02*
X4912920Y-9612674D01*
X4912920Y-9612674D02*
X4922444Y-9631722D01*
X4922444Y-9631722D02*
X4922444Y-9650770D01*
X4922444Y-9650770D02*
X4827206Y-9669817D01*
X4998634Y-9726960D02*
X5017682Y-9736484D01*
X5017682Y-9736484D02*
X5055777Y-9736484D01*
X5055777Y-9736484D02*
X5074825Y-9726960D01*
X5074825Y-9726960D02*
X5084349Y-9707912D01*
X5084349Y-9707912D02*
X5084349Y-9698389D01*
X5084349Y-9698389D02*
X5074825Y-9679341D01*
X5074825Y-9679341D02*
X5055777Y-9669817D01*
X5055777Y-9669817D02*
X5027206Y-9669817D01*
X5027206Y-9669817D02*
X5008158Y-9660293D01*
X5008158Y-9660293D02*
X4998634Y-9641246D01*
X4998634Y-9641246D02*
X4998634Y-9631722D01*
X4998634Y-9631722D02*
X5008158Y-9612674D01*
X5008158Y-9612674D02*
X5027206Y-9603150D01*
X5027206Y-9603150D02*
X5055777Y-9603150D01*
X5055777Y-9603150D02*
X5074825Y-9612674D01*
X5151015Y-9812674D02*
X5160539Y-9803150D01*
X5160539Y-9803150D02*
X5179587Y-9774579D01*
X5179587Y-9774579D02*
X5189111Y-9755531D01*
X5189111Y-9755531D02*
X5198634Y-9726960D01*
X5198634Y-9726960D02*
X5208158Y-9679341D01*
X5208158Y-9679341D02*
X5208158Y-9641246D01*
X5208158Y-9641246D02*
X5198634Y-9593627D01*
X5198634Y-9593627D02*
X5189111Y-9565055D01*
X5189111Y-9565055D02*
X5179587Y-9546008D01*
X5179587Y-9546008D02*
X5160539Y-9517436D01*
X5160539Y-9517436D02*
X5151015Y-9507912D01*
D12*
X-5000Y-9909000D02*
G75*
G02*
X-106600Y-9909000I-50800J0D01*
G01*
X-106600Y-9909000D02*
G75*
G02*
X-5000Y-9909000I50800J0D01*
G01*
D11*
X360539Y-10000484D02*
X246253Y-10000484D01*
X303396Y-10000484D02*
X303396Y-9800484D01*
X303396Y-9800484D02*
X284348Y-9829055D01*
X284348Y-9829055D02*
X265301Y-9848103D01*
X265301Y-9848103D02*
X246253Y-9857627D01*
X446253Y-9981436D02*
X455777Y-9990960D01*
X455777Y-9990960D02*
X446253Y-10000484D01*
X446253Y-10000484D02*
X436729Y-9990960D01*
X436729Y-9990960D02*
X446253Y-9981436D01*
X446253Y-9981436D02*
X446253Y-10000484D01*
X579586Y-9800484D02*
X598634Y-9800484D01*
X598634Y-9800484D02*
X617682Y-9810008D01*
X617682Y-9810008D02*
X627205Y-9819531D01*
X627205Y-9819531D02*
X636729Y-9838579D01*
X636729Y-9838579D02*
X646253Y-9876674D01*
X646253Y-9876674D02*
X646253Y-9924293D01*
X646253Y-9924293D02*
X636729Y-9962389D01*
X636729Y-9962389D02*
X627205Y-9981436D01*
X627205Y-9981436D02*
X617682Y-9990960D01*
X617682Y-9990960D02*
X598634Y-10000484D01*
X598634Y-10000484D02*
X579586Y-10000484D01*
X579586Y-10000484D02*
X560539Y-9990960D01*
X560539Y-9990960D02*
X551015Y-9981436D01*
X551015Y-9981436D02*
X541491Y-9962389D01*
X541491Y-9962389D02*
X531967Y-9924293D01*
X531967Y-9924293D02*
X531967Y-9876674D01*
X531967Y-9876674D02*
X541491Y-9838579D01*
X541491Y-9838579D02*
X551015Y-9819531D01*
X551015Y-9819531D02*
X560539Y-9810008D01*
X560539Y-9810008D02*
X579586Y-9800484D01*
X836729Y-10000484D02*
X722443Y-10000484D01*
X779586Y-10000484D02*
X779586Y-9800484D01*
X779586Y-9800484D02*
X760539Y-9829055D01*
X760539Y-9829055D02*
X741491Y-9848103D01*
X741491Y-9848103D02*
X722443Y-9857627D01*
X1008158Y-9800484D02*
X970062Y-9800484D01*
X970062Y-9800484D02*
X951015Y-9810008D01*
X951015Y-9810008D02*
X941491Y-9819531D01*
X941491Y-9819531D02*
X922443Y-9848103D01*
X922443Y-9848103D02*
X912920Y-9886198D01*
X912920Y-9886198D02*
X912920Y-9962389D01*
X912920Y-9962389D02*
X922443Y-9981436D01*
X922443Y-9981436D02*
X931967Y-9990960D01*
X931967Y-9990960D02*
X951015Y-10000484D01*
X951015Y-10000484D02*
X989110Y-10000484D01*
X989110Y-10000484D02*
X1008158Y-9990960D01*
X1008158Y-9990960D02*
X1017682Y-9981436D01*
X1017682Y-9981436D02*
X1027205Y-9962389D01*
X1027205Y-9962389D02*
X1027205Y-9914770D01*
X1027205Y-9914770D02*
X1017682Y-9895722D01*
X1017682Y-9895722D02*
X1008158Y-9886198D01*
X1008158Y-9886198D02*
X989110Y-9876674D01*
X989110Y-9876674D02*
X951015Y-9876674D01*
X951015Y-9876674D02*
X931967Y-9886198D01*
X931967Y-9886198D02*
X922443Y-9895722D01*
X922443Y-9895722D02*
X912920Y-9914770D01*
X1112920Y-10000484D02*
X1112920Y-9867150D01*
X1112920Y-9886198D02*
X1122444Y-9876674D01*
X1122444Y-9876674D02*
X1141491Y-9867150D01*
X1141491Y-9867150D02*
X1170063Y-9867150D01*
X1170063Y-9867150D02*
X1189110Y-9876674D01*
X1189110Y-9876674D02*
X1198634Y-9895722D01*
X1198634Y-9895722D02*
X1198634Y-10000484D01*
X1198634Y-9895722D02*
X1208158Y-9876674D01*
X1208158Y-9876674D02*
X1227205Y-9867150D01*
X1227205Y-9867150D02*
X1255777Y-9867150D01*
X1255777Y-9867150D02*
X1274825Y-9876674D01*
X1274825Y-9876674D02*
X1284348Y-9895722D01*
X1284348Y-9895722D02*
X1284348Y-10000484D01*
X1379586Y-10000484D02*
X1379586Y-9867150D01*
X1379586Y-9886198D02*
X1389110Y-9876674D01*
X1389110Y-9876674D02*
X1408158Y-9867150D01*
X1408158Y-9867150D02*
X1436729Y-9867150D01*
X1436729Y-9867150D02*
X1455777Y-9876674D01*
X1455777Y-9876674D02*
X1465301Y-9895722D01*
X1465301Y-9895722D02*
X1465301Y-10000484D01*
X1465301Y-9895722D02*
X1474824Y-9876674D01*
X1474824Y-9876674D02*
X1493872Y-9867150D01*
X1493872Y-9867150D02*
X1522443Y-9867150D01*
X1522443Y-9867150D02*
X1541491Y-9876674D01*
X1541491Y-9876674D02*
X1551015Y-9895722D01*
X1551015Y-9895722D02*
X1551015Y-10000484D01*
X1941491Y-9790960D02*
X1770063Y-10048103D01*
X2198634Y-9800484D02*
X2217682Y-9800484D01*
X2217682Y-9800484D02*
X2236729Y-9810008D01*
X2236729Y-9810008D02*
X2246253Y-9819531D01*
X2246253Y-9819531D02*
X2255777Y-9838579D01*
X2255777Y-9838579D02*
X2265301Y-9876674D01*
X2265301Y-9876674D02*
X2265301Y-9924293D01*
X2265301Y-9924293D02*
X2255777Y-9962389D01*
X2255777Y-9962389D02*
X2246253Y-9981436D01*
X2246253Y-9981436D02*
X2236729Y-9990960D01*
X2236729Y-9990960D02*
X2217682Y-10000484D01*
X2217682Y-10000484D02*
X2198634Y-10000484D01*
X2198634Y-10000484D02*
X2179587Y-9990960D01*
X2179587Y-9990960D02*
X2170063Y-9981436D01*
X2170063Y-9981436D02*
X2160539Y-9962389D01*
X2160539Y-9962389D02*
X2151015Y-9924293D01*
X2151015Y-9924293D02*
X2151015Y-9876674D01*
X2151015Y-9876674D02*
X2160539Y-9838579D01*
X2160539Y-9838579D02*
X2170063Y-9819531D01*
X2170063Y-9819531D02*
X2179587Y-9810008D01*
X2179587Y-9810008D02*
X2198634Y-9800484D01*
X2351015Y-9981436D02*
X2360539Y-9990960D01*
X2360539Y-9990960D02*
X2351015Y-10000484D01*
X2351015Y-10000484D02*
X2341491Y-9990960D01*
X2341491Y-9990960D02*
X2351015Y-9981436D01*
X2351015Y-9981436D02*
X2351015Y-10000484D01*
X2484348Y-9800484D02*
X2503396Y-9800484D01*
X2503396Y-9800484D02*
X2522444Y-9810008D01*
X2522444Y-9810008D02*
X2531968Y-9819531D01*
X2531968Y-9819531D02*
X2541491Y-9838579D01*
X2541491Y-9838579D02*
X2551015Y-9876674D01*
X2551015Y-9876674D02*
X2551015Y-9924293D01*
X2551015Y-9924293D02*
X2541491Y-9962389D01*
X2541491Y-9962389D02*
X2531968Y-9981436D01*
X2531968Y-9981436D02*
X2522444Y-9990960D01*
X2522444Y-9990960D02*
X2503396Y-10000484D01*
X2503396Y-10000484D02*
X2484348Y-10000484D01*
X2484348Y-10000484D02*
X2465301Y-9990960D01*
X2465301Y-9990960D02*
X2455777Y-9981436D01*
X2455777Y-9981436D02*
X2446253Y-9962389D01*
X2446253Y-9962389D02*
X2436729Y-9924293D01*
X2436729Y-9924293D02*
X2436729Y-9876674D01*
X2436729Y-9876674D02*
X2446253Y-9838579D01*
X2446253Y-9838579D02*
X2455777Y-9819531D01*
X2455777Y-9819531D02*
X2465301Y-9810008D01*
X2465301Y-9810008D02*
X2484348Y-9800484D01*
X2722444Y-9867150D02*
X2722444Y-10000484D01*
X2674825Y-9790960D02*
X2627206Y-9933817D01*
X2627206Y-9933817D02*
X2751015Y-9933817D01*
X2865301Y-9800484D02*
X2884348Y-9800484D01*
X2884348Y-9800484D02*
X2903396Y-9810008D01*
X2903396Y-9810008D02*
X2912920Y-9819531D01*
X2912920Y-9819531D02*
X2922444Y-9838579D01*
X2922444Y-9838579D02*
X2931967Y-9876674D01*
X2931967Y-9876674D02*
X2931967Y-9924293D01*
X2931967Y-9924293D02*
X2922444Y-9962389D01*
X2922444Y-9962389D02*
X2912920Y-9981436D01*
X2912920Y-9981436D02*
X2903396Y-9990960D01*
X2903396Y-9990960D02*
X2884348Y-10000484D01*
X2884348Y-10000484D02*
X2865301Y-10000484D01*
X2865301Y-10000484D02*
X2846253Y-9990960D01*
X2846253Y-9990960D02*
X2836729Y-9981436D01*
X2836729Y-9981436D02*
X2827206Y-9962389D01*
X2827206Y-9962389D02*
X2817682Y-9924293D01*
X2817682Y-9924293D02*
X2817682Y-9876674D01*
X2817682Y-9876674D02*
X2827206Y-9838579D01*
X2827206Y-9838579D02*
X2836729Y-9819531D01*
X2836729Y-9819531D02*
X2846253Y-9810008D01*
X2846253Y-9810008D02*
X2865301Y-9800484D01*
X3055777Y-9800484D02*
X3074825Y-9800484D01*
X3074825Y-9800484D02*
X3093872Y-9810008D01*
X3093872Y-9810008D02*
X3103396Y-9819531D01*
X3103396Y-9819531D02*
X3112920Y-9838579D01*
X3112920Y-9838579D02*
X3122444Y-9876674D01*
X3122444Y-9876674D02*
X3122444Y-9924293D01*
X3122444Y-9924293D02*
X3112920Y-9962389D01*
X3112920Y-9962389D02*
X3103396Y-9981436D01*
X3103396Y-9981436D02*
X3093872Y-9990960D01*
X3093872Y-9990960D02*
X3074825Y-10000484D01*
X3074825Y-10000484D02*
X3055777Y-10000484D01*
X3055777Y-10000484D02*
X3036729Y-9990960D01*
X3036729Y-9990960D02*
X3027206Y-9981436D01*
X3027206Y-9981436D02*
X3017682Y-9962389D01*
X3017682Y-9962389D02*
X3008158Y-9924293D01*
X3008158Y-9924293D02*
X3008158Y-9876674D01*
X3008158Y-9876674D02*
X3017682Y-9838579D01*
X3017682Y-9838579D02*
X3027206Y-9819531D01*
X3027206Y-9819531D02*
X3036729Y-9810008D01*
X3036729Y-9810008D02*
X3055777Y-9800484D01*
X3198634Y-9800484D02*
X3198634Y-9838579D01*
X3274825Y-9800484D02*
X3274825Y-9838579D01*
X3570063Y-10076674D02*
X3560539Y-10067150D01*
X3560539Y-10067150D02*
X3541491Y-10038579D01*
X3541491Y-10038579D02*
X3531968Y-10019531D01*
X3531968Y-10019531D02*
X3522444Y-9990960D01*
X3522444Y-9990960D02*
X3512920Y-9943341D01*
X3512920Y-9943341D02*
X3512920Y-9905246D01*
X3512920Y-9905246D02*
X3522444Y-9857627D01*
X3522444Y-9857627D02*
X3531968Y-9829055D01*
X3531968Y-9829055D02*
X3541491Y-9810008D01*
X3541491Y-9810008D02*
X3560539Y-9781436D01*
X3560539Y-9781436D02*
X3570063Y-9771912D01*
X3751015Y-10000484D02*
X3636729Y-10000484D01*
X3693872Y-10000484D02*
X3693872Y-9800484D01*
X3693872Y-9800484D02*
X3674825Y-9829055D01*
X3674825Y-9829055D02*
X3655777Y-9848103D01*
X3655777Y-9848103D02*
X3636729Y-9857627D01*
X3827206Y-9819531D02*
X3836729Y-9810008D01*
X3836729Y-9810008D02*
X3855777Y-9800484D01*
X3855777Y-9800484D02*
X3903396Y-9800484D01*
X3903396Y-9800484D02*
X3922444Y-9810008D01*
X3922444Y-9810008D02*
X3931968Y-9819531D01*
X3931968Y-9819531D02*
X3941491Y-9838579D01*
X3941491Y-9838579D02*
X3941491Y-9857627D01*
X3941491Y-9857627D02*
X3931968Y-9886198D01*
X3931968Y-9886198D02*
X3817682Y-10000484D01*
X3817682Y-10000484D02*
X3941491Y-10000484D01*
X4065301Y-9800484D02*
X4084349Y-9800484D01*
X4084349Y-9800484D02*
X4103396Y-9810008D01*
X4103396Y-9810008D02*
X4112920Y-9819531D01*
X4112920Y-9819531D02*
X4122444Y-9838579D01*
X4122444Y-9838579D02*
X4131968Y-9876674D01*
X4131968Y-9876674D02*
X4131968Y-9924293D01*
X4131968Y-9924293D02*
X4122444Y-9962389D01*
X4122444Y-9962389D02*
X4112920Y-9981436D01*
X4112920Y-9981436D02*
X4103396Y-9990960D01*
X4103396Y-9990960D02*
X4084349Y-10000484D01*
X4084349Y-10000484D02*
X4065301Y-10000484D01*
X4065301Y-10000484D02*
X4046253Y-9990960D01*
X4046253Y-9990960D02*
X4036729Y-9981436D01*
X4036729Y-9981436D02*
X4027206Y-9962389D01*
X4027206Y-9962389D02*
X4017682Y-9924293D01*
X4017682Y-9924293D02*
X4017682Y-9876674D01*
X4017682Y-9876674D02*
X4027206Y-9838579D01*
X4027206Y-9838579D02*
X4036729Y-9819531D01*
X4036729Y-9819531D02*
X4046253Y-9810008D01*
X4046253Y-9810008D02*
X4065301Y-9800484D01*
X4370063Y-10000484D02*
X4370063Y-9800484D01*
X4455777Y-10000484D02*
X4455777Y-9895722D01*
X4455777Y-9895722D02*
X4446253Y-9876674D01*
X4446253Y-9876674D02*
X4427206Y-9867150D01*
X4427206Y-9867150D02*
X4398634Y-9867150D01*
X4398634Y-9867150D02*
X4379587Y-9876674D01*
X4379587Y-9876674D02*
X4370063Y-9886198D01*
X4579587Y-10000484D02*
X4560539Y-9990960D01*
X4560539Y-9990960D02*
X4551015Y-9981436D01*
X4551015Y-9981436D02*
X4541492Y-9962389D01*
X4541492Y-9962389D02*
X4541492Y-9905246D01*
X4541492Y-9905246D02*
X4551015Y-9886198D01*
X4551015Y-9886198D02*
X4560539Y-9876674D01*
X4560539Y-9876674D02*
X4579587Y-9867150D01*
X4579587Y-9867150D02*
X4608158Y-9867150D01*
X4608158Y-9867150D02*
X4627206Y-9876674D01*
X4627206Y-9876674D02*
X4636730Y-9886198D01*
X4636730Y-9886198D02*
X4646253Y-9905246D01*
X4646253Y-9905246D02*
X4646253Y-9962389D01*
X4646253Y-9962389D02*
X4636730Y-9981436D01*
X4636730Y-9981436D02*
X4627206Y-9990960D01*
X4627206Y-9990960D02*
X4608158Y-10000484D01*
X4608158Y-10000484D02*
X4579587Y-10000484D01*
X4760539Y-10000484D02*
X4741492Y-9990960D01*
X4741492Y-9990960D02*
X4731968Y-9971912D01*
X4731968Y-9971912D02*
X4731968Y-9800484D01*
X4912920Y-9990960D02*
X4893873Y-10000484D01*
X4893873Y-10000484D02*
X4855777Y-10000484D01*
X4855777Y-10000484D02*
X4836730Y-9990960D01*
X4836730Y-9990960D02*
X4827206Y-9971912D01*
X4827206Y-9971912D02*
X4827206Y-9895722D01*
X4827206Y-9895722D02*
X4836730Y-9876674D01*
X4836730Y-9876674D02*
X4855777Y-9867150D01*
X4855777Y-9867150D02*
X4893873Y-9867150D01*
X4893873Y-9867150D02*
X4912920Y-9876674D01*
X4912920Y-9876674D02*
X4922444Y-9895722D01*
X4922444Y-9895722D02*
X4922444Y-9914770D01*
X4922444Y-9914770D02*
X4827206Y-9933817D01*
X4998634Y-9990960D02*
X5017682Y-10000484D01*
X5017682Y-10000484D02*
X5055777Y-10000484D01*
X5055777Y-10000484D02*
X5074825Y-9990960D01*
X5074825Y-9990960D02*
X5084349Y-9971912D01*
X5084349Y-9971912D02*
X5084349Y-9962389D01*
X5084349Y-9962389D02*
X5074825Y-9943341D01*
X5074825Y-9943341D02*
X5055777Y-9933817D01*
X5055777Y-9933817D02*
X5027206Y-9933817D01*
X5027206Y-9933817D02*
X5008158Y-9924293D01*
X5008158Y-9924293D02*
X4998634Y-9905246D01*
X4998634Y-9905246D02*
X4998634Y-9895722D01*
X4998634Y-9895722D02*
X5008158Y-9876674D01*
X5008158Y-9876674D02*
X5027206Y-9867150D01*
X5027206Y-9867150D02*
X5055777Y-9867150D01*
X5055777Y-9867150D02*
X5074825Y-9876674D01*
X5151015Y-10076674D02*
X5160539Y-10067150D01*
X5160539Y-10067150D02*
X5179587Y-10038579D01*
X5179587Y-10038579D02*
X5189111Y-10019531D01*
X5189111Y-10019531D02*
X5198634Y-9990960D01*
X5198634Y-9990960D02*
X5208158Y-9943341D01*
X5208158Y-9943341D02*
X5208158Y-9905246D01*
X5208158Y-9905246D02*
X5198634Y-9857627D01*
X5198634Y-9857627D02*
X5189111Y-9829055D01*
X5189111Y-9829055D02*
X5179587Y-9810008D01*
X5179587Y-9810008D02*
X5160539Y-9781436D01*
X5160539Y-9781436D02*
X5151015Y-9771912D01*
M02*
