G04 #@! TF.GenerationSoftware,KiCad,Pcbnew,8.0.8*
G04 #@! TF.CreationDate,2025-02-10T00:15:01+01:00*
G04 #@! TF.ProjectId,opl3module,6f706c33-6d6f-4647-956c-652e6b696361,1.2*
G04 #@! TF.SameCoordinates,Original*
G04 #@! TF.FileFunction,Soldermask,Bot*
G04 #@! TF.FilePolarity,Negative*
%FSLAX46Y46*%
G04 Gerber Fmt 4.6, Leading zero omitted, Abs format (unit mm)*
G04 Created by KiCad (PCBNEW 8.0.8) date 2025-02-10 00:15:01*
%MOMM*%
%LPD*%
G01*
G04 APERTURE LIST*
%ADD10C,1.397000*%
%ADD11R,1.397000X1.397000*%
%ADD12C,0.500000*%
G04 APERTURE END LIST*
D10*
X33360000Y-47730000D03*
X33360000Y-50270000D03*
X30820000Y-47730000D03*
X30820000Y-50270000D03*
X28280000Y-47730000D03*
X28280000Y-50270000D03*
X25740000Y-47730000D03*
X25740000Y-50270000D03*
X23200000Y-47730000D03*
X23200000Y-50270000D03*
X20660000Y-47730000D03*
X20660000Y-50270000D03*
X18120000Y-47730000D03*
X18120000Y-50270000D03*
X15580000Y-47730000D03*
X15580000Y-50270000D03*
X13040000Y-47730000D03*
X13040000Y-50270000D03*
X10500000Y-47730000D03*
D11*
X10500000Y-50270000D03*
D10*
X89360000Y-47730000D03*
X89360000Y-50270000D03*
X86820000Y-47730000D03*
X86820000Y-50270000D03*
X84280000Y-47730000D03*
X84280000Y-50270000D03*
X81740000Y-47730000D03*
X81740000Y-50270000D03*
X79200000Y-47730000D03*
X79200000Y-50270000D03*
X76660000Y-47730000D03*
X76660000Y-50270000D03*
X74120000Y-47730000D03*
X74120000Y-50270000D03*
X71580000Y-47730000D03*
X71580000Y-50270000D03*
X69040000Y-47730000D03*
X69040000Y-50270000D03*
X66500000Y-47730000D03*
D11*
X66500000Y-50270000D03*
D10*
X33360000Y-10730000D03*
X33360000Y-13270000D03*
X30820000Y-10730000D03*
X30820000Y-13270000D03*
X28280000Y-10730000D03*
X28280000Y-13270000D03*
X25740000Y-10730000D03*
X25740000Y-13270000D03*
X23200000Y-10730000D03*
X23200000Y-13270000D03*
X20660000Y-10730000D03*
X20660000Y-13270000D03*
X18120000Y-10730000D03*
X18120000Y-13270000D03*
X15580000Y-10730000D03*
X15580000Y-13270000D03*
X13040000Y-10730000D03*
X13040000Y-13270000D03*
X10500000Y-10730000D03*
D11*
X10500000Y-13270000D03*
D10*
X61360000Y-47730000D03*
X61360000Y-50270000D03*
X58820000Y-47730000D03*
X58820000Y-50270000D03*
X56280000Y-47730000D03*
X56280000Y-50270000D03*
X53740000Y-47730000D03*
X53740000Y-50270000D03*
X51200000Y-47730000D03*
X51200000Y-50270000D03*
X48660000Y-47730000D03*
X48660000Y-50270000D03*
X46120000Y-47730000D03*
X46120000Y-50270000D03*
X43580000Y-47730000D03*
X43580000Y-50270000D03*
X41040000Y-47730000D03*
X41040000Y-50270000D03*
X38500000Y-47730000D03*
D11*
X38500000Y-50270000D03*
D10*
X61360000Y-10730000D03*
X61360000Y-13270000D03*
X58820000Y-10730000D03*
X58820000Y-13270000D03*
X56280000Y-10730000D03*
X56280000Y-13270000D03*
X53740000Y-10730000D03*
X53740000Y-13270000D03*
X51200000Y-10730000D03*
X51200000Y-13270000D03*
X48660000Y-10730000D03*
X48660000Y-13270000D03*
X46120000Y-10730000D03*
X46120000Y-13270000D03*
X43580000Y-10730000D03*
X43580000Y-13270000D03*
X41040000Y-10730000D03*
X41040000Y-13270000D03*
X38500000Y-10730000D03*
D11*
X38500000Y-13270000D03*
D10*
X89360000Y-10730000D03*
X89360000Y-13270000D03*
X86820000Y-10730000D03*
X86820000Y-13270000D03*
X84280000Y-10730000D03*
X84280000Y-13270000D03*
X81740000Y-10730000D03*
X81740000Y-13270000D03*
X79200000Y-10730000D03*
X79200000Y-13270000D03*
X76660000Y-10730000D03*
X76660000Y-13270000D03*
X74120000Y-10730000D03*
X74120000Y-13270000D03*
X71580000Y-10730000D03*
X71580000Y-13270000D03*
X69040000Y-10730000D03*
X69040000Y-13270000D03*
X66500000Y-10730000D03*
D11*
X66500000Y-13270000D03*
D12*
X93300000Y-9000000D03*
X94100000Y-9000000D03*
X94900000Y-9000000D03*
X95700000Y-9000000D03*
X96500000Y-9000000D03*
X97300000Y-9000000D03*
X98100000Y-9000000D03*
X98900000Y-9000000D03*
X99700000Y-9000000D03*
X91000000Y-24100000D03*
X91000000Y-24900000D03*
X91000000Y-25700000D03*
X91000000Y-26500000D03*
X91000000Y-27300000D03*
X91000000Y-28100000D03*
X91000000Y-28900000D03*
X80400000Y-81200000D03*
X79600000Y-81200000D03*
X78800000Y-81200000D03*
X78000000Y-81200000D03*
X77200000Y-81200000D03*
X76400000Y-81200000D03*
X75600000Y-81200000D03*
X65000000Y-65900000D03*
X65000000Y-65100000D03*
X65000000Y-64300000D03*
X65000000Y-63500000D03*
X65000000Y-62700000D03*
X65000000Y-61900000D03*
X65000000Y-61100000D03*
X63000000Y-65900000D03*
X63000000Y-65100000D03*
X63000000Y-64300000D03*
X63000000Y-63500000D03*
X63000000Y-62700000D03*
X63000000Y-61900000D03*
X63000000Y-61100000D03*
X75600000Y-9000000D03*
X76400000Y-9000000D03*
X77200000Y-9000000D03*
X78000000Y-9000000D03*
X78800000Y-9000000D03*
X79600000Y-9000000D03*
X80400000Y-9000000D03*
X9000000Y-65900000D03*
X9000000Y-65100000D03*
X9000000Y-64300000D03*
X9000000Y-63500000D03*
X9000000Y-62700000D03*
X9000000Y-61900000D03*
X9000000Y-61100000D03*
X19600000Y-46000000D03*
X20400000Y-46000000D03*
X21200000Y-46000000D03*
X22000000Y-46000000D03*
X22800000Y-46000000D03*
X23600000Y-46000000D03*
X24400000Y-46000000D03*
X19600000Y-44200000D03*
X20400000Y-44200000D03*
X21200000Y-44200000D03*
X22000000Y-44200000D03*
X22800000Y-44200000D03*
X23600000Y-44200000D03*
X24400000Y-44200000D03*
X37000000Y-28900000D03*
X37000000Y-28100000D03*
X37000000Y-27300000D03*
X37000000Y-26500000D03*
X37000000Y-25700000D03*
X37000000Y-24900000D03*
X37000000Y-24100000D03*
X35000000Y-28900000D03*
X35000000Y-28100000D03*
X35000000Y-27300000D03*
X35000000Y-26500000D03*
X35000000Y-25700000D03*
X35000000Y-24900000D03*
X35000000Y-24100000D03*
X47600000Y-46000000D03*
X48400000Y-46000000D03*
X49200000Y-46000000D03*
X50000000Y-46000000D03*
X50800000Y-46000000D03*
X51600000Y-46000000D03*
X52400000Y-46000000D03*
X47600000Y-44200000D03*
X48400000Y-44200000D03*
X49200000Y-44200000D03*
X50000000Y-44200000D03*
X50800000Y-44200000D03*
X51600000Y-44200000D03*
X52400000Y-44200000D03*
X9000000Y-28900000D03*
X9000000Y-28100000D03*
X9000000Y-27300000D03*
X9000000Y-26500000D03*
X9000000Y-25700000D03*
X9000000Y-24900000D03*
X9000000Y-24100000D03*
X75600000Y-46000000D03*
X76400000Y-46000000D03*
X77200000Y-46000000D03*
X78000000Y-46000000D03*
X78800000Y-46000000D03*
X79600000Y-46000000D03*
X80400000Y-46000000D03*
X75600000Y-44200000D03*
X76400000Y-44200000D03*
X77200000Y-44200000D03*
X78000000Y-44200000D03*
X78800000Y-44200000D03*
X79600000Y-44200000D03*
X80400000Y-44200000D03*
X93300000Y-81200000D03*
X94100000Y-81200000D03*
X94900000Y-81200000D03*
X95700000Y-81200000D03*
X96500000Y-81200000D03*
X97300000Y-81200000D03*
X98100000Y-81200000D03*
X98900000Y-81200000D03*
X99700000Y-81200000D03*
X91000000Y-61100000D03*
X91000000Y-61900000D03*
X91000000Y-62700000D03*
X91000000Y-63500000D03*
X91000000Y-64300000D03*
X91000000Y-65100000D03*
X91000000Y-65900000D03*
X300000Y-81200000D03*
X1100000Y-81200000D03*
X1900000Y-81200000D03*
X2700000Y-81200000D03*
X3500000Y-81200000D03*
X4300000Y-81200000D03*
X5100000Y-81200000D03*
X5900000Y-81200000D03*
X6700000Y-81200000D03*
X37000000Y-65900000D03*
X37000000Y-65100000D03*
X37000000Y-64300000D03*
X37000000Y-63500000D03*
X37000000Y-62700000D03*
X37000000Y-61900000D03*
X37000000Y-61100000D03*
X35000000Y-65900000D03*
X35000000Y-65100000D03*
X35000000Y-64300000D03*
X35000000Y-63500000D03*
X35000000Y-62700000D03*
X35000000Y-61900000D03*
X35000000Y-61100000D03*
X47600000Y-9000000D03*
X48400000Y-9000000D03*
X49200000Y-9000000D03*
X50000000Y-9000000D03*
X50800000Y-9000000D03*
X51600000Y-9000000D03*
X52400000Y-9000000D03*
X19600000Y-9000000D03*
X20400000Y-9000000D03*
X21200000Y-9000000D03*
X22000000Y-9000000D03*
X22800000Y-9000000D03*
X23600000Y-9000000D03*
X24400000Y-9000000D03*
X24400000Y-81200000D03*
X23600000Y-81200000D03*
X22800000Y-81200000D03*
X22000000Y-81200000D03*
X21200000Y-81200000D03*
X20400000Y-81200000D03*
X19600000Y-81200000D03*
X300000Y-9000000D03*
X1100000Y-9000000D03*
X1900000Y-9000000D03*
X2700000Y-9000000D03*
X3500000Y-9000000D03*
X4300000Y-9000000D03*
X5100000Y-9000000D03*
X5900000Y-9000000D03*
X6700000Y-9000000D03*
X52400000Y-81200000D03*
X51600000Y-81200000D03*
X50800000Y-81200000D03*
X50000000Y-81200000D03*
X49200000Y-81200000D03*
X48400000Y-81200000D03*
X47600000Y-81200000D03*
X65000000Y-28900000D03*
X65000000Y-28100000D03*
X65000000Y-27300000D03*
X65000000Y-26500000D03*
X65000000Y-25700000D03*
X65000000Y-24900000D03*
X65000000Y-24100000D03*
X63000000Y-28900000D03*
X63000000Y-28100000D03*
X63000000Y-27300000D03*
X63000000Y-26500000D03*
X63000000Y-25700000D03*
X63000000Y-24900000D03*
X63000000Y-24100000D03*
M02*
