G04 #@! TF.GenerationSoftware,KiCad,Pcbnew,8.0.8*
G04 #@! TF.CreationDate,2025-02-10T00:15:01+01:00*
G04 #@! TF.ProjectId,opl3module,6f706c33-6d6f-4647-956c-652e6b696361,1.2*
G04 #@! TF.SameCoordinates,Original*
G04 #@! TF.FileFunction,Legend,Bot*
G04 #@! TF.FilePolarity,Positive*
%FSLAX46Y46*%
G04 Gerber Fmt 4.6, Leading zero omitted, Abs format (unit mm)*
G04 Created by KiCad (PCBNEW 8.0.8) date 2025-02-10 00:15:01*
%MOMM*%
%LPD*%
G01*
G04 APERTURE LIST*
%ADD10C,0.300000*%
%ADD11C,1.397000*%
%ADD12R,1.397000X1.397000*%
%ADD13C,0.500000*%
G04 APERTURE END LIST*
D10*
X19055954Y-53980000D02*
X19055954Y-53265714D01*
X19055954Y-53265714D02*
X17555954Y-53265714D01*
X19055954Y-54694286D02*
X18984526Y-54551429D01*
X18984526Y-54551429D02*
X18841668Y-54480000D01*
X18841668Y-54480000D02*
X17555954Y-54480000D01*
X19055954Y-55908572D02*
X18270240Y-55908572D01*
X18270240Y-55908572D02*
X18127383Y-55837143D01*
X18127383Y-55837143D02*
X18055954Y-55694286D01*
X18055954Y-55694286D02*
X18055954Y-55408572D01*
X18055954Y-55408572D02*
X18127383Y-55265714D01*
X18984526Y-55908572D02*
X19055954Y-55765714D01*
X19055954Y-55765714D02*
X19055954Y-55408572D01*
X19055954Y-55408572D02*
X18984526Y-55265714D01*
X18984526Y-55265714D02*
X18841668Y-55194286D01*
X18841668Y-55194286D02*
X18698811Y-55194286D01*
X18698811Y-55194286D02*
X18555954Y-55265714D01*
X18555954Y-55265714D02*
X18484526Y-55408572D01*
X18484526Y-55408572D02*
X18484526Y-55765714D01*
X18484526Y-55765714D02*
X18413097Y-55908572D01*
X19055954Y-56622857D02*
X18055954Y-56622857D01*
X18198811Y-56622857D02*
X18127383Y-56694286D01*
X18127383Y-56694286D02*
X18055954Y-56837143D01*
X18055954Y-56837143D02*
X18055954Y-57051429D01*
X18055954Y-57051429D02*
X18127383Y-57194286D01*
X18127383Y-57194286D02*
X18270240Y-57265715D01*
X18270240Y-57265715D02*
X19055954Y-57265715D01*
X18270240Y-57265715D02*
X18127383Y-57337143D01*
X18127383Y-57337143D02*
X18055954Y-57480000D01*
X18055954Y-57480000D02*
X18055954Y-57694286D01*
X18055954Y-57694286D02*
X18127383Y-57837143D01*
X18127383Y-57837143D02*
X18270240Y-57908572D01*
X18270240Y-57908572D02*
X19055954Y-57908572D01*
X19055954Y-59265715D02*
X18270240Y-59265715D01*
X18270240Y-59265715D02*
X18127383Y-59194286D01*
X18127383Y-59194286D02*
X18055954Y-59051429D01*
X18055954Y-59051429D02*
X18055954Y-58765715D01*
X18055954Y-58765715D02*
X18127383Y-58622857D01*
X18984526Y-59265715D02*
X19055954Y-59122857D01*
X19055954Y-59122857D02*
X19055954Y-58765715D01*
X19055954Y-58765715D02*
X18984526Y-58622857D01*
X18984526Y-58622857D02*
X18841668Y-58551429D01*
X18841668Y-58551429D02*
X18698811Y-58551429D01*
X18698811Y-58551429D02*
X18555954Y-58622857D01*
X18555954Y-58622857D02*
X18484526Y-58765715D01*
X18484526Y-58765715D02*
X18484526Y-59122857D01*
X18484526Y-59122857D02*
X18413097Y-59265715D01*
X17555954Y-62551429D02*
X17555954Y-62837143D01*
X17555954Y-62837143D02*
X17627383Y-62980000D01*
X17627383Y-62980000D02*
X17770240Y-63122857D01*
X17770240Y-63122857D02*
X18055954Y-63194286D01*
X18055954Y-63194286D02*
X18555954Y-63194286D01*
X18555954Y-63194286D02*
X18841668Y-63122857D01*
X18841668Y-63122857D02*
X18984526Y-62980000D01*
X18984526Y-62980000D02*
X19055954Y-62837143D01*
X19055954Y-62837143D02*
X19055954Y-62551429D01*
X19055954Y-62551429D02*
X18984526Y-62408572D01*
X18984526Y-62408572D02*
X18841668Y-62265714D01*
X18841668Y-62265714D02*
X18555954Y-62194286D01*
X18555954Y-62194286D02*
X18055954Y-62194286D01*
X18055954Y-62194286D02*
X17770240Y-62265714D01*
X17770240Y-62265714D02*
X17627383Y-62408572D01*
X17627383Y-62408572D02*
X17555954Y-62551429D01*
X19055954Y-63837143D02*
X17555954Y-63837143D01*
X17555954Y-63837143D02*
X17555954Y-64408572D01*
X17555954Y-64408572D02*
X17627383Y-64551429D01*
X17627383Y-64551429D02*
X17698811Y-64622858D01*
X17698811Y-64622858D02*
X17841668Y-64694286D01*
X17841668Y-64694286D02*
X18055954Y-64694286D01*
X18055954Y-64694286D02*
X18198811Y-64622858D01*
X18198811Y-64622858D02*
X18270240Y-64551429D01*
X18270240Y-64551429D02*
X18341668Y-64408572D01*
X18341668Y-64408572D02*
X18341668Y-63837143D01*
X19055954Y-66051429D02*
X19055954Y-65337143D01*
X19055954Y-65337143D02*
X17555954Y-65337143D01*
X17555954Y-66408572D02*
X17555954Y-67337144D01*
X17555954Y-67337144D02*
X18127383Y-66837144D01*
X18127383Y-66837144D02*
X18127383Y-67051429D01*
X18127383Y-67051429D02*
X18198811Y-67194287D01*
X18198811Y-67194287D02*
X18270240Y-67265715D01*
X18270240Y-67265715D02*
X18413097Y-67337144D01*
X18413097Y-67337144D02*
X18770240Y-67337144D01*
X18770240Y-67337144D02*
X18913097Y-67265715D01*
X18913097Y-67265715D02*
X18984526Y-67194287D01*
X18984526Y-67194287D02*
X19055954Y-67051429D01*
X19055954Y-67051429D02*
X19055954Y-66622858D01*
X19055954Y-66622858D02*
X18984526Y-66480001D01*
X18984526Y-66480001D02*
X18913097Y-66408572D01*
X19055954Y-70265714D02*
X18055954Y-70265714D01*
X18198811Y-70265714D02*
X18127383Y-70337143D01*
X18127383Y-70337143D02*
X18055954Y-70480000D01*
X18055954Y-70480000D02*
X18055954Y-70694286D01*
X18055954Y-70694286D02*
X18127383Y-70837143D01*
X18127383Y-70837143D02*
X18270240Y-70908572D01*
X18270240Y-70908572D02*
X19055954Y-70908572D01*
X18270240Y-70908572D02*
X18127383Y-70980000D01*
X18127383Y-70980000D02*
X18055954Y-71122857D01*
X18055954Y-71122857D02*
X18055954Y-71337143D01*
X18055954Y-71337143D02*
X18127383Y-71480000D01*
X18127383Y-71480000D02*
X18270240Y-71551429D01*
X18270240Y-71551429D02*
X19055954Y-71551429D01*
X19055954Y-72480000D02*
X18984526Y-72337143D01*
X18984526Y-72337143D02*
X18913097Y-72265714D01*
X18913097Y-72265714D02*
X18770240Y-72194286D01*
X18770240Y-72194286D02*
X18341668Y-72194286D01*
X18341668Y-72194286D02*
X18198811Y-72265714D01*
X18198811Y-72265714D02*
X18127383Y-72337143D01*
X18127383Y-72337143D02*
X18055954Y-72480000D01*
X18055954Y-72480000D02*
X18055954Y-72694286D01*
X18055954Y-72694286D02*
X18127383Y-72837143D01*
X18127383Y-72837143D02*
X18198811Y-72908572D01*
X18198811Y-72908572D02*
X18341668Y-72980000D01*
X18341668Y-72980000D02*
X18770240Y-72980000D01*
X18770240Y-72980000D02*
X18913097Y-72908572D01*
X18913097Y-72908572D02*
X18984526Y-72837143D01*
X18984526Y-72837143D02*
X19055954Y-72694286D01*
X19055954Y-72694286D02*
X19055954Y-72480000D01*
X19055954Y-74265715D02*
X17555954Y-74265715D01*
X18984526Y-74265715D02*
X19055954Y-74122857D01*
X19055954Y-74122857D02*
X19055954Y-73837143D01*
X19055954Y-73837143D02*
X18984526Y-73694286D01*
X18984526Y-73694286D02*
X18913097Y-73622857D01*
X18913097Y-73622857D02*
X18770240Y-73551429D01*
X18770240Y-73551429D02*
X18341668Y-73551429D01*
X18341668Y-73551429D02*
X18198811Y-73622857D01*
X18198811Y-73622857D02*
X18127383Y-73694286D01*
X18127383Y-73694286D02*
X18055954Y-73837143D01*
X18055954Y-73837143D02*
X18055954Y-74122857D01*
X18055954Y-74122857D02*
X18127383Y-74265715D01*
X18055954Y-75622858D02*
X19055954Y-75622858D01*
X18055954Y-74980000D02*
X18841668Y-74980000D01*
X18841668Y-74980000D02*
X18984526Y-75051429D01*
X18984526Y-75051429D02*
X19055954Y-75194286D01*
X19055954Y-75194286D02*
X19055954Y-75408572D01*
X19055954Y-75408572D02*
X18984526Y-75551429D01*
X18984526Y-75551429D02*
X18913097Y-75622858D01*
X19055954Y-76551429D02*
X18984526Y-76408572D01*
X18984526Y-76408572D02*
X18841668Y-76337143D01*
X18841668Y-76337143D02*
X17555954Y-76337143D01*
X18984526Y-77694286D02*
X19055954Y-77551429D01*
X19055954Y-77551429D02*
X19055954Y-77265715D01*
X19055954Y-77265715D02*
X18984526Y-77122857D01*
X18984526Y-77122857D02*
X18841668Y-77051429D01*
X18841668Y-77051429D02*
X18270240Y-77051429D01*
X18270240Y-77051429D02*
X18127383Y-77122857D01*
X18127383Y-77122857D02*
X18055954Y-77265715D01*
X18055954Y-77265715D02*
X18055954Y-77551429D01*
X18055954Y-77551429D02*
X18127383Y-77694286D01*
X18127383Y-77694286D02*
X18270240Y-77765715D01*
X18270240Y-77765715D02*
X18413097Y-77765715D01*
X18413097Y-77765715D02*
X18555954Y-77051429D01*
X21470870Y-54408572D02*
X20756584Y-53908572D01*
X21470870Y-53551429D02*
X19970870Y-53551429D01*
X19970870Y-53551429D02*
X19970870Y-54122858D01*
X19970870Y-54122858D02*
X20042299Y-54265715D01*
X20042299Y-54265715D02*
X20113727Y-54337144D01*
X20113727Y-54337144D02*
X20256584Y-54408572D01*
X20256584Y-54408572D02*
X20470870Y-54408572D01*
X20470870Y-54408572D02*
X20613727Y-54337144D01*
X20613727Y-54337144D02*
X20685156Y-54265715D01*
X20685156Y-54265715D02*
X20756584Y-54122858D01*
X20756584Y-54122858D02*
X20756584Y-53551429D01*
X21399442Y-55622858D02*
X21470870Y-55480001D01*
X21470870Y-55480001D02*
X21470870Y-55194287D01*
X21470870Y-55194287D02*
X21399442Y-55051429D01*
X21399442Y-55051429D02*
X21256584Y-54980001D01*
X21256584Y-54980001D02*
X20685156Y-54980001D01*
X20685156Y-54980001D02*
X20542299Y-55051429D01*
X20542299Y-55051429D02*
X20470870Y-55194287D01*
X20470870Y-55194287D02*
X20470870Y-55480001D01*
X20470870Y-55480001D02*
X20542299Y-55622858D01*
X20542299Y-55622858D02*
X20685156Y-55694287D01*
X20685156Y-55694287D02*
X20828013Y-55694287D01*
X20828013Y-55694287D02*
X20970870Y-54980001D01*
X20470870Y-56194286D02*
X21470870Y-56551429D01*
X21470870Y-56551429D02*
X20470870Y-56908572D01*
X21470870Y-57480000D02*
X20470870Y-57480000D01*
X19970870Y-57480000D02*
X20042299Y-57408572D01*
X20042299Y-57408572D02*
X20113727Y-57480000D01*
X20113727Y-57480000D02*
X20042299Y-57551429D01*
X20042299Y-57551429D02*
X19970870Y-57480000D01*
X19970870Y-57480000D02*
X20113727Y-57480000D01*
X21399442Y-58122858D02*
X21470870Y-58265715D01*
X21470870Y-58265715D02*
X21470870Y-58551429D01*
X21470870Y-58551429D02*
X21399442Y-58694286D01*
X21399442Y-58694286D02*
X21256584Y-58765715D01*
X21256584Y-58765715D02*
X21185156Y-58765715D01*
X21185156Y-58765715D02*
X21042299Y-58694286D01*
X21042299Y-58694286D02*
X20970870Y-58551429D01*
X20970870Y-58551429D02*
X20970870Y-58337144D01*
X20970870Y-58337144D02*
X20899442Y-58194286D01*
X20899442Y-58194286D02*
X20756584Y-58122858D01*
X20756584Y-58122858D02*
X20685156Y-58122858D01*
X20685156Y-58122858D02*
X20542299Y-58194286D01*
X20542299Y-58194286D02*
X20470870Y-58337144D01*
X20470870Y-58337144D02*
X20470870Y-58551429D01*
X20470870Y-58551429D02*
X20542299Y-58694286D01*
X21470870Y-59408572D02*
X20470870Y-59408572D01*
X19970870Y-59408572D02*
X20042299Y-59337144D01*
X20042299Y-59337144D02*
X20113727Y-59408572D01*
X20113727Y-59408572D02*
X20042299Y-59480001D01*
X20042299Y-59480001D02*
X19970870Y-59408572D01*
X19970870Y-59408572D02*
X20113727Y-59408572D01*
X21470870Y-60337144D02*
X21399442Y-60194287D01*
X21399442Y-60194287D02*
X21328013Y-60122858D01*
X21328013Y-60122858D02*
X21185156Y-60051430D01*
X21185156Y-60051430D02*
X20756584Y-60051430D01*
X20756584Y-60051430D02*
X20613727Y-60122858D01*
X20613727Y-60122858D02*
X20542299Y-60194287D01*
X20542299Y-60194287D02*
X20470870Y-60337144D01*
X20470870Y-60337144D02*
X20470870Y-60551430D01*
X20470870Y-60551430D02*
X20542299Y-60694287D01*
X20542299Y-60694287D02*
X20613727Y-60765716D01*
X20613727Y-60765716D02*
X20756584Y-60837144D01*
X20756584Y-60837144D02*
X21185156Y-60837144D01*
X21185156Y-60837144D02*
X21328013Y-60765716D01*
X21328013Y-60765716D02*
X21399442Y-60694287D01*
X21399442Y-60694287D02*
X21470870Y-60551430D01*
X21470870Y-60551430D02*
X21470870Y-60337144D01*
X20470870Y-61480001D02*
X21470870Y-61480001D01*
X20613727Y-61480001D02*
X20542299Y-61551430D01*
X20542299Y-61551430D02*
X20470870Y-61694287D01*
X20470870Y-61694287D02*
X20470870Y-61908573D01*
X20470870Y-61908573D02*
X20542299Y-62051430D01*
X20542299Y-62051430D02*
X20685156Y-62122859D01*
X20685156Y-62122859D02*
X21470870Y-62122859D01*
X21470870Y-64765716D02*
X21470870Y-63908573D01*
X21470870Y-64337144D02*
X19970870Y-64337144D01*
X19970870Y-64337144D02*
X20185156Y-64194287D01*
X20185156Y-64194287D02*
X20328013Y-64051430D01*
X20328013Y-64051430D02*
X20399442Y-63908573D01*
X21328013Y-65408572D02*
X21399442Y-65480001D01*
X21399442Y-65480001D02*
X21470870Y-65408572D01*
X21470870Y-65408572D02*
X21399442Y-65337144D01*
X21399442Y-65337144D02*
X21328013Y-65408572D01*
X21328013Y-65408572D02*
X21470870Y-65408572D01*
X19970870Y-66408573D02*
X19970870Y-66551430D01*
X19970870Y-66551430D02*
X20042299Y-66694287D01*
X20042299Y-66694287D02*
X20113727Y-66765716D01*
X20113727Y-66765716D02*
X20256584Y-66837144D01*
X20256584Y-66837144D02*
X20542299Y-66908573D01*
X20542299Y-66908573D02*
X20899442Y-66908573D01*
X20899442Y-66908573D02*
X21185156Y-66837144D01*
X21185156Y-66837144D02*
X21328013Y-66765716D01*
X21328013Y-66765716D02*
X21399442Y-66694287D01*
X21399442Y-66694287D02*
X21470870Y-66551430D01*
X21470870Y-66551430D02*
X21470870Y-66408573D01*
X21470870Y-66408573D02*
X21399442Y-66265716D01*
X21399442Y-66265716D02*
X21328013Y-66194287D01*
X21328013Y-66194287D02*
X21185156Y-66122858D01*
X21185156Y-66122858D02*
X20899442Y-66051430D01*
X20899442Y-66051430D02*
X20542299Y-66051430D01*
X20542299Y-66051430D02*
X20256584Y-66122858D01*
X20256584Y-66122858D02*
X20113727Y-66194287D01*
X20113727Y-66194287D02*
X20042299Y-66265716D01*
X20042299Y-66265716D02*
X19970870Y-66408573D01*
X20328013Y-69908572D02*
X20256584Y-69765715D01*
X20256584Y-69765715D02*
X20256584Y-69480001D01*
X20256584Y-69480001D02*
X20328013Y-69337144D01*
X20328013Y-69337144D02*
X20470870Y-69194286D01*
X20470870Y-69194286D02*
X20613727Y-69122858D01*
X20613727Y-69122858D02*
X20899442Y-69122858D01*
X20899442Y-69122858D02*
X21042299Y-69194286D01*
X21042299Y-69194286D02*
X21185156Y-69337144D01*
X21185156Y-69337144D02*
X21256584Y-69480001D01*
X21256584Y-69480001D02*
X21256584Y-69765715D01*
X21256584Y-69765715D02*
X21185156Y-69908572D01*
X19756584Y-69622858D02*
X19828013Y-69265715D01*
X19828013Y-69265715D02*
X20042299Y-68908572D01*
X20042299Y-68908572D02*
X20399442Y-68694286D01*
X20399442Y-68694286D02*
X20756584Y-68622858D01*
X20756584Y-68622858D02*
X21113727Y-68694286D01*
X21113727Y-68694286D02*
X21470870Y-68908572D01*
X21470870Y-68908572D02*
X21685156Y-69265715D01*
X21685156Y-69265715D02*
X21756584Y-69622858D01*
X21756584Y-69622858D02*
X21685156Y-69980001D01*
X21685156Y-69980001D02*
X21470870Y-70337144D01*
X21470870Y-70337144D02*
X21113727Y-70551429D01*
X21113727Y-70551429D02*
X20756584Y-70622858D01*
X20756584Y-70622858D02*
X20399442Y-70551429D01*
X20399442Y-70551429D02*
X20042299Y-70337144D01*
X20042299Y-70337144D02*
X19828013Y-69980001D01*
X19828013Y-69980001D02*
X19756584Y-69622858D01*
X20113727Y-72337144D02*
X20042299Y-72408572D01*
X20042299Y-72408572D02*
X19970870Y-72551430D01*
X19970870Y-72551430D02*
X19970870Y-72908572D01*
X19970870Y-72908572D02*
X20042299Y-73051430D01*
X20042299Y-73051430D02*
X20113727Y-73122858D01*
X20113727Y-73122858D02*
X20256584Y-73194287D01*
X20256584Y-73194287D02*
X20399442Y-73194287D01*
X20399442Y-73194287D02*
X20613727Y-73122858D01*
X20613727Y-73122858D02*
X21470870Y-72265715D01*
X21470870Y-72265715D02*
X21470870Y-73194287D01*
X19970870Y-74122858D02*
X19970870Y-74265715D01*
X19970870Y-74265715D02*
X20042299Y-74408572D01*
X20042299Y-74408572D02*
X20113727Y-74480001D01*
X20113727Y-74480001D02*
X20256584Y-74551429D01*
X20256584Y-74551429D02*
X20542299Y-74622858D01*
X20542299Y-74622858D02*
X20899442Y-74622858D01*
X20899442Y-74622858D02*
X21185156Y-74551429D01*
X21185156Y-74551429D02*
X21328013Y-74480001D01*
X21328013Y-74480001D02*
X21399442Y-74408572D01*
X21399442Y-74408572D02*
X21470870Y-74265715D01*
X21470870Y-74265715D02*
X21470870Y-74122858D01*
X21470870Y-74122858D02*
X21399442Y-73980001D01*
X21399442Y-73980001D02*
X21328013Y-73908572D01*
X21328013Y-73908572D02*
X21185156Y-73837143D01*
X21185156Y-73837143D02*
X20899442Y-73765715D01*
X20899442Y-73765715D02*
X20542299Y-73765715D01*
X20542299Y-73765715D02*
X20256584Y-73837143D01*
X20256584Y-73837143D02*
X20113727Y-73908572D01*
X20113727Y-73908572D02*
X20042299Y-73980001D01*
X20042299Y-73980001D02*
X19970870Y-74122858D01*
X20113727Y-75194286D02*
X20042299Y-75265714D01*
X20042299Y-75265714D02*
X19970870Y-75408572D01*
X19970870Y-75408572D02*
X19970870Y-75765714D01*
X19970870Y-75765714D02*
X20042299Y-75908572D01*
X20042299Y-75908572D02*
X20113727Y-75980000D01*
X20113727Y-75980000D02*
X20256584Y-76051429D01*
X20256584Y-76051429D02*
X20399442Y-76051429D01*
X20399442Y-76051429D02*
X20613727Y-75980000D01*
X20613727Y-75980000D02*
X21470870Y-75122857D01*
X21470870Y-75122857D02*
X21470870Y-76051429D01*
X19970870Y-77408571D02*
X19970870Y-76694285D01*
X19970870Y-76694285D02*
X20685156Y-76622857D01*
X20685156Y-76622857D02*
X20613727Y-76694285D01*
X20613727Y-76694285D02*
X20542299Y-76837143D01*
X20542299Y-76837143D02*
X20542299Y-77194285D01*
X20542299Y-77194285D02*
X20613727Y-77337143D01*
X20613727Y-77337143D02*
X20685156Y-77408571D01*
X20685156Y-77408571D02*
X20828013Y-77480000D01*
X20828013Y-77480000D02*
X21185156Y-77480000D01*
X21185156Y-77480000D02*
X21328013Y-77408571D01*
X21328013Y-77408571D02*
X21399442Y-77337143D01*
X21399442Y-77337143D02*
X21470870Y-77194285D01*
X21470870Y-77194285D02*
X21470870Y-76837143D01*
X21470870Y-76837143D02*
X21399442Y-76694285D01*
X21399442Y-76694285D02*
X21328013Y-76622857D01*
X23100072Y-58337142D02*
X23100072Y-58837142D01*
X23885786Y-59051428D02*
X23885786Y-58337142D01*
X23885786Y-58337142D02*
X22385786Y-58337142D01*
X22385786Y-58337142D02*
X22385786Y-59051428D01*
X23885786Y-59694285D02*
X22885786Y-59694285D01*
X22385786Y-59694285D02*
X22457215Y-59622857D01*
X22457215Y-59622857D02*
X22528643Y-59694285D01*
X22528643Y-59694285D02*
X22457215Y-59765714D01*
X22457215Y-59765714D02*
X22385786Y-59694285D01*
X22385786Y-59694285D02*
X22528643Y-59694285D01*
X22885786Y-60265714D02*
X23885786Y-60622857D01*
X23885786Y-60622857D02*
X22885786Y-60980000D01*
X23885786Y-61551428D02*
X22885786Y-61551428D01*
X22385786Y-61551428D02*
X22457215Y-61480000D01*
X22457215Y-61480000D02*
X22528643Y-61551428D01*
X22528643Y-61551428D02*
X22457215Y-61622857D01*
X22457215Y-61622857D02*
X22385786Y-61551428D01*
X22385786Y-61551428D02*
X22528643Y-61551428D01*
X22885786Y-62265714D02*
X23885786Y-62265714D01*
X23028643Y-62265714D02*
X22957215Y-62337143D01*
X22957215Y-62337143D02*
X22885786Y-62480000D01*
X22885786Y-62480000D02*
X22885786Y-62694286D01*
X22885786Y-62694286D02*
X22957215Y-62837143D01*
X22957215Y-62837143D02*
X23100072Y-62908572D01*
X23100072Y-62908572D02*
X23885786Y-62908572D01*
X23885786Y-64265715D02*
X22385786Y-64265715D01*
X23814358Y-64265715D02*
X23885786Y-64122857D01*
X23885786Y-64122857D02*
X23885786Y-63837143D01*
X23885786Y-63837143D02*
X23814358Y-63694286D01*
X23814358Y-63694286D02*
X23742929Y-63622857D01*
X23742929Y-63622857D02*
X23600072Y-63551429D01*
X23600072Y-63551429D02*
X23171500Y-63551429D01*
X23171500Y-63551429D02*
X23028643Y-63622857D01*
X23028643Y-63622857D02*
X22957215Y-63694286D01*
X22957215Y-63694286D02*
X22885786Y-63837143D01*
X22885786Y-63837143D02*
X22885786Y-64122857D01*
X22885786Y-64122857D02*
X22957215Y-64265715D01*
X23100072Y-66622857D02*
X23171500Y-66837143D01*
X23171500Y-66837143D02*
X23242929Y-66908572D01*
X23242929Y-66908572D02*
X23385786Y-66980000D01*
X23385786Y-66980000D02*
X23600072Y-66980000D01*
X23600072Y-66980000D02*
X23742929Y-66908572D01*
X23742929Y-66908572D02*
X23814358Y-66837143D01*
X23814358Y-66837143D02*
X23885786Y-66694286D01*
X23885786Y-66694286D02*
X23885786Y-66122857D01*
X23885786Y-66122857D02*
X22385786Y-66122857D01*
X22385786Y-66122857D02*
X22385786Y-66622857D01*
X22385786Y-66622857D02*
X22457215Y-66765715D01*
X22457215Y-66765715D02*
X22528643Y-66837143D01*
X22528643Y-66837143D02*
X22671500Y-66908572D01*
X22671500Y-66908572D02*
X22814358Y-66908572D01*
X22814358Y-66908572D02*
X22957215Y-66837143D01*
X22957215Y-66837143D02*
X23028643Y-66765715D01*
X23028643Y-66765715D02*
X23100072Y-66622857D01*
X23100072Y-66622857D02*
X23100072Y-66122857D01*
X22885786Y-68408572D02*
X23885786Y-67480000D01*
X23885786Y-67837143D02*
X23814358Y-67694286D01*
X23814358Y-67694286D02*
X23742929Y-67622857D01*
X23742929Y-67622857D02*
X23600072Y-67551429D01*
X23600072Y-67551429D02*
X23171500Y-67551429D01*
X23171500Y-67551429D02*
X23028643Y-67622857D01*
X23028643Y-67622857D02*
X22957215Y-67694286D01*
X22957215Y-67694286D02*
X22885786Y-67837143D01*
X22885786Y-67837143D02*
X22885786Y-68051429D01*
X22885786Y-68051429D02*
X22957215Y-68194286D01*
X22957215Y-68194286D02*
X23028643Y-68265715D01*
X23028643Y-68265715D02*
X23171500Y-68337143D01*
X23171500Y-68337143D02*
X23600072Y-68337143D01*
X23600072Y-68337143D02*
X23742929Y-68265715D01*
X23742929Y-68265715D02*
X23814358Y-68194286D01*
X23814358Y-68194286D02*
X23885786Y-68051429D01*
X23885786Y-68051429D02*
X23885786Y-67837143D01*
X23885786Y-68980000D02*
X22385786Y-68980000D01*
X23885786Y-69622858D02*
X23100072Y-69622858D01*
X23100072Y-69622858D02*
X22957215Y-69551429D01*
X22957215Y-69551429D02*
X22885786Y-69408572D01*
X22885786Y-69408572D02*
X22885786Y-69194286D01*
X22885786Y-69194286D02*
X22957215Y-69051429D01*
X22957215Y-69051429D02*
X23028643Y-68980000D01*
X23885786Y-70551429D02*
X23814358Y-70408572D01*
X23814358Y-70408572D02*
X23671500Y-70337143D01*
X23671500Y-70337143D02*
X22385786Y-70337143D01*
X23814358Y-71694286D02*
X23885786Y-71551429D01*
X23885786Y-71551429D02*
X23885786Y-71265715D01*
X23885786Y-71265715D02*
X23814358Y-71122857D01*
X23814358Y-71122857D02*
X23671500Y-71051429D01*
X23671500Y-71051429D02*
X23100072Y-71051429D01*
X23100072Y-71051429D02*
X22957215Y-71122857D01*
X22957215Y-71122857D02*
X22885786Y-71265715D01*
X22885786Y-71265715D02*
X22885786Y-71551429D01*
X22885786Y-71551429D02*
X22957215Y-71694286D01*
X22957215Y-71694286D02*
X23100072Y-71765715D01*
X23100072Y-71765715D02*
X23242929Y-71765715D01*
X23242929Y-71765715D02*
X23385786Y-71051429D01*
X23885786Y-72408571D02*
X22885786Y-72408571D01*
X23171500Y-72408571D02*
X23028643Y-72480000D01*
X23028643Y-72480000D02*
X22957215Y-72551429D01*
X22957215Y-72551429D02*
X22885786Y-72694286D01*
X22885786Y-72694286D02*
X22885786Y-72837143D01*
X26300702Y-57408571D02*
X25300702Y-57408571D01*
X25586416Y-57408571D02*
X25443559Y-57480000D01*
X25443559Y-57480000D02*
X25372131Y-57551429D01*
X25372131Y-57551429D02*
X25300702Y-57694286D01*
X25300702Y-57694286D02*
X25300702Y-57837143D01*
X26229274Y-58908571D02*
X26300702Y-58765714D01*
X26300702Y-58765714D02*
X26300702Y-58480000D01*
X26300702Y-58480000D02*
X26229274Y-58337142D01*
X26229274Y-58337142D02*
X26086416Y-58265714D01*
X26086416Y-58265714D02*
X25514988Y-58265714D01*
X25514988Y-58265714D02*
X25372131Y-58337142D01*
X25372131Y-58337142D02*
X25300702Y-58480000D01*
X25300702Y-58480000D02*
X25300702Y-58765714D01*
X25300702Y-58765714D02*
X25372131Y-58908571D01*
X25372131Y-58908571D02*
X25514988Y-58980000D01*
X25514988Y-58980000D02*
X25657845Y-58980000D01*
X25657845Y-58980000D02*
X25800702Y-58265714D01*
X25300702Y-59408571D02*
X25300702Y-59979999D01*
X24800702Y-59622856D02*
X26086416Y-59622856D01*
X26086416Y-59622856D02*
X26229274Y-59694285D01*
X26229274Y-59694285D02*
X26300702Y-59837142D01*
X26300702Y-59837142D02*
X26300702Y-59979999D01*
X26300702Y-60479999D02*
X25300702Y-60479999D01*
X25586416Y-60479999D02*
X25443559Y-60551428D01*
X25443559Y-60551428D02*
X25372131Y-60622857D01*
X25372131Y-60622857D02*
X25300702Y-60765714D01*
X25300702Y-60765714D02*
X25300702Y-60908571D01*
X26300702Y-61622856D02*
X26229274Y-61479999D01*
X26229274Y-61479999D02*
X26157845Y-61408570D01*
X26157845Y-61408570D02*
X26014988Y-61337142D01*
X26014988Y-61337142D02*
X25586416Y-61337142D01*
X25586416Y-61337142D02*
X25443559Y-61408570D01*
X25443559Y-61408570D02*
X25372131Y-61479999D01*
X25372131Y-61479999D02*
X25300702Y-61622856D01*
X25300702Y-61622856D02*
X25300702Y-61837142D01*
X25300702Y-61837142D02*
X25372131Y-61979999D01*
X25372131Y-61979999D02*
X25443559Y-62051428D01*
X25443559Y-62051428D02*
X25586416Y-62122856D01*
X25586416Y-62122856D02*
X26014988Y-62122856D01*
X26014988Y-62122856D02*
X26157845Y-62051428D01*
X26157845Y-62051428D02*
X26229274Y-61979999D01*
X26229274Y-61979999D02*
X26300702Y-61837142D01*
X26300702Y-61837142D02*
X26300702Y-61622856D01*
X26300702Y-63408571D02*
X24800702Y-63408571D01*
X26229274Y-63408571D02*
X26300702Y-63265713D01*
X26300702Y-63265713D02*
X26300702Y-62979999D01*
X26300702Y-62979999D02*
X26229274Y-62837142D01*
X26229274Y-62837142D02*
X26157845Y-62765713D01*
X26157845Y-62765713D02*
X26014988Y-62694285D01*
X26014988Y-62694285D02*
X25586416Y-62694285D01*
X25586416Y-62694285D02*
X25443559Y-62765713D01*
X25443559Y-62765713D02*
X25372131Y-62837142D01*
X25372131Y-62837142D02*
X25300702Y-62979999D01*
X25300702Y-62979999D02*
X25300702Y-63265713D01*
X25300702Y-63265713D02*
X25372131Y-63408571D01*
X26300702Y-64122856D02*
X25300702Y-64122856D01*
X25586416Y-64122856D02*
X25443559Y-64194285D01*
X25443559Y-64194285D02*
X25372131Y-64265714D01*
X25372131Y-64265714D02*
X25300702Y-64408571D01*
X25300702Y-64408571D02*
X25300702Y-64551428D01*
X26229274Y-65622856D02*
X26300702Y-65479999D01*
X26300702Y-65479999D02*
X26300702Y-65194285D01*
X26300702Y-65194285D02*
X26229274Y-65051427D01*
X26229274Y-65051427D02*
X26086416Y-64979999D01*
X26086416Y-64979999D02*
X25514988Y-64979999D01*
X25514988Y-64979999D02*
X25372131Y-65051427D01*
X25372131Y-65051427D02*
X25300702Y-65194285D01*
X25300702Y-65194285D02*
X25300702Y-65479999D01*
X25300702Y-65479999D02*
X25372131Y-65622856D01*
X25372131Y-65622856D02*
X25514988Y-65694285D01*
X25514988Y-65694285D02*
X25657845Y-65694285D01*
X25657845Y-65694285D02*
X25800702Y-64979999D01*
X26300702Y-66979999D02*
X25514988Y-66979999D01*
X25514988Y-66979999D02*
X25372131Y-66908570D01*
X25372131Y-66908570D02*
X25300702Y-66765713D01*
X25300702Y-66765713D02*
X25300702Y-66479999D01*
X25300702Y-66479999D02*
X25372131Y-66337141D01*
X26229274Y-66979999D02*
X26300702Y-66837141D01*
X26300702Y-66837141D02*
X26300702Y-66479999D01*
X26300702Y-66479999D02*
X26229274Y-66337141D01*
X26229274Y-66337141D02*
X26086416Y-66265713D01*
X26086416Y-66265713D02*
X25943559Y-66265713D01*
X25943559Y-66265713D02*
X25800702Y-66337141D01*
X25800702Y-66337141D02*
X25729274Y-66479999D01*
X25729274Y-66479999D02*
X25729274Y-66837141D01*
X25729274Y-66837141D02*
X25657845Y-66979999D01*
X26300702Y-67694284D02*
X25300702Y-67694284D01*
X25443559Y-67694284D02*
X25372131Y-67765713D01*
X25372131Y-67765713D02*
X25300702Y-67908570D01*
X25300702Y-67908570D02*
X25300702Y-68122856D01*
X25300702Y-68122856D02*
X25372131Y-68265713D01*
X25372131Y-68265713D02*
X25514988Y-68337142D01*
X25514988Y-68337142D02*
X26300702Y-68337142D01*
X25514988Y-68337142D02*
X25372131Y-68408570D01*
X25372131Y-68408570D02*
X25300702Y-68551427D01*
X25300702Y-68551427D02*
X25300702Y-68765713D01*
X25300702Y-68765713D02*
X25372131Y-68908570D01*
X25372131Y-68908570D02*
X25514988Y-68979999D01*
X25514988Y-68979999D02*
X26300702Y-68979999D01*
X26229274Y-69622856D02*
X26300702Y-69765713D01*
X26300702Y-69765713D02*
X26300702Y-70051427D01*
X26300702Y-70051427D02*
X26229274Y-70194284D01*
X26229274Y-70194284D02*
X26086416Y-70265713D01*
X26086416Y-70265713D02*
X26014988Y-70265713D01*
X26014988Y-70265713D02*
X25872131Y-70194284D01*
X25872131Y-70194284D02*
X25800702Y-70051427D01*
X25800702Y-70051427D02*
X25800702Y-69837142D01*
X25800702Y-69837142D02*
X25729274Y-69694284D01*
X25729274Y-69694284D02*
X25586416Y-69622856D01*
X25586416Y-69622856D02*
X25514988Y-69622856D01*
X25514988Y-69622856D02*
X25372131Y-69694284D01*
X25372131Y-69694284D02*
X25300702Y-69837142D01*
X25300702Y-69837142D02*
X25300702Y-70051427D01*
X25300702Y-70051427D02*
X25372131Y-70194284D01*
X26157845Y-70908570D02*
X26229274Y-70979999D01*
X26229274Y-70979999D02*
X26300702Y-70908570D01*
X26300702Y-70908570D02*
X26229274Y-70837142D01*
X26229274Y-70837142D02*
X26157845Y-70908570D01*
X26157845Y-70908570D02*
X26300702Y-70908570D01*
X26229274Y-72265714D02*
X26300702Y-72122856D01*
X26300702Y-72122856D02*
X26300702Y-71837142D01*
X26300702Y-71837142D02*
X26229274Y-71694285D01*
X26229274Y-71694285D02*
X26157845Y-71622856D01*
X26157845Y-71622856D02*
X26014988Y-71551428D01*
X26014988Y-71551428D02*
X25586416Y-71551428D01*
X25586416Y-71551428D02*
X25443559Y-71622856D01*
X25443559Y-71622856D02*
X25372131Y-71694285D01*
X25372131Y-71694285D02*
X25300702Y-71837142D01*
X25300702Y-71837142D02*
X25300702Y-72122856D01*
X25300702Y-72122856D02*
X25372131Y-72265714D01*
X26300702Y-73551428D02*
X25514988Y-73551428D01*
X25514988Y-73551428D02*
X25372131Y-73479999D01*
X25372131Y-73479999D02*
X25300702Y-73337142D01*
X25300702Y-73337142D02*
X25300702Y-73051428D01*
X25300702Y-73051428D02*
X25372131Y-72908570D01*
X26229274Y-73551428D02*
X26300702Y-73408570D01*
X26300702Y-73408570D02*
X26300702Y-73051428D01*
X26300702Y-73051428D02*
X26229274Y-72908570D01*
X26229274Y-72908570D02*
X26086416Y-72837142D01*
X26086416Y-72837142D02*
X25943559Y-72837142D01*
X25943559Y-72837142D02*
X25800702Y-72908570D01*
X25800702Y-72908570D02*
X25729274Y-73051428D01*
X25729274Y-73051428D02*
X25729274Y-73408570D01*
X25729274Y-73408570D02*
X25657845Y-73551428D01*
X75055954Y-53980000D02*
X75055954Y-53265714D01*
X75055954Y-53265714D02*
X73555954Y-53265714D01*
X75055954Y-54694286D02*
X74984526Y-54551429D01*
X74984526Y-54551429D02*
X74841668Y-54480000D01*
X74841668Y-54480000D02*
X73555954Y-54480000D01*
X75055954Y-55908572D02*
X74270240Y-55908572D01*
X74270240Y-55908572D02*
X74127383Y-55837143D01*
X74127383Y-55837143D02*
X74055954Y-55694286D01*
X74055954Y-55694286D02*
X74055954Y-55408572D01*
X74055954Y-55408572D02*
X74127383Y-55265714D01*
X74984526Y-55908572D02*
X75055954Y-55765714D01*
X75055954Y-55765714D02*
X75055954Y-55408572D01*
X75055954Y-55408572D02*
X74984526Y-55265714D01*
X74984526Y-55265714D02*
X74841668Y-55194286D01*
X74841668Y-55194286D02*
X74698811Y-55194286D01*
X74698811Y-55194286D02*
X74555954Y-55265714D01*
X74555954Y-55265714D02*
X74484526Y-55408572D01*
X74484526Y-55408572D02*
X74484526Y-55765714D01*
X74484526Y-55765714D02*
X74413097Y-55908572D01*
X75055954Y-56622857D02*
X74055954Y-56622857D01*
X74198811Y-56622857D02*
X74127383Y-56694286D01*
X74127383Y-56694286D02*
X74055954Y-56837143D01*
X74055954Y-56837143D02*
X74055954Y-57051429D01*
X74055954Y-57051429D02*
X74127383Y-57194286D01*
X74127383Y-57194286D02*
X74270240Y-57265715D01*
X74270240Y-57265715D02*
X75055954Y-57265715D01*
X74270240Y-57265715D02*
X74127383Y-57337143D01*
X74127383Y-57337143D02*
X74055954Y-57480000D01*
X74055954Y-57480000D02*
X74055954Y-57694286D01*
X74055954Y-57694286D02*
X74127383Y-57837143D01*
X74127383Y-57837143D02*
X74270240Y-57908572D01*
X74270240Y-57908572D02*
X75055954Y-57908572D01*
X75055954Y-59265715D02*
X74270240Y-59265715D01*
X74270240Y-59265715D02*
X74127383Y-59194286D01*
X74127383Y-59194286D02*
X74055954Y-59051429D01*
X74055954Y-59051429D02*
X74055954Y-58765715D01*
X74055954Y-58765715D02*
X74127383Y-58622857D01*
X74984526Y-59265715D02*
X75055954Y-59122857D01*
X75055954Y-59122857D02*
X75055954Y-58765715D01*
X75055954Y-58765715D02*
X74984526Y-58622857D01*
X74984526Y-58622857D02*
X74841668Y-58551429D01*
X74841668Y-58551429D02*
X74698811Y-58551429D01*
X74698811Y-58551429D02*
X74555954Y-58622857D01*
X74555954Y-58622857D02*
X74484526Y-58765715D01*
X74484526Y-58765715D02*
X74484526Y-59122857D01*
X74484526Y-59122857D02*
X74413097Y-59265715D01*
X73555954Y-62551429D02*
X73555954Y-62837143D01*
X73555954Y-62837143D02*
X73627383Y-62980000D01*
X73627383Y-62980000D02*
X73770240Y-63122857D01*
X73770240Y-63122857D02*
X74055954Y-63194286D01*
X74055954Y-63194286D02*
X74555954Y-63194286D01*
X74555954Y-63194286D02*
X74841668Y-63122857D01*
X74841668Y-63122857D02*
X74984526Y-62980000D01*
X74984526Y-62980000D02*
X75055954Y-62837143D01*
X75055954Y-62837143D02*
X75055954Y-62551429D01*
X75055954Y-62551429D02*
X74984526Y-62408572D01*
X74984526Y-62408572D02*
X74841668Y-62265714D01*
X74841668Y-62265714D02*
X74555954Y-62194286D01*
X74555954Y-62194286D02*
X74055954Y-62194286D01*
X74055954Y-62194286D02*
X73770240Y-62265714D01*
X73770240Y-62265714D02*
X73627383Y-62408572D01*
X73627383Y-62408572D02*
X73555954Y-62551429D01*
X75055954Y-63837143D02*
X73555954Y-63837143D01*
X73555954Y-63837143D02*
X73555954Y-64408572D01*
X73555954Y-64408572D02*
X73627383Y-64551429D01*
X73627383Y-64551429D02*
X73698811Y-64622858D01*
X73698811Y-64622858D02*
X73841668Y-64694286D01*
X73841668Y-64694286D02*
X74055954Y-64694286D01*
X74055954Y-64694286D02*
X74198811Y-64622858D01*
X74198811Y-64622858D02*
X74270240Y-64551429D01*
X74270240Y-64551429D02*
X74341668Y-64408572D01*
X74341668Y-64408572D02*
X74341668Y-63837143D01*
X75055954Y-66051429D02*
X75055954Y-65337143D01*
X75055954Y-65337143D02*
X73555954Y-65337143D01*
X73555954Y-66408572D02*
X73555954Y-67337144D01*
X73555954Y-67337144D02*
X74127383Y-66837144D01*
X74127383Y-66837144D02*
X74127383Y-67051429D01*
X74127383Y-67051429D02*
X74198811Y-67194287D01*
X74198811Y-67194287D02*
X74270240Y-67265715D01*
X74270240Y-67265715D02*
X74413097Y-67337144D01*
X74413097Y-67337144D02*
X74770240Y-67337144D01*
X74770240Y-67337144D02*
X74913097Y-67265715D01*
X74913097Y-67265715D02*
X74984526Y-67194287D01*
X74984526Y-67194287D02*
X75055954Y-67051429D01*
X75055954Y-67051429D02*
X75055954Y-66622858D01*
X75055954Y-66622858D02*
X74984526Y-66480001D01*
X74984526Y-66480001D02*
X74913097Y-66408572D01*
X75055954Y-70265714D02*
X74055954Y-70265714D01*
X74198811Y-70265714D02*
X74127383Y-70337143D01*
X74127383Y-70337143D02*
X74055954Y-70480000D01*
X74055954Y-70480000D02*
X74055954Y-70694286D01*
X74055954Y-70694286D02*
X74127383Y-70837143D01*
X74127383Y-70837143D02*
X74270240Y-70908572D01*
X74270240Y-70908572D02*
X75055954Y-70908572D01*
X74270240Y-70908572D02*
X74127383Y-70980000D01*
X74127383Y-70980000D02*
X74055954Y-71122857D01*
X74055954Y-71122857D02*
X74055954Y-71337143D01*
X74055954Y-71337143D02*
X74127383Y-71480000D01*
X74127383Y-71480000D02*
X74270240Y-71551429D01*
X74270240Y-71551429D02*
X75055954Y-71551429D01*
X75055954Y-72480000D02*
X74984526Y-72337143D01*
X74984526Y-72337143D02*
X74913097Y-72265714D01*
X74913097Y-72265714D02*
X74770240Y-72194286D01*
X74770240Y-72194286D02*
X74341668Y-72194286D01*
X74341668Y-72194286D02*
X74198811Y-72265714D01*
X74198811Y-72265714D02*
X74127383Y-72337143D01*
X74127383Y-72337143D02*
X74055954Y-72480000D01*
X74055954Y-72480000D02*
X74055954Y-72694286D01*
X74055954Y-72694286D02*
X74127383Y-72837143D01*
X74127383Y-72837143D02*
X74198811Y-72908572D01*
X74198811Y-72908572D02*
X74341668Y-72980000D01*
X74341668Y-72980000D02*
X74770240Y-72980000D01*
X74770240Y-72980000D02*
X74913097Y-72908572D01*
X74913097Y-72908572D02*
X74984526Y-72837143D01*
X74984526Y-72837143D02*
X75055954Y-72694286D01*
X75055954Y-72694286D02*
X75055954Y-72480000D01*
X75055954Y-74265715D02*
X73555954Y-74265715D01*
X74984526Y-74265715D02*
X75055954Y-74122857D01*
X75055954Y-74122857D02*
X75055954Y-73837143D01*
X75055954Y-73837143D02*
X74984526Y-73694286D01*
X74984526Y-73694286D02*
X74913097Y-73622857D01*
X74913097Y-73622857D02*
X74770240Y-73551429D01*
X74770240Y-73551429D02*
X74341668Y-73551429D01*
X74341668Y-73551429D02*
X74198811Y-73622857D01*
X74198811Y-73622857D02*
X74127383Y-73694286D01*
X74127383Y-73694286D02*
X74055954Y-73837143D01*
X74055954Y-73837143D02*
X74055954Y-74122857D01*
X74055954Y-74122857D02*
X74127383Y-74265715D01*
X74055954Y-75622858D02*
X75055954Y-75622858D01*
X74055954Y-74980000D02*
X74841668Y-74980000D01*
X74841668Y-74980000D02*
X74984526Y-75051429D01*
X74984526Y-75051429D02*
X75055954Y-75194286D01*
X75055954Y-75194286D02*
X75055954Y-75408572D01*
X75055954Y-75408572D02*
X74984526Y-75551429D01*
X74984526Y-75551429D02*
X74913097Y-75622858D01*
X75055954Y-76551429D02*
X74984526Y-76408572D01*
X74984526Y-76408572D02*
X74841668Y-76337143D01*
X74841668Y-76337143D02*
X73555954Y-76337143D01*
X74984526Y-77694286D02*
X75055954Y-77551429D01*
X75055954Y-77551429D02*
X75055954Y-77265715D01*
X75055954Y-77265715D02*
X74984526Y-77122857D01*
X74984526Y-77122857D02*
X74841668Y-77051429D01*
X74841668Y-77051429D02*
X74270240Y-77051429D01*
X74270240Y-77051429D02*
X74127383Y-77122857D01*
X74127383Y-77122857D02*
X74055954Y-77265715D01*
X74055954Y-77265715D02*
X74055954Y-77551429D01*
X74055954Y-77551429D02*
X74127383Y-77694286D01*
X74127383Y-77694286D02*
X74270240Y-77765715D01*
X74270240Y-77765715D02*
X74413097Y-77765715D01*
X74413097Y-77765715D02*
X74555954Y-77051429D01*
X77470870Y-54408572D02*
X76756584Y-53908572D01*
X77470870Y-53551429D02*
X75970870Y-53551429D01*
X75970870Y-53551429D02*
X75970870Y-54122858D01*
X75970870Y-54122858D02*
X76042299Y-54265715D01*
X76042299Y-54265715D02*
X76113727Y-54337144D01*
X76113727Y-54337144D02*
X76256584Y-54408572D01*
X76256584Y-54408572D02*
X76470870Y-54408572D01*
X76470870Y-54408572D02*
X76613727Y-54337144D01*
X76613727Y-54337144D02*
X76685156Y-54265715D01*
X76685156Y-54265715D02*
X76756584Y-54122858D01*
X76756584Y-54122858D02*
X76756584Y-53551429D01*
X77399442Y-55622858D02*
X77470870Y-55480001D01*
X77470870Y-55480001D02*
X77470870Y-55194287D01*
X77470870Y-55194287D02*
X77399442Y-55051429D01*
X77399442Y-55051429D02*
X77256584Y-54980001D01*
X77256584Y-54980001D02*
X76685156Y-54980001D01*
X76685156Y-54980001D02*
X76542299Y-55051429D01*
X76542299Y-55051429D02*
X76470870Y-55194287D01*
X76470870Y-55194287D02*
X76470870Y-55480001D01*
X76470870Y-55480001D02*
X76542299Y-55622858D01*
X76542299Y-55622858D02*
X76685156Y-55694287D01*
X76685156Y-55694287D02*
X76828013Y-55694287D01*
X76828013Y-55694287D02*
X76970870Y-54980001D01*
X76470870Y-56194286D02*
X77470870Y-56551429D01*
X77470870Y-56551429D02*
X76470870Y-56908572D01*
X77470870Y-57480000D02*
X76470870Y-57480000D01*
X75970870Y-57480000D02*
X76042299Y-57408572D01*
X76042299Y-57408572D02*
X76113727Y-57480000D01*
X76113727Y-57480000D02*
X76042299Y-57551429D01*
X76042299Y-57551429D02*
X75970870Y-57480000D01*
X75970870Y-57480000D02*
X76113727Y-57480000D01*
X77399442Y-58122858D02*
X77470870Y-58265715D01*
X77470870Y-58265715D02*
X77470870Y-58551429D01*
X77470870Y-58551429D02*
X77399442Y-58694286D01*
X77399442Y-58694286D02*
X77256584Y-58765715D01*
X77256584Y-58765715D02*
X77185156Y-58765715D01*
X77185156Y-58765715D02*
X77042299Y-58694286D01*
X77042299Y-58694286D02*
X76970870Y-58551429D01*
X76970870Y-58551429D02*
X76970870Y-58337144D01*
X76970870Y-58337144D02*
X76899442Y-58194286D01*
X76899442Y-58194286D02*
X76756584Y-58122858D01*
X76756584Y-58122858D02*
X76685156Y-58122858D01*
X76685156Y-58122858D02*
X76542299Y-58194286D01*
X76542299Y-58194286D02*
X76470870Y-58337144D01*
X76470870Y-58337144D02*
X76470870Y-58551429D01*
X76470870Y-58551429D02*
X76542299Y-58694286D01*
X77470870Y-59408572D02*
X76470870Y-59408572D01*
X75970870Y-59408572D02*
X76042299Y-59337144D01*
X76042299Y-59337144D02*
X76113727Y-59408572D01*
X76113727Y-59408572D02*
X76042299Y-59480001D01*
X76042299Y-59480001D02*
X75970870Y-59408572D01*
X75970870Y-59408572D02*
X76113727Y-59408572D01*
X77470870Y-60337144D02*
X77399442Y-60194287D01*
X77399442Y-60194287D02*
X77328013Y-60122858D01*
X77328013Y-60122858D02*
X77185156Y-60051430D01*
X77185156Y-60051430D02*
X76756584Y-60051430D01*
X76756584Y-60051430D02*
X76613727Y-60122858D01*
X76613727Y-60122858D02*
X76542299Y-60194287D01*
X76542299Y-60194287D02*
X76470870Y-60337144D01*
X76470870Y-60337144D02*
X76470870Y-60551430D01*
X76470870Y-60551430D02*
X76542299Y-60694287D01*
X76542299Y-60694287D02*
X76613727Y-60765716D01*
X76613727Y-60765716D02*
X76756584Y-60837144D01*
X76756584Y-60837144D02*
X77185156Y-60837144D01*
X77185156Y-60837144D02*
X77328013Y-60765716D01*
X77328013Y-60765716D02*
X77399442Y-60694287D01*
X77399442Y-60694287D02*
X77470870Y-60551430D01*
X77470870Y-60551430D02*
X77470870Y-60337144D01*
X76470870Y-61480001D02*
X77470870Y-61480001D01*
X76613727Y-61480001D02*
X76542299Y-61551430D01*
X76542299Y-61551430D02*
X76470870Y-61694287D01*
X76470870Y-61694287D02*
X76470870Y-61908573D01*
X76470870Y-61908573D02*
X76542299Y-62051430D01*
X76542299Y-62051430D02*
X76685156Y-62122859D01*
X76685156Y-62122859D02*
X77470870Y-62122859D01*
X77470870Y-64765716D02*
X77470870Y-63908573D01*
X77470870Y-64337144D02*
X75970870Y-64337144D01*
X75970870Y-64337144D02*
X76185156Y-64194287D01*
X76185156Y-64194287D02*
X76328013Y-64051430D01*
X76328013Y-64051430D02*
X76399442Y-63908573D01*
X77328013Y-65408572D02*
X77399442Y-65480001D01*
X77399442Y-65480001D02*
X77470870Y-65408572D01*
X77470870Y-65408572D02*
X77399442Y-65337144D01*
X77399442Y-65337144D02*
X77328013Y-65408572D01*
X77328013Y-65408572D02*
X77470870Y-65408572D01*
X75970870Y-66408573D02*
X75970870Y-66551430D01*
X75970870Y-66551430D02*
X76042299Y-66694287D01*
X76042299Y-66694287D02*
X76113727Y-66765716D01*
X76113727Y-66765716D02*
X76256584Y-66837144D01*
X76256584Y-66837144D02*
X76542299Y-66908573D01*
X76542299Y-66908573D02*
X76899442Y-66908573D01*
X76899442Y-66908573D02*
X77185156Y-66837144D01*
X77185156Y-66837144D02*
X77328013Y-66765716D01*
X77328013Y-66765716D02*
X77399442Y-66694287D01*
X77399442Y-66694287D02*
X77470870Y-66551430D01*
X77470870Y-66551430D02*
X77470870Y-66408573D01*
X77470870Y-66408573D02*
X77399442Y-66265716D01*
X77399442Y-66265716D02*
X77328013Y-66194287D01*
X77328013Y-66194287D02*
X77185156Y-66122858D01*
X77185156Y-66122858D02*
X76899442Y-66051430D01*
X76899442Y-66051430D02*
X76542299Y-66051430D01*
X76542299Y-66051430D02*
X76256584Y-66122858D01*
X76256584Y-66122858D02*
X76113727Y-66194287D01*
X76113727Y-66194287D02*
X76042299Y-66265716D01*
X76042299Y-66265716D02*
X75970870Y-66408573D01*
X76328013Y-69908572D02*
X76256584Y-69765715D01*
X76256584Y-69765715D02*
X76256584Y-69480001D01*
X76256584Y-69480001D02*
X76328013Y-69337144D01*
X76328013Y-69337144D02*
X76470870Y-69194286D01*
X76470870Y-69194286D02*
X76613727Y-69122858D01*
X76613727Y-69122858D02*
X76899442Y-69122858D01*
X76899442Y-69122858D02*
X77042299Y-69194286D01*
X77042299Y-69194286D02*
X77185156Y-69337144D01*
X77185156Y-69337144D02*
X77256584Y-69480001D01*
X77256584Y-69480001D02*
X77256584Y-69765715D01*
X77256584Y-69765715D02*
X77185156Y-69908572D01*
X75756584Y-69622858D02*
X75828013Y-69265715D01*
X75828013Y-69265715D02*
X76042299Y-68908572D01*
X76042299Y-68908572D02*
X76399442Y-68694286D01*
X76399442Y-68694286D02*
X76756584Y-68622858D01*
X76756584Y-68622858D02*
X77113727Y-68694286D01*
X77113727Y-68694286D02*
X77470870Y-68908572D01*
X77470870Y-68908572D02*
X77685156Y-69265715D01*
X77685156Y-69265715D02*
X77756584Y-69622858D01*
X77756584Y-69622858D02*
X77685156Y-69980001D01*
X77685156Y-69980001D02*
X77470870Y-70337144D01*
X77470870Y-70337144D02*
X77113727Y-70551429D01*
X77113727Y-70551429D02*
X76756584Y-70622858D01*
X76756584Y-70622858D02*
X76399442Y-70551429D01*
X76399442Y-70551429D02*
X76042299Y-70337144D01*
X76042299Y-70337144D02*
X75828013Y-69980001D01*
X75828013Y-69980001D02*
X75756584Y-69622858D01*
X76113727Y-72337144D02*
X76042299Y-72408572D01*
X76042299Y-72408572D02*
X75970870Y-72551430D01*
X75970870Y-72551430D02*
X75970870Y-72908572D01*
X75970870Y-72908572D02*
X76042299Y-73051430D01*
X76042299Y-73051430D02*
X76113727Y-73122858D01*
X76113727Y-73122858D02*
X76256584Y-73194287D01*
X76256584Y-73194287D02*
X76399442Y-73194287D01*
X76399442Y-73194287D02*
X76613727Y-73122858D01*
X76613727Y-73122858D02*
X77470870Y-72265715D01*
X77470870Y-72265715D02*
X77470870Y-73194287D01*
X75970870Y-74122858D02*
X75970870Y-74265715D01*
X75970870Y-74265715D02*
X76042299Y-74408572D01*
X76042299Y-74408572D02*
X76113727Y-74480001D01*
X76113727Y-74480001D02*
X76256584Y-74551429D01*
X76256584Y-74551429D02*
X76542299Y-74622858D01*
X76542299Y-74622858D02*
X76899442Y-74622858D01*
X76899442Y-74622858D02*
X77185156Y-74551429D01*
X77185156Y-74551429D02*
X77328013Y-74480001D01*
X77328013Y-74480001D02*
X77399442Y-74408572D01*
X77399442Y-74408572D02*
X77470870Y-74265715D01*
X77470870Y-74265715D02*
X77470870Y-74122858D01*
X77470870Y-74122858D02*
X77399442Y-73980001D01*
X77399442Y-73980001D02*
X77328013Y-73908572D01*
X77328013Y-73908572D02*
X77185156Y-73837143D01*
X77185156Y-73837143D02*
X76899442Y-73765715D01*
X76899442Y-73765715D02*
X76542299Y-73765715D01*
X76542299Y-73765715D02*
X76256584Y-73837143D01*
X76256584Y-73837143D02*
X76113727Y-73908572D01*
X76113727Y-73908572D02*
X76042299Y-73980001D01*
X76042299Y-73980001D02*
X75970870Y-74122858D01*
X76113727Y-75194286D02*
X76042299Y-75265714D01*
X76042299Y-75265714D02*
X75970870Y-75408572D01*
X75970870Y-75408572D02*
X75970870Y-75765714D01*
X75970870Y-75765714D02*
X76042299Y-75908572D01*
X76042299Y-75908572D02*
X76113727Y-75980000D01*
X76113727Y-75980000D02*
X76256584Y-76051429D01*
X76256584Y-76051429D02*
X76399442Y-76051429D01*
X76399442Y-76051429D02*
X76613727Y-75980000D01*
X76613727Y-75980000D02*
X77470870Y-75122857D01*
X77470870Y-75122857D02*
X77470870Y-76051429D01*
X75970870Y-77408571D02*
X75970870Y-76694285D01*
X75970870Y-76694285D02*
X76685156Y-76622857D01*
X76685156Y-76622857D02*
X76613727Y-76694285D01*
X76613727Y-76694285D02*
X76542299Y-76837143D01*
X76542299Y-76837143D02*
X76542299Y-77194285D01*
X76542299Y-77194285D02*
X76613727Y-77337143D01*
X76613727Y-77337143D02*
X76685156Y-77408571D01*
X76685156Y-77408571D02*
X76828013Y-77480000D01*
X76828013Y-77480000D02*
X77185156Y-77480000D01*
X77185156Y-77480000D02*
X77328013Y-77408571D01*
X77328013Y-77408571D02*
X77399442Y-77337143D01*
X77399442Y-77337143D02*
X77470870Y-77194285D01*
X77470870Y-77194285D02*
X77470870Y-76837143D01*
X77470870Y-76837143D02*
X77399442Y-76694285D01*
X77399442Y-76694285D02*
X77328013Y-76622857D01*
X79100072Y-58337142D02*
X79100072Y-58837142D01*
X79885786Y-59051428D02*
X79885786Y-58337142D01*
X79885786Y-58337142D02*
X78385786Y-58337142D01*
X78385786Y-58337142D02*
X78385786Y-59051428D01*
X79885786Y-59694285D02*
X78885786Y-59694285D01*
X78385786Y-59694285D02*
X78457215Y-59622857D01*
X78457215Y-59622857D02*
X78528643Y-59694285D01*
X78528643Y-59694285D02*
X78457215Y-59765714D01*
X78457215Y-59765714D02*
X78385786Y-59694285D01*
X78385786Y-59694285D02*
X78528643Y-59694285D01*
X78885786Y-60265714D02*
X79885786Y-60622857D01*
X79885786Y-60622857D02*
X78885786Y-60980000D01*
X79885786Y-61551428D02*
X78885786Y-61551428D01*
X78385786Y-61551428D02*
X78457215Y-61480000D01*
X78457215Y-61480000D02*
X78528643Y-61551428D01*
X78528643Y-61551428D02*
X78457215Y-61622857D01*
X78457215Y-61622857D02*
X78385786Y-61551428D01*
X78385786Y-61551428D02*
X78528643Y-61551428D01*
X78885786Y-62265714D02*
X79885786Y-62265714D01*
X79028643Y-62265714D02*
X78957215Y-62337143D01*
X78957215Y-62337143D02*
X78885786Y-62480000D01*
X78885786Y-62480000D02*
X78885786Y-62694286D01*
X78885786Y-62694286D02*
X78957215Y-62837143D01*
X78957215Y-62837143D02*
X79100072Y-62908572D01*
X79100072Y-62908572D02*
X79885786Y-62908572D01*
X79885786Y-64265715D02*
X78385786Y-64265715D01*
X79814358Y-64265715D02*
X79885786Y-64122857D01*
X79885786Y-64122857D02*
X79885786Y-63837143D01*
X79885786Y-63837143D02*
X79814358Y-63694286D01*
X79814358Y-63694286D02*
X79742929Y-63622857D01*
X79742929Y-63622857D02*
X79600072Y-63551429D01*
X79600072Y-63551429D02*
X79171500Y-63551429D01*
X79171500Y-63551429D02*
X79028643Y-63622857D01*
X79028643Y-63622857D02*
X78957215Y-63694286D01*
X78957215Y-63694286D02*
X78885786Y-63837143D01*
X78885786Y-63837143D02*
X78885786Y-64122857D01*
X78885786Y-64122857D02*
X78957215Y-64265715D01*
X79100072Y-66622857D02*
X79171500Y-66837143D01*
X79171500Y-66837143D02*
X79242929Y-66908572D01*
X79242929Y-66908572D02*
X79385786Y-66980000D01*
X79385786Y-66980000D02*
X79600072Y-66980000D01*
X79600072Y-66980000D02*
X79742929Y-66908572D01*
X79742929Y-66908572D02*
X79814358Y-66837143D01*
X79814358Y-66837143D02*
X79885786Y-66694286D01*
X79885786Y-66694286D02*
X79885786Y-66122857D01*
X79885786Y-66122857D02*
X78385786Y-66122857D01*
X78385786Y-66122857D02*
X78385786Y-66622857D01*
X78385786Y-66622857D02*
X78457215Y-66765715D01*
X78457215Y-66765715D02*
X78528643Y-66837143D01*
X78528643Y-66837143D02*
X78671500Y-66908572D01*
X78671500Y-66908572D02*
X78814358Y-66908572D01*
X78814358Y-66908572D02*
X78957215Y-66837143D01*
X78957215Y-66837143D02*
X79028643Y-66765715D01*
X79028643Y-66765715D02*
X79100072Y-66622857D01*
X79100072Y-66622857D02*
X79100072Y-66122857D01*
X78885786Y-68408572D02*
X79885786Y-67480000D01*
X79885786Y-67837143D02*
X79814358Y-67694286D01*
X79814358Y-67694286D02*
X79742929Y-67622857D01*
X79742929Y-67622857D02*
X79600072Y-67551429D01*
X79600072Y-67551429D02*
X79171500Y-67551429D01*
X79171500Y-67551429D02*
X79028643Y-67622857D01*
X79028643Y-67622857D02*
X78957215Y-67694286D01*
X78957215Y-67694286D02*
X78885786Y-67837143D01*
X78885786Y-67837143D02*
X78885786Y-68051429D01*
X78885786Y-68051429D02*
X78957215Y-68194286D01*
X78957215Y-68194286D02*
X79028643Y-68265715D01*
X79028643Y-68265715D02*
X79171500Y-68337143D01*
X79171500Y-68337143D02*
X79600072Y-68337143D01*
X79600072Y-68337143D02*
X79742929Y-68265715D01*
X79742929Y-68265715D02*
X79814358Y-68194286D01*
X79814358Y-68194286D02*
X79885786Y-68051429D01*
X79885786Y-68051429D02*
X79885786Y-67837143D01*
X79885786Y-68980000D02*
X78385786Y-68980000D01*
X79885786Y-69622858D02*
X79100072Y-69622858D01*
X79100072Y-69622858D02*
X78957215Y-69551429D01*
X78957215Y-69551429D02*
X78885786Y-69408572D01*
X78885786Y-69408572D02*
X78885786Y-69194286D01*
X78885786Y-69194286D02*
X78957215Y-69051429D01*
X78957215Y-69051429D02*
X79028643Y-68980000D01*
X79885786Y-70551429D02*
X79814358Y-70408572D01*
X79814358Y-70408572D02*
X79671500Y-70337143D01*
X79671500Y-70337143D02*
X78385786Y-70337143D01*
X79814358Y-71694286D02*
X79885786Y-71551429D01*
X79885786Y-71551429D02*
X79885786Y-71265715D01*
X79885786Y-71265715D02*
X79814358Y-71122857D01*
X79814358Y-71122857D02*
X79671500Y-71051429D01*
X79671500Y-71051429D02*
X79100072Y-71051429D01*
X79100072Y-71051429D02*
X78957215Y-71122857D01*
X78957215Y-71122857D02*
X78885786Y-71265715D01*
X78885786Y-71265715D02*
X78885786Y-71551429D01*
X78885786Y-71551429D02*
X78957215Y-71694286D01*
X78957215Y-71694286D02*
X79100072Y-71765715D01*
X79100072Y-71765715D02*
X79242929Y-71765715D01*
X79242929Y-71765715D02*
X79385786Y-71051429D01*
X79885786Y-72408571D02*
X78885786Y-72408571D01*
X79171500Y-72408571D02*
X79028643Y-72480000D01*
X79028643Y-72480000D02*
X78957215Y-72551429D01*
X78957215Y-72551429D02*
X78885786Y-72694286D01*
X78885786Y-72694286D02*
X78885786Y-72837143D01*
X82300702Y-57408571D02*
X81300702Y-57408571D01*
X81586416Y-57408571D02*
X81443559Y-57480000D01*
X81443559Y-57480000D02*
X81372131Y-57551429D01*
X81372131Y-57551429D02*
X81300702Y-57694286D01*
X81300702Y-57694286D02*
X81300702Y-57837143D01*
X82229274Y-58908571D02*
X82300702Y-58765714D01*
X82300702Y-58765714D02*
X82300702Y-58480000D01*
X82300702Y-58480000D02*
X82229274Y-58337142D01*
X82229274Y-58337142D02*
X82086416Y-58265714D01*
X82086416Y-58265714D02*
X81514988Y-58265714D01*
X81514988Y-58265714D02*
X81372131Y-58337142D01*
X81372131Y-58337142D02*
X81300702Y-58480000D01*
X81300702Y-58480000D02*
X81300702Y-58765714D01*
X81300702Y-58765714D02*
X81372131Y-58908571D01*
X81372131Y-58908571D02*
X81514988Y-58980000D01*
X81514988Y-58980000D02*
X81657845Y-58980000D01*
X81657845Y-58980000D02*
X81800702Y-58265714D01*
X81300702Y-59408571D02*
X81300702Y-59979999D01*
X80800702Y-59622856D02*
X82086416Y-59622856D01*
X82086416Y-59622856D02*
X82229274Y-59694285D01*
X82229274Y-59694285D02*
X82300702Y-59837142D01*
X82300702Y-59837142D02*
X82300702Y-59979999D01*
X82300702Y-60479999D02*
X81300702Y-60479999D01*
X81586416Y-60479999D02*
X81443559Y-60551428D01*
X81443559Y-60551428D02*
X81372131Y-60622857D01*
X81372131Y-60622857D02*
X81300702Y-60765714D01*
X81300702Y-60765714D02*
X81300702Y-60908571D01*
X82300702Y-61622856D02*
X82229274Y-61479999D01*
X82229274Y-61479999D02*
X82157845Y-61408570D01*
X82157845Y-61408570D02*
X82014988Y-61337142D01*
X82014988Y-61337142D02*
X81586416Y-61337142D01*
X81586416Y-61337142D02*
X81443559Y-61408570D01*
X81443559Y-61408570D02*
X81372131Y-61479999D01*
X81372131Y-61479999D02*
X81300702Y-61622856D01*
X81300702Y-61622856D02*
X81300702Y-61837142D01*
X81300702Y-61837142D02*
X81372131Y-61979999D01*
X81372131Y-61979999D02*
X81443559Y-62051428D01*
X81443559Y-62051428D02*
X81586416Y-62122856D01*
X81586416Y-62122856D02*
X82014988Y-62122856D01*
X82014988Y-62122856D02*
X82157845Y-62051428D01*
X82157845Y-62051428D02*
X82229274Y-61979999D01*
X82229274Y-61979999D02*
X82300702Y-61837142D01*
X82300702Y-61837142D02*
X82300702Y-61622856D01*
X82300702Y-63408571D02*
X80800702Y-63408571D01*
X82229274Y-63408571D02*
X82300702Y-63265713D01*
X82300702Y-63265713D02*
X82300702Y-62979999D01*
X82300702Y-62979999D02*
X82229274Y-62837142D01*
X82229274Y-62837142D02*
X82157845Y-62765713D01*
X82157845Y-62765713D02*
X82014988Y-62694285D01*
X82014988Y-62694285D02*
X81586416Y-62694285D01*
X81586416Y-62694285D02*
X81443559Y-62765713D01*
X81443559Y-62765713D02*
X81372131Y-62837142D01*
X81372131Y-62837142D02*
X81300702Y-62979999D01*
X81300702Y-62979999D02*
X81300702Y-63265713D01*
X81300702Y-63265713D02*
X81372131Y-63408571D01*
X82300702Y-64122856D02*
X81300702Y-64122856D01*
X81586416Y-64122856D02*
X81443559Y-64194285D01*
X81443559Y-64194285D02*
X81372131Y-64265714D01*
X81372131Y-64265714D02*
X81300702Y-64408571D01*
X81300702Y-64408571D02*
X81300702Y-64551428D01*
X82229274Y-65622856D02*
X82300702Y-65479999D01*
X82300702Y-65479999D02*
X82300702Y-65194285D01*
X82300702Y-65194285D02*
X82229274Y-65051427D01*
X82229274Y-65051427D02*
X82086416Y-64979999D01*
X82086416Y-64979999D02*
X81514988Y-64979999D01*
X81514988Y-64979999D02*
X81372131Y-65051427D01*
X81372131Y-65051427D02*
X81300702Y-65194285D01*
X81300702Y-65194285D02*
X81300702Y-65479999D01*
X81300702Y-65479999D02*
X81372131Y-65622856D01*
X81372131Y-65622856D02*
X81514988Y-65694285D01*
X81514988Y-65694285D02*
X81657845Y-65694285D01*
X81657845Y-65694285D02*
X81800702Y-64979999D01*
X82300702Y-66979999D02*
X81514988Y-66979999D01*
X81514988Y-66979999D02*
X81372131Y-66908570D01*
X81372131Y-66908570D02*
X81300702Y-66765713D01*
X81300702Y-66765713D02*
X81300702Y-66479999D01*
X81300702Y-66479999D02*
X81372131Y-66337141D01*
X82229274Y-66979999D02*
X82300702Y-66837141D01*
X82300702Y-66837141D02*
X82300702Y-66479999D01*
X82300702Y-66479999D02*
X82229274Y-66337141D01*
X82229274Y-66337141D02*
X82086416Y-66265713D01*
X82086416Y-66265713D02*
X81943559Y-66265713D01*
X81943559Y-66265713D02*
X81800702Y-66337141D01*
X81800702Y-66337141D02*
X81729274Y-66479999D01*
X81729274Y-66479999D02*
X81729274Y-66837141D01*
X81729274Y-66837141D02*
X81657845Y-66979999D01*
X82300702Y-67694284D02*
X81300702Y-67694284D01*
X81443559Y-67694284D02*
X81372131Y-67765713D01*
X81372131Y-67765713D02*
X81300702Y-67908570D01*
X81300702Y-67908570D02*
X81300702Y-68122856D01*
X81300702Y-68122856D02*
X81372131Y-68265713D01*
X81372131Y-68265713D02*
X81514988Y-68337142D01*
X81514988Y-68337142D02*
X82300702Y-68337142D01*
X81514988Y-68337142D02*
X81372131Y-68408570D01*
X81372131Y-68408570D02*
X81300702Y-68551427D01*
X81300702Y-68551427D02*
X81300702Y-68765713D01*
X81300702Y-68765713D02*
X81372131Y-68908570D01*
X81372131Y-68908570D02*
X81514988Y-68979999D01*
X81514988Y-68979999D02*
X82300702Y-68979999D01*
X82229274Y-69622856D02*
X82300702Y-69765713D01*
X82300702Y-69765713D02*
X82300702Y-70051427D01*
X82300702Y-70051427D02*
X82229274Y-70194284D01*
X82229274Y-70194284D02*
X82086416Y-70265713D01*
X82086416Y-70265713D02*
X82014988Y-70265713D01*
X82014988Y-70265713D02*
X81872131Y-70194284D01*
X81872131Y-70194284D02*
X81800702Y-70051427D01*
X81800702Y-70051427D02*
X81800702Y-69837142D01*
X81800702Y-69837142D02*
X81729274Y-69694284D01*
X81729274Y-69694284D02*
X81586416Y-69622856D01*
X81586416Y-69622856D02*
X81514988Y-69622856D01*
X81514988Y-69622856D02*
X81372131Y-69694284D01*
X81372131Y-69694284D02*
X81300702Y-69837142D01*
X81300702Y-69837142D02*
X81300702Y-70051427D01*
X81300702Y-70051427D02*
X81372131Y-70194284D01*
X82157845Y-70908570D02*
X82229274Y-70979999D01*
X82229274Y-70979999D02*
X82300702Y-70908570D01*
X82300702Y-70908570D02*
X82229274Y-70837142D01*
X82229274Y-70837142D02*
X82157845Y-70908570D01*
X82157845Y-70908570D02*
X82300702Y-70908570D01*
X82229274Y-72265714D02*
X82300702Y-72122856D01*
X82300702Y-72122856D02*
X82300702Y-71837142D01*
X82300702Y-71837142D02*
X82229274Y-71694285D01*
X82229274Y-71694285D02*
X82157845Y-71622856D01*
X82157845Y-71622856D02*
X82014988Y-71551428D01*
X82014988Y-71551428D02*
X81586416Y-71551428D01*
X81586416Y-71551428D02*
X81443559Y-71622856D01*
X81443559Y-71622856D02*
X81372131Y-71694285D01*
X81372131Y-71694285D02*
X81300702Y-71837142D01*
X81300702Y-71837142D02*
X81300702Y-72122856D01*
X81300702Y-72122856D02*
X81372131Y-72265714D01*
X82300702Y-73551428D02*
X81514988Y-73551428D01*
X81514988Y-73551428D02*
X81372131Y-73479999D01*
X81372131Y-73479999D02*
X81300702Y-73337142D01*
X81300702Y-73337142D02*
X81300702Y-73051428D01*
X81300702Y-73051428D02*
X81372131Y-72908570D01*
X82229274Y-73551428D02*
X82300702Y-73408570D01*
X82300702Y-73408570D02*
X82300702Y-73051428D01*
X82300702Y-73051428D02*
X82229274Y-72908570D01*
X82229274Y-72908570D02*
X82086416Y-72837142D01*
X82086416Y-72837142D02*
X81943559Y-72837142D01*
X81943559Y-72837142D02*
X81800702Y-72908570D01*
X81800702Y-72908570D02*
X81729274Y-73051428D01*
X81729274Y-73051428D02*
X81729274Y-73408570D01*
X81729274Y-73408570D02*
X81657845Y-73551428D01*
X19055954Y-16980000D02*
X19055954Y-16265714D01*
X19055954Y-16265714D02*
X17555954Y-16265714D01*
X19055954Y-17694286D02*
X18984526Y-17551429D01*
X18984526Y-17551429D02*
X18841668Y-17480000D01*
X18841668Y-17480000D02*
X17555954Y-17480000D01*
X19055954Y-18908572D02*
X18270240Y-18908572D01*
X18270240Y-18908572D02*
X18127383Y-18837143D01*
X18127383Y-18837143D02*
X18055954Y-18694286D01*
X18055954Y-18694286D02*
X18055954Y-18408572D01*
X18055954Y-18408572D02*
X18127383Y-18265714D01*
X18984526Y-18908572D02*
X19055954Y-18765714D01*
X19055954Y-18765714D02*
X19055954Y-18408572D01*
X19055954Y-18408572D02*
X18984526Y-18265714D01*
X18984526Y-18265714D02*
X18841668Y-18194286D01*
X18841668Y-18194286D02*
X18698811Y-18194286D01*
X18698811Y-18194286D02*
X18555954Y-18265714D01*
X18555954Y-18265714D02*
X18484526Y-18408572D01*
X18484526Y-18408572D02*
X18484526Y-18765714D01*
X18484526Y-18765714D02*
X18413097Y-18908572D01*
X19055954Y-19622857D02*
X18055954Y-19622857D01*
X18198811Y-19622857D02*
X18127383Y-19694286D01*
X18127383Y-19694286D02*
X18055954Y-19837143D01*
X18055954Y-19837143D02*
X18055954Y-20051429D01*
X18055954Y-20051429D02*
X18127383Y-20194286D01*
X18127383Y-20194286D02*
X18270240Y-20265715D01*
X18270240Y-20265715D02*
X19055954Y-20265715D01*
X18270240Y-20265715D02*
X18127383Y-20337143D01*
X18127383Y-20337143D02*
X18055954Y-20480000D01*
X18055954Y-20480000D02*
X18055954Y-20694286D01*
X18055954Y-20694286D02*
X18127383Y-20837143D01*
X18127383Y-20837143D02*
X18270240Y-20908572D01*
X18270240Y-20908572D02*
X19055954Y-20908572D01*
X19055954Y-22265715D02*
X18270240Y-22265715D01*
X18270240Y-22265715D02*
X18127383Y-22194286D01*
X18127383Y-22194286D02*
X18055954Y-22051429D01*
X18055954Y-22051429D02*
X18055954Y-21765715D01*
X18055954Y-21765715D02*
X18127383Y-21622857D01*
X18984526Y-22265715D02*
X19055954Y-22122857D01*
X19055954Y-22122857D02*
X19055954Y-21765715D01*
X19055954Y-21765715D02*
X18984526Y-21622857D01*
X18984526Y-21622857D02*
X18841668Y-21551429D01*
X18841668Y-21551429D02*
X18698811Y-21551429D01*
X18698811Y-21551429D02*
X18555954Y-21622857D01*
X18555954Y-21622857D02*
X18484526Y-21765715D01*
X18484526Y-21765715D02*
X18484526Y-22122857D01*
X18484526Y-22122857D02*
X18413097Y-22265715D01*
X17555954Y-25551429D02*
X17555954Y-25837143D01*
X17555954Y-25837143D02*
X17627383Y-25980000D01*
X17627383Y-25980000D02*
X17770240Y-26122857D01*
X17770240Y-26122857D02*
X18055954Y-26194286D01*
X18055954Y-26194286D02*
X18555954Y-26194286D01*
X18555954Y-26194286D02*
X18841668Y-26122857D01*
X18841668Y-26122857D02*
X18984526Y-25980000D01*
X18984526Y-25980000D02*
X19055954Y-25837143D01*
X19055954Y-25837143D02*
X19055954Y-25551429D01*
X19055954Y-25551429D02*
X18984526Y-25408572D01*
X18984526Y-25408572D02*
X18841668Y-25265714D01*
X18841668Y-25265714D02*
X18555954Y-25194286D01*
X18555954Y-25194286D02*
X18055954Y-25194286D01*
X18055954Y-25194286D02*
X17770240Y-25265714D01*
X17770240Y-25265714D02*
X17627383Y-25408572D01*
X17627383Y-25408572D02*
X17555954Y-25551429D01*
X19055954Y-26837143D02*
X17555954Y-26837143D01*
X17555954Y-26837143D02*
X17555954Y-27408572D01*
X17555954Y-27408572D02*
X17627383Y-27551429D01*
X17627383Y-27551429D02*
X17698811Y-27622858D01*
X17698811Y-27622858D02*
X17841668Y-27694286D01*
X17841668Y-27694286D02*
X18055954Y-27694286D01*
X18055954Y-27694286D02*
X18198811Y-27622858D01*
X18198811Y-27622858D02*
X18270240Y-27551429D01*
X18270240Y-27551429D02*
X18341668Y-27408572D01*
X18341668Y-27408572D02*
X18341668Y-26837143D01*
X19055954Y-29051429D02*
X19055954Y-28337143D01*
X19055954Y-28337143D02*
X17555954Y-28337143D01*
X17555954Y-29408572D02*
X17555954Y-30337144D01*
X17555954Y-30337144D02*
X18127383Y-29837144D01*
X18127383Y-29837144D02*
X18127383Y-30051429D01*
X18127383Y-30051429D02*
X18198811Y-30194287D01*
X18198811Y-30194287D02*
X18270240Y-30265715D01*
X18270240Y-30265715D02*
X18413097Y-30337144D01*
X18413097Y-30337144D02*
X18770240Y-30337144D01*
X18770240Y-30337144D02*
X18913097Y-30265715D01*
X18913097Y-30265715D02*
X18984526Y-30194287D01*
X18984526Y-30194287D02*
X19055954Y-30051429D01*
X19055954Y-30051429D02*
X19055954Y-29622858D01*
X19055954Y-29622858D02*
X18984526Y-29480001D01*
X18984526Y-29480001D02*
X18913097Y-29408572D01*
X19055954Y-33265714D02*
X18055954Y-33265714D01*
X18198811Y-33265714D02*
X18127383Y-33337143D01*
X18127383Y-33337143D02*
X18055954Y-33480000D01*
X18055954Y-33480000D02*
X18055954Y-33694286D01*
X18055954Y-33694286D02*
X18127383Y-33837143D01*
X18127383Y-33837143D02*
X18270240Y-33908572D01*
X18270240Y-33908572D02*
X19055954Y-33908572D01*
X18270240Y-33908572D02*
X18127383Y-33980000D01*
X18127383Y-33980000D02*
X18055954Y-34122857D01*
X18055954Y-34122857D02*
X18055954Y-34337143D01*
X18055954Y-34337143D02*
X18127383Y-34480000D01*
X18127383Y-34480000D02*
X18270240Y-34551429D01*
X18270240Y-34551429D02*
X19055954Y-34551429D01*
X19055954Y-35480000D02*
X18984526Y-35337143D01*
X18984526Y-35337143D02*
X18913097Y-35265714D01*
X18913097Y-35265714D02*
X18770240Y-35194286D01*
X18770240Y-35194286D02*
X18341668Y-35194286D01*
X18341668Y-35194286D02*
X18198811Y-35265714D01*
X18198811Y-35265714D02*
X18127383Y-35337143D01*
X18127383Y-35337143D02*
X18055954Y-35480000D01*
X18055954Y-35480000D02*
X18055954Y-35694286D01*
X18055954Y-35694286D02*
X18127383Y-35837143D01*
X18127383Y-35837143D02*
X18198811Y-35908572D01*
X18198811Y-35908572D02*
X18341668Y-35980000D01*
X18341668Y-35980000D02*
X18770240Y-35980000D01*
X18770240Y-35980000D02*
X18913097Y-35908572D01*
X18913097Y-35908572D02*
X18984526Y-35837143D01*
X18984526Y-35837143D02*
X19055954Y-35694286D01*
X19055954Y-35694286D02*
X19055954Y-35480000D01*
X19055954Y-37265715D02*
X17555954Y-37265715D01*
X18984526Y-37265715D02*
X19055954Y-37122857D01*
X19055954Y-37122857D02*
X19055954Y-36837143D01*
X19055954Y-36837143D02*
X18984526Y-36694286D01*
X18984526Y-36694286D02*
X18913097Y-36622857D01*
X18913097Y-36622857D02*
X18770240Y-36551429D01*
X18770240Y-36551429D02*
X18341668Y-36551429D01*
X18341668Y-36551429D02*
X18198811Y-36622857D01*
X18198811Y-36622857D02*
X18127383Y-36694286D01*
X18127383Y-36694286D02*
X18055954Y-36837143D01*
X18055954Y-36837143D02*
X18055954Y-37122857D01*
X18055954Y-37122857D02*
X18127383Y-37265715D01*
X18055954Y-38622858D02*
X19055954Y-38622858D01*
X18055954Y-37980000D02*
X18841668Y-37980000D01*
X18841668Y-37980000D02*
X18984526Y-38051429D01*
X18984526Y-38051429D02*
X19055954Y-38194286D01*
X19055954Y-38194286D02*
X19055954Y-38408572D01*
X19055954Y-38408572D02*
X18984526Y-38551429D01*
X18984526Y-38551429D02*
X18913097Y-38622858D01*
X19055954Y-39551429D02*
X18984526Y-39408572D01*
X18984526Y-39408572D02*
X18841668Y-39337143D01*
X18841668Y-39337143D02*
X17555954Y-39337143D01*
X18984526Y-40694286D02*
X19055954Y-40551429D01*
X19055954Y-40551429D02*
X19055954Y-40265715D01*
X19055954Y-40265715D02*
X18984526Y-40122857D01*
X18984526Y-40122857D02*
X18841668Y-40051429D01*
X18841668Y-40051429D02*
X18270240Y-40051429D01*
X18270240Y-40051429D02*
X18127383Y-40122857D01*
X18127383Y-40122857D02*
X18055954Y-40265715D01*
X18055954Y-40265715D02*
X18055954Y-40551429D01*
X18055954Y-40551429D02*
X18127383Y-40694286D01*
X18127383Y-40694286D02*
X18270240Y-40765715D01*
X18270240Y-40765715D02*
X18413097Y-40765715D01*
X18413097Y-40765715D02*
X18555954Y-40051429D01*
X21470870Y-17408572D02*
X20756584Y-16908572D01*
X21470870Y-16551429D02*
X19970870Y-16551429D01*
X19970870Y-16551429D02*
X19970870Y-17122858D01*
X19970870Y-17122858D02*
X20042299Y-17265715D01*
X20042299Y-17265715D02*
X20113727Y-17337144D01*
X20113727Y-17337144D02*
X20256584Y-17408572D01*
X20256584Y-17408572D02*
X20470870Y-17408572D01*
X20470870Y-17408572D02*
X20613727Y-17337144D01*
X20613727Y-17337144D02*
X20685156Y-17265715D01*
X20685156Y-17265715D02*
X20756584Y-17122858D01*
X20756584Y-17122858D02*
X20756584Y-16551429D01*
X21399442Y-18622858D02*
X21470870Y-18480001D01*
X21470870Y-18480001D02*
X21470870Y-18194287D01*
X21470870Y-18194287D02*
X21399442Y-18051429D01*
X21399442Y-18051429D02*
X21256584Y-17980001D01*
X21256584Y-17980001D02*
X20685156Y-17980001D01*
X20685156Y-17980001D02*
X20542299Y-18051429D01*
X20542299Y-18051429D02*
X20470870Y-18194287D01*
X20470870Y-18194287D02*
X20470870Y-18480001D01*
X20470870Y-18480001D02*
X20542299Y-18622858D01*
X20542299Y-18622858D02*
X20685156Y-18694287D01*
X20685156Y-18694287D02*
X20828013Y-18694287D01*
X20828013Y-18694287D02*
X20970870Y-17980001D01*
X20470870Y-19194286D02*
X21470870Y-19551429D01*
X21470870Y-19551429D02*
X20470870Y-19908572D01*
X21470870Y-20480000D02*
X20470870Y-20480000D01*
X19970870Y-20480000D02*
X20042299Y-20408572D01*
X20042299Y-20408572D02*
X20113727Y-20480000D01*
X20113727Y-20480000D02*
X20042299Y-20551429D01*
X20042299Y-20551429D02*
X19970870Y-20480000D01*
X19970870Y-20480000D02*
X20113727Y-20480000D01*
X21399442Y-21122858D02*
X21470870Y-21265715D01*
X21470870Y-21265715D02*
X21470870Y-21551429D01*
X21470870Y-21551429D02*
X21399442Y-21694286D01*
X21399442Y-21694286D02*
X21256584Y-21765715D01*
X21256584Y-21765715D02*
X21185156Y-21765715D01*
X21185156Y-21765715D02*
X21042299Y-21694286D01*
X21042299Y-21694286D02*
X20970870Y-21551429D01*
X20970870Y-21551429D02*
X20970870Y-21337144D01*
X20970870Y-21337144D02*
X20899442Y-21194286D01*
X20899442Y-21194286D02*
X20756584Y-21122858D01*
X20756584Y-21122858D02*
X20685156Y-21122858D01*
X20685156Y-21122858D02*
X20542299Y-21194286D01*
X20542299Y-21194286D02*
X20470870Y-21337144D01*
X20470870Y-21337144D02*
X20470870Y-21551429D01*
X20470870Y-21551429D02*
X20542299Y-21694286D01*
X21470870Y-22408572D02*
X20470870Y-22408572D01*
X19970870Y-22408572D02*
X20042299Y-22337144D01*
X20042299Y-22337144D02*
X20113727Y-22408572D01*
X20113727Y-22408572D02*
X20042299Y-22480001D01*
X20042299Y-22480001D02*
X19970870Y-22408572D01*
X19970870Y-22408572D02*
X20113727Y-22408572D01*
X21470870Y-23337144D02*
X21399442Y-23194287D01*
X21399442Y-23194287D02*
X21328013Y-23122858D01*
X21328013Y-23122858D02*
X21185156Y-23051430D01*
X21185156Y-23051430D02*
X20756584Y-23051430D01*
X20756584Y-23051430D02*
X20613727Y-23122858D01*
X20613727Y-23122858D02*
X20542299Y-23194287D01*
X20542299Y-23194287D02*
X20470870Y-23337144D01*
X20470870Y-23337144D02*
X20470870Y-23551430D01*
X20470870Y-23551430D02*
X20542299Y-23694287D01*
X20542299Y-23694287D02*
X20613727Y-23765716D01*
X20613727Y-23765716D02*
X20756584Y-23837144D01*
X20756584Y-23837144D02*
X21185156Y-23837144D01*
X21185156Y-23837144D02*
X21328013Y-23765716D01*
X21328013Y-23765716D02*
X21399442Y-23694287D01*
X21399442Y-23694287D02*
X21470870Y-23551430D01*
X21470870Y-23551430D02*
X21470870Y-23337144D01*
X20470870Y-24480001D02*
X21470870Y-24480001D01*
X20613727Y-24480001D02*
X20542299Y-24551430D01*
X20542299Y-24551430D02*
X20470870Y-24694287D01*
X20470870Y-24694287D02*
X20470870Y-24908573D01*
X20470870Y-24908573D02*
X20542299Y-25051430D01*
X20542299Y-25051430D02*
X20685156Y-25122859D01*
X20685156Y-25122859D02*
X21470870Y-25122859D01*
X21470870Y-27765716D02*
X21470870Y-26908573D01*
X21470870Y-27337144D02*
X19970870Y-27337144D01*
X19970870Y-27337144D02*
X20185156Y-27194287D01*
X20185156Y-27194287D02*
X20328013Y-27051430D01*
X20328013Y-27051430D02*
X20399442Y-26908573D01*
X21328013Y-28408572D02*
X21399442Y-28480001D01*
X21399442Y-28480001D02*
X21470870Y-28408572D01*
X21470870Y-28408572D02*
X21399442Y-28337144D01*
X21399442Y-28337144D02*
X21328013Y-28408572D01*
X21328013Y-28408572D02*
X21470870Y-28408572D01*
X19970870Y-29408573D02*
X19970870Y-29551430D01*
X19970870Y-29551430D02*
X20042299Y-29694287D01*
X20042299Y-29694287D02*
X20113727Y-29765716D01*
X20113727Y-29765716D02*
X20256584Y-29837144D01*
X20256584Y-29837144D02*
X20542299Y-29908573D01*
X20542299Y-29908573D02*
X20899442Y-29908573D01*
X20899442Y-29908573D02*
X21185156Y-29837144D01*
X21185156Y-29837144D02*
X21328013Y-29765716D01*
X21328013Y-29765716D02*
X21399442Y-29694287D01*
X21399442Y-29694287D02*
X21470870Y-29551430D01*
X21470870Y-29551430D02*
X21470870Y-29408573D01*
X21470870Y-29408573D02*
X21399442Y-29265716D01*
X21399442Y-29265716D02*
X21328013Y-29194287D01*
X21328013Y-29194287D02*
X21185156Y-29122858D01*
X21185156Y-29122858D02*
X20899442Y-29051430D01*
X20899442Y-29051430D02*
X20542299Y-29051430D01*
X20542299Y-29051430D02*
X20256584Y-29122858D01*
X20256584Y-29122858D02*
X20113727Y-29194287D01*
X20113727Y-29194287D02*
X20042299Y-29265716D01*
X20042299Y-29265716D02*
X19970870Y-29408573D01*
X20328013Y-32908572D02*
X20256584Y-32765715D01*
X20256584Y-32765715D02*
X20256584Y-32480001D01*
X20256584Y-32480001D02*
X20328013Y-32337144D01*
X20328013Y-32337144D02*
X20470870Y-32194286D01*
X20470870Y-32194286D02*
X20613727Y-32122858D01*
X20613727Y-32122858D02*
X20899442Y-32122858D01*
X20899442Y-32122858D02*
X21042299Y-32194286D01*
X21042299Y-32194286D02*
X21185156Y-32337144D01*
X21185156Y-32337144D02*
X21256584Y-32480001D01*
X21256584Y-32480001D02*
X21256584Y-32765715D01*
X21256584Y-32765715D02*
X21185156Y-32908572D01*
X19756584Y-32622858D02*
X19828013Y-32265715D01*
X19828013Y-32265715D02*
X20042299Y-31908572D01*
X20042299Y-31908572D02*
X20399442Y-31694286D01*
X20399442Y-31694286D02*
X20756584Y-31622858D01*
X20756584Y-31622858D02*
X21113727Y-31694286D01*
X21113727Y-31694286D02*
X21470870Y-31908572D01*
X21470870Y-31908572D02*
X21685156Y-32265715D01*
X21685156Y-32265715D02*
X21756584Y-32622858D01*
X21756584Y-32622858D02*
X21685156Y-32980001D01*
X21685156Y-32980001D02*
X21470870Y-33337144D01*
X21470870Y-33337144D02*
X21113727Y-33551429D01*
X21113727Y-33551429D02*
X20756584Y-33622858D01*
X20756584Y-33622858D02*
X20399442Y-33551429D01*
X20399442Y-33551429D02*
X20042299Y-33337144D01*
X20042299Y-33337144D02*
X19828013Y-32980001D01*
X19828013Y-32980001D02*
X19756584Y-32622858D01*
X20113727Y-35337144D02*
X20042299Y-35408572D01*
X20042299Y-35408572D02*
X19970870Y-35551430D01*
X19970870Y-35551430D02*
X19970870Y-35908572D01*
X19970870Y-35908572D02*
X20042299Y-36051430D01*
X20042299Y-36051430D02*
X20113727Y-36122858D01*
X20113727Y-36122858D02*
X20256584Y-36194287D01*
X20256584Y-36194287D02*
X20399442Y-36194287D01*
X20399442Y-36194287D02*
X20613727Y-36122858D01*
X20613727Y-36122858D02*
X21470870Y-35265715D01*
X21470870Y-35265715D02*
X21470870Y-36194287D01*
X19970870Y-37122858D02*
X19970870Y-37265715D01*
X19970870Y-37265715D02*
X20042299Y-37408572D01*
X20042299Y-37408572D02*
X20113727Y-37480001D01*
X20113727Y-37480001D02*
X20256584Y-37551429D01*
X20256584Y-37551429D02*
X20542299Y-37622858D01*
X20542299Y-37622858D02*
X20899442Y-37622858D01*
X20899442Y-37622858D02*
X21185156Y-37551429D01*
X21185156Y-37551429D02*
X21328013Y-37480001D01*
X21328013Y-37480001D02*
X21399442Y-37408572D01*
X21399442Y-37408572D02*
X21470870Y-37265715D01*
X21470870Y-37265715D02*
X21470870Y-37122858D01*
X21470870Y-37122858D02*
X21399442Y-36980001D01*
X21399442Y-36980001D02*
X21328013Y-36908572D01*
X21328013Y-36908572D02*
X21185156Y-36837143D01*
X21185156Y-36837143D02*
X20899442Y-36765715D01*
X20899442Y-36765715D02*
X20542299Y-36765715D01*
X20542299Y-36765715D02*
X20256584Y-36837143D01*
X20256584Y-36837143D02*
X20113727Y-36908572D01*
X20113727Y-36908572D02*
X20042299Y-36980001D01*
X20042299Y-36980001D02*
X19970870Y-37122858D01*
X20113727Y-38194286D02*
X20042299Y-38265714D01*
X20042299Y-38265714D02*
X19970870Y-38408572D01*
X19970870Y-38408572D02*
X19970870Y-38765714D01*
X19970870Y-38765714D02*
X20042299Y-38908572D01*
X20042299Y-38908572D02*
X20113727Y-38980000D01*
X20113727Y-38980000D02*
X20256584Y-39051429D01*
X20256584Y-39051429D02*
X20399442Y-39051429D01*
X20399442Y-39051429D02*
X20613727Y-38980000D01*
X20613727Y-38980000D02*
X21470870Y-38122857D01*
X21470870Y-38122857D02*
X21470870Y-39051429D01*
X19970870Y-40408571D02*
X19970870Y-39694285D01*
X19970870Y-39694285D02*
X20685156Y-39622857D01*
X20685156Y-39622857D02*
X20613727Y-39694285D01*
X20613727Y-39694285D02*
X20542299Y-39837143D01*
X20542299Y-39837143D02*
X20542299Y-40194285D01*
X20542299Y-40194285D02*
X20613727Y-40337143D01*
X20613727Y-40337143D02*
X20685156Y-40408571D01*
X20685156Y-40408571D02*
X20828013Y-40480000D01*
X20828013Y-40480000D02*
X21185156Y-40480000D01*
X21185156Y-40480000D02*
X21328013Y-40408571D01*
X21328013Y-40408571D02*
X21399442Y-40337143D01*
X21399442Y-40337143D02*
X21470870Y-40194285D01*
X21470870Y-40194285D02*
X21470870Y-39837143D01*
X21470870Y-39837143D02*
X21399442Y-39694285D01*
X21399442Y-39694285D02*
X21328013Y-39622857D01*
X23100072Y-21337142D02*
X23100072Y-21837142D01*
X23885786Y-22051428D02*
X23885786Y-21337142D01*
X23885786Y-21337142D02*
X22385786Y-21337142D01*
X22385786Y-21337142D02*
X22385786Y-22051428D01*
X23885786Y-22694285D02*
X22885786Y-22694285D01*
X22385786Y-22694285D02*
X22457215Y-22622857D01*
X22457215Y-22622857D02*
X22528643Y-22694285D01*
X22528643Y-22694285D02*
X22457215Y-22765714D01*
X22457215Y-22765714D02*
X22385786Y-22694285D01*
X22385786Y-22694285D02*
X22528643Y-22694285D01*
X22885786Y-23265714D02*
X23885786Y-23622857D01*
X23885786Y-23622857D02*
X22885786Y-23980000D01*
X23885786Y-24551428D02*
X22885786Y-24551428D01*
X22385786Y-24551428D02*
X22457215Y-24480000D01*
X22457215Y-24480000D02*
X22528643Y-24551428D01*
X22528643Y-24551428D02*
X22457215Y-24622857D01*
X22457215Y-24622857D02*
X22385786Y-24551428D01*
X22385786Y-24551428D02*
X22528643Y-24551428D01*
X22885786Y-25265714D02*
X23885786Y-25265714D01*
X23028643Y-25265714D02*
X22957215Y-25337143D01*
X22957215Y-25337143D02*
X22885786Y-25480000D01*
X22885786Y-25480000D02*
X22885786Y-25694286D01*
X22885786Y-25694286D02*
X22957215Y-25837143D01*
X22957215Y-25837143D02*
X23100072Y-25908572D01*
X23100072Y-25908572D02*
X23885786Y-25908572D01*
X23885786Y-27265715D02*
X22385786Y-27265715D01*
X23814358Y-27265715D02*
X23885786Y-27122857D01*
X23885786Y-27122857D02*
X23885786Y-26837143D01*
X23885786Y-26837143D02*
X23814358Y-26694286D01*
X23814358Y-26694286D02*
X23742929Y-26622857D01*
X23742929Y-26622857D02*
X23600072Y-26551429D01*
X23600072Y-26551429D02*
X23171500Y-26551429D01*
X23171500Y-26551429D02*
X23028643Y-26622857D01*
X23028643Y-26622857D02*
X22957215Y-26694286D01*
X22957215Y-26694286D02*
X22885786Y-26837143D01*
X22885786Y-26837143D02*
X22885786Y-27122857D01*
X22885786Y-27122857D02*
X22957215Y-27265715D01*
X23100072Y-29622857D02*
X23171500Y-29837143D01*
X23171500Y-29837143D02*
X23242929Y-29908572D01*
X23242929Y-29908572D02*
X23385786Y-29980000D01*
X23385786Y-29980000D02*
X23600072Y-29980000D01*
X23600072Y-29980000D02*
X23742929Y-29908572D01*
X23742929Y-29908572D02*
X23814358Y-29837143D01*
X23814358Y-29837143D02*
X23885786Y-29694286D01*
X23885786Y-29694286D02*
X23885786Y-29122857D01*
X23885786Y-29122857D02*
X22385786Y-29122857D01*
X22385786Y-29122857D02*
X22385786Y-29622857D01*
X22385786Y-29622857D02*
X22457215Y-29765715D01*
X22457215Y-29765715D02*
X22528643Y-29837143D01*
X22528643Y-29837143D02*
X22671500Y-29908572D01*
X22671500Y-29908572D02*
X22814358Y-29908572D01*
X22814358Y-29908572D02*
X22957215Y-29837143D01*
X22957215Y-29837143D02*
X23028643Y-29765715D01*
X23028643Y-29765715D02*
X23100072Y-29622857D01*
X23100072Y-29622857D02*
X23100072Y-29122857D01*
X22885786Y-31408572D02*
X23885786Y-30480000D01*
X23885786Y-30837143D02*
X23814358Y-30694286D01*
X23814358Y-30694286D02*
X23742929Y-30622857D01*
X23742929Y-30622857D02*
X23600072Y-30551429D01*
X23600072Y-30551429D02*
X23171500Y-30551429D01*
X23171500Y-30551429D02*
X23028643Y-30622857D01*
X23028643Y-30622857D02*
X22957215Y-30694286D01*
X22957215Y-30694286D02*
X22885786Y-30837143D01*
X22885786Y-30837143D02*
X22885786Y-31051429D01*
X22885786Y-31051429D02*
X22957215Y-31194286D01*
X22957215Y-31194286D02*
X23028643Y-31265715D01*
X23028643Y-31265715D02*
X23171500Y-31337143D01*
X23171500Y-31337143D02*
X23600072Y-31337143D01*
X23600072Y-31337143D02*
X23742929Y-31265715D01*
X23742929Y-31265715D02*
X23814358Y-31194286D01*
X23814358Y-31194286D02*
X23885786Y-31051429D01*
X23885786Y-31051429D02*
X23885786Y-30837143D01*
X23885786Y-31980000D02*
X22385786Y-31980000D01*
X23885786Y-32622858D02*
X23100072Y-32622858D01*
X23100072Y-32622858D02*
X22957215Y-32551429D01*
X22957215Y-32551429D02*
X22885786Y-32408572D01*
X22885786Y-32408572D02*
X22885786Y-32194286D01*
X22885786Y-32194286D02*
X22957215Y-32051429D01*
X22957215Y-32051429D02*
X23028643Y-31980000D01*
X23885786Y-33551429D02*
X23814358Y-33408572D01*
X23814358Y-33408572D02*
X23671500Y-33337143D01*
X23671500Y-33337143D02*
X22385786Y-33337143D01*
X23814358Y-34694286D02*
X23885786Y-34551429D01*
X23885786Y-34551429D02*
X23885786Y-34265715D01*
X23885786Y-34265715D02*
X23814358Y-34122857D01*
X23814358Y-34122857D02*
X23671500Y-34051429D01*
X23671500Y-34051429D02*
X23100072Y-34051429D01*
X23100072Y-34051429D02*
X22957215Y-34122857D01*
X22957215Y-34122857D02*
X22885786Y-34265715D01*
X22885786Y-34265715D02*
X22885786Y-34551429D01*
X22885786Y-34551429D02*
X22957215Y-34694286D01*
X22957215Y-34694286D02*
X23100072Y-34765715D01*
X23100072Y-34765715D02*
X23242929Y-34765715D01*
X23242929Y-34765715D02*
X23385786Y-34051429D01*
X23885786Y-35408571D02*
X22885786Y-35408571D01*
X23171500Y-35408571D02*
X23028643Y-35480000D01*
X23028643Y-35480000D02*
X22957215Y-35551429D01*
X22957215Y-35551429D02*
X22885786Y-35694286D01*
X22885786Y-35694286D02*
X22885786Y-35837143D01*
X26300702Y-20408571D02*
X25300702Y-20408571D01*
X25586416Y-20408571D02*
X25443559Y-20480000D01*
X25443559Y-20480000D02*
X25372131Y-20551429D01*
X25372131Y-20551429D02*
X25300702Y-20694286D01*
X25300702Y-20694286D02*
X25300702Y-20837143D01*
X26229274Y-21908571D02*
X26300702Y-21765714D01*
X26300702Y-21765714D02*
X26300702Y-21480000D01*
X26300702Y-21480000D02*
X26229274Y-21337142D01*
X26229274Y-21337142D02*
X26086416Y-21265714D01*
X26086416Y-21265714D02*
X25514988Y-21265714D01*
X25514988Y-21265714D02*
X25372131Y-21337142D01*
X25372131Y-21337142D02*
X25300702Y-21480000D01*
X25300702Y-21480000D02*
X25300702Y-21765714D01*
X25300702Y-21765714D02*
X25372131Y-21908571D01*
X25372131Y-21908571D02*
X25514988Y-21980000D01*
X25514988Y-21980000D02*
X25657845Y-21980000D01*
X25657845Y-21980000D02*
X25800702Y-21265714D01*
X25300702Y-22408571D02*
X25300702Y-22979999D01*
X24800702Y-22622856D02*
X26086416Y-22622856D01*
X26086416Y-22622856D02*
X26229274Y-22694285D01*
X26229274Y-22694285D02*
X26300702Y-22837142D01*
X26300702Y-22837142D02*
X26300702Y-22979999D01*
X26300702Y-23479999D02*
X25300702Y-23479999D01*
X25586416Y-23479999D02*
X25443559Y-23551428D01*
X25443559Y-23551428D02*
X25372131Y-23622857D01*
X25372131Y-23622857D02*
X25300702Y-23765714D01*
X25300702Y-23765714D02*
X25300702Y-23908571D01*
X26300702Y-24622856D02*
X26229274Y-24479999D01*
X26229274Y-24479999D02*
X26157845Y-24408570D01*
X26157845Y-24408570D02*
X26014988Y-24337142D01*
X26014988Y-24337142D02*
X25586416Y-24337142D01*
X25586416Y-24337142D02*
X25443559Y-24408570D01*
X25443559Y-24408570D02*
X25372131Y-24479999D01*
X25372131Y-24479999D02*
X25300702Y-24622856D01*
X25300702Y-24622856D02*
X25300702Y-24837142D01*
X25300702Y-24837142D02*
X25372131Y-24979999D01*
X25372131Y-24979999D02*
X25443559Y-25051428D01*
X25443559Y-25051428D02*
X25586416Y-25122856D01*
X25586416Y-25122856D02*
X26014988Y-25122856D01*
X26014988Y-25122856D02*
X26157845Y-25051428D01*
X26157845Y-25051428D02*
X26229274Y-24979999D01*
X26229274Y-24979999D02*
X26300702Y-24837142D01*
X26300702Y-24837142D02*
X26300702Y-24622856D01*
X26300702Y-26408571D02*
X24800702Y-26408571D01*
X26229274Y-26408571D02*
X26300702Y-26265713D01*
X26300702Y-26265713D02*
X26300702Y-25979999D01*
X26300702Y-25979999D02*
X26229274Y-25837142D01*
X26229274Y-25837142D02*
X26157845Y-25765713D01*
X26157845Y-25765713D02*
X26014988Y-25694285D01*
X26014988Y-25694285D02*
X25586416Y-25694285D01*
X25586416Y-25694285D02*
X25443559Y-25765713D01*
X25443559Y-25765713D02*
X25372131Y-25837142D01*
X25372131Y-25837142D02*
X25300702Y-25979999D01*
X25300702Y-25979999D02*
X25300702Y-26265713D01*
X25300702Y-26265713D02*
X25372131Y-26408571D01*
X26300702Y-27122856D02*
X25300702Y-27122856D01*
X25586416Y-27122856D02*
X25443559Y-27194285D01*
X25443559Y-27194285D02*
X25372131Y-27265714D01*
X25372131Y-27265714D02*
X25300702Y-27408571D01*
X25300702Y-27408571D02*
X25300702Y-27551428D01*
X26229274Y-28622856D02*
X26300702Y-28479999D01*
X26300702Y-28479999D02*
X26300702Y-28194285D01*
X26300702Y-28194285D02*
X26229274Y-28051427D01*
X26229274Y-28051427D02*
X26086416Y-27979999D01*
X26086416Y-27979999D02*
X25514988Y-27979999D01*
X25514988Y-27979999D02*
X25372131Y-28051427D01*
X25372131Y-28051427D02*
X25300702Y-28194285D01*
X25300702Y-28194285D02*
X25300702Y-28479999D01*
X25300702Y-28479999D02*
X25372131Y-28622856D01*
X25372131Y-28622856D02*
X25514988Y-28694285D01*
X25514988Y-28694285D02*
X25657845Y-28694285D01*
X25657845Y-28694285D02*
X25800702Y-27979999D01*
X26300702Y-29979999D02*
X25514988Y-29979999D01*
X25514988Y-29979999D02*
X25372131Y-29908570D01*
X25372131Y-29908570D02*
X25300702Y-29765713D01*
X25300702Y-29765713D02*
X25300702Y-29479999D01*
X25300702Y-29479999D02*
X25372131Y-29337141D01*
X26229274Y-29979999D02*
X26300702Y-29837141D01*
X26300702Y-29837141D02*
X26300702Y-29479999D01*
X26300702Y-29479999D02*
X26229274Y-29337141D01*
X26229274Y-29337141D02*
X26086416Y-29265713D01*
X26086416Y-29265713D02*
X25943559Y-29265713D01*
X25943559Y-29265713D02*
X25800702Y-29337141D01*
X25800702Y-29337141D02*
X25729274Y-29479999D01*
X25729274Y-29479999D02*
X25729274Y-29837141D01*
X25729274Y-29837141D02*
X25657845Y-29979999D01*
X26300702Y-30694284D02*
X25300702Y-30694284D01*
X25443559Y-30694284D02*
X25372131Y-30765713D01*
X25372131Y-30765713D02*
X25300702Y-30908570D01*
X25300702Y-30908570D02*
X25300702Y-31122856D01*
X25300702Y-31122856D02*
X25372131Y-31265713D01*
X25372131Y-31265713D02*
X25514988Y-31337142D01*
X25514988Y-31337142D02*
X26300702Y-31337142D01*
X25514988Y-31337142D02*
X25372131Y-31408570D01*
X25372131Y-31408570D02*
X25300702Y-31551427D01*
X25300702Y-31551427D02*
X25300702Y-31765713D01*
X25300702Y-31765713D02*
X25372131Y-31908570D01*
X25372131Y-31908570D02*
X25514988Y-31979999D01*
X25514988Y-31979999D02*
X26300702Y-31979999D01*
X26229274Y-32622856D02*
X26300702Y-32765713D01*
X26300702Y-32765713D02*
X26300702Y-33051427D01*
X26300702Y-33051427D02*
X26229274Y-33194284D01*
X26229274Y-33194284D02*
X26086416Y-33265713D01*
X26086416Y-33265713D02*
X26014988Y-33265713D01*
X26014988Y-33265713D02*
X25872131Y-33194284D01*
X25872131Y-33194284D02*
X25800702Y-33051427D01*
X25800702Y-33051427D02*
X25800702Y-32837142D01*
X25800702Y-32837142D02*
X25729274Y-32694284D01*
X25729274Y-32694284D02*
X25586416Y-32622856D01*
X25586416Y-32622856D02*
X25514988Y-32622856D01*
X25514988Y-32622856D02*
X25372131Y-32694284D01*
X25372131Y-32694284D02*
X25300702Y-32837142D01*
X25300702Y-32837142D02*
X25300702Y-33051427D01*
X25300702Y-33051427D02*
X25372131Y-33194284D01*
X26157845Y-33908570D02*
X26229274Y-33979999D01*
X26229274Y-33979999D02*
X26300702Y-33908570D01*
X26300702Y-33908570D02*
X26229274Y-33837142D01*
X26229274Y-33837142D02*
X26157845Y-33908570D01*
X26157845Y-33908570D02*
X26300702Y-33908570D01*
X26229274Y-35265714D02*
X26300702Y-35122856D01*
X26300702Y-35122856D02*
X26300702Y-34837142D01*
X26300702Y-34837142D02*
X26229274Y-34694285D01*
X26229274Y-34694285D02*
X26157845Y-34622856D01*
X26157845Y-34622856D02*
X26014988Y-34551428D01*
X26014988Y-34551428D02*
X25586416Y-34551428D01*
X25586416Y-34551428D02*
X25443559Y-34622856D01*
X25443559Y-34622856D02*
X25372131Y-34694285D01*
X25372131Y-34694285D02*
X25300702Y-34837142D01*
X25300702Y-34837142D02*
X25300702Y-35122856D01*
X25300702Y-35122856D02*
X25372131Y-35265714D01*
X26300702Y-36551428D02*
X25514988Y-36551428D01*
X25514988Y-36551428D02*
X25372131Y-36479999D01*
X25372131Y-36479999D02*
X25300702Y-36337142D01*
X25300702Y-36337142D02*
X25300702Y-36051428D01*
X25300702Y-36051428D02*
X25372131Y-35908570D01*
X26229274Y-36551428D02*
X26300702Y-36408570D01*
X26300702Y-36408570D02*
X26300702Y-36051428D01*
X26300702Y-36051428D02*
X26229274Y-35908570D01*
X26229274Y-35908570D02*
X26086416Y-35837142D01*
X26086416Y-35837142D02*
X25943559Y-35837142D01*
X25943559Y-35837142D02*
X25800702Y-35908570D01*
X25800702Y-35908570D02*
X25729274Y-36051428D01*
X25729274Y-36051428D02*
X25729274Y-36408570D01*
X25729274Y-36408570D02*
X25657845Y-36551428D01*
X47055954Y-16980000D02*
X47055954Y-16265714D01*
X47055954Y-16265714D02*
X45555954Y-16265714D01*
X47055954Y-17694286D02*
X46984526Y-17551429D01*
X46984526Y-17551429D02*
X46841668Y-17480000D01*
X46841668Y-17480000D02*
X45555954Y-17480000D01*
X47055954Y-18908572D02*
X46270240Y-18908572D01*
X46270240Y-18908572D02*
X46127383Y-18837143D01*
X46127383Y-18837143D02*
X46055954Y-18694286D01*
X46055954Y-18694286D02*
X46055954Y-18408572D01*
X46055954Y-18408572D02*
X46127383Y-18265714D01*
X46984526Y-18908572D02*
X47055954Y-18765714D01*
X47055954Y-18765714D02*
X47055954Y-18408572D01*
X47055954Y-18408572D02*
X46984526Y-18265714D01*
X46984526Y-18265714D02*
X46841668Y-18194286D01*
X46841668Y-18194286D02*
X46698811Y-18194286D01*
X46698811Y-18194286D02*
X46555954Y-18265714D01*
X46555954Y-18265714D02*
X46484526Y-18408572D01*
X46484526Y-18408572D02*
X46484526Y-18765714D01*
X46484526Y-18765714D02*
X46413097Y-18908572D01*
X47055954Y-19622857D02*
X46055954Y-19622857D01*
X46198811Y-19622857D02*
X46127383Y-19694286D01*
X46127383Y-19694286D02*
X46055954Y-19837143D01*
X46055954Y-19837143D02*
X46055954Y-20051429D01*
X46055954Y-20051429D02*
X46127383Y-20194286D01*
X46127383Y-20194286D02*
X46270240Y-20265715D01*
X46270240Y-20265715D02*
X47055954Y-20265715D01*
X46270240Y-20265715D02*
X46127383Y-20337143D01*
X46127383Y-20337143D02*
X46055954Y-20480000D01*
X46055954Y-20480000D02*
X46055954Y-20694286D01*
X46055954Y-20694286D02*
X46127383Y-20837143D01*
X46127383Y-20837143D02*
X46270240Y-20908572D01*
X46270240Y-20908572D02*
X47055954Y-20908572D01*
X47055954Y-22265715D02*
X46270240Y-22265715D01*
X46270240Y-22265715D02*
X46127383Y-22194286D01*
X46127383Y-22194286D02*
X46055954Y-22051429D01*
X46055954Y-22051429D02*
X46055954Y-21765715D01*
X46055954Y-21765715D02*
X46127383Y-21622857D01*
X46984526Y-22265715D02*
X47055954Y-22122857D01*
X47055954Y-22122857D02*
X47055954Y-21765715D01*
X47055954Y-21765715D02*
X46984526Y-21622857D01*
X46984526Y-21622857D02*
X46841668Y-21551429D01*
X46841668Y-21551429D02*
X46698811Y-21551429D01*
X46698811Y-21551429D02*
X46555954Y-21622857D01*
X46555954Y-21622857D02*
X46484526Y-21765715D01*
X46484526Y-21765715D02*
X46484526Y-22122857D01*
X46484526Y-22122857D02*
X46413097Y-22265715D01*
X45555954Y-25551429D02*
X45555954Y-25837143D01*
X45555954Y-25837143D02*
X45627383Y-25980000D01*
X45627383Y-25980000D02*
X45770240Y-26122857D01*
X45770240Y-26122857D02*
X46055954Y-26194286D01*
X46055954Y-26194286D02*
X46555954Y-26194286D01*
X46555954Y-26194286D02*
X46841668Y-26122857D01*
X46841668Y-26122857D02*
X46984526Y-25980000D01*
X46984526Y-25980000D02*
X47055954Y-25837143D01*
X47055954Y-25837143D02*
X47055954Y-25551429D01*
X47055954Y-25551429D02*
X46984526Y-25408572D01*
X46984526Y-25408572D02*
X46841668Y-25265714D01*
X46841668Y-25265714D02*
X46555954Y-25194286D01*
X46555954Y-25194286D02*
X46055954Y-25194286D01*
X46055954Y-25194286D02*
X45770240Y-25265714D01*
X45770240Y-25265714D02*
X45627383Y-25408572D01*
X45627383Y-25408572D02*
X45555954Y-25551429D01*
X47055954Y-26837143D02*
X45555954Y-26837143D01*
X45555954Y-26837143D02*
X45555954Y-27408572D01*
X45555954Y-27408572D02*
X45627383Y-27551429D01*
X45627383Y-27551429D02*
X45698811Y-27622858D01*
X45698811Y-27622858D02*
X45841668Y-27694286D01*
X45841668Y-27694286D02*
X46055954Y-27694286D01*
X46055954Y-27694286D02*
X46198811Y-27622858D01*
X46198811Y-27622858D02*
X46270240Y-27551429D01*
X46270240Y-27551429D02*
X46341668Y-27408572D01*
X46341668Y-27408572D02*
X46341668Y-26837143D01*
X47055954Y-29051429D02*
X47055954Y-28337143D01*
X47055954Y-28337143D02*
X45555954Y-28337143D01*
X45555954Y-29408572D02*
X45555954Y-30337144D01*
X45555954Y-30337144D02*
X46127383Y-29837144D01*
X46127383Y-29837144D02*
X46127383Y-30051429D01*
X46127383Y-30051429D02*
X46198811Y-30194287D01*
X46198811Y-30194287D02*
X46270240Y-30265715D01*
X46270240Y-30265715D02*
X46413097Y-30337144D01*
X46413097Y-30337144D02*
X46770240Y-30337144D01*
X46770240Y-30337144D02*
X46913097Y-30265715D01*
X46913097Y-30265715D02*
X46984526Y-30194287D01*
X46984526Y-30194287D02*
X47055954Y-30051429D01*
X47055954Y-30051429D02*
X47055954Y-29622858D01*
X47055954Y-29622858D02*
X46984526Y-29480001D01*
X46984526Y-29480001D02*
X46913097Y-29408572D01*
X47055954Y-33265714D02*
X46055954Y-33265714D01*
X46198811Y-33265714D02*
X46127383Y-33337143D01*
X46127383Y-33337143D02*
X46055954Y-33480000D01*
X46055954Y-33480000D02*
X46055954Y-33694286D01*
X46055954Y-33694286D02*
X46127383Y-33837143D01*
X46127383Y-33837143D02*
X46270240Y-33908572D01*
X46270240Y-33908572D02*
X47055954Y-33908572D01*
X46270240Y-33908572D02*
X46127383Y-33980000D01*
X46127383Y-33980000D02*
X46055954Y-34122857D01*
X46055954Y-34122857D02*
X46055954Y-34337143D01*
X46055954Y-34337143D02*
X46127383Y-34480000D01*
X46127383Y-34480000D02*
X46270240Y-34551429D01*
X46270240Y-34551429D02*
X47055954Y-34551429D01*
X47055954Y-35480000D02*
X46984526Y-35337143D01*
X46984526Y-35337143D02*
X46913097Y-35265714D01*
X46913097Y-35265714D02*
X46770240Y-35194286D01*
X46770240Y-35194286D02*
X46341668Y-35194286D01*
X46341668Y-35194286D02*
X46198811Y-35265714D01*
X46198811Y-35265714D02*
X46127383Y-35337143D01*
X46127383Y-35337143D02*
X46055954Y-35480000D01*
X46055954Y-35480000D02*
X46055954Y-35694286D01*
X46055954Y-35694286D02*
X46127383Y-35837143D01*
X46127383Y-35837143D02*
X46198811Y-35908572D01*
X46198811Y-35908572D02*
X46341668Y-35980000D01*
X46341668Y-35980000D02*
X46770240Y-35980000D01*
X46770240Y-35980000D02*
X46913097Y-35908572D01*
X46913097Y-35908572D02*
X46984526Y-35837143D01*
X46984526Y-35837143D02*
X47055954Y-35694286D01*
X47055954Y-35694286D02*
X47055954Y-35480000D01*
X47055954Y-37265715D02*
X45555954Y-37265715D01*
X46984526Y-37265715D02*
X47055954Y-37122857D01*
X47055954Y-37122857D02*
X47055954Y-36837143D01*
X47055954Y-36837143D02*
X46984526Y-36694286D01*
X46984526Y-36694286D02*
X46913097Y-36622857D01*
X46913097Y-36622857D02*
X46770240Y-36551429D01*
X46770240Y-36551429D02*
X46341668Y-36551429D01*
X46341668Y-36551429D02*
X46198811Y-36622857D01*
X46198811Y-36622857D02*
X46127383Y-36694286D01*
X46127383Y-36694286D02*
X46055954Y-36837143D01*
X46055954Y-36837143D02*
X46055954Y-37122857D01*
X46055954Y-37122857D02*
X46127383Y-37265715D01*
X46055954Y-38622858D02*
X47055954Y-38622858D01*
X46055954Y-37980000D02*
X46841668Y-37980000D01*
X46841668Y-37980000D02*
X46984526Y-38051429D01*
X46984526Y-38051429D02*
X47055954Y-38194286D01*
X47055954Y-38194286D02*
X47055954Y-38408572D01*
X47055954Y-38408572D02*
X46984526Y-38551429D01*
X46984526Y-38551429D02*
X46913097Y-38622858D01*
X47055954Y-39551429D02*
X46984526Y-39408572D01*
X46984526Y-39408572D02*
X46841668Y-39337143D01*
X46841668Y-39337143D02*
X45555954Y-39337143D01*
X46984526Y-40694286D02*
X47055954Y-40551429D01*
X47055954Y-40551429D02*
X47055954Y-40265715D01*
X47055954Y-40265715D02*
X46984526Y-40122857D01*
X46984526Y-40122857D02*
X46841668Y-40051429D01*
X46841668Y-40051429D02*
X46270240Y-40051429D01*
X46270240Y-40051429D02*
X46127383Y-40122857D01*
X46127383Y-40122857D02*
X46055954Y-40265715D01*
X46055954Y-40265715D02*
X46055954Y-40551429D01*
X46055954Y-40551429D02*
X46127383Y-40694286D01*
X46127383Y-40694286D02*
X46270240Y-40765715D01*
X46270240Y-40765715D02*
X46413097Y-40765715D01*
X46413097Y-40765715D02*
X46555954Y-40051429D01*
X49470870Y-17408572D02*
X48756584Y-16908572D01*
X49470870Y-16551429D02*
X47970870Y-16551429D01*
X47970870Y-16551429D02*
X47970870Y-17122858D01*
X47970870Y-17122858D02*
X48042299Y-17265715D01*
X48042299Y-17265715D02*
X48113727Y-17337144D01*
X48113727Y-17337144D02*
X48256584Y-17408572D01*
X48256584Y-17408572D02*
X48470870Y-17408572D01*
X48470870Y-17408572D02*
X48613727Y-17337144D01*
X48613727Y-17337144D02*
X48685156Y-17265715D01*
X48685156Y-17265715D02*
X48756584Y-17122858D01*
X48756584Y-17122858D02*
X48756584Y-16551429D01*
X49399442Y-18622858D02*
X49470870Y-18480001D01*
X49470870Y-18480001D02*
X49470870Y-18194287D01*
X49470870Y-18194287D02*
X49399442Y-18051429D01*
X49399442Y-18051429D02*
X49256584Y-17980001D01*
X49256584Y-17980001D02*
X48685156Y-17980001D01*
X48685156Y-17980001D02*
X48542299Y-18051429D01*
X48542299Y-18051429D02*
X48470870Y-18194287D01*
X48470870Y-18194287D02*
X48470870Y-18480001D01*
X48470870Y-18480001D02*
X48542299Y-18622858D01*
X48542299Y-18622858D02*
X48685156Y-18694287D01*
X48685156Y-18694287D02*
X48828013Y-18694287D01*
X48828013Y-18694287D02*
X48970870Y-17980001D01*
X48470870Y-19194286D02*
X49470870Y-19551429D01*
X49470870Y-19551429D02*
X48470870Y-19908572D01*
X49470870Y-20480000D02*
X48470870Y-20480000D01*
X47970870Y-20480000D02*
X48042299Y-20408572D01*
X48042299Y-20408572D02*
X48113727Y-20480000D01*
X48113727Y-20480000D02*
X48042299Y-20551429D01*
X48042299Y-20551429D02*
X47970870Y-20480000D01*
X47970870Y-20480000D02*
X48113727Y-20480000D01*
X49399442Y-21122858D02*
X49470870Y-21265715D01*
X49470870Y-21265715D02*
X49470870Y-21551429D01*
X49470870Y-21551429D02*
X49399442Y-21694286D01*
X49399442Y-21694286D02*
X49256584Y-21765715D01*
X49256584Y-21765715D02*
X49185156Y-21765715D01*
X49185156Y-21765715D02*
X49042299Y-21694286D01*
X49042299Y-21694286D02*
X48970870Y-21551429D01*
X48970870Y-21551429D02*
X48970870Y-21337144D01*
X48970870Y-21337144D02*
X48899442Y-21194286D01*
X48899442Y-21194286D02*
X48756584Y-21122858D01*
X48756584Y-21122858D02*
X48685156Y-21122858D01*
X48685156Y-21122858D02*
X48542299Y-21194286D01*
X48542299Y-21194286D02*
X48470870Y-21337144D01*
X48470870Y-21337144D02*
X48470870Y-21551429D01*
X48470870Y-21551429D02*
X48542299Y-21694286D01*
X49470870Y-22408572D02*
X48470870Y-22408572D01*
X47970870Y-22408572D02*
X48042299Y-22337144D01*
X48042299Y-22337144D02*
X48113727Y-22408572D01*
X48113727Y-22408572D02*
X48042299Y-22480001D01*
X48042299Y-22480001D02*
X47970870Y-22408572D01*
X47970870Y-22408572D02*
X48113727Y-22408572D01*
X49470870Y-23337144D02*
X49399442Y-23194287D01*
X49399442Y-23194287D02*
X49328013Y-23122858D01*
X49328013Y-23122858D02*
X49185156Y-23051430D01*
X49185156Y-23051430D02*
X48756584Y-23051430D01*
X48756584Y-23051430D02*
X48613727Y-23122858D01*
X48613727Y-23122858D02*
X48542299Y-23194287D01*
X48542299Y-23194287D02*
X48470870Y-23337144D01*
X48470870Y-23337144D02*
X48470870Y-23551430D01*
X48470870Y-23551430D02*
X48542299Y-23694287D01*
X48542299Y-23694287D02*
X48613727Y-23765716D01*
X48613727Y-23765716D02*
X48756584Y-23837144D01*
X48756584Y-23837144D02*
X49185156Y-23837144D01*
X49185156Y-23837144D02*
X49328013Y-23765716D01*
X49328013Y-23765716D02*
X49399442Y-23694287D01*
X49399442Y-23694287D02*
X49470870Y-23551430D01*
X49470870Y-23551430D02*
X49470870Y-23337144D01*
X48470870Y-24480001D02*
X49470870Y-24480001D01*
X48613727Y-24480001D02*
X48542299Y-24551430D01*
X48542299Y-24551430D02*
X48470870Y-24694287D01*
X48470870Y-24694287D02*
X48470870Y-24908573D01*
X48470870Y-24908573D02*
X48542299Y-25051430D01*
X48542299Y-25051430D02*
X48685156Y-25122859D01*
X48685156Y-25122859D02*
X49470870Y-25122859D01*
X49470870Y-27765716D02*
X49470870Y-26908573D01*
X49470870Y-27337144D02*
X47970870Y-27337144D01*
X47970870Y-27337144D02*
X48185156Y-27194287D01*
X48185156Y-27194287D02*
X48328013Y-27051430D01*
X48328013Y-27051430D02*
X48399442Y-26908573D01*
X49328013Y-28408572D02*
X49399442Y-28480001D01*
X49399442Y-28480001D02*
X49470870Y-28408572D01*
X49470870Y-28408572D02*
X49399442Y-28337144D01*
X49399442Y-28337144D02*
X49328013Y-28408572D01*
X49328013Y-28408572D02*
X49470870Y-28408572D01*
X47970870Y-29408573D02*
X47970870Y-29551430D01*
X47970870Y-29551430D02*
X48042299Y-29694287D01*
X48042299Y-29694287D02*
X48113727Y-29765716D01*
X48113727Y-29765716D02*
X48256584Y-29837144D01*
X48256584Y-29837144D02*
X48542299Y-29908573D01*
X48542299Y-29908573D02*
X48899442Y-29908573D01*
X48899442Y-29908573D02*
X49185156Y-29837144D01*
X49185156Y-29837144D02*
X49328013Y-29765716D01*
X49328013Y-29765716D02*
X49399442Y-29694287D01*
X49399442Y-29694287D02*
X49470870Y-29551430D01*
X49470870Y-29551430D02*
X49470870Y-29408573D01*
X49470870Y-29408573D02*
X49399442Y-29265716D01*
X49399442Y-29265716D02*
X49328013Y-29194287D01*
X49328013Y-29194287D02*
X49185156Y-29122858D01*
X49185156Y-29122858D02*
X48899442Y-29051430D01*
X48899442Y-29051430D02*
X48542299Y-29051430D01*
X48542299Y-29051430D02*
X48256584Y-29122858D01*
X48256584Y-29122858D02*
X48113727Y-29194287D01*
X48113727Y-29194287D02*
X48042299Y-29265716D01*
X48042299Y-29265716D02*
X47970870Y-29408573D01*
X48328013Y-32908572D02*
X48256584Y-32765715D01*
X48256584Y-32765715D02*
X48256584Y-32480001D01*
X48256584Y-32480001D02*
X48328013Y-32337144D01*
X48328013Y-32337144D02*
X48470870Y-32194286D01*
X48470870Y-32194286D02*
X48613727Y-32122858D01*
X48613727Y-32122858D02*
X48899442Y-32122858D01*
X48899442Y-32122858D02*
X49042299Y-32194286D01*
X49042299Y-32194286D02*
X49185156Y-32337144D01*
X49185156Y-32337144D02*
X49256584Y-32480001D01*
X49256584Y-32480001D02*
X49256584Y-32765715D01*
X49256584Y-32765715D02*
X49185156Y-32908572D01*
X47756584Y-32622858D02*
X47828013Y-32265715D01*
X47828013Y-32265715D02*
X48042299Y-31908572D01*
X48042299Y-31908572D02*
X48399442Y-31694286D01*
X48399442Y-31694286D02*
X48756584Y-31622858D01*
X48756584Y-31622858D02*
X49113727Y-31694286D01*
X49113727Y-31694286D02*
X49470870Y-31908572D01*
X49470870Y-31908572D02*
X49685156Y-32265715D01*
X49685156Y-32265715D02*
X49756584Y-32622858D01*
X49756584Y-32622858D02*
X49685156Y-32980001D01*
X49685156Y-32980001D02*
X49470870Y-33337144D01*
X49470870Y-33337144D02*
X49113727Y-33551429D01*
X49113727Y-33551429D02*
X48756584Y-33622858D01*
X48756584Y-33622858D02*
X48399442Y-33551429D01*
X48399442Y-33551429D02*
X48042299Y-33337144D01*
X48042299Y-33337144D02*
X47828013Y-32980001D01*
X47828013Y-32980001D02*
X47756584Y-32622858D01*
X48113727Y-35337144D02*
X48042299Y-35408572D01*
X48042299Y-35408572D02*
X47970870Y-35551430D01*
X47970870Y-35551430D02*
X47970870Y-35908572D01*
X47970870Y-35908572D02*
X48042299Y-36051430D01*
X48042299Y-36051430D02*
X48113727Y-36122858D01*
X48113727Y-36122858D02*
X48256584Y-36194287D01*
X48256584Y-36194287D02*
X48399442Y-36194287D01*
X48399442Y-36194287D02*
X48613727Y-36122858D01*
X48613727Y-36122858D02*
X49470870Y-35265715D01*
X49470870Y-35265715D02*
X49470870Y-36194287D01*
X47970870Y-37122858D02*
X47970870Y-37265715D01*
X47970870Y-37265715D02*
X48042299Y-37408572D01*
X48042299Y-37408572D02*
X48113727Y-37480001D01*
X48113727Y-37480001D02*
X48256584Y-37551429D01*
X48256584Y-37551429D02*
X48542299Y-37622858D01*
X48542299Y-37622858D02*
X48899442Y-37622858D01*
X48899442Y-37622858D02*
X49185156Y-37551429D01*
X49185156Y-37551429D02*
X49328013Y-37480001D01*
X49328013Y-37480001D02*
X49399442Y-37408572D01*
X49399442Y-37408572D02*
X49470870Y-37265715D01*
X49470870Y-37265715D02*
X49470870Y-37122858D01*
X49470870Y-37122858D02*
X49399442Y-36980001D01*
X49399442Y-36980001D02*
X49328013Y-36908572D01*
X49328013Y-36908572D02*
X49185156Y-36837143D01*
X49185156Y-36837143D02*
X48899442Y-36765715D01*
X48899442Y-36765715D02*
X48542299Y-36765715D01*
X48542299Y-36765715D02*
X48256584Y-36837143D01*
X48256584Y-36837143D02*
X48113727Y-36908572D01*
X48113727Y-36908572D02*
X48042299Y-36980001D01*
X48042299Y-36980001D02*
X47970870Y-37122858D01*
X48113727Y-38194286D02*
X48042299Y-38265714D01*
X48042299Y-38265714D02*
X47970870Y-38408572D01*
X47970870Y-38408572D02*
X47970870Y-38765714D01*
X47970870Y-38765714D02*
X48042299Y-38908572D01*
X48042299Y-38908572D02*
X48113727Y-38980000D01*
X48113727Y-38980000D02*
X48256584Y-39051429D01*
X48256584Y-39051429D02*
X48399442Y-39051429D01*
X48399442Y-39051429D02*
X48613727Y-38980000D01*
X48613727Y-38980000D02*
X49470870Y-38122857D01*
X49470870Y-38122857D02*
X49470870Y-39051429D01*
X47970870Y-40408571D02*
X47970870Y-39694285D01*
X47970870Y-39694285D02*
X48685156Y-39622857D01*
X48685156Y-39622857D02*
X48613727Y-39694285D01*
X48613727Y-39694285D02*
X48542299Y-39837143D01*
X48542299Y-39837143D02*
X48542299Y-40194285D01*
X48542299Y-40194285D02*
X48613727Y-40337143D01*
X48613727Y-40337143D02*
X48685156Y-40408571D01*
X48685156Y-40408571D02*
X48828013Y-40480000D01*
X48828013Y-40480000D02*
X49185156Y-40480000D01*
X49185156Y-40480000D02*
X49328013Y-40408571D01*
X49328013Y-40408571D02*
X49399442Y-40337143D01*
X49399442Y-40337143D02*
X49470870Y-40194285D01*
X49470870Y-40194285D02*
X49470870Y-39837143D01*
X49470870Y-39837143D02*
X49399442Y-39694285D01*
X49399442Y-39694285D02*
X49328013Y-39622857D01*
X51100072Y-21337142D02*
X51100072Y-21837142D01*
X51885786Y-22051428D02*
X51885786Y-21337142D01*
X51885786Y-21337142D02*
X50385786Y-21337142D01*
X50385786Y-21337142D02*
X50385786Y-22051428D01*
X51885786Y-22694285D02*
X50885786Y-22694285D01*
X50385786Y-22694285D02*
X50457215Y-22622857D01*
X50457215Y-22622857D02*
X50528643Y-22694285D01*
X50528643Y-22694285D02*
X50457215Y-22765714D01*
X50457215Y-22765714D02*
X50385786Y-22694285D01*
X50385786Y-22694285D02*
X50528643Y-22694285D01*
X50885786Y-23265714D02*
X51885786Y-23622857D01*
X51885786Y-23622857D02*
X50885786Y-23980000D01*
X51885786Y-24551428D02*
X50885786Y-24551428D01*
X50385786Y-24551428D02*
X50457215Y-24480000D01*
X50457215Y-24480000D02*
X50528643Y-24551428D01*
X50528643Y-24551428D02*
X50457215Y-24622857D01*
X50457215Y-24622857D02*
X50385786Y-24551428D01*
X50385786Y-24551428D02*
X50528643Y-24551428D01*
X50885786Y-25265714D02*
X51885786Y-25265714D01*
X51028643Y-25265714D02*
X50957215Y-25337143D01*
X50957215Y-25337143D02*
X50885786Y-25480000D01*
X50885786Y-25480000D02*
X50885786Y-25694286D01*
X50885786Y-25694286D02*
X50957215Y-25837143D01*
X50957215Y-25837143D02*
X51100072Y-25908572D01*
X51100072Y-25908572D02*
X51885786Y-25908572D01*
X51885786Y-27265715D02*
X50385786Y-27265715D01*
X51814358Y-27265715D02*
X51885786Y-27122857D01*
X51885786Y-27122857D02*
X51885786Y-26837143D01*
X51885786Y-26837143D02*
X51814358Y-26694286D01*
X51814358Y-26694286D02*
X51742929Y-26622857D01*
X51742929Y-26622857D02*
X51600072Y-26551429D01*
X51600072Y-26551429D02*
X51171500Y-26551429D01*
X51171500Y-26551429D02*
X51028643Y-26622857D01*
X51028643Y-26622857D02*
X50957215Y-26694286D01*
X50957215Y-26694286D02*
X50885786Y-26837143D01*
X50885786Y-26837143D02*
X50885786Y-27122857D01*
X50885786Y-27122857D02*
X50957215Y-27265715D01*
X51100072Y-29622857D02*
X51171500Y-29837143D01*
X51171500Y-29837143D02*
X51242929Y-29908572D01*
X51242929Y-29908572D02*
X51385786Y-29980000D01*
X51385786Y-29980000D02*
X51600072Y-29980000D01*
X51600072Y-29980000D02*
X51742929Y-29908572D01*
X51742929Y-29908572D02*
X51814358Y-29837143D01*
X51814358Y-29837143D02*
X51885786Y-29694286D01*
X51885786Y-29694286D02*
X51885786Y-29122857D01*
X51885786Y-29122857D02*
X50385786Y-29122857D01*
X50385786Y-29122857D02*
X50385786Y-29622857D01*
X50385786Y-29622857D02*
X50457215Y-29765715D01*
X50457215Y-29765715D02*
X50528643Y-29837143D01*
X50528643Y-29837143D02*
X50671500Y-29908572D01*
X50671500Y-29908572D02*
X50814358Y-29908572D01*
X50814358Y-29908572D02*
X50957215Y-29837143D01*
X50957215Y-29837143D02*
X51028643Y-29765715D01*
X51028643Y-29765715D02*
X51100072Y-29622857D01*
X51100072Y-29622857D02*
X51100072Y-29122857D01*
X50885786Y-31408572D02*
X51885786Y-30480000D01*
X51885786Y-30837143D02*
X51814358Y-30694286D01*
X51814358Y-30694286D02*
X51742929Y-30622857D01*
X51742929Y-30622857D02*
X51600072Y-30551429D01*
X51600072Y-30551429D02*
X51171500Y-30551429D01*
X51171500Y-30551429D02*
X51028643Y-30622857D01*
X51028643Y-30622857D02*
X50957215Y-30694286D01*
X50957215Y-30694286D02*
X50885786Y-30837143D01*
X50885786Y-30837143D02*
X50885786Y-31051429D01*
X50885786Y-31051429D02*
X50957215Y-31194286D01*
X50957215Y-31194286D02*
X51028643Y-31265715D01*
X51028643Y-31265715D02*
X51171500Y-31337143D01*
X51171500Y-31337143D02*
X51600072Y-31337143D01*
X51600072Y-31337143D02*
X51742929Y-31265715D01*
X51742929Y-31265715D02*
X51814358Y-31194286D01*
X51814358Y-31194286D02*
X51885786Y-31051429D01*
X51885786Y-31051429D02*
X51885786Y-30837143D01*
X51885786Y-31980000D02*
X50385786Y-31980000D01*
X51885786Y-32622858D02*
X51100072Y-32622858D01*
X51100072Y-32622858D02*
X50957215Y-32551429D01*
X50957215Y-32551429D02*
X50885786Y-32408572D01*
X50885786Y-32408572D02*
X50885786Y-32194286D01*
X50885786Y-32194286D02*
X50957215Y-32051429D01*
X50957215Y-32051429D02*
X51028643Y-31980000D01*
X51885786Y-33551429D02*
X51814358Y-33408572D01*
X51814358Y-33408572D02*
X51671500Y-33337143D01*
X51671500Y-33337143D02*
X50385786Y-33337143D01*
X51814358Y-34694286D02*
X51885786Y-34551429D01*
X51885786Y-34551429D02*
X51885786Y-34265715D01*
X51885786Y-34265715D02*
X51814358Y-34122857D01*
X51814358Y-34122857D02*
X51671500Y-34051429D01*
X51671500Y-34051429D02*
X51100072Y-34051429D01*
X51100072Y-34051429D02*
X50957215Y-34122857D01*
X50957215Y-34122857D02*
X50885786Y-34265715D01*
X50885786Y-34265715D02*
X50885786Y-34551429D01*
X50885786Y-34551429D02*
X50957215Y-34694286D01*
X50957215Y-34694286D02*
X51100072Y-34765715D01*
X51100072Y-34765715D02*
X51242929Y-34765715D01*
X51242929Y-34765715D02*
X51385786Y-34051429D01*
X51885786Y-35408571D02*
X50885786Y-35408571D01*
X51171500Y-35408571D02*
X51028643Y-35480000D01*
X51028643Y-35480000D02*
X50957215Y-35551429D01*
X50957215Y-35551429D02*
X50885786Y-35694286D01*
X50885786Y-35694286D02*
X50885786Y-35837143D01*
X54300702Y-20408571D02*
X53300702Y-20408571D01*
X53586416Y-20408571D02*
X53443559Y-20480000D01*
X53443559Y-20480000D02*
X53372131Y-20551429D01*
X53372131Y-20551429D02*
X53300702Y-20694286D01*
X53300702Y-20694286D02*
X53300702Y-20837143D01*
X54229274Y-21908571D02*
X54300702Y-21765714D01*
X54300702Y-21765714D02*
X54300702Y-21480000D01*
X54300702Y-21480000D02*
X54229274Y-21337142D01*
X54229274Y-21337142D02*
X54086416Y-21265714D01*
X54086416Y-21265714D02*
X53514988Y-21265714D01*
X53514988Y-21265714D02*
X53372131Y-21337142D01*
X53372131Y-21337142D02*
X53300702Y-21480000D01*
X53300702Y-21480000D02*
X53300702Y-21765714D01*
X53300702Y-21765714D02*
X53372131Y-21908571D01*
X53372131Y-21908571D02*
X53514988Y-21980000D01*
X53514988Y-21980000D02*
X53657845Y-21980000D01*
X53657845Y-21980000D02*
X53800702Y-21265714D01*
X53300702Y-22408571D02*
X53300702Y-22979999D01*
X52800702Y-22622856D02*
X54086416Y-22622856D01*
X54086416Y-22622856D02*
X54229274Y-22694285D01*
X54229274Y-22694285D02*
X54300702Y-22837142D01*
X54300702Y-22837142D02*
X54300702Y-22979999D01*
X54300702Y-23479999D02*
X53300702Y-23479999D01*
X53586416Y-23479999D02*
X53443559Y-23551428D01*
X53443559Y-23551428D02*
X53372131Y-23622857D01*
X53372131Y-23622857D02*
X53300702Y-23765714D01*
X53300702Y-23765714D02*
X53300702Y-23908571D01*
X54300702Y-24622856D02*
X54229274Y-24479999D01*
X54229274Y-24479999D02*
X54157845Y-24408570D01*
X54157845Y-24408570D02*
X54014988Y-24337142D01*
X54014988Y-24337142D02*
X53586416Y-24337142D01*
X53586416Y-24337142D02*
X53443559Y-24408570D01*
X53443559Y-24408570D02*
X53372131Y-24479999D01*
X53372131Y-24479999D02*
X53300702Y-24622856D01*
X53300702Y-24622856D02*
X53300702Y-24837142D01*
X53300702Y-24837142D02*
X53372131Y-24979999D01*
X53372131Y-24979999D02*
X53443559Y-25051428D01*
X53443559Y-25051428D02*
X53586416Y-25122856D01*
X53586416Y-25122856D02*
X54014988Y-25122856D01*
X54014988Y-25122856D02*
X54157845Y-25051428D01*
X54157845Y-25051428D02*
X54229274Y-24979999D01*
X54229274Y-24979999D02*
X54300702Y-24837142D01*
X54300702Y-24837142D02*
X54300702Y-24622856D01*
X54300702Y-26408571D02*
X52800702Y-26408571D01*
X54229274Y-26408571D02*
X54300702Y-26265713D01*
X54300702Y-26265713D02*
X54300702Y-25979999D01*
X54300702Y-25979999D02*
X54229274Y-25837142D01*
X54229274Y-25837142D02*
X54157845Y-25765713D01*
X54157845Y-25765713D02*
X54014988Y-25694285D01*
X54014988Y-25694285D02*
X53586416Y-25694285D01*
X53586416Y-25694285D02*
X53443559Y-25765713D01*
X53443559Y-25765713D02*
X53372131Y-25837142D01*
X53372131Y-25837142D02*
X53300702Y-25979999D01*
X53300702Y-25979999D02*
X53300702Y-26265713D01*
X53300702Y-26265713D02*
X53372131Y-26408571D01*
X54300702Y-27122856D02*
X53300702Y-27122856D01*
X53586416Y-27122856D02*
X53443559Y-27194285D01*
X53443559Y-27194285D02*
X53372131Y-27265714D01*
X53372131Y-27265714D02*
X53300702Y-27408571D01*
X53300702Y-27408571D02*
X53300702Y-27551428D01*
X54229274Y-28622856D02*
X54300702Y-28479999D01*
X54300702Y-28479999D02*
X54300702Y-28194285D01*
X54300702Y-28194285D02*
X54229274Y-28051427D01*
X54229274Y-28051427D02*
X54086416Y-27979999D01*
X54086416Y-27979999D02*
X53514988Y-27979999D01*
X53514988Y-27979999D02*
X53372131Y-28051427D01*
X53372131Y-28051427D02*
X53300702Y-28194285D01*
X53300702Y-28194285D02*
X53300702Y-28479999D01*
X53300702Y-28479999D02*
X53372131Y-28622856D01*
X53372131Y-28622856D02*
X53514988Y-28694285D01*
X53514988Y-28694285D02*
X53657845Y-28694285D01*
X53657845Y-28694285D02*
X53800702Y-27979999D01*
X54300702Y-29979999D02*
X53514988Y-29979999D01*
X53514988Y-29979999D02*
X53372131Y-29908570D01*
X53372131Y-29908570D02*
X53300702Y-29765713D01*
X53300702Y-29765713D02*
X53300702Y-29479999D01*
X53300702Y-29479999D02*
X53372131Y-29337141D01*
X54229274Y-29979999D02*
X54300702Y-29837141D01*
X54300702Y-29837141D02*
X54300702Y-29479999D01*
X54300702Y-29479999D02*
X54229274Y-29337141D01*
X54229274Y-29337141D02*
X54086416Y-29265713D01*
X54086416Y-29265713D02*
X53943559Y-29265713D01*
X53943559Y-29265713D02*
X53800702Y-29337141D01*
X53800702Y-29337141D02*
X53729274Y-29479999D01*
X53729274Y-29479999D02*
X53729274Y-29837141D01*
X53729274Y-29837141D02*
X53657845Y-29979999D01*
X54300702Y-30694284D02*
X53300702Y-30694284D01*
X53443559Y-30694284D02*
X53372131Y-30765713D01*
X53372131Y-30765713D02*
X53300702Y-30908570D01*
X53300702Y-30908570D02*
X53300702Y-31122856D01*
X53300702Y-31122856D02*
X53372131Y-31265713D01*
X53372131Y-31265713D02*
X53514988Y-31337142D01*
X53514988Y-31337142D02*
X54300702Y-31337142D01*
X53514988Y-31337142D02*
X53372131Y-31408570D01*
X53372131Y-31408570D02*
X53300702Y-31551427D01*
X53300702Y-31551427D02*
X53300702Y-31765713D01*
X53300702Y-31765713D02*
X53372131Y-31908570D01*
X53372131Y-31908570D02*
X53514988Y-31979999D01*
X53514988Y-31979999D02*
X54300702Y-31979999D01*
X54229274Y-32622856D02*
X54300702Y-32765713D01*
X54300702Y-32765713D02*
X54300702Y-33051427D01*
X54300702Y-33051427D02*
X54229274Y-33194284D01*
X54229274Y-33194284D02*
X54086416Y-33265713D01*
X54086416Y-33265713D02*
X54014988Y-33265713D01*
X54014988Y-33265713D02*
X53872131Y-33194284D01*
X53872131Y-33194284D02*
X53800702Y-33051427D01*
X53800702Y-33051427D02*
X53800702Y-32837142D01*
X53800702Y-32837142D02*
X53729274Y-32694284D01*
X53729274Y-32694284D02*
X53586416Y-32622856D01*
X53586416Y-32622856D02*
X53514988Y-32622856D01*
X53514988Y-32622856D02*
X53372131Y-32694284D01*
X53372131Y-32694284D02*
X53300702Y-32837142D01*
X53300702Y-32837142D02*
X53300702Y-33051427D01*
X53300702Y-33051427D02*
X53372131Y-33194284D01*
X54157845Y-33908570D02*
X54229274Y-33979999D01*
X54229274Y-33979999D02*
X54300702Y-33908570D01*
X54300702Y-33908570D02*
X54229274Y-33837142D01*
X54229274Y-33837142D02*
X54157845Y-33908570D01*
X54157845Y-33908570D02*
X54300702Y-33908570D01*
X54229274Y-35265714D02*
X54300702Y-35122856D01*
X54300702Y-35122856D02*
X54300702Y-34837142D01*
X54300702Y-34837142D02*
X54229274Y-34694285D01*
X54229274Y-34694285D02*
X54157845Y-34622856D01*
X54157845Y-34622856D02*
X54014988Y-34551428D01*
X54014988Y-34551428D02*
X53586416Y-34551428D01*
X53586416Y-34551428D02*
X53443559Y-34622856D01*
X53443559Y-34622856D02*
X53372131Y-34694285D01*
X53372131Y-34694285D02*
X53300702Y-34837142D01*
X53300702Y-34837142D02*
X53300702Y-35122856D01*
X53300702Y-35122856D02*
X53372131Y-35265714D01*
X54300702Y-36551428D02*
X53514988Y-36551428D01*
X53514988Y-36551428D02*
X53372131Y-36479999D01*
X53372131Y-36479999D02*
X53300702Y-36337142D01*
X53300702Y-36337142D02*
X53300702Y-36051428D01*
X53300702Y-36051428D02*
X53372131Y-35908570D01*
X54229274Y-36551428D02*
X54300702Y-36408570D01*
X54300702Y-36408570D02*
X54300702Y-36051428D01*
X54300702Y-36051428D02*
X54229274Y-35908570D01*
X54229274Y-35908570D02*
X54086416Y-35837142D01*
X54086416Y-35837142D02*
X53943559Y-35837142D01*
X53943559Y-35837142D02*
X53800702Y-35908570D01*
X53800702Y-35908570D02*
X53729274Y-36051428D01*
X53729274Y-36051428D02*
X53729274Y-36408570D01*
X53729274Y-36408570D02*
X53657845Y-36551428D01*
X47055954Y-53980000D02*
X47055954Y-53265714D01*
X47055954Y-53265714D02*
X45555954Y-53265714D01*
X47055954Y-54694286D02*
X46984526Y-54551429D01*
X46984526Y-54551429D02*
X46841668Y-54480000D01*
X46841668Y-54480000D02*
X45555954Y-54480000D01*
X47055954Y-55908572D02*
X46270240Y-55908572D01*
X46270240Y-55908572D02*
X46127383Y-55837143D01*
X46127383Y-55837143D02*
X46055954Y-55694286D01*
X46055954Y-55694286D02*
X46055954Y-55408572D01*
X46055954Y-55408572D02*
X46127383Y-55265714D01*
X46984526Y-55908572D02*
X47055954Y-55765714D01*
X47055954Y-55765714D02*
X47055954Y-55408572D01*
X47055954Y-55408572D02*
X46984526Y-55265714D01*
X46984526Y-55265714D02*
X46841668Y-55194286D01*
X46841668Y-55194286D02*
X46698811Y-55194286D01*
X46698811Y-55194286D02*
X46555954Y-55265714D01*
X46555954Y-55265714D02*
X46484526Y-55408572D01*
X46484526Y-55408572D02*
X46484526Y-55765714D01*
X46484526Y-55765714D02*
X46413097Y-55908572D01*
X47055954Y-56622857D02*
X46055954Y-56622857D01*
X46198811Y-56622857D02*
X46127383Y-56694286D01*
X46127383Y-56694286D02*
X46055954Y-56837143D01*
X46055954Y-56837143D02*
X46055954Y-57051429D01*
X46055954Y-57051429D02*
X46127383Y-57194286D01*
X46127383Y-57194286D02*
X46270240Y-57265715D01*
X46270240Y-57265715D02*
X47055954Y-57265715D01*
X46270240Y-57265715D02*
X46127383Y-57337143D01*
X46127383Y-57337143D02*
X46055954Y-57480000D01*
X46055954Y-57480000D02*
X46055954Y-57694286D01*
X46055954Y-57694286D02*
X46127383Y-57837143D01*
X46127383Y-57837143D02*
X46270240Y-57908572D01*
X46270240Y-57908572D02*
X47055954Y-57908572D01*
X47055954Y-59265715D02*
X46270240Y-59265715D01*
X46270240Y-59265715D02*
X46127383Y-59194286D01*
X46127383Y-59194286D02*
X46055954Y-59051429D01*
X46055954Y-59051429D02*
X46055954Y-58765715D01*
X46055954Y-58765715D02*
X46127383Y-58622857D01*
X46984526Y-59265715D02*
X47055954Y-59122857D01*
X47055954Y-59122857D02*
X47055954Y-58765715D01*
X47055954Y-58765715D02*
X46984526Y-58622857D01*
X46984526Y-58622857D02*
X46841668Y-58551429D01*
X46841668Y-58551429D02*
X46698811Y-58551429D01*
X46698811Y-58551429D02*
X46555954Y-58622857D01*
X46555954Y-58622857D02*
X46484526Y-58765715D01*
X46484526Y-58765715D02*
X46484526Y-59122857D01*
X46484526Y-59122857D02*
X46413097Y-59265715D01*
X45555954Y-62551429D02*
X45555954Y-62837143D01*
X45555954Y-62837143D02*
X45627383Y-62980000D01*
X45627383Y-62980000D02*
X45770240Y-63122857D01*
X45770240Y-63122857D02*
X46055954Y-63194286D01*
X46055954Y-63194286D02*
X46555954Y-63194286D01*
X46555954Y-63194286D02*
X46841668Y-63122857D01*
X46841668Y-63122857D02*
X46984526Y-62980000D01*
X46984526Y-62980000D02*
X47055954Y-62837143D01*
X47055954Y-62837143D02*
X47055954Y-62551429D01*
X47055954Y-62551429D02*
X46984526Y-62408572D01*
X46984526Y-62408572D02*
X46841668Y-62265714D01*
X46841668Y-62265714D02*
X46555954Y-62194286D01*
X46555954Y-62194286D02*
X46055954Y-62194286D01*
X46055954Y-62194286D02*
X45770240Y-62265714D01*
X45770240Y-62265714D02*
X45627383Y-62408572D01*
X45627383Y-62408572D02*
X45555954Y-62551429D01*
X47055954Y-63837143D02*
X45555954Y-63837143D01*
X45555954Y-63837143D02*
X45555954Y-64408572D01*
X45555954Y-64408572D02*
X45627383Y-64551429D01*
X45627383Y-64551429D02*
X45698811Y-64622858D01*
X45698811Y-64622858D02*
X45841668Y-64694286D01*
X45841668Y-64694286D02*
X46055954Y-64694286D01*
X46055954Y-64694286D02*
X46198811Y-64622858D01*
X46198811Y-64622858D02*
X46270240Y-64551429D01*
X46270240Y-64551429D02*
X46341668Y-64408572D01*
X46341668Y-64408572D02*
X46341668Y-63837143D01*
X47055954Y-66051429D02*
X47055954Y-65337143D01*
X47055954Y-65337143D02*
X45555954Y-65337143D01*
X45555954Y-66408572D02*
X45555954Y-67337144D01*
X45555954Y-67337144D02*
X46127383Y-66837144D01*
X46127383Y-66837144D02*
X46127383Y-67051429D01*
X46127383Y-67051429D02*
X46198811Y-67194287D01*
X46198811Y-67194287D02*
X46270240Y-67265715D01*
X46270240Y-67265715D02*
X46413097Y-67337144D01*
X46413097Y-67337144D02*
X46770240Y-67337144D01*
X46770240Y-67337144D02*
X46913097Y-67265715D01*
X46913097Y-67265715D02*
X46984526Y-67194287D01*
X46984526Y-67194287D02*
X47055954Y-67051429D01*
X47055954Y-67051429D02*
X47055954Y-66622858D01*
X47055954Y-66622858D02*
X46984526Y-66480001D01*
X46984526Y-66480001D02*
X46913097Y-66408572D01*
X47055954Y-70265714D02*
X46055954Y-70265714D01*
X46198811Y-70265714D02*
X46127383Y-70337143D01*
X46127383Y-70337143D02*
X46055954Y-70480000D01*
X46055954Y-70480000D02*
X46055954Y-70694286D01*
X46055954Y-70694286D02*
X46127383Y-70837143D01*
X46127383Y-70837143D02*
X46270240Y-70908572D01*
X46270240Y-70908572D02*
X47055954Y-70908572D01*
X46270240Y-70908572D02*
X46127383Y-70980000D01*
X46127383Y-70980000D02*
X46055954Y-71122857D01*
X46055954Y-71122857D02*
X46055954Y-71337143D01*
X46055954Y-71337143D02*
X46127383Y-71480000D01*
X46127383Y-71480000D02*
X46270240Y-71551429D01*
X46270240Y-71551429D02*
X47055954Y-71551429D01*
X47055954Y-72480000D02*
X46984526Y-72337143D01*
X46984526Y-72337143D02*
X46913097Y-72265714D01*
X46913097Y-72265714D02*
X46770240Y-72194286D01*
X46770240Y-72194286D02*
X46341668Y-72194286D01*
X46341668Y-72194286D02*
X46198811Y-72265714D01*
X46198811Y-72265714D02*
X46127383Y-72337143D01*
X46127383Y-72337143D02*
X46055954Y-72480000D01*
X46055954Y-72480000D02*
X46055954Y-72694286D01*
X46055954Y-72694286D02*
X46127383Y-72837143D01*
X46127383Y-72837143D02*
X46198811Y-72908572D01*
X46198811Y-72908572D02*
X46341668Y-72980000D01*
X46341668Y-72980000D02*
X46770240Y-72980000D01*
X46770240Y-72980000D02*
X46913097Y-72908572D01*
X46913097Y-72908572D02*
X46984526Y-72837143D01*
X46984526Y-72837143D02*
X47055954Y-72694286D01*
X47055954Y-72694286D02*
X47055954Y-72480000D01*
X47055954Y-74265715D02*
X45555954Y-74265715D01*
X46984526Y-74265715D02*
X47055954Y-74122857D01*
X47055954Y-74122857D02*
X47055954Y-73837143D01*
X47055954Y-73837143D02*
X46984526Y-73694286D01*
X46984526Y-73694286D02*
X46913097Y-73622857D01*
X46913097Y-73622857D02*
X46770240Y-73551429D01*
X46770240Y-73551429D02*
X46341668Y-73551429D01*
X46341668Y-73551429D02*
X46198811Y-73622857D01*
X46198811Y-73622857D02*
X46127383Y-73694286D01*
X46127383Y-73694286D02*
X46055954Y-73837143D01*
X46055954Y-73837143D02*
X46055954Y-74122857D01*
X46055954Y-74122857D02*
X46127383Y-74265715D01*
X46055954Y-75622858D02*
X47055954Y-75622858D01*
X46055954Y-74980000D02*
X46841668Y-74980000D01*
X46841668Y-74980000D02*
X46984526Y-75051429D01*
X46984526Y-75051429D02*
X47055954Y-75194286D01*
X47055954Y-75194286D02*
X47055954Y-75408572D01*
X47055954Y-75408572D02*
X46984526Y-75551429D01*
X46984526Y-75551429D02*
X46913097Y-75622858D01*
X47055954Y-76551429D02*
X46984526Y-76408572D01*
X46984526Y-76408572D02*
X46841668Y-76337143D01*
X46841668Y-76337143D02*
X45555954Y-76337143D01*
X46984526Y-77694286D02*
X47055954Y-77551429D01*
X47055954Y-77551429D02*
X47055954Y-77265715D01*
X47055954Y-77265715D02*
X46984526Y-77122857D01*
X46984526Y-77122857D02*
X46841668Y-77051429D01*
X46841668Y-77051429D02*
X46270240Y-77051429D01*
X46270240Y-77051429D02*
X46127383Y-77122857D01*
X46127383Y-77122857D02*
X46055954Y-77265715D01*
X46055954Y-77265715D02*
X46055954Y-77551429D01*
X46055954Y-77551429D02*
X46127383Y-77694286D01*
X46127383Y-77694286D02*
X46270240Y-77765715D01*
X46270240Y-77765715D02*
X46413097Y-77765715D01*
X46413097Y-77765715D02*
X46555954Y-77051429D01*
X49470870Y-54408572D02*
X48756584Y-53908572D01*
X49470870Y-53551429D02*
X47970870Y-53551429D01*
X47970870Y-53551429D02*
X47970870Y-54122858D01*
X47970870Y-54122858D02*
X48042299Y-54265715D01*
X48042299Y-54265715D02*
X48113727Y-54337144D01*
X48113727Y-54337144D02*
X48256584Y-54408572D01*
X48256584Y-54408572D02*
X48470870Y-54408572D01*
X48470870Y-54408572D02*
X48613727Y-54337144D01*
X48613727Y-54337144D02*
X48685156Y-54265715D01*
X48685156Y-54265715D02*
X48756584Y-54122858D01*
X48756584Y-54122858D02*
X48756584Y-53551429D01*
X49399442Y-55622858D02*
X49470870Y-55480001D01*
X49470870Y-55480001D02*
X49470870Y-55194287D01*
X49470870Y-55194287D02*
X49399442Y-55051429D01*
X49399442Y-55051429D02*
X49256584Y-54980001D01*
X49256584Y-54980001D02*
X48685156Y-54980001D01*
X48685156Y-54980001D02*
X48542299Y-55051429D01*
X48542299Y-55051429D02*
X48470870Y-55194287D01*
X48470870Y-55194287D02*
X48470870Y-55480001D01*
X48470870Y-55480001D02*
X48542299Y-55622858D01*
X48542299Y-55622858D02*
X48685156Y-55694287D01*
X48685156Y-55694287D02*
X48828013Y-55694287D01*
X48828013Y-55694287D02*
X48970870Y-54980001D01*
X48470870Y-56194286D02*
X49470870Y-56551429D01*
X49470870Y-56551429D02*
X48470870Y-56908572D01*
X49470870Y-57480000D02*
X48470870Y-57480000D01*
X47970870Y-57480000D02*
X48042299Y-57408572D01*
X48042299Y-57408572D02*
X48113727Y-57480000D01*
X48113727Y-57480000D02*
X48042299Y-57551429D01*
X48042299Y-57551429D02*
X47970870Y-57480000D01*
X47970870Y-57480000D02*
X48113727Y-57480000D01*
X49399442Y-58122858D02*
X49470870Y-58265715D01*
X49470870Y-58265715D02*
X49470870Y-58551429D01*
X49470870Y-58551429D02*
X49399442Y-58694286D01*
X49399442Y-58694286D02*
X49256584Y-58765715D01*
X49256584Y-58765715D02*
X49185156Y-58765715D01*
X49185156Y-58765715D02*
X49042299Y-58694286D01*
X49042299Y-58694286D02*
X48970870Y-58551429D01*
X48970870Y-58551429D02*
X48970870Y-58337144D01*
X48970870Y-58337144D02*
X48899442Y-58194286D01*
X48899442Y-58194286D02*
X48756584Y-58122858D01*
X48756584Y-58122858D02*
X48685156Y-58122858D01*
X48685156Y-58122858D02*
X48542299Y-58194286D01*
X48542299Y-58194286D02*
X48470870Y-58337144D01*
X48470870Y-58337144D02*
X48470870Y-58551429D01*
X48470870Y-58551429D02*
X48542299Y-58694286D01*
X49470870Y-59408572D02*
X48470870Y-59408572D01*
X47970870Y-59408572D02*
X48042299Y-59337144D01*
X48042299Y-59337144D02*
X48113727Y-59408572D01*
X48113727Y-59408572D02*
X48042299Y-59480001D01*
X48042299Y-59480001D02*
X47970870Y-59408572D01*
X47970870Y-59408572D02*
X48113727Y-59408572D01*
X49470870Y-60337144D02*
X49399442Y-60194287D01*
X49399442Y-60194287D02*
X49328013Y-60122858D01*
X49328013Y-60122858D02*
X49185156Y-60051430D01*
X49185156Y-60051430D02*
X48756584Y-60051430D01*
X48756584Y-60051430D02*
X48613727Y-60122858D01*
X48613727Y-60122858D02*
X48542299Y-60194287D01*
X48542299Y-60194287D02*
X48470870Y-60337144D01*
X48470870Y-60337144D02*
X48470870Y-60551430D01*
X48470870Y-60551430D02*
X48542299Y-60694287D01*
X48542299Y-60694287D02*
X48613727Y-60765716D01*
X48613727Y-60765716D02*
X48756584Y-60837144D01*
X48756584Y-60837144D02*
X49185156Y-60837144D01*
X49185156Y-60837144D02*
X49328013Y-60765716D01*
X49328013Y-60765716D02*
X49399442Y-60694287D01*
X49399442Y-60694287D02*
X49470870Y-60551430D01*
X49470870Y-60551430D02*
X49470870Y-60337144D01*
X48470870Y-61480001D02*
X49470870Y-61480001D01*
X48613727Y-61480001D02*
X48542299Y-61551430D01*
X48542299Y-61551430D02*
X48470870Y-61694287D01*
X48470870Y-61694287D02*
X48470870Y-61908573D01*
X48470870Y-61908573D02*
X48542299Y-62051430D01*
X48542299Y-62051430D02*
X48685156Y-62122859D01*
X48685156Y-62122859D02*
X49470870Y-62122859D01*
X49470870Y-64765716D02*
X49470870Y-63908573D01*
X49470870Y-64337144D02*
X47970870Y-64337144D01*
X47970870Y-64337144D02*
X48185156Y-64194287D01*
X48185156Y-64194287D02*
X48328013Y-64051430D01*
X48328013Y-64051430D02*
X48399442Y-63908573D01*
X49328013Y-65408572D02*
X49399442Y-65480001D01*
X49399442Y-65480001D02*
X49470870Y-65408572D01*
X49470870Y-65408572D02*
X49399442Y-65337144D01*
X49399442Y-65337144D02*
X49328013Y-65408572D01*
X49328013Y-65408572D02*
X49470870Y-65408572D01*
X47970870Y-66408573D02*
X47970870Y-66551430D01*
X47970870Y-66551430D02*
X48042299Y-66694287D01*
X48042299Y-66694287D02*
X48113727Y-66765716D01*
X48113727Y-66765716D02*
X48256584Y-66837144D01*
X48256584Y-66837144D02*
X48542299Y-66908573D01*
X48542299Y-66908573D02*
X48899442Y-66908573D01*
X48899442Y-66908573D02*
X49185156Y-66837144D01*
X49185156Y-66837144D02*
X49328013Y-66765716D01*
X49328013Y-66765716D02*
X49399442Y-66694287D01*
X49399442Y-66694287D02*
X49470870Y-66551430D01*
X49470870Y-66551430D02*
X49470870Y-66408573D01*
X49470870Y-66408573D02*
X49399442Y-66265716D01*
X49399442Y-66265716D02*
X49328013Y-66194287D01*
X49328013Y-66194287D02*
X49185156Y-66122858D01*
X49185156Y-66122858D02*
X48899442Y-66051430D01*
X48899442Y-66051430D02*
X48542299Y-66051430D01*
X48542299Y-66051430D02*
X48256584Y-66122858D01*
X48256584Y-66122858D02*
X48113727Y-66194287D01*
X48113727Y-66194287D02*
X48042299Y-66265716D01*
X48042299Y-66265716D02*
X47970870Y-66408573D01*
X48328013Y-69908572D02*
X48256584Y-69765715D01*
X48256584Y-69765715D02*
X48256584Y-69480001D01*
X48256584Y-69480001D02*
X48328013Y-69337144D01*
X48328013Y-69337144D02*
X48470870Y-69194286D01*
X48470870Y-69194286D02*
X48613727Y-69122858D01*
X48613727Y-69122858D02*
X48899442Y-69122858D01*
X48899442Y-69122858D02*
X49042299Y-69194286D01*
X49042299Y-69194286D02*
X49185156Y-69337144D01*
X49185156Y-69337144D02*
X49256584Y-69480001D01*
X49256584Y-69480001D02*
X49256584Y-69765715D01*
X49256584Y-69765715D02*
X49185156Y-69908572D01*
X47756584Y-69622858D02*
X47828013Y-69265715D01*
X47828013Y-69265715D02*
X48042299Y-68908572D01*
X48042299Y-68908572D02*
X48399442Y-68694286D01*
X48399442Y-68694286D02*
X48756584Y-68622858D01*
X48756584Y-68622858D02*
X49113727Y-68694286D01*
X49113727Y-68694286D02*
X49470870Y-68908572D01*
X49470870Y-68908572D02*
X49685156Y-69265715D01*
X49685156Y-69265715D02*
X49756584Y-69622858D01*
X49756584Y-69622858D02*
X49685156Y-69980001D01*
X49685156Y-69980001D02*
X49470870Y-70337144D01*
X49470870Y-70337144D02*
X49113727Y-70551429D01*
X49113727Y-70551429D02*
X48756584Y-70622858D01*
X48756584Y-70622858D02*
X48399442Y-70551429D01*
X48399442Y-70551429D02*
X48042299Y-70337144D01*
X48042299Y-70337144D02*
X47828013Y-69980001D01*
X47828013Y-69980001D02*
X47756584Y-69622858D01*
X48113727Y-72337144D02*
X48042299Y-72408572D01*
X48042299Y-72408572D02*
X47970870Y-72551430D01*
X47970870Y-72551430D02*
X47970870Y-72908572D01*
X47970870Y-72908572D02*
X48042299Y-73051430D01*
X48042299Y-73051430D02*
X48113727Y-73122858D01*
X48113727Y-73122858D02*
X48256584Y-73194287D01*
X48256584Y-73194287D02*
X48399442Y-73194287D01*
X48399442Y-73194287D02*
X48613727Y-73122858D01*
X48613727Y-73122858D02*
X49470870Y-72265715D01*
X49470870Y-72265715D02*
X49470870Y-73194287D01*
X47970870Y-74122858D02*
X47970870Y-74265715D01*
X47970870Y-74265715D02*
X48042299Y-74408572D01*
X48042299Y-74408572D02*
X48113727Y-74480001D01*
X48113727Y-74480001D02*
X48256584Y-74551429D01*
X48256584Y-74551429D02*
X48542299Y-74622858D01*
X48542299Y-74622858D02*
X48899442Y-74622858D01*
X48899442Y-74622858D02*
X49185156Y-74551429D01*
X49185156Y-74551429D02*
X49328013Y-74480001D01*
X49328013Y-74480001D02*
X49399442Y-74408572D01*
X49399442Y-74408572D02*
X49470870Y-74265715D01*
X49470870Y-74265715D02*
X49470870Y-74122858D01*
X49470870Y-74122858D02*
X49399442Y-73980001D01*
X49399442Y-73980001D02*
X49328013Y-73908572D01*
X49328013Y-73908572D02*
X49185156Y-73837143D01*
X49185156Y-73837143D02*
X48899442Y-73765715D01*
X48899442Y-73765715D02*
X48542299Y-73765715D01*
X48542299Y-73765715D02*
X48256584Y-73837143D01*
X48256584Y-73837143D02*
X48113727Y-73908572D01*
X48113727Y-73908572D02*
X48042299Y-73980001D01*
X48042299Y-73980001D02*
X47970870Y-74122858D01*
X48113727Y-75194286D02*
X48042299Y-75265714D01*
X48042299Y-75265714D02*
X47970870Y-75408572D01*
X47970870Y-75408572D02*
X47970870Y-75765714D01*
X47970870Y-75765714D02*
X48042299Y-75908572D01*
X48042299Y-75908572D02*
X48113727Y-75980000D01*
X48113727Y-75980000D02*
X48256584Y-76051429D01*
X48256584Y-76051429D02*
X48399442Y-76051429D01*
X48399442Y-76051429D02*
X48613727Y-75980000D01*
X48613727Y-75980000D02*
X49470870Y-75122857D01*
X49470870Y-75122857D02*
X49470870Y-76051429D01*
X47970870Y-77408571D02*
X47970870Y-76694285D01*
X47970870Y-76694285D02*
X48685156Y-76622857D01*
X48685156Y-76622857D02*
X48613727Y-76694285D01*
X48613727Y-76694285D02*
X48542299Y-76837143D01*
X48542299Y-76837143D02*
X48542299Y-77194285D01*
X48542299Y-77194285D02*
X48613727Y-77337143D01*
X48613727Y-77337143D02*
X48685156Y-77408571D01*
X48685156Y-77408571D02*
X48828013Y-77480000D01*
X48828013Y-77480000D02*
X49185156Y-77480000D01*
X49185156Y-77480000D02*
X49328013Y-77408571D01*
X49328013Y-77408571D02*
X49399442Y-77337143D01*
X49399442Y-77337143D02*
X49470870Y-77194285D01*
X49470870Y-77194285D02*
X49470870Y-76837143D01*
X49470870Y-76837143D02*
X49399442Y-76694285D01*
X49399442Y-76694285D02*
X49328013Y-76622857D01*
X51100072Y-58337142D02*
X51100072Y-58837142D01*
X51885786Y-59051428D02*
X51885786Y-58337142D01*
X51885786Y-58337142D02*
X50385786Y-58337142D01*
X50385786Y-58337142D02*
X50385786Y-59051428D01*
X51885786Y-59694285D02*
X50885786Y-59694285D01*
X50385786Y-59694285D02*
X50457215Y-59622857D01*
X50457215Y-59622857D02*
X50528643Y-59694285D01*
X50528643Y-59694285D02*
X50457215Y-59765714D01*
X50457215Y-59765714D02*
X50385786Y-59694285D01*
X50385786Y-59694285D02*
X50528643Y-59694285D01*
X50885786Y-60265714D02*
X51885786Y-60622857D01*
X51885786Y-60622857D02*
X50885786Y-60980000D01*
X51885786Y-61551428D02*
X50885786Y-61551428D01*
X50385786Y-61551428D02*
X50457215Y-61480000D01*
X50457215Y-61480000D02*
X50528643Y-61551428D01*
X50528643Y-61551428D02*
X50457215Y-61622857D01*
X50457215Y-61622857D02*
X50385786Y-61551428D01*
X50385786Y-61551428D02*
X50528643Y-61551428D01*
X50885786Y-62265714D02*
X51885786Y-62265714D01*
X51028643Y-62265714D02*
X50957215Y-62337143D01*
X50957215Y-62337143D02*
X50885786Y-62480000D01*
X50885786Y-62480000D02*
X50885786Y-62694286D01*
X50885786Y-62694286D02*
X50957215Y-62837143D01*
X50957215Y-62837143D02*
X51100072Y-62908572D01*
X51100072Y-62908572D02*
X51885786Y-62908572D01*
X51885786Y-64265715D02*
X50385786Y-64265715D01*
X51814358Y-64265715D02*
X51885786Y-64122857D01*
X51885786Y-64122857D02*
X51885786Y-63837143D01*
X51885786Y-63837143D02*
X51814358Y-63694286D01*
X51814358Y-63694286D02*
X51742929Y-63622857D01*
X51742929Y-63622857D02*
X51600072Y-63551429D01*
X51600072Y-63551429D02*
X51171500Y-63551429D01*
X51171500Y-63551429D02*
X51028643Y-63622857D01*
X51028643Y-63622857D02*
X50957215Y-63694286D01*
X50957215Y-63694286D02*
X50885786Y-63837143D01*
X50885786Y-63837143D02*
X50885786Y-64122857D01*
X50885786Y-64122857D02*
X50957215Y-64265715D01*
X51100072Y-66622857D02*
X51171500Y-66837143D01*
X51171500Y-66837143D02*
X51242929Y-66908572D01*
X51242929Y-66908572D02*
X51385786Y-66980000D01*
X51385786Y-66980000D02*
X51600072Y-66980000D01*
X51600072Y-66980000D02*
X51742929Y-66908572D01*
X51742929Y-66908572D02*
X51814358Y-66837143D01*
X51814358Y-66837143D02*
X51885786Y-66694286D01*
X51885786Y-66694286D02*
X51885786Y-66122857D01*
X51885786Y-66122857D02*
X50385786Y-66122857D01*
X50385786Y-66122857D02*
X50385786Y-66622857D01*
X50385786Y-66622857D02*
X50457215Y-66765715D01*
X50457215Y-66765715D02*
X50528643Y-66837143D01*
X50528643Y-66837143D02*
X50671500Y-66908572D01*
X50671500Y-66908572D02*
X50814358Y-66908572D01*
X50814358Y-66908572D02*
X50957215Y-66837143D01*
X50957215Y-66837143D02*
X51028643Y-66765715D01*
X51028643Y-66765715D02*
X51100072Y-66622857D01*
X51100072Y-66622857D02*
X51100072Y-66122857D01*
X50885786Y-68408572D02*
X51885786Y-67480000D01*
X51885786Y-67837143D02*
X51814358Y-67694286D01*
X51814358Y-67694286D02*
X51742929Y-67622857D01*
X51742929Y-67622857D02*
X51600072Y-67551429D01*
X51600072Y-67551429D02*
X51171500Y-67551429D01*
X51171500Y-67551429D02*
X51028643Y-67622857D01*
X51028643Y-67622857D02*
X50957215Y-67694286D01*
X50957215Y-67694286D02*
X50885786Y-67837143D01*
X50885786Y-67837143D02*
X50885786Y-68051429D01*
X50885786Y-68051429D02*
X50957215Y-68194286D01*
X50957215Y-68194286D02*
X51028643Y-68265715D01*
X51028643Y-68265715D02*
X51171500Y-68337143D01*
X51171500Y-68337143D02*
X51600072Y-68337143D01*
X51600072Y-68337143D02*
X51742929Y-68265715D01*
X51742929Y-68265715D02*
X51814358Y-68194286D01*
X51814358Y-68194286D02*
X51885786Y-68051429D01*
X51885786Y-68051429D02*
X51885786Y-67837143D01*
X51885786Y-68980000D02*
X50385786Y-68980000D01*
X51885786Y-69622858D02*
X51100072Y-69622858D01*
X51100072Y-69622858D02*
X50957215Y-69551429D01*
X50957215Y-69551429D02*
X50885786Y-69408572D01*
X50885786Y-69408572D02*
X50885786Y-69194286D01*
X50885786Y-69194286D02*
X50957215Y-69051429D01*
X50957215Y-69051429D02*
X51028643Y-68980000D01*
X51885786Y-70551429D02*
X51814358Y-70408572D01*
X51814358Y-70408572D02*
X51671500Y-70337143D01*
X51671500Y-70337143D02*
X50385786Y-70337143D01*
X51814358Y-71694286D02*
X51885786Y-71551429D01*
X51885786Y-71551429D02*
X51885786Y-71265715D01*
X51885786Y-71265715D02*
X51814358Y-71122857D01*
X51814358Y-71122857D02*
X51671500Y-71051429D01*
X51671500Y-71051429D02*
X51100072Y-71051429D01*
X51100072Y-71051429D02*
X50957215Y-71122857D01*
X50957215Y-71122857D02*
X50885786Y-71265715D01*
X50885786Y-71265715D02*
X50885786Y-71551429D01*
X50885786Y-71551429D02*
X50957215Y-71694286D01*
X50957215Y-71694286D02*
X51100072Y-71765715D01*
X51100072Y-71765715D02*
X51242929Y-71765715D01*
X51242929Y-71765715D02*
X51385786Y-71051429D01*
X51885786Y-72408571D02*
X50885786Y-72408571D01*
X51171500Y-72408571D02*
X51028643Y-72480000D01*
X51028643Y-72480000D02*
X50957215Y-72551429D01*
X50957215Y-72551429D02*
X50885786Y-72694286D01*
X50885786Y-72694286D02*
X50885786Y-72837143D01*
X54300702Y-57408571D02*
X53300702Y-57408571D01*
X53586416Y-57408571D02*
X53443559Y-57480000D01*
X53443559Y-57480000D02*
X53372131Y-57551429D01*
X53372131Y-57551429D02*
X53300702Y-57694286D01*
X53300702Y-57694286D02*
X53300702Y-57837143D01*
X54229274Y-58908571D02*
X54300702Y-58765714D01*
X54300702Y-58765714D02*
X54300702Y-58480000D01*
X54300702Y-58480000D02*
X54229274Y-58337142D01*
X54229274Y-58337142D02*
X54086416Y-58265714D01*
X54086416Y-58265714D02*
X53514988Y-58265714D01*
X53514988Y-58265714D02*
X53372131Y-58337142D01*
X53372131Y-58337142D02*
X53300702Y-58480000D01*
X53300702Y-58480000D02*
X53300702Y-58765714D01*
X53300702Y-58765714D02*
X53372131Y-58908571D01*
X53372131Y-58908571D02*
X53514988Y-58980000D01*
X53514988Y-58980000D02*
X53657845Y-58980000D01*
X53657845Y-58980000D02*
X53800702Y-58265714D01*
X53300702Y-59408571D02*
X53300702Y-59979999D01*
X52800702Y-59622856D02*
X54086416Y-59622856D01*
X54086416Y-59622856D02*
X54229274Y-59694285D01*
X54229274Y-59694285D02*
X54300702Y-59837142D01*
X54300702Y-59837142D02*
X54300702Y-59979999D01*
X54300702Y-60479999D02*
X53300702Y-60479999D01*
X53586416Y-60479999D02*
X53443559Y-60551428D01*
X53443559Y-60551428D02*
X53372131Y-60622857D01*
X53372131Y-60622857D02*
X53300702Y-60765714D01*
X53300702Y-60765714D02*
X53300702Y-60908571D01*
X54300702Y-61622856D02*
X54229274Y-61479999D01*
X54229274Y-61479999D02*
X54157845Y-61408570D01*
X54157845Y-61408570D02*
X54014988Y-61337142D01*
X54014988Y-61337142D02*
X53586416Y-61337142D01*
X53586416Y-61337142D02*
X53443559Y-61408570D01*
X53443559Y-61408570D02*
X53372131Y-61479999D01*
X53372131Y-61479999D02*
X53300702Y-61622856D01*
X53300702Y-61622856D02*
X53300702Y-61837142D01*
X53300702Y-61837142D02*
X53372131Y-61979999D01*
X53372131Y-61979999D02*
X53443559Y-62051428D01*
X53443559Y-62051428D02*
X53586416Y-62122856D01*
X53586416Y-62122856D02*
X54014988Y-62122856D01*
X54014988Y-62122856D02*
X54157845Y-62051428D01*
X54157845Y-62051428D02*
X54229274Y-61979999D01*
X54229274Y-61979999D02*
X54300702Y-61837142D01*
X54300702Y-61837142D02*
X54300702Y-61622856D01*
X54300702Y-63408571D02*
X52800702Y-63408571D01*
X54229274Y-63408571D02*
X54300702Y-63265713D01*
X54300702Y-63265713D02*
X54300702Y-62979999D01*
X54300702Y-62979999D02*
X54229274Y-62837142D01*
X54229274Y-62837142D02*
X54157845Y-62765713D01*
X54157845Y-62765713D02*
X54014988Y-62694285D01*
X54014988Y-62694285D02*
X53586416Y-62694285D01*
X53586416Y-62694285D02*
X53443559Y-62765713D01*
X53443559Y-62765713D02*
X53372131Y-62837142D01*
X53372131Y-62837142D02*
X53300702Y-62979999D01*
X53300702Y-62979999D02*
X53300702Y-63265713D01*
X53300702Y-63265713D02*
X53372131Y-63408571D01*
X54300702Y-64122856D02*
X53300702Y-64122856D01*
X53586416Y-64122856D02*
X53443559Y-64194285D01*
X53443559Y-64194285D02*
X53372131Y-64265714D01*
X53372131Y-64265714D02*
X53300702Y-64408571D01*
X53300702Y-64408571D02*
X53300702Y-64551428D01*
X54229274Y-65622856D02*
X54300702Y-65479999D01*
X54300702Y-65479999D02*
X54300702Y-65194285D01*
X54300702Y-65194285D02*
X54229274Y-65051427D01*
X54229274Y-65051427D02*
X54086416Y-64979999D01*
X54086416Y-64979999D02*
X53514988Y-64979999D01*
X53514988Y-64979999D02*
X53372131Y-65051427D01*
X53372131Y-65051427D02*
X53300702Y-65194285D01*
X53300702Y-65194285D02*
X53300702Y-65479999D01*
X53300702Y-65479999D02*
X53372131Y-65622856D01*
X53372131Y-65622856D02*
X53514988Y-65694285D01*
X53514988Y-65694285D02*
X53657845Y-65694285D01*
X53657845Y-65694285D02*
X53800702Y-64979999D01*
X54300702Y-66979999D02*
X53514988Y-66979999D01*
X53514988Y-66979999D02*
X53372131Y-66908570D01*
X53372131Y-66908570D02*
X53300702Y-66765713D01*
X53300702Y-66765713D02*
X53300702Y-66479999D01*
X53300702Y-66479999D02*
X53372131Y-66337141D01*
X54229274Y-66979999D02*
X54300702Y-66837141D01*
X54300702Y-66837141D02*
X54300702Y-66479999D01*
X54300702Y-66479999D02*
X54229274Y-66337141D01*
X54229274Y-66337141D02*
X54086416Y-66265713D01*
X54086416Y-66265713D02*
X53943559Y-66265713D01*
X53943559Y-66265713D02*
X53800702Y-66337141D01*
X53800702Y-66337141D02*
X53729274Y-66479999D01*
X53729274Y-66479999D02*
X53729274Y-66837141D01*
X53729274Y-66837141D02*
X53657845Y-66979999D01*
X54300702Y-67694284D02*
X53300702Y-67694284D01*
X53443559Y-67694284D02*
X53372131Y-67765713D01*
X53372131Y-67765713D02*
X53300702Y-67908570D01*
X53300702Y-67908570D02*
X53300702Y-68122856D01*
X53300702Y-68122856D02*
X53372131Y-68265713D01*
X53372131Y-68265713D02*
X53514988Y-68337142D01*
X53514988Y-68337142D02*
X54300702Y-68337142D01*
X53514988Y-68337142D02*
X53372131Y-68408570D01*
X53372131Y-68408570D02*
X53300702Y-68551427D01*
X53300702Y-68551427D02*
X53300702Y-68765713D01*
X53300702Y-68765713D02*
X53372131Y-68908570D01*
X53372131Y-68908570D02*
X53514988Y-68979999D01*
X53514988Y-68979999D02*
X54300702Y-68979999D01*
X54229274Y-69622856D02*
X54300702Y-69765713D01*
X54300702Y-69765713D02*
X54300702Y-70051427D01*
X54300702Y-70051427D02*
X54229274Y-70194284D01*
X54229274Y-70194284D02*
X54086416Y-70265713D01*
X54086416Y-70265713D02*
X54014988Y-70265713D01*
X54014988Y-70265713D02*
X53872131Y-70194284D01*
X53872131Y-70194284D02*
X53800702Y-70051427D01*
X53800702Y-70051427D02*
X53800702Y-69837142D01*
X53800702Y-69837142D02*
X53729274Y-69694284D01*
X53729274Y-69694284D02*
X53586416Y-69622856D01*
X53586416Y-69622856D02*
X53514988Y-69622856D01*
X53514988Y-69622856D02*
X53372131Y-69694284D01*
X53372131Y-69694284D02*
X53300702Y-69837142D01*
X53300702Y-69837142D02*
X53300702Y-70051427D01*
X53300702Y-70051427D02*
X53372131Y-70194284D01*
X54157845Y-70908570D02*
X54229274Y-70979999D01*
X54229274Y-70979999D02*
X54300702Y-70908570D01*
X54300702Y-70908570D02*
X54229274Y-70837142D01*
X54229274Y-70837142D02*
X54157845Y-70908570D01*
X54157845Y-70908570D02*
X54300702Y-70908570D01*
X54229274Y-72265714D02*
X54300702Y-72122856D01*
X54300702Y-72122856D02*
X54300702Y-71837142D01*
X54300702Y-71837142D02*
X54229274Y-71694285D01*
X54229274Y-71694285D02*
X54157845Y-71622856D01*
X54157845Y-71622856D02*
X54014988Y-71551428D01*
X54014988Y-71551428D02*
X53586416Y-71551428D01*
X53586416Y-71551428D02*
X53443559Y-71622856D01*
X53443559Y-71622856D02*
X53372131Y-71694285D01*
X53372131Y-71694285D02*
X53300702Y-71837142D01*
X53300702Y-71837142D02*
X53300702Y-72122856D01*
X53300702Y-72122856D02*
X53372131Y-72265714D01*
X54300702Y-73551428D02*
X53514988Y-73551428D01*
X53514988Y-73551428D02*
X53372131Y-73479999D01*
X53372131Y-73479999D02*
X53300702Y-73337142D01*
X53300702Y-73337142D02*
X53300702Y-73051428D01*
X53300702Y-73051428D02*
X53372131Y-72908570D01*
X54229274Y-73551428D02*
X54300702Y-73408570D01*
X54300702Y-73408570D02*
X54300702Y-73051428D01*
X54300702Y-73051428D02*
X54229274Y-72908570D01*
X54229274Y-72908570D02*
X54086416Y-72837142D01*
X54086416Y-72837142D02*
X53943559Y-72837142D01*
X53943559Y-72837142D02*
X53800702Y-72908570D01*
X53800702Y-72908570D02*
X53729274Y-73051428D01*
X53729274Y-73051428D02*
X53729274Y-73408570D01*
X53729274Y-73408570D02*
X53657845Y-73551428D01*
X75055954Y-16980000D02*
X75055954Y-16265714D01*
X75055954Y-16265714D02*
X73555954Y-16265714D01*
X75055954Y-17694286D02*
X74984526Y-17551429D01*
X74984526Y-17551429D02*
X74841668Y-17480000D01*
X74841668Y-17480000D02*
X73555954Y-17480000D01*
X75055954Y-18908572D02*
X74270240Y-18908572D01*
X74270240Y-18908572D02*
X74127383Y-18837143D01*
X74127383Y-18837143D02*
X74055954Y-18694286D01*
X74055954Y-18694286D02*
X74055954Y-18408572D01*
X74055954Y-18408572D02*
X74127383Y-18265714D01*
X74984526Y-18908572D02*
X75055954Y-18765714D01*
X75055954Y-18765714D02*
X75055954Y-18408572D01*
X75055954Y-18408572D02*
X74984526Y-18265714D01*
X74984526Y-18265714D02*
X74841668Y-18194286D01*
X74841668Y-18194286D02*
X74698811Y-18194286D01*
X74698811Y-18194286D02*
X74555954Y-18265714D01*
X74555954Y-18265714D02*
X74484526Y-18408572D01*
X74484526Y-18408572D02*
X74484526Y-18765714D01*
X74484526Y-18765714D02*
X74413097Y-18908572D01*
X75055954Y-19622857D02*
X74055954Y-19622857D01*
X74198811Y-19622857D02*
X74127383Y-19694286D01*
X74127383Y-19694286D02*
X74055954Y-19837143D01*
X74055954Y-19837143D02*
X74055954Y-20051429D01*
X74055954Y-20051429D02*
X74127383Y-20194286D01*
X74127383Y-20194286D02*
X74270240Y-20265715D01*
X74270240Y-20265715D02*
X75055954Y-20265715D01*
X74270240Y-20265715D02*
X74127383Y-20337143D01*
X74127383Y-20337143D02*
X74055954Y-20480000D01*
X74055954Y-20480000D02*
X74055954Y-20694286D01*
X74055954Y-20694286D02*
X74127383Y-20837143D01*
X74127383Y-20837143D02*
X74270240Y-20908572D01*
X74270240Y-20908572D02*
X75055954Y-20908572D01*
X75055954Y-22265715D02*
X74270240Y-22265715D01*
X74270240Y-22265715D02*
X74127383Y-22194286D01*
X74127383Y-22194286D02*
X74055954Y-22051429D01*
X74055954Y-22051429D02*
X74055954Y-21765715D01*
X74055954Y-21765715D02*
X74127383Y-21622857D01*
X74984526Y-22265715D02*
X75055954Y-22122857D01*
X75055954Y-22122857D02*
X75055954Y-21765715D01*
X75055954Y-21765715D02*
X74984526Y-21622857D01*
X74984526Y-21622857D02*
X74841668Y-21551429D01*
X74841668Y-21551429D02*
X74698811Y-21551429D01*
X74698811Y-21551429D02*
X74555954Y-21622857D01*
X74555954Y-21622857D02*
X74484526Y-21765715D01*
X74484526Y-21765715D02*
X74484526Y-22122857D01*
X74484526Y-22122857D02*
X74413097Y-22265715D01*
X73555954Y-25551429D02*
X73555954Y-25837143D01*
X73555954Y-25837143D02*
X73627383Y-25980000D01*
X73627383Y-25980000D02*
X73770240Y-26122857D01*
X73770240Y-26122857D02*
X74055954Y-26194286D01*
X74055954Y-26194286D02*
X74555954Y-26194286D01*
X74555954Y-26194286D02*
X74841668Y-26122857D01*
X74841668Y-26122857D02*
X74984526Y-25980000D01*
X74984526Y-25980000D02*
X75055954Y-25837143D01*
X75055954Y-25837143D02*
X75055954Y-25551429D01*
X75055954Y-25551429D02*
X74984526Y-25408572D01*
X74984526Y-25408572D02*
X74841668Y-25265714D01*
X74841668Y-25265714D02*
X74555954Y-25194286D01*
X74555954Y-25194286D02*
X74055954Y-25194286D01*
X74055954Y-25194286D02*
X73770240Y-25265714D01*
X73770240Y-25265714D02*
X73627383Y-25408572D01*
X73627383Y-25408572D02*
X73555954Y-25551429D01*
X75055954Y-26837143D02*
X73555954Y-26837143D01*
X73555954Y-26837143D02*
X73555954Y-27408572D01*
X73555954Y-27408572D02*
X73627383Y-27551429D01*
X73627383Y-27551429D02*
X73698811Y-27622858D01*
X73698811Y-27622858D02*
X73841668Y-27694286D01*
X73841668Y-27694286D02*
X74055954Y-27694286D01*
X74055954Y-27694286D02*
X74198811Y-27622858D01*
X74198811Y-27622858D02*
X74270240Y-27551429D01*
X74270240Y-27551429D02*
X74341668Y-27408572D01*
X74341668Y-27408572D02*
X74341668Y-26837143D01*
X75055954Y-29051429D02*
X75055954Y-28337143D01*
X75055954Y-28337143D02*
X73555954Y-28337143D01*
X73555954Y-29408572D02*
X73555954Y-30337144D01*
X73555954Y-30337144D02*
X74127383Y-29837144D01*
X74127383Y-29837144D02*
X74127383Y-30051429D01*
X74127383Y-30051429D02*
X74198811Y-30194287D01*
X74198811Y-30194287D02*
X74270240Y-30265715D01*
X74270240Y-30265715D02*
X74413097Y-30337144D01*
X74413097Y-30337144D02*
X74770240Y-30337144D01*
X74770240Y-30337144D02*
X74913097Y-30265715D01*
X74913097Y-30265715D02*
X74984526Y-30194287D01*
X74984526Y-30194287D02*
X75055954Y-30051429D01*
X75055954Y-30051429D02*
X75055954Y-29622858D01*
X75055954Y-29622858D02*
X74984526Y-29480001D01*
X74984526Y-29480001D02*
X74913097Y-29408572D01*
X75055954Y-33265714D02*
X74055954Y-33265714D01*
X74198811Y-33265714D02*
X74127383Y-33337143D01*
X74127383Y-33337143D02*
X74055954Y-33480000D01*
X74055954Y-33480000D02*
X74055954Y-33694286D01*
X74055954Y-33694286D02*
X74127383Y-33837143D01*
X74127383Y-33837143D02*
X74270240Y-33908572D01*
X74270240Y-33908572D02*
X75055954Y-33908572D01*
X74270240Y-33908572D02*
X74127383Y-33980000D01*
X74127383Y-33980000D02*
X74055954Y-34122857D01*
X74055954Y-34122857D02*
X74055954Y-34337143D01*
X74055954Y-34337143D02*
X74127383Y-34480000D01*
X74127383Y-34480000D02*
X74270240Y-34551429D01*
X74270240Y-34551429D02*
X75055954Y-34551429D01*
X75055954Y-35480000D02*
X74984526Y-35337143D01*
X74984526Y-35337143D02*
X74913097Y-35265714D01*
X74913097Y-35265714D02*
X74770240Y-35194286D01*
X74770240Y-35194286D02*
X74341668Y-35194286D01*
X74341668Y-35194286D02*
X74198811Y-35265714D01*
X74198811Y-35265714D02*
X74127383Y-35337143D01*
X74127383Y-35337143D02*
X74055954Y-35480000D01*
X74055954Y-35480000D02*
X74055954Y-35694286D01*
X74055954Y-35694286D02*
X74127383Y-35837143D01*
X74127383Y-35837143D02*
X74198811Y-35908572D01*
X74198811Y-35908572D02*
X74341668Y-35980000D01*
X74341668Y-35980000D02*
X74770240Y-35980000D01*
X74770240Y-35980000D02*
X74913097Y-35908572D01*
X74913097Y-35908572D02*
X74984526Y-35837143D01*
X74984526Y-35837143D02*
X75055954Y-35694286D01*
X75055954Y-35694286D02*
X75055954Y-35480000D01*
X75055954Y-37265715D02*
X73555954Y-37265715D01*
X74984526Y-37265715D02*
X75055954Y-37122857D01*
X75055954Y-37122857D02*
X75055954Y-36837143D01*
X75055954Y-36837143D02*
X74984526Y-36694286D01*
X74984526Y-36694286D02*
X74913097Y-36622857D01*
X74913097Y-36622857D02*
X74770240Y-36551429D01*
X74770240Y-36551429D02*
X74341668Y-36551429D01*
X74341668Y-36551429D02*
X74198811Y-36622857D01*
X74198811Y-36622857D02*
X74127383Y-36694286D01*
X74127383Y-36694286D02*
X74055954Y-36837143D01*
X74055954Y-36837143D02*
X74055954Y-37122857D01*
X74055954Y-37122857D02*
X74127383Y-37265715D01*
X74055954Y-38622858D02*
X75055954Y-38622858D01*
X74055954Y-37980000D02*
X74841668Y-37980000D01*
X74841668Y-37980000D02*
X74984526Y-38051429D01*
X74984526Y-38051429D02*
X75055954Y-38194286D01*
X75055954Y-38194286D02*
X75055954Y-38408572D01*
X75055954Y-38408572D02*
X74984526Y-38551429D01*
X74984526Y-38551429D02*
X74913097Y-38622858D01*
X75055954Y-39551429D02*
X74984526Y-39408572D01*
X74984526Y-39408572D02*
X74841668Y-39337143D01*
X74841668Y-39337143D02*
X73555954Y-39337143D01*
X74984526Y-40694286D02*
X75055954Y-40551429D01*
X75055954Y-40551429D02*
X75055954Y-40265715D01*
X75055954Y-40265715D02*
X74984526Y-40122857D01*
X74984526Y-40122857D02*
X74841668Y-40051429D01*
X74841668Y-40051429D02*
X74270240Y-40051429D01*
X74270240Y-40051429D02*
X74127383Y-40122857D01*
X74127383Y-40122857D02*
X74055954Y-40265715D01*
X74055954Y-40265715D02*
X74055954Y-40551429D01*
X74055954Y-40551429D02*
X74127383Y-40694286D01*
X74127383Y-40694286D02*
X74270240Y-40765715D01*
X74270240Y-40765715D02*
X74413097Y-40765715D01*
X74413097Y-40765715D02*
X74555954Y-40051429D01*
X77470870Y-17408572D02*
X76756584Y-16908572D01*
X77470870Y-16551429D02*
X75970870Y-16551429D01*
X75970870Y-16551429D02*
X75970870Y-17122858D01*
X75970870Y-17122858D02*
X76042299Y-17265715D01*
X76042299Y-17265715D02*
X76113727Y-17337144D01*
X76113727Y-17337144D02*
X76256584Y-17408572D01*
X76256584Y-17408572D02*
X76470870Y-17408572D01*
X76470870Y-17408572D02*
X76613727Y-17337144D01*
X76613727Y-17337144D02*
X76685156Y-17265715D01*
X76685156Y-17265715D02*
X76756584Y-17122858D01*
X76756584Y-17122858D02*
X76756584Y-16551429D01*
X77399442Y-18622858D02*
X77470870Y-18480001D01*
X77470870Y-18480001D02*
X77470870Y-18194287D01*
X77470870Y-18194287D02*
X77399442Y-18051429D01*
X77399442Y-18051429D02*
X77256584Y-17980001D01*
X77256584Y-17980001D02*
X76685156Y-17980001D01*
X76685156Y-17980001D02*
X76542299Y-18051429D01*
X76542299Y-18051429D02*
X76470870Y-18194287D01*
X76470870Y-18194287D02*
X76470870Y-18480001D01*
X76470870Y-18480001D02*
X76542299Y-18622858D01*
X76542299Y-18622858D02*
X76685156Y-18694287D01*
X76685156Y-18694287D02*
X76828013Y-18694287D01*
X76828013Y-18694287D02*
X76970870Y-17980001D01*
X76470870Y-19194286D02*
X77470870Y-19551429D01*
X77470870Y-19551429D02*
X76470870Y-19908572D01*
X77470870Y-20480000D02*
X76470870Y-20480000D01*
X75970870Y-20480000D02*
X76042299Y-20408572D01*
X76042299Y-20408572D02*
X76113727Y-20480000D01*
X76113727Y-20480000D02*
X76042299Y-20551429D01*
X76042299Y-20551429D02*
X75970870Y-20480000D01*
X75970870Y-20480000D02*
X76113727Y-20480000D01*
X77399442Y-21122858D02*
X77470870Y-21265715D01*
X77470870Y-21265715D02*
X77470870Y-21551429D01*
X77470870Y-21551429D02*
X77399442Y-21694286D01*
X77399442Y-21694286D02*
X77256584Y-21765715D01*
X77256584Y-21765715D02*
X77185156Y-21765715D01*
X77185156Y-21765715D02*
X77042299Y-21694286D01*
X77042299Y-21694286D02*
X76970870Y-21551429D01*
X76970870Y-21551429D02*
X76970870Y-21337144D01*
X76970870Y-21337144D02*
X76899442Y-21194286D01*
X76899442Y-21194286D02*
X76756584Y-21122858D01*
X76756584Y-21122858D02*
X76685156Y-21122858D01*
X76685156Y-21122858D02*
X76542299Y-21194286D01*
X76542299Y-21194286D02*
X76470870Y-21337144D01*
X76470870Y-21337144D02*
X76470870Y-21551429D01*
X76470870Y-21551429D02*
X76542299Y-21694286D01*
X77470870Y-22408572D02*
X76470870Y-22408572D01*
X75970870Y-22408572D02*
X76042299Y-22337144D01*
X76042299Y-22337144D02*
X76113727Y-22408572D01*
X76113727Y-22408572D02*
X76042299Y-22480001D01*
X76042299Y-22480001D02*
X75970870Y-22408572D01*
X75970870Y-22408572D02*
X76113727Y-22408572D01*
X77470870Y-23337144D02*
X77399442Y-23194287D01*
X77399442Y-23194287D02*
X77328013Y-23122858D01*
X77328013Y-23122858D02*
X77185156Y-23051430D01*
X77185156Y-23051430D02*
X76756584Y-23051430D01*
X76756584Y-23051430D02*
X76613727Y-23122858D01*
X76613727Y-23122858D02*
X76542299Y-23194287D01*
X76542299Y-23194287D02*
X76470870Y-23337144D01*
X76470870Y-23337144D02*
X76470870Y-23551430D01*
X76470870Y-23551430D02*
X76542299Y-23694287D01*
X76542299Y-23694287D02*
X76613727Y-23765716D01*
X76613727Y-23765716D02*
X76756584Y-23837144D01*
X76756584Y-23837144D02*
X77185156Y-23837144D01*
X77185156Y-23837144D02*
X77328013Y-23765716D01*
X77328013Y-23765716D02*
X77399442Y-23694287D01*
X77399442Y-23694287D02*
X77470870Y-23551430D01*
X77470870Y-23551430D02*
X77470870Y-23337144D01*
X76470870Y-24480001D02*
X77470870Y-24480001D01*
X76613727Y-24480001D02*
X76542299Y-24551430D01*
X76542299Y-24551430D02*
X76470870Y-24694287D01*
X76470870Y-24694287D02*
X76470870Y-24908573D01*
X76470870Y-24908573D02*
X76542299Y-25051430D01*
X76542299Y-25051430D02*
X76685156Y-25122859D01*
X76685156Y-25122859D02*
X77470870Y-25122859D01*
X77470870Y-27765716D02*
X77470870Y-26908573D01*
X77470870Y-27337144D02*
X75970870Y-27337144D01*
X75970870Y-27337144D02*
X76185156Y-27194287D01*
X76185156Y-27194287D02*
X76328013Y-27051430D01*
X76328013Y-27051430D02*
X76399442Y-26908573D01*
X77328013Y-28408572D02*
X77399442Y-28480001D01*
X77399442Y-28480001D02*
X77470870Y-28408572D01*
X77470870Y-28408572D02*
X77399442Y-28337144D01*
X77399442Y-28337144D02*
X77328013Y-28408572D01*
X77328013Y-28408572D02*
X77470870Y-28408572D01*
X75970870Y-29408573D02*
X75970870Y-29551430D01*
X75970870Y-29551430D02*
X76042299Y-29694287D01*
X76042299Y-29694287D02*
X76113727Y-29765716D01*
X76113727Y-29765716D02*
X76256584Y-29837144D01*
X76256584Y-29837144D02*
X76542299Y-29908573D01*
X76542299Y-29908573D02*
X76899442Y-29908573D01*
X76899442Y-29908573D02*
X77185156Y-29837144D01*
X77185156Y-29837144D02*
X77328013Y-29765716D01*
X77328013Y-29765716D02*
X77399442Y-29694287D01*
X77399442Y-29694287D02*
X77470870Y-29551430D01*
X77470870Y-29551430D02*
X77470870Y-29408573D01*
X77470870Y-29408573D02*
X77399442Y-29265716D01*
X77399442Y-29265716D02*
X77328013Y-29194287D01*
X77328013Y-29194287D02*
X77185156Y-29122858D01*
X77185156Y-29122858D02*
X76899442Y-29051430D01*
X76899442Y-29051430D02*
X76542299Y-29051430D01*
X76542299Y-29051430D02*
X76256584Y-29122858D01*
X76256584Y-29122858D02*
X76113727Y-29194287D01*
X76113727Y-29194287D02*
X76042299Y-29265716D01*
X76042299Y-29265716D02*
X75970870Y-29408573D01*
X76328013Y-32908572D02*
X76256584Y-32765715D01*
X76256584Y-32765715D02*
X76256584Y-32480001D01*
X76256584Y-32480001D02*
X76328013Y-32337144D01*
X76328013Y-32337144D02*
X76470870Y-32194286D01*
X76470870Y-32194286D02*
X76613727Y-32122858D01*
X76613727Y-32122858D02*
X76899442Y-32122858D01*
X76899442Y-32122858D02*
X77042299Y-32194286D01*
X77042299Y-32194286D02*
X77185156Y-32337144D01*
X77185156Y-32337144D02*
X77256584Y-32480001D01*
X77256584Y-32480001D02*
X77256584Y-32765715D01*
X77256584Y-32765715D02*
X77185156Y-32908572D01*
X75756584Y-32622858D02*
X75828013Y-32265715D01*
X75828013Y-32265715D02*
X76042299Y-31908572D01*
X76042299Y-31908572D02*
X76399442Y-31694286D01*
X76399442Y-31694286D02*
X76756584Y-31622858D01*
X76756584Y-31622858D02*
X77113727Y-31694286D01*
X77113727Y-31694286D02*
X77470870Y-31908572D01*
X77470870Y-31908572D02*
X77685156Y-32265715D01*
X77685156Y-32265715D02*
X77756584Y-32622858D01*
X77756584Y-32622858D02*
X77685156Y-32980001D01*
X77685156Y-32980001D02*
X77470870Y-33337144D01*
X77470870Y-33337144D02*
X77113727Y-33551429D01*
X77113727Y-33551429D02*
X76756584Y-33622858D01*
X76756584Y-33622858D02*
X76399442Y-33551429D01*
X76399442Y-33551429D02*
X76042299Y-33337144D01*
X76042299Y-33337144D02*
X75828013Y-32980001D01*
X75828013Y-32980001D02*
X75756584Y-32622858D01*
X76113727Y-35337144D02*
X76042299Y-35408572D01*
X76042299Y-35408572D02*
X75970870Y-35551430D01*
X75970870Y-35551430D02*
X75970870Y-35908572D01*
X75970870Y-35908572D02*
X76042299Y-36051430D01*
X76042299Y-36051430D02*
X76113727Y-36122858D01*
X76113727Y-36122858D02*
X76256584Y-36194287D01*
X76256584Y-36194287D02*
X76399442Y-36194287D01*
X76399442Y-36194287D02*
X76613727Y-36122858D01*
X76613727Y-36122858D02*
X77470870Y-35265715D01*
X77470870Y-35265715D02*
X77470870Y-36194287D01*
X75970870Y-37122858D02*
X75970870Y-37265715D01*
X75970870Y-37265715D02*
X76042299Y-37408572D01*
X76042299Y-37408572D02*
X76113727Y-37480001D01*
X76113727Y-37480001D02*
X76256584Y-37551429D01*
X76256584Y-37551429D02*
X76542299Y-37622858D01*
X76542299Y-37622858D02*
X76899442Y-37622858D01*
X76899442Y-37622858D02*
X77185156Y-37551429D01*
X77185156Y-37551429D02*
X77328013Y-37480001D01*
X77328013Y-37480001D02*
X77399442Y-37408572D01*
X77399442Y-37408572D02*
X77470870Y-37265715D01*
X77470870Y-37265715D02*
X77470870Y-37122858D01*
X77470870Y-37122858D02*
X77399442Y-36980001D01*
X77399442Y-36980001D02*
X77328013Y-36908572D01*
X77328013Y-36908572D02*
X77185156Y-36837143D01*
X77185156Y-36837143D02*
X76899442Y-36765715D01*
X76899442Y-36765715D02*
X76542299Y-36765715D01*
X76542299Y-36765715D02*
X76256584Y-36837143D01*
X76256584Y-36837143D02*
X76113727Y-36908572D01*
X76113727Y-36908572D02*
X76042299Y-36980001D01*
X76042299Y-36980001D02*
X75970870Y-37122858D01*
X76113727Y-38194286D02*
X76042299Y-38265714D01*
X76042299Y-38265714D02*
X75970870Y-38408572D01*
X75970870Y-38408572D02*
X75970870Y-38765714D01*
X75970870Y-38765714D02*
X76042299Y-38908572D01*
X76042299Y-38908572D02*
X76113727Y-38980000D01*
X76113727Y-38980000D02*
X76256584Y-39051429D01*
X76256584Y-39051429D02*
X76399442Y-39051429D01*
X76399442Y-39051429D02*
X76613727Y-38980000D01*
X76613727Y-38980000D02*
X77470870Y-38122857D01*
X77470870Y-38122857D02*
X77470870Y-39051429D01*
X75970870Y-40408571D02*
X75970870Y-39694285D01*
X75970870Y-39694285D02*
X76685156Y-39622857D01*
X76685156Y-39622857D02*
X76613727Y-39694285D01*
X76613727Y-39694285D02*
X76542299Y-39837143D01*
X76542299Y-39837143D02*
X76542299Y-40194285D01*
X76542299Y-40194285D02*
X76613727Y-40337143D01*
X76613727Y-40337143D02*
X76685156Y-40408571D01*
X76685156Y-40408571D02*
X76828013Y-40480000D01*
X76828013Y-40480000D02*
X77185156Y-40480000D01*
X77185156Y-40480000D02*
X77328013Y-40408571D01*
X77328013Y-40408571D02*
X77399442Y-40337143D01*
X77399442Y-40337143D02*
X77470870Y-40194285D01*
X77470870Y-40194285D02*
X77470870Y-39837143D01*
X77470870Y-39837143D02*
X77399442Y-39694285D01*
X77399442Y-39694285D02*
X77328013Y-39622857D01*
X79100072Y-21337142D02*
X79100072Y-21837142D01*
X79885786Y-22051428D02*
X79885786Y-21337142D01*
X79885786Y-21337142D02*
X78385786Y-21337142D01*
X78385786Y-21337142D02*
X78385786Y-22051428D01*
X79885786Y-22694285D02*
X78885786Y-22694285D01*
X78385786Y-22694285D02*
X78457215Y-22622857D01*
X78457215Y-22622857D02*
X78528643Y-22694285D01*
X78528643Y-22694285D02*
X78457215Y-22765714D01*
X78457215Y-22765714D02*
X78385786Y-22694285D01*
X78385786Y-22694285D02*
X78528643Y-22694285D01*
X78885786Y-23265714D02*
X79885786Y-23622857D01*
X79885786Y-23622857D02*
X78885786Y-23980000D01*
X79885786Y-24551428D02*
X78885786Y-24551428D01*
X78385786Y-24551428D02*
X78457215Y-24480000D01*
X78457215Y-24480000D02*
X78528643Y-24551428D01*
X78528643Y-24551428D02*
X78457215Y-24622857D01*
X78457215Y-24622857D02*
X78385786Y-24551428D01*
X78385786Y-24551428D02*
X78528643Y-24551428D01*
X78885786Y-25265714D02*
X79885786Y-25265714D01*
X79028643Y-25265714D02*
X78957215Y-25337143D01*
X78957215Y-25337143D02*
X78885786Y-25480000D01*
X78885786Y-25480000D02*
X78885786Y-25694286D01*
X78885786Y-25694286D02*
X78957215Y-25837143D01*
X78957215Y-25837143D02*
X79100072Y-25908572D01*
X79100072Y-25908572D02*
X79885786Y-25908572D01*
X79885786Y-27265715D02*
X78385786Y-27265715D01*
X79814358Y-27265715D02*
X79885786Y-27122857D01*
X79885786Y-27122857D02*
X79885786Y-26837143D01*
X79885786Y-26837143D02*
X79814358Y-26694286D01*
X79814358Y-26694286D02*
X79742929Y-26622857D01*
X79742929Y-26622857D02*
X79600072Y-26551429D01*
X79600072Y-26551429D02*
X79171500Y-26551429D01*
X79171500Y-26551429D02*
X79028643Y-26622857D01*
X79028643Y-26622857D02*
X78957215Y-26694286D01*
X78957215Y-26694286D02*
X78885786Y-26837143D01*
X78885786Y-26837143D02*
X78885786Y-27122857D01*
X78885786Y-27122857D02*
X78957215Y-27265715D01*
X79100072Y-29622857D02*
X79171500Y-29837143D01*
X79171500Y-29837143D02*
X79242929Y-29908572D01*
X79242929Y-29908572D02*
X79385786Y-29980000D01*
X79385786Y-29980000D02*
X79600072Y-29980000D01*
X79600072Y-29980000D02*
X79742929Y-29908572D01*
X79742929Y-29908572D02*
X79814358Y-29837143D01*
X79814358Y-29837143D02*
X79885786Y-29694286D01*
X79885786Y-29694286D02*
X79885786Y-29122857D01*
X79885786Y-29122857D02*
X78385786Y-29122857D01*
X78385786Y-29122857D02*
X78385786Y-29622857D01*
X78385786Y-29622857D02*
X78457215Y-29765715D01*
X78457215Y-29765715D02*
X78528643Y-29837143D01*
X78528643Y-29837143D02*
X78671500Y-29908572D01*
X78671500Y-29908572D02*
X78814358Y-29908572D01*
X78814358Y-29908572D02*
X78957215Y-29837143D01*
X78957215Y-29837143D02*
X79028643Y-29765715D01*
X79028643Y-29765715D02*
X79100072Y-29622857D01*
X79100072Y-29622857D02*
X79100072Y-29122857D01*
X78885786Y-31408572D02*
X79885786Y-30480000D01*
X79885786Y-30837143D02*
X79814358Y-30694286D01*
X79814358Y-30694286D02*
X79742929Y-30622857D01*
X79742929Y-30622857D02*
X79600072Y-30551429D01*
X79600072Y-30551429D02*
X79171500Y-30551429D01*
X79171500Y-30551429D02*
X79028643Y-30622857D01*
X79028643Y-30622857D02*
X78957215Y-30694286D01*
X78957215Y-30694286D02*
X78885786Y-30837143D01*
X78885786Y-30837143D02*
X78885786Y-31051429D01*
X78885786Y-31051429D02*
X78957215Y-31194286D01*
X78957215Y-31194286D02*
X79028643Y-31265715D01*
X79028643Y-31265715D02*
X79171500Y-31337143D01*
X79171500Y-31337143D02*
X79600072Y-31337143D01*
X79600072Y-31337143D02*
X79742929Y-31265715D01*
X79742929Y-31265715D02*
X79814358Y-31194286D01*
X79814358Y-31194286D02*
X79885786Y-31051429D01*
X79885786Y-31051429D02*
X79885786Y-30837143D01*
X79885786Y-31980000D02*
X78385786Y-31980000D01*
X79885786Y-32622858D02*
X79100072Y-32622858D01*
X79100072Y-32622858D02*
X78957215Y-32551429D01*
X78957215Y-32551429D02*
X78885786Y-32408572D01*
X78885786Y-32408572D02*
X78885786Y-32194286D01*
X78885786Y-32194286D02*
X78957215Y-32051429D01*
X78957215Y-32051429D02*
X79028643Y-31980000D01*
X79885786Y-33551429D02*
X79814358Y-33408572D01*
X79814358Y-33408572D02*
X79671500Y-33337143D01*
X79671500Y-33337143D02*
X78385786Y-33337143D01*
X79814358Y-34694286D02*
X79885786Y-34551429D01*
X79885786Y-34551429D02*
X79885786Y-34265715D01*
X79885786Y-34265715D02*
X79814358Y-34122857D01*
X79814358Y-34122857D02*
X79671500Y-34051429D01*
X79671500Y-34051429D02*
X79100072Y-34051429D01*
X79100072Y-34051429D02*
X78957215Y-34122857D01*
X78957215Y-34122857D02*
X78885786Y-34265715D01*
X78885786Y-34265715D02*
X78885786Y-34551429D01*
X78885786Y-34551429D02*
X78957215Y-34694286D01*
X78957215Y-34694286D02*
X79100072Y-34765715D01*
X79100072Y-34765715D02*
X79242929Y-34765715D01*
X79242929Y-34765715D02*
X79385786Y-34051429D01*
X79885786Y-35408571D02*
X78885786Y-35408571D01*
X79171500Y-35408571D02*
X79028643Y-35480000D01*
X79028643Y-35480000D02*
X78957215Y-35551429D01*
X78957215Y-35551429D02*
X78885786Y-35694286D01*
X78885786Y-35694286D02*
X78885786Y-35837143D01*
X82300702Y-20408571D02*
X81300702Y-20408571D01*
X81586416Y-20408571D02*
X81443559Y-20480000D01*
X81443559Y-20480000D02*
X81372131Y-20551429D01*
X81372131Y-20551429D02*
X81300702Y-20694286D01*
X81300702Y-20694286D02*
X81300702Y-20837143D01*
X82229274Y-21908571D02*
X82300702Y-21765714D01*
X82300702Y-21765714D02*
X82300702Y-21480000D01*
X82300702Y-21480000D02*
X82229274Y-21337142D01*
X82229274Y-21337142D02*
X82086416Y-21265714D01*
X82086416Y-21265714D02*
X81514988Y-21265714D01*
X81514988Y-21265714D02*
X81372131Y-21337142D01*
X81372131Y-21337142D02*
X81300702Y-21480000D01*
X81300702Y-21480000D02*
X81300702Y-21765714D01*
X81300702Y-21765714D02*
X81372131Y-21908571D01*
X81372131Y-21908571D02*
X81514988Y-21980000D01*
X81514988Y-21980000D02*
X81657845Y-21980000D01*
X81657845Y-21980000D02*
X81800702Y-21265714D01*
X81300702Y-22408571D02*
X81300702Y-22979999D01*
X80800702Y-22622856D02*
X82086416Y-22622856D01*
X82086416Y-22622856D02*
X82229274Y-22694285D01*
X82229274Y-22694285D02*
X82300702Y-22837142D01*
X82300702Y-22837142D02*
X82300702Y-22979999D01*
X82300702Y-23479999D02*
X81300702Y-23479999D01*
X81586416Y-23479999D02*
X81443559Y-23551428D01*
X81443559Y-23551428D02*
X81372131Y-23622857D01*
X81372131Y-23622857D02*
X81300702Y-23765714D01*
X81300702Y-23765714D02*
X81300702Y-23908571D01*
X82300702Y-24622856D02*
X82229274Y-24479999D01*
X82229274Y-24479999D02*
X82157845Y-24408570D01*
X82157845Y-24408570D02*
X82014988Y-24337142D01*
X82014988Y-24337142D02*
X81586416Y-24337142D01*
X81586416Y-24337142D02*
X81443559Y-24408570D01*
X81443559Y-24408570D02*
X81372131Y-24479999D01*
X81372131Y-24479999D02*
X81300702Y-24622856D01*
X81300702Y-24622856D02*
X81300702Y-24837142D01*
X81300702Y-24837142D02*
X81372131Y-24979999D01*
X81372131Y-24979999D02*
X81443559Y-25051428D01*
X81443559Y-25051428D02*
X81586416Y-25122856D01*
X81586416Y-25122856D02*
X82014988Y-25122856D01*
X82014988Y-25122856D02*
X82157845Y-25051428D01*
X82157845Y-25051428D02*
X82229274Y-24979999D01*
X82229274Y-24979999D02*
X82300702Y-24837142D01*
X82300702Y-24837142D02*
X82300702Y-24622856D01*
X82300702Y-26408571D02*
X80800702Y-26408571D01*
X82229274Y-26408571D02*
X82300702Y-26265713D01*
X82300702Y-26265713D02*
X82300702Y-25979999D01*
X82300702Y-25979999D02*
X82229274Y-25837142D01*
X82229274Y-25837142D02*
X82157845Y-25765713D01*
X82157845Y-25765713D02*
X82014988Y-25694285D01*
X82014988Y-25694285D02*
X81586416Y-25694285D01*
X81586416Y-25694285D02*
X81443559Y-25765713D01*
X81443559Y-25765713D02*
X81372131Y-25837142D01*
X81372131Y-25837142D02*
X81300702Y-25979999D01*
X81300702Y-25979999D02*
X81300702Y-26265713D01*
X81300702Y-26265713D02*
X81372131Y-26408571D01*
X82300702Y-27122856D02*
X81300702Y-27122856D01*
X81586416Y-27122856D02*
X81443559Y-27194285D01*
X81443559Y-27194285D02*
X81372131Y-27265714D01*
X81372131Y-27265714D02*
X81300702Y-27408571D01*
X81300702Y-27408571D02*
X81300702Y-27551428D01*
X82229274Y-28622856D02*
X82300702Y-28479999D01*
X82300702Y-28479999D02*
X82300702Y-28194285D01*
X82300702Y-28194285D02*
X82229274Y-28051427D01*
X82229274Y-28051427D02*
X82086416Y-27979999D01*
X82086416Y-27979999D02*
X81514988Y-27979999D01*
X81514988Y-27979999D02*
X81372131Y-28051427D01*
X81372131Y-28051427D02*
X81300702Y-28194285D01*
X81300702Y-28194285D02*
X81300702Y-28479999D01*
X81300702Y-28479999D02*
X81372131Y-28622856D01*
X81372131Y-28622856D02*
X81514988Y-28694285D01*
X81514988Y-28694285D02*
X81657845Y-28694285D01*
X81657845Y-28694285D02*
X81800702Y-27979999D01*
X82300702Y-29979999D02*
X81514988Y-29979999D01*
X81514988Y-29979999D02*
X81372131Y-29908570D01*
X81372131Y-29908570D02*
X81300702Y-29765713D01*
X81300702Y-29765713D02*
X81300702Y-29479999D01*
X81300702Y-29479999D02*
X81372131Y-29337141D01*
X82229274Y-29979999D02*
X82300702Y-29837141D01*
X82300702Y-29837141D02*
X82300702Y-29479999D01*
X82300702Y-29479999D02*
X82229274Y-29337141D01*
X82229274Y-29337141D02*
X82086416Y-29265713D01*
X82086416Y-29265713D02*
X81943559Y-29265713D01*
X81943559Y-29265713D02*
X81800702Y-29337141D01*
X81800702Y-29337141D02*
X81729274Y-29479999D01*
X81729274Y-29479999D02*
X81729274Y-29837141D01*
X81729274Y-29837141D02*
X81657845Y-29979999D01*
X82300702Y-30694284D02*
X81300702Y-30694284D01*
X81443559Y-30694284D02*
X81372131Y-30765713D01*
X81372131Y-30765713D02*
X81300702Y-30908570D01*
X81300702Y-30908570D02*
X81300702Y-31122856D01*
X81300702Y-31122856D02*
X81372131Y-31265713D01*
X81372131Y-31265713D02*
X81514988Y-31337142D01*
X81514988Y-31337142D02*
X82300702Y-31337142D01*
X81514988Y-31337142D02*
X81372131Y-31408570D01*
X81372131Y-31408570D02*
X81300702Y-31551427D01*
X81300702Y-31551427D02*
X81300702Y-31765713D01*
X81300702Y-31765713D02*
X81372131Y-31908570D01*
X81372131Y-31908570D02*
X81514988Y-31979999D01*
X81514988Y-31979999D02*
X82300702Y-31979999D01*
X82229274Y-32622856D02*
X82300702Y-32765713D01*
X82300702Y-32765713D02*
X82300702Y-33051427D01*
X82300702Y-33051427D02*
X82229274Y-33194284D01*
X82229274Y-33194284D02*
X82086416Y-33265713D01*
X82086416Y-33265713D02*
X82014988Y-33265713D01*
X82014988Y-33265713D02*
X81872131Y-33194284D01*
X81872131Y-33194284D02*
X81800702Y-33051427D01*
X81800702Y-33051427D02*
X81800702Y-32837142D01*
X81800702Y-32837142D02*
X81729274Y-32694284D01*
X81729274Y-32694284D02*
X81586416Y-32622856D01*
X81586416Y-32622856D02*
X81514988Y-32622856D01*
X81514988Y-32622856D02*
X81372131Y-32694284D01*
X81372131Y-32694284D02*
X81300702Y-32837142D01*
X81300702Y-32837142D02*
X81300702Y-33051427D01*
X81300702Y-33051427D02*
X81372131Y-33194284D01*
X82157845Y-33908570D02*
X82229274Y-33979999D01*
X82229274Y-33979999D02*
X82300702Y-33908570D01*
X82300702Y-33908570D02*
X82229274Y-33837142D01*
X82229274Y-33837142D02*
X82157845Y-33908570D01*
X82157845Y-33908570D02*
X82300702Y-33908570D01*
X82229274Y-35265714D02*
X82300702Y-35122856D01*
X82300702Y-35122856D02*
X82300702Y-34837142D01*
X82300702Y-34837142D02*
X82229274Y-34694285D01*
X82229274Y-34694285D02*
X82157845Y-34622856D01*
X82157845Y-34622856D02*
X82014988Y-34551428D01*
X82014988Y-34551428D02*
X81586416Y-34551428D01*
X81586416Y-34551428D02*
X81443559Y-34622856D01*
X81443559Y-34622856D02*
X81372131Y-34694285D01*
X81372131Y-34694285D02*
X81300702Y-34837142D01*
X81300702Y-34837142D02*
X81300702Y-35122856D01*
X81300702Y-35122856D02*
X81372131Y-35265714D01*
X82300702Y-36551428D02*
X81514988Y-36551428D01*
X81514988Y-36551428D02*
X81372131Y-36479999D01*
X81372131Y-36479999D02*
X81300702Y-36337142D01*
X81300702Y-36337142D02*
X81300702Y-36051428D01*
X81300702Y-36051428D02*
X81372131Y-35908570D01*
X82229274Y-36551428D02*
X82300702Y-36408570D01*
X82300702Y-36408570D02*
X82300702Y-36051428D01*
X82300702Y-36051428D02*
X82229274Y-35908570D01*
X82229274Y-35908570D02*
X82086416Y-35837142D01*
X82086416Y-35837142D02*
X81943559Y-35837142D01*
X81943559Y-35837142D02*
X81800702Y-35908570D01*
X81800702Y-35908570D02*
X81729274Y-36051428D01*
X81729274Y-36051428D02*
X81729274Y-36408570D01*
X81729274Y-36408570D02*
X81657845Y-36551428D01*
%LPC*%
D11*
X33360000Y-47730000D03*
X33360000Y-50270000D03*
X30820000Y-47730000D03*
X30820000Y-50270000D03*
X28280000Y-47730000D03*
X28280000Y-50270000D03*
X25740000Y-47730000D03*
X25740000Y-50270000D03*
X23200000Y-47730000D03*
X23200000Y-50270000D03*
X20660000Y-47730000D03*
X20660000Y-50270000D03*
X18120000Y-47730000D03*
X18120000Y-50270000D03*
X15580000Y-47730000D03*
X15580000Y-50270000D03*
X13040000Y-47730000D03*
X13040000Y-50270000D03*
X10500000Y-47730000D03*
D12*
X10500000Y-50270000D03*
D11*
X89360000Y-47730000D03*
X89360000Y-50270000D03*
X86820000Y-47730000D03*
X86820000Y-50270000D03*
X84280000Y-47730000D03*
X84280000Y-50270000D03*
X81740000Y-47730000D03*
X81740000Y-50270000D03*
X79200000Y-47730000D03*
X79200000Y-50270000D03*
X76660000Y-47730000D03*
X76660000Y-50270000D03*
X74120000Y-47730000D03*
X74120000Y-50270000D03*
X71580000Y-47730000D03*
X71580000Y-50270000D03*
X69040000Y-47730000D03*
X69040000Y-50270000D03*
X66500000Y-47730000D03*
D12*
X66500000Y-50270000D03*
D11*
X33360000Y-10730000D03*
X33360000Y-13270000D03*
X30820000Y-10730000D03*
X30820000Y-13270000D03*
X28280000Y-10730000D03*
X28280000Y-13270000D03*
X25740000Y-10730000D03*
X25740000Y-13270000D03*
X23200000Y-10730000D03*
X23200000Y-13270000D03*
X20660000Y-10730000D03*
X20660000Y-13270000D03*
X18120000Y-10730000D03*
X18120000Y-13270000D03*
X15580000Y-10730000D03*
X15580000Y-13270000D03*
X13040000Y-10730000D03*
X13040000Y-13270000D03*
X10500000Y-10730000D03*
D12*
X10500000Y-13270000D03*
D11*
X61360000Y-47730000D03*
X61360000Y-50270000D03*
X58820000Y-47730000D03*
X58820000Y-50270000D03*
X56280000Y-47730000D03*
X56280000Y-50270000D03*
X53740000Y-47730000D03*
X53740000Y-50270000D03*
X51200000Y-47730000D03*
X51200000Y-50270000D03*
X48660000Y-47730000D03*
X48660000Y-50270000D03*
X46120000Y-47730000D03*
X46120000Y-50270000D03*
X43580000Y-47730000D03*
X43580000Y-50270000D03*
X41040000Y-47730000D03*
X41040000Y-50270000D03*
X38500000Y-47730000D03*
D12*
X38500000Y-50270000D03*
D11*
X61360000Y-10730000D03*
X61360000Y-13270000D03*
X58820000Y-10730000D03*
X58820000Y-13270000D03*
X56280000Y-10730000D03*
X56280000Y-13270000D03*
X53740000Y-10730000D03*
X53740000Y-13270000D03*
X51200000Y-10730000D03*
X51200000Y-13270000D03*
X48660000Y-10730000D03*
X48660000Y-13270000D03*
X46120000Y-10730000D03*
X46120000Y-13270000D03*
X43580000Y-10730000D03*
X43580000Y-13270000D03*
X41040000Y-10730000D03*
X41040000Y-13270000D03*
X38500000Y-10730000D03*
D12*
X38500000Y-13270000D03*
D11*
X89360000Y-10730000D03*
X89360000Y-13270000D03*
X86820000Y-10730000D03*
X86820000Y-13270000D03*
X84280000Y-10730000D03*
X84280000Y-13270000D03*
X81740000Y-10730000D03*
X81740000Y-13270000D03*
X79200000Y-10730000D03*
X79200000Y-13270000D03*
X76660000Y-10730000D03*
X76660000Y-13270000D03*
X74120000Y-10730000D03*
X74120000Y-13270000D03*
X71580000Y-10730000D03*
X71580000Y-13270000D03*
X69040000Y-10730000D03*
X69040000Y-13270000D03*
X66500000Y-10730000D03*
D12*
X66500000Y-13270000D03*
D13*
X93300000Y-9000000D03*
X94100000Y-9000000D03*
X94900000Y-9000000D03*
X95700000Y-9000000D03*
X96500000Y-9000000D03*
X97300000Y-9000000D03*
X98100000Y-9000000D03*
X98900000Y-9000000D03*
X99700000Y-9000000D03*
X91000000Y-24100000D03*
X91000000Y-24900000D03*
X91000000Y-25700000D03*
X91000000Y-26500000D03*
X91000000Y-27300000D03*
X91000000Y-28100000D03*
X91000000Y-28900000D03*
X80400000Y-81200000D03*
X79600000Y-81200000D03*
X78800000Y-81200000D03*
X78000000Y-81200000D03*
X77200000Y-81200000D03*
X76400000Y-81200000D03*
X75600000Y-81200000D03*
X65000000Y-65900000D03*
X65000000Y-65100000D03*
X65000000Y-64300000D03*
X65000000Y-63500000D03*
X65000000Y-62700000D03*
X65000000Y-61900000D03*
X65000000Y-61100000D03*
X63000000Y-65900000D03*
X63000000Y-65100000D03*
X63000000Y-64300000D03*
X63000000Y-63500000D03*
X63000000Y-62700000D03*
X63000000Y-61900000D03*
X63000000Y-61100000D03*
X75600000Y-9000000D03*
X76400000Y-9000000D03*
X77200000Y-9000000D03*
X78000000Y-9000000D03*
X78800000Y-9000000D03*
X79600000Y-9000000D03*
X80400000Y-9000000D03*
X9000000Y-65900000D03*
X9000000Y-65100000D03*
X9000000Y-64300000D03*
X9000000Y-63500000D03*
X9000000Y-62700000D03*
X9000000Y-61900000D03*
X9000000Y-61100000D03*
X19600000Y-46000000D03*
X20400000Y-46000000D03*
X21200000Y-46000000D03*
X22000000Y-46000000D03*
X22800000Y-46000000D03*
X23600000Y-46000000D03*
X24400000Y-46000000D03*
X19600000Y-44200000D03*
X20400000Y-44200000D03*
X21200000Y-44200000D03*
X22000000Y-44200000D03*
X22800000Y-44200000D03*
X23600000Y-44200000D03*
X24400000Y-44200000D03*
X37000000Y-28900000D03*
X37000000Y-28100000D03*
X37000000Y-27300000D03*
X37000000Y-26500000D03*
X37000000Y-25700000D03*
X37000000Y-24900000D03*
X37000000Y-24100000D03*
X35000000Y-28900000D03*
X35000000Y-28100000D03*
X35000000Y-27300000D03*
X35000000Y-26500000D03*
X35000000Y-25700000D03*
X35000000Y-24900000D03*
X35000000Y-24100000D03*
X47600000Y-46000000D03*
X48400000Y-46000000D03*
X49200000Y-46000000D03*
X50000000Y-46000000D03*
X50800000Y-46000000D03*
X51600000Y-46000000D03*
X52400000Y-46000000D03*
X47600000Y-44200000D03*
X48400000Y-44200000D03*
X49200000Y-44200000D03*
X50000000Y-44200000D03*
X50800000Y-44200000D03*
X51600000Y-44200000D03*
X52400000Y-44200000D03*
X9000000Y-28900000D03*
X9000000Y-28100000D03*
X9000000Y-27300000D03*
X9000000Y-26500000D03*
X9000000Y-25700000D03*
X9000000Y-24900000D03*
X9000000Y-24100000D03*
X75600000Y-46000000D03*
X76400000Y-46000000D03*
X77200000Y-46000000D03*
X78000000Y-46000000D03*
X78800000Y-46000000D03*
X79600000Y-46000000D03*
X80400000Y-46000000D03*
X75600000Y-44200000D03*
X76400000Y-44200000D03*
X77200000Y-44200000D03*
X78000000Y-44200000D03*
X78800000Y-44200000D03*
X79600000Y-44200000D03*
X80400000Y-44200000D03*
X93300000Y-81200000D03*
X94100000Y-81200000D03*
X94900000Y-81200000D03*
X95700000Y-81200000D03*
X96500000Y-81200000D03*
X97300000Y-81200000D03*
X98100000Y-81200000D03*
X98900000Y-81200000D03*
X99700000Y-81200000D03*
X91000000Y-61100000D03*
X91000000Y-61900000D03*
X91000000Y-62700000D03*
X91000000Y-63500000D03*
X91000000Y-64300000D03*
X91000000Y-65100000D03*
X91000000Y-65900000D03*
X300000Y-81200000D03*
X1100000Y-81200000D03*
X1900000Y-81200000D03*
X2700000Y-81200000D03*
X3500000Y-81200000D03*
X4300000Y-81200000D03*
X5100000Y-81200000D03*
X5900000Y-81200000D03*
X6700000Y-81200000D03*
X37000000Y-65900000D03*
X37000000Y-65100000D03*
X37000000Y-64300000D03*
X37000000Y-63500000D03*
X37000000Y-62700000D03*
X37000000Y-61900000D03*
X37000000Y-61100000D03*
X35000000Y-65900000D03*
X35000000Y-65100000D03*
X35000000Y-64300000D03*
X35000000Y-63500000D03*
X35000000Y-62700000D03*
X35000000Y-61900000D03*
X35000000Y-61100000D03*
X47600000Y-9000000D03*
X48400000Y-9000000D03*
X49200000Y-9000000D03*
X50000000Y-9000000D03*
X50800000Y-9000000D03*
X51600000Y-9000000D03*
X52400000Y-9000000D03*
X19600000Y-9000000D03*
X20400000Y-9000000D03*
X21200000Y-9000000D03*
X22000000Y-9000000D03*
X22800000Y-9000000D03*
X23600000Y-9000000D03*
X24400000Y-9000000D03*
X24400000Y-81200000D03*
X23600000Y-81200000D03*
X22800000Y-81200000D03*
X22000000Y-81200000D03*
X21200000Y-81200000D03*
X20400000Y-81200000D03*
X19600000Y-81200000D03*
X300000Y-9000000D03*
X1100000Y-9000000D03*
X1900000Y-9000000D03*
X2700000Y-9000000D03*
X3500000Y-9000000D03*
X4300000Y-9000000D03*
X5100000Y-9000000D03*
X5900000Y-9000000D03*
X6700000Y-9000000D03*
X52400000Y-81200000D03*
X51600000Y-81200000D03*
X50800000Y-81200000D03*
X50000000Y-81200000D03*
X49200000Y-81200000D03*
X48400000Y-81200000D03*
X47600000Y-81200000D03*
X65000000Y-28900000D03*
X65000000Y-28100000D03*
X65000000Y-27300000D03*
X65000000Y-26500000D03*
X65000000Y-25700000D03*
X65000000Y-24900000D03*
X65000000Y-24100000D03*
X63000000Y-28900000D03*
X63000000Y-28100000D03*
X63000000Y-27300000D03*
X63000000Y-26500000D03*
X63000000Y-25700000D03*
X63000000Y-24900000D03*
X63000000Y-24100000D03*
%LPD*%
M02*
