G04 #@! TF.GenerationSoftware,KiCad,Pcbnew,8.0.8*
G04 #@! TF.CreationDate,2025-02-10T00:15:00+01:00*
G04 #@! TF.ProjectId,opl3module,6f706c33-6d6f-4647-956c-652e6b696361,1.2*
G04 #@! TF.SameCoordinates,Original*
G04 #@! TF.FileFunction,Paste,Top*
G04 #@! TF.FilePolarity,Positive*
%FSLAX46Y46*%
G04 Gerber Fmt 4.6, Leading zero omitted, Abs format (unit mm)*
G04 Created by KiCad (PCBNEW 8.0.8) date 2025-02-10 00:15:00*
%MOMM*%
%LPD*%
G01*
G04 APERTURE LIST*
G04 Aperture macros list*
%AMRoundRect*
0 Rectangle with rounded corners*
0 $1 Rounding radius*
0 $2 $3 $4 $5 $6 $7 $8 $9 X,Y pos of 4 corners*
0 Add a 4 corners polygon primitive as box body*
4,1,4,$2,$3,$4,$5,$6,$7,$8,$9,$2,$3,0*
0 Add four circle primitives for the rounded corners*
1,1,$1+$1,$2,$3*
1,1,$1+$1,$4,$5*
1,1,$1+$1,$6,$7*
1,1,$1+$1,$8,$9*
0 Add four rect primitives between the rounded corners*
20,1,$1+$1,$2,$3,$4,$5,0*
20,1,$1+$1,$4,$5,$6,$7,0*
20,1,$1+$1,$6,$7,$8,$9,0*
20,1,$1+$1,$8,$9,$2,$3,0*%
G04 Aperture macros list end*
%ADD10R,1.700000X2.100000*%
%ADD11RoundRect,0.140000X0.170000X-0.140000X0.170000X0.140000X-0.170000X0.140000X-0.170000X-0.140000X0*%
%ADD12RoundRect,0.225000X0.250000X-0.225000X0.250000X0.225000X-0.250000X0.225000X-0.250000X-0.225000X0*%
%ADD13RoundRect,0.135000X-0.185000X0.135000X-0.185000X-0.135000X0.185000X-0.135000X0.185000X0.135000X0*%
%ADD14RoundRect,0.140000X0.140000X0.170000X-0.140000X0.170000X-0.140000X-0.170000X0.140000X-0.170000X0*%
%ADD15RoundRect,0.162500X-0.162500X1.462500X-0.162500X-1.462500X0.162500X-1.462500X0.162500X1.462500X0*%
%ADD16RoundRect,0.162500X-0.162500X1.337500X-0.162500X-1.337500X0.162500X-1.337500X0.162500X1.337500X0*%
%ADD17RoundRect,0.135000X0.185000X-0.135000X0.185000X0.135000X-0.185000X0.135000X-0.185000X-0.135000X0*%
%ADD18RoundRect,0.225000X-0.250000X0.225000X-0.250000X-0.225000X0.250000X-0.225000X0.250000X0.225000X0*%
%ADD19RoundRect,0.150000X-0.150000X0.825000X-0.150000X-0.825000X0.150000X-0.825000X0.150000X0.825000X0*%
G04 APERTURE END LIST*
D10*
X86150000Y-56780000D03*
X86150000Y-62680000D03*
X88850000Y-62680000D03*
X88850000Y-56780000D03*
X86150000Y-19780000D03*
X86150000Y-25680000D03*
X88850000Y-25680000D03*
X88850000Y-19780000D03*
X58150000Y-56780000D03*
X58150000Y-62680000D03*
X60850000Y-62680000D03*
X60850000Y-56780000D03*
X58150000Y-19780000D03*
X58150000Y-25680000D03*
X60850000Y-25680000D03*
X60850000Y-19780000D03*
X30150000Y-56780000D03*
X30150000Y-62680000D03*
X32850000Y-62680000D03*
X32850000Y-56780000D03*
X30150000Y-19780000D03*
X30150000Y-25680000D03*
X32850000Y-25680000D03*
X32850000Y-19780000D03*
D11*
X22750000Y-34315000D03*
X22750000Y-33355000D03*
D12*
X78750000Y-78310000D03*
X78750000Y-76760000D03*
D13*
X89250000Y-42075000D03*
X89250000Y-43095000D03*
D11*
X84700000Y-54710000D03*
X84700000Y-53750000D03*
D12*
X22750000Y-78310000D03*
X22750000Y-76760000D03*
D13*
X89250000Y-79075000D03*
X89250000Y-80095000D03*
D12*
X89660000Y-40110000D03*
X89660000Y-38560000D03*
D14*
X59980000Y-32835000D03*
X59020000Y-32835000D03*
D12*
X61660000Y-40110000D03*
X61660000Y-38560000D03*
D15*
X54985000Y-55005000D03*
X53715000Y-55005000D03*
X52445000Y-55005000D03*
X51175000Y-55005000D03*
X49905000Y-55005000D03*
X48635000Y-55005000D03*
X47365000Y-55005000D03*
X46095000Y-55005000D03*
X44825000Y-55005000D03*
X43555000Y-55005000D03*
X42285000Y-55005000D03*
X41015000Y-55005000D03*
X41015000Y-65455000D03*
X42285000Y-65455000D03*
X43555000Y-65455000D03*
X44825000Y-65455000D03*
X46095000Y-65455000D03*
X47365000Y-65455000D03*
X48635000Y-65455000D03*
X49905000Y-65455000D03*
X51175000Y-65455000D03*
X52445000Y-65455000D03*
X53715000Y-65455000D03*
X54985000Y-65455000D03*
D11*
X22750000Y-71315000D03*
X22750000Y-70355000D03*
X78750000Y-75315000D03*
X78750000Y-74355000D03*
D13*
X33250000Y-42075000D03*
X33250000Y-43095000D03*
D14*
X59980000Y-17500000D03*
X59020000Y-17500000D03*
D11*
X56700000Y-54710000D03*
X56700000Y-53750000D03*
D13*
X61250000Y-79075000D03*
X61250000Y-80095000D03*
D14*
X87980000Y-32835000D03*
X87020000Y-32835000D03*
X87980000Y-54500000D03*
X87020000Y-54500000D03*
X31980000Y-54500000D03*
X31020000Y-54500000D03*
D15*
X26985000Y-55005000D03*
X25715000Y-55005000D03*
X24445000Y-55005000D03*
X23175000Y-55005000D03*
X21905000Y-55005000D03*
X20635000Y-55005000D03*
X19365000Y-55005000D03*
X18095000Y-55005000D03*
X16825000Y-55005000D03*
X15555000Y-55005000D03*
X14285000Y-55005000D03*
X13015000Y-55005000D03*
X13015000Y-65455000D03*
X14285000Y-65455000D03*
X15555000Y-65455000D03*
X16825000Y-65455000D03*
X18095000Y-65455000D03*
X19365000Y-65455000D03*
X20635000Y-65455000D03*
X21905000Y-65455000D03*
X23175000Y-65455000D03*
X24445000Y-65455000D03*
X25715000Y-65455000D03*
X26985000Y-65455000D03*
D11*
X84700000Y-17710000D03*
X84700000Y-16750000D03*
D13*
X55750000Y-41975000D03*
X55750000Y-42995000D03*
X50750000Y-35325000D03*
X50750000Y-36345000D03*
X50750000Y-72325000D03*
X50750000Y-73345000D03*
D16*
X48945000Y-33385000D03*
X47675000Y-33385000D03*
X46405000Y-33385000D03*
X45135000Y-33385000D03*
X43865000Y-33385000D03*
X42595000Y-33385000D03*
X41325000Y-33385000D03*
X40055000Y-33385000D03*
X40055000Y-41285000D03*
X41325000Y-41285000D03*
X42595000Y-41285000D03*
X43865000Y-41285000D03*
X45135000Y-41285000D03*
X46405000Y-41285000D03*
X47675000Y-41285000D03*
X48945000Y-41285000D03*
D13*
X90000000Y-67470000D03*
X90000000Y-68490000D03*
D17*
X88250000Y-43095000D03*
X88250000Y-42075000D03*
D15*
X82985000Y-18005000D03*
X81715000Y-18005000D03*
X80445000Y-18005000D03*
X79175000Y-18005000D03*
X77905000Y-18005000D03*
X76635000Y-18005000D03*
X75365000Y-18005000D03*
X74095000Y-18005000D03*
X72825000Y-18005000D03*
X71555000Y-18005000D03*
X70285000Y-18005000D03*
X69015000Y-18005000D03*
X69015000Y-28455000D03*
X70285000Y-28455000D03*
X71555000Y-28455000D03*
X72825000Y-28455000D03*
X74095000Y-28455000D03*
X75365000Y-28455000D03*
X76635000Y-28455000D03*
X77905000Y-28455000D03*
X79175000Y-28455000D03*
X80445000Y-28455000D03*
X81715000Y-28455000D03*
X82985000Y-28455000D03*
D18*
X61660000Y-72535000D03*
X61660000Y-74085000D03*
D17*
X60250000Y-43095000D03*
X60250000Y-42075000D03*
D13*
X22750000Y-35325000D03*
X22750000Y-36345000D03*
D11*
X50750000Y-71315000D03*
X50750000Y-70355000D03*
D14*
X87980000Y-17500000D03*
X87020000Y-17500000D03*
D11*
X50750000Y-38315000D03*
X50750000Y-37355000D03*
D15*
X54985000Y-18005000D03*
X53715000Y-18005000D03*
X52445000Y-18005000D03*
X51175000Y-18005000D03*
X49905000Y-18005000D03*
X48635000Y-18005000D03*
X47365000Y-18005000D03*
X46095000Y-18005000D03*
X44825000Y-18005000D03*
X43555000Y-18005000D03*
X42285000Y-18005000D03*
X41015000Y-18005000D03*
X41015000Y-28455000D03*
X42285000Y-28455000D03*
X43555000Y-28455000D03*
X44825000Y-28455000D03*
X46095000Y-28455000D03*
X47365000Y-28455000D03*
X48635000Y-28455000D03*
X49905000Y-28455000D03*
X51175000Y-28455000D03*
X52445000Y-28455000D03*
X53715000Y-28455000D03*
X54985000Y-28455000D03*
D11*
X28700000Y-54710000D03*
X28700000Y-53750000D03*
D13*
X22750000Y-72325000D03*
X22750000Y-73345000D03*
D17*
X56750000Y-79995000D03*
X56750000Y-78975000D03*
D16*
X76945000Y-70385000D03*
X75675000Y-70385000D03*
X74405000Y-70385000D03*
X73135000Y-70385000D03*
X71865000Y-70385000D03*
X70595000Y-70385000D03*
X69325000Y-70385000D03*
X68055000Y-70385000D03*
X68055000Y-78285000D03*
X69325000Y-78285000D03*
X70595000Y-78285000D03*
X71865000Y-78285000D03*
X73135000Y-78285000D03*
X74405000Y-78285000D03*
X75675000Y-78285000D03*
X76945000Y-78285000D03*
D17*
X84750000Y-42995000D03*
X84750000Y-41975000D03*
D14*
X59980000Y-54500000D03*
X59020000Y-54500000D03*
D17*
X32250000Y-43095000D03*
X32250000Y-42075000D03*
D12*
X78750000Y-41310000D03*
X78750000Y-39760000D03*
D11*
X50750000Y-75315000D03*
X50750000Y-74355000D03*
D13*
X62000000Y-67470000D03*
X62000000Y-68490000D03*
D11*
X22750000Y-75315000D03*
X22750000Y-74355000D03*
X78750000Y-34315000D03*
X78750000Y-33355000D03*
D13*
X34000000Y-67470000D03*
X34000000Y-68490000D03*
D18*
X61660000Y-35535000D03*
X61660000Y-37085000D03*
D11*
X22750000Y-38315000D03*
X22750000Y-37355000D03*
D19*
X88060000Y-39810000D03*
X86790000Y-39810000D03*
X85520000Y-39810000D03*
X84250000Y-39810000D03*
X82980000Y-39810000D03*
X81710000Y-39810000D03*
X80440000Y-39810000D03*
X80440000Y-34860000D03*
X81710000Y-34860000D03*
X82980000Y-34860000D03*
X84250000Y-34860000D03*
X85520000Y-34860000D03*
X86790000Y-34860000D03*
X88060000Y-34860000D03*
D11*
X28700000Y-17710000D03*
X28700000Y-16750000D03*
D18*
X89660000Y-72535000D03*
X89660000Y-74085000D03*
D17*
X32250000Y-80095000D03*
X32250000Y-79075000D03*
D13*
X33250000Y-79075000D03*
X33250000Y-80095000D03*
D15*
X26985000Y-18005000D03*
X25715000Y-18005000D03*
X24445000Y-18005000D03*
X23175000Y-18005000D03*
X21905000Y-18005000D03*
X20635000Y-18005000D03*
X19365000Y-18005000D03*
X18095000Y-18005000D03*
X16825000Y-18005000D03*
X15555000Y-18005000D03*
X14285000Y-18005000D03*
X13015000Y-18005000D03*
X13015000Y-28455000D03*
X14285000Y-28455000D03*
X15555000Y-28455000D03*
X16825000Y-28455000D03*
X18095000Y-28455000D03*
X19365000Y-28455000D03*
X20635000Y-28455000D03*
X21905000Y-28455000D03*
X23175000Y-28455000D03*
X24445000Y-28455000D03*
X25715000Y-28455000D03*
X26985000Y-28455000D03*
D13*
X78750000Y-72325000D03*
X78750000Y-73345000D03*
D19*
X60060000Y-39810000D03*
X58790000Y-39810000D03*
X57520000Y-39810000D03*
X56250000Y-39810000D03*
X54980000Y-39810000D03*
X53710000Y-39810000D03*
X52440000Y-39810000D03*
X52440000Y-34860000D03*
X53710000Y-34860000D03*
X54980000Y-34860000D03*
X56250000Y-34860000D03*
X57520000Y-34860000D03*
X58790000Y-34860000D03*
X60060000Y-34860000D03*
D13*
X27750000Y-78975000D03*
X27750000Y-79995000D03*
D17*
X84750000Y-79995000D03*
X84750000Y-78975000D03*
D18*
X33660000Y-35535000D03*
X33660000Y-37085000D03*
D17*
X60250000Y-80095000D03*
X60250000Y-79075000D03*
D14*
X31020000Y-17500000D03*
X31980000Y-17500000D03*
D18*
X33660000Y-72535000D03*
X33660000Y-74085000D03*
D13*
X62000000Y-30470000D03*
X62000000Y-31490000D03*
D14*
X31980000Y-69835000D03*
X31020000Y-69835000D03*
D13*
X34000000Y-30470000D03*
X34000000Y-31490000D03*
D11*
X50750000Y-34315000D03*
X50750000Y-33355000D03*
D19*
X88060000Y-76810000D03*
X86790000Y-76810000D03*
X85520000Y-76810000D03*
X84250000Y-76810000D03*
X82980000Y-76810000D03*
X81710000Y-76810000D03*
X80440000Y-76810000D03*
X80440000Y-71860000D03*
X81710000Y-71860000D03*
X82980000Y-71860000D03*
X84250000Y-71860000D03*
X85520000Y-71860000D03*
X86790000Y-71860000D03*
X88060000Y-71860000D03*
X60060000Y-76810000D03*
X58790000Y-76810000D03*
X57520000Y-76810000D03*
X56250000Y-76810000D03*
X54980000Y-76810000D03*
X53710000Y-76810000D03*
X52440000Y-76810000D03*
X52440000Y-71860000D03*
X53710000Y-71860000D03*
X54980000Y-71860000D03*
X56250000Y-71860000D03*
X57520000Y-71860000D03*
X58790000Y-71860000D03*
X60060000Y-71860000D03*
D12*
X61660000Y-77110000D03*
X61660000Y-75560000D03*
D19*
X32060000Y-76810000D03*
X30790000Y-76810000D03*
X29520000Y-76810000D03*
X28250000Y-76810000D03*
X26980000Y-76810000D03*
X25710000Y-76810000D03*
X24440000Y-76810000D03*
X24440000Y-71860000D03*
X25710000Y-71860000D03*
X26980000Y-71860000D03*
X28250000Y-71860000D03*
X29520000Y-71860000D03*
X30790000Y-71860000D03*
X32060000Y-71860000D03*
D11*
X56700000Y-17710000D03*
X56700000Y-16750000D03*
D17*
X28750000Y-79995000D03*
X28750000Y-78975000D03*
D12*
X33660000Y-40110000D03*
X33660000Y-38560000D03*
D13*
X55750000Y-78975000D03*
X55750000Y-79995000D03*
X90000000Y-30470000D03*
X90000000Y-31490000D03*
X83750000Y-41975000D03*
X83750000Y-42995000D03*
D14*
X87980000Y-69835000D03*
X87020000Y-69835000D03*
D17*
X88250000Y-80095000D03*
X88250000Y-79075000D03*
D12*
X50750000Y-78310000D03*
X50750000Y-76760000D03*
D16*
X20945000Y-33385000D03*
X19675000Y-33385000D03*
X18405000Y-33385000D03*
X17135000Y-33385000D03*
X15865000Y-33385000D03*
X14595000Y-33385000D03*
X13325000Y-33385000D03*
X12055000Y-33385000D03*
X12055000Y-41285000D03*
X13325000Y-41285000D03*
X14595000Y-41285000D03*
X15865000Y-41285000D03*
X17135000Y-41285000D03*
X18405000Y-41285000D03*
X19675000Y-41285000D03*
X20945000Y-41285000D03*
D14*
X59980000Y-69835000D03*
X59020000Y-69835000D03*
D15*
X82985000Y-55005000D03*
X81715000Y-55005000D03*
X80445000Y-55005000D03*
X79175000Y-55005000D03*
X77905000Y-55005000D03*
X76635000Y-55005000D03*
X75365000Y-55005000D03*
X74095000Y-55005000D03*
X72825000Y-55005000D03*
X71555000Y-55005000D03*
X70285000Y-55005000D03*
X69015000Y-55005000D03*
X69015000Y-65455000D03*
X70285000Y-65455000D03*
X71555000Y-65455000D03*
X72825000Y-65455000D03*
X74095000Y-65455000D03*
X75365000Y-65455000D03*
X76635000Y-65455000D03*
X77905000Y-65455000D03*
X79175000Y-65455000D03*
X80445000Y-65455000D03*
X81715000Y-65455000D03*
X82985000Y-65455000D03*
D16*
X20945000Y-70385000D03*
X19675000Y-70385000D03*
X18405000Y-70385000D03*
X17135000Y-70385000D03*
X15865000Y-70385000D03*
X14595000Y-70385000D03*
X13325000Y-70385000D03*
X12055000Y-70385000D03*
X12055000Y-78285000D03*
X13325000Y-78285000D03*
X14595000Y-78285000D03*
X15865000Y-78285000D03*
X17135000Y-78285000D03*
X18405000Y-78285000D03*
X19675000Y-78285000D03*
X20945000Y-78285000D03*
D13*
X78750000Y-35325000D03*
X78750000Y-36345000D03*
X83750000Y-78975000D03*
X83750000Y-79995000D03*
D18*
X89660000Y-35535000D03*
X89660000Y-37085000D03*
D16*
X76945000Y-33385000D03*
X75675000Y-33385000D03*
X74405000Y-33385000D03*
X73135000Y-33385000D03*
X71865000Y-33385000D03*
X70595000Y-33385000D03*
X69325000Y-33385000D03*
X68055000Y-33385000D03*
X68055000Y-41285000D03*
X69325000Y-41285000D03*
X70595000Y-41285000D03*
X71865000Y-41285000D03*
X73135000Y-41285000D03*
X74405000Y-41285000D03*
X75675000Y-41285000D03*
X76945000Y-41285000D03*
D14*
X31980000Y-32835000D03*
X31020000Y-32835000D03*
D16*
X48945000Y-70385000D03*
X47675000Y-70385000D03*
X46405000Y-70385000D03*
X45135000Y-70385000D03*
X43865000Y-70385000D03*
X42595000Y-70385000D03*
X41325000Y-70385000D03*
X40055000Y-70385000D03*
X40055000Y-78285000D03*
X41325000Y-78285000D03*
X42595000Y-78285000D03*
X43865000Y-78285000D03*
X45135000Y-78285000D03*
X46405000Y-78285000D03*
X47675000Y-78285000D03*
X48945000Y-78285000D03*
D11*
X78750000Y-71315000D03*
X78750000Y-70355000D03*
D13*
X27750000Y-41975000D03*
X27750000Y-42995000D03*
D17*
X28750000Y-42995000D03*
X28750000Y-41975000D03*
D13*
X61250000Y-42075000D03*
X61250000Y-43095000D03*
D12*
X50750000Y-41310000D03*
X50750000Y-39760000D03*
X33660000Y-77110000D03*
X33660000Y-75560000D03*
D17*
X56750000Y-42995000D03*
X56750000Y-41975000D03*
D11*
X78750000Y-38315000D03*
X78750000Y-37355000D03*
D12*
X89660000Y-77110000D03*
X89660000Y-75560000D03*
D19*
X32060000Y-39810000D03*
X30790000Y-39810000D03*
X29520000Y-39810000D03*
X28250000Y-39810000D03*
X26980000Y-39810000D03*
X25710000Y-39810000D03*
X24440000Y-39810000D03*
X24440000Y-34860000D03*
X25710000Y-34860000D03*
X26980000Y-34860000D03*
X28250000Y-34860000D03*
X29520000Y-34860000D03*
X30790000Y-34860000D03*
X32060000Y-34860000D03*
D12*
X22750000Y-41310000D03*
X22750000Y-39760000D03*
M02*
