G04 #@! TF.GenerationSoftware,KiCad,Pcbnew,7.0.8*
G04 #@! TF.CreationDate,2023-10-29T22:50:43+01:00*
G04 #@! TF.ProjectId,ITX-Llama,4954582d-4c6c-4616-9d61-2e6b69636164,E*
G04 #@! TF.SameCoordinates,Original*
G04 #@! TF.FileFunction,Soldermask,Bot*
G04 #@! TF.FilePolarity,Negative*
%FSLAX46Y46*%
G04 Gerber Fmt 4.6, Leading zero omitted, Abs format (unit mm)*
G04 Created by KiCad (PCBNEW 7.0.8) date 2023-10-29 22:50:43*
%MOMM*%
%LPD*%
G01*
G04 APERTURE LIST*
%ADD10R,1.755000X1.755000*%
%ADD11C,1.755000*%
%ADD12C,1.397000*%
%ADD13C,0.400000*%
%ADD14C,7.000000*%
%ADD15C,2.440000*%
%ADD16R,1.200000X1.200000*%
%ADD17C,1.200000*%
%ADD18C,1.300000*%
%ADD19R,1.530000X1.530000*%
%ADD20C,1.550000*%
%ADD21C,1.600000*%
%ADD22C,1.000000*%
%ADD23C,1.700000*%
%ADD24C,0.500000*%
%ADD25R,1.397000X1.397000*%
%ADD26C,3.600000*%
%ADD27C,1.800000*%
%ADD28R,1.070000X1.800000*%
%ADD29O,1.070000X1.800000*%
%ADD30C,1.500000*%
%ADD31C,3.000000*%
%ADD32C,2.250000*%
%ADD33C,1.250000*%
%ADD34C,1.016000*%
%ADD35C,1.248000*%
%ADD36C,5.000000*%
%ADD37C,3.200000*%
%ADD38R,1.600000X1.600000*%
%ADD39O,1.600000X1.600000*%
%ADD40C,1.400000*%
%ADD41C,2.200000*%
%ADD42C,4.000000*%
G04 APERTURE END LIST*
D10*
X64310000Y135500000D03*
D11*
X61770000Y135500000D03*
X59230000Y135500000D03*
X56690000Y135500000D03*
D12*
X26040000Y32500000D03*
X23500000Y32500000D03*
X20960000Y32500000D03*
X41540000Y148000000D03*
X39000000Y148000000D03*
X36460000Y148000000D03*
D13*
X0Y-2750000D03*
X-1950000Y-1950000D03*
X1950000Y-1950000D03*
X-2750000Y0D03*
D14*
X0Y0D03*
D13*
X2750000Y0D03*
X-1950000Y1950000D03*
X1950000Y1950000D03*
X0Y2750000D03*
D12*
X143000000Y43460000D03*
X143000000Y46000000D03*
X143000000Y48540000D03*
D13*
X154940000Y-2750000D03*
X152990000Y-1950000D03*
X156890000Y-1950000D03*
X152190000Y0D03*
D14*
X154940000Y0D03*
D13*
X157690000Y0D03*
X152990000Y1950000D03*
X156890000Y1950000D03*
X154940000Y2750000D03*
D15*
X53565000Y1574800D03*
X79205000Y1574800D03*
X124845000Y1574800D03*
D16*
X56705000Y2574800D03*
D17*
X57705000Y4574800D03*
X58705000Y2574800D03*
X59705000Y4574800D03*
X60705000Y2574800D03*
X61705000Y4574800D03*
X62705000Y2574800D03*
X63705000Y4574800D03*
X64705000Y2574800D03*
X65705000Y4574800D03*
X66705000Y2574800D03*
X67705000Y4574800D03*
X68705000Y2574800D03*
X69705000Y4574800D03*
X70705000Y2574800D03*
X71705000Y4574800D03*
X72705000Y2574800D03*
X73705000Y4574800D03*
X74705000Y2574800D03*
X75705000Y4574800D03*
X76705000Y2574800D03*
X81705000Y4574800D03*
X82705000Y2574800D03*
X83705000Y4574800D03*
X84705000Y2574800D03*
X85705000Y4574800D03*
X86705000Y2574800D03*
X87705000Y4574800D03*
X88705000Y2574800D03*
X89705000Y4574800D03*
X90705000Y2574800D03*
X91705000Y4574800D03*
X92705000Y2574800D03*
X93705000Y4574800D03*
X94705000Y2574800D03*
X95705000Y4574800D03*
X96705000Y2574800D03*
X97705000Y4574800D03*
X98705000Y2574800D03*
X99705000Y4574800D03*
X100705000Y2574800D03*
X101705000Y4574800D03*
X102705000Y2574800D03*
X103705000Y4574800D03*
X104705000Y2574800D03*
X105705000Y4574800D03*
X106705000Y2574800D03*
X107705000Y4574800D03*
X108705000Y2574800D03*
X109705000Y4574800D03*
X110705000Y2574800D03*
X111705000Y4574800D03*
X112705000Y2574800D03*
X113705000Y4574800D03*
X114705000Y2574800D03*
X115705000Y4574800D03*
X116705000Y2574800D03*
X117705000Y4574800D03*
X118705000Y2574800D03*
X119705000Y4574800D03*
X120705000Y2574800D03*
X121705000Y4574800D03*
X56705000Y-1425200D03*
X57705000Y574800D03*
X58705000Y-1425200D03*
X59705000Y574800D03*
X60705000Y-1425200D03*
X61705000Y574800D03*
X62705000Y-1425200D03*
X63705000Y574800D03*
X64705000Y-1425200D03*
X65705000Y574800D03*
X66705000Y-1425200D03*
X67705000Y574800D03*
X68705000Y-1425200D03*
X69705000Y574800D03*
X70705000Y-1425200D03*
X71705000Y574800D03*
X72705000Y-1425200D03*
X73705000Y574800D03*
X74705000Y-1425200D03*
X75705000Y574800D03*
X76705000Y-1425200D03*
X81705000Y574800D03*
X82705000Y-1425200D03*
X83705000Y574800D03*
X84705000Y-1425200D03*
X85705000Y574800D03*
X86705000Y-1425200D03*
X87705000Y574800D03*
X88705000Y-1425200D03*
X89705000Y574800D03*
X90705000Y-1425200D03*
X91705000Y574800D03*
X92705000Y-1425200D03*
X93705000Y574800D03*
X94705000Y-1425200D03*
X95705000Y574800D03*
X96705000Y-1425200D03*
X97705000Y574800D03*
X98705000Y-1425200D03*
X99705000Y574800D03*
X100705000Y-1425200D03*
X101705000Y574800D03*
X102705000Y-1425200D03*
X103705000Y574800D03*
X104705000Y-1425200D03*
X105705000Y574800D03*
X106705000Y-1425200D03*
X107705000Y574800D03*
X108705000Y-1425200D03*
X109705000Y574800D03*
X110705000Y-1425200D03*
X111705000Y574800D03*
X112705000Y-1425200D03*
X113705000Y574800D03*
X114705000Y-1425200D03*
X115705000Y574800D03*
X116705000Y-1425200D03*
X117705000Y574800D03*
X118705000Y-1425200D03*
X119705000Y574800D03*
X120705000Y-1425200D03*
X121705000Y574800D03*
D18*
X141822000Y140531500D03*
D19*
X146902000Y142691500D03*
D20*
X144362000Y142691500D03*
X141822000Y142691500D03*
X139282000Y142691500D03*
D12*
X140460000Y148500000D03*
X143000000Y148500000D03*
X145540000Y148500000D03*
X72300000Y133000000D03*
X74840000Y133000000D03*
X77380000Y133000000D03*
X117960000Y64500000D03*
X120500000Y64500000D03*
X123040000Y64500000D03*
D21*
X35950000Y78000000D03*
X15600000Y78000000D03*
D22*
X36050000Y-1300000D03*
X44050000Y-1300000D03*
D18*
X1110000Y146290000D03*
X1110000Y143750000D03*
X1110000Y141210000D03*
D23*
X-1510000Y146290000D03*
X-1510000Y141210000D03*
D24*
X-18860000Y163830000D03*
X-18860000Y-6170000D03*
X-18060000Y163830000D03*
X-18060000Y-6170000D03*
X-17260000Y163830000D03*
X-17260000Y-6170000D03*
X-16460000Y163830000D03*
X-16460000Y-6170000D03*
X-15660000Y163830000D03*
X-15660000Y-6170000D03*
X-14860000Y163830000D03*
X-14860000Y-6170000D03*
X-14060000Y163830000D03*
X-14060000Y-6170000D03*
X-13260000Y163830000D03*
X-13260000Y-6170000D03*
X-12460000Y163830000D03*
X-12460000Y-6170000D03*
X-10160000Y109230000D03*
X-10160000Y108430000D03*
X-10160000Y107630000D03*
X-10160000Y106830000D03*
X-10160000Y106030000D03*
X-10160000Y105230000D03*
X-10160000Y104430000D03*
X-10160000Y53230000D03*
X-10160000Y52430000D03*
X-10160000Y51630000D03*
X-10160000Y50830000D03*
X-10160000Y50030000D03*
X-10160000Y49230000D03*
X-10160000Y48430000D03*
X44440000Y163830000D03*
X44440000Y-6170000D03*
X45240000Y163830000D03*
X45240000Y-6170000D03*
X46040000Y163830000D03*
X46040000Y-6170000D03*
X46840000Y163830000D03*
X46840000Y-6170000D03*
X47640000Y163830000D03*
X47640000Y-6170000D03*
X48440000Y163830000D03*
X48440000Y-6170000D03*
X49240000Y163830000D03*
X49240000Y-6170000D03*
X100440000Y163830000D03*
X100440000Y-6170000D03*
X101240000Y163830000D03*
X101240000Y-6170000D03*
X102040000Y163830000D03*
X102040000Y-6170000D03*
X102840000Y163830000D03*
X102840000Y-6170000D03*
X103640000Y163830000D03*
X103640000Y-6170000D03*
X104440000Y163830000D03*
X104440000Y-6170000D03*
X105240000Y163830000D03*
X105240000Y-6170000D03*
X159840000Y109230000D03*
X159840000Y108430000D03*
X159840000Y107630000D03*
X159840000Y106830000D03*
X159840000Y106030000D03*
X159840000Y105230000D03*
X159840000Y104430000D03*
X159840000Y53230000D03*
X159840000Y52430000D03*
X159840000Y51630000D03*
X159840000Y50830000D03*
X159840000Y50030000D03*
X159840000Y49230000D03*
X159840000Y48430000D03*
X162140000Y163830000D03*
X162140000Y-6170000D03*
X162940000Y163830000D03*
X162940000Y-6170000D03*
X163740000Y163830000D03*
X163740000Y-6170000D03*
X164540000Y163830000D03*
X164540000Y-6170000D03*
X165340000Y163830000D03*
X165340000Y-6170000D03*
X166140000Y163830000D03*
X166140000Y-6170000D03*
X166940000Y163830000D03*
X166940000Y-6170000D03*
X167740000Y163830000D03*
X167740000Y-6170000D03*
X168540000Y163830000D03*
X168540000Y-6170000D03*
D12*
X64310000Y129000000D03*
X61770000Y129000000D03*
X59230000Y129000000D03*
X56690000Y129000000D03*
D25*
X143020000Y16190000D03*
D12*
X143020000Y18730000D03*
X143020000Y21270000D03*
X143020000Y23810000D03*
X140480000Y23810000D03*
X140480000Y21270000D03*
X140480000Y18730000D03*
X140480000Y16190000D03*
D21*
X-1600000Y35700000D03*
X-1600000Y38300000D03*
X-1600000Y33600000D03*
X-1600000Y40400000D03*
X900000Y33600000D03*
X900000Y40400000D03*
X5400000Y35700000D03*
X5400000Y38300000D03*
X5400000Y33600000D03*
X5400000Y40400000D03*
X7900000Y33600000D03*
X7900000Y40400000D03*
D26*
X-4600000Y30250000D03*
X5400000Y30250000D03*
X-5400000Y37000000D03*
X-4600000Y43750000D03*
X5400000Y43750000D03*
D12*
X4960000Y66250000D03*
X7500000Y66250000D03*
X10040000Y66250000D03*
X72300000Y136000000D03*
X74840000Y136000000D03*
X77380000Y136000000D03*
X26040000Y38500000D03*
X23500000Y38500000D03*
X20960000Y38500000D03*
D27*
X132110000Y86570000D03*
X134650000Y86570000D03*
X137190000Y86570000D03*
X139730000Y86570000D03*
X142270000Y86570000D03*
X144810000Y86570000D03*
X147350000Y86570000D03*
X149890000Y86570000D03*
X149890000Y109430000D03*
X147350000Y109430000D03*
X144810000Y109430000D03*
X142270000Y109430000D03*
X139730000Y109430000D03*
X137190000Y109430000D03*
X134650000Y109430000D03*
X132110000Y109430000D03*
D12*
X129960000Y60500000D03*
X132500000Y60500000D03*
X135040000Y60500000D03*
X41540000Y151000000D03*
X39000000Y151000000D03*
X36460000Y151000000D03*
X154500000Y144270000D03*
X154500000Y141730000D03*
D13*
X22860000Y154730000D03*
X20910000Y155530000D03*
X24810000Y155530000D03*
X20110000Y157480000D03*
D14*
X22860000Y157480000D03*
D13*
X25610000Y157480000D03*
X20910000Y159430000D03*
X24810000Y159430000D03*
X22860000Y160230000D03*
D28*
X144600000Y-2000000D03*
D29*
X145870000Y-2000000D03*
X147140000Y-2000000D03*
X148410000Y-2000000D03*
D30*
X5680000Y59300000D03*
X5680000Y56800000D03*
X5680000Y54800000D03*
X5680000Y52300000D03*
X3080000Y59300000D03*
X3080000Y56800000D03*
X3080000Y54800000D03*
X3080000Y52300000D03*
D31*
X6080000Y62350000D03*
X380000Y62350000D03*
X6080000Y49250000D03*
X380000Y49250000D03*
D18*
X119322000Y56340000D03*
D19*
X124402000Y58500000D03*
D20*
X121862000Y58500000D03*
X119322000Y58500000D03*
X116782000Y58500000D03*
D32*
X154480000Y59000000D03*
X141520000Y59000000D03*
D33*
X144190000Y59500000D03*
D34*
X145460000Y58500000D03*
X146730000Y58500000D03*
D35*
X148000000Y59500000D03*
D34*
X149270000Y58500000D03*
X150540000Y58500000D03*
D35*
X151810000Y59500000D03*
D13*
X154940000Y154730000D03*
X152990000Y155530000D03*
X156890000Y155530000D03*
X152190000Y157480000D03*
D14*
X154940000Y157480000D03*
D13*
X157690000Y157480000D03*
X152990000Y159430000D03*
X156890000Y159430000D03*
X154940000Y160230000D03*
D21*
X920000Y88545000D03*
X920000Y85775000D03*
X920000Y83005000D03*
X920000Y80235000D03*
X920000Y77465000D03*
X-1920000Y87160000D03*
X-1920000Y84390000D03*
X-1920000Y81620000D03*
X-1920000Y78850000D03*
D36*
X-500000Y70510000D03*
X-500000Y95500000D03*
D30*
X16170000Y25200000D03*
X16170000Y22660000D03*
X16170000Y13340000D03*
X16170000Y10800000D03*
X13340000Y13550000D03*
X10800000Y14825000D03*
X13340000Y16095000D03*
X10800000Y17365000D03*
X13340000Y18635000D03*
X10800000Y19905000D03*
X13340000Y21175000D03*
X10800000Y22445000D03*
D37*
X10800000Y27325000D03*
X-1800000Y27325000D03*
X6480000Y24570000D03*
X800000Y24570000D03*
X6480000Y11430000D03*
X800000Y11430000D03*
X10800000Y8675000D03*
X-1800000Y8675000D03*
D30*
X3860000Y21540000D03*
X3860000Y19000000D03*
X3860000Y17000000D03*
X3860000Y14460000D03*
X6480000Y21540000D03*
X6480000Y19000000D03*
X6480000Y17000000D03*
X6480000Y14460000D03*
D38*
X131610000Y23300000D03*
D39*
X129070000Y23300000D03*
X126530000Y23300000D03*
X123990000Y23300000D03*
X121450000Y23300000D03*
X118910000Y23300000D03*
X116370000Y23300000D03*
X116370000Y15680000D03*
X118910000Y15680000D03*
X121450000Y15680000D03*
X123990000Y15680000D03*
X126530000Y15680000D03*
X129070000Y15680000D03*
X131610000Y15680000D03*
D12*
X132751200Y36000000D03*
X126248800Y36000000D03*
X143000000Y28690000D03*
X143000000Y31230000D03*
X143000000Y33770000D03*
X143000000Y36310000D03*
D25*
X6730000Y129930000D03*
D12*
X9270000Y129930000D03*
X6730000Y127390000D03*
X9270000Y127390000D03*
X6730000Y124850000D03*
X9270000Y124850000D03*
X6730000Y122310000D03*
X9270000Y122310000D03*
X6730000Y119770000D03*
X9270000Y119770000D03*
X6730000Y117230000D03*
X9270000Y117230000D03*
X6730000Y114690000D03*
X9270000Y114690000D03*
X6730000Y112150000D03*
X9270000Y112150000D03*
X6730000Y109610000D03*
X9270000Y109610000D03*
X6730000Y107070000D03*
X9270000Y107070000D03*
D31*
X5700000Y162040000D03*
X-5600000Y162040000D03*
D40*
X-1800000Y156000000D03*
D31*
X5700000Y149960000D03*
X-5600000Y149960000D03*
D40*
X-1800000Y151000000D03*
X-1800000Y153500000D03*
X-1800000Y158500000D03*
X-1800000Y161000000D03*
X3200000Y152250000D03*
X3200000Y154750000D03*
X3200000Y157250000D03*
X3200000Y159750000D03*
X8200000Y152250000D03*
X8200000Y154750000D03*
X8200000Y157250000D03*
X8200000Y159750000D03*
D41*
X60900000Y157750000D03*
X65100000Y157750000D03*
X69300000Y157750000D03*
X73500000Y157750000D03*
X77700000Y157750000D03*
X81900000Y157750000D03*
X86100000Y157750000D03*
X90300000Y157750000D03*
X94500000Y157750000D03*
X98700000Y157750000D03*
X102900000Y157750000D03*
X107100000Y157750000D03*
X60900000Y152250000D03*
X65100000Y152250000D03*
X69300000Y152250000D03*
X73500000Y152250000D03*
X77700000Y152250000D03*
X81900000Y152250000D03*
X86100000Y152250000D03*
X90300000Y152250000D03*
X94500000Y152250000D03*
X98700000Y152250000D03*
X102900000Y152250000D03*
X107100000Y152250000D03*
D12*
X26040000Y41500000D03*
X23500000Y41500000D03*
X20960000Y41500000D03*
X72300000Y139000000D03*
X74840000Y139000000D03*
X77380000Y139000000D03*
X26040000Y35500000D03*
X23500000Y35500000D03*
X20960000Y35500000D03*
X115960000Y37000000D03*
X118500000Y37000000D03*
X121040000Y37000000D03*
X32520000Y55750000D03*
X29980000Y55750000D03*
D18*
X141822000Y153031500D03*
D19*
X146902000Y155191500D03*
D20*
X144362000Y155191500D03*
X141822000Y155191500D03*
X139282000Y155191500D03*
D12*
X6000000Y92380000D03*
X6000000Y94920000D03*
X6000000Y97460000D03*
X6000000Y100000000D03*
D36*
X41825000Y56000000D03*
X107825000Y56000000D03*
X41825000Y78000000D03*
X107825000Y78000000D03*
D12*
X155751200Y36000000D03*
X149248800Y36000000D03*
X140460000Y161000000D03*
X143000000Y161000000D03*
X145540000Y161000000D03*
D38*
X450000Y108805000D03*
D21*
X450000Y111575000D03*
X450000Y114345000D03*
X450000Y117115000D03*
X450000Y119885000D03*
X450000Y122655000D03*
X450000Y125425000D03*
X450000Y128195000D03*
X-2390000Y110190000D03*
X-2390000Y112960000D03*
X-2390000Y115730000D03*
X-2390000Y118500000D03*
X-2390000Y121270000D03*
X-2390000Y124040000D03*
X-2390000Y126810000D03*
D42*
X-970000Y135150000D03*
X-970000Y101850000D03*
M02*
