G04 #@! TF.GenerationSoftware,KiCad,Pcbnew,7.0.8*
G04 #@! TF.CreationDate,2023-10-29T22:50:43+01:00*
G04 #@! TF.ProjectId,ITX-Llama,4954582d-4c6c-4616-9d61-2e6b69636164,E*
G04 #@! TF.SameCoordinates,Original*
G04 #@! TF.FileFunction,Paste,Top*
G04 #@! TF.FilePolarity,Positive*
%FSLAX46Y46*%
G04 Gerber Fmt 4.6, Leading zero omitted, Abs format (unit mm)*
G04 Created by KiCad (PCBNEW 7.0.8) date 2023-10-29 22:50:43*
%MOMM*%
%LPD*%
G01*
G04 APERTURE LIST*
G04 Aperture macros list*
%AMRoundRect*
0 Rectangle with rounded corners*
0 $1 Rounding radius*
0 $2 $3 $4 $5 $6 $7 $8 $9 X,Y pos of 4 corners*
0 Add a 4 corners polygon primitive as box body*
4,1,4,$2,$3,$4,$5,$6,$7,$8,$9,$2,$3,0*
0 Add four circle primitives for the rounded corners*
1,1,$1+$1,$2,$3*
1,1,$1+$1,$4,$5*
1,1,$1+$1,$6,$7*
1,1,$1+$1,$8,$9*
0 Add four rect primitives between the rounded corners*
20,1,$1+$1,$2,$3,$4,$5,0*
20,1,$1+$1,$4,$5,$6,$7,0*
20,1,$1+$1,$6,$7,$8,$9,0*
20,1,$1+$1,$8,$9,$2,$3,0*%
%AMRotRect*
0 Rectangle, with rotation*
0 The origin of the aperture is its center*
0 $1 length*
0 $2 width*
0 $3 Rotation angle, in degrees counterclockwise*
0 Add horizontal line*
21,1,$1,$2,0,0,$3*%
G04 Aperture macros list end*
%ADD10C,0.010000*%
%ADD11R,0.600000X1.200000*%
%ADD12RoundRect,0.140000X0.140000X0.170000X-0.140000X0.170000X-0.140000X-0.170000X0.140000X-0.170000X0*%
%ADD13RoundRect,0.140000X-0.140000X-0.170000X0.140000X-0.170000X0.140000X0.170000X-0.140000X0.170000X0*%
%ADD14RoundRect,0.135000X0.135000X0.185000X-0.135000X0.185000X-0.135000X-0.185000X0.135000X-0.185000X0*%
%ADD15RoundRect,0.135000X0.185000X-0.135000X0.185000X0.135000X-0.185000X0.135000X-0.185000X-0.135000X0*%
%ADD16RoundRect,0.140000X0.170000X-0.140000X0.170000X0.140000X-0.170000X0.140000X-0.170000X-0.140000X0*%
%ADD17RoundRect,0.225000X-0.225000X-0.250000X0.225000X-0.250000X0.225000X0.250000X-0.225000X0.250000X0*%
%ADD18RoundRect,0.218750X0.256250X-0.218750X0.256250X0.218750X-0.256250X0.218750X-0.256250X-0.218750X0*%
%ADD19RoundRect,0.200000X0.200000X0.275000X-0.200000X0.275000X-0.200000X-0.275000X0.200000X-0.275000X0*%
%ADD20RoundRect,0.135000X-0.185000X0.135000X-0.185000X-0.135000X0.185000X-0.135000X0.185000X0.135000X0*%
%ADD21R,1.400000X1.600000*%
%ADD22R,1.020000X2.300000*%
%ADD23RoundRect,0.225000X0.250000X-0.225000X0.250000X0.225000X-0.250000X0.225000X-0.250000X-0.225000X0*%
%ADD24RoundRect,0.225000X-0.250000X0.225000X-0.250000X-0.225000X0.250000X-0.225000X0.250000X0.225000X0*%
%ADD25RoundRect,0.140000X-0.021213X0.219203X-0.219203X0.021213X0.021213X-0.219203X0.219203X-0.021213X0*%
%ADD26RoundRect,0.250000X-1.100000X0.325000X-1.100000X-0.325000X1.100000X-0.325000X1.100000X0.325000X0*%
%ADD27R,1.200000X0.600000*%
%ADD28RoundRect,0.135000X-0.135000X-0.185000X0.135000X-0.185000X0.135000X0.185000X-0.135000X0.185000X0*%
%ADD29RoundRect,0.112500X-0.637500X-0.112500X0.637500X-0.112500X0.637500X0.112500X-0.637500X0.112500X0*%
%ADD30RoundRect,0.250000X0.450000X-0.262500X0.450000X0.262500X-0.450000X0.262500X-0.450000X-0.262500X0*%
%ADD31RoundRect,0.225000X0.225000X0.250000X-0.225000X0.250000X-0.225000X-0.250000X0.225000X-0.250000X0*%
%ADD32R,0.700000X1.500000*%
%ADD33R,1.200000X1.600000*%
%ADD34R,1.200000X2.200000*%
%ADD35R,1.600000X1.400000*%
%ADD36RoundRect,0.140000X-0.170000X0.140000X-0.170000X-0.140000X0.170000X-0.140000X0.170000X0.140000X0*%
%ADD37RoundRect,0.140000X0.219203X0.021213X0.021213X0.219203X-0.219203X-0.021213X-0.021213X-0.219203X0*%
%ADD38RoundRect,0.218750X0.218750X0.256250X-0.218750X0.256250X-0.218750X-0.256250X0.218750X-0.256250X0*%
%ADD39RoundRect,0.140000X-0.219203X-0.021213X-0.021213X-0.219203X0.219203X0.021213X0.021213X0.219203X0*%
%ADD40RoundRect,0.135000X-0.035355X0.226274X-0.226274X0.035355X0.035355X-0.226274X0.226274X-0.035355X0*%
%ADD41RoundRect,0.218750X-0.256250X0.218750X-0.256250X-0.218750X0.256250X-0.218750X0.256250X0.218750X0*%
%ADD42RoundRect,0.250000X-0.262500X-0.450000X0.262500X-0.450000X0.262500X0.450000X-0.262500X0.450000X0*%
%ADD43RoundRect,0.250000X0.312500X0.625000X-0.312500X0.625000X-0.312500X-0.625000X0.312500X-0.625000X0*%
%ADD44O,0.370000X0.950000*%
%ADD45O,0.950000X0.370000*%
%ADD46R,0.700000X0.700000*%
%ADD47RoundRect,0.135000X0.226274X0.035355X0.035355X0.226274X-0.226274X-0.035355X-0.035355X-0.226274X0*%
%ADD48RoundRect,0.249999X0.450001X1.450001X-0.450001X1.450001X-0.450001X-1.450001X0.450001X-1.450001X0*%
%ADD49RoundRect,0.125000X-0.125000X0.125000X-0.125000X-0.125000X0.125000X-0.125000X0.125000X0.125000X0*%
%ADD50RoundRect,0.250000X1.100000X-0.325000X1.100000X0.325000X-1.100000X0.325000X-1.100000X-0.325000X0*%
%ADD51RoundRect,0.075000X-1.162500X-0.075000X1.162500X-0.075000X1.162500X0.075000X-1.162500X0.075000X0*%
%ADD52RoundRect,0.075000X-0.075000X-1.162500X0.075000X-1.162500X0.075000X1.162500X-0.075000X1.162500X0*%
%ADD53RoundRect,0.006000X0.414000X0.094000X-0.414000X0.094000X-0.414000X-0.094000X0.414000X-0.094000X0*%
%ADD54RoundRect,0.020000X0.080000X0.400000X-0.080000X0.400000X-0.080000X-0.400000X0.080000X-0.400000X0*%
%ADD55RoundRect,0.125000X0.125000X0.125000X-0.125000X0.125000X-0.125000X-0.125000X0.125000X-0.125000X0*%
%ADD56RoundRect,0.112500X-0.112500X0.637500X-0.112500X-0.637500X0.112500X-0.637500X0.112500X0.637500X0*%
%ADD57R,1.200000X1.400000*%
%ADD58R,1.505000X0.802000*%
%ADD59R,1.567800X2.101200*%
%ADD60RoundRect,0.200000X-0.275000X0.200000X-0.275000X-0.200000X0.275000X-0.200000X0.275000X0.200000X0*%
%ADD61RoundRect,0.135000X-0.226274X-0.035355X-0.035355X-0.226274X0.226274X0.035355X0.035355X0.226274X0*%
%ADD62RoundRect,0.250000X-0.450000X0.262500X-0.450000X-0.262500X0.450000X-0.262500X0.450000X0.262500X0*%
%ADD63RoundRect,0.150000X0.650000X0.150000X-0.650000X0.150000X-0.650000X-0.150000X0.650000X-0.150000X0*%
%ADD64R,0.630000X2.600000*%
%ADD65RoundRect,0.150000X-0.825000X-0.150000X0.825000X-0.150000X0.825000X0.150000X-0.825000X0.150000X0*%
%ADD66R,2.800000X0.600000*%
%ADD67R,1.670000X0.760000*%
%ADD68RoundRect,0.062500X-0.433103X-0.521491X0.521491X0.433103X0.433103X0.521491X-0.521491X-0.433103X0*%
%ADD69RoundRect,0.062500X0.433103X-0.521491X0.521491X-0.433103X-0.433103X0.521491X-0.521491X0.433103X0*%
%ADD70RotRect,5.200000X5.200000X45.000000*%
G04 APERTURE END LIST*
D10*
X92338700Y95854300D02*
X90947300Y95854300D01*
X90947300Y97245700D01*
X92338700Y97245700D01*
X92338700Y95854300D01*
G36*
X92338700Y95854300D02*
G01*
X90947300Y95854300D01*
X90947300Y97245700D01*
X92338700Y97245700D01*
X92338700Y95854300D01*
G37*
X21730000Y56270000D02*
X19770000Y56270000D01*
X19770000Y58230000D01*
X21730000Y58230000D01*
X21730000Y56270000D01*
G36*
X21730000Y56270000D02*
G01*
X19770000Y56270000D01*
X19770000Y58230000D01*
X21730000Y58230000D01*
X21730000Y56270000D01*
G37*
D11*
X86800000Y127900000D03*
X87750000Y127900000D03*
X88700000Y127900000D03*
X88700000Y130100000D03*
X86800000Y130100000D03*
D12*
X36480000Y122500000D03*
X35520000Y122500000D03*
D13*
X14770000Y53250000D03*
X15730000Y53250000D03*
D14*
X121010000Y39500000D03*
X119990000Y39500000D03*
D12*
X62230000Y-4000000D03*
X61270000Y-4000000D03*
X96730000Y7250000D03*
X95770000Y7250000D03*
D13*
X89270000Y-4000000D03*
X90230000Y-4000000D03*
X14770000Y58500000D03*
X15730000Y58500000D03*
D12*
X127980000Y28000000D03*
X127020000Y28000000D03*
D13*
X102020000Y-4000000D03*
X102980000Y-4000000D03*
D15*
X3500000Y108990000D03*
X3500000Y110010000D03*
D16*
X40500000Y11520000D03*
X40500000Y12480000D03*
D17*
X98475000Y133000000D03*
X100025000Y133000000D03*
D15*
X53000000Y133240000D03*
X53000000Y134260000D03*
D18*
X5000000Y5212500D03*
X5000000Y6787500D03*
D19*
X95075000Y23750000D03*
X93425000Y23750000D03*
D12*
X24480000Y143000000D03*
X23520000Y143000000D03*
D13*
X118770000Y-4000000D03*
X119730000Y-4000000D03*
D12*
X36480000Y128000000D03*
X35520000Y128000000D03*
D20*
X95250000Y95510000D03*
X95250000Y94490000D03*
D15*
X98500000Y22990000D03*
X98500000Y24010000D03*
D21*
X156500000Y6000000D03*
X156500000Y14000000D03*
X152000000Y6000000D03*
X152000000Y14000000D03*
D17*
X-1525000Y46250000D03*
X25000Y46250000D03*
D20*
X64750000Y8260000D03*
X64750000Y7240000D03*
D22*
X53870000Y115600000D03*
X53870000Y121400000D03*
X56410000Y115600000D03*
X56410000Y121400000D03*
X58950000Y115600000D03*
X58950000Y121400000D03*
X61490000Y115600000D03*
X61490000Y121400000D03*
X64030000Y115600000D03*
X64030000Y121400000D03*
X66570000Y115600000D03*
X66570000Y121400000D03*
X69110000Y115600000D03*
X69110000Y121400000D03*
X71650000Y115600000D03*
X71650000Y121400000D03*
X74190000Y115600000D03*
X74190000Y121400000D03*
X76730000Y115600000D03*
X76730000Y121400000D03*
X79270000Y115600000D03*
X79270000Y121400000D03*
X81810000Y115600000D03*
X81810000Y121400000D03*
X84350000Y115600000D03*
X84350000Y121400000D03*
X86890000Y115600000D03*
X86890000Y121400000D03*
X89430000Y115600000D03*
X89430000Y121400000D03*
X91970000Y115600000D03*
X91970000Y121400000D03*
X94510000Y115600000D03*
X94510000Y121400000D03*
X97050000Y115600000D03*
X97050000Y121400000D03*
X99590000Y115600000D03*
X99590000Y121400000D03*
X102130000Y115600000D03*
X102130000Y121400000D03*
D12*
X31230000Y10000000D03*
X30270000Y10000000D03*
D17*
X91725000Y-4250000D03*
X93275000Y-4250000D03*
D12*
X90730000Y7250000D03*
X89770000Y7250000D03*
X114730000Y7250000D03*
X113770000Y7250000D03*
D23*
X95000000Y134225000D03*
X95000000Y135775000D03*
D24*
X51000000Y-975000D03*
X51000000Y-2525000D03*
D17*
X58475000Y-4250000D03*
X60025000Y-4250000D03*
D25*
X88673220Y27713422D03*
X87994398Y27034600D03*
D14*
X20510000Y142000000D03*
X19490000Y142000000D03*
D15*
X76750000Y9240000D03*
X76750000Y10260000D03*
D13*
X73520000Y92000000D03*
X74480000Y92000000D03*
D14*
X17010000Y42500000D03*
X15990000Y42500000D03*
D15*
X139000000Y34990000D03*
X139000000Y36010000D03*
X142500000Y-4260000D03*
X142500000Y-3240000D03*
D12*
X4480000Y108000000D03*
X3520000Y108000000D03*
D16*
X152500000Y47540000D03*
X152500000Y48500000D03*
D23*
X9500000Y62225000D03*
X9500000Y63775000D03*
D13*
X63270000Y-4000000D03*
X64230000Y-4000000D03*
D26*
X112500000Y160475000D03*
X112500000Y157525000D03*
D27*
X32100000Y30800000D03*
X29900000Y31750000D03*
X32100000Y32700000D03*
D28*
X23140000Y138550000D03*
X24160000Y138550000D03*
D24*
X99400000Y125775000D03*
X99400000Y124225000D03*
D16*
X96750000Y20520000D03*
X96750000Y21480000D03*
D28*
X148740000Y26000000D03*
X149760000Y26000000D03*
D24*
X28000000Y61025000D03*
X28000000Y59475000D03*
D29*
X4600000Y86425000D03*
X4600000Y85775000D03*
X4600000Y85125000D03*
X4600000Y84475000D03*
X4600000Y83825000D03*
X4600000Y83175000D03*
X4600000Y82525000D03*
X4600000Y81875000D03*
X4600000Y81225000D03*
X4600000Y80575000D03*
X10400000Y80575000D03*
X10400000Y81225000D03*
X10400000Y81875000D03*
X10400000Y82525000D03*
X10400000Y83175000D03*
X10400000Y83825000D03*
X10400000Y84475000D03*
X10400000Y85125000D03*
X10400000Y85775000D03*
X10400000Y86425000D03*
D17*
X108475000Y14000000D03*
X110025000Y14000000D03*
D13*
X31520000Y138750000D03*
X32480000Y138750000D03*
D25*
X84854844Y31531799D03*
X84176022Y30852977D03*
D30*
X155000000Y150587500D03*
X155000000Y152412500D03*
D12*
X66980000Y14000000D03*
X66020000Y14000000D03*
D24*
X19400000Y146275000D03*
X19400000Y144725000D03*
D12*
X26730000Y53250000D03*
X25770000Y53250000D03*
D15*
X19750000Y51240000D03*
X19750000Y52260000D03*
D20*
X59500000Y20520000D03*
X59500000Y19500000D03*
D31*
X40225000Y132700000D03*
X38675000Y132700000D03*
X128275000Y26500000D03*
X126725000Y26500000D03*
D20*
X47100000Y12510000D03*
X47100000Y11490000D03*
D14*
X9010000Y145750000D03*
X7990000Y145750000D03*
D18*
X11500000Y62212500D03*
X11500000Y63787500D03*
D32*
X43140000Y9350000D03*
X42040000Y9350000D03*
X40940000Y9350000D03*
X39840000Y9350000D03*
X38740000Y9350000D03*
X37640000Y9350000D03*
X36540000Y9350000D03*
X35440000Y9350000D03*
X34340000Y9350000D03*
D33*
X33240000Y8500000D03*
D34*
X33240000Y-1200000D03*
D33*
X47920000Y8500000D03*
D34*
X48760000Y-1200000D03*
D14*
X141010000Y14000000D03*
X139990000Y14000000D03*
D31*
X56925000Y-4250000D03*
X55375000Y-4250000D03*
D15*
X3500000Y117740000D03*
X3500000Y118760000D03*
D24*
X84000000Y129775000D03*
X84000000Y128225000D03*
D27*
X32100000Y37800000D03*
X29900000Y38750000D03*
X32100000Y39700000D03*
D14*
X17010000Y33500000D03*
X15990000Y33500000D03*
D13*
X66020000Y19500000D03*
X66980000Y19500000D03*
D35*
X3750000Y69250000D03*
X11750000Y69250000D03*
X3750000Y73750000D03*
X11750000Y73750000D03*
D36*
X17750000Y52230000D03*
X17750000Y51270000D03*
D13*
X98770000Y131750000D03*
X99730000Y131750000D03*
D37*
X87966114Y15579470D03*
X87287292Y16258292D03*
D17*
X55725000Y13000000D03*
X57275000Y13000000D03*
D38*
X3287500Y46250000D03*
X1712500Y46250000D03*
D11*
X144050000Y9900000D03*
X145950000Y9900000D03*
X145000000Y12100000D03*
D16*
X134000000Y19020000D03*
X134000000Y19980000D03*
D11*
X29550000Y59650000D03*
X30500000Y59650000D03*
X31450000Y59650000D03*
X31450000Y61850000D03*
X29550000Y61850000D03*
D36*
X85250000Y129480000D03*
X85250000Y128520000D03*
D28*
X145990000Y2000000D03*
X147010000Y2000000D03*
D25*
X83723473Y32663170D03*
X83044651Y31984348D03*
D13*
X94020000Y124250000D03*
X94980000Y124250000D03*
D39*
X72720892Y31107535D03*
X73399714Y30428713D03*
D40*
X81760624Y34660624D03*
X81039376Y33939376D03*
D25*
X82592102Y33794541D03*
X81913280Y33115719D03*
D15*
X18750000Y51240000D03*
X18750000Y52260000D03*
D41*
X11000000Y47787500D03*
X11000000Y46212500D03*
D12*
X9480000Y134500000D03*
X8520000Y134500000D03*
D15*
X96250000Y9240000D03*
X96250000Y10260000D03*
D14*
X88260000Y-4000000D03*
X87240000Y-4000000D03*
D16*
X20500000Y139870000D03*
X20500000Y140830000D03*
D36*
X19750000Y63230000D03*
X19750000Y62270000D03*
D11*
X140950000Y2100000D03*
X139050000Y2100000D03*
X140000000Y-100000D03*
D28*
X139490000Y4250000D03*
X140510000Y4250000D03*
D20*
X44900000Y12510000D03*
X44900000Y11490000D03*
D31*
X82275000Y-4250000D03*
X80725000Y-4250000D03*
D42*
X48087500Y157000000D03*
X49912500Y157000000D03*
D28*
X148740000Y27100000D03*
X149760000Y27100000D03*
D31*
X19775000Y148000000D03*
X18225000Y148000000D03*
D27*
X132600000Y26050000D03*
X132600000Y27000000D03*
X132600000Y27950000D03*
X130400000Y27950000D03*
X130400000Y26050000D03*
D40*
X84660624Y34660624D03*
X83939376Y33939376D03*
D20*
X3500000Y112010000D03*
X3500000Y110990000D03*
D13*
X28770000Y138000000D03*
X29730000Y138000000D03*
D23*
X103000000Y128225000D03*
X103000000Y129775000D03*
D14*
X90760000Y89500000D03*
X89740000Y89500000D03*
D18*
X3250000Y5212500D03*
X3250000Y6787500D03*
D20*
X88000000Y98510000D03*
X88000000Y97490000D03*
D12*
X30980000Y63250000D03*
X30020000Y63250000D03*
D20*
X18000000Y146510000D03*
X18000000Y145490000D03*
X34000000Y148510000D03*
X34000000Y147490000D03*
D39*
X67205459Y25592102D03*
X67884281Y24913280D03*
D13*
X86020000Y138750000D03*
X86980000Y138750000D03*
D20*
X34000000Y151510000D03*
X34000000Y150490000D03*
D43*
X38962500Y21500000D03*
X36037500Y21500000D03*
D17*
X108475000Y12250000D03*
X110025000Y12250000D03*
D23*
X98250000Y20225000D03*
X98250000Y21775000D03*
D13*
X5420000Y143000000D03*
X6380000Y143000000D03*
D15*
X92000000Y133990000D03*
X92000000Y135010000D03*
D28*
X17490000Y138750000D03*
X18510000Y138750000D03*
D22*
X148970000Y134700000D03*
X148970000Y128900000D03*
X146430000Y134700000D03*
X146430000Y128900000D03*
X143890000Y134700000D03*
X143890000Y128900000D03*
X141350000Y134700000D03*
X141350000Y128900000D03*
X138810000Y134700000D03*
X138810000Y128900000D03*
X136270000Y134700000D03*
X136270000Y128900000D03*
X133730000Y134700000D03*
X133730000Y128900000D03*
X131190000Y134700000D03*
X131190000Y128900000D03*
X128650000Y134700000D03*
X128650000Y128900000D03*
X126110000Y134700000D03*
X126110000Y128900000D03*
X123570000Y134700000D03*
X123570000Y128900000D03*
X121030000Y134700000D03*
X121030000Y128900000D03*
X118490000Y134700000D03*
X118490000Y128900000D03*
D44*
X90843000Y94550000D03*
X91643000Y94550000D03*
X92443000Y94550000D03*
D45*
X93643000Y95750000D03*
X93643000Y96550000D03*
X93643000Y97350000D03*
D44*
X92443000Y98550000D03*
X91643000Y98550000D03*
X90843000Y98550000D03*
D45*
X89643000Y97350000D03*
X89643000Y96550000D03*
X89643000Y95750000D03*
D16*
X33500000Y137770000D03*
X33500000Y138730000D03*
D20*
X33900000Y12510000D03*
X33900000Y11490000D03*
D16*
X4500000Y113020000D03*
X4500000Y113980000D03*
D46*
X22200000Y30150000D03*
X23800000Y30150000D03*
X23800000Y28850000D03*
X22200000Y28850000D03*
D11*
X111050000Y32900000D03*
X112950000Y32900000D03*
X112000000Y35100000D03*
D13*
X55000000Y73000000D03*
X55960000Y73000000D03*
D36*
X26750000Y138980000D03*
X26750000Y138020000D03*
D15*
X31250000Y11240000D03*
X31250000Y12260000D03*
D20*
X31250000Y19065000D03*
X31250000Y18045000D03*
D47*
X90360624Y17539376D03*
X89639376Y18260624D03*
D16*
X13800000Y124220000D03*
X13800000Y125180000D03*
X104250000Y128500000D03*
X104250000Y129460000D03*
D48*
X22050000Y6000000D03*
X17950000Y6000000D03*
D15*
X41600000Y11490000D03*
X41600000Y12510000D03*
D12*
X26730000Y54250000D03*
X25770000Y54250000D03*
D36*
X16000000Y158980000D03*
X16000000Y158020000D03*
D28*
X77990000Y10100000D03*
X79010000Y10100000D03*
D17*
X101975000Y7500000D03*
X103525000Y7500000D03*
D15*
X52000000Y135240000D03*
X52000000Y136260000D03*
D12*
X26730000Y58250000D03*
X25770000Y58250000D03*
D36*
X4500000Y111980000D03*
X4500000Y111020000D03*
D12*
X108730000Y-4000000D03*
X107770000Y-4000000D03*
D49*
X140000000Y33600000D03*
X140000000Y31400000D03*
D13*
X66020000Y22400000D03*
X66980000Y22400000D03*
D12*
X66230000Y-4000000D03*
X65270000Y-4000000D03*
D31*
X95025000Y19800000D03*
X93475000Y19800000D03*
X94275000Y7500000D03*
X92725000Y7500000D03*
D50*
X55500000Y149525000D03*
X55500000Y152475000D03*
D28*
X65990000Y18400000D03*
X67010000Y18400000D03*
D31*
X69025000Y-4250000D03*
X67475000Y-4250000D03*
D36*
X4400000Y142880000D03*
X4400000Y141920000D03*
D13*
X112770000Y-4000000D03*
X113730000Y-4000000D03*
D50*
X55500000Y157025000D03*
X55500000Y159975000D03*
D51*
X16337500Y133000000D03*
X16337500Y132500000D03*
X16337500Y132000000D03*
X16337500Y131500000D03*
X16337500Y131000000D03*
X16337500Y130500000D03*
X16337500Y130000000D03*
X16337500Y129500000D03*
X16337500Y129000000D03*
X16337500Y128500000D03*
X16337500Y128000000D03*
X16337500Y127500000D03*
X16337500Y127000000D03*
X16337500Y126500000D03*
X16337500Y126000000D03*
X16337500Y125500000D03*
X16337500Y125000000D03*
X16337500Y124500000D03*
X16337500Y124000000D03*
X16337500Y123500000D03*
X16337500Y123000000D03*
X16337500Y122500000D03*
X16337500Y122000000D03*
X16337500Y121500000D03*
X16337500Y121000000D03*
D52*
X18500000Y118837500D03*
X19000000Y118837500D03*
X19500000Y118837500D03*
X20000000Y118837500D03*
X20500000Y118837500D03*
X21000000Y118837500D03*
X21500000Y118837500D03*
X22000000Y118837500D03*
X22500000Y118837500D03*
X23000000Y118837500D03*
X23500000Y118837500D03*
X24000000Y118837500D03*
X24500000Y118837500D03*
X25000000Y118837500D03*
X25500000Y118837500D03*
X26000000Y118837500D03*
X26500000Y118837500D03*
X27000000Y118837500D03*
X27500000Y118837500D03*
X28000000Y118837500D03*
X28500000Y118837500D03*
X29000000Y118837500D03*
X29500000Y118837500D03*
X30000000Y118837500D03*
X30500000Y118837500D03*
D51*
X32662500Y121000000D03*
X32662500Y121500000D03*
X32662500Y122000000D03*
X32662500Y122500000D03*
X32662500Y123000000D03*
X32662500Y123500000D03*
X32662500Y124000000D03*
X32662500Y124500000D03*
X32662500Y125000000D03*
X32662500Y125500000D03*
X32662500Y126000000D03*
X32662500Y126500000D03*
X32662500Y127000000D03*
X32662500Y127500000D03*
X32662500Y128000000D03*
X32662500Y128500000D03*
X32662500Y129000000D03*
X32662500Y129500000D03*
X32662500Y130000000D03*
X32662500Y130500000D03*
X32662500Y131000000D03*
X32662500Y131500000D03*
X32662500Y132000000D03*
X32662500Y132500000D03*
X32662500Y133000000D03*
D52*
X30500000Y135162500D03*
X30000000Y135162500D03*
X29500000Y135162500D03*
X29000000Y135162500D03*
X28500000Y135162500D03*
X28000000Y135162500D03*
X27500000Y135162500D03*
X27000000Y135162500D03*
X26500000Y135162500D03*
X26000000Y135162500D03*
X25500000Y135162500D03*
X25000000Y135162500D03*
X24500000Y135162500D03*
X24000000Y135162500D03*
X23500000Y135162500D03*
X23000000Y135162500D03*
X22500000Y135162500D03*
X22000000Y135162500D03*
X21500000Y135162500D03*
X21000000Y135162500D03*
X20500000Y135162500D03*
X20000000Y135162500D03*
X19500000Y135162500D03*
X19000000Y135162500D03*
X18500000Y135162500D03*
D53*
X24185000Y54650000D03*
X24185000Y55050000D03*
X24185000Y55450000D03*
X24185000Y55850000D03*
X24185000Y56250000D03*
X24185000Y56650000D03*
X24185000Y57050000D03*
X24185000Y57450000D03*
X24185000Y57850000D03*
X24185000Y58250000D03*
X24185000Y58650000D03*
X24185000Y59050000D03*
X24185000Y59450000D03*
X24185000Y59850000D03*
D54*
X23350000Y60685000D03*
X22950000Y60685000D03*
X22550000Y60685000D03*
X22150000Y60685000D03*
X21750000Y60685000D03*
X21350000Y60685000D03*
X20950000Y60685000D03*
X20550000Y60685000D03*
X20150000Y60685000D03*
X19750000Y60685000D03*
X19350000Y60685000D03*
X18950000Y60685000D03*
X18550000Y60685000D03*
X18150000Y60685000D03*
D53*
X17315000Y59850000D03*
X17315000Y59450000D03*
X17315000Y59050000D03*
X17315000Y58650000D03*
X17315000Y58250000D03*
X17315000Y57850000D03*
X17315000Y57450000D03*
X17315000Y57050000D03*
X17315000Y56650000D03*
X17315000Y56250000D03*
X17315000Y55850000D03*
X17315000Y55450000D03*
X17315000Y55050000D03*
X17315000Y54650000D03*
D54*
X18150000Y53815000D03*
X18550000Y53815000D03*
X18950000Y53815000D03*
X19350000Y53815000D03*
X19750000Y53815000D03*
X20150000Y53815000D03*
X20550000Y53815000D03*
X20950000Y53815000D03*
X21350000Y53815000D03*
X21750000Y53815000D03*
X22150000Y53815000D03*
X22550000Y53815000D03*
X22950000Y53815000D03*
X23350000Y53815000D03*
D15*
X33000000Y150490000D03*
X33000000Y151510000D03*
D17*
X50975000Y-4250000D03*
X52525000Y-4250000D03*
D39*
X69751043Y28137686D03*
X70429865Y27458864D03*
D13*
X99540000Y7250000D03*
X100500000Y7250000D03*
D16*
X20750000Y51270000D03*
X20750000Y52230000D03*
D14*
X92760000Y100250000D03*
X91740000Y100250000D03*
D13*
X5020000Y78500000D03*
X5980000Y78500000D03*
D15*
X14500000Y5990000D03*
X14500000Y7010000D03*
D12*
X73230000Y-4000000D03*
X72270000Y-4000000D03*
X73080000Y10900000D03*
X72120000Y10900000D03*
D25*
X87683271Y28703372D03*
X87004449Y28024550D03*
D14*
X40510000Y134000000D03*
X39490000Y134000000D03*
D19*
X89825000Y35500000D03*
X88175000Y35500000D03*
D15*
X16000000Y5990000D03*
X16000000Y7010000D03*
D27*
X149100000Y5550000D03*
X149100000Y6500000D03*
X149100000Y7450000D03*
X146900000Y7450000D03*
X146900000Y6500000D03*
X146900000Y5550000D03*
D28*
X91990000Y89500000D03*
X93010000Y89500000D03*
D20*
X18500000Y13510000D03*
X18500000Y12490000D03*
D14*
X113510000Y20750000D03*
X112490000Y20750000D03*
D20*
X42700000Y12510000D03*
X42700000Y11490000D03*
D13*
X87270000Y131750000D03*
X88230000Y131750000D03*
D39*
X71448100Y29834743D03*
X72126922Y29155921D03*
D36*
X16750000Y52230000D03*
X16750000Y51270000D03*
D55*
X156600000Y44500000D03*
X154400000Y44500000D03*
D31*
X111525000Y-4250000D03*
X109975000Y-4250000D03*
D22*
X53870000Y104345000D03*
X53870000Y110145000D03*
X56410000Y104345000D03*
X56410000Y110145000D03*
X58950000Y104345000D03*
X58950000Y110145000D03*
X61490000Y104345000D03*
X61490000Y110145000D03*
X64030000Y104345000D03*
X64030000Y110145000D03*
X66570000Y104345000D03*
X66570000Y110145000D03*
X69110000Y104345000D03*
X69110000Y110145000D03*
X71650000Y104345000D03*
X71650000Y110145000D03*
X74190000Y104345000D03*
X74190000Y110145000D03*
X76730000Y104345000D03*
X76730000Y110145000D03*
X79270000Y104345000D03*
X79270000Y110145000D03*
X81810000Y104345000D03*
X81810000Y110145000D03*
X84350000Y104345000D03*
X84350000Y110145000D03*
X86890000Y104345000D03*
X86890000Y110145000D03*
X89430000Y104345000D03*
X89430000Y110145000D03*
X91970000Y104345000D03*
X91970000Y110145000D03*
X94510000Y104345000D03*
X94510000Y110145000D03*
X97050000Y104345000D03*
X97050000Y110145000D03*
X99590000Y104345000D03*
X99590000Y110145000D03*
X102130000Y104345000D03*
X102130000Y110145000D03*
D30*
X52000000Y150087500D03*
X52000000Y151912500D03*
D19*
X95075000Y21500000D03*
X93425000Y21500000D03*
D13*
X68720000Y14500000D03*
X69680000Y14500000D03*
X8520000Y87500000D03*
X9480000Y87500000D03*
D37*
X87117585Y14730942D03*
X86438763Y15409764D03*
D25*
X89380327Y27006316D03*
X88701505Y26327494D03*
D13*
X68720000Y12500000D03*
X69680000Y12500000D03*
D36*
X140500000Y35980000D03*
X140500000Y35020000D03*
D56*
X96425000Y131900000D03*
X95775000Y131900000D03*
X95125000Y131900000D03*
X94475000Y131900000D03*
X93825000Y131900000D03*
X93175000Y131900000D03*
X92525000Y131900000D03*
X91875000Y131900000D03*
X91225000Y131900000D03*
X90575000Y131900000D03*
X90575000Y126100000D03*
X91225000Y126100000D03*
X91875000Y126100000D03*
X92525000Y126100000D03*
X93175000Y126100000D03*
X93825000Y126100000D03*
X94475000Y126100000D03*
X95125000Y126100000D03*
X95775000Y126100000D03*
X96425000Y126100000D03*
D20*
X142500000Y1260000D03*
X142500000Y240000D03*
D15*
X93000000Y133990000D03*
X93000000Y135010000D03*
D39*
X74559369Y32946012D03*
X75238191Y32267190D03*
D57*
X26100000Y62900000D03*
X26100000Y65100000D03*
X24400000Y65100000D03*
X24400000Y62900000D03*
D16*
X4500000Y109020000D03*
X4500000Y109980000D03*
D21*
X156500000Y18000000D03*
X156500000Y26000000D03*
X152000000Y18000000D03*
X152000000Y26000000D03*
D15*
X53000000Y135240000D03*
X53000000Y136260000D03*
D16*
X101750000Y128520000D03*
X101750000Y129480000D03*
X89250000Y134020000D03*
X89250000Y134980000D03*
D14*
X73110000Y9800000D03*
X72090000Y9800000D03*
D17*
X7725000Y46250000D03*
X9275000Y46250000D03*
D15*
X150000000Y47490000D03*
X150000000Y48510000D03*
D12*
X7980000Y78500000D03*
X7020000Y78500000D03*
D37*
X91239411Y18860589D03*
X90560589Y19539411D03*
D20*
X61750000Y8260000D03*
X61750000Y7240000D03*
X36100000Y12510000D03*
X36100000Y11490000D03*
D12*
X108730000Y7250000D03*
X107770000Y7250000D03*
D15*
X52000000Y133240000D03*
X52000000Y134260000D03*
X21750000Y62240000D03*
X21750000Y63260000D03*
D17*
X103225000Y26500000D03*
X104775000Y26500000D03*
D28*
X126740000Y13000000D03*
X127760000Y13000000D03*
D39*
X68336830Y26723473D03*
X69015652Y26044651D03*
D20*
X29000000Y64260000D03*
X29000000Y63240000D03*
D12*
X29730000Y140000000D03*
X28770000Y140000000D03*
D11*
X137550000Y9900000D03*
X139450000Y9900000D03*
X138500000Y12100000D03*
D12*
X66980000Y15100000D03*
X66020000Y15100000D03*
D16*
X28200000Y115120000D03*
X28200000Y116080000D03*
D11*
X156450000Y49100000D03*
X154550000Y49100000D03*
X155500000Y46900000D03*
D12*
X21730000Y64250000D03*
X20770000Y64250000D03*
D11*
X6450000Y146500000D03*
X5500000Y146500000D03*
X4550000Y146500000D03*
X4550000Y144300000D03*
X6450000Y144300000D03*
D12*
X120980000Y7250000D03*
X120020000Y7250000D03*
D58*
X105495000Y19690000D03*
X105495000Y20960000D03*
X105495000Y22230000D03*
X105495000Y23500000D03*
X100500000Y23500000D03*
X100500000Y22230000D03*
X100500000Y20960000D03*
X100500000Y19690000D03*
D59*
X102997500Y21595000D03*
D28*
X70740000Y7250000D03*
X71760000Y7250000D03*
D15*
X9000000Y146740000D03*
X9000000Y147760000D03*
X99000000Y9240000D03*
X99000000Y10260000D03*
D14*
X117010000Y39500000D03*
X115990000Y39500000D03*
D13*
X74120000Y10900000D03*
X75080000Y10900000D03*
X26520000Y140000000D03*
X27480000Y140000000D03*
D28*
X21490000Y143000000D03*
X22510000Y143000000D03*
D20*
X38300000Y12510000D03*
X38300000Y11490000D03*
D28*
X80000000Y10100000D03*
X81020000Y10100000D03*
D60*
X108500000Y17325000D03*
X108500000Y15675000D03*
D14*
X17010000Y39500000D03*
X15990000Y39500000D03*
D17*
X116475000Y7500000D03*
X118025000Y7500000D03*
D28*
X114740000Y-4000000D03*
X115760000Y-4000000D03*
D15*
X35000000Y11490000D03*
X35000000Y12510000D03*
D37*
X83723473Y11336830D03*
X83044651Y12015652D03*
D27*
X32100000Y41300000D03*
X29900000Y42250000D03*
X32100000Y43200000D03*
D13*
X66020000Y17300000D03*
X66980000Y17300000D03*
D36*
X113500000Y37480000D03*
X113500000Y36520000D03*
D15*
X33000000Y147490000D03*
X33000000Y148510000D03*
D39*
X70740993Y29127636D03*
X71419815Y28448814D03*
D46*
X22200000Y27150000D03*
X23800000Y27150000D03*
X23800000Y25850000D03*
X22200000Y25850000D03*
D17*
X55725000Y11250000D03*
X57275000Y11250000D03*
D37*
X88673220Y16286577D03*
X87994398Y16965399D03*
D13*
X12520000Y134500000D03*
X13480000Y134500000D03*
D12*
X85480000Y7250000D03*
X84520000Y7250000D03*
D14*
X67010000Y21200000D03*
X65990000Y21200000D03*
D31*
X149275000Y113000000D03*
X147725000Y113000000D03*
D15*
X39400000Y11490000D03*
X39400000Y12510000D03*
X33500000Y34740000D03*
X33500000Y35760000D03*
D46*
X9200000Y57150000D03*
X10800000Y57150000D03*
X10800000Y55850000D03*
X9200000Y55850000D03*
D61*
X91139376Y16760624D03*
X91860624Y16039376D03*
D17*
X54725000Y71500000D03*
X56275000Y71500000D03*
D20*
X31250000Y21565000D03*
X31250000Y20545000D03*
D11*
X98300000Y127900000D03*
X99250000Y127900000D03*
X100200000Y127900000D03*
X100200000Y130100000D03*
X98300000Y130100000D03*
D24*
X7250000Y6775000D03*
X7250000Y5225000D03*
D12*
X9980000Y78500000D03*
X9020000Y78500000D03*
D15*
X20800000Y145490000D03*
X20800000Y146510000D03*
D47*
X92660624Y16839376D03*
X91939376Y17560624D03*
D12*
X14980000Y149500000D03*
X14020000Y149500000D03*
D15*
X31250000Y13740000D03*
X31250000Y14760000D03*
D24*
X59250000Y18275000D03*
X59250000Y16725000D03*
D36*
X98000000Y126380000D03*
X98000000Y125420000D03*
D16*
X4500000Y117770000D03*
X4500000Y118730000D03*
D37*
X89380327Y16993684D03*
X88701505Y17672506D03*
D13*
X26520000Y141000000D03*
X27480000Y141000000D03*
D36*
X8000000Y147730000D03*
X8000000Y146770000D03*
D28*
X18490000Y9000000D03*
X19510000Y9000000D03*
D17*
X104225000Y-4250000D03*
X105775000Y-4250000D03*
D36*
X20750000Y63230000D03*
X20750000Y62270000D03*
D20*
X60500000Y8260000D03*
X60500000Y7240000D03*
D12*
X29730000Y139000000D03*
X28770000Y139000000D03*
X148480000Y4250000D03*
X147520000Y4250000D03*
D15*
X33500000Y31240000D03*
X33500000Y32260000D03*
D14*
X15760000Y59500000D03*
X14740000Y59500000D03*
D31*
X98775000Y-4250000D03*
X97225000Y-4250000D03*
D12*
X66980000Y12900000D03*
X66020000Y12900000D03*
D23*
X51000000Y725000D03*
X51000000Y2275000D03*
D15*
X97750000Y9240000D03*
X97750000Y10260000D03*
D16*
X34500000Y137770000D03*
X34500000Y138730000D03*
D15*
X33500000Y38240000D03*
X33500000Y39260000D03*
D20*
X95250000Y98510000D03*
X95250000Y97490000D03*
D31*
X112275000Y7500000D03*
X110725000Y7500000D03*
D60*
X57500000Y18325000D03*
X57500000Y16675000D03*
D13*
X39520000Y135000000D03*
X40480000Y135000000D03*
D28*
X142490000Y14000000D03*
X143510000Y14000000D03*
D16*
X22750000Y62270000D03*
X22750000Y63230000D03*
D47*
X76060624Y33039376D03*
X75339376Y33760624D03*
D12*
X26480000Y143000000D03*
X25520000Y143000000D03*
D50*
X112500000Y149525000D03*
X112500000Y152475000D03*
D15*
X3500000Y119740000D03*
X3500000Y120760000D03*
D13*
X14770000Y54250000D03*
X15730000Y54250000D03*
D24*
X147250000Y28775000D03*
X147250000Y27225000D03*
D27*
X75100000Y93550000D03*
X75100000Y94500000D03*
X75100000Y95450000D03*
X72900000Y95450000D03*
X72900000Y93550000D03*
D13*
X70270000Y-4000000D03*
X71230000Y-4000000D03*
D12*
X33230000Y22555000D03*
X32270000Y22555000D03*
D23*
X96500000Y134225000D03*
X96500000Y135775000D03*
D60*
X55750000Y16575000D03*
X55750000Y14925000D03*
D14*
X14760000Y69000000D03*
X13740000Y69000000D03*
D28*
X154990000Y51000000D03*
X156010000Y51000000D03*
D24*
X1500000Y6775000D03*
X1500000Y5225000D03*
D28*
X99990000Y25250000D03*
X101010000Y25250000D03*
D41*
X11500000Y60287500D03*
X11500000Y58712500D03*
D16*
X21750000Y51270000D03*
X21750000Y52230000D03*
D20*
X140000000Y46510000D03*
X140000000Y45490000D03*
D24*
X9500000Y60275000D03*
X9500000Y58725000D03*
D15*
X33500000Y41740000D03*
X33500000Y42760000D03*
D20*
X63500000Y8260000D03*
X63500000Y7240000D03*
D11*
X138050000Y39400000D03*
X139950000Y39400000D03*
X139000000Y41600000D03*
D37*
X85703372Y13316729D03*
X85024550Y13995551D03*
D15*
X41500000Y132990000D03*
X41500000Y134010000D03*
X53000000Y124490000D03*
X53000000Y125510000D03*
X46000000Y11490000D03*
X46000000Y12510000D03*
D11*
X140950000Y-2150000D03*
X139050000Y-2150000D03*
X140000000Y-4350000D03*
D24*
X51000000Y5525000D03*
X51000000Y3975000D03*
D15*
X93250000Y9240000D03*
X93250000Y10260000D03*
D20*
X59500000Y22510000D03*
X59500000Y21490000D03*
D39*
X73427999Y31814642D03*
X74106821Y31135820D03*
D14*
X17010000Y36500000D03*
X15990000Y36500000D03*
D28*
X18490000Y10000000D03*
X19510000Y10000000D03*
D62*
X116000000Y159912500D03*
X116000000Y158087500D03*
D63*
X31100000Y47595000D03*
X31100000Y48865000D03*
X31100000Y50135000D03*
X31100000Y51405000D03*
X23900000Y51405000D03*
X23900000Y50135000D03*
X23900000Y48865000D03*
X23900000Y47595000D03*
D27*
X32100000Y34300000D03*
X29900000Y35250000D03*
X32100000Y36200000D03*
D13*
X30020000Y58250000D03*
X30980000Y58250000D03*
D41*
X4000000Y106737500D03*
X4000000Y105162500D03*
D64*
X55140000Y53950000D03*
X55140000Y58050000D03*
X56410000Y53950000D03*
X56410000Y58050000D03*
X57680000Y53950000D03*
X57680000Y58050000D03*
X58950000Y53950000D03*
X58950000Y58050000D03*
X60220000Y53950000D03*
X60220000Y58050000D03*
X61490000Y53950000D03*
X61490000Y58050000D03*
X62760000Y53950000D03*
X62760000Y58050000D03*
X64030000Y53950000D03*
X64030000Y58050000D03*
X65300000Y53950000D03*
X65300000Y58050000D03*
X66570000Y53950000D03*
X66570000Y58050000D03*
X67840000Y53950000D03*
X67840000Y58050000D03*
X69110000Y53950000D03*
X69110000Y58050000D03*
X70380000Y53950000D03*
X70380000Y58050000D03*
X71650000Y53950000D03*
X71650000Y58050000D03*
X72920000Y53950000D03*
X72920000Y58050000D03*
X74190000Y53950000D03*
X74190000Y58050000D03*
X75460000Y53950000D03*
X75460000Y58050000D03*
X76730000Y53950000D03*
X76730000Y58050000D03*
X78000000Y53950000D03*
X78000000Y58050000D03*
X79270000Y53950000D03*
X79270000Y58050000D03*
X80540000Y53950000D03*
X80540000Y58050000D03*
X81810000Y53950000D03*
X81810000Y58050000D03*
X83080000Y53950000D03*
X83080000Y58050000D03*
X84350000Y53950000D03*
X84350000Y58050000D03*
X85620000Y53950000D03*
X85620000Y58050000D03*
X86890000Y53950000D03*
X86890000Y58050000D03*
X88160000Y53950000D03*
X88160000Y58050000D03*
X89430000Y53950000D03*
X89430000Y58050000D03*
X90700000Y53950000D03*
X90700000Y58050000D03*
X91970000Y53950000D03*
X91970000Y58050000D03*
X93240000Y53950000D03*
X93240000Y58050000D03*
X94510000Y53950000D03*
X94510000Y58050000D03*
X55140000Y75950000D03*
X55140000Y80050000D03*
X56410000Y75950000D03*
X56410000Y80050000D03*
X57680000Y75950000D03*
X57680000Y80050000D03*
X58950000Y75950000D03*
X58950000Y80050000D03*
X60220000Y75950000D03*
X60220000Y80050000D03*
X61490000Y75950000D03*
X61490000Y80050000D03*
X62760000Y75950000D03*
X62760000Y80050000D03*
X64030000Y75950000D03*
X64030000Y80050000D03*
X65300000Y75950000D03*
X65300000Y80050000D03*
X66570000Y75950000D03*
X66580000Y80050000D03*
X67840000Y75950000D03*
X67840000Y80050000D03*
X69110000Y75950000D03*
X69110000Y80050000D03*
X70380000Y75950000D03*
X70380000Y80050000D03*
X71650000Y75950000D03*
X71650000Y80050000D03*
X72920000Y75950000D03*
X72920000Y80050000D03*
X74190000Y75950000D03*
X74190000Y80050000D03*
X75460000Y75950000D03*
X75460000Y80050000D03*
X76730000Y75950000D03*
X76730000Y80050000D03*
X78000000Y75950000D03*
X78000000Y80050000D03*
X79270000Y75950000D03*
X79270000Y80050000D03*
X80540000Y75950000D03*
X80540000Y80050000D03*
X81810000Y75950000D03*
X81810000Y80050000D03*
X83080000Y75950000D03*
X83080000Y80050000D03*
X84350000Y75950000D03*
X84350000Y80050000D03*
X85620000Y75950000D03*
X85620000Y80050000D03*
X86890000Y75950000D03*
X86890000Y80050000D03*
X88160000Y75950000D03*
X88160000Y80050000D03*
X89430000Y75950000D03*
X89430000Y80050000D03*
X90700000Y75950000D03*
X90700000Y80050000D03*
X91970000Y75950000D03*
X91970000Y80050000D03*
X93240000Y75950000D03*
X93240000Y80050000D03*
X94510000Y75950000D03*
X94510000Y80050000D03*
D16*
X9000000Y143770000D03*
X9000000Y144730000D03*
D23*
X90500000Y134225000D03*
X90500000Y135775000D03*
D28*
X26490000Y144400000D03*
X27510000Y144400000D03*
D12*
X95980000Y-4000000D03*
X95020000Y-4000000D03*
D15*
X43800000Y11490000D03*
X43800000Y12510000D03*
D12*
X66980000Y16200000D03*
X66020000Y16200000D03*
D47*
X74560624Y12639376D03*
X73839376Y13360624D03*
D16*
X53900000Y-4930000D03*
X53900000Y-3970000D03*
D20*
X150000000Y45010000D03*
X150000000Y43990000D03*
X51900000Y125510000D03*
X51900000Y124490000D03*
D46*
X9200000Y53650000D03*
X10800000Y53650000D03*
X10800000Y52350000D03*
X9200000Y52350000D03*
D36*
X19500000Y138730000D03*
X19500000Y137770000D03*
D31*
X14275000Y158500000D03*
X12725000Y158500000D03*
D25*
X90794541Y25592102D03*
X90115719Y24913280D03*
D65*
X11025000Y147905000D03*
X11025000Y146635000D03*
X11025000Y145365000D03*
X11025000Y144095000D03*
X15975000Y144095000D03*
X15975000Y145365000D03*
X15975000Y146635000D03*
X15975000Y147905000D03*
D15*
X37200000Y11490000D03*
X37200000Y12510000D03*
D66*
X13575000Y137500000D03*
X8425000Y137500000D03*
D13*
X31520000Y137750000D03*
X32480000Y137750000D03*
D55*
X130600000Y43500000D03*
X128400000Y43500000D03*
D31*
X14275000Y153500000D03*
X12725000Y153500000D03*
D15*
X3500000Y112990000D03*
X3500000Y114010000D03*
D13*
X86020000Y137500000D03*
X86980000Y137500000D03*
D16*
X134500000Y26020000D03*
X134500000Y26980000D03*
D67*
X28765000Y11555000D03*
X28765000Y12825000D03*
X28765000Y14095000D03*
X28765000Y15365000D03*
X28765000Y16635000D03*
X28765000Y17905000D03*
X28765000Y19175000D03*
X28765000Y20445000D03*
X20235000Y20445000D03*
X20235000Y19175000D03*
X20235000Y17905000D03*
X20235000Y16635000D03*
X20235000Y15365000D03*
X20235000Y14095000D03*
X20235000Y12825000D03*
X20235000Y11555000D03*
D37*
X82874945Y10488302D03*
X82196123Y11167124D03*
D15*
X94300000Y9240000D03*
X94300000Y10260000D03*
D13*
X25520000Y23500000D03*
X26480000Y23500000D03*
D20*
X67000000Y8260000D03*
X67000000Y7240000D03*
D14*
X112510000Y31250000D03*
X111490000Y31250000D03*
D31*
X97775000Y124000000D03*
X96225000Y124000000D03*
D16*
X16000000Y153020000D03*
X16000000Y153980000D03*
D36*
X27750000Y138980000D03*
X27750000Y138020000D03*
D13*
X92770000Y93000000D03*
X93730000Y93000000D03*
D25*
X86056925Y30329717D03*
X85378103Y29650895D03*
X86764032Y29622611D03*
X86085210Y28943789D03*
D12*
X100980000Y-4000000D03*
X100020000Y-4000000D03*
D28*
X129240000Y13000000D03*
X130260000Y13000000D03*
D31*
X95025000Y25750000D03*
X93475000Y25750000D03*
D12*
X84730000Y-4000000D03*
X83770000Y-4000000D03*
D15*
X18500000Y23990000D03*
X18500000Y25010000D03*
D68*
X69197732Y20965856D03*
X69480575Y20683014D03*
X69763418Y20400171D03*
X70046260Y20117328D03*
X70329103Y19834485D03*
X70611946Y19551643D03*
X70894789Y19268800D03*
X71177631Y18985957D03*
X71460474Y18703115D03*
X71743317Y18420272D03*
X72026159Y18137429D03*
X72309002Y17854586D03*
X72591845Y17571744D03*
X72874688Y17288901D03*
X73157530Y17006058D03*
X73440373Y16723216D03*
X73723216Y16440373D03*
X74006058Y16157530D03*
X74288901Y15874688D03*
X74571744Y15591845D03*
X74854586Y15309002D03*
X75137429Y15026159D03*
X75420272Y14743317D03*
X75703115Y14460474D03*
X75985957Y14177631D03*
X76268800Y13894789D03*
X76551643Y13611946D03*
X76834485Y13329103D03*
X77117328Y13046260D03*
X77400171Y12763418D03*
X77683014Y12480575D03*
X77965856Y12197732D03*
D69*
X80034144Y12197732D03*
X80316986Y12480575D03*
X80599829Y12763418D03*
X80882672Y13046260D03*
X81165515Y13329103D03*
X81448357Y13611946D03*
X81731200Y13894789D03*
X82014043Y14177631D03*
X82296885Y14460474D03*
X82579728Y14743317D03*
X82862571Y15026159D03*
X83145414Y15309002D03*
X83428256Y15591845D03*
X83711099Y15874688D03*
X83993942Y16157530D03*
X84276784Y16440373D03*
X84559627Y16723216D03*
X84842470Y17006058D03*
X85125312Y17288901D03*
X85408155Y17571744D03*
X85690998Y17854586D03*
X85973841Y18137429D03*
X86256683Y18420272D03*
X86539526Y18703115D03*
X86822369Y18985957D03*
X87105211Y19268800D03*
X87388054Y19551643D03*
X87670897Y19834485D03*
X87953740Y20117328D03*
X88236582Y20400171D03*
X88519425Y20683014D03*
X88802268Y20965856D03*
D68*
X88802268Y23034144D03*
X88519425Y23316986D03*
X88236582Y23599829D03*
X87953740Y23882672D03*
X87670897Y24165515D03*
X87388054Y24448357D03*
X87105211Y24731200D03*
X86822369Y25014043D03*
X86539526Y25296885D03*
X86256683Y25579728D03*
X85973841Y25862571D03*
X85690998Y26145414D03*
X85408155Y26428256D03*
X85125312Y26711099D03*
X84842470Y26993942D03*
X84559627Y27276784D03*
X84276784Y27559627D03*
X83993942Y27842470D03*
X83711099Y28125312D03*
X83428256Y28408155D03*
X83145414Y28690998D03*
X82862571Y28973841D03*
X82579728Y29256683D03*
X82296885Y29539526D03*
X82014043Y29822369D03*
X81731200Y30105211D03*
X81448357Y30388054D03*
X81165515Y30670897D03*
X80882672Y30953740D03*
X80599829Y31236582D03*
X80316986Y31519425D03*
X80034144Y31802268D03*
D69*
X77965856Y31802268D03*
X77683014Y31519425D03*
X77400171Y31236582D03*
X77117328Y30953740D03*
X76834485Y30670897D03*
X76551643Y30388054D03*
X76268800Y30105211D03*
X75985957Y29822369D03*
X75703115Y29539526D03*
X75420272Y29256683D03*
X75137429Y28973841D03*
X74854586Y28690998D03*
X74571744Y28408155D03*
X74288901Y28125312D03*
X74006058Y27842470D03*
X73723216Y27559627D03*
X73440373Y27276784D03*
X73157530Y26993942D03*
X72874688Y26711099D03*
X72591845Y26428256D03*
X72309002Y26145414D03*
X72026159Y25862571D03*
X71743317Y25579728D03*
X71460474Y25296885D03*
X71177631Y25014043D03*
X70894789Y24731200D03*
X70611946Y24448357D03*
X70329103Y24165515D03*
X70046260Y23882672D03*
X69763418Y23599829D03*
X69480575Y23316986D03*
X69197732Y23034144D03*
D70*
X79000000Y22000000D03*
M02*
