%TF.GenerationSoftware,KiCad,Pcbnew,7.0.8*%
%TF.CreationDate,2023-10-29T22:50:50+01:00*%
%TF.ProjectId,ITX-Llama,4954582d-4c6c-4616-9d61-2e6b69636164,E*%
%TF.SameCoordinates,Original*%
%TF.FileFunction,Drillmap*%
%TF.FilePolarity,Positive*%
%FSLAX45Y45*%
G04 Gerber Fmt 4.5, Leading zero omitted, Abs format (unit mm)*
G04 Created by KiCad (PCBNEW 7.0.8) date 2023-10-29 22:50:50*
%MOMM*%
%LPD*%
G01*
G04 APERTURE LIST*
%ADD10C,0.200000*%
%ADD11C,0.050000*%
%ADD12C,0.100000*%
%ADD13C,0.130000*%
%ADD14C,0.244000*%
%ADD15C,0.500000*%
G04 APERTURE END LIST*
D10*
D11*
X-1911000Y16408000D02*
X-1861000Y16358000D01*
X-1861000Y16408000D02*
X-1911000Y16358000D01*
X-1911000Y-592000D02*
X-1861000Y-642000D01*
X-1861000Y-592000D02*
X-1911000Y-642000D01*
X-1831000Y16408000D02*
X-1781000Y16358000D01*
X-1781000Y16408000D02*
X-1831000Y16358000D01*
X-1831000Y-592000D02*
X-1781000Y-642000D01*
X-1781000Y-592000D02*
X-1831000Y-642000D01*
X-1751000Y16408000D02*
X-1701000Y16358000D01*
X-1701000Y16408000D02*
X-1751000Y16358000D01*
X-1751000Y-592000D02*
X-1701000Y-642000D01*
X-1701000Y-592000D02*
X-1751000Y-642000D01*
X-1671000Y16408000D02*
X-1621000Y16358000D01*
X-1621000Y16408000D02*
X-1671000Y16358000D01*
X-1671000Y-592000D02*
X-1621000Y-642000D01*
X-1621000Y-592000D02*
X-1671000Y-642000D01*
X-1591000Y16408000D02*
X-1541000Y16358000D01*
X-1541000Y16408000D02*
X-1591000Y16358000D01*
X-1591000Y-592000D02*
X-1541000Y-642000D01*
X-1541000Y-592000D02*
X-1591000Y-642000D01*
X-1511000Y16408000D02*
X-1461000Y16358000D01*
X-1461000Y16408000D02*
X-1511000Y16358000D01*
X-1511000Y-592000D02*
X-1461000Y-642000D01*
X-1461000Y-592000D02*
X-1511000Y-642000D01*
X-1431000Y16408000D02*
X-1381000Y16358000D01*
X-1381000Y16408000D02*
X-1431000Y16358000D01*
X-1431000Y-592000D02*
X-1381000Y-642000D01*
X-1381000Y-592000D02*
X-1431000Y-642000D01*
X-1351000Y16408000D02*
X-1301000Y16358000D01*
X-1301000Y16408000D02*
X-1351000Y16358000D01*
X-1351000Y-592000D02*
X-1301000Y-642000D01*
X-1301000Y-592000D02*
X-1351000Y-642000D01*
X-1271000Y16408000D02*
X-1221000Y16358000D01*
X-1221000Y16408000D02*
X-1271000Y16358000D01*
X-1271000Y-592000D02*
X-1221000Y-642000D01*
X-1221000Y-592000D02*
X-1271000Y-642000D01*
X-1041000Y10948000D02*
X-991000Y10898000D01*
X-991000Y10948000D02*
X-1041000Y10898000D01*
X-1041000Y10868000D02*
X-991000Y10818000D01*
X-991000Y10868000D02*
X-1041000Y10818000D01*
X-1041000Y10788000D02*
X-991000Y10738000D01*
X-991000Y10788000D02*
X-1041000Y10738000D01*
X-1041000Y10708000D02*
X-991000Y10658000D01*
X-991000Y10708000D02*
X-1041000Y10658000D01*
X-1041000Y10628000D02*
X-991000Y10578000D01*
X-991000Y10628000D02*
X-1041000Y10578000D01*
X-1041000Y10548000D02*
X-991000Y10498000D01*
X-991000Y10548000D02*
X-1041000Y10498000D01*
X-1041000Y10468000D02*
X-991000Y10418000D01*
X-991000Y10468000D02*
X-1041000Y10418000D01*
X-1041000Y5348000D02*
X-991000Y5298000D01*
X-991000Y5348000D02*
X-1041000Y5298000D01*
X-1041000Y5268000D02*
X-991000Y5218000D01*
X-991000Y5268000D02*
X-1041000Y5218000D01*
X-1041000Y5188000D02*
X-991000Y5138000D01*
X-991000Y5188000D02*
X-1041000Y5138000D01*
X-1041000Y5108000D02*
X-991000Y5058000D01*
X-991000Y5108000D02*
X-1041000Y5058000D01*
X-1041000Y5028000D02*
X-991000Y4978000D01*
X-991000Y5028000D02*
X-1041000Y4978000D01*
X-1041000Y4948000D02*
X-991000Y4898000D01*
X-991000Y4948000D02*
X-1041000Y4898000D01*
X-1041000Y4868000D02*
X-991000Y4818000D01*
X-991000Y4868000D02*
X-1041000Y4818000D01*
X4419000Y16408000D02*
X4469000Y16358000D01*
X4469000Y16408000D02*
X4419000Y16358000D01*
X4419000Y-592000D02*
X4469000Y-642000D01*
X4469000Y-592000D02*
X4419000Y-642000D01*
X4499000Y16408000D02*
X4549000Y16358000D01*
X4549000Y16408000D02*
X4499000Y16358000D01*
X4499000Y-592000D02*
X4549000Y-642000D01*
X4549000Y-592000D02*
X4499000Y-642000D01*
X4579000Y16408000D02*
X4629000Y16358000D01*
X4629000Y16408000D02*
X4579000Y16358000D01*
X4579000Y-592000D02*
X4629000Y-642000D01*
X4629000Y-592000D02*
X4579000Y-642000D01*
X4659000Y16408000D02*
X4709000Y16358000D01*
X4709000Y16408000D02*
X4659000Y16358000D01*
X4659000Y-592000D02*
X4709000Y-642000D01*
X4709000Y-592000D02*
X4659000Y-642000D01*
X4739000Y16408000D02*
X4789000Y16358000D01*
X4789000Y16408000D02*
X4739000Y16358000D01*
X4739000Y-592000D02*
X4789000Y-642000D01*
X4789000Y-592000D02*
X4739000Y-642000D01*
X4819000Y16408000D02*
X4869000Y16358000D01*
X4869000Y16408000D02*
X4819000Y16358000D01*
X4819000Y-592000D02*
X4869000Y-642000D01*
X4869000Y-592000D02*
X4819000Y-642000D01*
X4899000Y16408000D02*
X4949000Y16358000D01*
X4949000Y16408000D02*
X4899000Y16358000D01*
X4899000Y-592000D02*
X4949000Y-642000D01*
X4949000Y-592000D02*
X4899000Y-642000D01*
X10019000Y16408000D02*
X10069000Y16358000D01*
X10069000Y16408000D02*
X10019000Y16358000D01*
X10019000Y-592000D02*
X10069000Y-642000D01*
X10069000Y-592000D02*
X10019000Y-642000D01*
X10099000Y16408000D02*
X10149000Y16358000D01*
X10149000Y16408000D02*
X10099000Y16358000D01*
X10099000Y-592000D02*
X10149000Y-642000D01*
X10149000Y-592000D02*
X10099000Y-642000D01*
X10179000Y16408000D02*
X10229000Y16358000D01*
X10229000Y16408000D02*
X10179000Y16358000D01*
X10179000Y-592000D02*
X10229000Y-642000D01*
X10229000Y-592000D02*
X10179000Y-642000D01*
X10259000Y16408000D02*
X10309000Y16358000D01*
X10309000Y16408000D02*
X10259000Y16358000D01*
X10259000Y-592000D02*
X10309000Y-642000D01*
X10309000Y-592000D02*
X10259000Y-642000D01*
X10339000Y16408000D02*
X10389000Y16358000D01*
X10389000Y16408000D02*
X10339000Y16358000D01*
X10339000Y-592000D02*
X10389000Y-642000D01*
X10389000Y-592000D02*
X10339000Y-642000D01*
X10419000Y16408000D02*
X10469000Y16358000D01*
X10469000Y16408000D02*
X10419000Y16358000D01*
X10419000Y-592000D02*
X10469000Y-642000D01*
X10469000Y-592000D02*
X10419000Y-642000D01*
X10499000Y16408000D02*
X10549000Y16358000D01*
X10549000Y16408000D02*
X10499000Y16358000D01*
X10499000Y-592000D02*
X10549000Y-642000D01*
X10549000Y-592000D02*
X10499000Y-642000D01*
X15959000Y10948000D02*
X16009000Y10898000D01*
X16009000Y10948000D02*
X15959000Y10898000D01*
X15959000Y10868000D02*
X16009000Y10818000D01*
X16009000Y10868000D02*
X15959000Y10818000D01*
X15959000Y10788000D02*
X16009000Y10738000D01*
X16009000Y10788000D02*
X15959000Y10738000D01*
X15959000Y10708000D02*
X16009000Y10658000D01*
X16009000Y10708000D02*
X15959000Y10658000D01*
X15959000Y10628000D02*
X16009000Y10578000D01*
X16009000Y10628000D02*
X15959000Y10578000D01*
X15959000Y10548000D02*
X16009000Y10498000D01*
X16009000Y10548000D02*
X15959000Y10498000D01*
X15959000Y10468000D02*
X16009000Y10418000D01*
X16009000Y10468000D02*
X15959000Y10418000D01*
X15959000Y5348000D02*
X16009000Y5298000D01*
X16009000Y5348000D02*
X15959000Y5298000D01*
X15959000Y5268000D02*
X16009000Y5218000D01*
X16009000Y5268000D02*
X15959000Y5218000D01*
X15959000Y5188000D02*
X16009000Y5138000D01*
X16009000Y5188000D02*
X15959000Y5138000D01*
X15959000Y5108000D02*
X16009000Y5058000D01*
X16009000Y5108000D02*
X15959000Y5058000D01*
X15959000Y5028000D02*
X16009000Y4978000D01*
X16009000Y5028000D02*
X15959000Y4978000D01*
X15959000Y4948000D02*
X16009000Y4898000D01*
X16009000Y4948000D02*
X15959000Y4898000D01*
X15959000Y4868000D02*
X16009000Y4818000D01*
X16009000Y4868000D02*
X15959000Y4818000D01*
X16189000Y16408000D02*
X16239000Y16358000D01*
X16239000Y16408000D02*
X16189000Y16358000D01*
X16189000Y-592000D02*
X16239000Y-642000D01*
X16239000Y-592000D02*
X16189000Y-642000D01*
X16269000Y16408000D02*
X16319000Y16358000D01*
X16319000Y16408000D02*
X16269000Y16358000D01*
X16269000Y-592000D02*
X16319000Y-642000D01*
X16319000Y-592000D02*
X16269000Y-642000D01*
X16349000Y16408000D02*
X16399000Y16358000D01*
X16399000Y16408000D02*
X16349000Y16358000D01*
X16349000Y-592000D02*
X16399000Y-642000D01*
X16399000Y-592000D02*
X16349000Y-642000D01*
X16429000Y16408000D02*
X16479000Y16358000D01*
X16479000Y16408000D02*
X16429000Y16358000D01*
X16429000Y-592000D02*
X16479000Y-642000D01*
X16479000Y-592000D02*
X16429000Y-642000D01*
X16509000Y16408000D02*
X16559000Y16358000D01*
X16559000Y16408000D02*
X16509000Y16358000D01*
X16509000Y-592000D02*
X16559000Y-642000D01*
X16559000Y-592000D02*
X16509000Y-642000D01*
X16589000Y16408000D02*
X16639000Y16358000D01*
X16639000Y16408000D02*
X16589000Y16358000D01*
X16589000Y-592000D02*
X16639000Y-642000D01*
X16639000Y-592000D02*
X16589000Y-642000D01*
X16669000Y16408000D02*
X16719000Y16358000D01*
X16719000Y16408000D02*
X16669000Y16358000D01*
X16669000Y-592000D02*
X16719000Y-642000D01*
X16719000Y-592000D02*
X16669000Y-642000D01*
X16749000Y16408000D02*
X16799000Y16358000D01*
X16799000Y16408000D02*
X16749000Y16358000D01*
X16749000Y-592000D02*
X16799000Y-642000D01*
X16799000Y-592000D02*
X16749000Y-642000D01*
X16829000Y16408000D02*
X16879000Y16358000D01*
X16879000Y16408000D02*
X16829000Y16358000D01*
X16829000Y-592000D02*
X16879000Y-642000D01*
X16879000Y-592000D02*
X16829000Y-642000D01*
D12*
X3655000Y-130000D02*
G75*
G03*
X3655000Y-130000I-50000J0D01*
G01*
X4455000Y-130000D02*
G75*
G03*
X4455000Y-130000I-50000J0D01*
G01*
D13*
X11932200Y5699000D02*
X11932200Y5569000D01*
X11867200Y5634000D02*
X11997200Y5634000D01*
X14182200Y15368150D02*
X14182200Y15238150D01*
X14117200Y15303150D02*
X14247200Y15303150D01*
X14182200Y14118150D02*
X14182200Y13988150D01*
X14117200Y14053150D02*
X14247200Y14053150D01*
D14*
X5442768Y71212D02*
X5442768Y243748D01*
X5270232Y243748D01*
X5270232Y71212D01*
X5442768Y71212D01*
X8006768Y71212D02*
X8006768Y243748D01*
X7834232Y243748D01*
X7834232Y71212D01*
X8006768Y71212D01*
X12570768Y71212D02*
X12570768Y243748D01*
X12398232Y243748D01*
X12398232Y71212D01*
X12570768Y71212D01*
D15*
X4182500Y7550000D02*
X4432500Y7800000D01*
X4182500Y8050000D01*
X3932500Y7800000D01*
X4182500Y7550000D01*
X4182500Y5350000D02*
X4432500Y5600000D01*
X4182500Y5850000D01*
X3932500Y5600000D01*
X4182500Y5350000D01*
X10782500Y7550000D02*
X11032500Y7800000D01*
X10782500Y8050000D01*
X10532500Y7800000D01*
X10782500Y7550000D01*
X10782500Y5350000D02*
X11032500Y5600000D01*
X10782500Y5850000D01*
X10532500Y5600000D01*
X10782500Y5350000D01*
D10*
X-1660223Y-1833484D02*
X-1660223Y-1633484D01*
X-1660223Y-1633484D02*
X-1612604Y-1633484D01*
X-1612604Y-1633484D02*
X-1584033Y-1643008D01*
X-1584033Y-1643008D02*
X-1564985Y-1662055D01*
X-1564985Y-1662055D02*
X-1555461Y-1681103D01*
X-1555461Y-1681103D02*
X-1545937Y-1719198D01*
X-1545937Y-1719198D02*
X-1545937Y-1747769D01*
X-1545937Y-1747769D02*
X-1555461Y-1785865D01*
X-1555461Y-1785865D02*
X-1564985Y-1804912D01*
X-1564985Y-1804912D02*
X-1584033Y-1823960D01*
X-1584033Y-1823960D02*
X-1612604Y-1833484D01*
X-1612604Y-1833484D02*
X-1660223Y-1833484D01*
X-1460223Y-1833484D02*
X-1460223Y-1700150D01*
X-1460223Y-1738246D02*
X-1450699Y-1719198D01*
X-1450699Y-1719198D02*
X-1441175Y-1709674D01*
X-1441175Y-1709674D02*
X-1422128Y-1700150D01*
X-1422128Y-1700150D02*
X-1403080Y-1700150D01*
X-1336414Y-1833484D02*
X-1336414Y-1700150D01*
X-1336414Y-1633484D02*
X-1345937Y-1643008D01*
X-1345937Y-1643008D02*
X-1336414Y-1652531D01*
X-1336414Y-1652531D02*
X-1326890Y-1643008D01*
X-1326890Y-1643008D02*
X-1336414Y-1633484D01*
X-1336414Y-1633484D02*
X-1336414Y-1652531D01*
X-1212604Y-1833484D02*
X-1231652Y-1823960D01*
X-1231652Y-1823960D02*
X-1241176Y-1804912D01*
X-1241176Y-1804912D02*
X-1241176Y-1633484D01*
X-1107842Y-1833484D02*
X-1126890Y-1823960D01*
X-1126890Y-1823960D02*
X-1136414Y-1804912D01*
X-1136414Y-1804912D02*
X-1136414Y-1633484D01*
X-879271Y-1833484D02*
X-879271Y-1633484D01*
X-879271Y-1633484D02*
X-812604Y-1776341D01*
X-812604Y-1776341D02*
X-745937Y-1633484D01*
X-745937Y-1633484D02*
X-745937Y-1833484D01*
X-564985Y-1833484D02*
X-564985Y-1728722D01*
X-564985Y-1728722D02*
X-574509Y-1709674D01*
X-574509Y-1709674D02*
X-593556Y-1700150D01*
X-593556Y-1700150D02*
X-631652Y-1700150D01*
X-631652Y-1700150D02*
X-650699Y-1709674D01*
X-564985Y-1823960D02*
X-584033Y-1833484D01*
X-584033Y-1833484D02*
X-631652Y-1833484D01*
X-631652Y-1833484D02*
X-650699Y-1823960D01*
X-650699Y-1823960D02*
X-660223Y-1804912D01*
X-660223Y-1804912D02*
X-660223Y-1785865D01*
X-660223Y-1785865D02*
X-650699Y-1766817D01*
X-650699Y-1766817D02*
X-631652Y-1757293D01*
X-631652Y-1757293D02*
X-584033Y-1757293D01*
X-584033Y-1757293D02*
X-564985Y-1747769D01*
X-469747Y-1700150D02*
X-469747Y-1900150D01*
X-469747Y-1709674D02*
X-450699Y-1700150D01*
X-450699Y-1700150D02*
X-412604Y-1700150D01*
X-412604Y-1700150D02*
X-393556Y-1709674D01*
X-393556Y-1709674D02*
X-384033Y-1719198D01*
X-384033Y-1719198D02*
X-374509Y-1738246D01*
X-374509Y-1738246D02*
X-374509Y-1795388D01*
X-374509Y-1795388D02*
X-384033Y-1814436D01*
X-384033Y-1814436D02*
X-393556Y-1823960D01*
X-393556Y-1823960D02*
X-412604Y-1833484D01*
X-412604Y-1833484D02*
X-450699Y-1833484D01*
X-450699Y-1833484D02*
X-469747Y-1823960D01*
X-288795Y-1814436D02*
X-279271Y-1823960D01*
X-279271Y-1823960D02*
X-288795Y-1833484D01*
X-288795Y-1833484D02*
X-298318Y-1823960D01*
X-298318Y-1823960D02*
X-288795Y-1814436D01*
X-288795Y-1814436D02*
X-288795Y-1833484D01*
X-288795Y-1709674D02*
X-279271Y-1719198D01*
X-279271Y-1719198D02*
X-288795Y-1728722D01*
X-288795Y-1728722D02*
X-298318Y-1719198D01*
X-298318Y-1719198D02*
X-288795Y-1709674D01*
X-288795Y-1709674D02*
X-288795Y-1728722D01*
D11*
X-1971000Y-2137000D02*
X-1921000Y-2187000D01*
X-1921000Y-2137000D02*
X-1971000Y-2187000D01*
D10*
X-1622128Y-2053484D02*
X-1603080Y-2053484D01*
X-1603080Y-2053484D02*
X-1584033Y-2063008D01*
X-1584033Y-2063008D02*
X-1574509Y-2072531D01*
X-1574509Y-2072531D02*
X-1564985Y-2091579D01*
X-1564985Y-2091579D02*
X-1555461Y-2129674D01*
X-1555461Y-2129674D02*
X-1555461Y-2177293D01*
X-1555461Y-2177293D02*
X-1564985Y-2215389D01*
X-1564985Y-2215389D02*
X-1574509Y-2234436D01*
X-1574509Y-2234436D02*
X-1584033Y-2243960D01*
X-1584033Y-2243960D02*
X-1603080Y-2253484D01*
X-1603080Y-2253484D02*
X-1622128Y-2253484D01*
X-1622128Y-2253484D02*
X-1641175Y-2243960D01*
X-1641175Y-2243960D02*
X-1650699Y-2234436D01*
X-1650699Y-2234436D02*
X-1660223Y-2215389D01*
X-1660223Y-2215389D02*
X-1669747Y-2177293D01*
X-1669747Y-2177293D02*
X-1669747Y-2129674D01*
X-1669747Y-2129674D02*
X-1660223Y-2091579D01*
X-1660223Y-2091579D02*
X-1650699Y-2072531D01*
X-1650699Y-2072531D02*
X-1641175Y-2063008D01*
X-1641175Y-2063008D02*
X-1622128Y-2053484D01*
X-1469747Y-2234436D02*
X-1460223Y-2243960D01*
X-1460223Y-2243960D02*
X-1469747Y-2253484D01*
X-1469747Y-2253484D02*
X-1479271Y-2243960D01*
X-1479271Y-2243960D02*
X-1469747Y-2234436D01*
X-1469747Y-2234436D02*
X-1469747Y-2253484D01*
X-1279271Y-2053484D02*
X-1374509Y-2053484D01*
X-1374509Y-2053484D02*
X-1384033Y-2148722D01*
X-1384033Y-2148722D02*
X-1374509Y-2139198D01*
X-1374509Y-2139198D02*
X-1355461Y-2129674D01*
X-1355461Y-2129674D02*
X-1307842Y-2129674D01*
X-1307842Y-2129674D02*
X-1288795Y-2139198D01*
X-1288795Y-2139198D02*
X-1279271Y-2148722D01*
X-1279271Y-2148722D02*
X-1269747Y-2167770D01*
X-1269747Y-2167770D02*
X-1269747Y-2215389D01*
X-1269747Y-2215389D02*
X-1279271Y-2234436D01*
X-1279271Y-2234436D02*
X-1288795Y-2243960D01*
X-1288795Y-2243960D02*
X-1307842Y-2253484D01*
X-1307842Y-2253484D02*
X-1355461Y-2253484D01*
X-1355461Y-2253484D02*
X-1374509Y-2243960D01*
X-1374509Y-2243960D02*
X-1384033Y-2234436D01*
X-1145937Y-2053484D02*
X-1126890Y-2053484D01*
X-1126890Y-2053484D02*
X-1107842Y-2063008D01*
X-1107842Y-2063008D02*
X-1098318Y-2072531D01*
X-1098318Y-2072531D02*
X-1088795Y-2091579D01*
X-1088795Y-2091579D02*
X-1079271Y-2129674D01*
X-1079271Y-2129674D02*
X-1079271Y-2177293D01*
X-1079271Y-2177293D02*
X-1088795Y-2215389D01*
X-1088795Y-2215389D02*
X-1098318Y-2234436D01*
X-1098318Y-2234436D02*
X-1107842Y-2243960D01*
X-1107842Y-2243960D02*
X-1126890Y-2253484D01*
X-1126890Y-2253484D02*
X-1145937Y-2253484D01*
X-1145937Y-2253484D02*
X-1164985Y-2243960D01*
X-1164985Y-2243960D02*
X-1174509Y-2234436D01*
X-1174509Y-2234436D02*
X-1184033Y-2215389D01*
X-1184033Y-2215389D02*
X-1193556Y-2177293D01*
X-1193556Y-2177293D02*
X-1193556Y-2129674D01*
X-1193556Y-2129674D02*
X-1184033Y-2091579D01*
X-1184033Y-2091579D02*
X-1174509Y-2072531D01*
X-1174509Y-2072531D02*
X-1164985Y-2063008D01*
X-1164985Y-2063008D02*
X-1145937Y-2053484D01*
X-955461Y-2053484D02*
X-936413Y-2053484D01*
X-936413Y-2053484D02*
X-917366Y-2063008D01*
X-917366Y-2063008D02*
X-907842Y-2072531D01*
X-907842Y-2072531D02*
X-898318Y-2091579D01*
X-898318Y-2091579D02*
X-888794Y-2129674D01*
X-888794Y-2129674D02*
X-888794Y-2177293D01*
X-888794Y-2177293D02*
X-898318Y-2215389D01*
X-898318Y-2215389D02*
X-907842Y-2234436D01*
X-907842Y-2234436D02*
X-917366Y-2243960D01*
X-917366Y-2243960D02*
X-936413Y-2253484D01*
X-936413Y-2253484D02*
X-955461Y-2253484D01*
X-955461Y-2253484D02*
X-974509Y-2243960D01*
X-974509Y-2243960D02*
X-984033Y-2234436D01*
X-984033Y-2234436D02*
X-993556Y-2215389D01*
X-993556Y-2215389D02*
X-1003080Y-2177293D01*
X-1003080Y-2177293D02*
X-1003080Y-2129674D01*
X-1003080Y-2129674D02*
X-993556Y-2091579D01*
X-993556Y-2091579D02*
X-984033Y-2072531D01*
X-984033Y-2072531D02*
X-974509Y-2063008D01*
X-974509Y-2063008D02*
X-955461Y-2053484D01*
X-803080Y-2253484D02*
X-803080Y-2120150D01*
X-803080Y-2139198D02*
X-793556Y-2129674D01*
X-793556Y-2129674D02*
X-774509Y-2120150D01*
X-774509Y-2120150D02*
X-745937Y-2120150D01*
X-745937Y-2120150D02*
X-726890Y-2129674D01*
X-726890Y-2129674D02*
X-717366Y-2148722D01*
X-717366Y-2148722D02*
X-717366Y-2253484D01*
X-717366Y-2148722D02*
X-707842Y-2129674D01*
X-707842Y-2129674D02*
X-688795Y-2120150D01*
X-688795Y-2120150D02*
X-660223Y-2120150D01*
X-660223Y-2120150D02*
X-641175Y-2129674D01*
X-641175Y-2129674D02*
X-631652Y-2148722D01*
X-631652Y-2148722D02*
X-631652Y-2253484D01*
X-536414Y-2253484D02*
X-536414Y-2120150D01*
X-536414Y-2139198D02*
X-526890Y-2129674D01*
X-526890Y-2129674D02*
X-507842Y-2120150D01*
X-507842Y-2120150D02*
X-479271Y-2120150D01*
X-479271Y-2120150D02*
X-460223Y-2129674D01*
X-460223Y-2129674D02*
X-450699Y-2148722D01*
X-450699Y-2148722D02*
X-450699Y-2253484D01*
X-450699Y-2148722D02*
X-441175Y-2129674D01*
X-441175Y-2129674D02*
X-422128Y-2120150D01*
X-422128Y-2120150D02*
X-393556Y-2120150D01*
X-393556Y-2120150D02*
X-374509Y-2129674D01*
X-374509Y-2129674D02*
X-364985Y-2148722D01*
X-364985Y-2148722D02*
X-364985Y-2253484D01*
X25491Y-2043960D02*
X-145937Y-2301103D01*
X282634Y-2053484D02*
X301682Y-2053484D01*
X301682Y-2053484D02*
X320729Y-2063008D01*
X320729Y-2063008D02*
X330253Y-2072531D01*
X330253Y-2072531D02*
X339777Y-2091579D01*
X339777Y-2091579D02*
X349301Y-2129674D01*
X349301Y-2129674D02*
X349301Y-2177293D01*
X349301Y-2177293D02*
X339777Y-2215389D01*
X339777Y-2215389D02*
X330253Y-2234436D01*
X330253Y-2234436D02*
X320729Y-2243960D01*
X320729Y-2243960D02*
X301682Y-2253484D01*
X301682Y-2253484D02*
X282634Y-2253484D01*
X282634Y-2253484D02*
X263587Y-2243960D01*
X263587Y-2243960D02*
X254063Y-2234436D01*
X254063Y-2234436D02*
X244539Y-2215389D01*
X244539Y-2215389D02*
X235015Y-2177293D01*
X235015Y-2177293D02*
X235015Y-2129674D01*
X235015Y-2129674D02*
X244539Y-2091579D01*
X244539Y-2091579D02*
X254063Y-2072531D01*
X254063Y-2072531D02*
X263587Y-2063008D01*
X263587Y-2063008D02*
X282634Y-2053484D01*
X435015Y-2234436D02*
X444539Y-2243960D01*
X444539Y-2243960D02*
X435015Y-2253484D01*
X435015Y-2253484D02*
X425491Y-2243960D01*
X425491Y-2243960D02*
X435015Y-2234436D01*
X435015Y-2234436D02*
X435015Y-2253484D01*
X568348Y-2053484D02*
X587396Y-2053484D01*
X587396Y-2053484D02*
X606444Y-2063008D01*
X606444Y-2063008D02*
X615968Y-2072531D01*
X615968Y-2072531D02*
X625491Y-2091579D01*
X625491Y-2091579D02*
X635015Y-2129674D01*
X635015Y-2129674D02*
X635015Y-2177293D01*
X635015Y-2177293D02*
X625491Y-2215389D01*
X625491Y-2215389D02*
X615968Y-2234436D01*
X615968Y-2234436D02*
X606444Y-2243960D01*
X606444Y-2243960D02*
X587396Y-2253484D01*
X587396Y-2253484D02*
X568348Y-2253484D01*
X568348Y-2253484D02*
X549301Y-2243960D01*
X549301Y-2243960D02*
X539777Y-2234436D01*
X539777Y-2234436D02*
X530253Y-2215389D01*
X530253Y-2215389D02*
X520729Y-2177293D01*
X520729Y-2177293D02*
X520729Y-2129674D01*
X520729Y-2129674D02*
X530253Y-2091579D01*
X530253Y-2091579D02*
X539777Y-2072531D01*
X539777Y-2072531D02*
X549301Y-2063008D01*
X549301Y-2063008D02*
X568348Y-2053484D01*
X825491Y-2253484D02*
X711206Y-2253484D01*
X768348Y-2253484D02*
X768348Y-2053484D01*
X768348Y-2053484D02*
X749301Y-2082055D01*
X749301Y-2082055D02*
X730253Y-2101103D01*
X730253Y-2101103D02*
X711206Y-2110627D01*
X920729Y-2253484D02*
X958825Y-2253484D01*
X958825Y-2253484D02*
X977872Y-2243960D01*
X977872Y-2243960D02*
X987396Y-2234436D01*
X987396Y-2234436D02*
X1006444Y-2205865D01*
X1006444Y-2205865D02*
X1015967Y-2167770D01*
X1015967Y-2167770D02*
X1015967Y-2091579D01*
X1015967Y-2091579D02*
X1006444Y-2072531D01*
X1006444Y-2072531D02*
X996920Y-2063008D01*
X996920Y-2063008D02*
X977872Y-2053484D01*
X977872Y-2053484D02*
X939777Y-2053484D01*
X939777Y-2053484D02*
X920729Y-2063008D01*
X920729Y-2063008D02*
X911206Y-2072531D01*
X911206Y-2072531D02*
X901682Y-2091579D01*
X901682Y-2091579D02*
X901682Y-2139198D01*
X901682Y-2139198D02*
X911206Y-2158246D01*
X911206Y-2158246D02*
X920729Y-2167770D01*
X920729Y-2167770D02*
X939777Y-2177293D01*
X939777Y-2177293D02*
X977872Y-2177293D01*
X977872Y-2177293D02*
X996920Y-2167770D01*
X996920Y-2167770D02*
X1006444Y-2158246D01*
X1006444Y-2158246D02*
X1015967Y-2139198D01*
X1082634Y-2053484D02*
X1215968Y-2053484D01*
X1215968Y-2053484D02*
X1130253Y-2253484D01*
X1282634Y-2053484D02*
X1282634Y-2091579D01*
X1358825Y-2053484D02*
X1358825Y-2091579D01*
X1654063Y-2329674D02*
X1644539Y-2320150D01*
X1644539Y-2320150D02*
X1625491Y-2291579D01*
X1625491Y-2291579D02*
X1615968Y-2272531D01*
X1615968Y-2272531D02*
X1606444Y-2243960D01*
X1606444Y-2243960D02*
X1596920Y-2196341D01*
X1596920Y-2196341D02*
X1596920Y-2158246D01*
X1596920Y-2158246D02*
X1606444Y-2110627D01*
X1606444Y-2110627D02*
X1615968Y-2082055D01*
X1615968Y-2082055D02*
X1625491Y-2063008D01*
X1625491Y-2063008D02*
X1644539Y-2034436D01*
X1644539Y-2034436D02*
X1654063Y-2024912D01*
X1739777Y-2253484D02*
X1777872Y-2253484D01*
X1777872Y-2253484D02*
X1796920Y-2243960D01*
X1796920Y-2243960D02*
X1806444Y-2234436D01*
X1806444Y-2234436D02*
X1825491Y-2205865D01*
X1825491Y-2205865D02*
X1835015Y-2167770D01*
X1835015Y-2167770D02*
X1835015Y-2091579D01*
X1835015Y-2091579D02*
X1825491Y-2072531D01*
X1825491Y-2072531D02*
X1815968Y-2063008D01*
X1815968Y-2063008D02*
X1796920Y-2053484D01*
X1796920Y-2053484D02*
X1758825Y-2053484D01*
X1758825Y-2053484D02*
X1739777Y-2063008D01*
X1739777Y-2063008D02*
X1730253Y-2072531D01*
X1730253Y-2072531D02*
X1720729Y-2091579D01*
X1720729Y-2091579D02*
X1720729Y-2139198D01*
X1720729Y-2139198D02*
X1730253Y-2158246D01*
X1730253Y-2158246D02*
X1739777Y-2167770D01*
X1739777Y-2167770D02*
X1758825Y-2177293D01*
X1758825Y-2177293D02*
X1796920Y-2177293D01*
X1796920Y-2177293D02*
X1815968Y-2167770D01*
X1815968Y-2167770D02*
X1825491Y-2158246D01*
X1825491Y-2158246D02*
X1835015Y-2139198D01*
X1911206Y-2072531D02*
X1920729Y-2063008D01*
X1920729Y-2063008D02*
X1939777Y-2053484D01*
X1939777Y-2053484D02*
X1987396Y-2053484D01*
X1987396Y-2053484D02*
X2006444Y-2063008D01*
X2006444Y-2063008D02*
X2015968Y-2072531D01*
X2015968Y-2072531D02*
X2025491Y-2091579D01*
X2025491Y-2091579D02*
X2025491Y-2110627D01*
X2025491Y-2110627D02*
X2015968Y-2139198D01*
X2015968Y-2139198D02*
X1901682Y-2253484D01*
X1901682Y-2253484D02*
X2025491Y-2253484D01*
X2263587Y-2253484D02*
X2263587Y-2053484D01*
X2349301Y-2253484D02*
X2349301Y-2148722D01*
X2349301Y-2148722D02*
X2339777Y-2129674D01*
X2339777Y-2129674D02*
X2320730Y-2120150D01*
X2320730Y-2120150D02*
X2292158Y-2120150D01*
X2292158Y-2120150D02*
X2273111Y-2129674D01*
X2273111Y-2129674D02*
X2263587Y-2139198D01*
X2473111Y-2253484D02*
X2454063Y-2243960D01*
X2454063Y-2243960D02*
X2444539Y-2234436D01*
X2444539Y-2234436D02*
X2435015Y-2215389D01*
X2435015Y-2215389D02*
X2435015Y-2158246D01*
X2435015Y-2158246D02*
X2444539Y-2139198D01*
X2444539Y-2139198D02*
X2454063Y-2129674D01*
X2454063Y-2129674D02*
X2473111Y-2120150D01*
X2473111Y-2120150D02*
X2501682Y-2120150D01*
X2501682Y-2120150D02*
X2520730Y-2129674D01*
X2520730Y-2129674D02*
X2530253Y-2139198D01*
X2530253Y-2139198D02*
X2539777Y-2158246D01*
X2539777Y-2158246D02*
X2539777Y-2215389D01*
X2539777Y-2215389D02*
X2530253Y-2234436D01*
X2530253Y-2234436D02*
X2520730Y-2243960D01*
X2520730Y-2243960D02*
X2501682Y-2253484D01*
X2501682Y-2253484D02*
X2473111Y-2253484D01*
X2654063Y-2253484D02*
X2635015Y-2243960D01*
X2635015Y-2243960D02*
X2625492Y-2224912D01*
X2625492Y-2224912D02*
X2625492Y-2053484D01*
X2806444Y-2243960D02*
X2787396Y-2253484D01*
X2787396Y-2253484D02*
X2749301Y-2253484D01*
X2749301Y-2253484D02*
X2730253Y-2243960D01*
X2730253Y-2243960D02*
X2720730Y-2224912D01*
X2720730Y-2224912D02*
X2720730Y-2148722D01*
X2720730Y-2148722D02*
X2730253Y-2129674D01*
X2730253Y-2129674D02*
X2749301Y-2120150D01*
X2749301Y-2120150D02*
X2787396Y-2120150D01*
X2787396Y-2120150D02*
X2806444Y-2129674D01*
X2806444Y-2129674D02*
X2815968Y-2148722D01*
X2815968Y-2148722D02*
X2815968Y-2167770D01*
X2815968Y-2167770D02*
X2720730Y-2186817D01*
X2892158Y-2243960D02*
X2911206Y-2253484D01*
X2911206Y-2253484D02*
X2949301Y-2253484D01*
X2949301Y-2253484D02*
X2968349Y-2243960D01*
X2968349Y-2243960D02*
X2977872Y-2224912D01*
X2977872Y-2224912D02*
X2977872Y-2215389D01*
X2977872Y-2215389D02*
X2968349Y-2196341D01*
X2968349Y-2196341D02*
X2949301Y-2186817D01*
X2949301Y-2186817D02*
X2920730Y-2186817D01*
X2920730Y-2186817D02*
X2901682Y-2177293D01*
X2901682Y-2177293D02*
X2892158Y-2158246D01*
X2892158Y-2158246D02*
X2892158Y-2148722D01*
X2892158Y-2148722D02*
X2901682Y-2129674D01*
X2901682Y-2129674D02*
X2920730Y-2120150D01*
X2920730Y-2120150D02*
X2949301Y-2120150D01*
X2949301Y-2120150D02*
X2968349Y-2129674D01*
X3044539Y-2329674D02*
X3054063Y-2320150D01*
X3054063Y-2320150D02*
X3073111Y-2291579D01*
X3073111Y-2291579D02*
X3082634Y-2272531D01*
X3082634Y-2272531D02*
X3092158Y-2243960D01*
X3092158Y-2243960D02*
X3101682Y-2196341D01*
X3101682Y-2196341D02*
X3101682Y-2158246D01*
X3101682Y-2158246D02*
X3092158Y-2110627D01*
X3092158Y-2110627D02*
X3082634Y-2082055D01*
X3082634Y-2082055D02*
X3073111Y-2063008D01*
X3073111Y-2063008D02*
X3054063Y-2034436D01*
X3054063Y-2034436D02*
X3044539Y-2024912D01*
X3406444Y-2329674D02*
X3396920Y-2320150D01*
X3396920Y-2320150D02*
X3377872Y-2291579D01*
X3377872Y-2291579D02*
X3368349Y-2272531D01*
X3368349Y-2272531D02*
X3358825Y-2243960D01*
X3358825Y-2243960D02*
X3349301Y-2196341D01*
X3349301Y-2196341D02*
X3349301Y-2158246D01*
X3349301Y-2158246D02*
X3358825Y-2110627D01*
X3358825Y-2110627D02*
X3368349Y-2082055D01*
X3368349Y-2082055D02*
X3377872Y-2063008D01*
X3377872Y-2063008D02*
X3396920Y-2034436D01*
X3396920Y-2034436D02*
X3406444Y-2024912D01*
X3482634Y-2120150D02*
X3482634Y-2253484D01*
X3482634Y-2139198D02*
X3492158Y-2129674D01*
X3492158Y-2129674D02*
X3511206Y-2120150D01*
X3511206Y-2120150D02*
X3539777Y-2120150D01*
X3539777Y-2120150D02*
X3558825Y-2129674D01*
X3558825Y-2129674D02*
X3568349Y-2148722D01*
X3568349Y-2148722D02*
X3568349Y-2253484D01*
X3692158Y-2253484D02*
X3673111Y-2243960D01*
X3673111Y-2243960D02*
X3663587Y-2234436D01*
X3663587Y-2234436D02*
X3654063Y-2215389D01*
X3654063Y-2215389D02*
X3654063Y-2158246D01*
X3654063Y-2158246D02*
X3663587Y-2139198D01*
X3663587Y-2139198D02*
X3673111Y-2129674D01*
X3673111Y-2129674D02*
X3692158Y-2120150D01*
X3692158Y-2120150D02*
X3720730Y-2120150D01*
X3720730Y-2120150D02*
X3739777Y-2129674D01*
X3739777Y-2129674D02*
X3749301Y-2139198D01*
X3749301Y-2139198D02*
X3758825Y-2158246D01*
X3758825Y-2158246D02*
X3758825Y-2215389D01*
X3758825Y-2215389D02*
X3749301Y-2234436D01*
X3749301Y-2234436D02*
X3739777Y-2243960D01*
X3739777Y-2243960D02*
X3720730Y-2253484D01*
X3720730Y-2253484D02*
X3692158Y-2253484D01*
X3815968Y-2120150D02*
X3892158Y-2120150D01*
X3844539Y-2053484D02*
X3844539Y-2224912D01*
X3844539Y-2224912D02*
X3854063Y-2243960D01*
X3854063Y-2243960D02*
X3873111Y-2253484D01*
X3873111Y-2253484D02*
X3892158Y-2253484D01*
X4111206Y-2120150D02*
X4111206Y-2320150D01*
X4111206Y-2129674D02*
X4130253Y-2120150D01*
X4130253Y-2120150D02*
X4168349Y-2120150D01*
X4168349Y-2120150D02*
X4187396Y-2129674D01*
X4187396Y-2129674D02*
X4196920Y-2139198D01*
X4196920Y-2139198D02*
X4206444Y-2158246D01*
X4206444Y-2158246D02*
X4206444Y-2215389D01*
X4206444Y-2215389D02*
X4196920Y-2234436D01*
X4196920Y-2234436D02*
X4187396Y-2243960D01*
X4187396Y-2243960D02*
X4168349Y-2253484D01*
X4168349Y-2253484D02*
X4130253Y-2253484D01*
X4130253Y-2253484D02*
X4111206Y-2243960D01*
X4320730Y-2253484D02*
X4301682Y-2243960D01*
X4301682Y-2243960D02*
X4292158Y-2224912D01*
X4292158Y-2224912D02*
X4292158Y-2053484D01*
X4482635Y-2253484D02*
X4482635Y-2148722D01*
X4482635Y-2148722D02*
X4473111Y-2129674D01*
X4473111Y-2129674D02*
X4454063Y-2120150D01*
X4454063Y-2120150D02*
X4415968Y-2120150D01*
X4415968Y-2120150D02*
X4396920Y-2129674D01*
X4482635Y-2243960D02*
X4463587Y-2253484D01*
X4463587Y-2253484D02*
X4415968Y-2253484D01*
X4415968Y-2253484D02*
X4396920Y-2243960D01*
X4396920Y-2243960D02*
X4387396Y-2224912D01*
X4387396Y-2224912D02*
X4387396Y-2205865D01*
X4387396Y-2205865D02*
X4396920Y-2186817D01*
X4396920Y-2186817D02*
X4415968Y-2177293D01*
X4415968Y-2177293D02*
X4463587Y-2177293D01*
X4463587Y-2177293D02*
X4482635Y-2167770D01*
X4549301Y-2120150D02*
X4625492Y-2120150D01*
X4577873Y-2053484D02*
X4577873Y-2224912D01*
X4577873Y-2224912D02*
X4587396Y-2243960D01*
X4587396Y-2243960D02*
X4606444Y-2253484D01*
X4606444Y-2253484D02*
X4625492Y-2253484D01*
X4768349Y-2243960D02*
X4749301Y-2253484D01*
X4749301Y-2253484D02*
X4711206Y-2253484D01*
X4711206Y-2253484D02*
X4692158Y-2243960D01*
X4692158Y-2243960D02*
X4682635Y-2224912D01*
X4682635Y-2224912D02*
X4682635Y-2148722D01*
X4682635Y-2148722D02*
X4692158Y-2129674D01*
X4692158Y-2129674D02*
X4711206Y-2120150D01*
X4711206Y-2120150D02*
X4749301Y-2120150D01*
X4749301Y-2120150D02*
X4768349Y-2129674D01*
X4768349Y-2129674D02*
X4777873Y-2148722D01*
X4777873Y-2148722D02*
X4777873Y-2167770D01*
X4777873Y-2167770D02*
X4682635Y-2186817D01*
X4949301Y-2253484D02*
X4949301Y-2053484D01*
X4949301Y-2243960D02*
X4930254Y-2253484D01*
X4930254Y-2253484D02*
X4892158Y-2253484D01*
X4892158Y-2253484D02*
X4873111Y-2243960D01*
X4873111Y-2243960D02*
X4863587Y-2234436D01*
X4863587Y-2234436D02*
X4854063Y-2215389D01*
X4854063Y-2215389D02*
X4854063Y-2158246D01*
X4854063Y-2158246D02*
X4863587Y-2139198D01*
X4863587Y-2139198D02*
X4873111Y-2129674D01*
X4873111Y-2129674D02*
X4892158Y-2120150D01*
X4892158Y-2120150D02*
X4930254Y-2120150D01*
X4930254Y-2120150D02*
X4949301Y-2129674D01*
X5025492Y-2329674D02*
X5035016Y-2320150D01*
X5035016Y-2320150D02*
X5054063Y-2291579D01*
X5054063Y-2291579D02*
X5063587Y-2272531D01*
X5063587Y-2272531D02*
X5073111Y-2243960D01*
X5073111Y-2243960D02*
X5082635Y-2196341D01*
X5082635Y-2196341D02*
X5082635Y-2158246D01*
X5082635Y-2158246D02*
X5073111Y-2110627D01*
X5073111Y-2110627D02*
X5063587Y-2082055D01*
X5063587Y-2082055D02*
X5054063Y-2063008D01*
X5054063Y-2063008D02*
X5035016Y-2034436D01*
X5035016Y-2034436D02*
X5025492Y-2024912D01*
D12*
X-1921000Y-2426000D02*
G75*
G03*
X-1921000Y-2426000I-50000J0D01*
G01*
D10*
X-1555461Y-2517484D02*
X-1669747Y-2517484D01*
X-1612604Y-2517484D02*
X-1612604Y-2317484D01*
X-1612604Y-2317484D02*
X-1631652Y-2346055D01*
X-1631652Y-2346055D02*
X-1650699Y-2365103D01*
X-1650699Y-2365103D02*
X-1669747Y-2374627D01*
X-1469747Y-2498436D02*
X-1460223Y-2507960D01*
X-1460223Y-2507960D02*
X-1469747Y-2517484D01*
X-1469747Y-2517484D02*
X-1479271Y-2507960D01*
X-1479271Y-2507960D02*
X-1469747Y-2498436D01*
X-1469747Y-2498436D02*
X-1469747Y-2517484D01*
X-1336414Y-2317484D02*
X-1317366Y-2317484D01*
X-1317366Y-2317484D02*
X-1298318Y-2327008D01*
X-1298318Y-2327008D02*
X-1288795Y-2336531D01*
X-1288795Y-2336531D02*
X-1279271Y-2355579D01*
X-1279271Y-2355579D02*
X-1269747Y-2393674D01*
X-1269747Y-2393674D02*
X-1269747Y-2441293D01*
X-1269747Y-2441293D02*
X-1279271Y-2479389D01*
X-1279271Y-2479389D02*
X-1288795Y-2498436D01*
X-1288795Y-2498436D02*
X-1298318Y-2507960D01*
X-1298318Y-2507960D02*
X-1317366Y-2517484D01*
X-1317366Y-2517484D02*
X-1336414Y-2517484D01*
X-1336414Y-2517484D02*
X-1355461Y-2507960D01*
X-1355461Y-2507960D02*
X-1364985Y-2498436D01*
X-1364985Y-2498436D02*
X-1374509Y-2479389D01*
X-1374509Y-2479389D02*
X-1384033Y-2441293D01*
X-1384033Y-2441293D02*
X-1384033Y-2393674D01*
X-1384033Y-2393674D02*
X-1374509Y-2355579D01*
X-1374509Y-2355579D02*
X-1364985Y-2336531D01*
X-1364985Y-2336531D02*
X-1355461Y-2327008D01*
X-1355461Y-2327008D02*
X-1336414Y-2317484D01*
X-1145937Y-2317484D02*
X-1126890Y-2317484D01*
X-1126890Y-2317484D02*
X-1107842Y-2327008D01*
X-1107842Y-2327008D02*
X-1098318Y-2336531D01*
X-1098318Y-2336531D02*
X-1088795Y-2355579D01*
X-1088795Y-2355579D02*
X-1079271Y-2393674D01*
X-1079271Y-2393674D02*
X-1079271Y-2441293D01*
X-1079271Y-2441293D02*
X-1088795Y-2479389D01*
X-1088795Y-2479389D02*
X-1098318Y-2498436D01*
X-1098318Y-2498436D02*
X-1107842Y-2507960D01*
X-1107842Y-2507960D02*
X-1126890Y-2517484D01*
X-1126890Y-2517484D02*
X-1145937Y-2517484D01*
X-1145937Y-2517484D02*
X-1164985Y-2507960D01*
X-1164985Y-2507960D02*
X-1174509Y-2498436D01*
X-1174509Y-2498436D02*
X-1184033Y-2479389D01*
X-1184033Y-2479389D02*
X-1193556Y-2441293D01*
X-1193556Y-2441293D02*
X-1193556Y-2393674D01*
X-1193556Y-2393674D02*
X-1184033Y-2355579D01*
X-1184033Y-2355579D02*
X-1174509Y-2336531D01*
X-1174509Y-2336531D02*
X-1164985Y-2327008D01*
X-1164985Y-2327008D02*
X-1145937Y-2317484D01*
X-955461Y-2317484D02*
X-936413Y-2317484D01*
X-936413Y-2317484D02*
X-917366Y-2327008D01*
X-917366Y-2327008D02*
X-907842Y-2336531D01*
X-907842Y-2336531D02*
X-898318Y-2355579D01*
X-898318Y-2355579D02*
X-888794Y-2393674D01*
X-888794Y-2393674D02*
X-888794Y-2441293D01*
X-888794Y-2441293D02*
X-898318Y-2479389D01*
X-898318Y-2479389D02*
X-907842Y-2498436D01*
X-907842Y-2498436D02*
X-917366Y-2507960D01*
X-917366Y-2507960D02*
X-936413Y-2517484D01*
X-936413Y-2517484D02*
X-955461Y-2517484D01*
X-955461Y-2517484D02*
X-974509Y-2507960D01*
X-974509Y-2507960D02*
X-984033Y-2498436D01*
X-984033Y-2498436D02*
X-993556Y-2479389D01*
X-993556Y-2479389D02*
X-1003080Y-2441293D01*
X-1003080Y-2441293D02*
X-1003080Y-2393674D01*
X-1003080Y-2393674D02*
X-993556Y-2355579D01*
X-993556Y-2355579D02*
X-984033Y-2336531D01*
X-984033Y-2336531D02*
X-974509Y-2327008D01*
X-974509Y-2327008D02*
X-955461Y-2317484D01*
X-803080Y-2517484D02*
X-803080Y-2384150D01*
X-803080Y-2403198D02*
X-793556Y-2393674D01*
X-793556Y-2393674D02*
X-774509Y-2384150D01*
X-774509Y-2384150D02*
X-745937Y-2384150D01*
X-745937Y-2384150D02*
X-726890Y-2393674D01*
X-726890Y-2393674D02*
X-717366Y-2412722D01*
X-717366Y-2412722D02*
X-717366Y-2517484D01*
X-717366Y-2412722D02*
X-707842Y-2393674D01*
X-707842Y-2393674D02*
X-688795Y-2384150D01*
X-688795Y-2384150D02*
X-660223Y-2384150D01*
X-660223Y-2384150D02*
X-641175Y-2393674D01*
X-641175Y-2393674D02*
X-631652Y-2412722D01*
X-631652Y-2412722D02*
X-631652Y-2517484D01*
X-536414Y-2517484D02*
X-536414Y-2384150D01*
X-536414Y-2403198D02*
X-526890Y-2393674D01*
X-526890Y-2393674D02*
X-507842Y-2384150D01*
X-507842Y-2384150D02*
X-479271Y-2384150D01*
X-479271Y-2384150D02*
X-460223Y-2393674D01*
X-460223Y-2393674D02*
X-450699Y-2412722D01*
X-450699Y-2412722D02*
X-450699Y-2517484D01*
X-450699Y-2412722D02*
X-441175Y-2393674D01*
X-441175Y-2393674D02*
X-422128Y-2384150D01*
X-422128Y-2384150D02*
X-393556Y-2384150D01*
X-393556Y-2384150D02*
X-374509Y-2393674D01*
X-374509Y-2393674D02*
X-364985Y-2412722D01*
X-364985Y-2412722D02*
X-364985Y-2517484D01*
X25491Y-2307960D02*
X-145937Y-2565103D01*
X282634Y-2317484D02*
X301682Y-2317484D01*
X301682Y-2317484D02*
X320729Y-2327008D01*
X320729Y-2327008D02*
X330253Y-2336531D01*
X330253Y-2336531D02*
X339777Y-2355579D01*
X339777Y-2355579D02*
X349301Y-2393674D01*
X349301Y-2393674D02*
X349301Y-2441293D01*
X349301Y-2441293D02*
X339777Y-2479389D01*
X339777Y-2479389D02*
X330253Y-2498436D01*
X330253Y-2498436D02*
X320729Y-2507960D01*
X320729Y-2507960D02*
X301682Y-2517484D01*
X301682Y-2517484D02*
X282634Y-2517484D01*
X282634Y-2517484D02*
X263587Y-2507960D01*
X263587Y-2507960D02*
X254063Y-2498436D01*
X254063Y-2498436D02*
X244539Y-2479389D01*
X244539Y-2479389D02*
X235015Y-2441293D01*
X235015Y-2441293D02*
X235015Y-2393674D01*
X235015Y-2393674D02*
X244539Y-2355579D01*
X244539Y-2355579D02*
X254063Y-2336531D01*
X254063Y-2336531D02*
X263587Y-2327008D01*
X263587Y-2327008D02*
X282634Y-2317484D01*
X435015Y-2498436D02*
X444539Y-2507960D01*
X444539Y-2507960D02*
X435015Y-2517484D01*
X435015Y-2517484D02*
X425491Y-2507960D01*
X425491Y-2507960D02*
X435015Y-2498436D01*
X435015Y-2498436D02*
X435015Y-2517484D01*
X568348Y-2317484D02*
X587396Y-2317484D01*
X587396Y-2317484D02*
X606444Y-2327008D01*
X606444Y-2327008D02*
X615968Y-2336531D01*
X615968Y-2336531D02*
X625491Y-2355579D01*
X625491Y-2355579D02*
X635015Y-2393674D01*
X635015Y-2393674D02*
X635015Y-2441293D01*
X635015Y-2441293D02*
X625491Y-2479389D01*
X625491Y-2479389D02*
X615968Y-2498436D01*
X615968Y-2498436D02*
X606444Y-2507960D01*
X606444Y-2507960D02*
X587396Y-2517484D01*
X587396Y-2517484D02*
X568348Y-2517484D01*
X568348Y-2517484D02*
X549301Y-2507960D01*
X549301Y-2507960D02*
X539777Y-2498436D01*
X539777Y-2498436D02*
X530253Y-2479389D01*
X530253Y-2479389D02*
X520729Y-2441293D01*
X520729Y-2441293D02*
X520729Y-2393674D01*
X520729Y-2393674D02*
X530253Y-2355579D01*
X530253Y-2355579D02*
X539777Y-2336531D01*
X539777Y-2336531D02*
X549301Y-2327008D01*
X549301Y-2327008D02*
X568348Y-2317484D01*
X701682Y-2317484D02*
X825491Y-2317484D01*
X825491Y-2317484D02*
X758825Y-2393674D01*
X758825Y-2393674D02*
X787396Y-2393674D01*
X787396Y-2393674D02*
X806444Y-2403198D01*
X806444Y-2403198D02*
X815967Y-2412722D01*
X815967Y-2412722D02*
X825491Y-2431770D01*
X825491Y-2431770D02*
X825491Y-2479389D01*
X825491Y-2479389D02*
X815967Y-2498436D01*
X815967Y-2498436D02*
X806444Y-2507960D01*
X806444Y-2507960D02*
X787396Y-2517484D01*
X787396Y-2517484D02*
X730253Y-2517484D01*
X730253Y-2517484D02*
X711206Y-2507960D01*
X711206Y-2507960D02*
X701682Y-2498436D01*
X920729Y-2517484D02*
X958825Y-2517484D01*
X958825Y-2517484D02*
X977872Y-2507960D01*
X977872Y-2507960D02*
X987396Y-2498436D01*
X987396Y-2498436D02*
X1006444Y-2469865D01*
X1006444Y-2469865D02*
X1015967Y-2431770D01*
X1015967Y-2431770D02*
X1015967Y-2355579D01*
X1015967Y-2355579D02*
X1006444Y-2336531D01*
X1006444Y-2336531D02*
X996920Y-2327008D01*
X996920Y-2327008D02*
X977872Y-2317484D01*
X977872Y-2317484D02*
X939777Y-2317484D01*
X939777Y-2317484D02*
X920729Y-2327008D01*
X920729Y-2327008D02*
X911206Y-2336531D01*
X911206Y-2336531D02*
X901682Y-2355579D01*
X901682Y-2355579D02*
X901682Y-2403198D01*
X901682Y-2403198D02*
X911206Y-2422246D01*
X911206Y-2422246D02*
X920729Y-2431770D01*
X920729Y-2431770D02*
X939777Y-2441293D01*
X939777Y-2441293D02*
X977872Y-2441293D01*
X977872Y-2441293D02*
X996920Y-2431770D01*
X996920Y-2431770D02*
X1006444Y-2422246D01*
X1006444Y-2422246D02*
X1015967Y-2403198D01*
X1187396Y-2384150D02*
X1187396Y-2517484D01*
X1139777Y-2307960D02*
X1092158Y-2450817D01*
X1092158Y-2450817D02*
X1215968Y-2450817D01*
X1282634Y-2317484D02*
X1282634Y-2355579D01*
X1358825Y-2317484D02*
X1358825Y-2355579D01*
X1654063Y-2593674D02*
X1644539Y-2584150D01*
X1644539Y-2584150D02*
X1625491Y-2555579D01*
X1625491Y-2555579D02*
X1615968Y-2536531D01*
X1615968Y-2536531D02*
X1606444Y-2507960D01*
X1606444Y-2507960D02*
X1596920Y-2460341D01*
X1596920Y-2460341D02*
X1596920Y-2422246D01*
X1596920Y-2422246D02*
X1606444Y-2374627D01*
X1606444Y-2374627D02*
X1615968Y-2346055D01*
X1615968Y-2346055D02*
X1625491Y-2327008D01*
X1625491Y-2327008D02*
X1644539Y-2298436D01*
X1644539Y-2298436D02*
X1654063Y-2288912D01*
X1720729Y-2336531D02*
X1730253Y-2327008D01*
X1730253Y-2327008D02*
X1749301Y-2317484D01*
X1749301Y-2317484D02*
X1796920Y-2317484D01*
X1796920Y-2317484D02*
X1815968Y-2327008D01*
X1815968Y-2327008D02*
X1825491Y-2336531D01*
X1825491Y-2336531D02*
X1835015Y-2355579D01*
X1835015Y-2355579D02*
X1835015Y-2374627D01*
X1835015Y-2374627D02*
X1825491Y-2403198D01*
X1825491Y-2403198D02*
X1711206Y-2517484D01*
X1711206Y-2517484D02*
X1835015Y-2517484D01*
X2073110Y-2517484D02*
X2073110Y-2317484D01*
X2158825Y-2517484D02*
X2158825Y-2412722D01*
X2158825Y-2412722D02*
X2149301Y-2393674D01*
X2149301Y-2393674D02*
X2130253Y-2384150D01*
X2130253Y-2384150D02*
X2101682Y-2384150D01*
X2101682Y-2384150D02*
X2082634Y-2393674D01*
X2082634Y-2393674D02*
X2073110Y-2403198D01*
X2282634Y-2517484D02*
X2263587Y-2507960D01*
X2263587Y-2507960D02*
X2254063Y-2498436D01*
X2254063Y-2498436D02*
X2244539Y-2479389D01*
X2244539Y-2479389D02*
X2244539Y-2422246D01*
X2244539Y-2422246D02*
X2254063Y-2403198D01*
X2254063Y-2403198D02*
X2263587Y-2393674D01*
X2263587Y-2393674D02*
X2282634Y-2384150D01*
X2282634Y-2384150D02*
X2311206Y-2384150D01*
X2311206Y-2384150D02*
X2330253Y-2393674D01*
X2330253Y-2393674D02*
X2339777Y-2403198D01*
X2339777Y-2403198D02*
X2349301Y-2422246D01*
X2349301Y-2422246D02*
X2349301Y-2479389D01*
X2349301Y-2479389D02*
X2339777Y-2498436D01*
X2339777Y-2498436D02*
X2330253Y-2507960D01*
X2330253Y-2507960D02*
X2311206Y-2517484D01*
X2311206Y-2517484D02*
X2282634Y-2517484D01*
X2463587Y-2517484D02*
X2444539Y-2507960D01*
X2444539Y-2507960D02*
X2435015Y-2488912D01*
X2435015Y-2488912D02*
X2435015Y-2317484D01*
X2615968Y-2507960D02*
X2596920Y-2517484D01*
X2596920Y-2517484D02*
X2558825Y-2517484D01*
X2558825Y-2517484D02*
X2539777Y-2507960D01*
X2539777Y-2507960D02*
X2530253Y-2488912D01*
X2530253Y-2488912D02*
X2530253Y-2412722D01*
X2530253Y-2412722D02*
X2539777Y-2393674D01*
X2539777Y-2393674D02*
X2558825Y-2384150D01*
X2558825Y-2384150D02*
X2596920Y-2384150D01*
X2596920Y-2384150D02*
X2615968Y-2393674D01*
X2615968Y-2393674D02*
X2625492Y-2412722D01*
X2625492Y-2412722D02*
X2625492Y-2431770D01*
X2625492Y-2431770D02*
X2530253Y-2450817D01*
X2701682Y-2507960D02*
X2720730Y-2517484D01*
X2720730Y-2517484D02*
X2758825Y-2517484D01*
X2758825Y-2517484D02*
X2777873Y-2507960D01*
X2777873Y-2507960D02*
X2787396Y-2488912D01*
X2787396Y-2488912D02*
X2787396Y-2479389D01*
X2787396Y-2479389D02*
X2777873Y-2460341D01*
X2777873Y-2460341D02*
X2758825Y-2450817D01*
X2758825Y-2450817D02*
X2730253Y-2450817D01*
X2730253Y-2450817D02*
X2711206Y-2441293D01*
X2711206Y-2441293D02*
X2701682Y-2422246D01*
X2701682Y-2422246D02*
X2701682Y-2412722D01*
X2701682Y-2412722D02*
X2711206Y-2393674D01*
X2711206Y-2393674D02*
X2730253Y-2384150D01*
X2730253Y-2384150D02*
X2758825Y-2384150D01*
X2758825Y-2384150D02*
X2777873Y-2393674D01*
X2854063Y-2593674D02*
X2863587Y-2584150D01*
X2863587Y-2584150D02*
X2882634Y-2555579D01*
X2882634Y-2555579D02*
X2892158Y-2536531D01*
X2892158Y-2536531D02*
X2901682Y-2507960D01*
X2901682Y-2507960D02*
X2911206Y-2460341D01*
X2911206Y-2460341D02*
X2911206Y-2422246D01*
X2911206Y-2422246D02*
X2901682Y-2374627D01*
X2901682Y-2374627D02*
X2892158Y-2346055D01*
X2892158Y-2346055D02*
X2882634Y-2327008D01*
X2882634Y-2327008D02*
X2863587Y-2298436D01*
X2863587Y-2298436D02*
X2854063Y-2288912D01*
X3215968Y-2593674D02*
X3206444Y-2584150D01*
X3206444Y-2584150D02*
X3187396Y-2555579D01*
X3187396Y-2555579D02*
X3177872Y-2536531D01*
X3177872Y-2536531D02*
X3168349Y-2507960D01*
X3168349Y-2507960D02*
X3158825Y-2460341D01*
X3158825Y-2460341D02*
X3158825Y-2422246D01*
X3158825Y-2422246D02*
X3168349Y-2374627D01*
X3168349Y-2374627D02*
X3177872Y-2346055D01*
X3177872Y-2346055D02*
X3187396Y-2327008D01*
X3187396Y-2327008D02*
X3206444Y-2298436D01*
X3206444Y-2298436D02*
X3215968Y-2288912D01*
X3292158Y-2384150D02*
X3292158Y-2517484D01*
X3292158Y-2403198D02*
X3301682Y-2393674D01*
X3301682Y-2393674D02*
X3320730Y-2384150D01*
X3320730Y-2384150D02*
X3349301Y-2384150D01*
X3349301Y-2384150D02*
X3368349Y-2393674D01*
X3368349Y-2393674D02*
X3377872Y-2412722D01*
X3377872Y-2412722D02*
X3377872Y-2517484D01*
X3501682Y-2517484D02*
X3482634Y-2507960D01*
X3482634Y-2507960D02*
X3473111Y-2498436D01*
X3473111Y-2498436D02*
X3463587Y-2479389D01*
X3463587Y-2479389D02*
X3463587Y-2422246D01*
X3463587Y-2422246D02*
X3473111Y-2403198D01*
X3473111Y-2403198D02*
X3482634Y-2393674D01*
X3482634Y-2393674D02*
X3501682Y-2384150D01*
X3501682Y-2384150D02*
X3530253Y-2384150D01*
X3530253Y-2384150D02*
X3549301Y-2393674D01*
X3549301Y-2393674D02*
X3558825Y-2403198D01*
X3558825Y-2403198D02*
X3568349Y-2422246D01*
X3568349Y-2422246D02*
X3568349Y-2479389D01*
X3568349Y-2479389D02*
X3558825Y-2498436D01*
X3558825Y-2498436D02*
X3549301Y-2507960D01*
X3549301Y-2507960D02*
X3530253Y-2517484D01*
X3530253Y-2517484D02*
X3501682Y-2517484D01*
X3625492Y-2384150D02*
X3701682Y-2384150D01*
X3654063Y-2317484D02*
X3654063Y-2488912D01*
X3654063Y-2488912D02*
X3663587Y-2507960D01*
X3663587Y-2507960D02*
X3682634Y-2517484D01*
X3682634Y-2517484D02*
X3701682Y-2517484D01*
X3920730Y-2384150D02*
X3920730Y-2584150D01*
X3920730Y-2393674D02*
X3939777Y-2384150D01*
X3939777Y-2384150D02*
X3977873Y-2384150D01*
X3977873Y-2384150D02*
X3996920Y-2393674D01*
X3996920Y-2393674D02*
X4006444Y-2403198D01*
X4006444Y-2403198D02*
X4015968Y-2422246D01*
X4015968Y-2422246D02*
X4015968Y-2479389D01*
X4015968Y-2479389D02*
X4006444Y-2498436D01*
X4006444Y-2498436D02*
X3996920Y-2507960D01*
X3996920Y-2507960D02*
X3977873Y-2517484D01*
X3977873Y-2517484D02*
X3939777Y-2517484D01*
X3939777Y-2517484D02*
X3920730Y-2507960D01*
X4130253Y-2517484D02*
X4111206Y-2507960D01*
X4111206Y-2507960D02*
X4101682Y-2488912D01*
X4101682Y-2488912D02*
X4101682Y-2317484D01*
X4292158Y-2517484D02*
X4292158Y-2412722D01*
X4292158Y-2412722D02*
X4282635Y-2393674D01*
X4282635Y-2393674D02*
X4263587Y-2384150D01*
X4263587Y-2384150D02*
X4225492Y-2384150D01*
X4225492Y-2384150D02*
X4206444Y-2393674D01*
X4292158Y-2507960D02*
X4273111Y-2517484D01*
X4273111Y-2517484D02*
X4225492Y-2517484D01*
X4225492Y-2517484D02*
X4206444Y-2507960D01*
X4206444Y-2507960D02*
X4196920Y-2488912D01*
X4196920Y-2488912D02*
X4196920Y-2469865D01*
X4196920Y-2469865D02*
X4206444Y-2450817D01*
X4206444Y-2450817D02*
X4225492Y-2441293D01*
X4225492Y-2441293D02*
X4273111Y-2441293D01*
X4273111Y-2441293D02*
X4292158Y-2431770D01*
X4358825Y-2384150D02*
X4435015Y-2384150D01*
X4387396Y-2317484D02*
X4387396Y-2488912D01*
X4387396Y-2488912D02*
X4396920Y-2507960D01*
X4396920Y-2507960D02*
X4415968Y-2517484D01*
X4415968Y-2517484D02*
X4435015Y-2517484D01*
X4577873Y-2507960D02*
X4558825Y-2517484D01*
X4558825Y-2517484D02*
X4520730Y-2517484D01*
X4520730Y-2517484D02*
X4501682Y-2507960D01*
X4501682Y-2507960D02*
X4492158Y-2488912D01*
X4492158Y-2488912D02*
X4492158Y-2412722D01*
X4492158Y-2412722D02*
X4501682Y-2393674D01*
X4501682Y-2393674D02*
X4520730Y-2384150D01*
X4520730Y-2384150D02*
X4558825Y-2384150D01*
X4558825Y-2384150D02*
X4577873Y-2393674D01*
X4577873Y-2393674D02*
X4587396Y-2412722D01*
X4587396Y-2412722D02*
X4587396Y-2431770D01*
X4587396Y-2431770D02*
X4492158Y-2450817D01*
X4758825Y-2517484D02*
X4758825Y-2317484D01*
X4758825Y-2507960D02*
X4739777Y-2517484D01*
X4739777Y-2517484D02*
X4701682Y-2517484D01*
X4701682Y-2517484D02*
X4682635Y-2507960D01*
X4682635Y-2507960D02*
X4673111Y-2498436D01*
X4673111Y-2498436D02*
X4663587Y-2479389D01*
X4663587Y-2479389D02*
X4663587Y-2422246D01*
X4663587Y-2422246D02*
X4673111Y-2403198D01*
X4673111Y-2403198D02*
X4682635Y-2393674D01*
X4682635Y-2393674D02*
X4701682Y-2384150D01*
X4701682Y-2384150D02*
X4739777Y-2384150D01*
X4739777Y-2384150D02*
X4758825Y-2393674D01*
X4835016Y-2593674D02*
X4844539Y-2584150D01*
X4844539Y-2584150D02*
X4863587Y-2555579D01*
X4863587Y-2555579D02*
X4873111Y-2536531D01*
X4873111Y-2536531D02*
X4882635Y-2507960D01*
X4882635Y-2507960D02*
X4892158Y-2460341D01*
X4892158Y-2460341D02*
X4892158Y-2422246D01*
X4892158Y-2422246D02*
X4882635Y-2374627D01*
X4882635Y-2374627D02*
X4873111Y-2346055D01*
X4873111Y-2346055D02*
X4863587Y-2327008D01*
X4863587Y-2327008D02*
X4844539Y-2298436D01*
X4844539Y-2298436D02*
X4835016Y-2288912D01*
D13*
X-1986000Y-2625000D02*
X-1986000Y-2755000D01*
X-2051000Y-2690000D02*
X-1921000Y-2690000D01*
D10*
X-1555461Y-2781484D02*
X-1669747Y-2781484D01*
X-1612604Y-2781484D02*
X-1612604Y-2581484D01*
X-1612604Y-2581484D02*
X-1631652Y-2610055D01*
X-1631652Y-2610055D02*
X-1650699Y-2629103D01*
X-1650699Y-2629103D02*
X-1669747Y-2638627D01*
X-1469747Y-2762436D02*
X-1460223Y-2771960D01*
X-1460223Y-2771960D02*
X-1469747Y-2781484D01*
X-1469747Y-2781484D02*
X-1479271Y-2771960D01*
X-1479271Y-2771960D02*
X-1469747Y-2762436D01*
X-1469747Y-2762436D02*
X-1469747Y-2781484D01*
X-1393556Y-2581484D02*
X-1269747Y-2581484D01*
X-1269747Y-2581484D02*
X-1336414Y-2657674D01*
X-1336414Y-2657674D02*
X-1307842Y-2657674D01*
X-1307842Y-2657674D02*
X-1288795Y-2667198D01*
X-1288795Y-2667198D02*
X-1279271Y-2676722D01*
X-1279271Y-2676722D02*
X-1269747Y-2695770D01*
X-1269747Y-2695770D02*
X-1269747Y-2743389D01*
X-1269747Y-2743389D02*
X-1279271Y-2762436D01*
X-1279271Y-2762436D02*
X-1288795Y-2771960D01*
X-1288795Y-2771960D02*
X-1307842Y-2781484D01*
X-1307842Y-2781484D02*
X-1364985Y-2781484D01*
X-1364985Y-2781484D02*
X-1384033Y-2771960D01*
X-1384033Y-2771960D02*
X-1393556Y-2762436D01*
X-1145937Y-2581484D02*
X-1126890Y-2581484D01*
X-1126890Y-2581484D02*
X-1107842Y-2591008D01*
X-1107842Y-2591008D02*
X-1098318Y-2600531D01*
X-1098318Y-2600531D02*
X-1088795Y-2619579D01*
X-1088795Y-2619579D02*
X-1079271Y-2657674D01*
X-1079271Y-2657674D02*
X-1079271Y-2705293D01*
X-1079271Y-2705293D02*
X-1088795Y-2743389D01*
X-1088795Y-2743389D02*
X-1098318Y-2762436D01*
X-1098318Y-2762436D02*
X-1107842Y-2771960D01*
X-1107842Y-2771960D02*
X-1126890Y-2781484D01*
X-1126890Y-2781484D02*
X-1145937Y-2781484D01*
X-1145937Y-2781484D02*
X-1164985Y-2771960D01*
X-1164985Y-2771960D02*
X-1174509Y-2762436D01*
X-1174509Y-2762436D02*
X-1184033Y-2743389D01*
X-1184033Y-2743389D02*
X-1193556Y-2705293D01*
X-1193556Y-2705293D02*
X-1193556Y-2657674D01*
X-1193556Y-2657674D02*
X-1184033Y-2619579D01*
X-1184033Y-2619579D02*
X-1174509Y-2600531D01*
X-1174509Y-2600531D02*
X-1164985Y-2591008D01*
X-1164985Y-2591008D02*
X-1145937Y-2581484D01*
X-955461Y-2581484D02*
X-936413Y-2581484D01*
X-936413Y-2581484D02*
X-917366Y-2591008D01*
X-917366Y-2591008D02*
X-907842Y-2600531D01*
X-907842Y-2600531D02*
X-898318Y-2619579D01*
X-898318Y-2619579D02*
X-888794Y-2657674D01*
X-888794Y-2657674D02*
X-888794Y-2705293D01*
X-888794Y-2705293D02*
X-898318Y-2743389D01*
X-898318Y-2743389D02*
X-907842Y-2762436D01*
X-907842Y-2762436D02*
X-917366Y-2771960D01*
X-917366Y-2771960D02*
X-936413Y-2781484D01*
X-936413Y-2781484D02*
X-955461Y-2781484D01*
X-955461Y-2781484D02*
X-974509Y-2771960D01*
X-974509Y-2771960D02*
X-984033Y-2762436D01*
X-984033Y-2762436D02*
X-993556Y-2743389D01*
X-993556Y-2743389D02*
X-1003080Y-2705293D01*
X-1003080Y-2705293D02*
X-1003080Y-2657674D01*
X-1003080Y-2657674D02*
X-993556Y-2619579D01*
X-993556Y-2619579D02*
X-984033Y-2600531D01*
X-984033Y-2600531D02*
X-974509Y-2591008D01*
X-974509Y-2591008D02*
X-955461Y-2581484D01*
X-803080Y-2781484D02*
X-803080Y-2648150D01*
X-803080Y-2667198D02*
X-793556Y-2657674D01*
X-793556Y-2657674D02*
X-774509Y-2648150D01*
X-774509Y-2648150D02*
X-745937Y-2648150D01*
X-745937Y-2648150D02*
X-726890Y-2657674D01*
X-726890Y-2657674D02*
X-717366Y-2676722D01*
X-717366Y-2676722D02*
X-717366Y-2781484D01*
X-717366Y-2676722D02*
X-707842Y-2657674D01*
X-707842Y-2657674D02*
X-688795Y-2648150D01*
X-688795Y-2648150D02*
X-660223Y-2648150D01*
X-660223Y-2648150D02*
X-641175Y-2657674D01*
X-641175Y-2657674D02*
X-631652Y-2676722D01*
X-631652Y-2676722D02*
X-631652Y-2781484D01*
X-536414Y-2781484D02*
X-536414Y-2648150D01*
X-536414Y-2667198D02*
X-526890Y-2657674D01*
X-526890Y-2657674D02*
X-507842Y-2648150D01*
X-507842Y-2648150D02*
X-479271Y-2648150D01*
X-479271Y-2648150D02*
X-460223Y-2657674D01*
X-460223Y-2657674D02*
X-450699Y-2676722D01*
X-450699Y-2676722D02*
X-450699Y-2781484D01*
X-450699Y-2676722D02*
X-441175Y-2657674D01*
X-441175Y-2657674D02*
X-422128Y-2648150D01*
X-422128Y-2648150D02*
X-393556Y-2648150D01*
X-393556Y-2648150D02*
X-374509Y-2657674D01*
X-374509Y-2657674D02*
X-364985Y-2676722D01*
X-364985Y-2676722D02*
X-364985Y-2781484D01*
X25491Y-2571960D02*
X-145937Y-2829103D01*
X282634Y-2581484D02*
X301682Y-2581484D01*
X301682Y-2581484D02*
X320729Y-2591008D01*
X320729Y-2591008D02*
X330253Y-2600531D01*
X330253Y-2600531D02*
X339777Y-2619579D01*
X339777Y-2619579D02*
X349301Y-2657674D01*
X349301Y-2657674D02*
X349301Y-2705293D01*
X349301Y-2705293D02*
X339777Y-2743389D01*
X339777Y-2743389D02*
X330253Y-2762436D01*
X330253Y-2762436D02*
X320729Y-2771960D01*
X320729Y-2771960D02*
X301682Y-2781484D01*
X301682Y-2781484D02*
X282634Y-2781484D01*
X282634Y-2781484D02*
X263587Y-2771960D01*
X263587Y-2771960D02*
X254063Y-2762436D01*
X254063Y-2762436D02*
X244539Y-2743389D01*
X244539Y-2743389D02*
X235015Y-2705293D01*
X235015Y-2705293D02*
X235015Y-2657674D01*
X235015Y-2657674D02*
X244539Y-2619579D01*
X244539Y-2619579D02*
X254063Y-2600531D01*
X254063Y-2600531D02*
X263587Y-2591008D01*
X263587Y-2591008D02*
X282634Y-2581484D01*
X435015Y-2762436D02*
X444539Y-2771960D01*
X444539Y-2771960D02*
X435015Y-2781484D01*
X435015Y-2781484D02*
X425491Y-2771960D01*
X425491Y-2771960D02*
X435015Y-2762436D01*
X435015Y-2762436D02*
X435015Y-2781484D01*
X568348Y-2581484D02*
X587396Y-2581484D01*
X587396Y-2581484D02*
X606444Y-2591008D01*
X606444Y-2591008D02*
X615968Y-2600531D01*
X615968Y-2600531D02*
X625491Y-2619579D01*
X625491Y-2619579D02*
X635015Y-2657674D01*
X635015Y-2657674D02*
X635015Y-2705293D01*
X635015Y-2705293D02*
X625491Y-2743389D01*
X625491Y-2743389D02*
X615968Y-2762436D01*
X615968Y-2762436D02*
X606444Y-2771960D01*
X606444Y-2771960D02*
X587396Y-2781484D01*
X587396Y-2781484D02*
X568348Y-2781484D01*
X568348Y-2781484D02*
X549301Y-2771960D01*
X549301Y-2771960D02*
X539777Y-2762436D01*
X539777Y-2762436D02*
X530253Y-2743389D01*
X530253Y-2743389D02*
X520729Y-2705293D01*
X520729Y-2705293D02*
X520729Y-2657674D01*
X520729Y-2657674D02*
X530253Y-2619579D01*
X530253Y-2619579D02*
X539777Y-2600531D01*
X539777Y-2600531D02*
X549301Y-2591008D01*
X549301Y-2591008D02*
X568348Y-2581484D01*
X815967Y-2581484D02*
X720729Y-2581484D01*
X720729Y-2581484D02*
X711206Y-2676722D01*
X711206Y-2676722D02*
X720729Y-2667198D01*
X720729Y-2667198D02*
X739777Y-2657674D01*
X739777Y-2657674D02*
X787396Y-2657674D01*
X787396Y-2657674D02*
X806444Y-2667198D01*
X806444Y-2667198D02*
X815967Y-2676722D01*
X815967Y-2676722D02*
X825491Y-2695770D01*
X825491Y-2695770D02*
X825491Y-2743389D01*
X825491Y-2743389D02*
X815967Y-2762436D01*
X815967Y-2762436D02*
X806444Y-2771960D01*
X806444Y-2771960D02*
X787396Y-2781484D01*
X787396Y-2781484D02*
X739777Y-2781484D01*
X739777Y-2781484D02*
X720729Y-2771960D01*
X720729Y-2771960D02*
X711206Y-2762436D01*
X1015967Y-2781484D02*
X901682Y-2781484D01*
X958825Y-2781484D02*
X958825Y-2581484D01*
X958825Y-2581484D02*
X939777Y-2610055D01*
X939777Y-2610055D02*
X920729Y-2629103D01*
X920729Y-2629103D02*
X901682Y-2638627D01*
X1092158Y-2600531D02*
X1101682Y-2591008D01*
X1101682Y-2591008D02*
X1120729Y-2581484D01*
X1120729Y-2581484D02*
X1168349Y-2581484D01*
X1168349Y-2581484D02*
X1187396Y-2591008D01*
X1187396Y-2591008D02*
X1196920Y-2600531D01*
X1196920Y-2600531D02*
X1206444Y-2619579D01*
X1206444Y-2619579D02*
X1206444Y-2638627D01*
X1206444Y-2638627D02*
X1196920Y-2667198D01*
X1196920Y-2667198D02*
X1082634Y-2781484D01*
X1082634Y-2781484D02*
X1206444Y-2781484D01*
X1282634Y-2581484D02*
X1282634Y-2619579D01*
X1358825Y-2581484D02*
X1358825Y-2619579D01*
X1654063Y-2857674D02*
X1644539Y-2848150D01*
X1644539Y-2848150D02*
X1625491Y-2819579D01*
X1625491Y-2819579D02*
X1615968Y-2800531D01*
X1615968Y-2800531D02*
X1606444Y-2771960D01*
X1606444Y-2771960D02*
X1596920Y-2724341D01*
X1596920Y-2724341D02*
X1596920Y-2686246D01*
X1596920Y-2686246D02*
X1606444Y-2638627D01*
X1606444Y-2638627D02*
X1615968Y-2610055D01*
X1615968Y-2610055D02*
X1625491Y-2591008D01*
X1625491Y-2591008D02*
X1644539Y-2562436D01*
X1644539Y-2562436D02*
X1654063Y-2552912D01*
X1711206Y-2581484D02*
X1835015Y-2581484D01*
X1835015Y-2581484D02*
X1768348Y-2657674D01*
X1768348Y-2657674D02*
X1796920Y-2657674D01*
X1796920Y-2657674D02*
X1815968Y-2667198D01*
X1815968Y-2667198D02*
X1825491Y-2676722D01*
X1825491Y-2676722D02*
X1835015Y-2695770D01*
X1835015Y-2695770D02*
X1835015Y-2743389D01*
X1835015Y-2743389D02*
X1825491Y-2762436D01*
X1825491Y-2762436D02*
X1815968Y-2771960D01*
X1815968Y-2771960D02*
X1796920Y-2781484D01*
X1796920Y-2781484D02*
X1739777Y-2781484D01*
X1739777Y-2781484D02*
X1720729Y-2771960D01*
X1720729Y-2771960D02*
X1711206Y-2762436D01*
X2073110Y-2781484D02*
X2073110Y-2581484D01*
X2158825Y-2781484D02*
X2158825Y-2676722D01*
X2158825Y-2676722D02*
X2149301Y-2657674D01*
X2149301Y-2657674D02*
X2130253Y-2648150D01*
X2130253Y-2648150D02*
X2101682Y-2648150D01*
X2101682Y-2648150D02*
X2082634Y-2657674D01*
X2082634Y-2657674D02*
X2073110Y-2667198D01*
X2282634Y-2781484D02*
X2263587Y-2771960D01*
X2263587Y-2771960D02*
X2254063Y-2762436D01*
X2254063Y-2762436D02*
X2244539Y-2743389D01*
X2244539Y-2743389D02*
X2244539Y-2686246D01*
X2244539Y-2686246D02*
X2254063Y-2667198D01*
X2254063Y-2667198D02*
X2263587Y-2657674D01*
X2263587Y-2657674D02*
X2282634Y-2648150D01*
X2282634Y-2648150D02*
X2311206Y-2648150D01*
X2311206Y-2648150D02*
X2330253Y-2657674D01*
X2330253Y-2657674D02*
X2339777Y-2667198D01*
X2339777Y-2667198D02*
X2349301Y-2686246D01*
X2349301Y-2686246D02*
X2349301Y-2743389D01*
X2349301Y-2743389D02*
X2339777Y-2762436D01*
X2339777Y-2762436D02*
X2330253Y-2771960D01*
X2330253Y-2771960D02*
X2311206Y-2781484D01*
X2311206Y-2781484D02*
X2282634Y-2781484D01*
X2463587Y-2781484D02*
X2444539Y-2771960D01*
X2444539Y-2771960D02*
X2435015Y-2752912D01*
X2435015Y-2752912D02*
X2435015Y-2581484D01*
X2615968Y-2771960D02*
X2596920Y-2781484D01*
X2596920Y-2781484D02*
X2558825Y-2781484D01*
X2558825Y-2781484D02*
X2539777Y-2771960D01*
X2539777Y-2771960D02*
X2530253Y-2752912D01*
X2530253Y-2752912D02*
X2530253Y-2676722D01*
X2530253Y-2676722D02*
X2539777Y-2657674D01*
X2539777Y-2657674D02*
X2558825Y-2648150D01*
X2558825Y-2648150D02*
X2596920Y-2648150D01*
X2596920Y-2648150D02*
X2615968Y-2657674D01*
X2615968Y-2657674D02*
X2625492Y-2676722D01*
X2625492Y-2676722D02*
X2625492Y-2695770D01*
X2625492Y-2695770D02*
X2530253Y-2714817D01*
X2701682Y-2771960D02*
X2720730Y-2781484D01*
X2720730Y-2781484D02*
X2758825Y-2781484D01*
X2758825Y-2781484D02*
X2777873Y-2771960D01*
X2777873Y-2771960D02*
X2787396Y-2752912D01*
X2787396Y-2752912D02*
X2787396Y-2743389D01*
X2787396Y-2743389D02*
X2777873Y-2724341D01*
X2777873Y-2724341D02*
X2758825Y-2714817D01*
X2758825Y-2714817D02*
X2730253Y-2714817D01*
X2730253Y-2714817D02*
X2711206Y-2705293D01*
X2711206Y-2705293D02*
X2701682Y-2686246D01*
X2701682Y-2686246D02*
X2701682Y-2676722D01*
X2701682Y-2676722D02*
X2711206Y-2657674D01*
X2711206Y-2657674D02*
X2730253Y-2648150D01*
X2730253Y-2648150D02*
X2758825Y-2648150D01*
X2758825Y-2648150D02*
X2777873Y-2657674D01*
X2854063Y-2857674D02*
X2863587Y-2848150D01*
X2863587Y-2848150D02*
X2882634Y-2819579D01*
X2882634Y-2819579D02*
X2892158Y-2800531D01*
X2892158Y-2800531D02*
X2901682Y-2771960D01*
X2901682Y-2771960D02*
X2911206Y-2724341D01*
X2911206Y-2724341D02*
X2911206Y-2686246D01*
X2911206Y-2686246D02*
X2901682Y-2638627D01*
X2901682Y-2638627D02*
X2892158Y-2610055D01*
X2892158Y-2610055D02*
X2882634Y-2591008D01*
X2882634Y-2591008D02*
X2863587Y-2562436D01*
X2863587Y-2562436D02*
X2854063Y-2552912D01*
X3215968Y-2857674D02*
X3206444Y-2848150D01*
X3206444Y-2848150D02*
X3187396Y-2819579D01*
X3187396Y-2819579D02*
X3177872Y-2800531D01*
X3177872Y-2800531D02*
X3168349Y-2771960D01*
X3168349Y-2771960D02*
X3158825Y-2724341D01*
X3158825Y-2724341D02*
X3158825Y-2686246D01*
X3158825Y-2686246D02*
X3168349Y-2638627D01*
X3168349Y-2638627D02*
X3177872Y-2610055D01*
X3177872Y-2610055D02*
X3187396Y-2591008D01*
X3187396Y-2591008D02*
X3206444Y-2562436D01*
X3206444Y-2562436D02*
X3215968Y-2552912D01*
X3292158Y-2648150D02*
X3292158Y-2781484D01*
X3292158Y-2667198D02*
X3301682Y-2657674D01*
X3301682Y-2657674D02*
X3320730Y-2648150D01*
X3320730Y-2648150D02*
X3349301Y-2648150D01*
X3349301Y-2648150D02*
X3368349Y-2657674D01*
X3368349Y-2657674D02*
X3377872Y-2676722D01*
X3377872Y-2676722D02*
X3377872Y-2781484D01*
X3501682Y-2781484D02*
X3482634Y-2771960D01*
X3482634Y-2771960D02*
X3473111Y-2762436D01*
X3473111Y-2762436D02*
X3463587Y-2743389D01*
X3463587Y-2743389D02*
X3463587Y-2686246D01*
X3463587Y-2686246D02*
X3473111Y-2667198D01*
X3473111Y-2667198D02*
X3482634Y-2657674D01*
X3482634Y-2657674D02*
X3501682Y-2648150D01*
X3501682Y-2648150D02*
X3530253Y-2648150D01*
X3530253Y-2648150D02*
X3549301Y-2657674D01*
X3549301Y-2657674D02*
X3558825Y-2667198D01*
X3558825Y-2667198D02*
X3568349Y-2686246D01*
X3568349Y-2686246D02*
X3568349Y-2743389D01*
X3568349Y-2743389D02*
X3558825Y-2762436D01*
X3558825Y-2762436D02*
X3549301Y-2771960D01*
X3549301Y-2771960D02*
X3530253Y-2781484D01*
X3530253Y-2781484D02*
X3501682Y-2781484D01*
X3625492Y-2648150D02*
X3701682Y-2648150D01*
X3654063Y-2581484D02*
X3654063Y-2752912D01*
X3654063Y-2752912D02*
X3663587Y-2771960D01*
X3663587Y-2771960D02*
X3682634Y-2781484D01*
X3682634Y-2781484D02*
X3701682Y-2781484D01*
X3920730Y-2648150D02*
X3920730Y-2848150D01*
X3920730Y-2657674D02*
X3939777Y-2648150D01*
X3939777Y-2648150D02*
X3977873Y-2648150D01*
X3977873Y-2648150D02*
X3996920Y-2657674D01*
X3996920Y-2657674D02*
X4006444Y-2667198D01*
X4006444Y-2667198D02*
X4015968Y-2686246D01*
X4015968Y-2686246D02*
X4015968Y-2743389D01*
X4015968Y-2743389D02*
X4006444Y-2762436D01*
X4006444Y-2762436D02*
X3996920Y-2771960D01*
X3996920Y-2771960D02*
X3977873Y-2781484D01*
X3977873Y-2781484D02*
X3939777Y-2781484D01*
X3939777Y-2781484D02*
X3920730Y-2771960D01*
X4130253Y-2781484D02*
X4111206Y-2771960D01*
X4111206Y-2771960D02*
X4101682Y-2752912D01*
X4101682Y-2752912D02*
X4101682Y-2581484D01*
X4292158Y-2781484D02*
X4292158Y-2676722D01*
X4292158Y-2676722D02*
X4282635Y-2657674D01*
X4282635Y-2657674D02*
X4263587Y-2648150D01*
X4263587Y-2648150D02*
X4225492Y-2648150D01*
X4225492Y-2648150D02*
X4206444Y-2657674D01*
X4292158Y-2771960D02*
X4273111Y-2781484D01*
X4273111Y-2781484D02*
X4225492Y-2781484D01*
X4225492Y-2781484D02*
X4206444Y-2771960D01*
X4206444Y-2771960D02*
X4196920Y-2752912D01*
X4196920Y-2752912D02*
X4196920Y-2733865D01*
X4196920Y-2733865D02*
X4206444Y-2714817D01*
X4206444Y-2714817D02*
X4225492Y-2705293D01*
X4225492Y-2705293D02*
X4273111Y-2705293D01*
X4273111Y-2705293D02*
X4292158Y-2695770D01*
X4358825Y-2648150D02*
X4435015Y-2648150D01*
X4387396Y-2581484D02*
X4387396Y-2752912D01*
X4387396Y-2752912D02*
X4396920Y-2771960D01*
X4396920Y-2771960D02*
X4415968Y-2781484D01*
X4415968Y-2781484D02*
X4435015Y-2781484D01*
X4577873Y-2771960D02*
X4558825Y-2781484D01*
X4558825Y-2781484D02*
X4520730Y-2781484D01*
X4520730Y-2781484D02*
X4501682Y-2771960D01*
X4501682Y-2771960D02*
X4492158Y-2752912D01*
X4492158Y-2752912D02*
X4492158Y-2676722D01*
X4492158Y-2676722D02*
X4501682Y-2657674D01*
X4501682Y-2657674D02*
X4520730Y-2648150D01*
X4520730Y-2648150D02*
X4558825Y-2648150D01*
X4558825Y-2648150D02*
X4577873Y-2657674D01*
X4577873Y-2657674D02*
X4587396Y-2676722D01*
X4587396Y-2676722D02*
X4587396Y-2695770D01*
X4587396Y-2695770D02*
X4492158Y-2714817D01*
X4758825Y-2781484D02*
X4758825Y-2581484D01*
X4758825Y-2771960D02*
X4739777Y-2781484D01*
X4739777Y-2781484D02*
X4701682Y-2781484D01*
X4701682Y-2781484D02*
X4682635Y-2771960D01*
X4682635Y-2771960D02*
X4673111Y-2762436D01*
X4673111Y-2762436D02*
X4663587Y-2743389D01*
X4663587Y-2743389D02*
X4663587Y-2686246D01*
X4663587Y-2686246D02*
X4673111Y-2667198D01*
X4673111Y-2667198D02*
X4682635Y-2657674D01*
X4682635Y-2657674D02*
X4701682Y-2648150D01*
X4701682Y-2648150D02*
X4739777Y-2648150D01*
X4739777Y-2648150D02*
X4758825Y-2657674D01*
X4835016Y-2857674D02*
X4844539Y-2848150D01*
X4844539Y-2848150D02*
X4863587Y-2819579D01*
X4863587Y-2819579D02*
X4873111Y-2800531D01*
X4873111Y-2800531D02*
X4882635Y-2771960D01*
X4882635Y-2771960D02*
X4892158Y-2724341D01*
X4892158Y-2724341D02*
X4892158Y-2686246D01*
X4892158Y-2686246D02*
X4882635Y-2638627D01*
X4882635Y-2638627D02*
X4873111Y-2610055D01*
X4873111Y-2610055D02*
X4863587Y-2591008D01*
X4863587Y-2591008D02*
X4844539Y-2562436D01*
X4844539Y-2562436D02*
X4835016Y-2552912D01*
X-1950289Y-3024711D02*
X-1950289Y-2883289D01*
X-2091711Y-2883289D01*
X-2091711Y-3024711D01*
X-1950289Y-3024711D01*
X-1669747Y-2864531D02*
X-1660223Y-2855008D01*
X-1660223Y-2855008D02*
X-1641175Y-2845484D01*
X-1641175Y-2845484D02*
X-1593556Y-2845484D01*
X-1593556Y-2845484D02*
X-1574509Y-2855008D01*
X-1574509Y-2855008D02*
X-1564985Y-2864531D01*
X-1564985Y-2864531D02*
X-1555461Y-2883579D01*
X-1555461Y-2883579D02*
X-1555461Y-2902627D01*
X-1555461Y-2902627D02*
X-1564985Y-2931198D01*
X-1564985Y-2931198D02*
X-1679271Y-3045484D01*
X-1679271Y-3045484D02*
X-1555461Y-3045484D01*
X-1469747Y-3026436D02*
X-1460223Y-3035960D01*
X-1460223Y-3035960D02*
X-1469747Y-3045484D01*
X-1469747Y-3045484D02*
X-1479271Y-3035960D01*
X-1479271Y-3035960D02*
X-1469747Y-3026436D01*
X-1469747Y-3026436D02*
X-1469747Y-3045484D01*
X-1288795Y-2912150D02*
X-1288795Y-3045484D01*
X-1336414Y-2835960D02*
X-1384033Y-2978817D01*
X-1384033Y-2978817D02*
X-1260223Y-2978817D01*
X-1098318Y-2912150D02*
X-1098318Y-3045484D01*
X-1145937Y-2835960D02*
X-1193556Y-2978817D01*
X-1193556Y-2978817D02*
X-1069747Y-2978817D01*
X-955461Y-2845484D02*
X-936413Y-2845484D01*
X-936413Y-2845484D02*
X-917366Y-2855008D01*
X-917366Y-2855008D02*
X-907842Y-2864531D01*
X-907842Y-2864531D02*
X-898318Y-2883579D01*
X-898318Y-2883579D02*
X-888794Y-2921674D01*
X-888794Y-2921674D02*
X-888794Y-2969293D01*
X-888794Y-2969293D02*
X-898318Y-3007388D01*
X-898318Y-3007388D02*
X-907842Y-3026436D01*
X-907842Y-3026436D02*
X-917366Y-3035960D01*
X-917366Y-3035960D02*
X-936413Y-3045484D01*
X-936413Y-3045484D02*
X-955461Y-3045484D01*
X-955461Y-3045484D02*
X-974509Y-3035960D01*
X-974509Y-3035960D02*
X-984033Y-3026436D01*
X-984033Y-3026436D02*
X-993556Y-3007388D01*
X-993556Y-3007388D02*
X-1003080Y-2969293D01*
X-1003080Y-2969293D02*
X-1003080Y-2921674D01*
X-1003080Y-2921674D02*
X-993556Y-2883579D01*
X-993556Y-2883579D02*
X-984033Y-2864531D01*
X-984033Y-2864531D02*
X-974509Y-2855008D01*
X-974509Y-2855008D02*
X-955461Y-2845484D01*
X-803080Y-3045484D02*
X-803080Y-2912150D01*
X-803080Y-2931198D02*
X-793556Y-2921674D01*
X-793556Y-2921674D02*
X-774509Y-2912150D01*
X-774509Y-2912150D02*
X-745937Y-2912150D01*
X-745937Y-2912150D02*
X-726890Y-2921674D01*
X-726890Y-2921674D02*
X-717366Y-2940722D01*
X-717366Y-2940722D02*
X-717366Y-3045484D01*
X-717366Y-2940722D02*
X-707842Y-2921674D01*
X-707842Y-2921674D02*
X-688795Y-2912150D01*
X-688795Y-2912150D02*
X-660223Y-2912150D01*
X-660223Y-2912150D02*
X-641175Y-2921674D01*
X-641175Y-2921674D02*
X-631652Y-2940722D01*
X-631652Y-2940722D02*
X-631652Y-3045484D01*
X-536414Y-3045484D02*
X-536414Y-2912150D01*
X-536414Y-2931198D02*
X-526890Y-2921674D01*
X-526890Y-2921674D02*
X-507842Y-2912150D01*
X-507842Y-2912150D02*
X-479271Y-2912150D01*
X-479271Y-2912150D02*
X-460223Y-2921674D01*
X-460223Y-2921674D02*
X-450699Y-2940722D01*
X-450699Y-2940722D02*
X-450699Y-3045484D01*
X-450699Y-2940722D02*
X-441175Y-2921674D01*
X-441175Y-2921674D02*
X-422128Y-2912150D01*
X-422128Y-2912150D02*
X-393556Y-2912150D01*
X-393556Y-2912150D02*
X-374509Y-2921674D01*
X-374509Y-2921674D02*
X-364985Y-2940722D01*
X-364985Y-2940722D02*
X-364985Y-3045484D01*
X25491Y-2835960D02*
X-145937Y-3093103D01*
X282634Y-2845484D02*
X301682Y-2845484D01*
X301682Y-2845484D02*
X320729Y-2855008D01*
X320729Y-2855008D02*
X330253Y-2864531D01*
X330253Y-2864531D02*
X339777Y-2883579D01*
X339777Y-2883579D02*
X349301Y-2921674D01*
X349301Y-2921674D02*
X349301Y-2969293D01*
X349301Y-2969293D02*
X339777Y-3007388D01*
X339777Y-3007388D02*
X330253Y-3026436D01*
X330253Y-3026436D02*
X320729Y-3035960D01*
X320729Y-3035960D02*
X301682Y-3045484D01*
X301682Y-3045484D02*
X282634Y-3045484D01*
X282634Y-3045484D02*
X263587Y-3035960D01*
X263587Y-3035960D02*
X254063Y-3026436D01*
X254063Y-3026436D02*
X244539Y-3007388D01*
X244539Y-3007388D02*
X235015Y-2969293D01*
X235015Y-2969293D02*
X235015Y-2921674D01*
X235015Y-2921674D02*
X244539Y-2883579D01*
X244539Y-2883579D02*
X254063Y-2864531D01*
X254063Y-2864531D02*
X263587Y-2855008D01*
X263587Y-2855008D02*
X282634Y-2845484D01*
X435015Y-3026436D02*
X444539Y-3035960D01*
X444539Y-3035960D02*
X435015Y-3045484D01*
X435015Y-3045484D02*
X425491Y-3035960D01*
X425491Y-3035960D02*
X435015Y-3026436D01*
X435015Y-3026436D02*
X435015Y-3045484D01*
X568348Y-2845484D02*
X587396Y-2845484D01*
X587396Y-2845484D02*
X606444Y-2855008D01*
X606444Y-2855008D02*
X615968Y-2864531D01*
X615968Y-2864531D02*
X625491Y-2883579D01*
X625491Y-2883579D02*
X635015Y-2921674D01*
X635015Y-2921674D02*
X635015Y-2969293D01*
X635015Y-2969293D02*
X625491Y-3007388D01*
X625491Y-3007388D02*
X615968Y-3026436D01*
X615968Y-3026436D02*
X606444Y-3035960D01*
X606444Y-3035960D02*
X587396Y-3045484D01*
X587396Y-3045484D02*
X568348Y-3045484D01*
X568348Y-3045484D02*
X549301Y-3035960D01*
X549301Y-3035960D02*
X539777Y-3026436D01*
X539777Y-3026436D02*
X530253Y-3007388D01*
X530253Y-3007388D02*
X520729Y-2969293D01*
X520729Y-2969293D02*
X520729Y-2921674D01*
X520729Y-2921674D02*
X530253Y-2883579D01*
X530253Y-2883579D02*
X539777Y-2864531D01*
X539777Y-2864531D02*
X549301Y-2855008D01*
X549301Y-2855008D02*
X568348Y-2845484D01*
X730253Y-3045484D02*
X768348Y-3045484D01*
X768348Y-3045484D02*
X787396Y-3035960D01*
X787396Y-3035960D02*
X796920Y-3026436D01*
X796920Y-3026436D02*
X815967Y-2997865D01*
X815967Y-2997865D02*
X825491Y-2959769D01*
X825491Y-2959769D02*
X825491Y-2883579D01*
X825491Y-2883579D02*
X815967Y-2864531D01*
X815967Y-2864531D02*
X806444Y-2855008D01*
X806444Y-2855008D02*
X787396Y-2845484D01*
X787396Y-2845484D02*
X749301Y-2845484D01*
X749301Y-2845484D02*
X730253Y-2855008D01*
X730253Y-2855008D02*
X720729Y-2864531D01*
X720729Y-2864531D02*
X711206Y-2883579D01*
X711206Y-2883579D02*
X711206Y-2931198D01*
X711206Y-2931198D02*
X720729Y-2950246D01*
X720729Y-2950246D02*
X730253Y-2959769D01*
X730253Y-2959769D02*
X749301Y-2969293D01*
X749301Y-2969293D02*
X787396Y-2969293D01*
X787396Y-2969293D02*
X806444Y-2959769D01*
X806444Y-2959769D02*
X815967Y-2950246D01*
X815967Y-2950246D02*
X825491Y-2931198D01*
X996920Y-2845484D02*
X958825Y-2845484D01*
X958825Y-2845484D02*
X939777Y-2855008D01*
X939777Y-2855008D02*
X930253Y-2864531D01*
X930253Y-2864531D02*
X911206Y-2893103D01*
X911206Y-2893103D02*
X901682Y-2931198D01*
X901682Y-2931198D02*
X901682Y-3007388D01*
X901682Y-3007388D02*
X911206Y-3026436D01*
X911206Y-3026436D02*
X920729Y-3035960D01*
X920729Y-3035960D02*
X939777Y-3045484D01*
X939777Y-3045484D02*
X977872Y-3045484D01*
X977872Y-3045484D02*
X996920Y-3035960D01*
X996920Y-3035960D02*
X1006444Y-3026436D01*
X1006444Y-3026436D02*
X1015967Y-3007388D01*
X1015967Y-3007388D02*
X1015967Y-2959769D01*
X1015967Y-2959769D02*
X1006444Y-2940722D01*
X1006444Y-2940722D02*
X996920Y-2931198D01*
X996920Y-2931198D02*
X977872Y-2921674D01*
X977872Y-2921674D02*
X939777Y-2921674D01*
X939777Y-2921674D02*
X920729Y-2931198D01*
X920729Y-2931198D02*
X911206Y-2940722D01*
X911206Y-2940722D02*
X901682Y-2959769D01*
X1206444Y-3045484D02*
X1092158Y-3045484D01*
X1149301Y-3045484D02*
X1149301Y-2845484D01*
X1149301Y-2845484D02*
X1130253Y-2874055D01*
X1130253Y-2874055D02*
X1111206Y-2893103D01*
X1111206Y-2893103D02*
X1092158Y-2902627D01*
X1282634Y-2845484D02*
X1282634Y-2883579D01*
X1358825Y-2845484D02*
X1358825Y-2883579D01*
X1654063Y-3121674D02*
X1644539Y-3112150D01*
X1644539Y-3112150D02*
X1625491Y-3083579D01*
X1625491Y-3083579D02*
X1615968Y-3064531D01*
X1615968Y-3064531D02*
X1606444Y-3035960D01*
X1606444Y-3035960D02*
X1596920Y-2988341D01*
X1596920Y-2988341D02*
X1596920Y-2950246D01*
X1596920Y-2950246D02*
X1606444Y-2902627D01*
X1606444Y-2902627D02*
X1615968Y-2874055D01*
X1615968Y-2874055D02*
X1625491Y-2855008D01*
X1625491Y-2855008D02*
X1644539Y-2826436D01*
X1644539Y-2826436D02*
X1654063Y-2816912D01*
X1711206Y-2845484D02*
X1835015Y-2845484D01*
X1835015Y-2845484D02*
X1768348Y-2921674D01*
X1768348Y-2921674D02*
X1796920Y-2921674D01*
X1796920Y-2921674D02*
X1815968Y-2931198D01*
X1815968Y-2931198D02*
X1825491Y-2940722D01*
X1825491Y-2940722D02*
X1835015Y-2959769D01*
X1835015Y-2959769D02*
X1835015Y-3007388D01*
X1835015Y-3007388D02*
X1825491Y-3026436D01*
X1825491Y-3026436D02*
X1815968Y-3035960D01*
X1815968Y-3035960D02*
X1796920Y-3045484D01*
X1796920Y-3045484D02*
X1739777Y-3045484D01*
X1739777Y-3045484D02*
X1720729Y-3035960D01*
X1720729Y-3035960D02*
X1711206Y-3026436D01*
X2073110Y-3045484D02*
X2073110Y-2845484D01*
X2158825Y-3045484D02*
X2158825Y-2940722D01*
X2158825Y-2940722D02*
X2149301Y-2921674D01*
X2149301Y-2921674D02*
X2130253Y-2912150D01*
X2130253Y-2912150D02*
X2101682Y-2912150D01*
X2101682Y-2912150D02*
X2082634Y-2921674D01*
X2082634Y-2921674D02*
X2073110Y-2931198D01*
X2282634Y-3045484D02*
X2263587Y-3035960D01*
X2263587Y-3035960D02*
X2254063Y-3026436D01*
X2254063Y-3026436D02*
X2244539Y-3007388D01*
X2244539Y-3007388D02*
X2244539Y-2950246D01*
X2244539Y-2950246D02*
X2254063Y-2931198D01*
X2254063Y-2931198D02*
X2263587Y-2921674D01*
X2263587Y-2921674D02*
X2282634Y-2912150D01*
X2282634Y-2912150D02*
X2311206Y-2912150D01*
X2311206Y-2912150D02*
X2330253Y-2921674D01*
X2330253Y-2921674D02*
X2339777Y-2931198D01*
X2339777Y-2931198D02*
X2349301Y-2950246D01*
X2349301Y-2950246D02*
X2349301Y-3007388D01*
X2349301Y-3007388D02*
X2339777Y-3026436D01*
X2339777Y-3026436D02*
X2330253Y-3035960D01*
X2330253Y-3035960D02*
X2311206Y-3045484D01*
X2311206Y-3045484D02*
X2282634Y-3045484D01*
X2463587Y-3045484D02*
X2444539Y-3035960D01*
X2444539Y-3035960D02*
X2435015Y-3016912D01*
X2435015Y-3016912D02*
X2435015Y-2845484D01*
X2615968Y-3035960D02*
X2596920Y-3045484D01*
X2596920Y-3045484D02*
X2558825Y-3045484D01*
X2558825Y-3045484D02*
X2539777Y-3035960D01*
X2539777Y-3035960D02*
X2530253Y-3016912D01*
X2530253Y-3016912D02*
X2530253Y-2940722D01*
X2530253Y-2940722D02*
X2539777Y-2921674D01*
X2539777Y-2921674D02*
X2558825Y-2912150D01*
X2558825Y-2912150D02*
X2596920Y-2912150D01*
X2596920Y-2912150D02*
X2615968Y-2921674D01*
X2615968Y-2921674D02*
X2625492Y-2940722D01*
X2625492Y-2940722D02*
X2625492Y-2959769D01*
X2625492Y-2959769D02*
X2530253Y-2978817D01*
X2701682Y-3035960D02*
X2720730Y-3045484D01*
X2720730Y-3045484D02*
X2758825Y-3045484D01*
X2758825Y-3045484D02*
X2777873Y-3035960D01*
X2777873Y-3035960D02*
X2787396Y-3016912D01*
X2787396Y-3016912D02*
X2787396Y-3007388D01*
X2787396Y-3007388D02*
X2777873Y-2988341D01*
X2777873Y-2988341D02*
X2758825Y-2978817D01*
X2758825Y-2978817D02*
X2730253Y-2978817D01*
X2730253Y-2978817D02*
X2711206Y-2969293D01*
X2711206Y-2969293D02*
X2701682Y-2950246D01*
X2701682Y-2950246D02*
X2701682Y-2940722D01*
X2701682Y-2940722D02*
X2711206Y-2921674D01*
X2711206Y-2921674D02*
X2730253Y-2912150D01*
X2730253Y-2912150D02*
X2758825Y-2912150D01*
X2758825Y-2912150D02*
X2777873Y-2921674D01*
X2854063Y-3121674D02*
X2863587Y-3112150D01*
X2863587Y-3112150D02*
X2882634Y-3083579D01*
X2882634Y-3083579D02*
X2892158Y-3064531D01*
X2892158Y-3064531D02*
X2901682Y-3035960D01*
X2901682Y-3035960D02*
X2911206Y-2988341D01*
X2911206Y-2988341D02*
X2911206Y-2950246D01*
X2911206Y-2950246D02*
X2901682Y-2902627D01*
X2901682Y-2902627D02*
X2892158Y-2874055D01*
X2892158Y-2874055D02*
X2882634Y-2855008D01*
X2882634Y-2855008D02*
X2863587Y-2826436D01*
X2863587Y-2826436D02*
X2854063Y-2816912D01*
X3215968Y-3121674D02*
X3206444Y-3112150D01*
X3206444Y-3112150D02*
X3187396Y-3083579D01*
X3187396Y-3083579D02*
X3177872Y-3064531D01*
X3177872Y-3064531D02*
X3168349Y-3035960D01*
X3168349Y-3035960D02*
X3158825Y-2988341D01*
X3158825Y-2988341D02*
X3158825Y-2950246D01*
X3158825Y-2950246D02*
X3168349Y-2902627D01*
X3168349Y-2902627D02*
X3177872Y-2874055D01*
X3177872Y-2874055D02*
X3187396Y-2855008D01*
X3187396Y-2855008D02*
X3206444Y-2826436D01*
X3206444Y-2826436D02*
X3215968Y-2816912D01*
X3292158Y-2912150D02*
X3292158Y-3045484D01*
X3292158Y-2931198D02*
X3301682Y-2921674D01*
X3301682Y-2921674D02*
X3320730Y-2912150D01*
X3320730Y-2912150D02*
X3349301Y-2912150D01*
X3349301Y-2912150D02*
X3368349Y-2921674D01*
X3368349Y-2921674D02*
X3377872Y-2940722D01*
X3377872Y-2940722D02*
X3377872Y-3045484D01*
X3501682Y-3045484D02*
X3482634Y-3035960D01*
X3482634Y-3035960D02*
X3473111Y-3026436D01*
X3473111Y-3026436D02*
X3463587Y-3007388D01*
X3463587Y-3007388D02*
X3463587Y-2950246D01*
X3463587Y-2950246D02*
X3473111Y-2931198D01*
X3473111Y-2931198D02*
X3482634Y-2921674D01*
X3482634Y-2921674D02*
X3501682Y-2912150D01*
X3501682Y-2912150D02*
X3530253Y-2912150D01*
X3530253Y-2912150D02*
X3549301Y-2921674D01*
X3549301Y-2921674D02*
X3558825Y-2931198D01*
X3558825Y-2931198D02*
X3568349Y-2950246D01*
X3568349Y-2950246D02*
X3568349Y-3007388D01*
X3568349Y-3007388D02*
X3558825Y-3026436D01*
X3558825Y-3026436D02*
X3549301Y-3035960D01*
X3549301Y-3035960D02*
X3530253Y-3045484D01*
X3530253Y-3045484D02*
X3501682Y-3045484D01*
X3625492Y-2912150D02*
X3701682Y-2912150D01*
X3654063Y-2845484D02*
X3654063Y-3016912D01*
X3654063Y-3016912D02*
X3663587Y-3035960D01*
X3663587Y-3035960D02*
X3682634Y-3045484D01*
X3682634Y-3045484D02*
X3701682Y-3045484D01*
X3920730Y-2912150D02*
X3920730Y-3112150D01*
X3920730Y-2921674D02*
X3939777Y-2912150D01*
X3939777Y-2912150D02*
X3977873Y-2912150D01*
X3977873Y-2912150D02*
X3996920Y-2921674D01*
X3996920Y-2921674D02*
X4006444Y-2931198D01*
X4006444Y-2931198D02*
X4015968Y-2950246D01*
X4015968Y-2950246D02*
X4015968Y-3007388D01*
X4015968Y-3007388D02*
X4006444Y-3026436D01*
X4006444Y-3026436D02*
X3996920Y-3035960D01*
X3996920Y-3035960D02*
X3977873Y-3045484D01*
X3977873Y-3045484D02*
X3939777Y-3045484D01*
X3939777Y-3045484D02*
X3920730Y-3035960D01*
X4130253Y-3045484D02*
X4111206Y-3035960D01*
X4111206Y-3035960D02*
X4101682Y-3016912D01*
X4101682Y-3016912D02*
X4101682Y-2845484D01*
X4292158Y-3045484D02*
X4292158Y-2940722D01*
X4292158Y-2940722D02*
X4282635Y-2921674D01*
X4282635Y-2921674D02*
X4263587Y-2912150D01*
X4263587Y-2912150D02*
X4225492Y-2912150D01*
X4225492Y-2912150D02*
X4206444Y-2921674D01*
X4292158Y-3035960D02*
X4273111Y-3045484D01*
X4273111Y-3045484D02*
X4225492Y-3045484D01*
X4225492Y-3045484D02*
X4206444Y-3035960D01*
X4206444Y-3035960D02*
X4196920Y-3016912D01*
X4196920Y-3016912D02*
X4196920Y-2997865D01*
X4196920Y-2997865D02*
X4206444Y-2978817D01*
X4206444Y-2978817D02*
X4225492Y-2969293D01*
X4225492Y-2969293D02*
X4273111Y-2969293D01*
X4273111Y-2969293D02*
X4292158Y-2959769D01*
X4358825Y-2912150D02*
X4435015Y-2912150D01*
X4387396Y-2845484D02*
X4387396Y-3016912D01*
X4387396Y-3016912D02*
X4396920Y-3035960D01*
X4396920Y-3035960D02*
X4415968Y-3045484D01*
X4415968Y-3045484D02*
X4435015Y-3045484D01*
X4577873Y-3035960D02*
X4558825Y-3045484D01*
X4558825Y-3045484D02*
X4520730Y-3045484D01*
X4520730Y-3045484D02*
X4501682Y-3035960D01*
X4501682Y-3035960D02*
X4492158Y-3016912D01*
X4492158Y-3016912D02*
X4492158Y-2940722D01*
X4492158Y-2940722D02*
X4501682Y-2921674D01*
X4501682Y-2921674D02*
X4520730Y-2912150D01*
X4520730Y-2912150D02*
X4558825Y-2912150D01*
X4558825Y-2912150D02*
X4577873Y-2921674D01*
X4577873Y-2921674D02*
X4587396Y-2940722D01*
X4587396Y-2940722D02*
X4587396Y-2959769D01*
X4587396Y-2959769D02*
X4492158Y-2978817D01*
X4758825Y-3045484D02*
X4758825Y-2845484D01*
X4758825Y-3035960D02*
X4739777Y-3045484D01*
X4739777Y-3045484D02*
X4701682Y-3045484D01*
X4701682Y-3045484D02*
X4682635Y-3035960D01*
X4682635Y-3035960D02*
X4673111Y-3026436D01*
X4673111Y-3026436D02*
X4663587Y-3007388D01*
X4663587Y-3007388D02*
X4663587Y-2950246D01*
X4663587Y-2950246D02*
X4673111Y-2931198D01*
X4673111Y-2931198D02*
X4682635Y-2921674D01*
X4682635Y-2921674D02*
X4701682Y-2912150D01*
X4701682Y-2912150D02*
X4739777Y-2912150D01*
X4739777Y-2912150D02*
X4758825Y-2921674D01*
X4835016Y-3121674D02*
X4844539Y-3112150D01*
X4844539Y-3112150D02*
X4863587Y-3083579D01*
X4863587Y-3083579D02*
X4873111Y-3064531D01*
X4873111Y-3064531D02*
X4882635Y-3035960D01*
X4882635Y-3035960D02*
X4892158Y-2988341D01*
X4892158Y-2988341D02*
X4892158Y-2950246D01*
X4892158Y-2950246D02*
X4882635Y-2902627D01*
X4882635Y-2902627D02*
X4873111Y-2874055D01*
X4873111Y-2874055D02*
X4863587Y-2855008D01*
X4863587Y-2855008D02*
X4844539Y-2826436D01*
X4844539Y-2826436D02*
X4835016Y-2816912D01*
X-2021000Y-3374000D02*
X-1921000Y-3274000D01*
X-2021000Y-3174000D01*
X-2121000Y-3274000D01*
X-2021000Y-3374000D01*
X-1564985Y-3165484D02*
X-1660223Y-3165484D01*
X-1660223Y-3165484D02*
X-1669747Y-3260722D01*
X-1669747Y-3260722D02*
X-1660223Y-3251198D01*
X-1660223Y-3251198D02*
X-1641175Y-3241674D01*
X-1641175Y-3241674D02*
X-1593556Y-3241674D01*
X-1593556Y-3241674D02*
X-1574509Y-3251198D01*
X-1574509Y-3251198D02*
X-1564985Y-3260722D01*
X-1564985Y-3260722D02*
X-1555461Y-3279769D01*
X-1555461Y-3279769D02*
X-1555461Y-3327388D01*
X-1555461Y-3327388D02*
X-1564985Y-3346436D01*
X-1564985Y-3346436D02*
X-1574509Y-3355960D01*
X-1574509Y-3355960D02*
X-1593556Y-3365484D01*
X-1593556Y-3365484D02*
X-1641175Y-3365484D01*
X-1641175Y-3365484D02*
X-1660223Y-3355960D01*
X-1660223Y-3355960D02*
X-1669747Y-3346436D01*
X-1469747Y-3346436D02*
X-1460223Y-3355960D01*
X-1460223Y-3355960D02*
X-1469747Y-3365484D01*
X-1469747Y-3365484D02*
X-1479271Y-3355960D01*
X-1479271Y-3355960D02*
X-1469747Y-3346436D01*
X-1469747Y-3346436D02*
X-1469747Y-3365484D01*
X-1336414Y-3165484D02*
X-1317366Y-3165484D01*
X-1317366Y-3165484D02*
X-1298318Y-3175008D01*
X-1298318Y-3175008D02*
X-1288795Y-3184531D01*
X-1288795Y-3184531D02*
X-1279271Y-3203579D01*
X-1279271Y-3203579D02*
X-1269747Y-3241674D01*
X-1269747Y-3241674D02*
X-1269747Y-3289293D01*
X-1269747Y-3289293D02*
X-1279271Y-3327388D01*
X-1279271Y-3327388D02*
X-1288795Y-3346436D01*
X-1288795Y-3346436D02*
X-1298318Y-3355960D01*
X-1298318Y-3355960D02*
X-1317366Y-3365484D01*
X-1317366Y-3365484D02*
X-1336414Y-3365484D01*
X-1336414Y-3365484D02*
X-1355461Y-3355960D01*
X-1355461Y-3355960D02*
X-1364985Y-3346436D01*
X-1364985Y-3346436D02*
X-1374509Y-3327388D01*
X-1374509Y-3327388D02*
X-1384033Y-3289293D01*
X-1384033Y-3289293D02*
X-1384033Y-3241674D01*
X-1384033Y-3241674D02*
X-1374509Y-3203579D01*
X-1374509Y-3203579D02*
X-1364985Y-3184531D01*
X-1364985Y-3184531D02*
X-1355461Y-3175008D01*
X-1355461Y-3175008D02*
X-1336414Y-3165484D01*
X-1145937Y-3165484D02*
X-1126890Y-3165484D01*
X-1126890Y-3165484D02*
X-1107842Y-3175008D01*
X-1107842Y-3175008D02*
X-1098318Y-3184531D01*
X-1098318Y-3184531D02*
X-1088795Y-3203579D01*
X-1088795Y-3203579D02*
X-1079271Y-3241674D01*
X-1079271Y-3241674D02*
X-1079271Y-3289293D01*
X-1079271Y-3289293D02*
X-1088795Y-3327388D01*
X-1088795Y-3327388D02*
X-1098318Y-3346436D01*
X-1098318Y-3346436D02*
X-1107842Y-3355960D01*
X-1107842Y-3355960D02*
X-1126890Y-3365484D01*
X-1126890Y-3365484D02*
X-1145937Y-3365484D01*
X-1145937Y-3365484D02*
X-1164985Y-3355960D01*
X-1164985Y-3355960D02*
X-1174509Y-3346436D01*
X-1174509Y-3346436D02*
X-1184033Y-3327388D01*
X-1184033Y-3327388D02*
X-1193556Y-3289293D01*
X-1193556Y-3289293D02*
X-1193556Y-3241674D01*
X-1193556Y-3241674D02*
X-1184033Y-3203579D01*
X-1184033Y-3203579D02*
X-1174509Y-3184531D01*
X-1174509Y-3184531D02*
X-1164985Y-3175008D01*
X-1164985Y-3175008D02*
X-1145937Y-3165484D01*
X-955461Y-3165484D02*
X-936413Y-3165484D01*
X-936413Y-3165484D02*
X-917366Y-3175008D01*
X-917366Y-3175008D02*
X-907842Y-3184531D01*
X-907842Y-3184531D02*
X-898318Y-3203579D01*
X-898318Y-3203579D02*
X-888794Y-3241674D01*
X-888794Y-3241674D02*
X-888794Y-3289293D01*
X-888794Y-3289293D02*
X-898318Y-3327388D01*
X-898318Y-3327388D02*
X-907842Y-3346436D01*
X-907842Y-3346436D02*
X-917366Y-3355960D01*
X-917366Y-3355960D02*
X-936413Y-3365484D01*
X-936413Y-3365484D02*
X-955461Y-3365484D01*
X-955461Y-3365484D02*
X-974509Y-3355960D01*
X-974509Y-3355960D02*
X-984033Y-3346436D01*
X-984033Y-3346436D02*
X-993556Y-3327388D01*
X-993556Y-3327388D02*
X-1003080Y-3289293D01*
X-1003080Y-3289293D02*
X-1003080Y-3241674D01*
X-1003080Y-3241674D02*
X-993556Y-3203579D01*
X-993556Y-3203579D02*
X-984033Y-3184531D01*
X-984033Y-3184531D02*
X-974509Y-3175008D01*
X-974509Y-3175008D02*
X-955461Y-3165484D01*
X-803080Y-3365484D02*
X-803080Y-3232150D01*
X-803080Y-3251198D02*
X-793556Y-3241674D01*
X-793556Y-3241674D02*
X-774509Y-3232150D01*
X-774509Y-3232150D02*
X-745937Y-3232150D01*
X-745937Y-3232150D02*
X-726890Y-3241674D01*
X-726890Y-3241674D02*
X-717366Y-3260722D01*
X-717366Y-3260722D02*
X-717366Y-3365484D01*
X-717366Y-3260722D02*
X-707842Y-3241674D01*
X-707842Y-3241674D02*
X-688795Y-3232150D01*
X-688795Y-3232150D02*
X-660223Y-3232150D01*
X-660223Y-3232150D02*
X-641175Y-3241674D01*
X-641175Y-3241674D02*
X-631652Y-3260722D01*
X-631652Y-3260722D02*
X-631652Y-3365484D01*
X-536414Y-3365484D02*
X-536414Y-3232150D01*
X-536414Y-3251198D02*
X-526890Y-3241674D01*
X-526890Y-3241674D02*
X-507842Y-3232150D01*
X-507842Y-3232150D02*
X-479271Y-3232150D01*
X-479271Y-3232150D02*
X-460223Y-3241674D01*
X-460223Y-3241674D02*
X-450699Y-3260722D01*
X-450699Y-3260722D02*
X-450699Y-3365484D01*
X-450699Y-3260722D02*
X-441175Y-3241674D01*
X-441175Y-3241674D02*
X-422128Y-3232150D01*
X-422128Y-3232150D02*
X-393556Y-3232150D01*
X-393556Y-3232150D02*
X-374509Y-3241674D01*
X-374509Y-3241674D02*
X-364985Y-3260722D01*
X-364985Y-3260722D02*
X-364985Y-3365484D01*
X25491Y-3155960D02*
X-145937Y-3413103D01*
X282634Y-3165484D02*
X301682Y-3165484D01*
X301682Y-3165484D02*
X320729Y-3175008D01*
X320729Y-3175008D02*
X330253Y-3184531D01*
X330253Y-3184531D02*
X339777Y-3203579D01*
X339777Y-3203579D02*
X349301Y-3241674D01*
X349301Y-3241674D02*
X349301Y-3289293D01*
X349301Y-3289293D02*
X339777Y-3327388D01*
X339777Y-3327388D02*
X330253Y-3346436D01*
X330253Y-3346436D02*
X320729Y-3355960D01*
X320729Y-3355960D02*
X301682Y-3365484D01*
X301682Y-3365484D02*
X282634Y-3365484D01*
X282634Y-3365484D02*
X263587Y-3355960D01*
X263587Y-3355960D02*
X254063Y-3346436D01*
X254063Y-3346436D02*
X244539Y-3327388D01*
X244539Y-3327388D02*
X235015Y-3289293D01*
X235015Y-3289293D02*
X235015Y-3241674D01*
X235015Y-3241674D02*
X244539Y-3203579D01*
X244539Y-3203579D02*
X254063Y-3184531D01*
X254063Y-3184531D02*
X263587Y-3175008D01*
X263587Y-3175008D02*
X282634Y-3165484D01*
X435015Y-3346436D02*
X444539Y-3355960D01*
X444539Y-3355960D02*
X435015Y-3365484D01*
X435015Y-3365484D02*
X425491Y-3355960D01*
X425491Y-3355960D02*
X435015Y-3346436D01*
X435015Y-3346436D02*
X435015Y-3365484D01*
X635015Y-3365484D02*
X520729Y-3365484D01*
X577872Y-3365484D02*
X577872Y-3165484D01*
X577872Y-3165484D02*
X558825Y-3194055D01*
X558825Y-3194055D02*
X539777Y-3213103D01*
X539777Y-3213103D02*
X520729Y-3222627D01*
X730253Y-3365484D02*
X768348Y-3365484D01*
X768348Y-3365484D02*
X787396Y-3355960D01*
X787396Y-3355960D02*
X796920Y-3346436D01*
X796920Y-3346436D02*
X815967Y-3317865D01*
X815967Y-3317865D02*
X825491Y-3279769D01*
X825491Y-3279769D02*
X825491Y-3203579D01*
X825491Y-3203579D02*
X815967Y-3184531D01*
X815967Y-3184531D02*
X806444Y-3175008D01*
X806444Y-3175008D02*
X787396Y-3165484D01*
X787396Y-3165484D02*
X749301Y-3165484D01*
X749301Y-3165484D02*
X730253Y-3175008D01*
X730253Y-3175008D02*
X720729Y-3184531D01*
X720729Y-3184531D02*
X711206Y-3203579D01*
X711206Y-3203579D02*
X711206Y-3251198D01*
X711206Y-3251198D02*
X720729Y-3270246D01*
X720729Y-3270246D02*
X730253Y-3279769D01*
X730253Y-3279769D02*
X749301Y-3289293D01*
X749301Y-3289293D02*
X787396Y-3289293D01*
X787396Y-3289293D02*
X806444Y-3279769D01*
X806444Y-3279769D02*
X815967Y-3270246D01*
X815967Y-3270246D02*
X825491Y-3251198D01*
X996920Y-3165484D02*
X958825Y-3165484D01*
X958825Y-3165484D02*
X939777Y-3175008D01*
X939777Y-3175008D02*
X930253Y-3184531D01*
X930253Y-3184531D02*
X911206Y-3213103D01*
X911206Y-3213103D02*
X901682Y-3251198D01*
X901682Y-3251198D02*
X901682Y-3327388D01*
X901682Y-3327388D02*
X911206Y-3346436D01*
X911206Y-3346436D02*
X920729Y-3355960D01*
X920729Y-3355960D02*
X939777Y-3365484D01*
X939777Y-3365484D02*
X977872Y-3365484D01*
X977872Y-3365484D02*
X996920Y-3355960D01*
X996920Y-3355960D02*
X1006444Y-3346436D01*
X1006444Y-3346436D02*
X1015967Y-3327388D01*
X1015967Y-3327388D02*
X1015967Y-3279769D01*
X1015967Y-3279769D02*
X1006444Y-3260722D01*
X1006444Y-3260722D02*
X996920Y-3251198D01*
X996920Y-3251198D02*
X977872Y-3241674D01*
X977872Y-3241674D02*
X939777Y-3241674D01*
X939777Y-3241674D02*
X920729Y-3251198D01*
X920729Y-3251198D02*
X911206Y-3260722D01*
X911206Y-3260722D02*
X901682Y-3279769D01*
X1111206Y-3365484D02*
X1149301Y-3365484D01*
X1149301Y-3365484D02*
X1168349Y-3355960D01*
X1168349Y-3355960D02*
X1177872Y-3346436D01*
X1177872Y-3346436D02*
X1196920Y-3317865D01*
X1196920Y-3317865D02*
X1206444Y-3279769D01*
X1206444Y-3279769D02*
X1206444Y-3203579D01*
X1206444Y-3203579D02*
X1196920Y-3184531D01*
X1196920Y-3184531D02*
X1187396Y-3175008D01*
X1187396Y-3175008D02*
X1168349Y-3165484D01*
X1168349Y-3165484D02*
X1130253Y-3165484D01*
X1130253Y-3165484D02*
X1111206Y-3175008D01*
X1111206Y-3175008D02*
X1101682Y-3184531D01*
X1101682Y-3184531D02*
X1092158Y-3203579D01*
X1092158Y-3203579D02*
X1092158Y-3251198D01*
X1092158Y-3251198D02*
X1101682Y-3270246D01*
X1101682Y-3270246D02*
X1111206Y-3279769D01*
X1111206Y-3279769D02*
X1130253Y-3289293D01*
X1130253Y-3289293D02*
X1168349Y-3289293D01*
X1168349Y-3289293D02*
X1187396Y-3279769D01*
X1187396Y-3279769D02*
X1196920Y-3270246D01*
X1196920Y-3270246D02*
X1206444Y-3251198D01*
X1282634Y-3165484D02*
X1282634Y-3203579D01*
X1358825Y-3165484D02*
X1358825Y-3203579D01*
X1654063Y-3441674D02*
X1644539Y-3432150D01*
X1644539Y-3432150D02*
X1625491Y-3403579D01*
X1625491Y-3403579D02*
X1615968Y-3384531D01*
X1615968Y-3384531D02*
X1606444Y-3355960D01*
X1606444Y-3355960D02*
X1596920Y-3308341D01*
X1596920Y-3308341D02*
X1596920Y-3270246D01*
X1596920Y-3270246D02*
X1606444Y-3222627D01*
X1606444Y-3222627D02*
X1615968Y-3194055D01*
X1615968Y-3194055D02*
X1625491Y-3175008D01*
X1625491Y-3175008D02*
X1644539Y-3146436D01*
X1644539Y-3146436D02*
X1654063Y-3136912D01*
X1815968Y-3232150D02*
X1815968Y-3365484D01*
X1768348Y-3155960D02*
X1720729Y-3298817D01*
X1720729Y-3298817D02*
X1844539Y-3298817D01*
X2073110Y-3365484D02*
X2073110Y-3165484D01*
X2158825Y-3365484D02*
X2158825Y-3260722D01*
X2158825Y-3260722D02*
X2149301Y-3241674D01*
X2149301Y-3241674D02*
X2130253Y-3232150D01*
X2130253Y-3232150D02*
X2101682Y-3232150D01*
X2101682Y-3232150D02*
X2082634Y-3241674D01*
X2082634Y-3241674D02*
X2073110Y-3251198D01*
X2282634Y-3365484D02*
X2263587Y-3355960D01*
X2263587Y-3355960D02*
X2254063Y-3346436D01*
X2254063Y-3346436D02*
X2244539Y-3327388D01*
X2244539Y-3327388D02*
X2244539Y-3270246D01*
X2244539Y-3270246D02*
X2254063Y-3251198D01*
X2254063Y-3251198D02*
X2263587Y-3241674D01*
X2263587Y-3241674D02*
X2282634Y-3232150D01*
X2282634Y-3232150D02*
X2311206Y-3232150D01*
X2311206Y-3232150D02*
X2330253Y-3241674D01*
X2330253Y-3241674D02*
X2339777Y-3251198D01*
X2339777Y-3251198D02*
X2349301Y-3270246D01*
X2349301Y-3270246D02*
X2349301Y-3327388D01*
X2349301Y-3327388D02*
X2339777Y-3346436D01*
X2339777Y-3346436D02*
X2330253Y-3355960D01*
X2330253Y-3355960D02*
X2311206Y-3365484D01*
X2311206Y-3365484D02*
X2282634Y-3365484D01*
X2463587Y-3365484D02*
X2444539Y-3355960D01*
X2444539Y-3355960D02*
X2435015Y-3336912D01*
X2435015Y-3336912D02*
X2435015Y-3165484D01*
X2615968Y-3355960D02*
X2596920Y-3365484D01*
X2596920Y-3365484D02*
X2558825Y-3365484D01*
X2558825Y-3365484D02*
X2539777Y-3355960D01*
X2539777Y-3355960D02*
X2530253Y-3336912D01*
X2530253Y-3336912D02*
X2530253Y-3260722D01*
X2530253Y-3260722D02*
X2539777Y-3241674D01*
X2539777Y-3241674D02*
X2558825Y-3232150D01*
X2558825Y-3232150D02*
X2596920Y-3232150D01*
X2596920Y-3232150D02*
X2615968Y-3241674D01*
X2615968Y-3241674D02*
X2625492Y-3260722D01*
X2625492Y-3260722D02*
X2625492Y-3279769D01*
X2625492Y-3279769D02*
X2530253Y-3298817D01*
X2701682Y-3355960D02*
X2720730Y-3365484D01*
X2720730Y-3365484D02*
X2758825Y-3365484D01*
X2758825Y-3365484D02*
X2777873Y-3355960D01*
X2777873Y-3355960D02*
X2787396Y-3336912D01*
X2787396Y-3336912D02*
X2787396Y-3327388D01*
X2787396Y-3327388D02*
X2777873Y-3308341D01*
X2777873Y-3308341D02*
X2758825Y-3298817D01*
X2758825Y-3298817D02*
X2730253Y-3298817D01*
X2730253Y-3298817D02*
X2711206Y-3289293D01*
X2711206Y-3289293D02*
X2701682Y-3270246D01*
X2701682Y-3270246D02*
X2701682Y-3260722D01*
X2701682Y-3260722D02*
X2711206Y-3241674D01*
X2711206Y-3241674D02*
X2730253Y-3232150D01*
X2730253Y-3232150D02*
X2758825Y-3232150D01*
X2758825Y-3232150D02*
X2777873Y-3241674D01*
X2854063Y-3441674D02*
X2863587Y-3432150D01*
X2863587Y-3432150D02*
X2882634Y-3403579D01*
X2882634Y-3403579D02*
X2892158Y-3384531D01*
X2892158Y-3384531D02*
X2901682Y-3355960D01*
X2901682Y-3355960D02*
X2911206Y-3308341D01*
X2911206Y-3308341D02*
X2911206Y-3270246D01*
X2911206Y-3270246D02*
X2901682Y-3222627D01*
X2901682Y-3222627D02*
X2892158Y-3194055D01*
X2892158Y-3194055D02*
X2882634Y-3175008D01*
X2882634Y-3175008D02*
X2863587Y-3146436D01*
X2863587Y-3146436D02*
X2854063Y-3136912D01*
X3215968Y-3441674D02*
X3206444Y-3432150D01*
X3206444Y-3432150D02*
X3187396Y-3403579D01*
X3187396Y-3403579D02*
X3177872Y-3384531D01*
X3177872Y-3384531D02*
X3168349Y-3355960D01*
X3168349Y-3355960D02*
X3158825Y-3308341D01*
X3158825Y-3308341D02*
X3158825Y-3270246D01*
X3158825Y-3270246D02*
X3168349Y-3222627D01*
X3168349Y-3222627D02*
X3177872Y-3194055D01*
X3177872Y-3194055D02*
X3187396Y-3175008D01*
X3187396Y-3175008D02*
X3206444Y-3146436D01*
X3206444Y-3146436D02*
X3215968Y-3136912D01*
X3292158Y-3232150D02*
X3292158Y-3365484D01*
X3292158Y-3251198D02*
X3301682Y-3241674D01*
X3301682Y-3241674D02*
X3320730Y-3232150D01*
X3320730Y-3232150D02*
X3349301Y-3232150D01*
X3349301Y-3232150D02*
X3368349Y-3241674D01*
X3368349Y-3241674D02*
X3377872Y-3260722D01*
X3377872Y-3260722D02*
X3377872Y-3365484D01*
X3501682Y-3365484D02*
X3482634Y-3355960D01*
X3482634Y-3355960D02*
X3473111Y-3346436D01*
X3473111Y-3346436D02*
X3463587Y-3327388D01*
X3463587Y-3327388D02*
X3463587Y-3270246D01*
X3463587Y-3270246D02*
X3473111Y-3251198D01*
X3473111Y-3251198D02*
X3482634Y-3241674D01*
X3482634Y-3241674D02*
X3501682Y-3232150D01*
X3501682Y-3232150D02*
X3530253Y-3232150D01*
X3530253Y-3232150D02*
X3549301Y-3241674D01*
X3549301Y-3241674D02*
X3558825Y-3251198D01*
X3558825Y-3251198D02*
X3568349Y-3270246D01*
X3568349Y-3270246D02*
X3568349Y-3327388D01*
X3568349Y-3327388D02*
X3558825Y-3346436D01*
X3558825Y-3346436D02*
X3549301Y-3355960D01*
X3549301Y-3355960D02*
X3530253Y-3365484D01*
X3530253Y-3365484D02*
X3501682Y-3365484D01*
X3625492Y-3232150D02*
X3701682Y-3232150D01*
X3654063Y-3165484D02*
X3654063Y-3336912D01*
X3654063Y-3336912D02*
X3663587Y-3355960D01*
X3663587Y-3355960D02*
X3682634Y-3365484D01*
X3682634Y-3365484D02*
X3701682Y-3365484D01*
X3920730Y-3232150D02*
X3920730Y-3432150D01*
X3920730Y-3241674D02*
X3939777Y-3232150D01*
X3939777Y-3232150D02*
X3977873Y-3232150D01*
X3977873Y-3232150D02*
X3996920Y-3241674D01*
X3996920Y-3241674D02*
X4006444Y-3251198D01*
X4006444Y-3251198D02*
X4015968Y-3270246D01*
X4015968Y-3270246D02*
X4015968Y-3327388D01*
X4015968Y-3327388D02*
X4006444Y-3346436D01*
X4006444Y-3346436D02*
X3996920Y-3355960D01*
X3996920Y-3355960D02*
X3977873Y-3365484D01*
X3977873Y-3365484D02*
X3939777Y-3365484D01*
X3939777Y-3365484D02*
X3920730Y-3355960D01*
X4130253Y-3365484D02*
X4111206Y-3355960D01*
X4111206Y-3355960D02*
X4101682Y-3336912D01*
X4101682Y-3336912D02*
X4101682Y-3165484D01*
X4292158Y-3365484D02*
X4292158Y-3260722D01*
X4292158Y-3260722D02*
X4282635Y-3241674D01*
X4282635Y-3241674D02*
X4263587Y-3232150D01*
X4263587Y-3232150D02*
X4225492Y-3232150D01*
X4225492Y-3232150D02*
X4206444Y-3241674D01*
X4292158Y-3355960D02*
X4273111Y-3365484D01*
X4273111Y-3365484D02*
X4225492Y-3365484D01*
X4225492Y-3365484D02*
X4206444Y-3355960D01*
X4206444Y-3355960D02*
X4196920Y-3336912D01*
X4196920Y-3336912D02*
X4196920Y-3317865D01*
X4196920Y-3317865D02*
X4206444Y-3298817D01*
X4206444Y-3298817D02*
X4225492Y-3289293D01*
X4225492Y-3289293D02*
X4273111Y-3289293D01*
X4273111Y-3289293D02*
X4292158Y-3279769D01*
X4358825Y-3232150D02*
X4435015Y-3232150D01*
X4387396Y-3165484D02*
X4387396Y-3336912D01*
X4387396Y-3336912D02*
X4396920Y-3355960D01*
X4396920Y-3355960D02*
X4415968Y-3365484D01*
X4415968Y-3365484D02*
X4435015Y-3365484D01*
X4577873Y-3355960D02*
X4558825Y-3365484D01*
X4558825Y-3365484D02*
X4520730Y-3365484D01*
X4520730Y-3365484D02*
X4501682Y-3355960D01*
X4501682Y-3355960D02*
X4492158Y-3336912D01*
X4492158Y-3336912D02*
X4492158Y-3260722D01*
X4492158Y-3260722D02*
X4501682Y-3241674D01*
X4501682Y-3241674D02*
X4520730Y-3232150D01*
X4520730Y-3232150D02*
X4558825Y-3232150D01*
X4558825Y-3232150D02*
X4577873Y-3241674D01*
X4577873Y-3241674D02*
X4587396Y-3260722D01*
X4587396Y-3260722D02*
X4587396Y-3279769D01*
X4587396Y-3279769D02*
X4492158Y-3298817D01*
X4758825Y-3365484D02*
X4758825Y-3165484D01*
X4758825Y-3355960D02*
X4739777Y-3365484D01*
X4739777Y-3365484D02*
X4701682Y-3365484D01*
X4701682Y-3365484D02*
X4682635Y-3355960D01*
X4682635Y-3355960D02*
X4673111Y-3346436D01*
X4673111Y-3346436D02*
X4663587Y-3327388D01*
X4663587Y-3327388D02*
X4663587Y-3270246D01*
X4663587Y-3270246D02*
X4673111Y-3251198D01*
X4673111Y-3251198D02*
X4682635Y-3241674D01*
X4682635Y-3241674D02*
X4701682Y-3232150D01*
X4701682Y-3232150D02*
X4739777Y-3232150D01*
X4739777Y-3232150D02*
X4758825Y-3241674D01*
X4835016Y-3441674D02*
X4844539Y-3432150D01*
X4844539Y-3432150D02*
X4863587Y-3403579D01*
X4863587Y-3403579D02*
X4873111Y-3384531D01*
X4873111Y-3384531D02*
X4882635Y-3355960D01*
X4882635Y-3355960D02*
X4892158Y-3308341D01*
X4892158Y-3308341D02*
X4892158Y-3270246D01*
X4892158Y-3270246D02*
X4882635Y-3222627D01*
X4882635Y-3222627D02*
X4873111Y-3194055D01*
X4873111Y-3194055D02*
X4863587Y-3175008D01*
X4863587Y-3175008D02*
X4844539Y-3146436D01*
X4844539Y-3146436D02*
X4835016Y-3136912D01*
M02*
