G04 #@! TF.GenerationSoftware,KiCad,Pcbnew,7.0.8*
G04 #@! TF.CreationDate,2023-10-29T22:50:43+01:00*
G04 #@! TF.ProjectId,ITX-Llama,4954582d-4c6c-4616-9d61-2e6b69636164,E*
G04 #@! TF.SameCoordinates,Original*
G04 #@! TF.FileFunction,Profile,NP*
%FSLAX46Y46*%
G04 Gerber Fmt 4.6, Leading zero omitted, Abs format (unit mm)*
G04 Created by KiCad (PCBNEW 7.0.8) date 2023-10-29 22:50:43*
%MOMM*%
%LPD*%
G01*
G04 APERTURE LIST*
G04 #@! TA.AperFunction,Profile*
%ADD10C,0.100000*%
G04 #@! TD*
G04 APERTURE END LIST*
D10*
X-19160000Y172830000D02*
X168840000Y172830000D01*
X-19160000Y-15170000D02*
X-19160000Y172830000D01*
X-12160000Y164830000D02*
X-12160000Y110330000D01*
X-12160000Y103330000D02*
X-12160000Y54330000D01*
X-12160000Y47330000D02*
X-12160000Y-7170000D01*
X-10160000Y110330000D02*
X-10160000Y162300000D01*
X-10160000Y54330000D02*
X-10160000Y103330000D01*
X-10160000Y-1090000D02*
X-10160000Y47330000D01*
X-5080000Y-6170000D02*
X43340000Y-6170000D01*
X43340000Y165830000D02*
X-11160000Y165830000D01*
X43340000Y163830000D02*
X-8630000Y163830000D01*
X43340000Y-8170000D02*
X-11160000Y-8170000D01*
X50340000Y165830000D02*
X99340000Y165830000D01*
X50340000Y163830000D02*
X99340000Y163830000D01*
X50340000Y-6170000D02*
X99340000Y-6170000D01*
X50340000Y-8170000D02*
X99340000Y-8170000D01*
X106340000Y163830000D02*
X154760000Y163830000D01*
X106340000Y-6170000D02*
X154760000Y-6170000D01*
X159840000Y110330000D02*
X159840000Y158750000D01*
X159840000Y103330000D02*
X159840000Y54330000D01*
X159840000Y47330000D02*
X159840000Y-1090000D01*
X160840000Y165830000D02*
X106340000Y165830000D01*
X160840000Y-8170000D02*
X106340000Y-8170000D01*
X161840000Y110330000D02*
X161840000Y164830000D01*
X161840000Y103330000D02*
X161840000Y54330000D01*
X161840000Y-7170000D02*
X161840000Y47330000D01*
X168840000Y172830000D02*
X168840000Y-15170000D01*
X168840000Y-15170000D02*
X-19160000Y-15170000D01*
X-11160000Y165830000D02*
G75*
G03*
X-12160000Y164830000I-1J-999999D01*
G01*
X-10160000Y103330000D02*
G75*
G03*
X-12160000Y103330000I-1000000J0D01*
G01*
X-10160000Y47330000D02*
G75*
G03*
X-12160000Y47330000I-1000000J0D01*
G01*
X-12160000Y-7170000D02*
G75*
G03*
X-11160000Y-8170000I999999J-1D01*
G01*
X-8630000Y163830000D02*
G75*
G03*
X-10160000Y162300000I0J-1530000D01*
G01*
X-12160000Y110330000D02*
G75*
G03*
X-10160000Y110330000I1000000J0D01*
G01*
X-12160000Y54330000D02*
G75*
G03*
X-10160000Y54330000I1000000J0D01*
G01*
X-10160000Y-1090000D02*
G75*
G03*
X-5080000Y-6170000I5080000J0D01*
G01*
X43340000Y163830000D02*
G75*
G03*
X43340000Y165830000I0J1000000D01*
G01*
X43340000Y-8170000D02*
G75*
G03*
X43340000Y-6170000I0J1000000D01*
G01*
X50340000Y165830000D02*
G75*
G03*
X50340000Y163830000I0J-1000000D01*
G01*
X50340000Y-6170000D02*
G75*
G03*
X50340000Y-8170000I0J-1000000D01*
G01*
X99340000Y163830000D02*
G75*
G03*
X99340000Y165830000I0J1000000D01*
G01*
X99340000Y-8170000D02*
G75*
G03*
X99340000Y-6170000I0J1000000D01*
G01*
X106340000Y165830000D02*
G75*
G03*
X106340000Y163830000I0J-1000000D01*
G01*
X106340000Y-6170000D02*
G75*
G03*
X106340000Y-8170000I0J-1000000D01*
G01*
X159840000Y158750000D02*
G75*
G03*
X154760000Y163830000I-5080000J0D01*
G01*
X161840000Y103330000D02*
G75*
G03*
X159840000Y103330000I-1000000J0D01*
G01*
X161840000Y47330000D02*
G75*
G03*
X159840000Y47330000I-1000000J0D01*
G01*
X154760000Y-6170000D02*
G75*
G03*
X159840000Y-1090000I0J5080000D01*
G01*
X161840000Y164830000D02*
G75*
G03*
X160840000Y165830000I-1000000J0D01*
G01*
X159840000Y110330000D02*
G75*
G03*
X161840000Y110330000I1000000J0D01*
G01*
X159840000Y54330000D02*
G75*
G03*
X161840000Y54330000I1000000J0D01*
G01*
X160840000Y-8170000D02*
G75*
G03*
X161840000Y-7170000I0J1000000D01*
G01*
M02*
