G04 #@! TF.GenerationSoftware,KiCad,Pcbnew,8.0.6*
G04 #@! TF.CreationDate,2025-01-15T23:32:19+01:00*
G04 #@! TF.ProjectId,ITX-Llama,4954582d-4c6c-4616-9d61-2e6b69636164,F*
G04 #@! TF.SameCoordinates,Original*
G04 #@! TF.FileFunction,Paste,Top*
G04 #@! TF.FilePolarity,Positive*
%FSLAX46Y46*%
G04 Gerber Fmt 4.6, Leading zero omitted, Abs format (unit mm)*
G04 Created by KiCad (PCBNEW 8.0.6) date 2025-01-15 23:32:19*
%MOMM*%
%LPD*%
G01*
G04 APERTURE LIST*
G04 Aperture macros list*
%AMRoundRect*
0 Rectangle with rounded corners*
0 $1 Rounding radius*
0 $2 $3 $4 $5 $6 $7 $8 $9 X,Y pos of 4 corners*
0 Add a 4 corners polygon primitive as box body*
4,1,4,$2,$3,$4,$5,$6,$7,$8,$9,$2,$3,0*
0 Add four circle primitives for the rounded corners*
1,1,$1+$1,$2,$3*
1,1,$1+$1,$4,$5*
1,1,$1+$1,$6,$7*
1,1,$1+$1,$8,$9*
0 Add four rect primitives between the rounded corners*
20,1,$1+$1,$2,$3,$4,$5,0*
20,1,$1+$1,$4,$5,$6,$7,0*
20,1,$1+$1,$6,$7,$8,$9,0*
20,1,$1+$1,$8,$9,$2,$3,0*%
%AMRotRect*
0 Rectangle, with rotation*
0 The origin of the aperture is its center*
0 $1 length*
0 $2 width*
0 $3 Rotation angle, in degrees counterclockwise*
0 Add horizontal line*
21,1,$1,$2,0,0,$3*%
G04 Aperture macros list end*
%ADD10C,0.010000*%
%ADD11R,0.600000X1.200000*%
%ADD12RoundRect,0.140000X0.140000X0.170000X-0.140000X0.170000X-0.140000X-0.170000X0.140000X-0.170000X0*%
%ADD13RoundRect,0.140000X-0.140000X-0.170000X0.140000X-0.170000X0.140000X0.170000X-0.140000X0.170000X0*%
%ADD14RoundRect,0.135000X0.135000X0.185000X-0.135000X0.185000X-0.135000X-0.185000X0.135000X-0.185000X0*%
%ADD15RoundRect,0.135000X0.185000X-0.135000X0.185000X0.135000X-0.185000X0.135000X-0.185000X-0.135000X0*%
%ADD16RoundRect,0.140000X0.170000X-0.140000X0.170000X0.140000X-0.170000X0.140000X-0.170000X-0.140000X0*%
%ADD17RoundRect,0.225000X-0.225000X-0.250000X0.225000X-0.250000X0.225000X0.250000X-0.225000X0.250000X0*%
%ADD18RoundRect,0.218750X0.256250X-0.218750X0.256250X0.218750X-0.256250X0.218750X-0.256250X-0.218750X0*%
%ADD19RoundRect,0.200000X0.200000X0.275000X-0.200000X0.275000X-0.200000X-0.275000X0.200000X-0.275000X0*%
%ADD20RoundRect,0.135000X-0.185000X0.135000X-0.185000X-0.135000X0.185000X-0.135000X0.185000X0.135000X0*%
%ADD21R,1.400000X1.600000*%
%ADD22R,1.020000X2.300000*%
%ADD23RoundRect,0.225000X0.250000X-0.225000X0.250000X0.225000X-0.250000X0.225000X-0.250000X-0.225000X0*%
%ADD24RoundRect,0.225000X-0.250000X0.225000X-0.250000X-0.225000X0.250000X-0.225000X0.250000X0.225000X0*%
%ADD25RoundRect,0.135000X-0.135000X-0.185000X0.135000X-0.185000X0.135000X0.185000X-0.135000X0.185000X0*%
%ADD26RoundRect,0.140000X-0.021213X0.219203X-0.219203X0.021213X0.021213X-0.219203X0.219203X-0.021213X0*%
%ADD27RoundRect,0.250000X-1.100000X0.325000X-1.100000X-0.325000X1.100000X-0.325000X1.100000X0.325000X0*%
%ADD28R,1.200000X0.600000*%
%ADD29RoundRect,0.112500X-0.637500X-0.112500X0.637500X-0.112500X0.637500X0.112500X-0.637500X0.112500X0*%
%ADD30RoundRect,0.250000X0.450000X-0.262500X0.450000X0.262500X-0.450000X0.262500X-0.450000X-0.262500X0*%
%ADD31RoundRect,0.225000X0.225000X0.250000X-0.225000X0.250000X-0.225000X-0.250000X0.225000X-0.250000X0*%
%ADD32R,0.700000X1.500000*%
%ADD33R,1.200000X1.600000*%
%ADD34R,1.200000X2.200000*%
%ADD35R,1.600000X1.400000*%
%ADD36RoundRect,0.140000X-0.170000X0.140000X-0.170000X-0.140000X0.170000X-0.140000X0.170000X0.140000X0*%
%ADD37RoundRect,0.140000X0.219203X0.021213X0.021213X0.219203X-0.219203X-0.021213X-0.021213X-0.219203X0*%
%ADD38RoundRect,0.218750X0.218750X0.256250X-0.218750X0.256250X-0.218750X-0.256250X0.218750X-0.256250X0*%
%ADD39RoundRect,0.140000X-0.219203X-0.021213X-0.021213X-0.219203X0.219203X0.021213X0.021213X0.219203X0*%
%ADD40RoundRect,0.135000X-0.035355X0.226274X-0.226274X0.035355X0.035355X-0.226274X0.226274X-0.035355X0*%
%ADD41RoundRect,0.218750X-0.256250X0.218750X-0.256250X-0.218750X0.256250X-0.218750X0.256250X0.218750X0*%
%ADD42RoundRect,0.250000X-0.262500X-0.450000X0.262500X-0.450000X0.262500X0.450000X-0.262500X0.450000X0*%
%ADD43RoundRect,0.250000X0.312500X0.625000X-0.312500X0.625000X-0.312500X-0.625000X0.312500X-0.625000X0*%
%ADD44O,0.370000X0.950000*%
%ADD45O,0.950000X0.370000*%
%ADD46R,0.700000X0.700000*%
%ADD47RoundRect,0.135000X0.226274X0.035355X0.035355X0.226274X-0.226274X-0.035355X-0.035355X-0.226274X0*%
%ADD48RoundRect,0.249999X0.450001X1.450001X-0.450001X1.450001X-0.450001X-1.450001X0.450001X-1.450001X0*%
%ADD49RoundRect,0.125000X-0.125000X0.125000X-0.125000X-0.125000X0.125000X-0.125000X0.125000X0.125000X0*%
%ADD50RoundRect,0.250000X1.100000X-0.325000X1.100000X0.325000X-1.100000X0.325000X-1.100000X-0.325000X0*%
%ADD51RoundRect,0.075000X-1.162500X-0.075000X1.162500X-0.075000X1.162500X0.075000X-1.162500X0.075000X0*%
%ADD52RoundRect,0.075000X-0.075000X-1.162500X0.075000X-1.162500X0.075000X1.162500X-0.075000X1.162500X0*%
%ADD53RoundRect,0.006000X0.414000X0.094000X-0.414000X0.094000X-0.414000X-0.094000X0.414000X-0.094000X0*%
%ADD54RoundRect,0.020000X0.080000X0.400000X-0.080000X0.400000X-0.080000X-0.400000X0.080000X-0.400000X0*%
%ADD55RoundRect,0.125000X0.125000X0.125000X-0.125000X0.125000X-0.125000X-0.125000X0.125000X-0.125000X0*%
%ADD56RoundRect,0.112500X-0.112500X0.637500X-0.112500X-0.637500X0.112500X-0.637500X0.112500X0.637500X0*%
%ADD57R,1.200000X1.400000*%
%ADD58R,1.505000X0.802000*%
%ADD59R,1.567800X2.101200*%
%ADD60RoundRect,0.135000X-0.226274X-0.035355X-0.035355X-0.226274X0.226274X0.035355X0.035355X0.226274X0*%
%ADD61RoundRect,0.200000X-0.275000X0.200000X-0.275000X-0.200000X0.275000X-0.200000X0.275000X0.200000X0*%
%ADD62RoundRect,0.250000X-0.450000X0.262500X-0.450000X-0.262500X0.450000X-0.262500X0.450000X0.262500X0*%
%ADD63RoundRect,0.150000X0.650000X0.150000X-0.650000X0.150000X-0.650000X-0.150000X0.650000X-0.150000X0*%
%ADD64R,0.630000X2.600000*%
%ADD65RoundRect,0.150000X-0.825000X-0.150000X0.825000X-0.150000X0.825000X0.150000X-0.825000X0.150000X0*%
%ADD66R,2.800000X0.600000*%
%ADD67R,1.670000X0.760000*%
%ADD68RoundRect,0.062500X-0.433103X-0.521491X0.521491X0.433103X0.433103X0.521491X-0.521491X-0.433103X0*%
%ADD69RoundRect,0.062500X0.433103X-0.521491X0.521491X-0.433103X-0.433103X0.521491X-0.521491X0.433103X0*%
%ADD70RotRect,5.200000X5.200000X45.000000*%
G04 APERTURE END LIST*
D10*
X112498700Y-77975700D02*
X111107300Y-77975700D01*
X111107300Y-76584300D01*
X112498700Y-76584300D01*
X112498700Y-77975700D01*
G36*
X112498700Y-77975700D02*
G01*
X111107300Y-77975700D01*
X111107300Y-76584300D01*
X112498700Y-76584300D01*
X112498700Y-77975700D01*
G37*
X41890000Y-117560000D02*
X39930000Y-117560000D01*
X39930000Y-115600000D01*
X41890000Y-115600000D01*
X41890000Y-117560000D01*
G36*
X41890000Y-117560000D02*
G01*
X39930000Y-117560000D01*
X39930000Y-115600000D01*
X41890000Y-115600000D01*
X41890000Y-117560000D01*
G37*
D11*
X106960000Y-45930000D03*
X107910000Y-45930000D03*
X108860000Y-45930000D03*
X108860000Y-43730000D03*
X106960000Y-43730000D03*
D12*
X56640000Y-51330000D03*
X55680000Y-51330000D03*
D13*
X34930000Y-120580000D03*
X35890000Y-120580000D03*
D14*
X141170000Y-134330000D03*
X140150000Y-134330000D03*
D12*
X82390000Y-177830000D03*
X81430000Y-177830000D03*
X117140000Y-166580000D03*
X116180000Y-166580000D03*
D13*
X109430000Y-177830000D03*
X110390000Y-177830000D03*
X34930000Y-115330000D03*
X35890000Y-115330000D03*
D12*
X148140000Y-145830000D03*
X147180000Y-145830000D03*
D13*
X122180000Y-177830000D03*
X123140000Y-177830000D03*
D15*
X23660000Y-64840000D03*
X23660000Y-63820000D03*
D16*
X60660000Y-162310000D03*
X60660000Y-161350000D03*
D17*
X118635000Y-40830000D03*
X120185000Y-40830000D03*
D15*
X73160000Y-40590000D03*
X73160000Y-39570000D03*
D18*
X25160000Y-168617500D03*
X25160000Y-167042500D03*
D19*
X115235000Y-150080000D03*
X113585000Y-150080000D03*
D12*
X44640000Y-30830000D03*
X43680000Y-30830000D03*
D13*
X138930000Y-177830000D03*
X139890000Y-177830000D03*
D12*
X56640000Y-45830000D03*
X55680000Y-45830000D03*
D20*
X115410000Y-78320000D03*
X115410000Y-79340000D03*
D15*
X118660000Y-150840000D03*
X118660000Y-149820000D03*
D21*
X176660000Y-167830000D03*
X176660000Y-159830000D03*
X172160000Y-167830000D03*
X172160000Y-159830000D03*
D17*
X18635000Y-127580000D03*
X20185000Y-127580000D03*
D20*
X84910000Y-165570000D03*
X84910000Y-166590000D03*
D22*
X74030000Y-58230000D03*
X74030000Y-52430000D03*
X76570000Y-58230000D03*
X76570000Y-52430000D03*
X79110000Y-58230000D03*
X79110000Y-52430000D03*
X81650000Y-58230000D03*
X81650000Y-52430000D03*
X84190000Y-58230000D03*
X84190000Y-52430000D03*
X86730000Y-58230000D03*
X86730000Y-52430000D03*
X89270000Y-58230000D03*
X89270000Y-52430000D03*
X91810000Y-58230000D03*
X91810000Y-52430000D03*
X94350000Y-58230000D03*
X94350000Y-52430000D03*
X96890000Y-58230000D03*
X96890000Y-52430000D03*
X99430000Y-58230000D03*
X99430000Y-52430000D03*
X101970000Y-58230000D03*
X101970000Y-52430000D03*
X104510000Y-58230000D03*
X104510000Y-52430000D03*
X107050000Y-58230000D03*
X107050000Y-52430000D03*
X109590000Y-58230000D03*
X109590000Y-52430000D03*
X112130000Y-58230000D03*
X112130000Y-52430000D03*
X114670000Y-58230000D03*
X114670000Y-52430000D03*
X117210000Y-58230000D03*
X117210000Y-52430000D03*
X119750000Y-58230000D03*
X119750000Y-52430000D03*
X122290000Y-58230000D03*
X122290000Y-52430000D03*
D12*
X51390000Y-163830000D03*
X50430000Y-163830000D03*
D17*
X111885000Y-178080000D03*
X113435000Y-178080000D03*
D12*
X111640000Y-166580000D03*
X110680000Y-166580000D03*
X134890000Y-166580000D03*
X133930000Y-166580000D03*
D23*
X115160000Y-39605000D03*
X115160000Y-38055000D03*
D24*
X71160000Y-174805000D03*
X71160000Y-176355000D03*
D17*
X78635000Y-178080000D03*
X80185000Y-178080000D03*
D25*
X34890000Y-117400000D03*
X35910000Y-117400000D03*
D26*
X108833220Y-146116578D03*
X108154398Y-146795400D03*
D14*
X40670000Y-31830000D03*
X39650000Y-31830000D03*
D15*
X96910000Y-164590000D03*
X96910000Y-163570000D03*
D13*
X93680000Y-81830000D03*
X94640000Y-81830000D03*
D14*
X37170000Y-131330000D03*
X36150000Y-131330000D03*
D15*
X159160000Y-138840000D03*
X159160000Y-137820000D03*
X162660000Y-178090000D03*
X162660000Y-177070000D03*
D12*
X24640000Y-65830000D03*
X23680000Y-65830000D03*
D16*
X172660000Y-126290000D03*
X172660000Y-125330000D03*
D23*
X29660000Y-111605000D03*
X29660000Y-110055000D03*
D13*
X83430000Y-178080000D03*
X84390000Y-178080000D03*
D27*
X132660000Y-13355000D03*
X132660000Y-16305000D03*
D28*
X52260000Y-143030000D03*
X50060000Y-142080000D03*
X52260000Y-141130000D03*
D25*
X43300000Y-35280000D03*
X44320000Y-35280000D03*
D24*
X119560000Y-48055000D03*
X119560000Y-49605000D03*
D16*
X116910000Y-153310000D03*
X116910000Y-152350000D03*
D25*
X168900000Y-147830000D03*
X169920000Y-147830000D03*
D24*
X48160000Y-112805000D03*
X48160000Y-114355000D03*
D29*
X24760000Y-87405000D03*
X24760000Y-88055000D03*
X24760000Y-88705000D03*
X24760000Y-89355000D03*
X24760000Y-90005000D03*
X24760000Y-90655000D03*
X24760000Y-91305000D03*
X24760000Y-91955000D03*
X24760000Y-92605000D03*
X24760000Y-93255000D03*
X30560000Y-93255000D03*
X30560000Y-92605000D03*
X30560000Y-91955000D03*
X30560000Y-91305000D03*
X30560000Y-90655000D03*
X30560000Y-90005000D03*
X30560000Y-89355000D03*
X30560000Y-88705000D03*
X30560000Y-88055000D03*
X30560000Y-87405000D03*
D17*
X130635000Y-159830000D03*
X132185000Y-159830000D03*
D13*
X51680000Y-35080000D03*
X52640000Y-35080000D03*
D26*
X105014844Y-142298201D03*
X104336022Y-142977023D03*
D30*
X178160000Y-23242500D03*
X178160000Y-21417500D03*
D12*
X87140000Y-159830000D03*
X86180000Y-159830000D03*
D24*
X39560000Y-27555000D03*
X39560000Y-29105000D03*
D12*
X46890000Y-120580000D03*
X45930000Y-120580000D03*
D15*
X39910000Y-122590000D03*
X39910000Y-121570000D03*
D20*
X79660000Y-153310000D03*
X79660000Y-154330000D03*
D31*
X60385000Y-41130000D03*
X58835000Y-41130000D03*
X148435000Y-147330000D03*
X146885000Y-147330000D03*
D20*
X67260000Y-161320000D03*
X67260000Y-162340000D03*
D14*
X29170000Y-28080000D03*
X28150000Y-28080000D03*
D18*
X31660000Y-111617500D03*
X31660000Y-110042500D03*
D32*
X63300000Y-164480000D03*
X62200000Y-164480000D03*
X61100000Y-164480000D03*
X60000000Y-164480000D03*
X58900000Y-164480000D03*
X57800000Y-164480000D03*
X56700000Y-164480000D03*
X55600000Y-164480000D03*
X54500000Y-164480000D03*
D33*
X53400000Y-165330000D03*
D34*
X53400000Y-175030000D03*
D33*
X68080000Y-165330000D03*
D34*
X68920000Y-175030000D03*
D14*
X161170000Y-159830000D03*
X160150000Y-159830000D03*
D31*
X77085000Y-178080000D03*
X75535000Y-178080000D03*
D15*
X23660000Y-56090000D03*
X23660000Y-55070000D03*
D24*
X104160000Y-44055000D03*
X104160000Y-45605000D03*
D28*
X52260000Y-136030000D03*
X50060000Y-135080000D03*
X52260000Y-134130000D03*
D14*
X37170000Y-140330000D03*
X36150000Y-140330000D03*
D13*
X86180000Y-154330000D03*
X87140000Y-154330000D03*
D35*
X23910000Y-104580000D03*
X31910000Y-104580000D03*
X23910000Y-100080000D03*
X31910000Y-100080000D03*
D36*
X37910000Y-121600000D03*
X37910000Y-122560000D03*
D13*
X118930000Y-42080000D03*
X119890000Y-42080000D03*
D37*
X108126114Y-158250530D03*
X107447292Y-157571708D03*
D17*
X76135000Y-160830000D03*
X77685000Y-160830000D03*
D38*
X23447500Y-127580000D03*
X21872500Y-127580000D03*
D11*
X164210000Y-163930000D03*
X166110000Y-163930000D03*
X165160000Y-161730000D03*
D16*
X154160000Y-154810000D03*
X154160000Y-153850000D03*
D11*
X49710000Y-114180000D03*
X50660000Y-114180000D03*
X51610000Y-114180000D03*
X51610000Y-111980000D03*
X49710000Y-111980000D03*
D36*
X105410000Y-44350000D03*
X105410000Y-45310000D03*
D25*
X166150000Y-171830000D03*
X167170000Y-171830000D03*
D26*
X103883473Y-141166830D03*
X103204651Y-141845652D03*
D13*
X114180000Y-49580000D03*
X115140000Y-49580000D03*
D39*
X92880892Y-142722465D03*
X93559714Y-143401287D03*
D40*
X101920624Y-139169376D03*
X101199376Y-139890624D03*
D26*
X102752102Y-140035459D03*
X102073280Y-140714281D03*
D15*
X38910000Y-122590000D03*
X38910000Y-121570000D03*
D41*
X31160000Y-126042500D03*
X31160000Y-127617500D03*
D12*
X29640000Y-39330000D03*
X28680000Y-39330000D03*
D15*
X116410000Y-164340000D03*
X116410000Y-163320000D03*
D14*
X108420000Y-177830000D03*
X107400000Y-177830000D03*
D16*
X40660000Y-33960000D03*
X40660000Y-33000000D03*
D36*
X39910000Y-110600000D03*
X39910000Y-111560000D03*
D11*
X161110000Y-171730000D03*
X159210000Y-171730000D03*
X160160000Y-173930000D03*
D25*
X159650000Y-169580000D03*
X160670000Y-169580000D03*
D20*
X65060000Y-161320000D03*
X65060000Y-162340000D03*
D31*
X102435000Y-178330000D03*
X100885000Y-178330000D03*
D42*
X68247500Y-16830000D03*
X70072500Y-16830000D03*
D25*
X168900000Y-146730000D03*
X169920000Y-146730000D03*
D31*
X39935000Y-25830000D03*
X38385000Y-25830000D03*
D28*
X152760000Y-147780000D03*
X152760000Y-146830000D03*
X152760000Y-145880000D03*
X150560000Y-145880000D03*
X150560000Y-147780000D03*
D40*
X104820624Y-139169376D03*
X104099376Y-139890624D03*
D20*
X23660000Y-61820000D03*
X23660000Y-62840000D03*
D13*
X48930000Y-35830000D03*
X49890000Y-35830000D03*
D23*
X123160000Y-45605000D03*
X123160000Y-44055000D03*
D14*
X110920000Y-84330000D03*
X109900000Y-84330000D03*
D18*
X23410000Y-168617500D03*
X23410000Y-167042500D03*
D20*
X108160000Y-75320000D03*
X108160000Y-76340000D03*
D12*
X51140000Y-110580000D03*
X50180000Y-110580000D03*
D20*
X38160000Y-27320000D03*
X38160000Y-28340000D03*
X52160000Y-25320000D03*
X52160000Y-26340000D03*
D39*
X87365459Y-148237898D03*
X88044281Y-148916720D03*
D13*
X106180000Y-35080000D03*
X107140000Y-35080000D03*
D20*
X52160000Y-22320000D03*
X52160000Y-23340000D03*
D43*
X59122500Y-150330000D03*
X56197500Y-150330000D03*
D17*
X130635000Y-161580000D03*
X132185000Y-161580000D03*
D23*
X118410000Y-153605000D03*
X118410000Y-152055000D03*
D13*
X25580000Y-30830000D03*
X26540000Y-30830000D03*
D15*
X112160000Y-39840000D03*
X112160000Y-38820000D03*
D25*
X37650000Y-35080000D03*
X38670000Y-35080000D03*
D22*
X169130000Y-29130000D03*
X169130000Y-34930000D03*
X166590000Y-29130000D03*
X166590000Y-34930000D03*
X164050000Y-29130000D03*
X164050000Y-34930000D03*
X161510000Y-29130000D03*
X161510000Y-34930000D03*
X158970000Y-29130000D03*
X158970000Y-34930000D03*
X156430000Y-29130000D03*
X156430000Y-34930000D03*
X153890000Y-29130000D03*
X153890000Y-34930000D03*
X151350000Y-29130000D03*
X151350000Y-34930000D03*
X148810000Y-29130000D03*
X148810000Y-34930000D03*
X146270000Y-29130000D03*
X146270000Y-34930000D03*
X143730000Y-29130000D03*
X143730000Y-34930000D03*
X141190000Y-29130000D03*
X141190000Y-34930000D03*
X138650000Y-29130000D03*
X138650000Y-34930000D03*
D44*
X111003000Y-79280000D03*
X111803000Y-79280000D03*
X112603000Y-79280000D03*
D45*
X113803000Y-78080000D03*
X113803000Y-77280000D03*
X113803000Y-76480000D03*
D44*
X112603000Y-75280000D03*
X111803000Y-75280000D03*
X111003000Y-75280000D03*
D45*
X109803000Y-76480000D03*
X109803000Y-77280000D03*
X109803000Y-78080000D03*
D16*
X53660000Y-36060000D03*
X53660000Y-35100000D03*
D20*
X54060000Y-161320000D03*
X54060000Y-162340000D03*
D16*
X24660000Y-60810000D03*
X24660000Y-59850000D03*
D46*
X42360000Y-143680000D03*
X43960000Y-143680000D03*
X43960000Y-144980000D03*
X42360000Y-144980000D03*
D11*
X131210000Y-140930000D03*
X133110000Y-140930000D03*
X132160000Y-138730000D03*
D13*
X75160000Y-100830000D03*
X76120000Y-100830000D03*
D36*
X46910000Y-34850000D03*
X46910000Y-35810000D03*
D15*
X51410000Y-162590000D03*
X51410000Y-161570000D03*
D20*
X51410000Y-154765000D03*
X51410000Y-155785000D03*
D47*
X110520624Y-156290624D03*
X109799376Y-155569376D03*
D16*
X33960000Y-49610000D03*
X33960000Y-48650000D03*
X124410000Y-45330000D03*
X124410000Y-44370000D03*
D48*
X42210000Y-167830000D03*
X38110000Y-167830000D03*
D15*
X61760000Y-162340000D03*
X61760000Y-161320000D03*
D12*
X46890000Y-119580000D03*
X45930000Y-119580000D03*
D36*
X36160000Y-14850000D03*
X36160000Y-15810000D03*
D25*
X98150000Y-163730000D03*
X99170000Y-163730000D03*
D17*
X122135000Y-166430000D03*
X123685000Y-166430000D03*
D15*
X72160000Y-38590000D03*
X72160000Y-37570000D03*
D12*
X46890000Y-115580000D03*
X45930000Y-115580000D03*
D36*
X24660000Y-61850000D03*
X24660000Y-62810000D03*
D12*
X128890000Y-177830000D03*
X127930000Y-177830000D03*
D49*
X160160000Y-140230000D03*
X160160000Y-142430000D03*
D13*
X86180000Y-151430000D03*
X87140000Y-151430000D03*
D12*
X86390000Y-178080000D03*
X85430000Y-178080000D03*
D31*
X115185000Y-154030000D03*
X113635000Y-154030000D03*
X114435000Y-166430000D03*
X112885000Y-166430000D03*
D50*
X75660000Y-24305000D03*
X75660000Y-21355000D03*
D25*
X86150000Y-155430000D03*
X87170000Y-155430000D03*
D31*
X89185000Y-178230000D03*
X87635000Y-178230000D03*
D36*
X24560000Y-30950000D03*
X24560000Y-31910000D03*
D13*
X132930000Y-177830000D03*
X133890000Y-177830000D03*
D50*
X75660000Y-16805000D03*
X75660000Y-13855000D03*
D51*
X36497500Y-40830000D03*
X36497500Y-41330000D03*
X36497500Y-41830000D03*
X36497500Y-42330000D03*
X36497500Y-42830000D03*
X36497500Y-43330000D03*
X36497500Y-43830000D03*
X36497500Y-44330000D03*
X36497500Y-44830000D03*
X36497500Y-45330000D03*
X36497500Y-45830000D03*
X36497500Y-46330000D03*
X36497500Y-46830000D03*
X36497500Y-47330000D03*
X36497500Y-47830000D03*
X36497500Y-48330000D03*
X36497500Y-48830000D03*
X36497500Y-49330000D03*
X36497500Y-49830000D03*
X36497500Y-50330000D03*
X36497500Y-50830000D03*
X36497500Y-51330000D03*
X36497500Y-51830000D03*
X36497500Y-52330000D03*
X36497500Y-52830000D03*
D52*
X38660000Y-54992500D03*
X39160000Y-54992500D03*
X39660000Y-54992500D03*
X40160000Y-54992500D03*
X40660000Y-54992500D03*
X41160000Y-54992500D03*
X41660000Y-54992500D03*
X42160000Y-54992500D03*
X42660000Y-54992500D03*
X43160000Y-54992500D03*
X43660000Y-54992500D03*
X44160000Y-54992500D03*
X44660000Y-54992500D03*
X45160000Y-54992500D03*
X45660000Y-54992500D03*
X46160000Y-54992500D03*
X46660000Y-54992500D03*
X47160000Y-54992500D03*
X47660000Y-54992500D03*
X48160000Y-54992500D03*
X48660000Y-54992500D03*
X49160000Y-54992500D03*
X49660000Y-54992500D03*
X50160000Y-54992500D03*
X50660000Y-54992500D03*
D51*
X52822500Y-52830000D03*
X52822500Y-52330000D03*
X52822500Y-51830000D03*
X52822500Y-51330000D03*
X52822500Y-50830000D03*
X52822500Y-50330000D03*
X52822500Y-49830000D03*
X52822500Y-49330000D03*
X52822500Y-48830000D03*
X52822500Y-48330000D03*
X52822500Y-47830000D03*
X52822500Y-47330000D03*
X52822500Y-46830000D03*
X52822500Y-46330000D03*
X52822500Y-45830000D03*
X52822500Y-45330000D03*
X52822500Y-44830000D03*
X52822500Y-44330000D03*
X52822500Y-43830000D03*
X52822500Y-43330000D03*
X52822500Y-42830000D03*
X52822500Y-42330000D03*
X52822500Y-41830000D03*
X52822500Y-41330000D03*
X52822500Y-40830000D03*
D52*
X50660000Y-38667500D03*
X50160000Y-38667500D03*
X49660000Y-38667500D03*
X49160000Y-38667500D03*
X48660000Y-38667500D03*
X48160000Y-38667500D03*
X47660000Y-38667500D03*
X47160000Y-38667500D03*
X46660000Y-38667500D03*
X46160000Y-38667500D03*
X45660000Y-38667500D03*
X45160000Y-38667500D03*
X44660000Y-38667500D03*
X44160000Y-38667500D03*
X43660000Y-38667500D03*
X43160000Y-38667500D03*
X42660000Y-38667500D03*
X42160000Y-38667500D03*
X41660000Y-38667500D03*
X41160000Y-38667500D03*
X40660000Y-38667500D03*
X40160000Y-38667500D03*
X39660000Y-38667500D03*
X39160000Y-38667500D03*
X38660000Y-38667500D03*
D53*
X44345000Y-119180000D03*
X44345000Y-118780000D03*
X44345000Y-118380000D03*
X44345000Y-117980000D03*
X44345000Y-117580000D03*
X44345000Y-117180000D03*
X44345000Y-116780000D03*
X44345000Y-116380000D03*
X44345000Y-115980000D03*
X44345000Y-115580000D03*
X44345000Y-115180000D03*
X44345000Y-114780000D03*
X44345000Y-114380000D03*
X44345000Y-113980000D03*
D54*
X43510000Y-113145000D03*
X43110000Y-113145000D03*
X42710000Y-113145000D03*
X42310000Y-113145000D03*
X41910000Y-113145000D03*
X41510000Y-113145000D03*
X41110000Y-113145000D03*
X40710000Y-113145000D03*
X40310000Y-113145000D03*
X39910000Y-113145000D03*
X39510000Y-113145000D03*
X39110000Y-113145000D03*
X38710000Y-113145000D03*
X38310000Y-113145000D03*
D53*
X37475000Y-113980000D03*
X37475000Y-114380000D03*
X37475000Y-114780000D03*
X37475000Y-115180000D03*
X37475000Y-115580000D03*
X37475000Y-115980000D03*
X37475000Y-116380000D03*
X37475000Y-116780000D03*
X37475000Y-117180000D03*
X37475000Y-117580000D03*
X37475000Y-117980000D03*
X37475000Y-118380000D03*
X37475000Y-118780000D03*
X37475000Y-119180000D03*
D54*
X38310000Y-120015000D03*
X38710000Y-120015000D03*
X39110000Y-120015000D03*
X39510000Y-120015000D03*
X39910000Y-120015000D03*
X40310000Y-120015000D03*
X40710000Y-120015000D03*
X41110000Y-120015000D03*
X41510000Y-120015000D03*
X41910000Y-120015000D03*
X42310000Y-120015000D03*
X42710000Y-120015000D03*
X43110000Y-120015000D03*
X43510000Y-120015000D03*
D15*
X51160000Y-23340000D03*
X51160000Y-22320000D03*
D17*
X71135000Y-178080000D03*
X72685000Y-178080000D03*
D39*
X89911043Y-145692314D03*
X90589865Y-146371136D03*
D13*
X119700000Y-166580000D03*
X120660000Y-166580000D03*
D16*
X40910000Y-122560000D03*
X40910000Y-121600000D03*
D14*
X112920000Y-73580000D03*
X111900000Y-73580000D03*
D13*
X25180000Y-95330000D03*
X26140000Y-95330000D03*
D15*
X34660000Y-167840000D03*
X34660000Y-166820000D03*
D12*
X93390000Y-178030000D03*
X92430000Y-178030000D03*
X93240000Y-162930000D03*
X92280000Y-162930000D03*
D26*
X107843271Y-145126628D03*
X107164449Y-145805450D03*
D14*
X60670000Y-39830000D03*
X59650000Y-39830000D03*
D19*
X109985000Y-138330000D03*
X108335000Y-138330000D03*
D15*
X36160000Y-167840000D03*
X36160000Y-166820000D03*
D28*
X169260000Y-168280000D03*
X169260000Y-167330000D03*
X169260000Y-166380000D03*
X167060000Y-166380000D03*
X167060000Y-167330000D03*
X167060000Y-168280000D03*
D25*
X112150000Y-84330000D03*
X113170000Y-84330000D03*
D20*
X38660000Y-160320000D03*
X38660000Y-161340000D03*
D14*
X133670000Y-153080000D03*
X132650000Y-153080000D03*
D20*
X62860000Y-161320000D03*
X62860000Y-162340000D03*
D13*
X107430000Y-42080000D03*
X108390000Y-42080000D03*
D39*
X91608100Y-143995257D03*
X92286922Y-144674079D03*
D36*
X36910000Y-121600000D03*
X36910000Y-122560000D03*
D55*
X176760000Y-129330000D03*
X174560000Y-129330000D03*
D31*
X131685000Y-178080000D03*
X130135000Y-178080000D03*
D22*
X74030000Y-69485000D03*
X74030000Y-63685000D03*
X76570000Y-69485000D03*
X76570000Y-63685000D03*
X79110000Y-69485000D03*
X79110000Y-63685000D03*
X81650000Y-69485000D03*
X81650000Y-63685000D03*
X84190000Y-69485000D03*
X84190000Y-63685000D03*
X86730000Y-69485000D03*
X86730000Y-63685000D03*
X89270000Y-69485000D03*
X89270000Y-63685000D03*
X91810000Y-69485000D03*
X91810000Y-63685000D03*
X94350000Y-69485000D03*
X94350000Y-63685000D03*
X96890000Y-69485000D03*
X96890000Y-63685000D03*
X99430000Y-69485000D03*
X99430000Y-63685000D03*
X101970000Y-69485000D03*
X101970000Y-63685000D03*
X104510000Y-69485000D03*
X104510000Y-63685000D03*
X107050000Y-69485000D03*
X107050000Y-63685000D03*
X109590000Y-69485000D03*
X109590000Y-63685000D03*
X112130000Y-69485000D03*
X112130000Y-63685000D03*
X114670000Y-69485000D03*
X114670000Y-63685000D03*
X117210000Y-69485000D03*
X117210000Y-63685000D03*
X119750000Y-69485000D03*
X119750000Y-63685000D03*
X122290000Y-69485000D03*
X122290000Y-63685000D03*
D30*
X72160000Y-23742500D03*
X72160000Y-21917500D03*
D19*
X115235000Y-152330000D03*
X113585000Y-152330000D03*
D13*
X88880000Y-159330000D03*
X89840000Y-159330000D03*
X28680000Y-86330000D03*
X29640000Y-86330000D03*
D37*
X107277585Y-159099058D03*
X106598763Y-158420236D03*
D26*
X109540327Y-146823684D03*
X108861505Y-147502506D03*
D13*
X88880000Y-161330000D03*
X89840000Y-161330000D03*
D36*
X160660000Y-137850000D03*
X160660000Y-138810000D03*
D56*
X116585000Y-41930000D03*
X115935000Y-41930000D03*
X115285000Y-41930000D03*
X114635000Y-41930000D03*
X113985000Y-41930000D03*
X113335000Y-41930000D03*
X112685000Y-41930000D03*
X112035000Y-41930000D03*
X111385000Y-41930000D03*
X110735000Y-41930000D03*
X110735000Y-47730000D03*
X111385000Y-47730000D03*
X112035000Y-47730000D03*
X112685000Y-47730000D03*
X113335000Y-47730000D03*
X113985000Y-47730000D03*
X114635000Y-47730000D03*
X115285000Y-47730000D03*
X115935000Y-47730000D03*
X116585000Y-47730000D03*
D20*
X162660000Y-172570000D03*
X162660000Y-173590000D03*
D15*
X113160000Y-39840000D03*
X113160000Y-38820000D03*
D39*
X94719369Y-140883988D03*
X95398191Y-141562810D03*
D57*
X46260000Y-110930000D03*
X46260000Y-108730000D03*
X44560000Y-108730000D03*
X44560000Y-110930000D03*
D16*
X24660000Y-64810000D03*
X24660000Y-63850000D03*
D21*
X176660000Y-155830000D03*
X176660000Y-147830000D03*
X172160000Y-155830000D03*
X172160000Y-147830000D03*
D15*
X73160000Y-38590000D03*
X73160000Y-37570000D03*
D16*
X121910000Y-45310000D03*
X121910000Y-44350000D03*
X109410000Y-39810000D03*
X109410000Y-38850000D03*
D14*
X93270000Y-164030000D03*
X92250000Y-164030000D03*
D17*
X27885000Y-127580000D03*
X29435000Y-127580000D03*
D15*
X170160000Y-126340000D03*
X170160000Y-125320000D03*
D12*
X28140000Y-95330000D03*
X27180000Y-95330000D03*
D37*
X111399411Y-154969411D03*
X110720589Y-154290589D03*
D20*
X81910000Y-165570000D03*
X81910000Y-166590000D03*
X56260000Y-161320000D03*
X56260000Y-162340000D03*
D12*
X128890000Y-166580000D03*
X127930000Y-166580000D03*
D15*
X72160000Y-40590000D03*
X72160000Y-39570000D03*
X41910000Y-111590000D03*
X41910000Y-110570000D03*
D17*
X123385000Y-147330000D03*
X124935000Y-147330000D03*
D25*
X146900000Y-160830000D03*
X147920000Y-160830000D03*
D39*
X88496830Y-147106527D03*
X89175652Y-147785349D03*
D20*
X49160000Y-109570000D03*
X49160000Y-110590000D03*
D12*
X49890000Y-33830000D03*
X48930000Y-33830000D03*
D11*
X157710000Y-163930000D03*
X159610000Y-163930000D03*
X158660000Y-161730000D03*
D12*
X87140000Y-158730000D03*
X86180000Y-158730000D03*
D16*
X48360000Y-58710000D03*
X48360000Y-57750000D03*
D11*
X176610000Y-124730000D03*
X174710000Y-124730000D03*
X175660000Y-126930000D03*
D12*
X41890000Y-109580000D03*
X40930000Y-109580000D03*
D11*
X26610000Y-27330000D03*
X25660000Y-27330000D03*
X24710000Y-27330000D03*
X24710000Y-29530000D03*
X26610000Y-29530000D03*
D25*
X34890000Y-116400000D03*
X35910000Y-116400000D03*
D12*
X141140000Y-166580000D03*
X140180000Y-166580000D03*
D58*
X125655000Y-154140000D03*
X125655000Y-152870000D03*
X125655000Y-151600000D03*
X125655000Y-150330000D03*
X120660000Y-150330000D03*
X120660000Y-151600000D03*
X120660000Y-152870000D03*
X120660000Y-154140000D03*
D59*
X123157500Y-152235000D03*
D25*
X90400000Y-166580000D03*
X91420000Y-166580000D03*
D15*
X29160000Y-27090000D03*
X29160000Y-26070000D03*
X119160000Y-164340000D03*
X119160000Y-163320000D03*
D14*
X137170000Y-134330000D03*
X136150000Y-134330000D03*
D13*
X94280000Y-162930000D03*
X95240000Y-162930000D03*
X46680000Y-33830000D03*
X47640000Y-33830000D03*
D25*
X41650000Y-30830000D03*
X42670000Y-30830000D03*
D20*
X58460000Y-161320000D03*
X58460000Y-162340000D03*
D25*
X100160000Y-163730000D03*
X101180000Y-163730000D03*
D14*
X37170000Y-134330000D03*
X36150000Y-134330000D03*
D17*
X136635000Y-166430000D03*
X138185000Y-166430000D03*
D25*
X134900000Y-177830000D03*
X135920000Y-177830000D03*
D15*
X55160000Y-162340000D03*
X55160000Y-161320000D03*
D37*
X103883473Y-162493170D03*
X103204651Y-161814348D03*
D28*
X52260000Y-132530000D03*
X50060000Y-131580000D03*
X52260000Y-130630000D03*
D13*
X86180000Y-156530000D03*
X87140000Y-156530000D03*
D36*
X133660000Y-136350000D03*
X133660000Y-137310000D03*
D15*
X51160000Y-26340000D03*
X51160000Y-25320000D03*
D39*
X90900993Y-144702364D03*
X91579815Y-145381186D03*
D46*
X42360000Y-146680000D03*
X43960000Y-146680000D03*
X43960000Y-147980000D03*
X42360000Y-147980000D03*
D17*
X76135000Y-162580000D03*
X77685000Y-162580000D03*
D37*
X108833220Y-157543423D03*
X108154398Y-156864601D03*
D13*
X32680000Y-39330000D03*
X33640000Y-39330000D03*
D12*
X106640000Y-166580000D03*
X105680000Y-166580000D03*
D14*
X87170000Y-152630000D03*
X86150000Y-152630000D03*
D31*
X169525000Y-78750000D03*
X167975000Y-78750000D03*
D15*
X59560000Y-162340000D03*
X59560000Y-161320000D03*
X53660000Y-139090000D03*
X53660000Y-138070000D03*
D46*
X29360000Y-116680000D03*
X30960000Y-116680000D03*
X30960000Y-117980000D03*
X29360000Y-117980000D03*
D60*
X111299376Y-157069376D03*
X112020624Y-157790624D03*
D17*
X74885000Y-102330000D03*
X76435000Y-102330000D03*
D20*
X51410000Y-152265000D03*
X51410000Y-153285000D03*
D11*
X118460000Y-45930000D03*
X119410000Y-45930000D03*
X120360000Y-45930000D03*
X120360000Y-43730000D03*
X118460000Y-43730000D03*
D24*
X27410000Y-167055000D03*
X27410000Y-168605000D03*
D12*
X30140000Y-95330000D03*
X29180000Y-95330000D03*
D15*
X40960000Y-28340000D03*
X40960000Y-27320000D03*
D47*
X112820624Y-156990624D03*
X112099376Y-156269376D03*
D12*
X35140000Y-24330000D03*
X34180000Y-24330000D03*
D15*
X51410000Y-160090000D03*
X51410000Y-159070000D03*
D24*
X79410000Y-155555000D03*
X79410000Y-157105000D03*
D36*
X118160000Y-47450000D03*
X118160000Y-48410000D03*
D16*
X24660000Y-56060000D03*
X24660000Y-55100000D03*
D37*
X109540327Y-156836316D03*
X108861505Y-156157494D03*
D13*
X46680000Y-32830000D03*
X47640000Y-32830000D03*
D36*
X28160000Y-26100000D03*
X28160000Y-27060000D03*
D25*
X38650000Y-164830000D03*
X39670000Y-164830000D03*
D17*
X124385000Y-178080000D03*
X125935000Y-178080000D03*
D36*
X40910000Y-110600000D03*
X40910000Y-111560000D03*
D20*
X80660000Y-165570000D03*
X80660000Y-166590000D03*
D12*
X49890000Y-34830000D03*
X48930000Y-34830000D03*
X168640000Y-169580000D03*
X167680000Y-169580000D03*
D15*
X53660000Y-142590000D03*
X53660000Y-141570000D03*
D14*
X35920000Y-114330000D03*
X34900000Y-114330000D03*
D31*
X118935000Y-178080000D03*
X117385000Y-178080000D03*
D12*
X87140000Y-160930000D03*
X86180000Y-160930000D03*
D23*
X71160000Y-173105000D03*
X71160000Y-171555000D03*
D15*
X117760000Y-164340000D03*
X117760000Y-163320000D03*
D16*
X54660000Y-36060000D03*
X54660000Y-35100000D03*
D15*
X53660000Y-135590000D03*
X53660000Y-134570000D03*
D20*
X115410000Y-75320000D03*
X115410000Y-76340000D03*
D31*
X132435000Y-166430000D03*
X130885000Y-166430000D03*
D61*
X77660000Y-155505000D03*
X77660000Y-157155000D03*
D13*
X59680000Y-38830000D03*
X60640000Y-38830000D03*
D25*
X162650000Y-159830000D03*
X163670000Y-159830000D03*
D16*
X42910000Y-111560000D03*
X42910000Y-110600000D03*
D47*
X96220624Y-140790624D03*
X95499376Y-140069376D03*
D12*
X46640000Y-30830000D03*
X45680000Y-30830000D03*
D50*
X132660000Y-24305000D03*
X132660000Y-21355000D03*
D15*
X23660000Y-54090000D03*
X23660000Y-53070000D03*
D13*
X34930000Y-119580000D03*
X35890000Y-119580000D03*
D24*
X167410000Y-145055000D03*
X167410000Y-146605000D03*
D28*
X95260000Y-80280000D03*
X95260000Y-79330000D03*
X95260000Y-78380000D03*
X93060000Y-78380000D03*
X93060000Y-80280000D03*
D13*
X90430000Y-178030000D03*
X91390000Y-178030000D03*
D12*
X53390000Y-151275000D03*
X52430000Y-151275000D03*
D23*
X116660000Y-39605000D03*
X116660000Y-38055000D03*
D14*
X34920000Y-104830000D03*
X33900000Y-104830000D03*
D25*
X175150000Y-122830000D03*
X176170000Y-122830000D03*
D24*
X21660000Y-167055000D03*
X21660000Y-168605000D03*
D25*
X120150000Y-148580000D03*
X121170000Y-148580000D03*
D41*
X31660000Y-113542500D03*
X31660000Y-115117500D03*
D16*
X41910000Y-122560000D03*
X41910000Y-121600000D03*
D20*
X160160000Y-127320000D03*
X160160000Y-128340000D03*
D24*
X29660000Y-113555000D03*
X29660000Y-115105000D03*
D15*
X53660000Y-132090000D03*
X53660000Y-131070000D03*
D20*
X83660000Y-165570000D03*
X83660000Y-166590000D03*
D11*
X158210000Y-134430000D03*
X160110000Y-134430000D03*
X159160000Y-132230000D03*
D37*
X105863372Y-160513271D03*
X105184550Y-159834449D03*
D15*
X61660000Y-40840000D03*
X61660000Y-39820000D03*
X73160000Y-49340000D03*
X73160000Y-48320000D03*
X66160000Y-162340000D03*
X66160000Y-161320000D03*
D11*
X161110000Y-175980000D03*
X159210000Y-175980000D03*
X160160000Y-178180000D03*
D24*
X71160000Y-168305000D03*
X71160000Y-169855000D03*
D15*
X113410000Y-164340000D03*
X113410000Y-163320000D03*
D20*
X79660000Y-151320000D03*
X79660000Y-152340000D03*
D39*
X93587999Y-142015358D03*
X94266821Y-142694180D03*
D14*
X37170000Y-137330000D03*
X36150000Y-137330000D03*
D25*
X38650000Y-163830000D03*
X39670000Y-163830000D03*
D62*
X136160000Y-13917500D03*
X136160000Y-15742500D03*
D63*
X51260000Y-126235000D03*
X51260000Y-124965000D03*
X51260000Y-123695000D03*
X51260000Y-122425000D03*
X44060000Y-122425000D03*
X44060000Y-123695000D03*
X44060000Y-124965000D03*
X44060000Y-126235000D03*
D28*
X52260000Y-139530000D03*
X50060000Y-138580000D03*
X52260000Y-137630000D03*
D13*
X50180000Y-115580000D03*
X51140000Y-115580000D03*
D41*
X24160000Y-67092500D03*
X24160000Y-68667500D03*
D64*
X75300000Y-119880000D03*
X75300000Y-115780000D03*
X76570000Y-119880000D03*
X76570000Y-115780000D03*
X77840000Y-119880000D03*
X77840000Y-115780000D03*
X79110000Y-119880000D03*
X79110000Y-115780000D03*
X80380000Y-119880000D03*
X80380000Y-115780000D03*
X81650000Y-119880000D03*
X81650000Y-115780000D03*
X82920000Y-119880000D03*
X82920000Y-115780000D03*
X84190000Y-119880000D03*
X84190000Y-115780000D03*
X85460000Y-119880000D03*
X85460000Y-115780000D03*
X86730000Y-119880000D03*
X86730000Y-115780000D03*
X88000000Y-119880000D03*
X88000000Y-115780000D03*
X89270000Y-119880000D03*
X89270000Y-115780000D03*
X90540000Y-119880000D03*
X90540000Y-115780000D03*
X91810000Y-119880000D03*
X91810000Y-115780000D03*
X93080000Y-119880000D03*
X93080000Y-115780000D03*
X94350000Y-119880000D03*
X94350000Y-115780000D03*
X95620000Y-119880000D03*
X95620000Y-115780000D03*
X96890000Y-119880000D03*
X96890000Y-115780000D03*
X98160000Y-119880000D03*
X98160000Y-115780000D03*
X99430000Y-119880000D03*
X99430000Y-115780000D03*
X100700000Y-119880000D03*
X100700000Y-115780000D03*
X101970000Y-119880000D03*
X101970000Y-115780000D03*
X103240000Y-119880000D03*
X103240000Y-115780000D03*
X104510000Y-119880000D03*
X104510000Y-115780000D03*
X105780000Y-119880000D03*
X105780000Y-115780000D03*
X107050000Y-119880000D03*
X107050000Y-115780000D03*
X108320000Y-119880000D03*
X108320000Y-115780000D03*
X109590000Y-119880000D03*
X109590000Y-115780000D03*
X110860000Y-119880000D03*
X110860000Y-115780000D03*
X112130000Y-119880000D03*
X112130000Y-115780000D03*
X113400000Y-119880000D03*
X113400000Y-115780000D03*
X114670000Y-119880000D03*
X114670000Y-115780000D03*
X75300000Y-97880000D03*
X75300000Y-93780000D03*
X76570000Y-97880000D03*
X76570000Y-93780000D03*
X77840000Y-97880000D03*
X77840000Y-93780000D03*
X79110000Y-97880000D03*
X79110000Y-93780000D03*
X80380000Y-97880000D03*
X80380000Y-93780000D03*
X81650000Y-97880000D03*
X81650000Y-93780000D03*
X82920000Y-97880000D03*
X82920000Y-93780000D03*
X84190000Y-97880000D03*
X84190000Y-93780000D03*
X85460000Y-97880000D03*
X85460000Y-93780000D03*
X86730000Y-97880000D03*
X86740000Y-93780000D03*
X88000000Y-97880000D03*
X88000000Y-93780000D03*
X89270000Y-97880000D03*
X89270000Y-93780000D03*
X90540000Y-97880000D03*
X90540000Y-93780000D03*
X91810000Y-97880000D03*
X91810000Y-93780000D03*
X93080000Y-97880000D03*
X93080000Y-93780000D03*
X94350000Y-97880000D03*
X94350000Y-93780000D03*
X95620000Y-97880000D03*
X95620000Y-93780000D03*
X96890000Y-97880000D03*
X96890000Y-93780000D03*
X98160000Y-97880000D03*
X98160000Y-93780000D03*
X99430000Y-97880000D03*
X99430000Y-93780000D03*
X100700000Y-97880000D03*
X100700000Y-93780000D03*
X101970000Y-97880000D03*
X101970000Y-93780000D03*
X103240000Y-97880000D03*
X103240000Y-93780000D03*
X104510000Y-97880000D03*
X104510000Y-93780000D03*
X105780000Y-97880000D03*
X105780000Y-93780000D03*
X107050000Y-97880000D03*
X107050000Y-93780000D03*
X108320000Y-97880000D03*
X108320000Y-93780000D03*
X109590000Y-97880000D03*
X109590000Y-93780000D03*
X110860000Y-97880000D03*
X110860000Y-93780000D03*
X112130000Y-97880000D03*
X112130000Y-93780000D03*
X113400000Y-97880000D03*
X113400000Y-93780000D03*
X114670000Y-97880000D03*
X114670000Y-93780000D03*
D16*
X29160000Y-30060000D03*
X29160000Y-29100000D03*
D23*
X110660000Y-39605000D03*
X110660000Y-38055000D03*
D25*
X46650000Y-29430000D03*
X47670000Y-29430000D03*
D12*
X116140000Y-177830000D03*
X115180000Y-177830000D03*
D15*
X63960000Y-162340000D03*
X63960000Y-161320000D03*
D12*
X87140000Y-157630000D03*
X86180000Y-157630000D03*
D47*
X94720624Y-161190624D03*
X93999376Y-160469376D03*
D16*
X74060000Y-178760000D03*
X74060000Y-177800000D03*
D20*
X170160000Y-128820000D03*
X170160000Y-129840000D03*
X72060000Y-48320000D03*
X72060000Y-49340000D03*
D46*
X29360000Y-120180000D03*
X30960000Y-120180000D03*
X30960000Y-121480000D03*
X29360000Y-121480000D03*
D36*
X39660000Y-35100000D03*
X39660000Y-36060000D03*
D31*
X34435000Y-15330000D03*
X32885000Y-15330000D03*
D26*
X110954541Y-148237898D03*
X110275719Y-148916720D03*
D65*
X31185000Y-25925000D03*
X31185000Y-27195000D03*
X31185000Y-28465000D03*
X31185000Y-29735000D03*
X36135000Y-29735000D03*
X36135000Y-28465000D03*
X36135000Y-27195000D03*
X36135000Y-25925000D03*
D15*
X57360000Y-162340000D03*
X57360000Y-161320000D03*
D66*
X33735000Y-36330000D03*
X28585000Y-36330000D03*
D13*
X51680000Y-36080000D03*
X52640000Y-36080000D03*
D55*
X150760000Y-130330000D03*
X148560000Y-130330000D03*
D31*
X34435000Y-20330000D03*
X32885000Y-20330000D03*
D15*
X23660000Y-60840000D03*
X23660000Y-59820000D03*
D13*
X106180000Y-36330000D03*
X107140000Y-36330000D03*
D16*
X154660000Y-147810000D03*
X154660000Y-146850000D03*
D67*
X48925000Y-162275000D03*
X48925000Y-161005000D03*
X48925000Y-159735000D03*
X48925000Y-158465000D03*
X48925000Y-157195000D03*
X48925000Y-155925000D03*
X48925000Y-154655000D03*
X48925000Y-153385000D03*
X40395000Y-153385000D03*
X40395000Y-154655000D03*
X40395000Y-155925000D03*
X40395000Y-157195000D03*
X40395000Y-158465000D03*
X40395000Y-159735000D03*
X40395000Y-161005000D03*
X40395000Y-162275000D03*
D37*
X103034945Y-163341698D03*
X102356123Y-162662876D03*
D15*
X114460000Y-164340000D03*
X114460000Y-163320000D03*
D13*
X45680000Y-150330000D03*
X46640000Y-150330000D03*
D15*
X87660000Y-166590000D03*
X87660000Y-165570000D03*
D14*
X132670000Y-142580000D03*
X131650000Y-142580000D03*
D31*
X117935000Y-49830000D03*
X116385000Y-49830000D03*
D16*
X36160000Y-20810000D03*
X36160000Y-19850000D03*
D36*
X47910000Y-34850000D03*
X47910000Y-35810000D03*
D13*
X112930000Y-80830000D03*
X113890000Y-80830000D03*
D26*
X106216925Y-143500283D03*
X105538103Y-144179105D03*
X106924032Y-144207389D03*
X106245210Y-144886211D03*
D12*
X121140000Y-177830000D03*
X120180000Y-177830000D03*
D25*
X149400000Y-160830000D03*
X150420000Y-160830000D03*
D31*
X115185000Y-148080000D03*
X113635000Y-148080000D03*
D12*
X104890000Y-177830000D03*
X103930000Y-177830000D03*
D15*
X38660000Y-149840000D03*
X38660000Y-148820000D03*
D68*
X89357732Y-152864144D03*
X89640575Y-153146986D03*
X89923418Y-153429829D03*
X90206260Y-153712672D03*
X90489103Y-153995515D03*
X90771946Y-154278357D03*
X91054789Y-154561200D03*
X91337631Y-154844043D03*
X91620474Y-155126885D03*
X91903317Y-155409728D03*
X92186159Y-155692571D03*
X92469002Y-155975414D03*
X92751845Y-156258256D03*
X93034688Y-156541099D03*
X93317530Y-156823942D03*
X93600373Y-157106784D03*
X93883216Y-157389627D03*
X94166058Y-157672470D03*
X94448901Y-157955312D03*
X94731744Y-158238155D03*
X95014586Y-158520998D03*
X95297429Y-158803841D03*
X95580272Y-159086683D03*
X95863115Y-159369526D03*
X96145957Y-159652369D03*
X96428800Y-159935211D03*
X96711643Y-160218054D03*
X96994485Y-160500897D03*
X97277328Y-160783740D03*
X97560171Y-161066582D03*
X97843014Y-161349425D03*
X98125856Y-161632268D03*
D69*
X100194144Y-161632268D03*
X100476986Y-161349425D03*
X100759829Y-161066582D03*
X101042672Y-160783740D03*
X101325515Y-160500897D03*
X101608357Y-160218054D03*
X101891200Y-159935211D03*
X102174043Y-159652369D03*
X102456885Y-159369526D03*
X102739728Y-159086683D03*
X103022571Y-158803841D03*
X103305414Y-158520998D03*
X103588256Y-158238155D03*
X103871099Y-157955312D03*
X104153942Y-157672470D03*
X104436784Y-157389627D03*
X104719627Y-157106784D03*
X105002470Y-156823942D03*
X105285312Y-156541099D03*
X105568155Y-156258256D03*
X105850998Y-155975414D03*
X106133841Y-155692571D03*
X106416683Y-155409728D03*
X106699526Y-155126885D03*
X106982369Y-154844043D03*
X107265211Y-154561200D03*
X107548054Y-154278357D03*
X107830897Y-153995515D03*
X108113740Y-153712672D03*
X108396582Y-153429829D03*
X108679425Y-153146986D03*
X108962268Y-152864144D03*
D68*
X108962268Y-150795856D03*
X108679425Y-150513014D03*
X108396582Y-150230171D03*
X108113740Y-149947328D03*
X107830897Y-149664485D03*
X107548054Y-149381643D03*
X107265211Y-149098800D03*
X106982369Y-148815957D03*
X106699526Y-148533115D03*
X106416683Y-148250272D03*
X106133841Y-147967429D03*
X105850998Y-147684586D03*
X105568155Y-147401744D03*
X105285312Y-147118901D03*
X105002470Y-146836058D03*
X104719627Y-146553216D03*
X104436784Y-146270373D03*
X104153942Y-145987530D03*
X103871099Y-145704688D03*
X103588256Y-145421845D03*
X103305414Y-145139002D03*
X103022571Y-144856159D03*
X102739728Y-144573317D03*
X102456885Y-144290474D03*
X102174043Y-144007631D03*
X101891200Y-143724789D03*
X101608357Y-143441946D03*
X101325515Y-143159103D03*
X101042672Y-142876260D03*
X100759829Y-142593418D03*
X100476986Y-142310575D03*
X100194144Y-142027732D03*
D69*
X98125856Y-142027732D03*
X97843014Y-142310575D03*
X97560171Y-142593418D03*
X97277328Y-142876260D03*
X96994485Y-143159103D03*
X96711643Y-143441946D03*
X96428800Y-143724789D03*
X96145957Y-144007631D03*
X95863115Y-144290474D03*
X95580272Y-144573317D03*
X95297429Y-144856159D03*
X95014586Y-145139002D03*
X94731744Y-145421845D03*
X94448901Y-145704688D03*
X94166058Y-145987530D03*
X93883216Y-146270373D03*
X93600373Y-146553216D03*
X93317530Y-146836058D03*
X93034688Y-147118901D03*
X92751845Y-147401744D03*
X92469002Y-147684586D03*
X92186159Y-147967429D03*
X91903317Y-148250272D03*
X91620474Y-148533115D03*
X91337631Y-148815957D03*
X91054789Y-149098800D03*
X90771946Y-149381643D03*
X90489103Y-149664485D03*
X90206260Y-149947328D03*
X89923418Y-150230171D03*
X89640575Y-150513014D03*
X89357732Y-150795856D03*
D70*
X99160000Y-151830000D03*
M02*
