M48
; DRILL file {KiCad 7.0.8} date 2023 October 29, Sunday 22:50:49
; FORMAT={-:-/ absolute / metric / decimal}
; #@! TF.CreationDate,2023-10-29T22:50:49+01:00
; #@! TF.GenerationSoftware,Kicad,Pcbnew,7.0.8
; #@! TF.FileFunction,NonPlated,1,4,NPTH
FMAT,2
METRIC
; #@! TA.AperFunction,NonPlated,NPTH,ComponentDrill
T1C0.500
; #@! TA.AperFunction,NonPlated,NPTH,ComponentDrill
T2C1.000
; #@! TA.AperFunction,NonPlated,NPTH,ComponentDrill
T3C1.300
; #@! TA.AperFunction,NonPlated,NPTH,ComponentDrill
T4C2.440
; #@! TA.AperFunction,NonPlated,NPTH,ComponentDrill
T5C5.000
%
G90
G05
T1
X-18.86Y163.83
X-18.86Y-6.17
X-18.06Y163.83
X-18.06Y-6.17
X-17.26Y163.83
X-17.26Y-6.17
X-16.46Y163.83
X-16.46Y-6.17
X-15.66Y163.83
X-15.66Y-6.17
X-14.86Y163.83
X-14.86Y-6.17
X-14.06Y163.83
X-14.06Y-6.17
X-13.26Y163.83
X-13.26Y-6.17
X-12.46Y163.83
X-12.46Y-6.17
X-10.16Y109.23
X-10.16Y108.43
X-10.16Y107.63
X-10.16Y106.83
X-10.16Y106.03
X-10.16Y105.23
X-10.16Y104.43
X-10.16Y53.23
X-10.16Y52.43
X-10.16Y51.63
X-10.16Y50.83
X-10.16Y50.03
X-10.16Y49.23
X-10.16Y48.43
X44.44Y163.83
X44.44Y-6.17
X45.24Y163.83
X45.24Y-6.17
X46.04Y163.83
X46.04Y-6.17
X46.84Y163.83
X46.84Y-6.17
X47.64Y163.83
X47.64Y-6.17
X48.44Y163.83
X48.44Y-6.17
X49.24Y163.83
X49.24Y-6.17
X100.44Y163.83
X100.44Y-6.17
X101.24Y163.83
X101.24Y-6.17
X102.04Y163.83
X102.04Y-6.17
X102.84Y163.83
X102.84Y-6.17
X103.64Y163.83
X103.64Y-6.17
X104.44Y163.83
X104.44Y-6.17
X105.24Y163.83
X105.24Y-6.17
X159.84Y109.23
X159.84Y108.43
X159.84Y107.63
X159.84Y106.83
X159.84Y106.03
X159.84Y105.23
X159.84Y104.43
X159.84Y53.23
X159.84Y52.43
X159.84Y51.63
X159.84Y50.83
X159.84Y50.03
X159.84Y49.23
X159.84Y48.43
X162.14Y163.83
X162.14Y-6.17
X162.94Y163.83
X162.94Y-6.17
X163.74Y163.83
X163.74Y-6.17
X164.54Y163.83
X164.54Y-6.17
X165.34Y163.83
X165.34Y-6.17
X166.14Y163.83
X166.14Y-6.17
X166.94Y163.83
X166.94Y-6.17
X167.74Y163.83
X167.74Y-6.17
X168.54Y163.83
X168.54Y-6.17
T2
X36.05Y-1.3
X44.05Y-1.3
T3
X119.322Y56.34
X141.822Y153.031
X141.822Y140.531
T4
X53.565Y1.575
X79.205Y1.575
X124.845Y1.575
T5
X41.825Y78.0
X41.825Y56.0
X107.825Y78.0
X107.825Y56.0
T0
M30
