M48
; DRILL file {KiCad 7.0.8} date 2023 October 29, Sunday 22:50:49
; FORMAT={-:-/ absolute / metric / decimal}
; #@! TF.CreationDate,2023-10-29T22:50:49+01:00
; #@! TF.GenerationSoftware,Kicad,Pcbnew,7.0.8
; #@! TF.FileFunction,Plated,1,4,PTH
FMAT,2
METRIC
; #@! TA.AperFunction,Plated,PTH,ViaDrill
T1C0.300
; #@! TA.AperFunction,Plated,PTH,ComponentDrill
T2C0.300
; #@! TA.AperFunction,Plated,PTH,ViaDrill
T3C0.400
; #@! TA.AperFunction,Plated,PTH,ViaDrill
T4C0.600
; #@! TA.AperFunction,Plated,PTH,ComponentDrill
T5C0.750
; #@! TA.AperFunction,Plated,PTH,ComponentDrill
T6C0.800
; #@! TA.AperFunction,Plated,PTH,ComponentDrill
T7C0.813
; #@! TA.AperFunction,Plated,PTH,ComponentDrill
T8C0.900
; #@! TA.AperFunction,Plated,PTH,ComponentDrill
T9C1.000
; #@! TA.AperFunction,Plated,PTH,ComponentDrill
T10C1.016
; #@! TA.AperFunction,Plated,PTH,ComponentDrill
T11C1.020
; #@! TA.AperFunction,Plated,PTH,ComponentDrill
T12C1.090
; #@! TA.AperFunction,Plated,PTH,ComponentDrill
T13C1.100
; #@! TA.AperFunction,Plated,PTH,ComponentDrill
T14C1.200
; #@! TA.AperFunction,Plated,PTH,ComponentDrill
T15C1.400
; #@! TA.AperFunction,Plated,PTH,ComponentDrill
T16C1.500
; #@! TA.AperFunction,Plated,PTH,ComponentDrill
T17C2.300
; #@! TA.AperFunction,Plated,PTH,ComponentDrill
T18C2.350
; #@! TA.AperFunction,Plated,PTH,ComponentDrill
T19C3.050
; #@! TA.AperFunction,Plated,PTH,ComponentDrill
T20C3.200
; #@! TA.AperFunction,Plated,PTH,ComponentDrill
T21C4.000
%
G90
G05
T1
X-0.05Y140.3
X2.8Y117.75
X3.9Y79.63
X4.3Y120.75
X4.5Y119.75
X4.6Y87.4
X5.3Y116.4
X5.5Y145.4
X5.7Y118.8
X6.1Y110.7
X6.1Y6.1
X6.15Y113.75
X11.0Y134.5
X12.0Y51.0
X12.4Y61.25
X13.25Y59.5
X13.75Y54.25
X13.9Y33.5
X14.52Y125.99
X14.7Y88.7
X14.98Y148.7
X15.25Y42.5
X15.25Y39.5
X15.25Y36.5
X15.25Y33.5
X15.73Y55.75
X15.85Y150.27
X16.0Y156.1
X16.2Y89.8
X16.5Y138.75
X18.0Y144.1
X18.0Y115.1
X18.25Y58.25
X18.5Y14.25
X18.6Y44.4
X18.9Y125.6
X18.9Y124.8
X19.35Y132.85
X19.5Y143.1
X19.5Y24.0
X19.975Y58.025
X19.975Y57.25
X19.975Y56.475
X20.15Y132.85
X20.15Y54.75
X20.55Y59.6
X20.75Y58.025
X20.75Y57.25
X20.75Y56.475
X20.75Y48.25
X21.5Y136.8
X21.525Y58.025
X21.525Y57.25
X21.525Y56.475
X22.0Y137.25
X22.45Y138.55
X22.5Y136.8
X22.75Y61.55
X23.0Y137.25
X23.5Y142.2
X23.75Y137.25
X23.75Y61.45
X24.425Y139.425
X24.45Y137.25
X24.45Y115.05
X24.5Y23.5
X25.0Y116.6
X25.0Y114.6
X25.1Y53.25
X25.15Y51.7
X25.5Y142.2
X25.5Y116.1
X25.5Y114.1
X25.75Y66.75
X25.77Y59.0
X25.8Y143.8
X27.5Y53.25
X28.0Y117.05
X28.0Y58.2
X28.4Y141.4
X28.4Y137.3
X28.5Y132.9
X28.5Y121.2
X28.5Y67.5
X28.9Y140.8
X29.55Y60.75
X29.7Y51.4
X29.9Y145.6
X30.1Y128.7
X30.1Y127.7
X30.3Y130.6
X30.3Y122.55
X30.4Y132.9
X30.4Y60.75
X30.5Y145.0
X31.25Y9.0
X31.5Y147.2
X32.0Y151.5
X32.2Y147.8
X32.2Y146.7
X33.965Y22.55
X34.1Y143.8
X34.3Y126.0
X34.4Y124.85
X34.5Y129.9
X34.9Y129.2
X34.9Y125.45
X35.0Y114.5
X35.5Y126.8
X36.5Y129.3
X37.0Y28.0
X37.1Y127.0
X37.5Y16.6
X37.75Y130.0
X38.0Y140.8
X38.4Y141.4
X38.5Y124.15
X38.7Y135.0
X38.7Y134.0
X38.7Y16.6
X39.0Y124.6
X39.5Y124.15
X39.8Y16.6
X40.0Y124.6
X40.0Y23.0
X40.5Y124.15
X40.5Y15.06
X41.0Y124.6
X41.0Y16.6
X41.25Y132.25
X41.5Y123.4
X42.2Y16.6
X43.8Y16.6
X44.25Y67.26
X46.0Y16.6
X46.1Y70.5
X46.1Y50.4
X47.7Y62.25
X48.3Y62.75
X49.4Y61.764
X49.6Y123.4
X51.2Y136.25
X51.2Y134.25
X52.3Y40.44
X52.4Y126.4
X52.6Y153.8
X52.65Y3.85
X53.8Y125.5
X54.75Y70.5
X55.1Y121.4
X55.1Y110.145
X55.15Y60.5
X55.4Y142.1
X55.4Y140.6
X56.0Y142.1
X56.0Y140.6
X56.4Y60.5
X56.41Y117.5
X57.0Y99.0
X57.0Y92.75
X57.65Y60.5
X57.7Y123.3
X57.7Y51.5
X57.7Y50.0
X58.75Y25.25
X58.95Y60.5
X58.95Y51.5
X58.95Y50.5
X58.96Y117.5
X58.96Y112.0
X60.5Y21.47
X60.5Y19.69
X60.5Y18.275
X60.5Y16.75
X61.75Y84.75
X62.1Y51.3
X62.5Y8.8
X62.76Y50.0
X63.4Y52.0
X64.03Y77.65
X64.05Y91.05
X64.05Y51.5
X64.65Y91.55
X64.65Y82.5
X65.3Y112.8
X65.3Y107.2
X65.3Y91.05
X65.3Y77.65
X65.4Y8.8
X65.9Y91.557
X65.9Y82.478
X66.0Y23.15
X66.4Y38.8
X66.52Y20.3
X66.55Y60.5
X67.2Y24.225
X67.46Y55.99
X67.66Y50.3
X67.66Y49.3
X67.8Y7.2
X67.81Y20.44
X68.0Y8.3
X68.08Y19.69
X68.118Y55.99
X68.118Y49.8
X68.34Y23.88
X68.5Y92.75
X68.5Y84.75
X68.595Y24.475
X68.832Y55.99
X68.832Y49.8
X69.067Y27.453
X69.3Y50.3
X69.3Y49.3
X69.4Y17.3
X69.5Y55.99
X69.9Y9.8
X70.0Y7.2
X70.3Y22.5
X70.35Y60.5
X70.6Y9.3
X70.9Y22.2
X70.95Y90.8
X70.95Y82.5
X71.13Y27.74
X71.23Y21.6
X71.5Y93.55
X71.6Y90.6
X71.65Y77.65
X71.9Y22.7
X72.09Y30.47
X72.176Y27.976
X72.5Y21.7
X72.5Y19.8
X72.62Y24.18
X72.7Y7.25
X72.74Y24.87
X72.9Y112.8
X72.9Y9.0
X73.35Y12.85
X73.39Y49.09
X73.39Y48.09
X73.39Y41.4
X73.39Y40.4
X73.51Y24.91
X73.67Y25.6
X73.86Y48.59
X73.86Y40.9
X74.1Y10.1
X74.46Y26.24
X74.55Y33.9
X74.56Y48.59
X74.56Y40.9
X74.656Y30.586
X74.84Y31.52
X74.93Y25.55
X75.03Y49.09
X75.03Y48.09
X75.03Y41.4
X75.03Y40.4
X75.06Y12.07
X75.25Y92.0
X75.42Y26.06
X75.86Y27.93
X75.9Y26.88
X76.13Y51.59
X76.3Y28.5
X76.5Y22.5
X76.5Y21.5
X76.6Y33.6
X76.7Y118.5
X76.75Y60.5
X77.06Y45.74
X77.07Y44.19
X77.3Y33.26
X77.3Y8.7
X77.405Y28.795
X77.42Y82.44
X77.6Y45.3
X77.6Y44.64
X77.69Y29.7
X77.7Y27.9
X77.82Y51.79
X77.82Y50.79
X78.0Y15.1
X78.13Y45.74
X78.13Y44.19
X78.2Y28.5
X78.3Y51.28
X78.5Y14.5
X78.65Y29.8
X78.8Y29.0
X78.97Y51.28
X79.13Y47.62
X79.13Y46.18
X79.25Y84.75
X79.46Y51.79
X79.49Y63.17
X79.52Y61.51
X79.56Y50.97
X79.63Y47.23
X79.63Y46.57
X79.7Y26.7
X80.0Y62.7
X80.0Y62.0
X80.13Y47.62
X80.13Y46.18
X80.46Y61.48
X80.5Y29.7
X80.51Y63.17
X80.9Y28.0
X81.28Y25.46
X81.334Y32.536
X81.4Y11.6
X81.43Y26.31
X81.95Y25.46
X82.0Y22.0
X82.2Y17.0
X82.4Y12.6
X82.7Y34.6
X82.84Y26.26
X83.0Y99.0
X83.1Y9.8
X83.23Y24.42
X83.32Y26.78
X83.6Y31.43
X83.74Y63.6
X83.74Y61.96
X83.83Y25.16
X84.24Y63.14
X84.24Y62.42
X84.34Y24.6
X84.49Y25.65
X84.6Y30.1
X84.6Y14.65
X84.74Y63.6
X84.74Y61.96
X84.76Y49.56
X84.81Y48.6
X84.965Y23.8
X85.233Y23.2
X85.25Y127.85
X85.27Y49.1
X85.279Y28.561
X85.3Y138.75
X85.3Y137.5
X85.448Y30.938
X85.61Y52.28
X85.97Y49.1
X86.0Y23.8
X86.23Y60.41
X86.35Y20.2
X86.4Y22.3
X86.4Y12.9
X86.5Y16.8
X86.55Y23.35
X86.58Y49.55
X86.6Y48.67
X86.73Y35.62
X86.85Y22.75
X87.25Y49.15
X87.541Y26.299
X87.543Y15.157
X87.8Y6.8
X87.95Y49.15
X88.4Y14.7
X88.42Y48.65
X88.5Y49.57
X88.7Y98.0
X88.701Y96.401
X88.8Y60.4
X89.25Y22.5
X89.3Y131.75
X89.37Y19.66
X89.4Y56.2
X89.43Y73.53
X89.614Y25.415
X90.05Y42.05
X90.15Y22.5
X90.25Y101.8
X90.293Y26.093
X90.5Y137.4
X90.7Y118.5
X90.7Y73.55
X90.7Y41.7
X90.7Y16.0
X91.3Y21.9
X91.34Y108.22
X91.35Y44.85
X91.8Y101.1
X91.97Y85.3
X91.97Y73.55
X91.97Y44.22
X92.0Y18.4
X92.425Y10.175
X92.6Y47.3
X92.8Y99.4
X93.1Y18.673
X93.225Y46.65
X93.24Y83.2
X93.45Y60.38
X94.51Y47.95
X94.6Y96.6
X95.06Y10.01
X95.07Y123.2
X95.15Y130.7
X95.47Y10.53
X96.0Y96.9
X96.1Y127.9
X96.1Y112.8
X96.3Y25.75
X97.0Y10.3
X97.1Y113.8
X97.5Y127.9
X98.3Y118.5
X98.4Y10.9
X99.5Y131.05
X99.5Y71.0
X100.5Y52.15
X101.1Y52.65
X102.2Y106.2
X104.0Y34.0
X106.0Y42.0
X107.59Y51.09
X107.59Y49.45
X108.1Y50.6
X108.1Y49.94
X108.59Y51.09
X108.59Y49.45
X109.0Y129.7
X111.25Y53.75
X111.4Y128.9
X114.25Y20.75
X117.3Y134.7
X119.5Y132.3
X123.0Y68.5
X124.0Y67.0
X124.75Y5.5
X126.11Y132.3
X135.75Y26.0
X137.6Y2.1
X144.5Y3.5
X145.7Y26.8
X147.7Y134.7
X150.25Y7.45
X151.0Y54.0
X153.3Y14.0
X153.3Y6.55
X153.4Y49.1
X154.77Y14.01
T2
X-2.75Y0.0
X-1.95Y1.95
X-1.95Y-1.95
X0.0Y2.75
X0.0Y-2.75
X1.95Y1.95
X1.95Y-1.95
X2.75Y0.0
X20.11Y157.48
X20.91Y159.43
X20.91Y155.53
X22.86Y160.23
X22.86Y154.73
X24.81Y159.43
X24.81Y155.53
X25.61Y157.48
X91.143Y97.05
X91.143Y96.05
X92.143Y97.05
X92.143Y96.05
X152.19Y157.48
X152.19Y0.0
X152.99Y159.43
X152.99Y155.53
X152.99Y1.95
X152.99Y-1.95
X154.94Y160.23
X154.94Y154.73
X154.94Y2.75
X154.94Y-2.75
X156.89Y159.43
X156.89Y155.53
X156.89Y1.95
X156.89Y-1.95
X157.69Y157.48
X157.69Y0.0
T3
X14.9Y108.303
X55.7Y9.9
X96.75Y19.4
X103.0Y25.0
X129.7Y126.3
X134.295Y151.9
X158.0Y31.5
T4
X37.9Y93.6
X44.3Y157.4
X44.3Y114.4
X51.0Y7.0
X52.3Y78.1
X52.3Y12.4
X52.5Y148.0
X55.54Y18.5
X91.25Y37.2
T5
X56.705Y2.575
X56.705Y-1.425
X57.705Y4.575
X57.705Y0.575
X58.705Y2.575
X58.705Y-1.425
X59.705Y4.575
X59.705Y0.575
X60.705Y2.575
X60.705Y-1.425
X61.705Y4.575
X61.705Y0.575
X62.705Y2.575
X62.705Y-1.425
X63.705Y4.575
X63.705Y0.575
X64.705Y2.575
X64.705Y-1.425
X65.705Y4.575
X65.705Y0.575
X66.705Y2.575
X66.705Y-1.425
X67.705Y4.575
X67.705Y0.575
X68.705Y2.575
X68.705Y-1.425
X69.705Y4.575
X69.705Y0.575
X70.705Y2.575
X70.705Y-1.425
X71.705Y4.575
X71.705Y0.575
X72.705Y2.575
X72.705Y-1.425
X73.705Y4.575
X73.705Y0.575
X74.705Y2.575
X74.705Y-1.425
X75.705Y4.575
X75.705Y0.575
X76.705Y2.575
X76.705Y-1.425
X81.705Y4.575
X81.705Y0.575
X82.705Y2.575
X82.705Y-1.425
X83.705Y4.575
X83.705Y0.575
X84.705Y2.575
X84.705Y-1.425
X85.705Y4.575
X85.705Y0.575
X86.705Y2.575
X86.705Y-1.425
X87.705Y4.575
X87.705Y0.575
X88.705Y2.575
X88.705Y-1.425
X89.705Y4.575
X89.705Y0.575
X90.705Y2.575
X90.705Y-1.425
X91.705Y4.575
X91.705Y0.575
X92.705Y2.575
X92.705Y-1.425
X93.705Y4.575
X93.705Y0.575
X94.705Y2.575
X94.705Y-1.425
X95.705Y4.575
X95.705Y0.575
X96.705Y2.575
X96.705Y-1.425
X97.705Y4.575
X97.705Y0.575
X98.705Y2.575
X98.705Y-1.425
X99.705Y4.575
X99.705Y0.575
X100.705Y2.575
X100.705Y-1.425
X101.705Y4.575
X101.705Y0.575
X102.705Y2.575
X102.705Y-1.425
X103.705Y4.575
X103.705Y0.575
X104.705Y2.575
X104.705Y-1.425
X105.705Y4.575
X105.705Y0.575
X106.705Y2.575
X106.705Y-1.425
X107.705Y4.575
X107.705Y0.575
X108.705Y2.575
X108.705Y-1.425
X109.705Y4.575
X109.705Y0.575
X110.705Y2.575
X110.705Y-1.425
X111.705Y4.575
X111.705Y0.575
X112.705Y2.575
X112.705Y-1.425
X113.705Y4.575
X113.705Y0.575
X114.705Y2.575
X114.705Y-1.425
X115.705Y4.575
X115.705Y0.575
X116.705Y2.575
X116.705Y-1.425
X117.705Y4.575
X117.705Y0.575
X118.705Y2.575
X118.705Y-1.425
X119.705Y4.575
X119.705Y0.575
X120.705Y2.575
X120.705Y-1.425
X121.705Y4.575
X121.705Y0.575
X144.19Y59.5
X145.46Y58.5
X146.73Y58.5
X148.0Y59.5
X149.27Y58.5
X150.54Y58.5
X151.81Y59.5
T6
X1.11Y146.29
X1.11Y143.75
X1.11Y141.21
X116.37Y23.3
X116.37Y15.68
X118.91Y23.3
X118.91Y15.68
X121.45Y23.3
X121.45Y15.68
X123.99Y23.3
X123.99Y15.68
X126.53Y23.3
X126.53Y15.68
X129.07Y23.3
X129.07Y15.68
X131.61Y23.3
X131.61Y15.68
T7
X126.249Y36.0
X132.751Y36.0
X149.249Y36.0
X155.751Y36.0
T8
X144.6Y-2.0
X145.87Y-2.0
X147.14Y-2.0
X148.41Y-2.0
T9
X-2.39Y126.81
X-2.39Y124.04
X-2.39Y121.27
X-2.39Y118.5
X-2.39Y115.73
X-2.39Y112.96
X-2.39Y110.19
X-1.92Y87.16
X-1.92Y84.39
X-1.92Y81.62
X-1.92Y78.85
X-1.8Y161.0
X-1.8Y158.5
X-1.8Y156.0
X-1.8Y153.5
X-1.8Y151.0
X0.45Y128.195
X0.45Y125.425
X0.45Y122.655
X0.45Y119.885
X0.45Y117.115
X0.45Y114.345
X0.45Y111.575
X0.45Y108.805
X0.92Y88.545
X0.92Y85.775
X0.92Y83.005
X0.92Y80.235
X0.92Y77.465
X3.08Y59.3
X3.08Y56.8
X3.08Y54.8
X3.08Y52.3
X3.2Y159.75
X3.2Y157.25
X3.2Y154.75
X3.2Y152.25
X3.86Y21.54
X3.86Y19.0
X3.86Y17.0
X3.86Y14.46
X5.68Y59.3
X5.68Y56.8
X5.68Y54.8
X5.68Y52.3
X6.48Y21.54
X6.48Y19.0
X6.48Y17.0
X6.48Y14.46
X8.2Y159.75
X8.2Y157.25
X8.2Y154.75
X8.2Y152.25
X10.8Y22.445
X10.8Y19.905
X10.8Y17.365
X10.8Y14.825
X13.34Y21.175
X13.34Y18.635
X13.34Y16.095
X13.34Y13.55
X16.17Y25.2
X16.17Y22.66
X16.17Y13.34
X16.17Y10.8
T10
X4.96Y66.25
X6.0Y100.0
X6.0Y97.46
X6.0Y94.92
X6.0Y92.38
X6.73Y129.93
X6.73Y127.39
X6.73Y124.85
X6.73Y122.31
X6.73Y119.77
X6.73Y117.23
X6.73Y114.69
X6.73Y112.15
X6.73Y109.61
X6.73Y107.07
X7.5Y66.25
X9.27Y129.93
X9.27Y127.39
X9.27Y124.85
X9.27Y122.31
X9.27Y119.77
X9.27Y117.23
X9.27Y114.69
X9.27Y112.15
X9.27Y109.61
X9.27Y107.07
X10.04Y66.25
X20.96Y41.5
X20.96Y38.5
X20.96Y35.5
X20.96Y32.5
X23.5Y41.5
X23.5Y38.5
X23.5Y35.5
X23.5Y32.5
X26.04Y41.5
X26.04Y38.5
X26.04Y35.5
X26.04Y32.5
X29.98Y55.75
X32.52Y55.75
X36.46Y151.0
X36.46Y148.0
X39.0Y151.0
X39.0Y148.0
X41.54Y151.0
X41.54Y148.0
X56.69Y129.0
X59.23Y129.0
X61.77Y129.0
X64.31Y129.0
X72.3Y139.0
X72.3Y136.0
X72.3Y133.0
X74.84Y139.0
X74.84Y136.0
X74.84Y133.0
X77.38Y139.0
X77.38Y136.0
X77.38Y133.0
X115.96Y37.0
X117.96Y64.5
X118.5Y37.0
X120.5Y64.5
X121.04Y37.0
X123.04Y64.5
X129.96Y60.5
X132.11Y109.43
X132.11Y86.57
X132.5Y60.5
X134.65Y109.43
X134.65Y86.57
X135.04Y60.5
X137.19Y109.43
X137.19Y86.57
X139.73Y109.43
X139.73Y86.57
X140.46Y161.0
X140.46Y148.5
X140.48Y23.81
X140.48Y21.27
X140.48Y18.73
X140.48Y16.19
X142.27Y109.43
X142.27Y86.57
X143.0Y161.0
X143.0Y148.5
X143.0Y48.54
X143.0Y46.0
X143.0Y43.46
X143.0Y36.31
X143.0Y33.77
X143.0Y31.23
X143.0Y28.69
X143.02Y23.81
X143.02Y21.27
X143.02Y18.73
X143.02Y16.19
X144.81Y109.43
X144.81Y86.57
X145.54Y161.0
X145.54Y148.5
X147.35Y109.43
X147.35Y86.57
X149.89Y109.43
X149.89Y86.57
X154.5Y144.27
X154.5Y141.73
T11
X116.782Y58.5
X119.322Y58.5
X121.862Y58.5
X124.402Y58.5
X139.282Y155.191
X139.282Y142.691
X141.822Y155.191
X141.822Y142.691
X144.362Y155.191
X144.362Y142.691
X146.902Y155.191
X146.902Y142.691
T12
X56.69Y135.5
X59.23Y135.5
X61.77Y135.5
X64.31Y135.5
T13
X-1.6Y40.4
X-1.6Y38.3
X-1.6Y35.7
X-1.6Y33.6
X-1.51Y146.29
X-1.51Y141.21
X0.9Y40.4
X0.9Y33.6
X5.4Y40.4
X5.4Y38.3
X5.4Y35.7
X5.4Y33.6
X7.9Y40.4
X7.9Y33.6
T14
X15.6Y78.0
X35.95Y78.0
T15
X60.9Y157.75
X60.9Y152.25
X65.1Y157.75
X65.1Y152.25
X69.3Y157.75
X69.3Y152.25
X73.5Y157.75
X73.5Y152.25
X77.7Y157.75
X77.7Y152.25
X81.9Y157.75
X81.9Y152.25
X86.1Y157.75
X86.1Y152.25
X90.3Y157.75
X90.3Y152.25
X94.5Y157.75
X94.5Y152.25
X98.7Y157.75
X98.7Y152.25
X102.9Y157.75
X102.9Y152.25
X107.1Y157.75
X107.1Y152.25
T16
X141.52Y59.0
X154.48Y59.0
T17
X-5.6Y162.04
X-5.6Y149.96
X-5.4Y37.0
X-4.6Y43.75
X-4.6Y30.25
X0.38Y62.35
X0.38Y49.25
X5.4Y43.75
X5.4Y30.25
X5.7Y162.04
X5.7Y149.96
X6.08Y62.35
X6.08Y49.25
T18
X-1.8Y27.325
X-1.8Y8.675
X0.8Y24.57
X0.8Y11.43
X6.48Y24.57
X6.48Y11.43
X10.8Y27.325
X10.8Y8.675
T19
X-0.5Y95.5
X-0.5Y70.51
T20
X-0.97Y135.15
X-0.97Y101.85
T21
X0.0Y0.0
X22.86Y157.48
X154.94Y157.48
X154.94Y0.0
T0
M30
