M48
; DRILL file {KiCad 8.0.6} date 2025-01-15T23:32:22+0100
; FORMAT={-:-/ absolute / metric / decimal}
; #@! TF.CreationDate,2025-01-15T23:32:22+01:00
; #@! TF.GenerationSoftware,Kicad,Pcbnew,8.0.6
; #@! TF.FileFunction,Plated,1,4,PTH
FMAT,2
METRIC
; #@! TA.AperFunction,Plated,PTH,ViaDrill
T1C0.300
; #@! TA.AperFunction,Plated,PTH,ComponentDrill
T2C0.300
; #@! TA.AperFunction,Plated,PTH,ViaDrill
T3C0.400
; #@! TA.AperFunction,Plated,PTH,ComponentDrill
T4C0.750
; #@! TA.AperFunction,Plated,PTH,ComponentDrill
T5C0.800
; #@! TA.AperFunction,Plated,PTH,ComponentDrill
T6C0.813
; #@! TA.AperFunction,Plated,PTH,ComponentDrill
T7C0.900
; #@! TA.AperFunction,Plated,PTH,ComponentDrill
T8C1.000
; #@! TA.AperFunction,Plated,PTH,ComponentDrill
T9C1.016
; #@! TA.AperFunction,Plated,PTH,ComponentDrill
T10C1.020
; #@! TA.AperFunction,Plated,PTH,ComponentDrill
T11C1.090
; #@! TA.AperFunction,Plated,PTH,ComponentDrill
T12C1.100
; #@! TA.AperFunction,Plated,PTH,ComponentDrill
T13C1.200
; #@! TA.AperFunction,Plated,PTH,ComponentDrill
T14C1.400
; #@! TA.AperFunction,Plated,PTH,ComponentDrill
T15C1.500
; #@! TA.AperFunction,Plated,PTH,ComponentDrill
T16C2.300
; #@! TA.AperFunction,Plated,PTH,ComponentDrill
T17C2.350
; #@! TA.AperFunction,Plated,PTH,ComponentDrill
T18C3.050
; #@! TA.AperFunction,Plated,PTH,ComponentDrill
T19C3.200
; #@! TA.AperFunction,Plated,PTH,ComponentDrill
T20C4.000
%
G90
G05
T1
X20.11Y-33.53
X22.96Y-56.08
X24.06Y-94.2
X24.46Y-53.08
X24.66Y-54.08
X24.76Y-86.43
X25.46Y-57.43
X25.66Y-28.43
X25.86Y-55.03
X26.26Y-63.13
X26.26Y-167.73
X26.31Y-60.08
X31.16Y-39.33
X32.16Y-122.83
X32.56Y-112.58
X33.41Y-114.33
X33.91Y-119.58
X34.06Y-140.33
X34.68Y-47.84
X34.86Y-85.13
X35.059Y-65.529
X35.14Y-25.13
X35.41Y-131.33
X35.41Y-134.33
X35.41Y-137.33
X35.41Y-140.33
X35.86Y-65.527
X35.89Y-118.3
X35.96Y-58.23
X36.01Y-23.56
X36.16Y-17.73
X36.36Y-84.03
X36.66Y-35.08
X38.16Y-29.73
X38.41Y-115.58
X38.66Y-159.58
X38.76Y-129.43
X39.06Y-48.23
X39.06Y-49.03
X39.41Y-129.43
X39.51Y-40.98
X39.66Y-30.73
X39.66Y-149.83
X40.135Y-115.805
X40.135Y-116.58
X40.135Y-117.355
X40.31Y-40.98
X40.31Y-119.08
X40.71Y-114.23
X40.91Y-115.805
X40.91Y-116.58
X40.91Y-117.355
X40.91Y-125.58
X41.66Y-37.03
X41.685Y-115.805
X41.685Y-116.58
X41.685Y-117.355
X42.16Y-36.58
X42.61Y-35.28
X42.66Y-37.03
X42.91Y-112.28
X43.16Y-36.58
X43.66Y-31.63
X43.91Y-36.58
X43.91Y-112.38
X44.16Y-58.43
X44.585Y-34.405
X44.61Y-36.58
X44.66Y-58.93
X44.66Y-150.33
X45.16Y-57.23
X45.16Y-59.73
X45.26Y-120.58
X45.31Y-122.13
X45.66Y-31.63
X45.66Y-57.73
X45.91Y-107.08
X45.93Y-114.83
X45.96Y-30.03
X47.66Y-120.58
X47.91Y-26.33
X48.16Y-56.78
X48.16Y-115.63
X48.56Y-32.43
X48.56Y-36.53
X48.66Y-26.83
X48.66Y-40.93
X48.66Y-52.63
X48.66Y-106.33
X49.06Y-33.03
X49.41Y-24.83
X49.71Y-113.08
X49.86Y-122.43
X49.91Y-25.58
X50.16Y-22.33
X50.26Y-45.13
X50.26Y-46.13
X50.46Y-43.23
X50.46Y-51.28
X50.56Y-40.93
X50.56Y-113.08
X50.66Y-24.83
X51.41Y-164.83
X54.125Y-151.28
X54.26Y-30.03
X54.36Y-79.83
X54.36Y-80.53
X54.46Y-47.83
X54.56Y-48.98
X54.66Y-43.93
X55.06Y-44.63
X55.06Y-48.38
X55.16Y-59.33
X55.66Y-47.03
X56.66Y-44.53
X57.26Y-46.83
X57.66Y-157.23
X57.91Y-43.83
X58.03Y-123.43
X58.16Y-33.03
X58.41Y-49.68
X58.56Y-32.43
X58.86Y-38.83
X58.86Y-39.83
X58.86Y-157.23
X58.91Y-49.23
X59.41Y-49.68
X59.91Y-49.23
X59.96Y-157.23
X60.41Y-49.68
X60.66Y-150.33
X60.66Y-158.77
X60.91Y-49.23
X61.16Y-157.23
X61.41Y-41.58
X61.41Y-50.43
X62.36Y-157.23
X63.0Y-57.33
X63.0Y-58.33
X63.96Y-157.23
X64.0Y-57.33
X64.0Y-58.33
X64.16Y-16.08
X64.16Y-17.08
X64.41Y-106.57
X65.16Y-16.08
X65.16Y-17.08
X65.76Y-123.43
X66.16Y-157.23
X66.26Y-103.33
X66.76Y-123.43
X67.86Y-111.58
X68.2Y-18.7
X68.46Y-111.08
X68.9Y-112.2
X69.6Y-178.7
X69.66Y-166.63
X69.66Y-167.33
X70.66Y-25.83
X70.66Y-26.83
X70.96Y-50.43
X71.66Y-25.83
X71.66Y-26.83
X71.91Y-94.83
X71.91Y-95.83
X71.91Y-96.83
X72.46Y-133.39
X72.51Y-20.28
X72.66Y-25.83
X72.66Y-26.83
X72.81Y-169.98
X73.16Y-94.83
X73.16Y-95.83
X73.16Y-96.83
X73.5Y-16.8
X73.6Y-21.918
X73.66Y-25.83
X73.66Y-26.83
X74.56Y-168.73
X74.86Y-38.105
X74.86Y-40.08
X74.91Y-103.33
X74.96Y-47.43
X74.96Y-48.33
X75.16Y-169.33
X75.26Y-52.43
X75.26Y-60.6
X75.26Y-63.685
X75.31Y-113.33
X75.56Y-31.73
X75.56Y-33.23
X75.7Y-151.33
X75.7Y-152.83
X75.7Y-154.33
X75.7Y-155.83
X75.7Y-157.33
X75.7Y-158.83
X75.7Y-163.83
X75.76Y-169.93
X76.16Y-31.73
X76.16Y-33.23
X76.56Y-113.33
X76.57Y-56.33
X76.66Y-165.33
X77.16Y-74.83
X77.16Y-81.08
X77.7Y-21.3
X77.81Y-113.33
X77.86Y-122.33
X77.86Y-123.83
X78.347Y-51.078
X78.46Y-163.38
X78.51Y-160.005
X78.66Y-167.03
X78.91Y-148.58
X79.11Y-113.33
X79.11Y-122.33
X79.11Y-123.33
X79.12Y-56.33
X79.12Y-61.83
X79.41Y-166.28
X80.3Y-55.4
X80.66Y-152.36
X80.66Y-154.14
X80.66Y-155.555
X80.66Y-157.08
X81.675Y-60.125
X81.91Y-89.08
X82.26Y-122.53
X82.92Y-123.83
X83.56Y-121.83
X83.56Y-122.67
X84.19Y-96.18
X84.2Y-61.4
X84.2Y-66.63
X84.21Y-82.78
X84.81Y-82.28
X84.81Y-91.33
X85.46Y-82.78
X85.46Y-96.18
X85.8Y-165.57
X86.06Y-82.273
X86.06Y-91.352
X86.16Y-150.68
X86.68Y-153.53
X86.71Y-113.33
X86.725Y-56.5
X86.73Y-95.83
X86.81Y-166.93
X87.36Y-149.605
X87.46Y-134.13
X87.62Y-117.84
X87.82Y-123.53
X87.82Y-124.53
X87.97Y-153.39
X88.0Y-66.6
X88.24Y-154.14
X88.278Y-117.84
X88.278Y-124.03
X88.5Y-149.95
X88.56Y-165.48
X88.66Y-81.08
X88.66Y-89.63
X88.755Y-149.355
X88.992Y-117.84
X88.992Y-124.03
X89.227Y-146.377
X89.275Y-56.5
X89.46Y-123.53
X89.46Y-124.53
X89.56Y-156.53
X89.66Y-117.84
X89.83Y-167.02
X90.06Y-164.03
X90.46Y-151.33
X90.51Y-113.33
X90.56Y-122.23
X90.76Y-164.53
X91.06Y-151.63
X91.11Y-84.13
X91.11Y-91.33
X91.29Y-146.09
X91.39Y-152.23
X91.66Y-80.28
X91.76Y-84.43
X91.81Y-96.18
X91.825Y-56.5
X91.86Y-176.43
X92.06Y-151.13
X92.16Y-166.13
X92.25Y-143.36
X92.336Y-145.854
X92.66Y-152.13
X92.66Y-154.03
X92.78Y-149.65
X92.9Y-148.96
X93.0Y-54.2
X93.035Y-164.83
X93.51Y-160.98
X93.55Y-124.74
X93.55Y-125.74
X93.55Y-132.43
X93.55Y-133.43
X93.67Y-148.92
X93.685Y-164.83
X93.83Y-148.23
X94.02Y-125.24
X94.02Y-132.93
X94.3Y-61.03
X94.3Y-66.6
X94.62Y-147.59
X94.71Y-139.93
X94.72Y-125.24
X94.72Y-132.93
X94.816Y-143.244
X95.0Y-142.31
X95.09Y-148.28
X95.19Y-124.74
X95.19Y-125.74
X95.19Y-132.43
X95.19Y-133.43
X95.22Y-161.76
X95.41Y-81.83
X95.58Y-147.77
X96.02Y-145.9
X96.06Y-146.95
X96.29Y-122.24
X96.46Y-145.33
X96.66Y-151.33
X96.66Y-152.33
X96.76Y-140.23
X96.86Y-55.33
X96.91Y-113.33
X97.22Y-128.09
X97.23Y-129.64
X97.46Y-140.57
X97.46Y-165.13
X97.565Y-145.035
X97.76Y-128.53
X97.76Y-129.19
X97.85Y-144.13
X97.86Y-145.93
X97.98Y-122.04
X97.98Y-123.04
X98.16Y-92.13
X98.16Y-95.83
X98.16Y-158.73
X98.29Y-128.09
X98.29Y-129.64
X98.36Y-145.33
X98.46Y-122.55
X98.66Y-159.33
X98.81Y-144.03
X98.96Y-144.83
X99.13Y-122.55
X99.29Y-126.21
X99.29Y-127.65
X99.62Y-122.04
X99.65Y-110.66
X99.68Y-112.32
X99.72Y-122.86
X99.79Y-126.6
X99.79Y-127.26
X99.86Y-147.13
X100.16Y-111.13
X100.16Y-111.83
X100.29Y-126.21
X100.29Y-127.65
X100.62Y-112.35
X100.66Y-144.13
X100.67Y-110.66
X101.06Y-145.83
X101.44Y-148.37
X101.494Y-141.294
X101.56Y-162.23
X101.59Y-147.52
X102.11Y-148.37
X102.16Y-151.83
X102.36Y-156.83
X102.56Y-161.23
X103.0Y-147.57
X103.16Y-74.83
X103.16Y-139.63
X103.16Y-176.83
X103.26Y-164.03
X103.39Y-149.41
X103.48Y-147.05
X103.76Y-142.4
X103.9Y-110.23
X103.9Y-111.87
X103.99Y-148.67
X104.16Y-176.83
X104.4Y-110.69
X104.4Y-111.41
X104.445Y-144.565
X104.5Y-149.23
X104.65Y-148.18
X104.76Y-159.18
X104.9Y-110.23
X104.9Y-111.87
X104.92Y-124.27
X104.97Y-125.23
X105.125Y-150.03
X105.393Y-150.63
X105.41Y-45.98
X105.43Y-124.73
X105.439Y-145.269
X105.46Y-35.08
X105.46Y-36.33
X105.608Y-142.892
X105.77Y-121.55
X106.09Y-139.01
X106.13Y-124.73
X106.16Y-150.03
X106.39Y-113.42
X106.51Y-153.63
X106.56Y-151.53
X106.56Y-160.93
X106.66Y-157.03
X106.71Y-150.48
X106.74Y-124.28
X106.76Y-125.16
X107.01Y-151.08
X107.41Y-124.68
X107.701Y-147.531
X107.703Y-158.673
X107.96Y-167.03
X108.11Y-124.68
X108.56Y-159.13
X108.58Y-125.18
X108.66Y-124.26
X108.86Y-75.83
X108.861Y-77.428
X108.96Y-113.43
X109.41Y-151.33
X109.43Y-178.63
X109.46Y-42.08
X109.53Y-154.17
X109.56Y-117.63
X109.59Y-100.3
X109.6Y-66.4
X109.774Y-148.415
X109.86Y-72.03
X109.865Y-176.33
X110.21Y-131.78
X110.31Y-151.33
X110.453Y-147.737
X110.66Y-36.43
X110.86Y-55.33
X110.86Y-100.28
X110.86Y-132.13
X110.86Y-157.83
X110.91Y-136.08
X110.91Y-137.08
X111.16Y-76.58
X111.16Y-77.83
X111.46Y-151.93
X111.51Y-128.98
X111.91Y-136.08
X111.91Y-137.08
X111.96Y-72.93
X112.13Y-88.53
X112.13Y-100.28
X112.13Y-129.61
X112.16Y-155.43
X112.41Y-76.58
X112.41Y-77.83
X112.585Y-163.655
X112.6Y-154.03
X112.76Y-126.53
X112.91Y-136.08
X112.91Y-137.08
X112.96Y-74.43
X113.385Y-127.18
X113.4Y-90.63
X113.435Y-178.79
X113.61Y-113.45
X113.88Y-155.49
X114.67Y-125.88
X114.76Y-77.23
X115.22Y-163.82
X115.23Y-50.63
X115.31Y-43.13
X115.46Y-77.03
X115.63Y-163.3
X115.865Y-176.33
X116.26Y-45.93
X116.26Y-61.03
X116.46Y-148.08
X116.9Y-154.22
X117.16Y-163.53
X117.26Y-60.03
X117.385Y-178.765
X117.66Y-45.93
X118.46Y-55.33
X118.56Y-162.93
X119.66Y-42.78
X119.66Y-102.83
X120.16Y-176.83
X120.5Y-49.6
X120.66Y-121.68
X121.26Y-121.18
X122.18Y-178.44
X122.29Y-68.08
X123.16Y-176.83
X126.16Y-131.83
X126.16Y-176.83
X126.225Y-44.925
X127.75Y-122.74
X127.75Y-124.38
X127.86Y-176.83
X128.16Y-150.83
X128.16Y-151.83
X128.16Y-152.83
X128.26Y-123.23
X128.26Y-123.89
X128.75Y-122.74
X128.75Y-124.38
X128.885Y-178.405
X129.16Y-150.83
X129.16Y-151.83
X129.16Y-152.83
X130.55Y-21.35
X131.41Y-120.08
X131.66Y-176.83
X132.185Y-158.755
X132.65Y-17.4
X132.93Y-178.59
X133.86Y-176.83
X134.41Y-153.08
X134.76Y-21.33
X136.16Y-17.03
X139.66Y-31.53
X139.865Y-176.83
X139.9Y-29.13
X141.16Y-40.83
X141.66Y-31.53
X143.16Y-105.33
X143.66Y-24.93
X143.66Y-38.13
X144.16Y-106.83
X144.91Y-168.33
X145.0Y-29.13
X150.1Y-29.13
X155.91Y-147.83
X157.76Y-171.73
X164.66Y-170.33
X165.86Y-147.03
X167.86Y-29.13
X169.91Y-32.55
X170.41Y-166.38
X171.16Y-119.83
X173.46Y-159.83
X173.46Y-167.28
X173.56Y-124.73
X174.93Y-159.82
T2
X17.41Y-173.83
X18.21Y-171.88
X18.21Y-175.78
X20.16Y-171.08
X20.16Y-176.58
X22.11Y-171.88
X22.11Y-175.78
X22.91Y-173.83
X40.27Y-16.35
X41.07Y-14.4
X41.07Y-18.3
X43.02Y-13.6
X43.02Y-19.1
X44.97Y-14.4
X44.97Y-18.3
X45.77Y-16.35
X172.35Y-16.35
X172.35Y-173.83
X173.15Y-14.4
X173.15Y-18.3
X173.15Y-171.88
X173.15Y-175.78
X175.1Y-13.6
X175.1Y-19.1
X175.1Y-171.08
X175.1Y-176.58
X177.05Y-14.4
X177.05Y-18.3
X177.05Y-171.88
X177.05Y-175.78
X177.85Y-16.35
X177.85Y-173.83
T3
X148.81Y-42.705
X178.16Y-142.33
T4
X76.865Y-171.255
X76.865Y-175.255
X77.865Y-169.255
X77.865Y-173.255
X78.865Y-171.255
X78.865Y-175.255
X79.865Y-169.255
X79.865Y-173.255
X80.865Y-171.255
X80.865Y-175.255
X81.865Y-169.255
X81.865Y-173.255
X82.865Y-171.255
X82.865Y-175.255
X83.865Y-169.255
X83.865Y-173.255
X84.865Y-171.255
X84.865Y-175.255
X85.865Y-169.255
X85.865Y-173.255
X86.865Y-171.255
X86.865Y-175.255
X87.865Y-169.255
X87.865Y-173.255
X88.865Y-171.255
X88.865Y-175.255
X89.865Y-169.255
X89.865Y-173.255
X90.865Y-171.255
X90.865Y-175.255
X91.865Y-169.255
X91.865Y-173.255
X92.865Y-171.255
X92.865Y-175.255
X93.865Y-169.255
X93.865Y-173.255
X94.865Y-171.255
X94.865Y-175.255
X95.865Y-169.255
X95.865Y-173.255
X96.865Y-171.255
X96.865Y-175.255
X101.865Y-169.255
X101.865Y-173.255
X102.865Y-171.255
X102.865Y-175.255
X103.865Y-169.255
X103.865Y-173.255
X104.865Y-171.255
X104.865Y-175.255
X105.865Y-169.255
X105.865Y-173.255
X106.865Y-171.255
X106.865Y-175.255
X107.865Y-169.255
X107.865Y-173.255
X108.865Y-171.255
X108.865Y-175.255
X109.865Y-169.255
X109.865Y-173.255
X110.865Y-171.255
X110.865Y-175.255
X111.865Y-169.255
X111.865Y-173.255
X112.865Y-171.255
X112.865Y-175.255
X113.865Y-169.255
X113.865Y-173.255
X114.865Y-171.255
X114.865Y-175.255
X115.865Y-169.255
X115.865Y-173.255
X116.865Y-171.255
X116.865Y-175.255
X117.865Y-169.255
X117.865Y-173.255
X118.865Y-171.255
X118.865Y-175.255
X119.865Y-169.255
X119.865Y-173.255
X120.865Y-171.255
X120.865Y-175.255
X121.865Y-169.255
X121.865Y-173.255
X122.865Y-171.255
X122.865Y-175.255
X123.865Y-169.255
X123.865Y-173.255
X124.865Y-171.255
X124.865Y-175.255
X125.865Y-169.255
X125.865Y-173.255
X126.865Y-171.255
X126.865Y-175.255
X127.865Y-169.255
X127.865Y-173.255
X128.865Y-171.255
X128.865Y-175.255
X129.865Y-169.255
X129.865Y-173.255
X130.865Y-171.255
X130.865Y-175.255
X131.865Y-169.255
X131.865Y-173.255
X132.865Y-171.255
X132.865Y-175.255
X133.865Y-169.255
X133.865Y-173.255
X134.865Y-171.255
X134.865Y-175.255
X135.865Y-169.255
X135.865Y-173.255
X136.865Y-171.255
X136.865Y-175.255
X137.865Y-169.255
X137.865Y-173.255
X138.865Y-171.255
X138.865Y-175.255
X139.865Y-169.255
X139.865Y-173.255
X140.865Y-171.255
X140.865Y-175.255
X141.865Y-169.255
X141.865Y-173.255
X164.35Y-114.33
X165.62Y-115.33
X166.89Y-115.33
X168.16Y-114.33
X169.43Y-115.33
X170.7Y-115.33
X171.97Y-114.33
T5
X21.27Y-27.54
X21.27Y-30.08
X21.27Y-32.62
X136.53Y-150.53
X136.53Y-158.15
X139.07Y-150.53
X139.07Y-158.15
X141.61Y-150.53
X141.61Y-158.15
X144.15Y-150.53
X144.15Y-158.15
X146.69Y-150.53
X146.69Y-158.15
X149.23Y-150.53
X149.23Y-158.15
X151.77Y-150.53
X151.77Y-158.15
T6
X146.409Y-137.83
X152.911Y-137.83
X169.409Y-137.83
X175.911Y-137.83
T7
X164.76Y-175.83
X166.03Y-175.83
X167.3Y-175.83
X168.57Y-175.83
T8
X17.77Y-47.02
X17.77Y-49.79
X17.77Y-52.56
X17.77Y-55.33
X17.77Y-58.1
X17.77Y-60.87
X17.77Y-63.64
X18.24Y-86.67
X18.24Y-89.44
X18.24Y-92.21
X18.24Y-94.98
X18.36Y-12.83
X18.36Y-15.33
X18.36Y-17.83
X18.36Y-20.33
X18.36Y-22.83
X20.61Y-45.635
X20.61Y-48.405
X20.61Y-51.175
X20.61Y-53.945
X20.61Y-56.715
X20.61Y-59.485
X20.61Y-62.255
X20.61Y-65.025
X21.08Y-85.285
X21.08Y-88.055
X21.08Y-90.825
X21.08Y-93.595
X21.08Y-96.365
X23.24Y-114.53
X23.24Y-117.03
X23.24Y-119.03
X23.24Y-121.53
X23.36Y-14.08
X23.36Y-16.58
X23.36Y-19.08
X23.36Y-21.58
X24.02Y-152.29
X24.02Y-154.83
X24.02Y-156.83
X24.02Y-159.37
X25.84Y-114.53
X25.84Y-117.03
X25.84Y-119.03
X25.84Y-121.53
X26.64Y-152.29
X26.64Y-154.83
X26.64Y-156.83
X26.64Y-159.37
X28.36Y-14.08
X28.36Y-16.58
X28.36Y-19.08
X28.36Y-21.58
X30.96Y-151.385
X30.96Y-153.925
X30.96Y-156.465
X30.96Y-159.005
X33.5Y-152.655
X33.5Y-155.195
X33.5Y-157.735
X33.5Y-160.28
X36.33Y-148.63
X36.33Y-151.17
X36.33Y-160.49
X36.33Y-163.03
T9
X25.12Y-107.58
X26.16Y-73.83
X26.16Y-76.37
X26.16Y-78.91
X26.16Y-81.45
X26.89Y-43.9
X26.89Y-46.44
X26.89Y-48.98
X26.89Y-51.52
X26.89Y-54.06
X26.89Y-56.6
X26.89Y-59.14
X26.89Y-61.68
X26.89Y-64.22
X26.89Y-66.76
X27.66Y-107.58
X29.43Y-43.9
X29.43Y-46.44
X29.43Y-48.98
X29.43Y-51.52
X29.43Y-54.06
X29.43Y-56.6
X29.43Y-59.14
X29.43Y-61.68
X29.43Y-64.22
X29.43Y-66.76
X30.2Y-107.58
X41.12Y-132.33
X41.12Y-135.33
X41.12Y-138.33
X41.12Y-141.33
X43.66Y-132.33
X43.66Y-135.33
X43.66Y-138.33
X43.66Y-141.33
X46.2Y-132.33
X46.2Y-135.33
X46.2Y-138.33
X46.2Y-141.33
X50.14Y-118.08
X52.68Y-118.08
X54.37Y-22.83
X54.37Y-25.83
X56.91Y-22.83
X56.91Y-25.83
X59.45Y-22.83
X59.45Y-25.83
X77.25Y-45.5
X79.79Y-45.5
X82.33Y-45.5
X84.87Y-45.5
X87.41Y-42.96
X87.41Y-45.5
X89.95Y-42.96
X89.95Y-45.5
X92.46Y-34.83
X92.46Y-37.83
X92.49Y-42.96
X92.49Y-45.5
X95.0Y-34.83
X95.0Y-37.83
X95.03Y-42.96
X95.03Y-45.5
X97.54Y-34.83
X97.54Y-37.83
X97.57Y-42.96
X97.57Y-45.5
X136.12Y-136.83
X138.12Y-109.33
X138.66Y-136.83
X140.66Y-109.33
X141.2Y-136.83
X143.2Y-109.33
X145.62Y-12.83
X148.16Y-12.83
X150.12Y-113.33
X150.7Y-12.83
X152.36Y-82.32
X152.36Y-105.18
X152.66Y-113.33
X154.9Y-82.32
X154.9Y-105.18
X155.2Y-113.33
X157.44Y-82.32
X157.44Y-105.18
X159.98Y-82.32
X159.98Y-105.18
X160.62Y-12.83
X160.64Y-150.02
X160.64Y-152.56
X160.64Y-155.1
X160.64Y-157.64
X162.52Y-82.32
X162.52Y-105.18
X163.16Y-12.83
X163.16Y-125.29
X163.16Y-127.83
X163.16Y-130.37
X163.16Y-137.52
X163.16Y-140.06
X163.16Y-142.6
X163.16Y-145.14
X163.18Y-150.02
X163.18Y-152.56
X163.18Y-155.1
X163.18Y-157.64
X165.06Y-82.32
X165.06Y-105.18
X165.7Y-12.83
X167.6Y-82.32
X167.6Y-105.18
X170.14Y-82.32
X170.14Y-105.18
X176.25Y-74.98
X176.25Y-77.52
T10
X136.942Y-115.33
X139.482Y-115.33
X142.022Y-115.33
X144.442Y-18.639
X144.562Y-115.33
X146.982Y-18.639
X149.522Y-18.639
X152.062Y-18.639
X159.442Y-18.639
X161.982Y-18.639
X164.522Y-18.639
X167.062Y-18.639
T11
X76.85Y-38.33
X79.39Y-38.33
X81.93Y-38.33
X84.47Y-38.33
T12
X18.56Y-133.43
X18.56Y-135.53
X18.56Y-138.13
X18.56Y-140.23
X18.65Y-27.54
X18.65Y-32.62
X21.06Y-133.43
X21.06Y-140.23
X25.56Y-133.43
X25.56Y-135.53
X25.56Y-138.13
X25.56Y-140.23
X28.06Y-133.43
X28.06Y-140.23
T13
X35.76Y-95.83
X56.11Y-95.83
T14
X81.06Y-16.08
X81.06Y-21.58
X85.26Y-16.08
X85.26Y-21.58
X89.46Y-16.08
X89.46Y-21.58
X93.66Y-16.08
X93.66Y-21.58
X97.86Y-16.08
X97.86Y-21.58
X102.06Y-16.08
X102.06Y-21.58
X106.26Y-16.08
X106.26Y-21.58
X110.46Y-16.08
X110.46Y-21.58
X114.66Y-16.08
X114.66Y-21.58
X118.86Y-16.08
X118.86Y-21.58
X123.06Y-16.08
X123.06Y-21.58
X127.26Y-16.08
X127.26Y-21.58
T15
X161.68Y-114.83
X174.64Y-114.83
T16
X14.56Y-11.79
X14.56Y-23.87
X14.76Y-136.83
X15.56Y-130.08
X15.56Y-143.58
X20.54Y-111.48
X20.54Y-124.58
X25.56Y-130.08
X25.56Y-143.58
X25.86Y-11.79
X25.86Y-23.87
X26.24Y-111.48
X26.24Y-124.58
T17
X18.36Y-146.505
X18.36Y-165.155
X20.96Y-149.26
X20.96Y-162.4
X26.64Y-149.26
X26.64Y-162.4
X30.96Y-146.505
X30.96Y-165.155
T18
X19.66Y-78.33
X19.66Y-103.32
T19
X19.19Y-38.68
X19.19Y-71.98
T20
X20.16Y-173.83
X43.02Y-16.35
X175.1Y-16.35
X175.1Y-173.83
M30
