G04 #@! TF.GenerationSoftware,KiCad,Pcbnew,8.0.6*
G04 #@! TF.CreationDate,2025-01-15T23:32:19+01:00*
G04 #@! TF.ProjectId,ITX-Llama,4954582d-4c6c-4616-9d61-2e6b69636164,F*
G04 #@! TF.SameCoordinates,Original*
G04 #@! TF.FileFunction,Profile,NP*
%FSLAX46Y46*%
G04 Gerber Fmt 4.6, Leading zero omitted, Abs format (unit mm)*
G04 Created by KiCad (PCBNEW 8.0.6) date 2025-01-15 23:32:19*
%MOMM*%
%LPD*%
G01*
G04 APERTURE LIST*
G04 #@! TA.AperFunction,Profile*
%ADD10C,0.100000*%
G04 #@! TD*
G04 APERTURE END LIST*
D10*
X1000000Y-1000000D02*
X189000000Y-1000000D01*
X1000000Y-189000000D02*
X1000000Y-1000000D01*
X8000000Y-9000000D02*
X8000000Y-63500000D01*
X8000000Y-70500000D02*
X8000000Y-119500000D01*
X8000000Y-126500000D02*
X8000000Y-181000000D01*
X10000000Y-63500000D02*
X10000000Y-11530000D01*
X10000000Y-119500000D02*
X10000000Y-70500000D01*
X10000000Y-174920000D02*
X10000000Y-126500000D01*
X15080000Y-180000000D02*
X63500000Y-180000000D01*
X63500000Y-8000000D02*
X9000000Y-8000000D01*
X63500000Y-10000000D02*
X11530000Y-10000000D01*
X63500000Y-182000000D02*
X9000000Y-182000000D01*
X70500000Y-8000000D02*
X119500000Y-8000000D01*
X70500000Y-10000000D02*
X119500000Y-10000000D01*
X70500000Y-180000000D02*
X119500000Y-180000000D01*
X70500000Y-182000000D02*
X119500000Y-182000000D01*
X126500000Y-10000000D02*
X174920000Y-10000000D01*
X126500000Y-180000000D02*
X174920000Y-180000000D01*
X180000000Y-63500000D02*
X180000000Y-15080000D01*
X180000000Y-70500000D02*
X180000000Y-119500000D01*
X180000000Y-126500000D02*
X180000000Y-174920000D01*
X181000000Y-8000000D02*
X126500000Y-8000000D01*
X181000000Y-182000000D02*
X126500000Y-182000000D01*
X182000000Y-63500000D02*
X182000000Y-9000000D01*
X182000000Y-70500000D02*
X182000000Y-119500000D01*
X182000000Y-181000000D02*
X182000000Y-126500000D01*
X189000000Y-1000000D02*
X189000000Y-189000000D01*
X189000000Y-189000000D02*
X1000000Y-189000000D01*
X8000000Y-9000000D02*
G75*
G02*
X9000000Y-8000000I999999J1D01*
G01*
X8000000Y-70500000D02*
G75*
G02*
X10000000Y-70500000I1000000J0D01*
G01*
X8000000Y-126500000D02*
G75*
G02*
X10000000Y-126500000I1000000J0D01*
G01*
X9000000Y-182000000D02*
G75*
G02*
X8000000Y-181000000I-1J999999D01*
G01*
X10000000Y-11530000D02*
G75*
G02*
X11530000Y-10000000I1530000J0D01*
G01*
X10000000Y-63500000D02*
G75*
G02*
X8000000Y-63500000I-1000000J0D01*
G01*
X10000000Y-119500000D02*
G75*
G02*
X8000000Y-119500000I-1000000J0D01*
G01*
X15080000Y-180000000D02*
G75*
G02*
X10000000Y-174920000I0J5080000D01*
G01*
X63500000Y-8000000D02*
G75*
G02*
X63500000Y-10000000I0J-1000000D01*
G01*
X63500000Y-180000000D02*
G75*
G02*
X63500000Y-182000000I0J-1000000D01*
G01*
X70500000Y-10000000D02*
G75*
G02*
X70500000Y-8000000I0J1000000D01*
G01*
X70500000Y-182000000D02*
G75*
G02*
X70500000Y-180000000I0J1000000D01*
G01*
X119500000Y-8000000D02*
G75*
G02*
X119500000Y-10000000I0J-1000000D01*
G01*
X119500000Y-180000000D02*
G75*
G02*
X119500000Y-182000000I0J-1000000D01*
G01*
X126500000Y-10000000D02*
G75*
G02*
X126500000Y-8000000I0J1000000D01*
G01*
X126500000Y-182000000D02*
G75*
G02*
X126500000Y-180000000I0J1000000D01*
G01*
X174920000Y-10000000D02*
G75*
G02*
X180000000Y-15080000I0J-5080000D01*
G01*
X180000000Y-70500000D02*
G75*
G02*
X182000000Y-70500000I1000000J0D01*
G01*
X180000000Y-126500000D02*
G75*
G02*
X182000000Y-126500000I1000000J0D01*
G01*
X180000000Y-174920000D02*
G75*
G02*
X174920000Y-180000000I-5080000J0D01*
G01*
X181000000Y-8000000D02*
G75*
G02*
X182000000Y-9000000I0J-1000000D01*
G01*
X182000000Y-63500000D02*
G75*
G02*
X180000000Y-63500000I-1000000J0D01*
G01*
X182000000Y-119500000D02*
G75*
G02*
X180000000Y-119500000I-1000000J0D01*
G01*
X182000000Y-181000000D02*
G75*
G02*
X181000000Y-182000000I-1000000J0D01*
G01*
M02*
