G04 #@! TF.GenerationSoftware,KiCad,Pcbnew,8.0.6*
G04 #@! TF.CreationDate,2025-01-15T23:32:19+01:00*
G04 #@! TF.ProjectId,ITX-Llama,4954582d-4c6c-4616-9d61-2e6b69636164,F*
G04 #@! TF.SameCoordinates,Original*
G04 #@! TF.FileFunction,Legend,Bot*
G04 #@! TF.FilePolarity,Positive*
%FSLAX46Y46*%
G04 Gerber Fmt 4.6, Leading zero omitted, Abs format (unit mm)*
G04 Created by KiCad (PCBNEW 8.0.6) date 2025-01-15 23:32:19*
%MOMM*%
%LPD*%
G01*
G04 APERTURE LIST*
%ADD10C,0.200000*%
%ADD11R,1.755000X1.755000*%
%ADD12C,1.755000*%
%ADD13C,1.397000*%
%ADD14C,0.400000*%
%ADD15C,7.000000*%
%ADD16C,2.440000*%
%ADD17R,1.200000X1.200000*%
%ADD18C,1.200000*%
%ADD19C,1.300000*%
%ADD20R,1.530000X1.530000*%
%ADD21C,1.550000*%
%ADD22C,1.600000*%
%ADD23C,1.000000*%
%ADD24C,1.700000*%
%ADD25C,0.500000*%
%ADD26R,1.397000X1.397000*%
%ADD27C,3.600000*%
%ADD28C,1.524000*%
%ADD29R,1.070000X1.800000*%
%ADD30O,1.070000X1.800000*%
%ADD31C,1.500000*%
%ADD32C,3.000000*%
%ADD33C,2.250000*%
%ADD34C,1.250000*%
%ADD35C,1.016000*%
%ADD36C,1.248000*%
%ADD37C,5.000000*%
%ADD38C,3.200000*%
%ADD39R,1.600000X1.600000*%
%ADD40O,1.600000X1.600000*%
%ADD41C,1.400000*%
%ADD42C,2.200000*%
%ADD43C,4.000000*%
G04 APERTURE END LIST*
D10*
X37814136Y-178197219D02*
X38290326Y-178197219D01*
X38290326Y-178197219D02*
X38290326Y-177197219D01*
X37337945Y-178197219D02*
X37433183Y-178149600D01*
X37433183Y-178149600D02*
X37480802Y-178054361D01*
X37480802Y-178054361D02*
X37480802Y-177197219D01*
X36528421Y-178197219D02*
X36528421Y-177673409D01*
X36528421Y-177673409D02*
X36576040Y-177578171D01*
X36576040Y-177578171D02*
X36671278Y-177530552D01*
X36671278Y-177530552D02*
X36861754Y-177530552D01*
X36861754Y-177530552D02*
X36956992Y-177578171D01*
X36528421Y-178149600D02*
X36623659Y-178197219D01*
X36623659Y-178197219D02*
X36861754Y-178197219D01*
X36861754Y-178197219D02*
X36956992Y-178149600D01*
X36956992Y-178149600D02*
X37004611Y-178054361D01*
X37004611Y-178054361D02*
X37004611Y-177959123D01*
X37004611Y-177959123D02*
X36956992Y-177863885D01*
X36956992Y-177863885D02*
X36861754Y-177816266D01*
X36861754Y-177816266D02*
X36623659Y-177816266D01*
X36623659Y-177816266D02*
X36528421Y-177768647D01*
X36052230Y-178197219D02*
X36052230Y-177530552D01*
X36052230Y-177625790D02*
X36004611Y-177578171D01*
X36004611Y-177578171D02*
X35909373Y-177530552D01*
X35909373Y-177530552D02*
X35766516Y-177530552D01*
X35766516Y-177530552D02*
X35671278Y-177578171D01*
X35671278Y-177578171D02*
X35623659Y-177673409D01*
X35623659Y-177673409D02*
X35623659Y-178197219D01*
X35623659Y-177673409D02*
X35576040Y-177578171D01*
X35576040Y-177578171D02*
X35480802Y-177530552D01*
X35480802Y-177530552D02*
X35337945Y-177530552D01*
X35337945Y-177530552D02*
X35242706Y-177578171D01*
X35242706Y-177578171D02*
X35195087Y-177673409D01*
X35195087Y-177673409D02*
X35195087Y-178197219D01*
X34290326Y-178197219D02*
X34290326Y-177673409D01*
X34290326Y-177673409D02*
X34337945Y-177578171D01*
X34337945Y-177578171D02*
X34433183Y-177530552D01*
X34433183Y-177530552D02*
X34623659Y-177530552D01*
X34623659Y-177530552D02*
X34718897Y-177578171D01*
X34290326Y-178149600D02*
X34385564Y-178197219D01*
X34385564Y-178197219D02*
X34623659Y-178197219D01*
X34623659Y-178197219D02*
X34718897Y-178149600D01*
X34718897Y-178149600D02*
X34766516Y-178054361D01*
X34766516Y-178054361D02*
X34766516Y-177959123D01*
X34766516Y-177959123D02*
X34718897Y-177863885D01*
X34718897Y-177863885D02*
X34623659Y-177816266D01*
X34623659Y-177816266D02*
X34385564Y-177816266D01*
X34385564Y-177816266D02*
X34290326Y-177768647D01*
X33861754Y-178149600D02*
X33766516Y-178197219D01*
X33766516Y-178197219D02*
X33576040Y-178197219D01*
X33576040Y-178197219D02*
X33480802Y-178149600D01*
X33480802Y-178149600D02*
X33433183Y-178054361D01*
X33433183Y-178054361D02*
X33433183Y-178006742D01*
X33433183Y-178006742D02*
X33480802Y-177911504D01*
X33480802Y-177911504D02*
X33576040Y-177863885D01*
X33576040Y-177863885D02*
X33718897Y-177863885D01*
X33718897Y-177863885D02*
X33814135Y-177816266D01*
X33814135Y-177816266D02*
X33861754Y-177721028D01*
X33861754Y-177721028D02*
X33861754Y-177673409D01*
X33861754Y-177673409D02*
X33814135Y-177578171D01*
X33814135Y-177578171D02*
X33718897Y-177530552D01*
X33718897Y-177530552D02*
X33576040Y-177530552D01*
X33576040Y-177530552D02*
X33480802Y-177578171D01*
X32242706Y-178197219D02*
X32242706Y-177530552D01*
X32242706Y-177721028D02*
X32195087Y-177625790D01*
X32195087Y-177625790D02*
X32147468Y-177578171D01*
X32147468Y-177578171D02*
X32052230Y-177530552D01*
X32052230Y-177530552D02*
X31956992Y-177530552D01*
X31195087Y-177530552D02*
X31195087Y-178197219D01*
X31623658Y-177530552D02*
X31623658Y-178054361D01*
X31623658Y-178054361D02*
X31576039Y-178149600D01*
X31576039Y-178149600D02*
X31480801Y-178197219D01*
X31480801Y-178197219D02*
X31337944Y-178197219D01*
X31337944Y-178197219D02*
X31242706Y-178149600D01*
X31242706Y-178149600D02*
X31195087Y-178101980D01*
X30576039Y-178197219D02*
X30671277Y-178149600D01*
X30671277Y-178149600D02*
X30718896Y-178054361D01*
X30718896Y-178054361D02*
X30718896Y-177197219D01*
X29814134Y-178149600D02*
X29909372Y-178197219D01*
X29909372Y-178197219D02*
X30099848Y-178197219D01*
X30099848Y-178197219D02*
X30195086Y-178149600D01*
X30195086Y-178149600D02*
X30242705Y-178054361D01*
X30242705Y-178054361D02*
X30242705Y-177673409D01*
X30242705Y-177673409D02*
X30195086Y-177578171D01*
X30195086Y-177578171D02*
X30099848Y-177530552D01*
X30099848Y-177530552D02*
X29909372Y-177530552D01*
X29909372Y-177530552D02*
X29814134Y-177578171D01*
X29814134Y-177578171D02*
X29766515Y-177673409D01*
X29766515Y-177673409D02*
X29766515Y-177768647D01*
X29766515Y-177768647D02*
X30242705Y-177863885D01*
X29337943Y-178101980D02*
X29290324Y-178149600D01*
X29290324Y-178149600D02*
X29337943Y-178197219D01*
X29337943Y-178197219D02*
X29385562Y-178149600D01*
X29385562Y-178149600D02*
X29337943Y-178101980D01*
X29337943Y-178101980D02*
X29337943Y-178197219D01*
%LPC*%
D11*
X84470000Y-38330000D03*
D12*
X81930000Y-38330000D03*
X79390000Y-38330000D03*
X76850000Y-38330000D03*
D13*
X46200000Y-141330000D03*
X43660000Y-141330000D03*
X41120000Y-141330000D03*
X59450000Y-25830000D03*
X56910000Y-25830000D03*
X54370000Y-25830000D03*
D14*
X20160000Y-176580000D03*
X18210000Y-175780000D03*
X22110000Y-175780000D03*
X17410000Y-173830000D03*
D15*
X20160000Y-173830000D03*
D14*
X22910000Y-173830000D03*
X18210000Y-171880000D03*
X22110000Y-171880000D03*
X20160000Y-171080000D03*
D13*
X163160000Y-130370000D03*
X163160000Y-127830000D03*
X163160000Y-125290000D03*
D14*
X175100000Y-176580000D03*
X173150000Y-175780000D03*
X177050000Y-175780000D03*
X172350000Y-173830000D03*
D15*
X175100000Y-173830000D03*
D14*
X177850000Y-173830000D03*
X173150000Y-171880000D03*
X177050000Y-171880000D03*
X175100000Y-171080000D03*
D16*
X73725000Y-172255200D03*
X99365000Y-172255200D03*
X145005000Y-172255200D03*
D17*
X76865000Y-171255200D03*
D18*
X77865000Y-169255200D03*
X78865000Y-171255200D03*
X79865000Y-169255200D03*
X80865000Y-171255200D03*
X81865000Y-169255200D03*
X82865000Y-171255200D03*
X83865000Y-169255200D03*
X84865000Y-171255200D03*
X85865000Y-169255200D03*
X86865000Y-171255200D03*
X87865000Y-169255200D03*
X88865000Y-171255200D03*
X89865000Y-169255200D03*
X90865000Y-171255200D03*
X91865000Y-169255200D03*
X92865000Y-171255200D03*
X93865000Y-169255200D03*
X94865000Y-171255200D03*
X95865000Y-169255200D03*
X96865000Y-171255200D03*
X101865000Y-169255200D03*
X102865000Y-171255200D03*
X103865000Y-169255200D03*
X104865000Y-171255200D03*
X105865000Y-169255200D03*
X106865000Y-171255200D03*
X107865000Y-169255200D03*
X108865000Y-171255200D03*
X109865000Y-169255200D03*
X110865000Y-171255200D03*
X111865000Y-169255200D03*
X112865000Y-171255200D03*
X113865000Y-169255200D03*
X114865000Y-171255200D03*
X115865000Y-169255200D03*
X116865000Y-171255200D03*
X117865000Y-169255200D03*
X118865000Y-171255200D03*
X119865000Y-169255200D03*
X120865000Y-171255200D03*
X121865000Y-169255200D03*
X122865000Y-171255200D03*
X123865000Y-169255200D03*
X124865000Y-171255200D03*
X125865000Y-169255200D03*
X126865000Y-171255200D03*
X127865000Y-169255200D03*
X128865000Y-171255200D03*
X129865000Y-169255200D03*
X130865000Y-171255200D03*
X131865000Y-169255200D03*
X132865000Y-171255200D03*
X133865000Y-169255200D03*
X134865000Y-171255200D03*
X135865000Y-169255200D03*
X136865000Y-171255200D03*
X137865000Y-169255200D03*
X138865000Y-171255200D03*
X139865000Y-169255200D03*
X140865000Y-171255200D03*
X141865000Y-169255200D03*
X76865000Y-175255200D03*
X77865000Y-173255200D03*
X78865000Y-175255200D03*
X79865000Y-173255200D03*
X80865000Y-175255200D03*
X81865000Y-173255200D03*
X82865000Y-175255200D03*
X83865000Y-173255200D03*
X84865000Y-175255200D03*
X85865000Y-173255200D03*
X86865000Y-175255200D03*
X87865000Y-173255200D03*
X88865000Y-175255200D03*
X89865000Y-173255200D03*
X90865000Y-175255200D03*
X91865000Y-173255200D03*
X92865000Y-175255200D03*
X93865000Y-173255200D03*
X94865000Y-175255200D03*
X95865000Y-173255200D03*
X96865000Y-175255200D03*
X101865000Y-173255200D03*
X102865000Y-175255200D03*
X103865000Y-173255200D03*
X104865000Y-175255200D03*
X105865000Y-173255200D03*
X106865000Y-175255200D03*
X107865000Y-173255200D03*
X108865000Y-175255200D03*
X109865000Y-173255200D03*
X110865000Y-175255200D03*
X111865000Y-173255200D03*
X112865000Y-175255200D03*
X113865000Y-173255200D03*
X114865000Y-175255200D03*
X115865000Y-173255200D03*
X116865000Y-175255200D03*
X117865000Y-173255200D03*
X118865000Y-175255200D03*
X119865000Y-173255200D03*
X120865000Y-175255200D03*
X121865000Y-173255200D03*
X122865000Y-175255200D03*
X123865000Y-173255200D03*
X124865000Y-175255200D03*
X125865000Y-173255200D03*
X126865000Y-175255200D03*
X127865000Y-173255200D03*
X128865000Y-175255200D03*
X129865000Y-173255200D03*
X130865000Y-175255200D03*
X131865000Y-173255200D03*
X132865000Y-175255200D03*
X133865000Y-173255200D03*
X134865000Y-175255200D03*
X135865000Y-173255200D03*
X136865000Y-175255200D03*
X137865000Y-173255200D03*
X138865000Y-175255200D03*
X139865000Y-173255200D03*
X140865000Y-175255200D03*
X141865000Y-173255200D03*
D19*
X161982000Y-20798500D03*
D20*
X167062000Y-18638500D03*
D21*
X164522000Y-18638500D03*
X161982000Y-18638500D03*
X159442000Y-18638500D03*
D13*
X160620000Y-12830000D03*
X163160000Y-12830000D03*
X165700000Y-12830000D03*
X138120000Y-109330000D03*
X140660000Y-109330000D03*
X143200000Y-109330000D03*
D22*
X56110000Y-95830000D03*
X35760000Y-95830000D03*
D23*
X56210000Y-175130000D03*
X64210000Y-175130000D03*
D19*
X21270000Y-27540000D03*
X21270000Y-30080000D03*
X21270000Y-32620000D03*
D24*
X18650000Y-27540000D03*
X18650000Y-32620000D03*
D25*
X1300000Y-10000000D03*
X1300000Y-180000000D03*
X2100000Y-10000000D03*
X2100000Y-180000000D03*
X2900000Y-10000000D03*
X2900000Y-180000000D03*
X3700000Y-10000000D03*
X3700000Y-180000000D03*
X4500000Y-10000000D03*
X4500000Y-180000000D03*
X5300000Y-10000000D03*
X5300000Y-180000000D03*
X6100000Y-10000000D03*
X6100000Y-180000000D03*
X6900000Y-10000000D03*
X6900000Y-180000000D03*
X7700000Y-10000000D03*
X7700000Y-180000000D03*
X10000000Y-64600000D03*
X10000000Y-65400000D03*
X10000000Y-66200000D03*
X10000000Y-67000000D03*
X10000000Y-67800000D03*
X10000000Y-68600000D03*
X10000000Y-69400000D03*
X10000000Y-120600000D03*
X10000000Y-121400000D03*
X10000000Y-122200000D03*
X10000000Y-123000000D03*
X10000000Y-123800000D03*
X10000000Y-124600000D03*
X10000000Y-125400000D03*
X64600000Y-10000000D03*
X64600000Y-180000000D03*
X65400000Y-10000000D03*
X65400000Y-180000000D03*
X66200000Y-10000000D03*
X66200000Y-180000000D03*
X67000000Y-10000000D03*
X67000000Y-180000000D03*
X67800000Y-10000000D03*
X67800000Y-180000000D03*
X68600000Y-10000000D03*
X68600000Y-180000000D03*
X69400000Y-10000000D03*
X69400000Y-180000000D03*
X120600000Y-10000000D03*
X120600000Y-180000000D03*
X121400000Y-10000000D03*
X121400000Y-180000000D03*
X122200000Y-10000000D03*
X122200000Y-180000000D03*
X123000000Y-10000000D03*
X123000000Y-180000000D03*
X123800000Y-10000000D03*
X123800000Y-180000000D03*
X124600000Y-10000000D03*
X124600000Y-180000000D03*
X125400000Y-10000000D03*
X125400000Y-180000000D03*
X180000000Y-64600000D03*
X180000000Y-65400000D03*
X180000000Y-66200000D03*
X180000000Y-67000000D03*
X180000000Y-67800000D03*
X180000000Y-68600000D03*
X180000000Y-69400000D03*
X180000000Y-120600000D03*
X180000000Y-121400000D03*
X180000000Y-122200000D03*
X180000000Y-123000000D03*
X180000000Y-123800000D03*
X180000000Y-124600000D03*
X180000000Y-125400000D03*
X182300000Y-10000000D03*
X182300000Y-180000000D03*
X183100000Y-10000000D03*
X183100000Y-180000000D03*
X183900000Y-10000000D03*
X183900000Y-180000000D03*
X184700000Y-10000000D03*
X184700000Y-180000000D03*
X185500000Y-10000000D03*
X185500000Y-180000000D03*
X186300000Y-10000000D03*
X186300000Y-180000000D03*
X187100000Y-10000000D03*
X187100000Y-180000000D03*
X187900000Y-10000000D03*
X187900000Y-180000000D03*
X188700000Y-10000000D03*
X188700000Y-180000000D03*
D13*
X77250000Y-45500000D03*
X79790000Y-45500000D03*
X82330000Y-45500000D03*
X84870000Y-45500000D03*
X87410000Y-45500000D03*
X89950000Y-45500000D03*
X92490000Y-45500000D03*
X95030000Y-45500000D03*
X97570000Y-45500000D03*
D26*
X163180000Y-157640000D03*
D13*
X163180000Y-155100000D03*
X163180000Y-152560000D03*
X163180000Y-150020000D03*
X160640000Y-150020000D03*
X160640000Y-152560000D03*
X160640000Y-155100000D03*
X160640000Y-157640000D03*
D22*
X18560000Y-138130000D03*
X18560000Y-135530000D03*
X18560000Y-140230000D03*
X18560000Y-133430000D03*
X21060000Y-140230000D03*
X21060000Y-133430000D03*
X25560000Y-138130000D03*
X25560000Y-135530000D03*
X25560000Y-140230000D03*
X25560000Y-133430000D03*
X28060000Y-140230000D03*
X28060000Y-133430000D03*
D27*
X15560000Y-143580000D03*
X25560000Y-143580000D03*
X14760000Y-136830000D03*
X15560000Y-130080000D03*
X25560000Y-130080000D03*
D13*
X25120000Y-107580000D03*
X27660000Y-107580000D03*
X30200000Y-107580000D03*
X92460000Y-37830000D03*
X95000000Y-37830000D03*
X97540000Y-37830000D03*
X46200000Y-135330000D03*
X43660000Y-135330000D03*
X41120000Y-135330000D03*
D28*
X152360000Y-105180000D03*
X154900000Y-105180000D03*
X157440000Y-105180000D03*
X159980000Y-105180000D03*
X162520000Y-105180000D03*
X165060000Y-105180000D03*
X167600000Y-105180000D03*
X170140000Y-105180000D03*
X170140000Y-82320000D03*
X167600000Y-82320000D03*
X165060000Y-82320000D03*
X162520000Y-82320000D03*
X159980000Y-82320000D03*
X157440000Y-82320000D03*
X154900000Y-82320000D03*
X152360000Y-82320000D03*
D13*
X150120000Y-113330000D03*
X152660000Y-113330000D03*
X155200000Y-113330000D03*
X59450000Y-22830000D03*
X56910000Y-22830000D03*
X54370000Y-22830000D03*
X176250000Y-74980000D03*
X176250000Y-77520000D03*
D14*
X43020000Y-19100000D03*
X41070000Y-18300000D03*
X44970000Y-18300000D03*
X40270000Y-16350000D03*
D15*
X43020000Y-16350000D03*
D14*
X45770000Y-16350000D03*
X41070000Y-14400000D03*
X44970000Y-14400000D03*
X43020000Y-13600000D03*
D29*
X164760000Y-175830000D03*
D30*
X166030000Y-175830000D03*
X167300000Y-175830000D03*
X168570000Y-175830000D03*
D31*
X25840000Y-114530000D03*
X25840000Y-117030000D03*
X25840000Y-119030000D03*
X25840000Y-121530000D03*
X23240000Y-114530000D03*
X23240000Y-117030000D03*
X23240000Y-119030000D03*
X23240000Y-121530000D03*
D32*
X26240000Y-111480000D03*
X20540000Y-111480000D03*
X26240000Y-124580000D03*
X20540000Y-124580000D03*
D19*
X139482000Y-117490000D03*
D20*
X144562000Y-115330000D03*
D21*
X142022000Y-115330000D03*
X139482000Y-115330000D03*
X136942000Y-115330000D03*
D33*
X174640000Y-114830000D03*
X161680000Y-114830000D03*
D34*
X164350000Y-114330000D03*
D35*
X165620000Y-115330000D03*
X166890000Y-115330000D03*
D36*
X168160000Y-114330000D03*
D35*
X169430000Y-115330000D03*
X170700000Y-115330000D03*
D36*
X171970000Y-114330000D03*
D14*
X175100000Y-19100000D03*
X173150000Y-18300000D03*
X177050000Y-18300000D03*
X172350000Y-16350000D03*
D15*
X175100000Y-16350000D03*
D14*
X177850000Y-16350000D03*
X173150000Y-14400000D03*
X177050000Y-14400000D03*
X175100000Y-13600000D03*
D22*
X21080000Y-85285000D03*
X21080000Y-88055000D03*
X21080000Y-90825000D03*
X21080000Y-93595000D03*
X21080000Y-96365000D03*
X18240000Y-86670000D03*
X18240000Y-89440000D03*
X18240000Y-92210000D03*
X18240000Y-94980000D03*
D37*
X19660000Y-103320000D03*
X19660000Y-78330000D03*
D31*
X36330000Y-148630000D03*
X36330000Y-151170000D03*
X36330000Y-160490000D03*
X36330000Y-163030000D03*
X33500000Y-160280000D03*
X30960000Y-159005000D03*
X33500000Y-157735000D03*
X30960000Y-156465000D03*
X33500000Y-155195000D03*
X30960000Y-153925000D03*
X33500000Y-152655000D03*
X30960000Y-151385000D03*
D38*
X30960000Y-146505000D03*
X18360000Y-146505000D03*
X26640000Y-149260000D03*
X20960000Y-149260000D03*
X26640000Y-162400000D03*
X20960000Y-162400000D03*
X30960000Y-165155000D03*
X18360000Y-165155000D03*
D31*
X24020000Y-152290000D03*
X24020000Y-154830000D03*
X24020000Y-156830000D03*
X24020000Y-159370000D03*
X26640000Y-152290000D03*
X26640000Y-154830000D03*
X26640000Y-156830000D03*
X26640000Y-159370000D03*
D39*
X151770000Y-150530000D03*
D40*
X149230000Y-150530000D03*
X146690000Y-150530000D03*
X144150000Y-150530000D03*
X141610000Y-150530000D03*
X139070000Y-150530000D03*
X136530000Y-150530000D03*
X136530000Y-158150000D03*
X139070000Y-158150000D03*
X141610000Y-158150000D03*
X144150000Y-158150000D03*
X146690000Y-158150000D03*
X149230000Y-158150000D03*
X151770000Y-158150000D03*
D13*
X152911200Y-137830000D03*
X146408800Y-137830000D03*
X163160000Y-145140000D03*
X163160000Y-142600000D03*
X163160000Y-140060000D03*
X163160000Y-137520000D03*
D26*
X26890000Y-43900000D03*
D13*
X29430000Y-43900000D03*
X26890000Y-46440000D03*
X29430000Y-46440000D03*
X26890000Y-48980000D03*
X29430000Y-48980000D03*
X26890000Y-51520000D03*
X29430000Y-51520000D03*
X26890000Y-54060000D03*
X29430000Y-54060000D03*
X26890000Y-56600000D03*
X29430000Y-56600000D03*
X26890000Y-59140000D03*
X29430000Y-59140000D03*
X26890000Y-61680000D03*
X29430000Y-61680000D03*
X26890000Y-64220000D03*
X29430000Y-64220000D03*
X26890000Y-66760000D03*
X29430000Y-66760000D03*
D32*
X25860000Y-11790000D03*
X14560000Y-11790000D03*
D41*
X18360000Y-17830000D03*
D32*
X25860000Y-23870000D03*
X14560000Y-23870000D03*
D41*
X18360000Y-22830000D03*
X18360000Y-20330000D03*
X18360000Y-15330000D03*
X18360000Y-12830000D03*
X23360000Y-21580000D03*
X23360000Y-19080000D03*
X23360000Y-16580000D03*
X23360000Y-14080000D03*
X28360000Y-21580000D03*
X28360000Y-19080000D03*
X28360000Y-16580000D03*
X28360000Y-14080000D03*
D42*
X81060000Y-16080000D03*
X85260000Y-16080000D03*
X89460000Y-16080000D03*
X93660000Y-16080000D03*
X97860000Y-16080000D03*
X102060000Y-16080000D03*
X106260000Y-16080000D03*
X110460000Y-16080000D03*
X114660000Y-16080000D03*
X118860000Y-16080000D03*
X123060000Y-16080000D03*
X127260000Y-16080000D03*
X81060000Y-21580000D03*
X85260000Y-21580000D03*
X89460000Y-21580000D03*
X93660000Y-21580000D03*
X97860000Y-21580000D03*
X102060000Y-21580000D03*
X106260000Y-21580000D03*
X110460000Y-21580000D03*
X114660000Y-21580000D03*
X118860000Y-21580000D03*
X123060000Y-21580000D03*
X127260000Y-21580000D03*
D13*
X46200000Y-132330000D03*
X43660000Y-132330000D03*
X41120000Y-132330000D03*
X92460000Y-34830000D03*
X95000000Y-34830000D03*
X97540000Y-34830000D03*
X46200000Y-138330000D03*
X43660000Y-138330000D03*
X41120000Y-138330000D03*
X136120000Y-136830000D03*
X138660000Y-136830000D03*
X141200000Y-136830000D03*
X87410000Y-42960000D03*
X89950000Y-42960000D03*
X92490000Y-42960000D03*
X95030000Y-42960000D03*
X97570000Y-42960000D03*
X52680000Y-118080000D03*
X50140000Y-118080000D03*
D19*
X146982000Y-20798500D03*
D20*
X152062000Y-18638500D03*
D21*
X149522000Y-18638500D03*
X146982000Y-18638500D03*
X144442000Y-18638500D03*
D13*
X26160000Y-81450000D03*
X26160000Y-78910000D03*
X26160000Y-76370000D03*
X26160000Y-73830000D03*
D37*
X61985000Y-117830000D03*
X127985000Y-117830000D03*
X61985000Y-95830000D03*
X127985000Y-95830000D03*
D13*
X175911200Y-137830000D03*
X169408800Y-137830000D03*
X145620000Y-12830000D03*
X148160000Y-12830000D03*
X150700000Y-12830000D03*
D39*
X20610000Y-65025000D03*
D22*
X20610000Y-62255000D03*
X20610000Y-59485000D03*
X20610000Y-56715000D03*
X20610000Y-53945000D03*
X20610000Y-51175000D03*
X20610000Y-48405000D03*
X20610000Y-45635000D03*
X17770000Y-63640000D03*
X17770000Y-60870000D03*
X17770000Y-58100000D03*
X17770000Y-55330000D03*
X17770000Y-52560000D03*
X17770000Y-49790000D03*
X17770000Y-47020000D03*
D43*
X19190000Y-38680000D03*
X19190000Y-71980000D03*
%LPD*%
M02*
