M48
; DRILL file {KiCad 8.0.6} date 2025-01-15T23:32:22+0100
; FORMAT={-:-/ absolute / metric / decimal}
; #@! TF.CreationDate,2025-01-15T23:32:22+01:00
; #@! TF.GenerationSoftware,Kicad,Pcbnew,8.0.6
; #@! TF.FileFunction,NonPlated,1,4,NPTH
FMAT,2
METRIC
; #@! TA.AperFunction,NonPlated,NPTH,ComponentDrill
T1C0.500
; #@! TA.AperFunction,NonPlated,NPTH,ComponentDrill
T2C1.000
; #@! TA.AperFunction,NonPlated,NPTH,ComponentDrill
T3C1.300
; #@! TA.AperFunction,NonPlated,NPTH,ComponentDrill
T4C2.440
; #@! TA.AperFunction,NonPlated,NPTH,ComponentDrill
T5C5.000
%
G90
G05
T1
X1.3Y-10.0
X1.3Y-180.0
X2.1Y-10.0
X2.1Y-180.0
X2.9Y-10.0
X2.9Y-180.0
X3.7Y-10.0
X3.7Y-180.0
X4.5Y-10.0
X4.5Y-180.0
X5.3Y-10.0
X5.3Y-180.0
X6.1Y-10.0
X6.1Y-180.0
X6.9Y-10.0
X6.9Y-180.0
X7.7Y-10.0
X7.7Y-180.0
X10.0Y-64.6
X10.0Y-65.4
X10.0Y-66.2
X10.0Y-67.0
X10.0Y-67.8
X10.0Y-68.6
X10.0Y-69.4
X10.0Y-120.6
X10.0Y-121.4
X10.0Y-122.2
X10.0Y-123.0
X10.0Y-123.8
X10.0Y-124.6
X10.0Y-125.4
X64.6Y-10.0
X64.6Y-180.0
X65.4Y-10.0
X65.4Y-180.0
X66.2Y-10.0
X66.2Y-180.0
X67.0Y-10.0
X67.0Y-180.0
X67.8Y-10.0
X67.8Y-180.0
X68.6Y-10.0
X68.6Y-180.0
X69.4Y-10.0
X69.4Y-180.0
X120.6Y-10.0
X120.6Y-180.0
X121.4Y-10.0
X121.4Y-180.0
X122.2Y-10.0
X122.2Y-180.0
X123.0Y-10.0
X123.0Y-180.0
X123.8Y-10.0
X123.8Y-180.0
X124.6Y-10.0
X124.6Y-180.0
X125.4Y-10.0
X125.4Y-180.0
X180.0Y-64.6
X180.0Y-65.4
X180.0Y-66.2
X180.0Y-67.0
X180.0Y-67.8
X180.0Y-68.6
X180.0Y-69.4
X180.0Y-120.6
X180.0Y-121.4
X180.0Y-122.2
X180.0Y-123.0
X180.0Y-123.8
X180.0Y-124.6
X180.0Y-125.4
X182.3Y-10.0
X182.3Y-180.0
X183.1Y-10.0
X183.1Y-180.0
X183.9Y-10.0
X183.9Y-180.0
X184.7Y-10.0
X184.7Y-180.0
X185.5Y-10.0
X185.5Y-180.0
X186.3Y-10.0
X186.3Y-180.0
X187.1Y-10.0
X187.1Y-180.0
X187.9Y-10.0
X187.9Y-180.0
X188.7Y-10.0
X188.7Y-180.0
T2
X56.21Y-175.13
X64.21Y-175.13
T3
X139.482Y-117.49
X146.982Y-20.799
X161.982Y-20.799
T4
X73.725Y-172.255
X99.365Y-172.255
X145.005Y-172.255
T5
X61.985Y-95.83
X61.985Y-117.83
X127.985Y-95.83
X127.985Y-117.83
M30
